<svg xmlns="http://www.w3.org/2000/svg" width="200" height="40" viewBox="0,0,200,40"><path d="M13 36 C94 26,80 9,179 20" stroke="#888" fill="none"/><path fill="#222" d="M137.43 34.90L137.53 35.00L137.46 34.94Q133.31 34.40 131.48 32.95L131.34 32.81L131.41 32.88Q129.70 31.55 129.29 28.55L129.09 28.35L129.29 28.55Q129.06 27.98 128.72 23.22L128.85 23.36L128.83 23.33Q128.81 22.10 128.73 20.84L128.81 20.91L128.76 20.87Q128.52 15.75 130.73 14.00L130.73 14.00L130.73 14.00Q133.53 12.05 141.30 11.36L141.30 11.36L141.36 11.42Q142.52 11.10 144.16 11.14L144.29 11.27L144.13 11.11Q144.16 11.14 147.13 11.14L147.25 11.26L147.13 11.14Q147.97 11.14 149.68 11.29L149.79 11.41L149.73 11.34Q149.20 12.26 148.17 15.34L148.17 15.34L148.23 15.40Q146.19 14.23 143.18 14.23L143.05 14.10L143.07 14.13Q142.34 14.15 141.54 14.23L141.60 14.29L141.61 14.30Q136.48 14.73 133.97 16.71L133.88 16.62L134.03 16.77Q131.87 18.23 131.72 21.58L131.69 21.55L131.79 21.65Q131.81 22.32 131.85 23.57L131.68 23.41L131.82 23.54Q131.93 28.38 134.33 30.47L134.21 30.35L134.26 30.41Q136.55 32.46 141.54 32.77L141.47 32.70L141.48 32.70Q144.61 32.87 147.62 31.08L147.66 31.12L147.54 31.00Q148.18 33.78 148.79 35.15L148.88 35.24L148.80 35.16Q146.79 35.51 145.15 35.47L145.12 35.44L145.01 35.33Q140.55 35.28 137.42 34.90ZM152.54 38.63L152.59 38.68L152.60 38.69Q150.70 35.57 150.01 32.98L150.12 33.09L150.06 33.03Q149.73 33.39 148.74 33.77L148.67 33.69L148.59 33.61Q148.33 32.90 148.14 32.06L148.22 32.14L147.80 30.39L147.81 30.40Q144.42 32.33 141.29 32.22L141.36 32.28L141.33 32.25Q137.20 32.20 134.88 30.45L134.73 30.30L134.73 30.30Q133.70 28.58 133.77 25.65L133.75 25.63L133.70 25.58Q133.86 21.09 136.33 18.96L136.32 18.95L136.28 18.91Q138.39 16.98 143.07 16.37L143.06 16.36L143.17 16.47Q143.99 16.37 144.71 16.37L144.75 16.41L144.60 16.26Q147.51 16.39 149.60 17.92L149.52 17.83L149.46 17.77Q150.09 15.77 151.31 12.54L151.18 12.41L151.17 12.41Q151.08 12.58 150.53 12.52L150.35 12.34L150.47 12.46Q149.93 12.42 149.67 12.42L149.58 12.34L149.60 12.35Q149.77 11.80 150.22 10.81L150.37 10.95L150.35 10.94Q150.03 10.84 147.54 10.77L147.60 10.83L147.53 10.76Q145.14 10.79 144.49 10.83L144.36 10.70L144.51 10.84Q133.94 11.12 130.48 13.71L130.47 13.70L130.46 13.69Q128.37 15.45 128.37 19.37L128.47 19.47L128.47 19.48Q128.34 20.44 128.45 23.15L128.56 23.25L128.62 23.31Q128.57 26.69 128.80 28.41L128.85 28.45L128.87 28.47Q129.34 31.69 130.94 33.21L130.79 33.06L130.82 33.09Q131.29 33.75 132.55 34.89L132.59 34.94L132.66 35.01Q135.97 36.83 141.22 37.59L141.13 37.50L141.22 37.59Q147.59 38.48 152.58 38.67Z"/><path fill="#111" d="M166.94 14.72L166.96 14.73L165.34 14.79L165.22 14.67Q163.00 14.81 162.77 16.83L162.76 16.82L162.76 16.82Q162.84 17.70 162.88 18.69L162.82 18.63L162.80 18.61Q162.76 20.47 164.02 21.81L164.01 21.80L164.10 21.88Q165.30 23.17 167.21 23.01L167.33 23.14L167.25 23.06Q169.28 22.88 170.04 21.96L170.15 22.07L170.02 21.94Q171.05 20.99 171.32 18.75L171.29 18.72L171.37 18.80Q171.70 16.62 170.44 15.78L170.38 15.71L170.37 15.71Q169.47 14.88 166.80 14.58ZM172.99 23.96L172.84 23.81L171.61 26.16L171.64 26.19Q168.89 30.94 165.12 35.01L165.18 35.08L165.06 34.95Q163.46 35.15 160.76 35.94L160.71 35.89L160.91 36.09Q166.16 29.73 169.32 24.93L169.35 24.97L169.20 24.81Q168.27 25.56 166.63 25.63L166.70 25.71L166.54 25.55Q163.63 25.80 162.11 23.82L162.06 23.77L162.20 23.91Q160.97 22.29 159.86 17.73L159.77 17.63L159.86 17.72Q159.86 17.27 159.71 16.34L159.53 16.16L159.65 16.28Q159.57 15.41 159.57 14.95L159.41 14.80L159.42 14.80Q159.54 13.14 160.60 12.53L160.47 12.39L160.48 12.40Q161.80 11.74 163.66 11.74L163.53 11.61L163.56 11.64Q166.90 11.78 166.90 11.78L166.72 11.60L166.89 11.77Q168.97 11.72 170.22 11.91L170.33 12.01L170.22 11.91Q172.36 12.17 173.27 12.67L173.39 12.79L173.36 12.75Q174.73 13.52 174.92 15.27L174.83 15.18L174.88 15.23Q174.82 15.40 174.63 18.06L174.64 18.07L174.60 18.04Q174.36 20.31 174.14 21.15L174.07 21.08L174.04 21.06Q173.66 22.46 172.90 23.87ZM174.78 26.25L174.80 26.27L174.86 26.33Q175.83 24.10 176.36 19.80L176.44 19.87L176.29 19.73Q176.55 17.51 176.51 16.63L176.66 16.78L176.47 16.59Q176.59 14.88 175.41 13.97L175.26 13.82L175.10 13.85L175.13 13.88Q174.88 13.13 173.96 12.48L173.92 12.44L173.83 12.35Q171.68 11.50 166.88 11.34L166.86 11.32L166.73 11.19Q165.91 11.32 163.47 11.32L163.43 11.28L163.30 11.15Q161.59 11.20 160.11 11.88L160.16 11.93L160.20 11.97Q158.99 12.70 159.07 14.53L159.12 14.58L159.10 14.56Q159.21 15.39 159.40 17.41L159.43 17.44L159.57 17.58Q160.11 20.14 160.38 20.98L160.32 20.92L160.34 20.95Q160.95 22.84 161.90 24.14L161.83 24.07L161.80 24.04Q162.20 24.52 162.58 24.90L162.49 24.80L162.58 24.89Q162.76 25.27 163.41 26.18L163.47 26.25L163.44 26.22Q165.00 27.66 166.95 27.85L166.88 27.78L166.82 27.73Q164.95 30.42 163.39 32.33L163.43 32.37L159.72 36.66L159.85 36.78Q161.96 35.89 163.60 35.55L163.63 35.58L163.75 35.70Q162.92 36.50 161.36 38.22L161.42 38.28L161.39 38.25Q164.35 37.21 167.48 37.18L167.52 37.22L167.52 37.22Q169.81 34.60 174.15 27.37L174.30 27.52L174.26 27.56L174.11 27.40Q174.55 26.86 174.90 26.36ZM168.88 17.11L168.79 17.02L168.79 17.02Q169.35 16.86 169.81 16.97L169.84 17.01L169.83 16.99Q170.43 17.06 170.81 17.18L170.84 17.20L170.92 17.29Q170.92 17.56 171.00 17.97L171.14 18.11L171.03 18.00Q171.18 18.49 171.06 18.88L170.97 18.78L171.01 18.83Q170.97 20.54 169.79 21.64L169.78 21.63L169.75 21.60Q168.82 22.64 167.18 22.61L167.31 22.73L167.15 22.57Q166.89 22.73 165.36 22.43L165.27 22.33L165.30 22.36Q165.13 21.55 165.13 20.83L164.98 20.67L165.01 20.71Q165.05 20.55 165.05 20.33L165.02 20.29L165.07 20.35Q164.94 18.01 167.22 17.21L167.24 17.22L167.24 17.22Q168.01 17.07 168.84 17.07Z"/><path fill="#222" d="M53.65 14.56L53.64 14.56L52.19 14.78L52.17 14.76Q50.00 14.95 49.77 16.97L49.65 16.85L49.71 16.91Q49.54 17.54 49.58 18.53L49.57 18.52L49.74 18.69Q49.71 20.57 50.97 21.90L51.03 21.96L50.98 21.91Q52.16 23.17 54.07 23.02L54.16 23.11L54.06 23.00Q56.21 22.95 56.97 22.03L56.88 21.94L56.84 21.91Q58.00 21.08 58.27 18.84L58.23 18.80L58.24 18.81Q58.56 16.62 57.30 15.78L57.26 15.74L57.29 15.77Q56.35 14.91 53.69 14.60ZM59.74 23.85L59.75 23.87L58.55 26.24L58.41 26.10Q55.84 31.03 52.07 35.10L52.03 35.06L52.07 35.10Q50.28 35.10 47.58 35.90L47.68 36.01L47.60 35.92Q52.92 29.64 56.08 24.84L56.18 24.94L56.06 24.82Q55.07 25.50 53.43 25.58L53.50 25.65L53.56 25.71Q50.39 25.70 48.87 23.72L48.90 23.75L48.90 23.75Q47.79 22.26 46.69 17.69L46.57 17.58L46.59 17.60Q46.55 17.10 46.40 16.17L46.54 16.30L46.40 16.17Q46.36 15.35 46.36 14.89L46.36 14.89L46.35 14.88Q46.26 13.00 47.32 12.39L47.47 12.54L47.49 12.56Q48.64 11.72 50.50 11.72L50.38 11.60L50.48 11.70Q53.67 11.70 53.67 11.70L53.59 11.61L53.75 11.77Q55.88 11.77 57.14 11.96L57.20 12.02L57.01 11.84Q59.16 12.11 60.07 12.61L60.21 12.75L60.23 12.77Q61.46 13.40 61.65 15.15L61.66 15.15L61.78 15.27Q61.75 15.47 61.56 18.13L61.45 18.03L61.46 18.03Q61.19 20.28 60.97 21.12L60.88 21.04L60.99 21.14Q60.53 22.48 59.77 23.88ZM61.59 26.20L61.74 26.35L61.70 26.31Q62.71 24.12 63.24 19.82L63.21 19.79L63.20 19.78Q63.47 17.57 63.43 16.70L63.44 16.71L63.34 16.61Q63.38 14.82 62.20 13.90L62.24 13.94L61.93 13.82L61.92 13.81Q61.67 13.06 60.75 12.42L60.74 12.41L60.67 12.34Q58.38 11.34 53.58 11.18L53.59 11.20L53.58 11.18Q52.76 11.32 50.33 11.32L50.21 11.20L50.32 11.31Q48.53 11.27 47.04 11.96L47.04 11.95L46.93 11.84Q45.90 12.76 45.98 14.58L46.02 14.63L45.93 14.54Q46.11 15.44 46.30 17.46L46.40 17.56L46.31 17.47Q46.94 20.11 47.21 20.95L47.23 20.98L47.16 20.91Q47.84 22.88 48.79 24.17L48.80 24.18L48.74 24.12Q48.90 24.36 49.28 24.74L49.35 24.81L49.45 24.90Q49.56 25.21 50.20 26.12L50.36 26.27L50.29 26.21Q51.74 27.54 53.68 27.73L53.74 27.79L53.74 27.79Q51.86 30.48 50.30 32.39L50.25 32.33L46.60 36.68L46.69 36.77Q48.81 35.88 50.45 35.54L50.50 35.59L50.56 35.65Q49.71 36.44 48.15 38.15L48.21 38.22L48.28 38.28Q51.21 37.21 54.33 37.17L54.43 37.27L54.49 37.34Q56.82 34.75 61.16 27.52L61.08 27.44L61.09 27.53L61.03 27.47Q61.31 26.76 61.65 26.26ZM55.58 16.95L55.68 17.05L55.72 17.10Q56.20 16.85 56.66 16.96L56.81 17.12L56.77 17.07Q57.34 17.11 57.72 17.23L57.84 17.35L57.72 17.22Q57.87 17.65 57.95 18.06L57.96 18.07L57.86 17.97Q58.05 18.51 57.94 18.89L57.91 18.86L57.82 18.78Q57.79 20.50 56.61 21.60L56.64 21.63L56.64 21.63Q55.80 22.77 54.17 22.73L54.15 22.72L54.00 22.57Q53.75 22.73 52.22 22.43L52.22 22.43L52.15 22.36Q51.99 21.55 51.99 20.83L52.02 20.85L51.99 20.82Q51.89 20.53 51.89 20.30L51.78 20.20L51.93 20.34Q51.82 18.03 54.10 17.23L54.15 17.28L54.19 17.31Q54.79 17.00 55.63 17.00Z"/><path fill="#111" d="M106.85 35.26L106.96 35.36L107.02 35.43Q105.54 35.43 103.98 35.01L104.00 35.03L104.05 35.08Q102.75 34.08 102.60 32.45L102.66 32.51L102.51 32.37Q102.58 32.28 102.77 29.65L102.81 29.69L102.72 29.61Q103.83 29.49 105.85 29.11L105.88 29.15L105.52 29.73L105.59 29.81Q105.37 31.61 106.78 32.18L106.78 32.18L106.74 32.14Q107.46 32.40 109.55 32.40L109.55 32.40L109.61 32.45Q111.16 32.25 111.35 32.18L111.36 32.19L111.46 32.29Q112.44 32.20 113.16 31.71L113.08 31.62L112.97 31.51Q114.39 30.58 114.20 28.48L114.27 28.55L114.38 28.66Q114.14 26.17 112.41 24.61L112.43 24.64L112.35 24.55Q110.60 22.98 108.13 22.98L108.21 23.06L108.25 22.87L108.09 22.71Q108.53 22.73 109.40 22.66L109.35 22.60L109.37 22.62Q111.41 22.65 112.78 21.41L112.72 21.35L112.71 21.34Q114.09 20.11 114.24 18.25L114.30 18.30L114.28 18.29Q114.35 17.93 114.35 17.59L114.34 17.58L114.33 17.57Q114.19 15.91 112.82 15.00L113.00 15.17L112.92 15.10Q111.63 14.23 110.03 14.34L110.12 14.43L110.13 14.43Q108.82 14.27 107.61 14.69L107.49 14.57L107.56 14.65Q106.20 15.26 105.89 16.41L105.82 16.33L105.93 16.44Q105.60 17.07 105.68 17.83L105.72 17.87L105.78 17.93Q104.71 17.66 102.66 16.94L102.70 16.98L102.67 16.95Q102.39 15.23 102.43 14.39L102.35 14.30L102.46 14.42Q102.56 12.88 103.62 12.19L103.53 12.10L103.71 12.28Q105.09 11.64 106.68 11.64L106.56 11.52L106.61 11.57Q109.81 11.57 112.97 11.83L112.87 11.73L112.95 11.82Q117.94 12.15 117.63 15.92L117.77 16.06L117.78 16.07Q117.65 17.50 117.15 19.06L117.16 19.07L117.12 19.03Q116.21 22.12 113.85 23.03L113.79 22.97L113.84 23.02Q116.56 23.65 117.17 27.00L117.19 27.01L117.20 27.03Q117.29 28.03 117.37 30.05L117.32 30.01L117.44 30.13Q117.53 34.52 112.93 34.97L112.88 34.93L113.03 35.08Q112.31 35.15 107.02 35.42ZM112.07 37.50L112.17 37.61L112.07 37.51Q112.73 37.59 115.58 37.67L115.58 37.67L115.54 37.62Q117.31 37.72 118.94 37.07L119.10 37.23L119.09 37.21Q120.28 36.28 120.09 34.52L120.08 34.52L119.98 34.42Q119.96 33.17 119.65 31.42L119.62 31.39L119.64 31.41Q118.94 26.94 117.00 25.31L116.86 25.17L116.64 24.75L116.62 24.70L116.65 24.72Q118.50 23.38 119.26 19.00L119.29 19.03L119.10 18.84Q119.22 18.47 119.34 17.52L119.34 17.52L119.42 17.60Q119.51 16.85 119.44 16.17L119.30 16.04L119.36 16.09Q119.23 14.44 117.94 13.75L117.87 13.68L117.76 13.66L117.88 13.77Q117.53 12.74 116.39 12.21L116.40 12.21L116.45 12.27Q114.76 11.42 109.62 11.11L109.68 11.17L109.69 11.18Q108.04 11.13 106.44 11.13L106.51 11.20L106.44 11.13Q104.79 11.07 103.26 11.72L103.23 11.69L103.24 11.70Q102.02 12.45 102.02 14.21L102.20 14.38L102.19 14.38Q102.02 13.79 102.29 17.14L102.45 17.30L102.44 17.29Q102.64 17.26 104.28 17.87L104.33 17.92L104.26 17.85Q104.24 18.37 104.20 18.86L104.25 18.91L104.23 18.89Q104.18 19.34 104.22 19.87L104.23 19.88L104.37 20.03Q106.02 20.26 108.04 20.38L108.05 20.39L108.04 20.38Q108.06 18.46 109.16 17.62L109.18 17.64L109.06 17.52Q110.07 17.04 112.08 16.81L111.94 16.66L111.99 16.71Q113.19 16.77 113.76 16.96L113.62 16.82L113.81 17.02Q113.69 16.97 113.73 17.08L113.83 17.18L113.81 17.35L113.90 17.91L113.94 17.94Q113.82 18.02 113.78 18.17L113.90 18.28L113.78 18.16Q113.72 19.89 112.20 21.07L112.21 21.09L112.29 21.16Q111.35 22.05 109.33 22.24L109.28 22.19L109.36 22.27Q108.70 22.49 107.83 22.49L107.65 22.31L107.81 22.48Q107.82 22.78 107.97 23.47L107.89 23.39L107.84 23.34Q109.65 23.40 111.10 24.12L111.11 24.14L110.96 24.10L109.36 24.25L109.43 24.32Q109.44 24.64 109.56 25.24L109.67 25.36L109.51 25.20Q111.70 25.18 113.41 26.51L113.43 26.53L113.52 26.62Q113.77 27.03 114.08 28.66L114.02 28.60L114.05 28.64Q114.20 31.53 111.27 31.95L111.21 31.89L111.14 31.82Q109.19 32.22 108.62 32.19L108.51 32.08L108.56 32.13Q108.13 32.04 107.60 31.97L107.50 31.87L107.54 31.45L107.70 31.04L107.79 30.71L107.80 30.38L107.70 30.28Q106.82 30.43 106.02 30.62L106.01 30.60L106.00 30.60Q106.06 30.47 106.06 30.27L106.05 30.26L106.01 30.23Q105.98 29.97 105.98 29.74L106.03 29.79L106.09 29.85Q106.06 29.36 106.21 28.64L106.28 28.71L106.22 28.65Q104.34 28.86 102.48 29.21L102.40 29.13L102.50 29.23Q102.57 29.80 102.46 30.92L102.38 30.84L102.32 30.78Q102.20 31.90 102.20 32.51L102.34 32.65L102.23 32.54Q102.31 34.60 103.68 35.36L103.71 35.39L103.69 35.36Q105.09 37.57 109.81 37.38L109.81 37.38L109.85 37.42Q110.61 37.41 112.13 37.57Z"/><path d="M14 39 C92 7,106 30,182 4" stroke="#666" fill="none"/><path fill="#222" d="M81.87 24.11L81.83 24.07L81.77 24.01Q80.10 24.06 78.87 25.49L78.75 25.37L78.71 25.33Q77.66 26.94 77.47 28.85L77.30 28.68L77.35 28.73Q77.24 30.91 78.33 31.88L78.29 31.84L78.28 31.83Q79.26 32.69 81.35 32.58L81.40 32.63L81.45 32.68Q83.56 32.54 84.67 31.86L84.66 31.85L84.63 31.82Q85.68 30.63 85.68 29.07L85.67 29.06L85.67 29.05Q85.77 28.77 85.69 28.39L85.69 28.39L85.76 28.46Q85.73 26.68 84.63 25.33L84.69 25.39L84.56 25.26Q83.50 23.96 81.83 24.07ZM81.48 35.26L81.44 35.22L81.38 35.16Q77.16 35.31 75.75 34.55L75.72 34.52L75.75 34.55Q74.73 33.80 74.54 32.08L74.45 32.00L74.38 31.93Q74.41 31.31 74.44 30.58L74.48 30.62L74.48 30.62Q74.59 29.63 74.59 29.17L74.65 29.22L74.47 29.05Q75.09 26.35 75.24 25.67L75.15 25.58L75.24 25.67Q75.69 23.72 76.53 22.31L76.47 22.25L76.52 22.30Q79.04 17.78 84.98 11.42L85.10 11.54L85.07 11.51Q87.71 11.18 89.92 10.38L90.00 10.47L90.01 10.48Q83.11 17.89 79.91 22.11L79.90 22.10L79.97 22.18Q80.88 21.60 82.18 21.60L82.10 21.53L82.17 21.59Q85.45 21.56 86.97 23.50L87.10 23.63L86.92 23.45Q88.26 25.10 88.60 28.64L88.59 28.63L88.71 28.75Q88.72 29.41 88.72 30.01L88.72 30.02L88.67 29.96Q88.79 33.20 86.58 34.27L86.51 34.19L86.56 34.25Q85.40 34.91 81.51 35.29ZM83.67 37.56L83.64 37.54L83.73 37.62Q85.08 37.64 87.06 37.71L87.06 37.71L87.10 37.76Q88.58 37.68 90.14 36.96L90.25 37.06L90.12 36.93Q91.35 36.26 91.35 34.47L91.28 34.40L91.32 34.44Q91.37 34.00 91.20 33.01L91.22 33.02L91.05 32.85Q90.99 31.98 90.99 31.52L90.91 31.44L90.94 31.47Q90.14 26.82 88.54 24.92L88.48 24.86L88.46 24.84Q88.36 24.70 88.20 24.47L88.21 24.48L87.88 24.23L87.84 24.22L87.86 24.24Q87.47 23.70 86.86 22.74L86.99 22.87L87.00 22.89Q86.04 21.88 84.06 21.43L84.07 21.44L84.07 21.44Q85.23 19.79 88.20 16.09L88.26 16.15L92.35 10.73L92.39 10.76Q90.90 11.70 88.50 12.47L88.54 12.51L88.58 12.55Q89.36 11.43 91.15 9.45L91.11 9.41L91.22 9.51Q88.74 10.50 84.86 11.07L84.92 11.13L84.97 11.19Q79.25 17.08 76.28 22.03L76.33 22.07L76.17 21.91Q74.64 24.42 74.07 30.67L74.13 30.73L74.07 30.66Q73.98 31.22 74.06 32.17L74.13 32.25L74.22 32.34Q74.26 34.06 75.37 34.97L75.33 34.93L75.39 35.00Q75.61 34.99 75.58 35.03L75.76 35.21L75.57 35.02Q76.10 36.09 76.90 36.50L76.91 36.51L76.92 36.52Q78.22 37.06 80.16 37.25L80.17 37.26L80.25 37.34Q80.26 37.35 83.76 37.65ZM83.58 26.47L83.45 26.34L83.48 26.37Q84.11 26.31 85.06 26.81L84.97 26.72L85.08 26.82Q85.39 27.75 85.39 28.40L85.36 28.37L85.44 28.44Q85.50 30.18 84.55 31.17L84.59 31.21L84.58 31.20Q83.47 31.88 81.38 32.19L81.53 32.33L81.42 32.22Q79.97 32.22 79.43 31.95L79.51 32.04L79.47 31.99Q79.19 31.44 79.19 31.14L79.22 31.17L79.20 31.15Q78.96 27.87 81.89 26.57L81.94 26.62L82.07 26.75Q82.65 26.22 83.41 26.30Z"/><path fill="#222" d="M33.22 32.83L33.29 32.91L33.21 32.83Q33.59 33.89 34.13 35.91L34.05 35.83L34.17 35.96Q29.99 34.66 25.38 34.93L25.31 34.86L25.22 34.77Q20.68 35.07 16.69 37.05L16.72 37.08L16.75 37.11Q16.94 36.39 16.98 36.46L17.01 36.50L17.04 36.53Q20.80 32.60 24.72 28.18L24.70 28.16L24.71 28.17Q29.00 23.05 30.18 18.37L30.25 18.44L30.28 18.47Q30.65 16.64 29.38 15.46L29.34 15.42L29.40 15.48Q28.17 14.34 26.38 14.49L26.29 14.40L26.40 14.52Q26.04 14.46 25.70 14.46L25.64 14.40L25.66 14.43Q24.09 14.38 22.84 15.29L22.96 15.42L22.87 15.33Q21.57 16.69 21.80 19.35L21.81 19.37L21.88 19.44Q20.09 19.09 18.87 18.64L18.76 18.53L18.73 18.50Q18.61 17.16 18.53 15.71L18.56 15.74L18.49 15.66Q18.48 14.10 19.09 12.96L19.05 12.91L19.10 12.97Q20.82 11.53 24.17 11.53L24.16 11.51L25.89 11.50L25.90 11.51Q28.21 11.56 29.16 11.68L29.24 11.76L29.31 11.83Q33.64 12.23 33.90 14.67L33.84 14.61L33.85 14.62Q33.83 15.10 33.75 15.89L33.75 15.89L33.78 15.92Q33.73 16.56 33.58 17.24L33.54 17.20L33.61 17.27Q31.95 25.36 24.37 32.21L24.51 32.35L24.41 32.25Q25.79 32.06 27.16 32.06L27.23 32.13L27.15 32.06Q30.34 32.01 33.19 32.81ZM32.79 12.15L32.82 12.18L32.81 12.17Q31.20 11.51 29.48 11.43L29.33 11.28L26.02 11.21L26.04 11.22Q21.62 10.99 19.41 12.10L19.27 11.96L19.36 12.04Q18.29 13.41 18.29 15.46L18.34 15.51L18.18 15.36Q18.29 16.15 18.59 18.97L18.58 18.95L18.57 18.94Q19.05 19.12 20.23 19.43L20.34 19.53L20.38 20.60L20.33 20.55Q20.31 21.02 20.38 21.56L20.42 21.59L20.44 21.62Q21.59 21.63 24.07 21.86L24.02 21.80L23.98 21.77Q24.03 21.47 24.03 21.13L24.09 21.19L24.05 21.15Q24.06 19.34 25.28 17.99L25.33 18.03L25.17 17.87Q26.44 16.58 28.23 16.69L28.31 16.77L28.25 16.71Q29.02 16.76 29.78 16.91L29.88 17.01L29.84 16.97Q29.99 17.38 30.07 17.80L29.97 17.70L30.02 17.75Q30.08 18.20 30.01 18.54L29.94 18.48L29.97 18.50Q28.59 23.14 24.17 27.98L24.36 28.16L24.33 28.13Q22.06 30.24 16.62 36.30L16.67 36.35L16.74 36.41Q16.41 37.12 16.07 37.69L16.25 37.87L16.24 37.85Q17.77 36.92 19.30 36.38L19.29 36.37L19.26 36.34Q18.46 36.84 17.51 38.33L17.58 38.40L17.59 38.40Q17.43 38.71 17.32 39.05L17.45 39.19L17.30 39.03Q22.23 37.03 27.71 37.22L27.74 37.25L27.65 37.16Q33.49 37.48 38.06 39.84L38.01 39.79L37.03 37.68L37.01 37.65Q36.39 36.35 36.13 35.55L36.08 35.51L36.15 35.57Q35.32 35.05 34.11 34.63L34.16 34.69L34.03 34.56Q34.05 34.00 33.67 32.63L33.50 32.46L33.69 32.66Q31.39 31.99 29.10 31.80L29.03 31.72L29.19 31.89Q33.73 27.17 35.25 18.91L35.31 18.97L35.55 16.13L35.42 16.00Q35.51 14.37 34.29 13.69L34.11 13.50L34.18 13.62L34.26 13.70Q34.21 13.61 34.14 13.61L33.99 13.46L34.09 13.56Q33.73 12.60 32.63 11.99Z"/></svg>