<svg xmlns="http://www.w3.org/2000/svg" width="200" height="40" viewBox="0,0,200,40"><path fill="#444" d="M82.06 14.58L82.07 14.59L82.13 14.64Q80.16 14.77 79.20 14.92L79.18 14.89L79.19 14.90Q77.50 15.08 76.28 15.62L76.42 15.75L76.34 15.67Q72.81 17.09 72.69 21.77L72.83 21.91L72.68 21.75Q72.61 24.43 73.26 27.36L73.29 27.39L73.42 27.52Q74.11 31.37 77.73 32.55L77.78 32.61L77.82 32.64Q79.73 33.22 81.17 33.07L81.17 33.07L81.51 32.95L81.49 32.93Q81.71 32.95 81.90 32.99L82.06 33.16L82.04 33.13Q82.06 33.00 82.21 32.97L82.25 33.00L82.31 33.06Q84.80 32.66 86.17 32.09L86.22 32.14L82.62 28.58L82.67 28.63Q83.05 28.35 83.65 27.74L83.67 27.76L84.64 26.90L84.48 26.74Q86.40 28.89 88.38 30.95L88.34 30.90L88.31 30.88Q90.59 29.01 90.86 23.64L91.00 23.78L90.94 23.73Q90.97 22.77 90.97 21.85L91.04 21.92L91.00 21.88Q91.02 16.23 85.96 15.13L85.98 15.15L85.96 15.12Q84.67 14.83 82.16 14.68ZM94.95 36.75L94.88 36.68L94.81 36.62Q94.35 37.18 93.17 38.06L93.25 38.13L88.80 34.41L88.82 34.43Q86.22 35.53 81.96 35.57L81.96 35.57L81.92 35.53Q75.55 35.82 72.73 33.57L72.56 33.40L72.73 33.57Q70.87 31.71 70.41 28.74L70.40 28.73L70.38 28.70Q70.12 26.85 69.74 23.27L69.86 23.39L69.90 23.43Q69.88 22.69 69.77 20.94L69.70 20.87L69.79 20.96Q69.61 19.38 69.65 18.50L69.66 18.50L69.55 18.39Q69.64 15.33 71.39 13.77L71.41 13.78L71.52 13.90Q73.03 12.55 76.23 12.06L76.09 11.92L76.17 12.00Q78.73 11.70 81.62 11.78L81.49 11.65L81.54 11.70Q89.09 11.86 92.22 14.22L92.17 14.18L92.24 14.25Q94.25 16.22 93.99 21.14L94.17 21.31L94.07 21.22Q93.95 24.94 93.76 26.27L93.65 26.17L93.60 26.11Q93.06 30.71 90.73 33.03L90.64 32.94L90.65 32.95Q92.25 34.32 94.99 36.79ZM90.03 12.42L90.11 12.50L90.17 12.56Q88.05 11.74 81.54 11.24L81.65 11.34L81.52 11.22Q80.08 11.19 77.30 11.30L77.42 11.42L77.45 11.45Q73.09 11.55 70.85 13.53L71.02 13.70L70.95 13.63Q69.17 14.97 69.17 18.13L69.29 18.26L69.25 18.21Q69.22 19.02 69.37 20.73L69.37 20.73L69.37 20.73Q69.61 22.53 69.61 23.41L69.62 23.42L69.51 23.31Q69.66 25.06 70.04 28.63L70.13 28.72L70.14 28.73Q70.48 31.59 72.08 33.64L71.95 33.51L72.07 33.63Q72.34 34.39 73.55 35.54L73.61 35.60L73.50 35.49Q76.26 37.52 81.43 37.78L81.54 37.88L81.56 37.91Q81.90 37.90 84.29 38.02L84.23 37.95L84.33 38.06Q89.01 38.09 91.30 37.02L91.29 37.02L91.28 37.00Q92.17 37.70 96.89 41.28L96.89 41.28L96.83 41.22Q97.49 40.75 98.79 39.76L98.90 39.87L98.77 39.74Q97.91 39.07 97.11 38.39L97.19 38.46L95.45 36.91L95.59 36.90L95.56 36.87Q95.00 36.43 93.79 35.40L93.77 35.39L93.85 35.46Q95.69 32.89 95.69 28.36L95.66 28.33L95.74 28.40Q95.75 28.00 95.79 27.16L95.74 27.12L95.81 27.18Q95.76 26.26 95.76 25.84L95.72 25.80L95.70 25.78Q95.73 20.29 95.01 17.93L94.97 17.89L95.06 17.98Q94.75 16.76 93.87 15.69L93.72 15.54L93.78 15.60Q92.92 13.40 89.98 12.37ZM84.08 17.06L84.05 17.02L84.07 17.04Q88.18 17.00 90.01 18.60L90.03 18.62L90.05 18.65Q90.47 19.71 90.58 21.05L90.56 21.02L90.66 21.12Q90.81 22.46 90.74 23.83L90.72 23.81L90.71 23.79Q90.32 28.70 88.38 30.41L88.37 30.40L88.41 30.44Q87.10 29.13 84.59 26.39L84.54 26.35L84.49 26.30Q83.83 27.16 82.27 28.72L82.15 28.60L82.21 28.66Q82.79 29.28 83.93 30.46L83.90 30.42L83.89 30.53L83.85 30.49Q84.47 31.07 85.50 32.14L85.52 32.16L85.35 31.99Q84.39 32.28 82.06 32.59L82.14 32.67L81.52 32.58L81.15 32.62L81.14 32.65L81.07 32.58Q77.78 32.76 75.80 31.12L75.75 31.07L75.64 30.96Q74.61 28.86 74.65 25.74L74.80 25.89L74.72 25.82Q74.97 17.20 84.15 17.12Z"/><path fill="#222" d="M166.92 14.58L167.07 14.73L167.11 14.77Q165.11 14.86 164.16 15.01L164.16 15.02L164.05 14.91Q162.53 15.25 161.31 15.78L161.23 15.71L161.28 15.75Q157.68 17.11 157.57 21.79L157.52 21.74L157.54 21.76Q157.50 24.46 158.15 27.39L158.23 27.47L158.15 27.40Q159.14 31.55 162.76 32.73L162.77 32.73L162.64 32.60Q164.52 33.16 165.97 33.01L166.02 33.05L166.52 33.10L166.44 33.01Q166.58 32.97 166.77 33.01L166.72 32.96L166.78 33.02Q166.96 33.04 167.11 33.00L167.11 33.01L167.13 33.02Q169.78 32.78 171.15 32.21L171.03 32.09L167.62 28.72L167.61 28.71Q167.85 28.30 168.46 27.69L168.57 27.80L169.33 26.73L169.49 26.89Q171.24 28.88 173.22 30.93L173.14 30.85L173.19 30.89Q175.55 29.11 175.82 23.75L175.78 23.71L175.86 23.78Q175.82 22.75 175.82 21.84L175.79 21.82L175.86 21.88Q175.95 16.30 170.89 15.19L170.84 15.15L170.80 15.11Q169.54 14.84 167.03 14.69ZM179.70 36.65L179.71 36.66L179.68 36.63Q179.18 37.16 178.00 38.03L177.97 38.00L173.53 34.28L173.55 34.30Q171.06 35.51 166.79 35.54L166.77 35.52L166.91 35.66Q160.37 35.78 157.55 33.54L157.45 33.43L157.49 33.48Q155.70 31.68 155.24 28.71L155.21 28.68L155.24 28.71Q155.05 26.92 154.67 23.35L154.61 23.28L154.64 23.31Q154.66 22.61 154.55 20.86L154.52 20.83L154.52 20.84Q154.38 19.28 154.42 18.41L154.38 18.37L154.45 18.44Q154.50 15.33 156.25 13.77L156.27 13.79L156.39 13.91Q157.75 12.42 160.95 11.92L160.94 11.91L160.95 11.92Q163.49 11.61 166.38 11.68L166.38 11.67L166.37 11.67Q173.99 11.90 177.11 14.26L177.09 14.24L176.97 14.13Q179.25 16.37 178.99 21.28L178.99 21.28L178.96 21.25Q178.78 24.92 178.59 26.25L178.51 26.17L178.63 26.29Q177.81 30.60 175.48 32.93L175.59 33.04L175.62 33.06Q176.96 34.17 179.70 36.65ZM175.02 12.55L174.84 12.37L174.92 12.45Q172.90 11.73 166.39 11.24L166.42 11.26L166.42 11.26Q165.03 11.28 162.25 11.40L162.31 11.46L162.18 11.33Q157.94 11.53 155.69 13.51L155.75 13.58L155.73 13.55Q154.13 15.07 154.13 18.23L154.19 18.29L154.20 18.31Q154.13 19.07 154.28 20.78L154.17 20.68L154.20 20.70Q154.41 22.47 154.41 23.35L154.48 23.42L154.36 23.30Q154.62 25.16 155.01 28.74L154.94 28.67L155.03 28.76Q155.28 31.53 156.88 33.59L156.97 33.67L156.88 33.59Q157.14 34.34 158.36 35.49L158.46 35.58L158.45 35.57Q161.13 37.54 166.31 37.80L166.45 37.94L166.30 37.80Q166.75 37.90 169.15 38.01L169.08 37.94L169.07 37.93Q173.86 38.07 176.14 37.01L176.24 37.11L176.13 37.00Q177.16 37.84 181.88 41.42L181.88 41.42L181.85 41.39Q182.30 40.70 183.60 39.71L183.65 39.76L183.69 39.80Q182.89 39.19 182.09 38.51L182.00 38.41L180.25 36.85L180.46 36.91L180.47 36.92Q179.80 36.37 178.58 35.34L178.66 35.42L178.74 35.50Q180.48 32.82 180.48 28.29L180.50 28.31L180.66 28.47Q180.63 28.03 180.67 27.19L180.58 27.10L180.66 27.18Q180.56 26.21 180.56 25.79L180.59 25.81L180.66 25.88Q180.58 20.28 179.85 17.92L180.00 18.06L180.00 18.06Q179.54 16.69 178.66 15.62L178.71 15.67L178.67 15.63Q177.92 13.55 174.99 12.52ZM169.00 17.11L168.94 17.06L168.99 17.11Q172.95 16.92 174.78 18.52L174.86 18.60L174.84 18.57Q175.35 19.73 175.46 21.07L175.58 21.18L175.51 21.11Q175.64 22.42 175.56 23.79L175.58 23.81L175.58 23.81Q175.15 28.67 173.21 30.39L173.26 30.44L173.29 30.46Q172.02 29.19 169.50 26.45L169.40 26.34L169.43 26.38Q168.58 27.05 167.02 28.61L167.05 28.64L167.08 28.67Q167.57 29.20 168.71 30.38L168.81 30.48L168.72 30.50L168.78 30.56Q169.28 31.02 170.31 32.09L170.26 32.04L170.28 32.07Q169.25 32.29 166.93 32.59L166.99 32.65L166.45 32.65L166.01 32.63L166.11 32.76L166.01 32.66Q162.50 32.62 160.52 30.98L160.53 31.00L160.55 31.01Q159.60 29.00 159.64 25.88L159.65 25.89L159.59 25.83Q159.81 17.17 168.98 17.10Z"/><path d="M2 2 C79 17,104 20,189 15" stroke="#222" fill="none"/><path fill="#333" d="M138.82 14.76L138.66 14.61L138.72 14.66Q136.71 14.75 135.76 14.90L135.72 14.86L135.74 14.88Q134.15 15.15 132.93 15.69L132.94 15.70L132.85 15.61Q129.47 17.18 129.36 21.87L129.24 21.75L129.35 21.86Q129.29 24.53 129.93 27.46L129.92 27.45L129.83 27.36Q130.75 31.44 134.37 32.62L134.38 32.63L134.47 32.72Q136.38 33.30 137.82 33.15L137.77 33.09L138.25 33.12L138.22 33.08Q138.36 33.03 138.55 33.07L138.45 32.97L138.48 33.00Q138.72 33.09 138.87 33.05L138.76 32.94L138.79 32.97Q141.54 32.83 142.91 32.26L142.76 32.10L139.33 28.71L139.26 28.64Q139.52 28.25 140.13 27.64L140.22 27.74L141.18 26.87L141.14 26.83Q142.99 28.91 144.97 30.96L144.90 30.90L144.90 30.89Q147.19 29.04 147.46 23.67L147.51 23.73L147.45 23.66Q147.69 22.91 147.69 22.00L147.54 21.85L147.64 21.95Q147.50 16.14 142.44 15.03L142.62 15.21L142.54 15.14Q141.33 14.92 138.82 14.77ZM151.47 36.70L151.53 36.76L151.44 36.68Q150.94 37.20 149.76 38.07L149.76 38.08L145.25 34.29L145.38 34.42Q142.91 35.65 138.65 35.68L138.55 35.59L138.67 35.70Q132.08 35.78 129.26 33.53L129.19 33.46L129.15 33.42Q127.45 31.72 126.99 28.75L127.01 28.76L126.89 28.65Q126.84 26.99 126.46 23.41L126.39 23.35L126.31 23.27Q126.40 22.63 126.28 20.88L126.36 20.96L126.24 20.84Q126.16 19.35 126.20 18.47L126.09 18.37L126.17 18.45Q126.30 15.42 128.05 13.86L128.11 13.92L128.02 13.83Q129.49 12.44 132.69 11.95L132.71 11.96L132.81 12.07Q135.22 11.62 138.11 11.70L138.14 11.72L138.03 11.61Q145.54 11.74 148.66 14.10L148.83 14.26L148.76 14.19Q150.95 16.35 150.68 21.26L150.63 21.21L150.73 21.30Q150.38 24.80 150.19 26.14L150.30 26.25L150.17 26.11Q149.55 30.64 147.23 32.96L147.29 33.02L147.37 33.10Q148.67 34.17 151.41 36.64ZM146.65 12.47L146.68 12.50L146.62 12.44Q144.72 11.83 138.21 11.33L138.04 11.17L138.13 11.25Q136.81 11.34 134.03 11.46L134.06 11.48L134.05 11.48Q129.70 11.59 127.46 13.57L127.40 13.51L127.45 13.56Q125.76 14.99 125.76 18.15L125.84 18.23L125.74 18.13Q125.74 18.97 125.89 20.68L125.98 20.76L125.97 20.76Q126.10 22.45 126.10 23.33L126.10 23.32L126.17 23.39Q126.27 25.10 126.66 28.68L126.56 28.58L126.67 28.69Q126.91 31.44 128.51 33.50L128.59 33.58L128.52 33.52Q129.03 34.52 130.25 35.66L130.11 35.52L130.22 35.63Q132.92 37.61 138.10 37.88L138.11 37.88L138.05 37.83Q138.36 37.79 140.76 37.91L140.88 38.03L140.84 37.99Q145.69 38.19 147.97 37.13L147.83 36.98L147.98 37.13Q148.77 37.74 153.50 41.32L153.49 41.31L153.54 41.36Q154.12 40.80 155.41 39.81L155.33 39.73L155.46 39.85Q154.52 39.11 153.72 38.42L153.82 38.52L152.15 37.04L152.11 36.85L152.22 36.96Q151.61 36.47 150.40 35.44L150.36 35.40L150.45 35.50Q152.25 32.88 152.25 28.35L152.28 28.37L152.19 28.29Q152.30 27.98 152.34 27.14L152.41 27.22L152.31 27.11Q152.44 26.37 152.44 25.95L152.30 25.81L152.44 25.95Q152.35 20.34 151.63 17.98L151.63 17.98L151.65 18.00Q151.29 16.73 150.41 15.66L150.35 15.59L150.42 15.67Q149.59 13.50 146.66 12.48ZM140.56 16.96L140.57 16.97L140.61 17.01Q144.77 17.02 146.59 18.62L146.54 18.56L146.55 18.58Q147.01 19.68 147.13 21.02L147.19 21.08L147.26 21.14Q147.32 22.39 147.25 23.76L147.14 23.65L147.26 23.77Q146.89 28.70 144.95 30.42L144.95 30.42L144.84 30.31Q143.70 29.17 141.19 26.43L141.13 26.36L141.11 26.34Q140.28 27.04 138.72 28.60L138.76 28.64L138.70 28.57Q139.38 29.30 140.52 30.48L140.54 30.49L140.44 30.51L140.39 30.46Q140.88 30.91 141.90 31.97L142.01 32.08L141.94 32.01Q140.95 32.28 138.63 32.58L138.66 32.61L138.12 32.61L137.79 32.69L137.78 32.72L137.73 32.67Q134.21 32.61 132.23 30.97L132.35 31.10L132.35 31.10Q131.17 28.85 131.21 25.73L131.27 25.80L131.31 25.83Q131.46 17.12 140.64 17.04Z"/><path fill="#111" d="M45.54 9.29L45.52 9.27L45.51 9.26Q49.33 11.82 54.08 12.05L54.13 12.10L54.06 12.03Q58.74 12.25 63.00 10.50L62.97 10.47L62.99 10.49Q62.76 11.06 62.00 13.84L61.93 13.77L61.94 13.78Q59.27 14.88 56.30 15.03L56.24 14.96L56.23 14.96Q53.31 15.15 50.41 14.43L50.47 14.49L50.46 14.48Q51.01 17.96 51.20 21.62L51.32 21.74L51.20 21.61Q53.32 21.95 54.92 21.91L54.94 21.92L54.85 21.84Q56.08 21.85 58.48 21.74L58.51 21.77L58.55 21.80Q58.56 22.50 58.56 23.19L58.48 23.11L58.55 24.51L58.59 24.55Q56.01 24.37 51.21 24.44L51.33 24.56L51.20 24.43Q51.26 28.60 50.69 32.60L50.65 32.56L50.67 32.58Q53.33 31.96 56.07 32.08L56.16 32.17L56.17 32.18Q58.90 32.28 61.48 33.12L61.41 33.05L61.49 33.12Q61.52 33.88 61.79 34.64L61.83 34.68L62.26 36.18L62.18 36.09Q59.01 34.83 55.58 34.83L55.48 34.73L55.62 34.87Q50.68 34.80 46.41 37.04L46.41 37.04L46.34 36.97Q48.73 30.22 48.46 23.10L48.50 23.14L48.49 23.13Q48.25 16.00 45.58 9.34ZM45.89 37.74L45.97 37.82L45.87 37.71Q47.12 36.99 47.88 36.65L48.04 36.80L47.95 36.72Q47.69 37.41 47.12 38.93L47.24 39.05L47.11 38.92Q51.69 36.99 56.75 37.26L56.79 37.29L56.70 37.20Q61.90 37.53 65.90 40.23L66.00 40.34L65.99 40.32Q64.82 37.78 64.13 35.84L64.08 35.79L64.07 35.78Q63.08 35.16 62.09 34.82L62.17 34.91L62.20 34.94Q61.66 33.41 61.51 32.61L61.64 32.74L61.57 32.67Q58.53 31.72 55.37 31.72L55.30 31.66L55.30 31.65Q54.25 31.75 53.11 31.86L53.13 31.88L52.98 31.73Q53.15 30.53 53.19 29.32L53.16 29.28L53.23 26.77L53.37 26.90Q55.02 26.65 56.81 26.69L56.95 26.83L56.96 26.85Q58.80 26.89 60.59 27.05L60.48 26.93L60.45 26.91Q60.39 25.97 60.39 25.02L60.44 25.06L60.36 23.08L59.58 23.18L59.62 23.22Q59.27 23.37 58.82 23.37L58.74 23.29L58.77 23.32Q58.81 22.68 58.96 21.38L58.89 21.31L59.00 21.42Q57.35 21.60 56.17 21.64L56.04 21.51L56.16 21.63Q55.18 21.60 53.35 21.52L53.43 21.60L53.37 21.53Q53.30 20.14 53.11 17.32L53.03 17.24L53.03 17.24Q54.15 17.44 55.14 17.44L55.08 17.38L55.03 17.34Q59.75 17.34 63.45 15.44L63.55 15.53L63.51 15.50Q64.18 13.24 65.05 11.03L64.96 10.93L64.94 10.92Q63.54 11.68 62.70 12.02L62.72 12.04L62.71 12.03Q63.10 11.35 63.55 9.79L63.46 9.70L63.48 9.72Q58.91 11.92 54.04 11.62L54.00 11.58L54.05 11.63Q48.72 11.29 44.88 8.44L44.96 8.52L44.85 8.41Q47.77 15.41 48.08 23.02L48.10 23.05L48.04 22.99Q48.44 31.00 45.93 37.78Z"/><path d="M20 11 C83 11,119 23,186 18" stroke="#555" fill="none"/><path fill="#222" d="M33.36 32.98L33.24 32.85L33.36 32.97Q33.56 33.86 34.09 35.88L34.15 35.94L34.07 35.86Q29.84 34.52 25.24 34.79L25.38 34.93L25.35 34.90Q20.66 35.05 16.66 37.02L16.79 37.16L16.83 37.19Q16.97 36.42 17.01 36.50L17.02 36.51L16.93 36.42Q20.70 32.50 24.62 28.08L24.70 28.16L24.72 28.18Q29.09 23.15 30.27 18.47L30.28 18.47L30.21 18.40Q30.64 16.62 29.36 15.44L29.52 15.60L29.39 15.47Q28.20 14.38 26.41 14.53L26.30 14.41L26.44 14.56Q26.05 14.47 25.71 14.47L25.60 14.36L25.77 14.53Q24.14 14.42 22.88 15.34L22.83 15.29L22.97 15.43Q21.55 16.67 21.78 19.34L21.86 19.41L21.80 19.36Q19.99 19.00 18.77 18.54L18.75 18.52L18.85 18.62Q18.55 17.10 18.47 15.65L18.64 15.81L18.51 15.69Q18.42 14.04 19.03 12.89L19.02 12.89L19.18 13.05Q20.93 11.64 24.28 11.64L24.21 11.56L26.04 11.65L26.04 11.65Q28.24 11.60 29.19 11.71L29.20 11.72L29.21 11.73Q33.59 12.19 33.85 14.62L33.90 14.67L33.79 14.56Q33.90 15.17 33.83 15.97L33.82 15.96L33.90 16.04Q33.88 16.70 33.73 17.39L33.54 17.20L33.56 17.22Q31.91 25.32 24.33 32.17L24.35 32.19L24.43 32.27Q25.93 32.21 27.30 32.21L27.22 32.12L27.26 32.17Q30.51 32.17 33.36 32.97ZM32.77 12.13L32.79 12.15L32.69 12.05Q31.19 11.50 29.47 11.42L29.50 11.45L26.07 11.25L26.06 11.24Q21.47 10.85 19.26 11.95L19.40 12.09L19.23 11.92Q18.30 13.42 18.30 15.47L18.24 15.42L18.30 15.48Q18.30 16.17 18.61 18.98L18.56 18.94L18.58 18.95Q19.13 19.20 20.31 19.51L20.28 19.48L20.37 20.59L20.33 20.55Q20.19 20.90 20.26 21.44L20.40 21.58L20.26 21.43Q21.56 21.59 24.04 21.82L24.12 21.91L24.05 21.84Q24.07 21.52 24.07 21.18L24.10 21.20L24.08 21.18Q23.99 19.26 25.21 17.91L25.31 18.01L25.18 17.89Q26.55 16.68 28.34 16.80L28.24 16.70L28.31 16.77Q29.02 16.76 29.78 16.91L29.89 17.02L29.86 16.98Q29.99 17.38 30.07 17.80L29.98 17.71L29.94 17.68Q30.04 18.16 29.97 18.50L29.84 18.38L29.90 18.44Q28.74 23.29 24.32 28.12L24.23 28.03L24.17 27.97Q22.09 30.27 16.65 36.32L16.74 36.42L16.63 36.30Q16.59 37.30 16.25 37.87L16.26 37.88L16.18 37.79Q17.83 36.97 19.35 36.44L19.31 36.40L19.22 36.30Q18.65 37.04 17.70 38.52L17.61 38.43L17.52 38.33Q17.40 38.68 17.29 39.02L17.33 39.06L17.40 39.13Q22.28 37.08 27.76 37.27L27.68 37.19L27.76 37.27Q33.49 37.48 38.05 39.84L37.88 39.66L36.95 37.59L36.98 37.62Q36.25 36.20 35.98 35.40L36.12 35.54L36.04 35.47Q35.35 35.07 34.13 34.65L34.21 34.73L34.20 34.73Q33.91 33.87 33.53 32.50L33.69 32.65L33.54 32.51Q31.35 31.96 29.07 31.76L29.14 31.83L29.03 31.73Q33.77 27.21 35.29 18.95L35.40 19.07L35.48 16.06L35.54 16.12Q35.40 14.26 34.18 13.58L34.26 13.66L34.25 13.69L34.12 13.55Q34.04 13.44 33.96 13.44L34.08 13.56L34.08 13.56Q33.82 12.69 32.72 12.08Z"/><path fill="#222" d="M111.07 25.35L111.22 25.50L111.20 25.48Q107.68 31.78 104.25 35.74L104.32 35.81L104.24 35.73Q102.45 36.22 100.01 37.09L99.90 36.99L100.01 37.10Q104.92 31.50 109.68 23.08L109.70 23.10L109.67 23.08Q104.96 16.01 98.99 9.61L98.92 9.55L99.10 9.72Q101.96 10.88 104.25 11.37L104.30 11.42L104.30 11.42Q108.94 16.63 111.37 20.59L111.23 20.45L111.24 20.45Q113.77 16.06 117.69 11.64L117.81 11.76L117.70 11.65Q119.29 11.34 122.49 10.57L122.55 10.63L122.57 10.66Q116.49 17.10 113.02 23.04L112.94 22.95L112.92 22.94Q118.16 31.68 122.54 36.25L122.54 36.25L122.58 36.29Q119.90 35.40 117.81 35.17L117.93 35.30L117.83 35.19Q115.07 32.24 111.15 25.43ZM117.87 35.66L117.81 35.59L117.78 35.56Q118.05 35.56 118.50 35.68L118.48 35.65L118.47 35.64Q119.42 36.56 120.95 38.16L120.90 38.11L120.92 38.13Q124.18 38.84 127.23 40.21L127.21 40.19L127.24 40.23Q120.07 33.59 114.97 24.83L115.00 24.86L115.02 24.89Q118.84 18.31 124.74 11.46L124.65 11.36L124.62 11.34Q123.21 12.02 121.04 12.56L120.97 12.49L121.01 12.52Q121.88 11.61 123.63 9.82L123.62 9.81L123.73 9.91Q121.31 10.77 117.61 11.34L117.64 11.37L117.51 11.23Q114.15 15.11 111.56 19.41L111.56 19.41L111.54 19.39Q110.68 17.84 109.50 16.36L109.44 16.30L107.23 13.44L106.80 13.39L106.79 13.38Q106.73 13.47 106.50 13.39L106.48 13.38L106.52 13.41Q105.69 12.44 104.21 10.88L104.30 10.97L104.22 10.88Q100.41 10.01 97.83 8.64L97.90 8.71L97.98 8.79Q104.68 16.03 109.25 23.07L109.22 23.05L109.18 23.01Q104.75 31.25 99.00 37.83L98.99 37.82L98.91 37.75Q100.22 37.08 102.35 36.51L102.31 36.46L101.20 38.09L101.09 37.99Q101.01 37.91 99.68 39.24L99.73 39.29L99.82 39.38Q102.73 38.21 105.89 37.72L105.87 37.70L105.92 37.75Q109.88 33.19 112.47 28.43L112.49 28.44L112.47 28.43Q115.18 32.81 117.88 35.67Z"/></svg>