<svg xmlns="http://www.w3.org/2000/svg" width="200" height="40" viewBox="0,0,200,40"><path fill="#111" d="M85.71 22.11L85.81 22.21L85.76 22.16Q86.52 22.11 87.92 21.96L88.00 22.04L87.97 22.01Q87.99 22.72 87.99 23.36L87.92 23.29L88.01 24.63L87.97 24.60Q87.08 24.54 86.24 24.62L86.25 24.63L86.31 24.69Q85.33 24.58 84.49 24.54L84.52 24.57L84.57 24.62Q81.64 30.72 78.22 35.33L78.39 35.50L78.30 35.41Q75.79 36.06 74.50 36.67L74.51 36.69L74.42 36.59Q78.70 31.06 81.75 24.77L81.67 24.69L79.13 24.78L79.05 24.70Q79.01 23.33 78.90 22.00L78.96 22.06L78.99 22.09Q80.77 22.12 82.83 22.12L82.84 22.13L84.72 18.41L84.70 18.40Q85.80 16.60 87.02 15.01L87.04 15.02L87.04 15.03Q85.48 15.18 83.88 15.18L83.75 15.05L83.85 15.15Q77.77 15.16 74.00 12.95L73.91 12.86L73.35 11.23L73.30 11.18Q72.96 10.35 72.58 9.47L72.50 9.39L72.57 9.46Q76.94 12.12 82.65 12.35L82.55 12.25L82.67 12.36Q87.71 12.50 92.85 10.52L93.03 10.69L92.94 10.61Q92.65 10.92 92.15 11.80L92.18 11.83L92.32 11.96Q88.62 16.64 85.76 22.16ZM93.76 13.18L93.85 13.27L94.78 11.19L94.84 11.25Q93.81 11.67 92.13 12.39L92.12 12.38L92.45 12.22L92.38 12.14Q92.56 12.06 92.68 11.95L92.71 11.98L92.62 11.89Q92.99 11.19 93.71 9.86L93.77 9.92L93.76 9.91Q88.38 12.14 82.63 11.91L82.66 11.94L82.56 11.84Q76.67 11.70 71.91 8.73L71.95 8.77L71.83 8.65Q72.91 10.56 73.75 13.23L73.80 13.28L73.76 13.24Q74.80 13.83 75.60 14.13L75.67 14.20L75.67 14.20Q75.89 14.62 76.35 16.48L76.19 16.32L76.27 16.40Q79.39 17.62 84.91 17.47L84.92 17.47L85.01 17.57Q84.58 18.01 82.60 21.78L82.69 21.86L82.66 21.83Q80.56 21.79 78.58 21.60L78.62 21.65L78.71 21.73Q78.77 22.56 78.77 23.43L78.64 23.30L78.61 24.98L80.41 25.11L80.35 26.46L80.43 26.53Q76.39 33.80 73.61 37.38L73.73 37.50L73.63 37.40Q75.27 36.68 76.90 36.18L76.82 36.10L76.97 36.25Q76.18 37.06 74.81 38.77L74.90 38.86L74.91 38.87Q78.02 37.72 80.46 37.49L80.35 37.38L80.41 37.45Q83.32 33.65 86.44 26.87L86.55 26.98L89.83 27.03L90.01 27.21Q89.89 26.26 89.89 25.34L89.80 25.24L89.76 23.42L89.89 23.55Q89.57 23.49 89.01 23.53L89.06 23.57L88.99 23.50Q88.41 23.52 88.15 23.52L88.13 23.50L88.15 23.52Q88.21 23.46 88.24 23.31L88.30 23.36L88.25 23.05L88.22 23.02Q90.81 17.96 93.90 13.32Z"/><path fill="#444" d="M56.77 34.80L56.89 34.92L54.83 34.80L54.92 34.89Q53.90 34.82 52.94 34.93L52.95 34.94L53.05 35.04Q53.54 28.75 53.54 24.75L53.51 24.72L53.47 24.68Q49.51 18.02 41.86 9.34L41.89 9.37L41.93 9.42Q43.65 10.34 47.00 11.14L47.13 11.26L47.13 11.26Q52.24 16.90 55.24 22.12L55.16 22.03L55.09 21.96Q58.12 16.43 62.50 11.41L62.59 11.49L62.44 11.35Q64.85 10.94 67.36 10.14L67.37 10.14L67.46 10.23Q61.48 16.40 56.61 24.81L56.49 24.70L56.48 24.68Q56.54 31.79 56.85 34.87ZM65.90 12.25L68.67 9.46L68.69 9.49Q65.60 10.66 62.48 11.12L62.50 11.14L62.35 10.99Q58.26 15.84 55.44 20.94L55.34 20.84L55.41 20.92Q53.25 17.23 50.05 13.35L50.05 13.35L49.99 13.29Q49.71 13.27 49.21 13.19L49.24 13.22L49.27 13.25Q48.53 12.40 47.01 10.72L47.11 10.82L47.00 10.71Q43.76 10.10 40.79 8.54L40.66 8.41L40.69 8.44Q48.39 16.90 53.15 24.82L53.22 24.89L53.11 24.78Q53.03 31.14 52.42 35.29L52.50 35.36L52.53 35.39Q53.26 35.36 54.70 35.24L54.70 35.24L54.70 36.27L54.78 36.35Q54.73 36.76 54.66 37.29L54.62 37.26L54.56 37.19Q58.16 37.25 59.91 37.44L60.00 37.53L59.86 37.39Q58.74 32.85 58.63 26.87L58.47 26.72L58.63 26.87Q62.93 18.34 69.48 11.00L69.53 11.05L65.92 12.27Z"/><path d="M17 19 C111 27,112 14,180 16" stroke="#222" fill="none"/><path fill="#333" d="M110.22 14.56L110.28 14.62L108.71 14.73L108.65 14.67Q106.39 14.77 106.16 16.79L106.35 16.98L106.21 16.84Q106.10 17.53 106.14 18.52L106.16 18.54L106.23 18.61Q106.29 20.57 107.54 21.90L107.55 21.91L107.41 21.77Q108.77 23.20 110.67 23.05L110.60 22.97L110.61 22.99Q112.67 22.84 113.43 21.92L113.49 21.98L113.50 22.00Q114.65 21.16 114.91 18.92L114.83 18.84L114.77 18.77Q115.16 16.65 113.90 15.81L113.86 15.77L113.91 15.81Q112.92 14.91 110.26 14.60ZM116.40 23.94L116.34 23.89L115.06 26.18L115.10 26.22Q112.33 30.95 108.56 35.02L108.62 35.08L108.52 34.98Q107.00 35.25 104.30 36.05L104.33 36.08L104.14 35.90Q109.51 29.65 112.67 24.86L112.73 24.91L112.66 24.84Q111.75 25.61 110.11 25.69L110.07 25.64L109.98 25.56Q107.02 25.75 105.50 23.77L105.59 23.87L105.52 23.80Q104.25 22.15 103.15 17.58L103.20 17.63L103.19 17.62Q103.17 17.15 103.02 16.22L103.14 16.34L103.02 16.22Q102.94 15.35 102.94 14.90L102.95 14.91L102.83 14.79Q102.83 13.00 103.89 12.39L103.96 12.45L104.01 12.50Q105.22 11.73 107.08 11.73L107.13 11.78L107.12 11.77Q110.26 11.71 110.26 11.71L110.28 11.73L110.27 11.72Q112.39 11.71 113.64 11.90L113.60 11.86L113.70 11.96Q115.85 12.24 116.76 12.73L116.68 12.65L116.81 12.78Q118.15 13.51 118.34 15.26L118.33 15.25L118.22 15.14Q118.29 15.43 118.09 18.10L118.18 18.19L118.00 18.00Q117.75 20.27 117.52 21.11L117.49 21.07L117.54 21.12Q117.04 22.41 116.28 23.82ZM118.34 26.37L118.20 26.24L118.23 26.26Q119.21 24.05 119.75 19.75L119.69 19.70L119.79 19.80Q119.98 17.51 119.94 16.64L120.07 16.77L120.04 16.73Q119.98 14.84 118.80 13.93L118.70 13.83L118.46 13.78L118.40 13.72Q118.30 13.13 117.39 12.48L117.29 12.38L117.24 12.33Q114.92 11.31 110.13 11.16L110.17 11.20L110.17 11.21Q109.24 11.22 106.80 11.22L106.87 11.29L106.78 11.20Q105.16 11.33 103.67 12.01L103.51 11.85L103.54 11.88Q102.35 12.63 102.43 14.46L102.57 14.60L102.61 14.64Q102.74 15.50 102.93 17.52L102.83 17.42L102.85 17.44Q103.52 20.12 103.78 20.96L103.71 20.89L103.76 20.93Q104.27 22.73 105.22 24.03L105.23 24.04L105.40 24.21Q105.65 24.54 106.03 24.92L105.92 24.81L106.01 24.90Q106.21 25.28 106.85 26.20L106.78 26.12L106.88 26.23Q108.36 27.59 110.30 27.78L110.37 27.85L110.32 27.79Q108.33 30.38 106.77 32.29L106.80 32.31L103.30 36.80L103.27 36.78Q105.51 36.01 107.15 35.67L107.00 35.52L107.15 35.67Q106.38 36.54 104.82 38.25L104.74 38.16L104.83 38.26Q107.88 37.31 111.00 37.27L110.89 37.16L110.95 37.22Q113.22 34.58 117.56 27.35L117.72 27.50L117.65 27.52L117.55 27.41Q117.99 26.87 118.33 26.37ZM112.33 17.13L112.14 16.94L112.20 17.00Q112.75 16.83 113.21 16.94L113.33 17.07L113.38 17.11Q113.93 17.13 114.31 17.25L114.40 17.33L114.28 17.22Q114.53 17.73 114.61 18.15L114.52 18.07L114.59 18.14Q114.55 18.44 114.43 18.82L114.42 18.80L114.41 18.79Q114.44 20.57 113.26 21.67L113.28 21.70L113.35 21.76Q112.29 22.69 110.66 22.65L110.62 22.61L110.57 22.57Q110.15 22.57 108.63 22.26L108.76 22.39L108.79 22.42Q108.55 21.54 108.55 20.81L108.57 20.83L108.47 20.73Q108.38 20.45 108.38 20.22L108.37 20.22L108.33 20.17Q108.50 18.14 110.79 17.34L110.64 17.19L110.78 17.34Q111.37 17.01 112.20 17.01Z"/><path fill="#222" d="M21.55 28.05L21.46 27.96L21.39 27.89Q24.62 27.66 27.81 27.77L27.79 27.75L27.67 27.63Q27.61 25.05 27.61 22.65L27.67 22.72L27.70 22.75Q27.70 20.27 27.89 17.72L27.96 17.79L27.95 17.78Q26.60 19.36 21.38 27.88ZM31.44 35.39L31.37 35.33L31.36 35.32Q29.58 34.91 27.79 34.83L27.92 34.96L27.80 34.84Q27.79 32.65 27.67 30.18L27.52 30.02L27.55 30.05Q22.22 29.86 17.50 31.27L17.62 31.40L17.52 31.30Q17.59 30.76 17.78 29.77L17.90 29.88L17.80 29.78Q19.60 26.63 23.18 20.35L23.22 20.40L23.15 20.33Q26.17 15.58 29.59 11.70L29.45 11.55L29.51 11.62Q30.45 11.48 32.12 11.22L32.11 11.21L32.13 11.22Q30.11 17.54 30.11 24.59L30.09 24.56L30.20 24.67Q30.27 26.23 30.35 27.71L30.19 27.56L31.53 27.72L31.61 27.80Q32.12 27.74 32.73 27.85L32.67 27.79L32.77 27.89Q32.84 28.84 33.11 30.78L33.08 30.76L33.20 30.87Q31.83 30.45 30.34 30.26L30.45 30.36L30.36 30.28Q30.61 32.32 31.30 35.25ZM33.04 27.51L33.09 27.56L33.05 27.53Q32.74 27.32 32.55 27.32L32.59 27.37L32.34 27.50L32.19 27.35Q32.12 25.91 32.12 24.50L32.11 24.49L32.15 24.53Q32.15 18.13 34.20 12.12L34.18 12.09L34.25 12.16Q33.51 12.45 32.06 12.83L31.97 12.74L32.01 12.78Q32.15 11.93 32.60 10.52L32.74 10.66L32.78 10.69Q31.42 11.01 29.37 11.24L29.28 11.15L29.33 11.20Q25.48 15.61 20.26 24.98L20.14 24.86L22.30 21.27L22.30 21.27Q21.79 22.20 21.52 22.77L21.70 22.95L17.23 31.96L17.18 31.90Q17.89 31.82 19.04 31.44L18.85 31.26L18.79 31.58L18.87 31.65Q18.61 32.20 18.31 33.45L18.40 33.54L18.47 33.61Q22.43 32.13 27.26 32.32L27.28 32.34L27.38 32.44Q27.29 33.26 27.48 35.24L27.63 35.39L27.62 35.38Q28.58 35.28 29.65 35.39L29.58 35.32L29.67 35.41Q29.73 36.01 30.00 37.38L30.01 37.39L30.04 37.41Q31.96 37.67 34.97 38.58L35.07 38.68L34.92 38.53Q34.00 36.47 33.09 33.20L33.12 33.23L34.60 33.72L34.52 33.63Q35.32 33.98 36.00 34.32L35.90 34.22L35.93 34.25Q35.10 31.71 34.95 30.04L35.06 30.14L34.98 30.06Q34.40 29.90 33.26 29.68L33.21 29.63L33.22 29.64Q33.02 28.37 33.02 27.49ZM24.97 27.28L24.98 27.30L24.94 27.26Q25.70 25.96 27.26 23.41L27.41 23.56L27.28 23.43Q27.40 24.50 27.36 25.45L27.23 25.32L27.22 25.31Q27.36 26.44 27.39 27.39L27.36 27.35L27.38 27.38Q26.82 27.35 26.25 27.35L26.31 27.41L26.31 27.41Q25.63 27.34 25.02 27.34Z"/><path fill="#333" d="M169.21 27.13L159.90 17.05L159.92 17.08Q160.88 20.89 160.88 24.62L160.91 24.66L160.85 24.60Q160.79 30.51 158.74 36.07L158.74 36.08L158.71 36.05Q157.70 36.37 155.46 37.13L155.45 37.13L155.43 37.10Q158.30 31.38 158.30 24.67L158.30 24.67L158.36 24.73Q158.23 15.96 153.74 8.54L153.78 8.57L153.83 8.63Q154.22 8.75 154.91 9.17L154.92 9.18L154.80 9.06Q167.06 20.44 174.90 29.69L174.83 29.62L174.92 29.71Q174.60 27.26 174.60 24.82L174.47 24.70L174.44 24.67Q174.54 17.53 177.05 11.33L177.06 11.34L177.06 11.34Q179.33 10.76 180.93 10.07L181.01 10.15L181.05 10.19Q177.60 16.22 177.29 23.37L177.40 23.48L177.32 23.40Q177.00 30.73 179.97 36.89L179.93 36.86L180.06 36.99Q179.34 36.77 178.93 36.58L178.99 36.64L179.00 36.65Q174.37 32.63 169.16 27.07L169.25 27.16ZM182.74 40.24L182.62 40.12L182.69 40.19Q183.16 40.35 183.58 40.54L183.42 40.39L184.35 40.82L184.40 40.87Q179.29 33.97 179.29 24.61L179.17 24.49L179.18 24.50Q179.23 17.31 182.54 11.07L182.43 10.96L182.48 11.01Q181.79 11.20 180.39 11.81L180.39 11.81L180.40 11.82Q180.88 11.08 181.71 9.52L181.69 9.50L181.71 9.51Q179.26 10.41 176.82 10.98L176.72 10.88L176.71 10.87Q174.24 17.50 174.24 24.93L174.11 24.80L174.06 24.75Q174.20 26.75 174.39 28.73L174.30 28.64L174.25 28.59Q169.60 22.91 164.84 18.31L164.92 18.39L154.90 8.75L154.92 8.76Q154.20 8.31 152.98 7.74L153.08 7.84L153.14 7.90Q157.92 15.53 157.92 24.63L157.87 24.58L157.92 24.63Q158.01 31.85 154.93 37.86L154.78 37.71L154.80 37.73Q155.12 37.63 156.75 37.02L156.76 37.03L156.76 37.03Q156.51 37.88 155.67 39.37L155.56 39.25L155.67 39.36Q156.98 38.80 160.44 38.00L160.42 37.99L160.54 38.10Q162.69 31.80 162.69 24.60L162.74 24.65L162.69 24.60Q162.76 22.59 162.53 20.45L162.47 20.39L162.60 20.51Q173.94 33.19 182.54 40.04Z"/><path fill="#444" d="M147.33 18.23L147.39 18.29L147.29 18.19Q145.71 14.25 139.50 14.44L139.39 14.32L139.44 14.38Q135.06 14.52 133.08 15.97L133.09 15.98L133.06 15.95Q130.64 17.68 130.64 21.79L130.64 21.80L130.71 23.73L130.68 23.70Q130.62 32.47 139.64 32.47L139.64 32.47L139.69 32.52Q141.68 32.45 143.16 31.65L143.23 31.71L143.25 31.74Q145.03 30.66 144.87 28.79L144.82 28.74L144.88 28.80Q144.66 26.67 140.97 25.76L141.01 25.81L139.14 25.88L139.15 25.88Q138.12 25.81 137.17 25.85L137.19 25.87L137.16 25.84Q137.28 25.01 137.24 23.10L137.08 22.94L137.25 23.11Q144.74 22.95 148.93 22.61L149.06 22.74L148.94 22.62Q149.03 23.59 149.03 24.38L149.01 24.37L149.05 24.40Q148.90 25.05 148.94 25.85L149.01 25.93L149.03 25.95Q147.96 25.98 147.96 25.98L147.96 25.98L147.78 25.80Q146.38 25.77 146.76 25.77L146.84 25.85L146.95 25.96Q147.97 27.51 148.35 29.49L148.34 29.48L148.30 29.44Q148.46 30.21 148.46 30.67L148.54 30.75L148.53 30.74Q148.40 35.25 139.60 35.25L139.62 35.27L139.60 35.25Q132.44 35.20 129.85 33.11L130.02 33.27L130.04 33.30Q128.03 30.91 128.03 25.85L127.90 25.71L127.88 25.70Q128.00 24.75 127.85 22.04L127.87 22.06L127.75 21.95Q127.73 19.72 127.77 18.35L127.78 18.36L127.76 18.34Q127.74 15.36 129.11 13.76L129.15 13.79L129.21 13.85Q131.67 11.71 136.55 11.52L136.61 11.59L139.22 11.45L139.32 11.55Q142.38 11.41 145.80 11.83L145.71 11.73L145.80 11.83Q149.47 12.23 150.42 15.46L150.57 15.61L150.49 15.53Q149.38 16.36 147.29 18.19ZM148.79 20.49L148.82 20.41L148.84 20.42Q150.04 19.34 151.90 17.36L151.95 17.41L152.04 17.50Q151.68 16.49 150.69 14.78L150.58 14.67L150.69 14.78Q149.49 12.09 145.68 11.45L145.65 11.41L145.73 11.49Q143.55 11.33 139.25 11.02L139.35 11.13L136.55 11.14L136.61 11.20Q131.43 11.39 128.84 13.37L128.87 13.40L128.78 13.31Q127.49 15.03 127.38 18.11L127.38 18.11L127.38 18.12Q127.39 17.67 127.62 23.15L127.60 23.13L127.55 23.08Q127.58 24.45 127.66 27.19L127.65 27.18L127.76 27.29Q127.80 31.59 129.55 33.54L129.70 33.68L129.66 33.64Q130.03 34.47 130.90 35.34L130.77 35.21L130.94 35.38Q133.75 37.16 139.27 37.51L139.34 37.57L142.09 37.62L142.22 37.75Q143.75 37.80 145.77 37.68L145.86 37.78L145.77 37.68Q147.19 37.58 149.28 37.04L149.27 37.03L149.26 37.02Q151.19 36.52 151.15 34.20L151.15 34.20L151.30 34.35Q151.15 32.94 150.08 30.16L150.22 30.30L150.24 30.32Q149.82 29.29 149.29 28.49L149.25 28.45L149.25 28.45Q149.93 28.56 151.11 28.75L151.09 28.73L151.17 28.80Q150.81 25.14 150.85 24.45L150.82 24.42L150.93 24.53Q150.40 24.39 149.99 24.35L150.10 24.46L150.04 24.40Q149.62 24.33 149.24 24.41L149.31 24.47L149.24 24.41Q149.20 23.26 149.27 22.19L149.42 22.34L149.46 22.38Q143.16 22.86 136.88 22.74L136.75 22.61L136.87 22.73Q136.87 23.61 136.87 24.53L136.89 24.54L136.86 26.26L136.88 26.28Q137.22 26.24 137.64 26.20L137.66 26.23L137.65 26.22Q137.98 26.13 138.44 26.13L138.53 26.22L138.50 26.19Q138.54 26.68 138.58 27.18L138.64 27.24L138.54 27.14Q138.61 27.67 138.57 28.17L138.53 28.12L138.59 28.18Q139.65 28.18 140.68 28.14L140.60 28.06L140.66 28.12Q141.60 28.03 142.62 28.07L142.73 28.17L142.65 28.10Q143.60 28.25 144.48 28.63L144.50 28.65L144.58 28.77L144.53 28.71Q144.69 30.24 143.01 31.16L143.00 31.15L143.14 31.28Q141.47 32.20 139.76 32.20L139.62 32.07L139.62 32.07Q135.76 32.05 133.32 30.30L133.34 30.32L133.50 30.48Q132.55 28.46 132.70 25.91L132.71 25.92L132.67 25.88Q132.94 21.04 134.78 19.04L134.73 18.99L134.86 19.13Q136.62 17.03 141.30 16.73L141.37 16.80L141.21 16.64Q144.98 16.53 146.93 18.32L146.91 18.30L146.82 18.22Q146.91 18.34 147.02 18.53L147.08 18.59L147.20 18.59L147.14 18.54Q147.85 19.36 148.42 20.46L148.38 20.42L148.76 20.46Z"/><path d="M19 27 C100 25,111 37,193 19" stroke="#222" fill="none"/></svg>