<svg xmlns="http://www.w3.org/2000/svg" width="200" height="40" viewBox="0,0,200,40"><path d="M10 28 C110 31,119 26,192 11" stroke="#333" fill="none"/><path d="M13 31 C93 24,104 11,198 24" stroke="#555" fill="none"/><path fill="#222" d="M83.54 35.09L83.52 35.07L81.56 35.39L81.39 35.22Q80.94 35.24 79.97 35.29L80.03 35.35L80.01 35.33Q78.98 35.33 78.49 35.33L78.59 35.43L78.64 35.49Q76.91 35.39 75.88 34.55L75.84 34.51L75.81 34.48Q76.69 33.46 78.33 31.33L78.40 31.39L78.37 31.36Q79.60 32.90 81.81 32.67L81.78 32.64L81.85 32.71Q82.73 32.57 83.38 31.92L83.38 31.93L83.41 31.95Q83.93 31.17 83.81 30.30L83.97 30.46L83.83 30.32Q83.72 25.71 83.79 21.14L83.91 21.26L83.92 21.28Q83.93 16.64 84.46 12.03L84.37 11.94L84.35 11.92Q86.35 11.78 88.48 10.75L88.52 10.80L88.55 10.82Q86.62 17.50 86.62 24.73L86.64 24.75L86.63 24.74Q86.73 28.39 87.19 31.89L87.12 31.82L87.11 31.81Q87.17 32.13 87.17 32.47L87.09 32.40L87.27 32.57Q87.17 33.04 86.94 33.58L87.00 33.64L86.96 33.60Q86.30 34.76 83.48 35.03ZM88.47 37.93L88.47 37.92L88.89 38.00L89.13 37.83L89.31 37.62L89.40 37.72Q89.75 37.49 89.82 37.38L89.73 37.28L89.85 37.40Q89.96 36.15 89.70 35.16L89.68 35.14L89.75 35.21Q88.36 29.37 88.63 23.01L88.71 23.09L88.70 23.08Q88.76 16.78 90.55 10.88L90.67 11.00L90.61 10.94Q89.77 11.63 88.52 12.35L88.44 12.28L88.58 12.42Q88.70 11.59 89.12 10.06L89.05 10.00L89.03 9.97Q86.59 11.37 83.92 11.68L84.01 11.77L83.93 11.69Q83.57 16.08 83.49 21.03L83.53 21.07L83.62 21.16Q83.43 26.94 83.50 30.37L83.43 30.30L83.52 30.39Q83.66 32.24 81.91 32.39L81.79 32.27L81.81 32.29Q80.03 32.34 78.35 30.70L78.52 30.87L78.47 30.82Q76.44 33.36 75.49 34.92L75.45 34.88L75.49 34.92Q76.02 35.45 77.05 35.68L77.18 35.82L77.10 35.73Q76.97 35.83 76.71 36.06L76.81 36.16L76.68 36.03Q78.20 37.06 80.18 37.33L80.20 37.34L80.10 37.24Q80.59 37.39 83.88 37.69L83.77 37.58L83.90 37.72Q87.11 37.94 88.48 37.94Z"/><path fill="#222" d="M169.89 34.77L169.92 34.80L167.99 34.82L168.08 34.91Q167.06 34.84 166.11 34.96L166.02 34.86L166.05 34.89Q166.59 28.66 166.59 24.66L166.63 24.70L166.70 24.77Q162.80 18.16 155.14 9.48L155.10 9.44L155.07 9.41Q156.78 10.32 160.13 11.12L160.28 11.27L160.28 11.27Q165.36 16.88 168.36 22.09L168.22 21.95L168.29 22.02Q171.38 16.54 175.75 11.52L175.70 11.46L175.72 11.48Q177.99 10.94 180.51 10.14L180.64 10.27L180.54 10.18Q174.44 16.22 169.57 24.63L169.70 24.76L169.66 24.73Q169.72 31.83 170.02 34.91ZM179.14 12.35L181.70 9.35L181.82 9.48Q178.72 10.64 175.60 11.10L175.64 11.14L175.64 11.13Q171.25 15.69 168.43 20.79L168.45 20.81L168.54 20.90Q166.39 17.23 163.20 13.35L163.20 13.35L163.19 13.34Q162.90 13.32 162.41 13.25L162.52 13.36L162.37 13.21Q161.75 12.48 160.23 10.80L160.23 10.80L160.22 10.79Q156.80 9.99 153.83 8.43L153.92 8.53L153.78 8.38Q161.62 16.99 166.38 24.91L166.43 24.95L166.29 24.82Q166.28 31.24 165.67 35.39L165.54 35.26L165.55 35.27Q166.43 35.39 167.87 35.27L167.82 35.22L167.76 36.19L167.84 36.26Q167.78 36.66 167.71 37.20L167.82 37.31L167.82 37.31Q171.26 37.21 173.01 37.40L173.05 37.44L173.01 37.40Q171.84 32.81 171.73 26.83L171.58 26.68L171.63 26.73Q176.12 18.39 182.66 11.04L182.60 10.97L179.02 12.23Z"/><path fill="#333" d="M56.90 34.93L56.91 34.93L54.95 34.92L54.96 34.93Q54.02 34.95 53.07 35.06L53.02 35.01L52.98 34.97Q53.49 28.70 53.49 24.70L53.64 24.85L53.55 24.76Q49.54 18.05 41.89 9.37L42.00 9.48L41.86 9.34Q43.79 10.48 47.14 11.28L46.98 11.11L47.12 11.25Q52.05 16.71 55.06 21.93L55.14 22.01L55.14 22.01Q58.24 16.55 62.62 11.52L62.43 11.34L62.62 11.52Q65.00 11.08 67.51 10.29L67.50 10.27L67.45 10.23Q61.38 16.30 56.51 24.72L56.58 24.79L56.57 24.77Q56.45 31.69 56.75 34.78ZM65.99 12.34L68.71 9.51L68.68 9.48Q65.59 10.65 62.47 11.11L62.39 11.03L62.51 11.15Q58.10 15.68 55.28 20.78L55.47 20.97L55.42 20.92Q53.19 17.17 49.99 13.28L49.94 13.24L50.09 13.38Q49.79 13.36 49.30 13.28L49.32 13.30L49.31 13.29Q48.53 12.39 47.00 10.72L47.07 10.79L47.07 10.78Q43.69 10.03 40.72 8.47L40.64 8.38L40.80 8.55Q48.51 17.02 53.27 24.94L53.29 24.96L53.17 24.84Q52.99 31.10 52.38 35.25L52.47 35.34L52.39 35.25Q53.20 35.30 54.65 35.19L54.73 35.27L54.75 36.32L54.62 36.19Q54.68 36.71 54.61 37.24L54.60 37.24L54.64 37.27Q58.16 37.25 59.91 37.44L59.86 37.40L59.81 37.34Q58.61 32.71 58.49 26.74L58.44 26.69L58.53 26.78Q62.99 18.40 69.53 11.05L69.37 10.89L65.95 12.31Z"/><path fill="#333" d="M21.36 27.87L21.53 28.04L21.49 28.00Q24.57 27.61 27.77 27.72L27.74 27.69L27.68 27.64Q27.72 25.17 27.72 22.77L27.66 22.70L27.78 22.83Q27.77 20.34 27.96 17.79L27.99 17.82L27.94 17.77Q26.64 19.40 21.43 27.93ZM31.43 35.39L31.42 35.38L31.35 35.30Q29.73 35.06 27.94 34.98L27.89 34.93L27.88 34.92Q27.61 32.48 27.50 30.01L27.48 29.99L27.53 30.04Q22.18 29.83 17.46 31.24L17.49 31.27L17.44 31.22Q17.71 30.87 17.90 29.88L17.82 29.81L17.81 29.79Q19.58 26.61 23.16 20.33L23.23 20.40L23.28 20.46Q26.12 15.53 29.55 11.65L29.58 11.68L29.51 11.61Q30.35 11.39 32.03 11.12L31.98 11.07L32.00 11.10Q30.22 17.65 30.22 24.69L30.07 24.54L30.23 24.70Q30.16 26.12 30.24 27.61L30.29 27.66L31.59 27.78L31.47 27.66Q32.08 27.69 32.69 27.81L32.69 27.81L32.75 27.87Q32.89 28.89 33.16 30.83L33.09 30.76L33.12 30.79Q31.98 30.61 30.50 30.42L30.40 30.31L30.51 30.43Q30.71 32.42 31.40 35.35ZM33.04 27.51L32.93 27.40L32.96 27.43Q32.81 27.40 32.62 27.40L32.55 27.33L32.21 27.37L32.34 27.50Q32.15 25.94 32.15 24.53L32.23 24.61L32.12 24.50Q32.19 18.18 34.25 12.16L34.23 12.15L34.16 12.07Q33.49 12.43 32.04 12.81L32.04 12.81L32.09 12.86Q32.32 12.10 32.78 10.69L32.76 10.67L32.65 10.56Q31.38 10.97 29.33 11.20L29.43 11.30L29.28 11.15Q25.41 15.54 20.19 24.91L20.29 25.01L22.19 21.16L22.30 21.27Q21.91 22.32 21.64 22.89L21.65 22.90L17.14 31.87L17.19 31.92Q17.75 31.68 18.89 31.29L18.88 31.29L18.72 31.51L18.82 31.60Q18.72 32.30 18.41 33.56L18.42 33.57L18.45 33.60Q22.57 32.27 27.40 32.46L27.22 32.28L27.37 32.43Q27.40 33.37 27.59 35.35L27.46 35.22L27.47 35.23Q28.63 35.32 29.70 35.44L29.74 35.48L29.76 35.50Q29.73 36.00 30.00 37.38L30.08 37.46L30.10 37.48Q31.96 37.67 34.97 38.58L35.10 38.72L35.09 38.70Q34.00 36.47 33.09 33.19L33.12 33.23L34.51 33.63L34.47 33.59Q35.26 33.92 35.94 34.26L35.89 34.20L35.85 34.17Q35.14 31.75 34.99 30.07L34.99 30.07L35.02 30.11Q34.38 29.88 33.24 29.65L33.31 29.72L33.31 29.73Q33.03 28.38 33.03 27.51ZM25.11 27.43L24.95 27.26L24.94 27.26Q25.79 26.05 27.35 23.50L27.37 23.52L27.25 23.40Q27.38 24.48 27.34 25.43L27.37 25.46L27.23 25.32Q27.40 26.48 27.43 27.43L27.26 27.25L27.38 27.38Q26.87 27.40 26.30 27.40L26.30 27.40L26.19 27.29Q25.55 27.26 24.94 27.26Z"/><path fill="#222" d="M145.21 23.76L145.20 23.75L139.29 23.82L139.30 23.83Q136.39 23.89 133.46 23.81L133.29 23.64L133.37 23.73Q133.47 30.41 131.41 35.93L131.52 36.04L131.50 36.01Q129.67 36.51 127.92 37.19L127.95 37.23L127.84 37.12Q130.70 31.49 130.70 24.83L130.73 24.86L130.55 24.67Q130.71 16.35 126.60 9.31L126.45 9.15L126.62 9.32Q128.01 9.99 130.49 10.79L130.49 10.79L130.61 10.91Q132.62 15.86 133.16 20.73L133.23 20.81L133.20 20.78Q136.29 21.08 139.14 21.05L139.29 21.19L139.32 21.23Q141.83 21.07 145.14 20.80L145.21 20.87L145.31 20.97Q145.74 16.52 147.49 11.42L147.33 11.26L147.47 11.40Q149.34 10.91 151.59 10.08L151.53 10.02L151.71 10.20Q147.92 16.76 147.92 24.72L148.02 24.82L147.92 24.72Q148.02 31.03 150.38 36.36L150.44 36.41L150.29 36.26Q148.74 35.71 146.69 35.40L146.66 35.37L146.69 35.41Q144.94 30.31 145.05 23.60ZM146.47 35.80L146.38 35.71L146.43 35.75Q147.49 35.94 148.59 36.20L148.58 36.19L148.53 36.15Q148.88 36.88 149.53 38.36L149.48 38.31L149.65 38.48Q152.91 39.34 154.70 40.25L154.79 40.34L154.65 40.21Q150.20 34.05 149.90 25.79L149.86 25.75L149.99 25.88Q149.63 17.79 153.29 10.98L153.33 11.02L152.29 11.51L152.17 11.38Q151.73 11.67 151.12 11.82L151.19 11.89L151.11 11.81Q151.53 11.01 152.37 9.45L152.30 9.38L152.43 9.52Q149.71 10.48 147.08 10.98L147.07 10.97L147.08 10.97Q145.51 15.91 145.05 20.59L144.93 20.47L144.95 20.50Q142.47 20.72 140.03 20.72L140.07 20.76L140.04 20.72Q137.70 20.78 135.19 20.63L135.04 20.48L135.09 20.53Q134.97 17.37 133.86 13.29L133.78 13.21L133.80 13.23Q133.17 13.17 131.72 12.79L131.62 12.69L131.69 12.75Q131.24 11.47 130.78 10.44L130.85 10.51L130.91 10.56Q128.11 9.75 125.83 8.49L125.86 8.53L125.74 8.41Q130.34 15.86 130.34 24.65L130.45 24.77L130.37 24.68Q130.27 31.55 127.15 37.68L127.31 37.84L127.32 37.85Q128.05 37.60 129.39 37.02L129.21 36.85L129.39 37.02Q128.96 37.78 128.16 39.30L128.10 39.24L128.25 39.39Q130.96 38.29 133.20 37.87L133.14 37.81L133.21 37.87Q135.11 32.35 135.30 26.18L135.34 26.22L135.22 26.11Q136.95 26.16 140.15 26.12L140.14 26.12L140.04 26.02Q142.91 25.99 144.81 26.07L144.83 26.09L144.81 26.06Q145.05 31.79 146.38 35.71Z"/><path fill="#333" d="M111.83 35.10L111.81 35.08L109.76 35.31L109.79 35.34Q109.29 35.30 108.32 35.35L108.42 35.45L108.23 35.26Q107.35 35.41 106.86 35.41L106.86 35.41L106.77 35.32Q105.13 35.32 104.10 34.48L104.17 34.56L104.29 34.67Q104.91 33.39 106.55 31.26L106.67 31.38L106.63 31.35Q107.98 33.00 110.19 32.77L110.09 32.67L110.07 32.65Q111.10 32.65 111.75 32.01L111.59 31.85L111.71 31.97Q112.34 31.30 112.23 30.43L112.19 30.39L112.22 30.42Q112.17 25.88 112.24 21.31L112.23 21.30L112.20 21.27Q112.18 16.60 112.71 11.99L112.68 11.97L112.80 12.08Q114.67 11.82 116.80 10.79L116.79 10.78L116.79 10.78Q114.94 17.54 114.94 24.77L114.92 24.75L114.95 24.78Q114.86 28.23 115.32 31.73L115.45 31.86L115.47 31.88Q115.37 32.05 115.37 32.39L115.41 32.43L115.56 32.58Q115.44 33.04 115.21 33.57L115.34 33.69L115.26 33.61Q114.61 34.79 111.79 35.06ZM116.76 37.93L116.72 37.89L117.10 37.93L117.37 37.78L117.67 37.70L117.63 37.66Q118.00 37.46 118.08 37.35L118.14 37.41L118.11 37.38Q118.34 36.23 118.07 35.24L117.89 35.06L117.97 35.14Q116.66 29.38 116.93 23.03L116.85 22.94L116.94 23.03Q117.20 16.94 118.99 11.04L118.89 10.94L118.99 11.04Q118.11 11.68 116.85 12.40L116.78 12.33L116.81 12.37Q116.99 11.59 117.41 10.06L117.34 10.00L117.45 10.10Q114.95 11.45 112.29 11.76L112.22 11.69L112.26 11.73Q111.95 16.18 111.87 21.13L111.71 20.97L111.79 21.05Q111.64 26.87 111.72 30.30L111.76 30.34L111.89 30.48Q111.77 32.06 110.02 32.22L110.07 32.27L110.14 32.34Q108.45 32.47 106.77 30.84L106.79 30.85L106.72 30.79Q104.73 33.36 103.78 34.92L103.62 34.76L103.70 34.84Q104.43 35.58 105.46 35.81L105.33 35.68L105.30 35.64Q105.34 35.91 105.07 36.14L104.95 36.02L104.99 36.06Q106.45 37.02 108.43 37.29L108.49 37.36L108.43 37.29Q108.89 37.41 112.19 37.72L112.06 37.59L112.09 37.62Q115.35 37.89 116.72 37.89Z"/></svg>