<svg xmlns="http://www.w3.org/2000/svg" width="200" height="40" viewBox="0,0,200,40"><path fill="#222" d="M139.47 25.47L139.44 25.43L139.44 25.43Q135.88 31.70 132.45 35.66L132.45 35.65L132.45 35.65Q130.67 36.16 128.24 37.04L128.13 36.92L128.14 36.93Q133.13 31.42 137.89 23.01L137.93 23.05L137.83 22.95Q133.22 15.98 127.24 9.58L127.33 9.67L127.24 9.58Q130.29 10.92 132.58 11.41L132.55 11.39L132.61 11.45Q137.12 16.53 139.55 20.49L139.63 20.56L139.63 20.56Q142.12 16.13 146.04 11.71L146.03 11.70L146.07 11.73Q147.64 11.40 150.84 10.64L150.78 10.59L150.87 10.67Q144.66 16.99 141.20 22.93L141.33 23.06L141.18 22.91Q146.41 31.65 150.79 36.22L150.86 36.28L150.78 36.20Q148.31 35.52 146.21 35.29L146.23 35.31L146.06 35.14Q143.41 32.30 139.49 25.49ZM146.14 35.64L146.04 35.54L146.17 35.66Q146.32 35.55 146.78 35.66L146.90 35.79L146.89 35.78Q147.63 36.48 149.15 38.08L149.16 38.09L149.23 38.15Q152.43 38.80 155.47 40.17L155.54 40.24L155.48 40.18Q148.32 33.55 143.22 24.80L143.31 24.89L143.21 24.79Q147.15 18.33 153.05 11.48L153.05 11.48L153.02 11.45Q151.58 12.10 149.41 12.64L149.36 12.59L149.30 12.53Q150.29 11.73 152.04 9.94L152.00 9.90L151.98 9.88Q149.55 10.72 145.85 11.29L145.79 11.23L145.81 11.25Q142.39 15.06 139.80 19.36L139.86 19.42L139.83 19.39Q139.03 17.91 137.85 16.42L137.86 16.43L135.55 13.48L135.10 13.41L135.02 13.33Q135.00 13.45 134.77 13.38L134.81 13.42L134.74 13.35Q134.08 12.53 132.59 10.97L132.53 10.91L132.59 10.97Q128.65 9.97 126.07 8.60L126.12 8.65L126.16 8.69Q132.92 15.98 137.49 23.03L137.45 22.98L137.46 23.00Q133.05 31.27 127.31 37.86L127.27 37.82L127.19 37.74Q128.48 37.05 130.61 36.47L130.61 36.47L129.35 37.96L129.47 38.08Q129.38 37.99 128.05 39.32L128.03 39.31L128.15 39.42Q131.11 38.31 134.27 37.82L134.19 37.73L134.23 37.78Q138.21 33.23 140.80 28.47L140.74 28.41L140.91 28.58Q143.34 32.69 146.05 35.55Z"/><path fill="#111" d="M168.42 35.11L168.45 35.14L166.27 35.25L166.30 35.28Q165.95 35.38 164.98 35.44L164.87 35.33L164.81 35.27Q163.97 35.46 163.47 35.46L163.47 35.46L163.47 35.45Q161.76 35.38 160.73 34.55L160.67 34.49L160.67 34.49Q161.64 33.55 163.27 31.41L163.19 31.33L163.18 31.32Q164.50 32.95 166.71 32.72L166.62 32.63L166.75 32.76Q167.61 32.59 168.26 31.95L168.28 31.97L168.20 31.89Q168.83 31.22 168.71 30.34L168.67 30.30L168.77 30.40Q168.56 25.70 168.64 21.13L168.82 21.32L168.63 21.12Q168.79 16.64 169.32 12.03L169.33 12.04L169.33 12.04Q171.32 11.90 173.45 10.87L173.39 10.81L173.36 10.77Q171.60 17.62 171.60 24.85L171.59 24.85L171.50 24.75Q171.55 28.34 172.00 31.85L171.90 31.74L171.90 31.74Q171.96 32.07 171.96 32.41L172.08 32.53L172.12 32.57Q172.08 33.10 171.85 33.63L171.81 33.59L171.86 33.64Q171.32 34.93 168.50 35.20ZM173.45 38.05L173.45 38.05L173.76 38.02L173.97 37.81L174.31 37.77L174.30 37.75Q174.56 37.44 174.63 37.33L174.69 37.38L174.66 37.36Q174.85 36.17 174.58 35.18L174.61 35.21L174.57 35.18Q173.23 29.38 173.50 23.03L173.42 22.95L173.38 22.91Q173.70 16.87 175.49 10.96L175.56 11.04L175.43 10.91Q174.67 11.67 173.42 12.39L173.44 12.42L173.46 12.44Q173.64 11.67 174.06 10.14L173.96 10.04L174.01 10.09Q171.54 11.47 168.88 11.78L168.72 11.62L168.86 11.76Q168.37 16.03 168.29 20.98L168.30 20.99L168.38 21.06Q168.23 26.89 168.30 30.31L168.36 30.37L168.33 30.35Q168.43 32.16 166.68 32.31L166.68 32.31L166.73 32.35Q164.96 32.41 163.28 30.78L163.29 30.79L163.33 30.83Q161.23 33.29 160.27 34.85L160.18 34.76L160.30 34.87Q160.89 35.46 161.92 35.69L161.94 35.71L161.97 35.74Q161.84 35.84 161.57 36.07L161.57 36.07L161.51 36.01Q163.09 37.09 165.06 37.35L164.96 37.25L165.01 37.30Q165.34 37.29 168.63 37.59L168.63 37.59L168.77 37.73Q172.04 38.01 173.41 38.01Z"/><path fill="#444" d="M84.18 15.14L84.23 15.18L84.08 15.04Q79.92 15.18 76.23 14.19L76.07 14.03L76.24 14.20Q77.71 18.72 77.90 23.55L77.90 23.55L77.89 23.54Q78.05 28.31 76.83 32.91L76.92 33.00L76.74 32.82Q79.59 32.24 83.09 32.09L83.13 32.13L83.19 32.19Q86.99 31.88 88.78 29.45L88.82 29.48L88.82 29.48Q90.29 27.37 90.48 23.26L90.53 23.31L90.58 23.36Q90.66 21.62 90.21 19.90L90.25 19.95L90.13 19.83Q88.97 15.20 84.25 15.20ZM72.27 37.14L72.24 37.12L72.26 37.14Q75.19 31.49 75.19 24.79L75.15 24.76L75.09 24.70Q75.18 16.26 70.88 9.26L70.77 9.15L70.86 9.24Q76.12 11.91 84.38 12.10L84.35 12.07L84.36 12.08Q93.25 12.29 93.60 19.45L93.61 19.46L93.50 19.35Q93.64 22.08 93.60 23.53L93.57 23.50L93.75 23.67Q93.65 28.33 92.81 30.50L92.66 30.35L92.83 30.52Q92.29 31.51 91.53 32.34L91.55 32.37L91.57 32.39Q90.15 33.86 87.53 34.36L87.60 34.43L87.49 34.32Q86.09 34.78 83.08 35.01L83.00 34.93L83.05 34.99Q76.77 35.29 72.17 37.04ZM90.12 36.95L90.09 36.92L90.23 37.06Q92.91 36.66 94.55 35.17L94.59 35.21L94.58 35.21Q95.68 33.33 95.64 30.59L95.67 30.62L95.78 30.73Q95.65 29.23 95.50 25.73L95.57 25.81L95.26 21.30L95.12 21.17Q95.07 19.02 94.12 16.93L94.01 16.82L94.02 16.83Q93.62 16.01 92.94 15.37L92.90 15.33L92.80 15.07L92.75 15.03Q91.26 12.28 86.84 11.90L86.77 11.83L86.75 11.81Q83.97 11.58 76.97 10.86L77.09 10.98L77.10 10.98Q73.80 10.51 70.11 8.49L70.08 8.46L70.03 8.41Q74.85 15.78 74.85 24.54L74.94 24.62L74.97 24.66Q74.93 31.62 71.58 37.79L71.50 37.71L71.48 37.68Q72.16 37.42 73.50 36.92L73.64 37.07L73.56 36.99Q73.22 37.83 72.35 39.32L72.42 39.39L72.33 39.30Q75.39 38.25 78.74 37.75L78.68 37.69L78.82 37.83Q80.84 37.45 84.49 37.34L84.46 37.31L84.41 37.26Q88.41 37.26 90.24 37.07ZM90.17 23.33L90.32 23.48L90.25 23.42Q89.82 31.36 83.12 31.74L83.23 31.85L83.22 31.84Q81.27 31.94 79.21 32.21L79.13 32.12L79.20 32.19Q79.93 28.36 79.93 24.71L79.93 24.71L79.87 24.65Q79.78 20.87 79.06 17.02L79.11 17.07L79.02 16.98Q81.39 17.45 86.08 17.45L86.14 17.51L86.03 17.40Q87.52 17.38 89.16 18.33L89.03 18.19L89.08 18.24Q90.37 20.53 90.22 23.38Z"/><path d="M13 31 C113 20,85 10,198 5" stroke="#666" fill="none"/><path fill="#111" d="M107.60 24.59L107.59 24.58L107.72 24.71Q107.64 28.89 106.92 33.04L106.98 33.10L106.84 32.96Q109.19 32.49 112.27 32.38L112.33 32.44L112.27 32.38Q113.61 32.58 114.68 31.57L114.61 31.50L114.60 31.49Q115.78 30.59 115.78 29.26L115.64 29.13L115.64 29.12Q115.67 28.84 115.63 28.58L115.61 28.56L115.70 28.65Q115.52 25.69 113.28 24.86L113.21 24.79L113.20 24.78Q112.60 24.63 111.91 24.71L111.79 24.58L111.77 24.57Q110.77 24.55 109.74 24.59L109.70 24.56L109.69 24.54Q108.70 24.66 107.67 24.66ZM106.43 14.20L106.38 14.15L106.37 14.14Q107.40 17.61 107.67 21.99L107.53 21.85L107.66 21.98Q108.94 21.93 111.61 21.97L111.75 22.11L111.61 21.97Q114.60 22.07 114.94 18.53L115.02 18.61L114.97 18.56Q115.15 16.60 113.74 15.76L113.74 15.77L113.82 15.84Q112.92 15.32 108.50 14.68L108.52 14.69L108.35 14.53Q107.41 14.50 106.50 14.27ZM102.88 37.19L102.71 37.02L102.85 37.16Q105.21 30.38 104.95 23.00L105.04 23.09L104.93 22.98Q104.79 15.83 101.86 9.36L101.82 9.33L101.68 9.18Q105.65 11.90 111.87 12.15L111.86 12.13L111.85 12.12Q118.08 12.37 118.42 15.27L118.37 15.22L118.29 15.13Q118.66 17.94 117.25 20.60L117.24 20.60L117.35 20.70Q116.62 22.22 115.02 22.91L114.99 22.88L114.97 22.86Q118.65 23.56 118.88 28.93L118.86 28.92L118.91 28.97Q118.82 29.90 118.74 31.31L118.90 31.46L118.75 31.32Q118.77 32.70 117.83 33.64L117.93 33.73L117.92 33.73Q116.87 34.54 115.54 34.70L115.56 34.72L115.55 34.70Q114.19 34.90 113.12 34.90L113.03 34.81L112.98 34.76Q107.31 34.80 102.78 37.08ZM115.50 37.32L115.53 37.35L115.50 37.32Q116.59 37.53 118.45 37.64L118.30 37.49L118.32 37.51Q119.74 37.56 120.84 36.68L120.89 36.74L120.83 36.67Q121.72 35.85 121.61 34.29L121.52 34.20L121.58 34.26Q121.57 33.38 120.85 29.92L120.75 29.81L120.80 29.87Q120.03 26.54 118.16 25.06L118.18 25.07L117.92 24.40L117.78 24.25Q119.45 22.84 120.02 19.07L120.11 19.16L120.00 19.06Q120.27 18.03 120.20 16.62L120.05 16.48L120.24 16.67Q120.08 15.25 118.98 14.41L119.07 14.51L119.03 14.47Q118.67 14.22 118.55 14.18L118.51 14.14L118.47 14.09Q118.37 13.73 117.54 12.94L117.58 12.98L117.48 12.88Q116.03 11.88 111.80 11.69L111.67 11.56L111.71 11.61Q105.05 11.30 101.05 8.40L101.06 8.42L101.04 8.39Q104.33 15.41 104.63 22.95L104.78 23.10L104.73 23.04Q105.11 30.93 102.29 37.85L102.25 37.82L104.23 36.78L104.34 36.89Q103.90 37.98 103.41 39.12L103.30 39.01L103.46 39.18Q107.65 37.19 112.67 37.19L112.78 37.31L112.74 37.26Q114.14 37.25 115.58 37.40ZM113.53 26.94L113.51 26.92L113.39 26.79Q114.21 26.82 115.12 27.27L115.03 27.18L115.15 27.30Q115.11 27.49 115.26 28.55L115.32 28.61L115.39 28.68Q115.51 29.99 114.58 31.03L114.70 31.15L114.53 30.98Q113.59 32.02 112.19 31.91L112.29 32.02L110.88 32.20L110.79 32.12Q110.03 32.16 109.31 32.27L109.37 32.33L109.34 32.30Q109.57 30.39 109.64 26.93L109.71 26.99L109.58 26.87Q110.30 26.87 111.56 26.83L111.68 26.95L111.50 26.77Q112.86 26.84 113.47 26.88ZM112.47 17.31L112.41 17.25L112.72 17.18L112.87 17.33Q113.10 17.33 113.29 17.37L113.14 17.22L113.52 17.22L113.96 17.47L114.55 17.52L114.51 17.48Q114.66 17.78 114.66 18.09L114.67 18.11L114.60 18.57L114.61 18.57Q114.57 19.79 113.70 20.73L113.77 20.79L113.70 20.73Q112.78 21.62 111.56 21.62L111.69 21.74L111.63 21.69Q110.62 21.70 110.62 21.70L110.55 21.63L110.67 21.75Q109.27 21.64 109.61 21.64L109.66 21.70L109.71 21.75Q109.54 20.09 109.23 17.04L109.31 17.12L109.34 17.15Q110.97 17.33 112.49 17.33Z"/><path d="M7 21 C116 36,115 6,194 14" stroke="#999" fill="none"/><path fill="#444" d="M22.73 35.39L22.77 35.42L22.65 35.30Q18.60 35.55 17.61 33.23L17.61 33.23L17.70 33.32Q18.50 32.41 20.06 30.62L19.91 30.47L19.94 30.50Q20.40 32.48 23.40 32.59L23.42 32.60L23.52 32.71Q26.78 32.66 28.42 31.33L28.52 31.43L28.46 31.36Q29.96 29.86 29.88 27.16L29.77 27.04L29.91 27.18Q29.73 22.09 24.94 22.32L24.87 22.26L24.95 22.33Q22.03 22.39 20.28 23.65L20.24 23.61L19.92 23.44L19.80 23.40L19.75 23.34Q20.16 20.25 20.05 17.51L20.06 17.53L19.95 17.41Q19.88 14.83 19.54 11.52L19.65 11.63L19.49 11.47Q23.29 12.57 27.10 12.46L27.09 12.44L27.11 12.46Q30.76 12.23 34.33 10.97L34.37 11.01L33.83 12.57L33.88 12.62Q33.58 13.38 33.39 14.21L33.29 14.12L33.32 14.15Q30.14 15.11 26.25 15.11L26.26 15.12L26.33 15.19Q24.87 15.18 23.38 15.02L23.37 15.01L23.47 15.11Q23.32 15.72 22.97 20.17L22.98 20.18L22.98 20.17Q23.86 19.76 25.92 19.61L25.95 19.65L25.87 19.57Q29.72 19.91 31.16 21.58L31.10 21.52L31.15 21.57Q32.53 23.10 32.80 26.95L32.65 26.80L32.66 26.81Q33.02 31.09 31.80 33.11L31.84 33.15L31.82 33.12Q29.68 34.90 26.36 35.13L26.34 35.11L26.43 35.20Q25.38 35.22 22.72 35.37ZM28.87 37.75L28.70 37.58L28.88 37.76Q32.29 37.83 34.20 36.72L34.20 36.73L34.20 36.72Q35.16 35.17 35.16 33.07L35.08 33.00L35.06 32.98Q35.17 30.01 34.22 25.90L34.23 25.90L34.12 25.80Q33.78 24.08 32.56 22.68L32.48 22.59L32.65 22.80L32.35 22.42L32.10 22.33L32.09 22.32Q31.76 21.57 31.11 20.88L31.11 20.88L31.02 20.83L31.10 20.91Q29.63 19.29 25.94 19.29L25.88 19.24L25.57 19.19L25.64 19.26Q25.73 18.70 25.92 17.59L25.92 17.60L25.87 17.54Q30.90 17.70 34.93 16.06L34.91 16.04L34.94 16.07Q35.34 14.65 36.29 11.83L36.32 11.86L34.12 12.70L34.19 12.77Q34.46 11.51 34.95 10.37L35.04 10.46L35.04 10.46Q31.10 11.81 26.98 11.88L27.11 12.01L26.99 11.89Q23.05 12.17 19.09 11.07L18.96 10.94L18.97 10.95Q19.65 15.37 19.65 19.78L19.77 19.90L19.58 19.71Q19.68 21.71 19.56 23.61L19.62 23.67L19.63 23.68Q19.88 23.85 20.45 24.16L20.31 24.02L20.49 24.20Q20.72 23.86 21.37 23.51L21.42 23.56L21.42 23.57Q21.27 24.21 21.04 25.74L21.20 25.90L21.13 25.83Q21.50 25.97 21.92 26.20L22.00 26.27L21.89 26.16Q24.70 24.45 26.57 24.45L26.67 24.55L26.57 24.45Q27.87 24.42 29.05 25.06L29.04 25.06L29.07 25.09Q29.51 26.22 29.55 27.17L29.59 27.21L29.44 27.06Q29.59 29.72 28.57 30.83L28.57 30.83L28.52 30.78Q27.16 32.01 24.91 32.24L24.86 32.18L24.93 32.25Q23.95 32.31 23.27 32.23L23.21 32.17L23.24 32.20Q22.52 32.21 21.76 31.86L21.68 31.78L21.75 31.66L21.56 31.70L21.47 31.61Q20.83 31.28 20.30 29.95L20.28 29.92L20.24 29.89Q18.91 31.29 17.23 33.43L17.17 33.36L17.24 33.43Q17.58 34.11 18.41 35.06L18.29 34.94L18.31 34.96Q19.50 36.91 22.31 37.40L22.19 37.28L22.13 37.22Q23.46 37.59 28.83 37.71Z"/><path fill="#333" d="M60.22 23.62L60.35 23.76L54.42 23.80L54.31 23.70Q51.55 23.90 48.61 23.83L48.48 23.69L48.46 23.67Q48.73 30.52 46.67 36.04L46.49 35.87L46.61 35.98Q44.81 36.50 43.06 37.19L43.00 37.13L42.91 37.04Q45.70 31.34 45.70 24.68L45.87 24.85L45.70 24.68Q45.71 16.20 41.59 9.15L41.66 9.22L41.75 9.31Q43.16 9.99 45.63 10.79L45.63 10.79L45.74 10.90Q47.72 15.81 48.25 20.68L48.32 20.76L48.31 20.74Q51.59 21.24 54.45 21.21L54.40 21.16L54.44 21.20Q57.15 21.24 60.46 20.97L60.38 20.90L60.34 20.85Q60.82 16.46 62.57 11.36L62.66 11.45L62.52 11.31Q64.46 10.89 66.71 10.06L66.70 10.04L66.82 10.17Q63.04 16.74 63.04 24.70L63.04 24.70L63.22 24.88Q63.09 30.95 65.45 36.28L65.58 36.41L65.51 36.35Q63.84 35.66 61.78 35.36L61.82 35.40L61.79 35.36Q60.22 30.45 60.34 23.74ZM61.48 35.66L61.67 35.85L61.64 35.83Q62.60 35.91 63.71 36.18L63.68 36.15L63.70 36.17Q64.13 36.98 64.77 38.46L64.73 38.42L64.62 38.30Q68.09 39.38 69.88 40.29L69.83 40.24L69.75 40.16Q65.30 34.00 64.99 25.74L65.13 25.87L64.99 25.73Q64.74 17.76 68.40 10.95L68.40 10.95L67.27 11.34L67.45 11.52Q66.91 11.70 66.30 11.85L66.30 11.86L66.23 11.78Q66.74 11.07 67.57 9.51L67.59 9.53L67.60 9.54Q64.77 10.40 62.14 10.89L62.22 10.98L62.20 10.95Q60.57 15.83 60.11 20.52L60.03 20.43L60.05 20.45Q57.53 20.63 55.09 20.63L55.27 20.82L55.11 20.65Q52.76 20.70 50.25 20.55L50.32 20.62L50.23 20.53Q49.94 17.20 48.84 13.12L48.91 13.19L48.99 13.27Q48.28 13.13 46.83 12.75L46.76 12.69L46.80 12.72Q46.52 11.60 46.06 10.57L46.04 10.55L46.04 10.56Q43.21 9.70 40.92 8.45L41.00 8.52L41.03 8.55Q45.60 15.98 45.60 24.77L45.43 24.60L45.61 24.78Q45.53 31.67 42.41 37.80L42.32 37.71L42.41 37.80Q43.04 37.44 44.38 36.87L44.37 36.87L44.37 36.86Q44.16 37.84 43.36 39.36L43.23 39.23L43.24 39.24Q46.03 38.22 48.27 37.80L48.30 37.82L48.37 37.89Q50.31 32.41 50.50 26.24L50.40 26.15L50.42 26.17Q51.97 26.04 55.17 26.00L55.13 25.97L55.30 26.13Q58.13 26.07 60.04 26.15L59.95 26.06L60.06 26.17Q60.30 31.90 61.63 35.82Z"/></svg>