<svg xmlns="http://www.w3.org/2000/svg" width="200" height="40" viewBox="0,0,200,40"><path fill="#444" d="M90.66 35.48L90.61 35.42L90.58 35.40Q87.57 31.47 84.95 22.83L84.96 22.84L84.89 22.77Q84.36 20.76 83.56 18.63L83.44 18.51L80.67 27.39L80.64 27.36Q78.81 32.26 76.41 35.50L76.40 35.49L76.40 35.49Q75.52 35.52 73.88 35.67L73.91 35.70L73.99 35.78Q73.99 34.49 73.99 33.23L74.01 33.25L74.09 33.33Q74.00 27.22 71.25 21.09L71.24 21.08L71.40 21.24Q68.17 14.24 62.31 9.26L62.31 9.26L62.37 9.32Q64.46 9.96 66.82 10.49L66.75 10.42L66.91 10.58Q75.42 18.86 76.71 29.82L76.72 29.83L76.72 29.84Q78.35 26.51 79.80 21.15L79.89 21.24L79.82 21.17Q81.86 13.73 82.35 12.32L82.34 12.30L84.67 12.39L84.62 12.34Q85.38 14.44 86.03 16.76L86.00 16.73L87.13 21.05L87.20 21.12Q88.83 26.64 90.24 29.87L90.16 29.80L90.19 29.83Q91.77 18.11 99.68 10.77L99.75 10.84L99.83 10.91Q101.27 10.48 104.24 9.84L104.32 9.92L104.24 9.84Q99.00 14.23 95.96 20.36L95.94 20.34L95.89 20.29Q92.83 26.56 92.83 33.34L92.80 33.31L92.72 33.23Q92.81 34.42 92.88 35.57L92.94 35.62L91.61 35.32L91.66 35.36Q91.21 35.45 90.64 35.45ZM96.78 38.24L96.89 38.35L96.86 38.32Q95.62 34.76 95.73 30.88L95.67 30.81L95.73 30.88Q96.04 19.31 105.41 11.04L105.43 11.07L105.32 10.96Q104.45 11.26 102.50 11.80L102.43 11.72L102.44 11.73Q103.46 10.97 105.37 9.18L105.25 9.06L105.41 9.22Q102.63 9.87 99.70 10.37L99.83 10.49L99.76 10.42Q92.31 17.59 90.41 27.07L90.33 27.00L90.43 27.09Q89.77 25.37 86.92 13.91L86.98 13.98L86.94 13.94Q86.57 14.06 85.61 14.06L85.60 14.05L85.31 13.00L85.14 12.82Q85.08 12.34 84.85 11.84L84.99 11.98L82.01 11.90L82.06 11.94Q81.23 14.40 79.96 19.52L79.87 19.43L79.87 19.43Q78.64 24.60 77.65 27.07L77.55 26.97L77.71 27.13Q76.09 19.19 70.53 12.87L70.48 12.82L70.59 12.93Q70.00 12.75 69.05 12.56L68.96 12.48L69.07 12.59Q68.40 11.80 66.84 10.17L66.80 10.13L66.74 10.07Q63.33 9.25 61.16 8.45L61.21 8.49L61.19 8.48Q66.98 13.28 70.26 19.49L70.24 19.46L70.13 19.36Q73.69 26.08 73.69 33.09L73.67 33.06L73.59 32.98Q73.65 34.60 73.45 36.20L73.52 36.26L73.48 36.23Q73.59 36.10 74.05 36.01L74.20 36.16L74.22 36.18Q74.63 36.04 74.86 36.04L74.86 36.04L74.80 37.01L74.88 37.09Q74.73 37.40 74.81 37.93L74.83 37.96L74.87 38.00Q76.08 37.98 78.36 37.83L78.28 37.75L78.38 37.85Q82.00 32.45 84.74 23.04L84.57 22.87L84.75 23.05Q87.53 31.85 90.50 35.81L90.33 35.63L90.33 35.64Q90.88 35.73 91.72 35.84L91.85 35.97L91.74 35.86Q92.56 36.88 93.62 37.94L93.74 38.06L93.64 37.96Q94.33 37.92 96.73 38.19Z"/><path fill="#222" d="M116.92 23.76L116.81 23.64L111.02 23.84L111.01 23.83Q108.10 23.88 105.17 23.81L105.10 23.74L105.12 23.76Q105.23 30.45 103.17 35.97L103.17 35.97L103.24 36.04Q101.23 36.35 99.48 37.04L99.47 37.03L99.50 37.06Q102.41 31.49 102.41 24.82L102.30 24.71L102.27 24.68Q102.40 16.32 98.29 9.28L98.29 9.28L98.22 9.21Q99.72 9.99 102.20 10.79L102.17 10.76L102.24 10.83Q104.36 15.88 104.90 20.76L104.89 20.75L104.84 20.70Q108.06 21.15 110.92 21.11L111.01 21.19L111.00 21.19Q113.60 21.12 116.91 20.85L117.03 20.97L116.98 20.92Q117.48 16.55 119.23 11.45L119.17 11.39L119.13 11.35Q121.02 10.88 123.26 10.04L123.38 10.15L123.27 10.05Q119.64 16.77 119.64 24.73L119.69 24.78L119.73 24.82Q119.74 31.03 122.10 36.36L122.07 36.33L122.06 36.32Q120.45 35.70 118.39 35.40L118.32 35.32L118.50 35.50Q116.70 30.35 116.81 23.65ZM118.15 35.76L118.18 35.79L118.15 35.76Q119.26 36.00 120.37 36.27L120.37 36.27L120.20 36.09Q120.61 36.89 121.26 38.38L121.24 38.36L121.29 38.41Q124.65 39.36 126.44 40.28L126.32 40.16L126.45 40.29Q121.96 34.09 121.65 25.83L121.59 25.76L121.72 25.89Q121.38 17.83 125.04 11.02L124.94 10.92L124.02 11.52L123.99 11.49Q123.53 11.75 122.92 11.90L122.75 11.73L122.89 11.87Q123.25 11.02 124.09 9.45L124.03 9.40L124.15 9.52Q121.38 10.44 118.76 10.94L118.81 10.99L118.81 10.99Q117.20 15.89 116.75 20.58L116.73 20.56L116.62 20.45Q114.22 20.75 111.78 20.75L111.75 20.72L111.77 20.74Q109.35 20.72 106.84 20.57L106.91 20.64L106.82 20.55Q106.66 17.35 105.56 13.27L105.41 13.13L105.44 13.15Q104.92 13.21 103.48 12.83L103.43 12.78L103.34 12.69Q102.98 11.50 102.53 10.47L102.52 10.47L102.50 10.44Q99.73 9.65 97.44 8.39L97.48 8.42L97.47 8.42Q102.13 15.94 102.13 24.73L102.14 24.74L102.15 24.75Q102.09 31.65 98.97 37.78L98.87 37.69L98.91 37.73Q99.63 37.46 100.96 36.89L100.94 36.87L100.95 36.87Q100.74 37.84 99.94 39.37L99.78 39.21L99.92 39.34Q102.69 38.30 104.93 37.89L105.01 37.96L104.91 37.87Q106.71 32.24 106.90 26.07L106.90 26.08L106.97 26.14Q108.67 26.17 111.87 26.13L111.73 25.99L111.77 26.03Q114.72 26.09 116.62 26.16L116.56 26.10L116.62 26.16Q116.86 31.88 118.19 35.80Z"/><path d="M7 37 C85 33,113 20,185 35" stroke="#333" fill="none"/><path fill="#222" d="M56.60 34.85L56.58 34.84L56.50 34.76Q54.65 34.81 52.63 35.00L52.69 35.06L52.56 34.93Q53.29 29.76 53.29 24.92L53.35 24.98L53.28 24.92Q53.26 19.98 52.61 14.77L52.75 14.90L52.69 14.84Q47.99 14.33 44.79 12.66L44.78 12.64L44.12 10.96L44.17 11.01Q43.95 10.48 43.34 9.27L43.38 9.30L43.36 9.29Q48.39 11.91 54.40 12.10L54.42 12.12L54.35 12.05Q60.26 12.24 65.70 10.19L65.72 10.21L65.76 10.25Q65.02 11.64 64.37 13.47L64.39 13.48L64.48 13.57Q60.69 14.70 56.43 14.89L56.47 14.93L56.56 15.02Q56.23 19.91 56.23 24.86L56.35 24.97L56.28 24.91Q56.30 29.87 56.60 34.86ZM66.38 9.50L66.50 9.62L66.36 9.48Q60.60 11.83 54.40 11.64L54.39 11.64L54.47 11.71Q47.73 11.44 42.63 8.47L42.64 8.49L42.58 8.43Q43.41 9.79 44.70 13.06L44.67 13.03L44.71 13.07Q45.38 13.40 46.64 13.97L46.48 13.81L46.57 13.90Q46.93 14.72 47.27 16.24L47.27 16.24L47.27 16.23Q49.53 17.05 52.58 17.28L52.46 17.16L52.56 17.27Q52.84 20.86 52.84 24.63L52.81 24.60L52.80 24.58Q52.82 29.97 52.02 35.34L52.00 35.32L52.04 35.36Q53.80 35.33 54.33 35.33L54.33 35.33L54.28 35.28Q54.25 35.56 54.20 36.22L54.15 36.18L54.32 36.34Q54.09 36.84 54.09 37.19L54.10 37.19L54.13 37.22Q55.35 37.19 56.87 37.26L56.86 37.25L56.92 37.31Q57.90 37.41 59.72 37.56L59.71 37.55L59.69 37.52Q58.44 32.59 58.33 27.41L58.33 27.41L58.38 27.46Q58.12 22.02 58.65 17.11L58.68 17.14L58.60 17.06Q62.59 16.56 65.75 15.34L65.90 15.49L65.74 15.33Q66.45 12.96 67.48 10.90L67.49 10.92L67.55 10.97Q66.11 11.55 65.31 11.85L65.39 11.93L65.40 11.94Q65.82 10.65 66.39 9.51Z"/><path d="M20 26 C114 23,93 6,193 26" stroke="#666" fill="none"/><path fill="#444" d="M22.80 35.45L22.81 35.46L22.66 35.32Q18.68 35.64 17.69 33.31L17.60 33.22L17.71 33.34Q18.50 32.41 20.07 30.62L19.94 30.49L20.05 30.61Q20.47 32.55 23.48 32.67L23.57 32.76L23.51 32.70Q26.89 32.77 28.53 31.43L28.60 31.50L28.52 31.42Q29.96 29.85 29.88 27.15L29.75 27.02L29.85 27.12Q29.68 22.04 24.88 22.27L24.81 22.20L24.87 22.25Q22.13 22.48 20.38 23.74L20.34 23.70L20.08 23.60L19.89 23.48L19.76 23.35Q20.11 20.20 20.00 17.46L20.01 17.47L20.08 17.54Q19.89 14.84 19.54 11.53L19.64 11.62L19.49 11.47Q23.31 12.59 27.12 12.48L26.99 12.35L27.08 12.43Q30.89 12.36 34.47 11.10L34.37 11.01L33.91 12.65L33.94 12.67Q33.53 13.33 33.34 14.17L33.32 14.15L33.26 14.08Q30.20 15.17 26.31 15.17L26.34 15.20L26.34 15.20Q24.86 15.16 23.37 15.01L23.50 15.14L23.51 15.15Q23.29 15.69 22.94 20.14L22.94 20.13L22.97 20.17Q23.87 19.77 25.93 19.62L25.93 19.62L25.98 19.68Q29.68 19.87 31.13 21.55L31.01 21.43L30.97 21.39Q32.39 22.96 32.66 26.81L32.62 26.77L32.71 26.86Q33.06 31.13 31.84 33.15L31.68 32.99L31.82 33.13Q29.67 34.90 26.35 35.12L26.50 35.27L26.50 35.27Q25.38 35.22 22.72 35.37ZM28.80 37.69L28.71 37.60L28.80 37.68Q32.30 37.84 34.21 36.73L34.01 36.54L34.15 36.68Q35.03 35.04 35.03 32.95L35.18 33.10L35.02 32.94Q35.02 29.86 34.07 25.75L34.12 25.79L34.23 25.90Q33.79 24.10 32.57 22.69L32.59 22.70L32.54 22.70L32.27 22.34L32.07 22.30L31.92 22.15Q31.78 21.59 31.13 20.91L30.98 20.76L30.97 20.78L31.08 20.89Q29.50 19.15 25.80 19.15L25.81 19.16L25.51 19.13L25.53 19.15Q25.64 18.61 25.83 17.50L25.79 17.46L25.92 17.59Q30.78 17.59 34.82 15.95L34.96 16.09L34.94 16.07Q35.21 14.52 36.16 11.70L36.17 11.70L34.20 12.78L34.21 12.79Q34.63 11.68 35.12 10.54L34.93 10.35L34.95 10.37Q31.15 11.86 27.03 11.93L27.09 11.99L27.08 11.98Q22.91 12.04 18.95 10.93L19.02 11.00L18.96 10.94Q19.78 15.49 19.78 19.91L19.73 19.85L19.59 19.72Q19.64 21.67 19.53 23.57L19.49 23.54L19.64 23.68Q19.86 23.83 20.43 24.14L20.40 24.11L20.34 24.05Q20.83 23.97 21.48 23.62L21.42 23.56L21.46 23.61Q21.44 24.39 21.21 25.91L21.12 25.81L21.09 25.79Q21.59 26.06 22.01 26.29L21.91 26.18L22.04 26.32Q24.73 24.48 26.60 24.48L26.66 24.54L26.67 24.55Q27.94 24.49 29.12 25.14L29.08 25.09L29.10 25.12Q29.49 26.19 29.53 27.15L29.52 27.13L29.41 27.02Q29.63 29.75 28.60 30.86L28.50 30.76L28.46 30.72Q27.17 32.01 24.92 32.24L24.89 32.22L24.97 32.29Q23.96 32.31 23.27 32.23L23.23 32.19L23.28 32.24Q22.50 32.18 21.74 31.84L21.61 31.71L21.72 31.63L21.45 31.59L21.59 31.73Q20.71 31.15 20.17 29.82L20.26 29.91L20.29 29.93Q18.96 31.35 17.29 33.48L17.29 33.49L17.12 33.31Q17.59 34.12 18.42 35.07L18.43 35.08L18.30 34.95Q19.45 36.86 22.27 37.36L22.30 37.39L22.19 37.27Q23.39 37.53 28.76 37.64Z"/><path fill="#111" d="M166.94 14.60L167.04 14.70L166.97 14.63Q164.99 14.74 164.04 14.89L164.06 14.92L164.01 14.87Q162.50 15.23 161.29 15.76L161.19 15.67L161.32 15.79Q157.72 17.14 157.60 21.82L157.54 21.76L157.61 21.83Q157.60 24.56 158.25 27.49L158.19 27.44L158.19 27.44Q159.13 31.53 162.74 32.71L162.62 32.58L162.72 32.69Q164.53 33.17 165.98 33.01L166.00 33.04L166.42 33.00L166.53 33.11Q166.54 32.93 166.73 32.96L166.77 33.01L166.76 33.00Q166.93 33.01 167.08 32.98L167.19 33.08L167.20 33.09Q169.84 32.84 171.21 32.27L171.03 32.09L167.58 28.68L167.64 28.73Q167.97 28.42 168.58 27.81L168.56 27.79L169.44 26.85L169.43 26.84Q171.24 28.88 173.22 30.93L173.25 30.96L173.21 30.92Q175.57 29.13 175.84 23.77L175.85 23.78L175.81 23.73Q175.88 22.81 175.88 21.90L175.87 21.89L175.98 22.00Q175.82 16.17 170.76 15.07L170.78 15.09L170.78 15.09Q169.61 14.91 167.10 14.76ZM179.77 36.71L179.77 36.72L179.85 36.79Q179.11 37.09 177.93 37.96L178.03 38.06L173.61 34.37L173.57 34.33Q171.11 35.55 166.84 35.59L166.76 35.51L166.94 35.69Q160.35 35.76 157.53 33.51L157.54 33.52L157.50 33.48Q155.64 31.62 155.19 28.66L155.27 28.74L155.17 28.64Q155.13 27.00 154.75 23.42L154.59 23.27L154.76 23.44Q154.68 22.63 154.57 20.88L154.60 20.92L154.66 20.97Q154.40 19.31 154.44 18.43L154.39 18.38L154.37 18.36Q154.47 15.30 156.22 13.74L156.30 13.82L156.22 13.74Q157.87 12.53 161.07 12.04L161.06 12.03L160.99 11.96Q163.53 11.64 166.42 11.72L166.49 11.79L166.40 11.70Q173.86 11.77 176.98 14.13L177.00 14.16L177.00 14.15Q179.26 16.38 179.00 21.29L178.95 21.24L178.95 21.24Q178.78 24.91 178.59 26.25L178.47 26.13L178.63 26.29Q177.83 30.63 175.51 32.95L175.58 33.03L175.66 33.10Q177.08 34.30 179.82 36.77ZM175.01 12.55L174.83 12.37L174.88 12.42Q172.85 11.67 166.34 11.18L166.39 11.23L166.31 11.15Q164.98 11.23 162.20 11.34L162.21 11.36L162.31 11.45Q157.96 11.56 155.71 13.54L155.68 13.51L155.72 13.55Q154.11 15.06 154.11 18.22L154.14 18.24L154.13 18.24Q154.11 19.06 154.27 20.77L154.36 20.86L154.33 20.83Q154.41 22.48 154.41 23.35L154.49 23.43L154.42 23.36Q154.49 25.03 154.87 28.60L155.01 28.75L154.86 28.60Q155.36 31.60 156.95 33.66L156.83 33.53L156.90 33.61Q157.28 34.48 158.50 35.62L158.49 35.62L158.42 35.55Q161.24 37.65 166.42 37.91L166.39 37.88L166.45 37.94Q166.80 37.95 169.20 38.07L169.03 37.89L169.06 37.92Q173.81 38.03 176.10 36.97L176.27 37.14L176.20 37.07Q177.03 37.71 181.75 41.29L181.71 41.25L181.79 41.33Q182.48 40.88 183.78 39.89L183.66 39.77L183.71 39.82Q182.84 39.14 182.04 38.45L181.99 38.40L180.42 37.03L180.46 36.91L180.39 36.84Q179.87 36.44 178.65 35.41L178.72 35.48L178.72 35.48Q180.56 32.90 180.56 28.37L180.65 28.46L180.66 28.47Q180.49 27.88 180.53 27.04L180.63 27.15L180.61 27.13Q180.63 26.27 180.63 25.86L180.72 25.94L180.66 25.88Q180.66 20.36 179.94 18.00L179.99 18.06L179.98 18.05Q179.61 16.76 178.73 15.69L178.61 15.57L178.58 15.54Q177.88 13.51 174.95 12.49ZM168.93 17.04L169.01 17.12L168.95 17.06Q172.95 16.92 174.78 18.52L174.80 18.54L174.76 18.50Q175.41 19.79 175.52 21.12L175.42 21.03L175.41 21.01Q175.59 22.37 175.51 23.74L175.41 23.64L175.48 23.71Q175.24 28.76 173.30 30.47L173.19 30.36L173.24 30.42Q171.89 29.07 169.38 26.32L169.49 26.44L169.42 26.36Q168.57 27.04 167.00 28.60L167.10 28.69L167.00 28.59Q167.57 29.20 168.71 30.38L168.83 30.50L168.67 30.45L168.62 30.41Q169.18 30.93 170.21 32.00L170.34 32.12L170.22 32.01Q169.39 32.43 167.07 32.73L166.92 32.59L166.41 32.61L166.13 32.75L166.04 32.69L165.97 32.62Q162.48 32.60 160.50 30.97L160.54 31.00L160.61 31.07Q159.51 28.91 159.55 25.79L159.62 25.86L159.51 25.75Q159.71 17.07 168.88 17.00Z"/><path fill="#444" d="M133.82 14.24L133.81 14.23L133.73 14.15Q134.82 18.59 134.98 21.79L135.11 21.92L134.98 21.79Q135.47 21.82 139.85 21.94L139.85 21.94L139.87 21.96Q142.41 21.99 142.79 18.53L142.92 18.66L142.83 18.56Q143.02 16.81 142.11 15.90L142.11 15.91L142.10 15.89Q140.93 15.11 138.95 14.96L138.93 14.93L138.95 14.95Q135.60 14.61 133.73 14.15ZM135.07 23.71L135.18 23.83L135.25 23.89Q135.39 29.85 133.60 35.79L133.66 35.86L133.66 35.86Q132.26 36.01 129.67 37.04L129.72 37.10L129.77 37.14Q132.52 30.56 132.18 23.10L132.14 23.07L132.14 23.06Q131.91 15.79 128.60 9.28L128.64 9.32L128.60 9.29Q133.36 11.99 140.32 11.99L140.32 11.98L140.36 12.02Q146.14 12.16 146.40 15.70L146.32 15.62L146.27 15.57Q146.47 16.30 146.39 16.91L146.36 16.88L146.15 17.89L146.33 18.07Q145.35 21.84 143.22 23.56L143.22 23.56L143.37 23.71Q142.54 24.36 141.51 24.36L141.53 24.38L138.80 24.24L138.88 24.33Q144.54 31.62 149.07 36.19L148.93 36.05L149.01 36.13Q146.82 35.38 143.89 35.04L143.81 34.96L143.88 35.03Q140.07 31.03 135.16 23.80ZM143.72 35.37L143.75 35.40L144.12 35.47L145.39 36.73L145.36 36.70Q145.79 37.10 146.44 37.71L146.47 37.73L146.47 37.74Q150.05 38.39 153.63 40.25L153.65 40.27L153.62 40.25Q146.62 33.44 141.22 26.51L141.25 26.54L143.06 26.60L143.11 26.65Q146.18 26.64 147.52 22.11L147.44 22.03L147.42 22.01Q148.23 19.93 148.23 17.22L148.21 17.21L148.22 17.22Q148.16 14.88 146.45 14.23L146.39 14.16L146.40 14.18Q146.32 13.83 145.75 13.15L145.68 13.08L145.65 13.05Q144.02 11.64 140.36 11.57L140.51 11.72L140.47 11.68Q132.47 11.41 127.79 8.40L127.90 8.50L127.84 8.45Q131.61 15.30 131.95 22.99L131.86 22.90L132.02 23.06Q132.22 30.88 129.10 37.73L129.15 37.77L129.09 37.71Q130.49 37.29 131.29 36.99L131.26 36.95L130.14 39.11L130.20 39.17Q132.86 38.06 135.53 37.57L135.56 37.60L135.59 37.63Q136.87 32.51 137.06 27.30L137.02 27.26L137.01 27.25Q140.48 32.16 143.64 35.28ZM142.56 17.53L142.38 17.35L142.54 17.51Q142.55 17.75 142.55 18.09L142.59 18.13L142.60 18.72L142.54 18.66Q142.44 19.66 141.75 20.61L141.84 20.70L141.78 20.64Q141.28 21.50 140.36 21.69L140.39 21.72L140.27 21.60Q140.12 21.72 138.52 21.75L138.45 21.69L138.51 21.74Q137.91 21.76 137.07 21.64L137.05 21.61L137.07 21.64Q137.00 20.16 136.65 17.11L136.69 17.14L136.67 17.12Q137.96 17.20 138.65 17.20L138.68 17.23L138.62 17.17Q140.57 17.30 142.51 17.49Z"/></svg>