<svg xmlns="http://www.w3.org/2000/svg" width="200" height="40" viewBox="0,0,200,40"><path fill="#222" d="M54.67 25.52L54.58 25.43L54.69 25.54Q51.16 31.84 47.74 35.80L47.76 35.82L47.72 35.78Q45.76 36.10 43.32 36.98L43.35 37.01L43.28 36.93Q48.33 31.48 53.09 23.06L52.98 22.95L53.01 22.98Q48.50 16.11 42.52 9.72L42.39 9.59L42.42 9.62Q45.36 10.85 47.65 11.34L47.71 11.40L47.73 11.42Q52.31 16.58 54.75 20.54L54.81 20.60L54.80 20.59Q57.30 16.16 61.22 11.74L61.09 11.61L61.09 11.62Q62.76 11.38 65.96 10.62L65.90 10.56L66.07 10.73Q59.84 17.03 56.38 22.97L56.39 22.98L56.38 22.97Q61.66 31.75 66.04 36.32L65.96 36.24L66.03 36.31Q63.29 35.36 61.19 35.13L61.28 35.21L61.26 35.20Q58.42 32.16 54.49 25.35ZM61.20 35.55L61.27 35.62L61.28 35.64Q61.44 35.53 61.90 35.64L61.91 35.66L62.01 35.76Q62.87 36.57 64.39 38.17L64.33 38.11L64.34 38.12Q67.71 38.95 70.76 40.32L70.67 40.23L70.70 40.26Q63.47 33.56 58.37 24.80L58.41 24.85L58.42 24.86Q62.14 18.18 68.04 11.33L68.15 11.44L68.04 11.33Q66.71 12.09 64.54 12.63L64.47 12.55L64.40 12.48Q65.39 11.69 67.14 9.90L67.14 9.90L67.09 9.84Q64.66 10.69 60.97 11.27L60.99 11.28L61.02 11.32Q57.69 15.22 55.10 19.52L55.01 19.43L54.95 19.37Q54.04 17.77 52.86 16.29L52.95 16.38L50.73 13.51L50.19 13.35L50.30 13.46Q50.04 13.36 49.82 13.28L49.94 13.41L49.90 13.37Q49.09 12.41 47.61 10.85L47.76 11.00L47.78 11.02Q43.89 10.06 41.30 8.69L41.24 8.63L41.26 8.64Q48.12 16.04 52.69 23.08L52.64 23.04L52.68 23.08Q48.11 31.19 42.37 37.77L42.30 37.70L42.38 37.78Q43.69 37.12 45.83 36.55L45.82 36.54L44.45 37.91L44.50 37.96Q44.62 38.09 43.29 39.42L43.18 39.31L43.12 39.25Q46.14 38.20 49.30 37.71L49.31 37.71L49.40 37.80Q53.44 33.31 56.03 28.55L56.03 28.56L55.86 28.39Q58.48 32.68 61.18 35.54Z"/><path d="M19 13 C88 37,116 3,188 23" stroke="#888" fill="none"/><path fill="#333" d="M112.58 27.07L103.40 17.13L103.47 17.20Q104.23 20.81 104.23 24.54L104.28 24.59L104.23 24.55Q104.30 30.59 102.24 36.15L102.19 36.10L102.25 36.15Q101.22 36.46 98.98 37.22L98.82 37.06L98.90 37.15Q101.68 31.33 101.68 24.62L101.79 24.73L101.62 24.56Q101.73 16.03 97.23 8.60L97.21 8.58L97.19 8.56Q97.71 8.81 98.40 9.23L98.32 9.16L98.31 9.14Q110.39 20.35 118.23 29.60L118.32 29.69L118.27 29.64Q117.97 27.20 117.97 24.77L117.97 24.77L117.99 24.79Q118.02 17.59 120.54 11.38L120.40 11.25L120.50 11.35Q122.74 10.74 124.34 10.05L124.30 10.01L124.43 10.14Q121.00 16.19 120.69 23.34L120.82 23.47L120.76 23.41Q120.43 30.73 123.40 36.90L123.34 36.84L123.39 36.89Q122.91 36.90 122.49 36.71L122.41 36.63L122.54 36.76Q117.97 32.80 112.75 27.24L112.71 27.20ZM126.02 40.09L126.13 40.21L126.11 40.18Q126.51 40.28 126.93 40.47L126.99 40.52L127.87 40.92L127.81 40.86Q122.65 33.90 122.65 24.54L122.57 24.46L122.68 24.57Q122.61 17.27 125.93 11.03L125.87 10.97L126.04 11.14Q125.23 11.21 123.83 11.82L123.96 11.96L123.99 11.98Q124.37 11.15 125.21 9.59L125.12 9.50L125.04 9.41Q122.67 10.40 120.23 10.97L120.17 10.91L120.14 10.88Q117.49 17.32 117.49 24.75L117.59 24.85L117.64 24.90Q117.63 26.76 117.82 28.74L117.74 28.65L117.76 28.67Q113.18 23.06 108.42 18.46L108.46 18.49L98.29 8.71L98.24 8.65Q97.79 8.47 96.57 7.90L96.53 7.86L96.43 7.76Q101.30 15.49 101.30 24.58L101.30 24.58L101.44 24.73Q101.29 31.69 98.21 37.71L98.36 37.86L98.20 37.71Q98.52 37.60 100.16 36.99L100.26 37.10L100.21 37.05Q99.83 37.77 98.99 39.25L99.00 39.26L99.03 39.29Q100.38 38.78 103.85 37.98L103.90 38.03L103.83 37.97Q106.22 31.90 106.22 24.71L106.21 24.70L106.17 24.66Q106.24 22.64 106.02 20.51L106.02 20.51L105.94 20.43Q117.47 33.29 126.07 40.14Z"/><path fill="#444" d="M84.23 15.18L84.19 15.15L84.19 15.15Q79.90 15.16 76.21 14.17L76.10 14.06L76.22 14.18Q77.68 18.68 77.87 23.52L77.93 23.58L77.84 23.49Q78.12 28.38 76.91 32.99L76.73 32.81L76.89 32.97Q79.62 32.27 83.12 32.12L83.16 32.16L83.12 32.12Q87.13 32.01 88.91 29.58L88.90 29.56L88.78 29.44Q90.43 27.52 90.62 23.41L90.55 23.33L90.60 23.38Q90.66 21.62 90.21 19.91L90.25 19.95L90.29 19.99Q88.87 15.10 84.15 15.10ZM72.22 37.09L72.24 37.11L72.21 37.09Q75.19 31.50 75.19 24.80L75.22 24.83L75.09 24.70Q75.16 16.24 70.86 9.24L70.90 9.28L70.79 9.17Q76.06 11.85 84.32 12.04L84.45 12.17L84.28 12.00Q93.22 12.26 93.56 19.41L93.66 19.52L93.57 19.43Q93.61 22.05 93.57 23.50L93.59 23.52L93.64 23.57Q93.65 28.34 92.81 30.51L92.78 30.48L92.76 30.45Q92.40 31.62 91.64 32.45L91.49 32.31L91.64 32.46Q90.11 33.81 87.48 34.31L87.60 34.43L87.50 34.33Q86.09 34.78 83.08 35.01L83.05 34.98L83.00 34.93Q76.81 35.33 72.20 37.08ZM90.14 36.97L90.12 36.95L90.14 36.97Q92.92 36.67 94.56 35.18L94.57 35.19L94.57 35.20Q95.66 33.31 95.62 30.57L95.71 30.66L95.77 30.72Q95.76 29.34 95.61 25.84L95.69 25.92L95.22 21.27L95.12 21.17Q94.97 18.92 94.02 16.83L94.00 16.81L94.07 16.88Q93.55 15.94 92.87 15.30L92.98 15.41L92.83 15.10L92.95 15.22Q91.28 12.29 86.86 11.91L86.67 11.73L86.77 11.83Q84.01 11.61 77.00 10.89L77.02 10.91L77.13 11.01Q73.70 10.41 70.01 8.39L70.09 8.47L70.05 8.43Q74.99 15.92 74.99 24.68L75.00 24.69L75.00 24.68Q74.92 31.61 71.57 37.78L71.52 37.72L71.65 37.86Q72.22 37.47 73.55 36.98L73.59 37.02L73.66 37.09Q73.26 37.86 72.38 39.35L72.46 39.43L72.28 39.25Q75.45 38.31 78.80 37.81L78.76 37.78L78.83 37.84Q80.76 37.37 84.41 37.26L84.50 37.34L84.54 37.39Q88.43 37.27 90.25 37.08ZM90.24 23.40L90.28 23.44L90.26 23.42Q89.85 31.39 83.15 31.77L83.06 31.68L83.12 31.73Q81.21 31.89 79.16 32.15L79.19 32.18L79.09 32.09Q79.86 28.29 79.86 24.64L79.86 24.64L79.90 24.67Q79.77 20.85 79.05 17.01L79.18 17.14L79.09 17.05Q81.45 17.50 86.13 17.50L86.01 17.39L86.11 17.48Q87.42 17.27 89.06 18.22L88.99 18.16L89.12 18.29Q90.43 20.59 90.28 23.44Z"/><path fill="#111" d="M164.09 14.40L164.11 14.42L164.08 14.38Q164.93 18.63 165.09 22.21L165.07 22.19L165.07 22.19Q166.06 22.15 167.13 22.15L167.31 22.33L169.36 22.18L169.50 22.31Q170.54 22.30 171.42 20.89L171.30 20.77L171.29 20.76Q172.00 19.56 172.11 18.38L172.22 18.49L172.16 18.43Q172.46 15.34 168.23 14.85L168.23 14.85L168.28 14.89Q166.74 14.99 164.11 14.42ZM165.08 24.94L165.00 24.86L164.99 24.85Q165.02 31.16 163.87 35.57L163.81 35.51L163.94 35.64Q162.44 36.00 160.12 37.07L160.12 37.07L160.17 37.12Q162.37 30.30 162.11 23.03L162.19 23.12L162.18 23.10Q161.91 15.75 159.13 9.32L159.10 9.29L159.15 9.34Q163.21 12.03 169.45 12.03L169.44 12.01L169.48 12.05Q175.46 11.98 175.61 15.45L175.68 15.52L175.75 15.59Q175.77 17.97 174.78 20.63L174.81 20.66L174.86 20.71Q174.43 21.80 173.48 23.02L173.34 22.88L173.33 22.87Q172.22 24.70 169.67 24.96L169.54 24.83L169.53 24.82Q167.37 24.95 165.13 24.99ZM171.29 27.27L171.14 27.12L171.26 27.24Q175.42 27.48 176.68 22.68L176.65 22.65L176.61 22.61Q177.63 19.02 177.47 17.01L177.39 16.92L177.39 16.92Q177.33 15.45 176.57 14.47L176.47 14.36L176.57 14.46Q176.24 14.14 175.75 13.91L175.81 13.97L175.77 13.93Q175.74 13.74 175.13 12.98L175.05 12.91L175.19 13.05Q173.63 11.72 169.67 11.72L169.52 11.56L169.53 11.57Q162.68 11.62 158.46 8.46L158.54 8.54L158.37 8.37Q161.66 15.59 161.93 23.05L161.81 22.92L161.91 23.03Q162.24 30.74 159.57 37.82L159.52 37.77L159.51 37.76Q160.67 37.20 161.66 36.82L161.64 36.81L161.14 37.83L161.30 37.98Q161.01 38.46 160.74 39.03L160.84 39.13L160.78 39.06Q163.13 37.95 166.03 37.42L166.06 37.46L166.08 37.48Q166.89 31.92 166.96 27.20L167.09 27.33L166.93 27.17Q168.04 27.11 169.03 27.11L169.11 27.18L169.11 27.18Q170.35 27.08 171.15 27.12ZM170.26 17.25L170.21 17.20L170.21 17.21Q170.67 17.17 171.66 17.40L171.73 17.47L171.66 17.40Q171.79 17.64 171.83 17.95L171.83 17.95L171.88 18.00Q172.04 18.38 171.96 18.65L171.82 18.51L171.86 18.55Q171.77 19.79 171.04 20.66L170.99 20.61L171.06 20.68Q170.42 21.67 169.39 21.86L169.48 21.95L169.36 21.83Q168.75 21.95 167.11 21.95L167.04 21.88L166.97 21.81Q166.96 19.55 166.74 17.19L166.81 17.27L168.60 17.39L168.49 17.27Q169.31 17.25 170.19 17.18Z"/><path d="M9 36 C101 16,114 24,197 5" stroke="#111" fill="none"/><path fill="#333" d="M22.65 35.30L22.70 35.36L22.68 35.34Q18.75 35.71 17.76 33.38L17.64 33.26L17.61 33.24Q18.34 32.24 19.90 30.46L20.08 30.64L19.98 30.53Q20.38 32.46 23.39 32.58L23.55 32.74L23.57 32.76Q26.84 32.72 28.48 31.38L28.61 31.52L28.57 31.48Q29.99 29.89 29.92 27.19L29.76 27.04L29.85 27.12Q29.76 22.12 24.97 22.35L24.88 22.27L24.84 22.23Q22.13 22.49 20.38 23.75L20.29 23.66L20.06 23.57L19.86 23.45L19.87 23.46Q20.07 20.15 19.95 17.41L20.10 17.56L20.00 17.46Q19.87 14.82 19.53 11.51L19.48 11.46L19.55 11.53Q23.14 12.42 26.95 12.30L26.94 12.29L27.08 12.44Q30.91 12.39 34.49 11.13L34.47 11.11L33.82 12.55L33.85 12.59Q33.56 13.36 33.37 14.20L33.27 14.10L33.29 14.12Q30.19 15.17 26.31 15.17L26.34 15.20L26.36 15.22Q24.81 15.12 23.33 14.97L23.43 15.07L23.43 15.07Q23.29 15.69 22.95 20.14L22.96 20.15L22.92 20.11Q23.87 19.77 25.93 19.62L25.90 19.59L25.94 19.63Q29.68 19.87 31.12 21.54L31.15 21.57L31.04 21.46Q32.42 23.00 32.69 26.84L32.62 26.77L32.78 26.93Q32.94 31.01 31.72 33.03L31.69 32.99L31.71 33.01Q29.63 34.86 26.32 35.09L26.47 35.24L26.49 35.26Q25.42 35.26 22.76 35.41ZM28.81 37.70L28.87 37.75L28.88 37.76Q32.29 37.83 34.20 36.72L34.05 36.58L34.13 36.66Q35.05 35.06 35.05 32.96L35.06 32.98L35.16 33.08Q35.09 29.93 34.14 25.82L34.20 25.88L34.20 25.88Q33.74 24.04 32.52 22.63L32.57 22.69L32.63 22.78L32.33 22.41L31.93 22.16L31.97 22.20Q31.70 21.51 31.05 20.83L31.11 20.88L31.13 20.94L31.09 20.90Q29.58 19.24 25.89 19.24L25.78 19.13L25.55 19.17L25.61 19.23Q25.60 18.57 25.79 17.47L25.93 17.61L25.86 17.54Q30.83 17.64 34.87 16.00L34.92 16.05L34.78 15.91Q35.36 14.66 36.31 11.84L36.20 11.74L34.10 12.68L34.24 12.82Q34.52 11.57 35.01 10.43L35.02 10.44L34.94 10.36Q31.21 11.92 27.10 12.00L27.02 11.92L27.13 12.03Q22.91 12.04 18.95 10.93L18.95 10.93L18.96 10.94Q19.66 15.38 19.66 19.79L19.76 19.89L19.69 19.82Q19.72 21.75 19.61 23.66L19.60 23.65L19.64 23.69Q19.76 23.73 20.33 24.03L20.31 24.02L20.31 24.02Q20.66 23.80 21.31 23.45L21.32 23.47L21.49 23.64Q21.45 24.39 21.22 25.92L21.04 25.73L21.09 25.79Q21.47 25.94 21.89 26.17L22.02 26.30L21.98 26.26Q24.78 24.53 26.65 24.53L26.53 24.41L26.61 24.49Q27.97 24.52 29.15 25.17L29.12 25.13L29.19 25.20Q29.48 26.18 29.51 27.13L29.41 27.03L29.41 27.02Q29.66 29.79 28.64 30.90L28.51 30.77L28.47 30.73Q27.16 32.01 24.92 32.24L24.95 32.28L24.89 32.21Q24.07 32.42 23.39 32.35L23.39 32.35L23.35 32.31Q22.53 32.21 21.77 31.87L21.66 31.77L21.74 31.65L21.56 31.70L21.56 31.70Q20.67 31.11 20.13 29.78L20.22 29.87L20.17 29.81Q18.89 31.28 17.22 33.41L17.20 33.40L17.22 33.41Q17.50 34.04 18.34 34.99L18.29 34.94L18.42 35.07Q19.45 36.86 22.27 37.36L22.30 37.39L22.30 37.39Q23.34 37.48 28.71 37.59Z"/><path fill="#111" d="M138.42 24.09L138.41 24.08L138.46 24.13Q136.59 23.98 135.35 25.40L135.29 25.34L135.47 25.52Q134.09 26.81 133.90 28.71L133.95 28.76L133.94 28.74Q133.67 30.76 134.75 31.73L134.76 31.74L134.88 31.85Q135.96 32.82 138.05 32.71L137.91 32.57L138.02 32.68Q140.03 32.44 141.13 31.75L141.10 31.72L141.22 31.84Q142.25 30.63 142.25 29.07L142.26 29.07L142.41 29.23Q142.26 28.70 142.19 28.32L142.30 28.43L142.16 28.29Q142.24 26.62 141.14 25.27L141.23 25.36L141.18 25.30Q140.20 24.08 138.53 24.20ZM138.05 35.25L138.07 35.28L138.07 35.28Q133.68 35.27 132.27 34.50L132.14 34.37L132.20 34.44Q131.19 33.69 131.00 31.98L131.04 32.01L131.08 32.05Q131.06 31.39 131.10 30.67L131.03 30.60L131.09 30.65Q131.03 29.50 131.03 29.04L131.17 29.17L131.06 29.07Q131.65 26.34 131.80 25.66L131.82 25.67L131.65 25.50Q132.20 23.66 133.04 22.25L133.08 22.29L133.12 22.33Q135.64 17.81 141.58 11.46L141.72 11.59L141.58 11.45Q144.28 11.19 146.49 10.39L146.51 10.41L146.56 10.46Q139.72 17.93 136.52 22.16L136.48 22.11L136.39 22.02Q137.53 21.68 138.82 21.68L138.79 21.64L138.74 21.60Q141.99 21.53 143.51 23.47L143.49 23.45L143.67 23.63Q144.81 25.08 145.16 28.62L145.16 28.62L145.25 28.71Q145.37 29.48 145.37 30.09L145.30 30.02L145.35 30.07Q145.30 33.14 143.09 34.20L143.22 34.34L143.18 34.30Q141.81 34.75 137.93 35.13ZM140.21 37.53L140.32 37.64L140.32 37.64Q141.56 37.55 143.54 37.63L143.66 37.75L143.68 37.76Q145.23 37.75 146.79 37.03L146.76 37.00L146.70 36.94Q147.92 36.26 147.92 34.47L147.94 34.49L147.82 34.36Q147.97 34.02 147.80 33.03L147.70 32.94L147.71 32.94Q147.55 31.96 147.55 31.51L147.54 31.50L147.52 31.47Q146.60 26.71 145.00 24.81L145.07 24.87L145.10 24.91Q144.95 24.72 144.80 24.49L144.92 24.62L144.55 24.33L144.42 24.23L144.40 24.21Q144.07 23.72 143.46 22.77L143.47 22.78L143.59 22.91Q142.51 21.79 140.53 21.33L140.65 21.45L140.58 21.38Q141.91 19.89 144.87 16.19L144.89 16.21L148.94 10.74L149.06 10.86Q147.47 11.71 145.07 12.47L145.00 12.39L145.03 12.43Q145.92 11.41 147.71 9.43L147.80 9.52L147.70 9.43Q145.30 10.49 141.42 11.06L141.39 11.03L141.52 11.17Q135.71 16.97 132.74 21.92L132.81 21.98L132.88 22.05Q131.19 24.40 130.62 30.65L130.79 30.82L130.77 30.79Q130.67 31.34 130.74 32.29L130.69 32.24L130.78 32.33Q130.73 33.96 131.84 34.87L131.98 35.01L131.93 34.96Q132.22 35.02 132.18 35.06L132.33 35.21L132.17 35.05Q132.54 35.95 133.34 36.37L133.37 36.40L133.39 36.43Q134.77 37.04 136.71 37.23L136.85 37.37L136.80 37.32Q136.70 37.22 140.21 37.53ZM140.14 26.46L139.99 26.31L140.06 26.38Q140.71 26.34 141.66 26.84L141.56 26.74L141.69 26.87Q141.95 27.73 141.95 28.38L141.85 28.28L142.03 28.46Q142.04 30.14 141.08 31.13L141.13 31.18L141.20 31.25Q140.16 32.00 138.07 32.30L137.95 32.19L138.02 32.26Q136.65 32.34 136.12 32.07L136.11 32.06L135.95 31.90Q135.88 31.57 135.88 31.26L135.81 31.19L135.91 31.29Q135.70 28.04 138.64 26.74L138.50 26.60L138.61 26.72Q139.28 26.28 140.04 26.36Z"/></svg>