<svg xmlns="http://www.w3.org/2000/svg" width="200" height="40" viewBox="0,0,200,40"><path fill="#111" d="M140.86 27.06L131.61 17.05L131.72 17.16Q132.45 20.74 132.45 24.47L132.53 24.56L132.58 24.61Q132.45 30.46 130.39 36.01L130.43 36.05L130.42 36.04Q129.44 36.39 127.19 37.15L127.13 37.09L127.23 37.19Q129.95 31.31 129.95 24.61L129.99 24.65L129.91 24.56Q129.92 15.93 125.43 8.51L125.59 8.67L125.56 8.65Q125.87 8.68 126.55 9.10L126.68 9.23L126.52 9.07Q138.77 20.44 146.61 29.69L146.60 29.69L146.63 29.72Q146.17 27.12 146.17 24.69L146.15 24.66L146.22 24.73Q146.32 17.60 148.83 11.39L148.70 11.27L148.78 11.34Q151.15 10.86 152.75 10.17L152.68 10.10L152.72 10.14Q149.34 16.24 149.03 23.40L149.09 23.46L149.01 23.37Q148.84 30.85 151.81 37.02L151.68 36.89L151.74 36.96Q151.17 36.88 150.75 36.69L150.79 36.73L150.75 36.69Q146.11 32.65 140.89 27.10L140.93 27.14ZM154.38 40.16L154.36 40.15L154.36 40.15Q154.77 40.25 155.19 40.44L155.30 40.55L156.01 40.77L156.10 40.86Q150.87 33.84 150.87 24.47L150.91 24.51L150.93 24.53Q150.85 17.22 154.16 10.97L154.23 11.04L154.20 11.01Q153.67 11.36 152.26 11.97L152.14 11.85L152.20 11.91Q152.53 11.02 153.37 9.46L153.36 9.45L153.50 9.59Q150.83 10.27 148.39 10.84L148.39 10.84L148.47 10.92Q145.91 17.46 145.91 24.88L145.83 24.80L145.81 24.78Q145.91 26.74 146.10 28.72L146.11 28.73L146.05 28.67Q141.38 22.98 136.62 18.37L136.65 18.40L126.53 8.66L126.48 8.61Q125.99 8.39 124.77 7.82L124.83 7.88L124.83 7.87Q129.69 15.59 129.69 24.69L129.73 24.72L129.58 24.58Q129.63 31.75 126.55 37.76L126.60 37.82L126.65 37.87Q126.87 37.67 128.51 37.06L128.54 37.09L128.46 37.01Q128.19 37.84 127.35 39.33L127.44 39.42L127.39 39.37Q128.76 38.87 132.22 38.07L132.07 37.92L132.12 37.96Q134.50 31.90 134.50 24.71L134.46 24.66L134.50 24.71Q134.46 22.57 134.24 20.44L134.15 20.36L134.21 20.41Q145.74 33.28 154.34 40.13Z"/><path fill="#333" d="M119.07 18.26L119.08 18.27L119.20 18.39Q117.40 14.23 111.20 14.42L111.21 14.43L111.27 14.49Q106.68 14.43 104.70 15.87L104.84 16.02L104.76 15.94Q102.45 17.78 102.45 21.89L102.29 21.73L102.32 23.62L102.35 23.65Q102.45 32.59 111.48 32.59L111.32 32.43L111.49 32.60Q113.49 32.55 114.98 31.75L114.94 31.72L114.96 31.73Q116.76 30.68 116.61 28.81L116.72 28.92L116.57 28.78Q116.43 26.74 112.74 25.82L112.83 25.91L110.72 25.74L110.82 25.84Q109.93 25.90 108.98 25.94L108.89 25.86L108.81 25.78Q108.89 24.91 108.86 23.00L108.85 23.00L108.89 23.04Q116.50 23.00 120.69 22.66L120.74 22.71L120.66 22.63Q120.71 23.55 120.71 24.35L120.75 24.39L120.61 24.25Q120.70 25.14 120.73 25.94L120.63 25.83L120.65 25.86Q119.56 25.86 119.56 25.86L119.64 25.95L119.61 25.92Q118.15 25.82 118.53 25.82L118.60 25.90L118.49 25.78Q119.66 27.49 120.04 29.47L119.96 29.39L119.97 29.40Q120.19 30.23 120.19 30.68L120.15 30.64L120.19 30.68Q120.24 35.38 111.45 35.38L111.28 35.21L111.45 35.38Q104.17 35.22 101.58 33.13L101.71 33.26L101.69 33.23Q99.59 30.75 99.59 25.69L99.75 25.85L99.71 25.81Q99.66 24.70 99.51 21.99L99.55 22.03L99.47 21.96Q99.42 19.69 99.46 18.32L99.35 18.22L99.33 18.19Q99.53 15.43 100.90 13.83L100.90 13.83L100.91 13.84Q103.47 11.79 108.34 11.60L108.43 11.69L111.07 11.59L110.98 11.50Q114.12 11.44 117.55 11.86L117.48 11.80L117.48 11.80Q121.21 12.25 122.17 15.49L122.30 15.62L122.13 15.46Q121.20 16.47 119.11 18.29ZM120.39 20.37L120.69 20.56L120.67 20.55Q121.74 19.33 123.61 17.35L123.61 17.35L123.76 17.51Q123.27 16.37 122.28 14.66L122.28 14.65L122.39 14.77Q121.20 12.09 117.40 11.44L117.30 11.34L117.43 11.47Q115.23 11.29 110.93 10.99L111.06 11.12L108.37 11.25L108.28 11.16Q103.16 11.41 100.57 13.39L100.48 13.29L100.49 13.30Q99.18 15.00 99.07 18.09L99.08 18.10L98.99 18.01Q99.01 17.58 99.24 23.06L99.21 23.03L99.25 23.07Q99.34 24.49 99.42 27.23L99.46 27.27L99.31 27.12Q99.64 31.71 101.39 33.66L101.23 33.50L101.33 33.60Q101.62 34.34 102.49 35.22L102.51 35.24L102.54 35.26Q105.52 37.21 111.04 37.56L110.93 37.45L113.88 37.70L113.79 37.61Q115.55 37.88 117.57 37.77L117.49 37.69L117.47 37.67Q118.93 37.61 121.02 37.07L121.08 37.13L120.98 37.03Q122.98 36.59 122.94 34.27L122.87 34.20L122.85 34.18Q122.98 33.06 121.92 30.28L121.80 30.16L121.87 30.23Q121.58 29.33 121.05 28.53L121.12 28.60L121.03 28.52Q121.74 28.66 122.92 28.85L122.92 28.84L122.74 28.66Q122.47 25.08 122.51 24.39L122.58 24.47L122.62 24.51Q122.16 24.43 121.74 24.39L121.77 24.42L121.81 24.46Q121.48 24.47 121.10 24.55L120.94 24.39L121.10 24.55Q121.09 23.44 121.17 22.37L121.06 22.26L121.05 22.26Q114.89 22.87 108.61 22.75L108.60 22.75L108.47 22.62Q108.47 23.49 108.47 24.41L108.49 24.43L108.51 26.19L108.61 26.30Q108.93 26.24 109.35 26.20L109.33 26.18L109.29 26.14Q109.78 26.21 110.23 26.21L110.29 26.26L110.25 26.23Q110.25 26.68 110.29 27.18L110.20 27.09L110.35 27.24Q110.31 27.65 110.27 28.15L110.15 28.03L110.22 28.10Q111.22 28.04 112.25 28.00L112.34 28.08L112.41 28.15Q113.27 27.98 114.29 28.02L114.35 28.08L114.45 28.18Q115.44 28.37 116.32 28.75L116.24 28.67L116.20 28.67L116.31 28.79Q116.45 30.29 114.77 31.21L114.73 31.16L114.87 31.30Q113.13 32.15 111.42 32.15L111.44 32.17L111.40 32.13Q107.47 32.05 105.03 30.29L105.18 30.44L105.04 30.30Q104.10 28.29 104.25 25.74L104.28 25.77L104.42 25.92Q104.57 20.96 106.41 18.96L106.51 19.06L106.48 19.02Q108.23 16.94 112.92 16.63L113.01 16.72L112.96 16.68Q116.60 16.43 118.54 18.22L118.54 18.22L118.60 18.28Q118.59 18.31 118.71 18.50L118.85 18.65L118.95 18.63L118.87 18.55Q119.56 19.36 120.13 20.46L120.19 20.52L120.52 20.50Z"/><path fill="#111" d="M25.38 24.19L25.29 24.11L25.24 24.05Q23.50 24.03 22.26 25.45L22.25 25.44L22.32 25.52Q20.91 26.77 20.72 28.67L20.74 28.69L20.75 28.70Q20.53 30.76 21.61 31.73L21.65 31.77L21.71 31.83Q22.66 32.67 24.75 32.55L24.87 32.67L24.94 32.74Q26.98 32.53 28.09 31.85L28.05 31.81L27.98 31.74Q29.24 30.76 29.24 29.20L29.17 29.12L29.16 29.12Q29.26 28.83 29.18 28.45L29.17 28.44L29.13 28.40Q29.28 26.80 28.18 25.45L28.02 25.29L28.10 25.37Q26.93 23.95 25.25 24.07ZM24.96 35.31L24.90 35.25L24.87 35.22Q20.51 35.24 19.10 34.48L19.11 34.48L19.13 34.50Q18.01 33.65 17.82 31.94L17.79 31.91L17.90 32.02Q17.90 31.37 17.94 30.65L17.88 30.59L17.89 30.60Q18.00 29.61 18.00 29.15L17.93 29.08L17.90 29.05Q18.49 26.33 18.64 25.64L18.69 25.69L18.51 25.51Q18.99 23.59 19.83 22.19L19.94 22.30L19.93 22.29Q22.65 17.96 28.59 11.60L28.46 11.47L28.52 11.53Q31.22 11.26 33.43 10.47L33.31 10.35L33.32 10.36Q26.42 17.78 23.23 22.00L23.35 22.13L23.25 22.03Q24.28 21.57 25.58 21.57L25.62 21.62L25.56 21.56Q28.92 21.60 30.44 23.54L30.43 23.54L30.48 23.59Q31.80 25.21 32.14 28.75L32.08 28.68L32.13 28.74Q32.21 29.47 32.21 30.08L32.18 30.04L32.27 30.14Q32.18 33.17 29.97 34.23L29.97 34.23L29.94 34.20Q28.75 34.83 24.86 35.21ZM27.18 37.64L27.16 37.63L27.18 37.64Q28.46 37.59 30.44 37.66L30.37 37.60L30.36 37.59Q32.15 37.82 33.71 37.09L33.73 37.11L33.66 37.05Q34.69 36.17 34.69 34.38L34.64 34.33L34.72 34.41Q34.78 33.97 34.61 32.98L34.65 33.02L34.60 32.97Q34.38 31.94 34.38 31.48L34.36 31.47L34.45 31.55Q33.53 26.79 31.94 24.89L31.89 24.84L31.83 24.78Q31.80 24.72 31.65 24.49L31.62 24.45L31.36 24.28L31.33 24.28L31.41 24.36Q31.00 23.80 30.39 22.85L30.33 22.79L30.38 22.84Q29.54 21.96 27.56 21.50L27.49 21.43L27.39 21.33Q28.71 19.83 31.68 16.14L31.59 16.05L35.97 10.91L35.85 10.79Q34.30 11.68 31.90 12.44L31.93 12.47L31.83 12.37Q32.74 11.37 34.53 9.40L34.56 9.43L34.54 9.41Q32.27 10.60 28.38 11.17L28.32 11.11L28.32 11.11Q22.64 17.04 19.67 21.99L19.73 22.05L19.69 22.00Q18.08 24.43 17.51 30.67L17.64 30.81L17.60 30.77Q17.42 31.24 17.50 32.19L17.50 32.18L17.57 32.25Q17.57 33.94 18.68 34.85L18.66 34.83L18.68 34.85Q19.06 35.01 19.02 35.04L19.09 35.11L19.13 35.15Q19.42 35.98 20.22 36.40L20.33 36.50L20.19 36.36Q21.67 37.08 23.61 37.27L23.64 37.31L23.71 37.37Q23.76 37.42 27.26 37.72ZM26.93 26.39L27.00 26.46L26.95 26.41Q27.51 26.28 28.46 26.78L28.50 26.82L28.52 26.84Q28.77 27.70 28.77 28.34L28.81 28.38L28.87 28.44Q29.05 30.30 28.10 31.29L28.09 31.28L28.04 31.23Q27.00 31.98 24.90 32.28L24.91 32.29L24.92 32.30Q23.46 32.29 22.93 32.02L22.99 32.08L22.97 32.06Q22.67 31.50 22.67 31.19L22.77 31.30L22.73 31.25Q22.41 27.89 25.35 26.60L25.38 26.63L25.41 26.66Q26.16 26.31 26.92 26.38Z"/><path fill="#222" d="M162.83 27.91L162.86 27.94L162.85 27.93Q166.06 27.67 169.26 27.78L169.19 27.72L169.12 27.65Q169.06 25.08 169.06 22.68L169.07 22.69L169.05 22.67Q169.18 20.32 169.37 17.77L169.32 17.72L169.30 17.70Q168.00 19.33 162.78 27.86ZM172.72 35.25L172.71 35.24L172.87 35.39Q171.06 34.95 169.27 34.87L169.30 34.91L169.25 34.86Q169.04 32.47 168.92 30.00L168.95 30.03L169.03 30.11Q163.63 29.85 158.91 31.26L159.02 31.37L158.99 31.34Q159.02 30.75 159.21 29.76L159.22 29.78L159.21 29.76Q161.10 26.71 164.68 20.43L164.66 20.41L164.59 20.34Q167.54 15.52 170.96 11.64L171.01 11.68L170.86 11.53Q171.89 11.50 173.57 11.23L173.42 11.09L173.47 11.14Q171.64 17.64 171.64 24.69L171.65 24.69L171.54 24.59Q171.53 26.06 171.61 27.55L171.69 27.63L172.96 27.72L172.88 27.64Q173.61 27.80 174.22 27.91L174.09 27.78L174.18 27.87Q174.21 28.77 174.47 30.72L174.54 30.78L174.52 30.76Q173.31 30.51 171.83 30.32L171.81 30.30L171.93 30.42Q172.11 32.39 172.80 35.32ZM174.42 27.47L174.45 27.50L174.46 27.51Q174.36 27.52 174.17 27.52L174.14 27.49L173.68 27.42L173.65 27.38Q173.66 26.02 173.66 24.62L173.63 24.58L173.63 24.58Q173.50 18.06 175.56 12.04L175.65 12.14L175.54 12.03Q174.81 12.32 173.36 12.70L173.35 12.69L173.39 12.73Q173.72 12.07 174.17 10.66L174.16 10.65L174.17 10.66Q172.77 10.93 170.72 11.16L170.73 11.18L170.70 11.14Q166.76 15.47 161.55 24.84L161.65 24.94L163.63 21.17L163.74 21.28Q163.28 22.26 163.01 22.83L162.96 22.78L158.48 31.78L158.50 31.79Q159.32 31.82 160.46 31.44L160.33 31.30L160.26 31.62L160.24 31.60Q160.02 32.18 159.71 33.43L159.76 33.48L159.71 33.43Q163.82 32.09 168.65 32.28L168.75 32.38L168.84 32.47Q168.68 33.23 168.87 35.20L168.94 35.27L168.96 35.30Q170.05 35.32 171.12 35.43L171.05 35.36L171.09 35.40Q171.29 36.14 171.56 37.51L171.60 37.55L171.50 37.45Q173.52 37.80 176.53 38.71L176.36 38.54L176.44 38.62Q175.53 36.57 174.62 33.30L174.62 33.30L175.95 33.64L175.98 33.67Q176.69 33.92 177.37 34.27L177.30 34.19L177.42 34.31Q176.49 31.66 176.33 29.99L176.47 30.12L176.35 30.00Q175.88 29.96 174.74 29.73L174.76 29.75L174.75 29.74Q174.40 28.32 174.40 27.45ZM166.39 27.27L166.38 27.27L166.43 27.31Q167.29 26.12 168.85 23.57L168.87 23.59L168.76 23.48Q168.79 24.47 168.76 25.42L168.70 25.36L168.69 25.36Q168.69 26.34 168.73 27.29L168.87 27.43L168.86 27.43Q168.11 27.21 167.54 27.21L167.61 27.28L167.60 27.27Q167.03 27.31 166.42 27.31Z"/><path fill="#111" d="M83.61 35.17L83.50 35.05L81.56 35.39L81.48 35.32Q81.06 35.35 80.09 35.41L80.09 35.41L80.12 35.43Q79.15 35.49 78.65 35.49L78.63 35.47L78.60 35.44Q77.00 35.48 75.97 34.64L75.96 34.63L76.00 34.67Q76.69 33.45 78.32 31.32L78.35 31.34L78.33 31.33Q79.68 32.98 81.89 32.75L81.86 32.72L81.72 32.59Q82.71 32.55 83.36 31.91L83.31 31.85L83.31 31.85Q84.10 31.35 83.99 30.48L83.82 30.30L83.99 30.47Q83.77 25.77 83.85 21.20L83.95 21.30L83.78 21.13Q83.95 16.66 84.48 12.05L84.39 11.96L84.52 12.08Q86.32 11.75 88.45 10.73L88.49 10.77L88.56 10.83Q86.65 17.53 86.65 24.77L86.66 24.78L86.56 24.68Q86.62 28.27 87.08 31.77L87.19 31.88L87.16 31.86Q87.12 32.09 87.12 32.43L87.17 32.48L87.24 32.55Q87.27 33.15 87.04 33.68L87.05 33.69L86.95 33.59Q86.37 34.83 83.55 35.10ZM88.42 37.87L88.43 37.88L88.92 38.04L89.04 37.74L89.32 37.63L89.45 37.77Q89.62 37.37 89.70 37.25L89.86 37.41L89.83 37.38Q90.01 36.19 89.74 35.20L89.60 35.06L89.61 35.07Q88.43 29.43 88.69 23.07L88.67 23.05L88.60 22.98Q88.93 16.95 90.71 11.05L90.66 10.99L90.60 10.94Q89.72 11.58 88.47 12.30L88.54 12.38L88.58 12.42Q88.77 11.66 89.19 10.13L89.19 10.13L89.05 9.99Q86.53 11.32 83.87 11.63L84.03 11.78L83.87 11.63Q83.67 16.18 83.59 21.13L83.61 21.15L83.54 21.08Q83.40 26.92 83.47 30.34L83.55 30.41L83.58 30.45Q83.53 32.11 81.78 32.26L81.72 32.21L81.85 32.33Q80.04 32.35 78.36 30.71L78.47 30.82L78.38 30.73Q76.28 33.20 75.33 34.76L75.36 34.79L75.35 34.78Q75.99 35.42 77.02 35.65L77.15 35.79L77.02 35.65Q76.98 35.84 76.71 36.07L76.83 36.19L76.76 36.12Q78.27 37.13 80.25 37.40L80.10 37.25L80.23 37.37Q80.50 37.30 83.79 37.61L83.84 37.66L83.87 37.68Q87.12 37.95 88.49 37.95Z"/><path fill="#333" d="M49.66 27.88L49.64 27.86L49.67 27.89Q52.87 27.62 56.07 27.74L56.12 27.79L55.92 27.59Q56.06 25.22 56.06 22.82L55.99 22.75L55.89 22.65Q55.92 20.20 56.11 17.65L56.17 17.71L56.18 17.72Q54.95 19.42 49.73 27.95ZM59.62 35.29L59.71 35.38L59.54 35.21Q57.99 35.03 56.20 34.95L56.21 34.97L56.21 34.96Q56.04 32.62 55.93 30.15L55.89 30.11L55.84 30.06Q50.51 29.87 45.79 31.28L45.81 31.30L45.85 31.34Q45.91 30.79 46.10 29.80L46.22 29.92L46.14 29.84Q47.88 26.63 51.45 20.35L51.52 20.41L51.46 20.35Q54.35 15.47 57.77 11.59L57.90 11.72L57.84 11.65Q58.68 11.43 60.35 11.16L60.39 11.19L60.27 11.08Q58.46 17.61 58.46 24.65L58.41 24.60L58.51 24.70Q58.50 26.17 58.57 27.65L58.54 27.62L59.83 27.74L59.76 27.66Q60.48 27.81 61.09 27.93L61.01 27.85L61.08 27.92Q61.24 28.95 61.50 30.89L61.38 30.77L61.50 30.89Q60.19 30.52 58.70 30.33L58.69 30.32L58.75 30.39Q58.92 32.34 59.61 35.28ZM61.40 27.59L61.31 27.50L61.30 27.49Q61.19 27.50 61.00 27.50L61.00 27.49L60.53 27.41L60.47 27.35Q60.41 25.91 60.41 24.50L60.52 24.62L60.53 24.62Q60.53 18.22 62.58 12.21L62.44 12.07L62.51 12.14Q61.76 12.42 60.31 12.80L60.26 12.74L60.35 12.84Q60.59 12.09 61.05 10.68L61.04 10.67L60.97 10.60Q59.68 10.98 57.62 11.21L57.63 11.21L57.70 11.29Q53.76 15.61 48.54 24.97L48.43 24.86L50.54 21.22L50.57 21.25Q50.16 22.29 49.89 22.86L49.96 22.92L45.53 31.97L45.36 31.80Q46.07 31.71 47.21 31.33L47.28 31.40L47.12 31.62L46.99 31.49Q46.99 32.29 46.69 33.55L46.67 33.53L46.64 33.50Q50.71 32.12 55.54 32.31L55.52 32.29L55.63 32.40Q55.59 33.28 55.78 35.26L55.73 35.21L55.87 35.34Q56.84 35.25 57.91 35.37L57.97 35.43L58.05 35.51Q58.10 36.09 58.36 37.46L58.40 37.49L58.48 37.57Q60.31 37.72 63.31 38.64L63.38 38.71L63.24 38.56Q62.28 36.46 61.37 33.19L61.38 33.20L62.91 33.74L62.87 33.70Q63.56 33.94 64.25 34.28L64.18 34.21L64.25 34.28Q63.49 31.81 63.34 30.14L63.23 30.02L63.22 30.02Q62.63 29.85 61.49 29.62L61.56 29.69L61.57 29.70Q61.25 28.32 61.25 27.44ZM53.41 27.44L53.36 27.39L53.36 27.40Q54.04 26.01 55.60 23.46L55.72 23.59L55.72 23.58Q55.55 24.36 55.51 25.32L55.57 25.37L55.65 25.46Q55.55 26.35 55.59 27.30L55.70 27.41L55.61 27.32Q55.03 27.27 54.46 27.27L54.47 27.28L54.59 27.40Q53.93 27.36 53.32 27.36Z"/><path d="M6 8 C101 3,109 29,182 2" stroke="#111" fill="none"/><path d="M10 16 C107 5,101 35,186 23" stroke="#888" fill="none"/></svg>