<svg xmlns="http://www.w3.org/2000/svg" width="200" height="40" viewBox="0,0,200,40"><path d="M17 31 C113 37,118 4,195 25" stroke="#777" fill="none"/><path fill="#333" d="M85.05 34.80L85.16 34.91L83.23 34.91L83.14 34.82Q82.19 34.82 81.24 34.94L81.23 34.93L81.24 34.94Q81.87 28.80 81.87 24.80L81.76 24.69L81.81 24.74Q77.82 18.04 70.17 9.36L70.30 9.50L70.29 9.49Q72.08 10.48 75.43 11.28L75.37 11.22L75.30 11.15Q80.51 16.89 83.51 22.10L83.50 22.09L83.48 22.06Q86.49 16.52 90.87 11.49L90.80 11.42L90.90 11.52Q93.28 11.08 95.79 10.28L95.82 10.31L95.70 10.19Q89.58 16.22 84.71 24.63L84.77 24.69L84.89 24.81Q84.75 31.71 85.05 34.80ZM94.29 12.36L96.93 9.44L96.85 9.36Q93.88 10.65 90.76 11.11L90.64 10.99L90.63 10.98Q86.49 15.79 83.68 20.90L83.59 20.81L83.74 20.95Q81.47 17.16 78.27 13.28L78.36 13.37L78.29 13.30Q78.13 13.41 77.64 13.33L77.56 13.25L77.51 13.20Q76.83 12.41 75.30 10.73L75.30 10.73L75.31 10.74Q71.95 10.01 68.99 8.45L68.91 8.37L69.07 8.54Q76.67 16.90 81.43 24.82L81.51 24.89L81.41 24.79Q81.35 31.17 80.74 35.32L80.70 35.28L80.67 35.25Q81.56 35.38 83.01 35.26L83.01 35.27L82.98 36.26L83.03 36.31Q82.99 36.73 82.92 37.27L82.92 37.27L82.84 37.18Q86.34 37.15 88.09 37.34L88.10 37.35L88.16 37.40Q86.86 32.68 86.74 26.70L86.86 26.82L86.81 26.77Q91.18 18.31 97.73 10.96L97.68 10.92L94.26 12.33Z"/><path fill="#222" d="M177.42 18.03L177.49 18.11L177.40 18.02Q175.58 20.73 172.92 26.36L172.98 26.42L171.06 30.75L170.88 30.57Q170.06 32.53 168.73 34.78L168.79 34.83L168.79 34.83Q169.17 34.76 167.50 34.80L167.47 34.77L167.47 34.78Q167.57 34.87 166.31 34.87L166.24 34.80L166.37 34.93Q165.48 33.28 162.55 26.12L162.56 26.13L162.55 26.12Q160.45 20.82 158.35 17.81L158.28 17.74L158.46 17.92Q159.22 21.01 159.22 24.17L159.04 23.99L159.20 24.14Q159.12 30.57 156.15 36.13L156.16 36.14L156.10 36.08Q154.87 36.53 152.51 37.25L152.40 37.14L152.40 37.14Q156.08 31.45 156.08 24.22L156.17 24.31L156.17 24.31Q156.07 15.26 150.66 8.29L150.73 8.36L150.69 8.32Q152.31 9.03 154.67 9.72L154.82 9.87L154.77 9.82Q161.82 16.56 167.91 29.88L167.93 29.90L167.87 29.84Q171.44 22.90 173.65 19.40L173.58 19.33L173.63 19.39Q177.19 13.59 181.15 10.12L181.20 10.17L181.13 10.10Q182.41 9.89 184.77 9.13L184.84 9.20L184.76 9.13Q179.72 15.69 179.72 24.30L179.72 24.30L179.78 24.35Q179.84 31.07 183.26 36.59L183.14 36.48L183.23 36.56Q181.92 36.28 179.18 35.67L179.11 35.60L179.02 35.51Q176.81 30.86 176.81 24.88L176.70 24.78L176.67 24.75Q176.72 21.37 177.41 18.02ZM178.86 35.93L179.02 36.09L179.01 36.07Q179.52 36.01 180.97 36.28L181.01 36.32L181.00 36.31Q181.48 37.09 182.43 38.58L182.44 38.59L182.42 38.57Q184.57 39.01 188.04 40.23L188.01 40.20L188.02 40.21Q181.85 33.96 181.85 24.14L181.82 24.11L181.71 24.01Q181.83 16.40 186.21 10.27L186.23 10.29L183.95 10.90L183.92 10.87Q184.89 9.28 185.53 8.41L185.65 8.53L185.53 8.41Q183.78 9.17 181.16 9.71L181.09 9.64L181.13 9.68Q174.28 15.69 168.22 28.29L168.31 28.38L168.22 28.29Q163.13 17.41 158.18 12.16L158.22 12.20L158.19 12.16Q157.80 12.09 157.23 11.97L157.30 12.04L156.08 10.75L156.08 10.74Q155.35 9.94 154.66 9.33L154.71 9.37L154.73 9.39Q151.80 8.51 150.01 7.79L149.83 7.61L150.00 7.78Q155.97 14.97 155.97 24.37L155.80 24.21L155.99 24.40Q155.85 31.87 151.70 37.74L151.69 37.72L151.77 37.80Q152.48 37.60 153.77 37.18L153.69 37.09L153.78 37.19Q153.57 37.36 152.16 39.45L152.24 39.53L152.20 39.49Q154.07 39.07 157.57 38.31L157.57 38.31L157.50 38.24Q161.31 31.27 161.12 23.51L160.97 23.36L161.04 23.43Q162.50 27.36 165.96 35.24L165.95 35.23L166.09 35.37Q166.19 35.17 166.42 35.17L166.57 35.32L166.96 35.18L166.96 35.18Q167.49 35.93 168.28 37.22L168.31 37.25L168.24 37.17Q169.89 37.19 169.89 37.19L169.83 37.13L169.86 37.16Q170.96 37.24 171.61 37.32L171.53 37.24L171.60 37.31Q173.01 33.12 176.36 25.12L176.49 25.26L176.51 25.27Q176.24 30.56 178.83 35.89Z"/><path fill="#333" d="M114.09 22.21L114.05 22.17L113.96 22.07Q114.92 22.24 116.33 22.08L116.26 22.01L116.24 22.00Q116.18 22.62 116.18 23.26L116.31 23.39L116.26 24.60L116.14 24.49Q115.45 24.63 114.61 24.70L114.47 24.57L114.54 24.64Q113.80 24.77 112.96 24.73L112.83 24.60L112.89 24.65Q109.97 30.76 106.54 35.36L106.65 35.47L106.51 35.33Q104.09 36.07 102.80 36.68L102.69 36.58L102.86 36.74Q106.96 31.02 110.00 24.74L110.04 24.78L107.24 24.61L107.39 24.76Q107.29 23.32 107.17 21.99L107.21 22.02L107.14 21.96Q109.14 22.20 111.20 22.20L111.12 22.13L113.12 18.53L113.04 18.45Q114.09 16.61 115.31 15.01L115.31 15.01L115.31 15.01Q113.67 15.08 112.07 15.08L112.07 15.09L112.10 15.11Q106.03 15.13 102.26 12.92L102.20 12.87L101.60 11.19L101.65 11.25Q101.36 10.46 100.98 9.59L100.84 9.45L100.97 9.58Q105.18 12.08 110.89 12.30L110.99 12.41L110.93 12.34Q115.98 12.48 121.12 10.50L121.22 10.60L121.23 10.61Q121.03 11.03 120.54 11.90L120.60 11.97L120.45 11.81Q116.94 16.68 114.08 22.20ZM122.15 13.28L122.03 13.16L123.08 11.21L123.21 11.34Q122.08 11.65 120.41 12.38L120.40 12.38L120.60 12.08L120.59 12.06Q120.89 12.10 121.00 11.99L120.87 11.85L120.83 11.82Q121.26 11.18 121.99 9.85L122.02 9.88L122.06 9.92Q116.72 12.20 110.97 11.97L110.92 11.91L110.86 11.86Q104.97 11.71 100.21 8.74L100.16 8.69L100.16 8.69Q101.27 10.64 102.10 13.30L101.93 13.13L102.11 13.31Q103.03 13.77 103.83 14.08L103.96 14.20L103.90 14.14Q104.17 14.61 104.63 16.47L104.54 16.39L104.50 16.34Q107.78 17.72 113.30 17.56L113.29 17.56L113.30 17.57Q112.90 18.05 110.92 21.82L110.96 21.85L111.03 21.92Q108.83 21.78 106.85 21.59L106.92 21.66L106.81 21.55Q106.89 22.39 106.89 23.27L107.03 23.41L107.05 25.13L108.73 25.15L108.56 26.39L108.57 26.39Q104.82 33.95 102.05 37.53L102.04 37.52L101.95 37.44Q103.45 36.58 105.09 36.08L105.27 36.27L105.29 36.28Q104.51 37.11 103.14 38.82L103.15 38.82L103.12 38.80Q106.25 37.67 108.69 37.44L108.71 37.45L108.74 37.49Q111.71 33.75 114.83 26.98L114.70 26.85L118.28 27.19L118.11 27.02Q118.21 26.29 118.21 25.37L118.17 25.33L118.07 23.45L118.19 23.56Q117.76 23.40 117.21 23.44L117.33 23.56L117.25 23.48Q116.82 23.64 116.56 23.64L116.45 23.53L116.56 23.64Q116.55 23.52 116.59 23.37L116.54 23.32L116.57 23.08L116.55 23.07Q119.05 17.92 122.14 13.27Z"/><path fill="#111" d="M138.51 24.18L138.35 24.02L138.41 24.08Q136.65 24.03 135.41 25.46L135.38 25.43L135.46 25.51Q134.23 26.94 134.04 28.85L133.95 28.76L133.98 28.78Q133.73 30.82 134.82 31.80L134.86 31.84L134.82 31.80Q135.94 32.81 138.04 32.69L137.97 32.63L138.04 32.69Q140.03 32.44 141.13 31.75L141.16 31.78L141.27 31.89Q142.36 30.73 142.36 29.17L142.36 29.17L142.41 29.22Q142.36 28.79 142.28 28.41L142.22 28.35L142.23 28.35Q142.39 26.77 141.29 25.42L141.19 25.32L141.32 25.45Q140.16 24.04 138.49 24.16ZM137.96 35.17L137.99 35.20L137.96 35.17Q133.56 35.15 132.16 34.39L132.14 34.37L132.20 34.43Q131.16 33.65 130.97 31.94L131.00 31.97L131.07 32.04Q130.90 31.23 130.94 30.51L130.99 30.56L131.07 30.64Q131.12 29.59 131.12 29.13L131.08 29.08L131.05 29.06Q131.51 26.20 131.66 25.52L131.81 25.67L131.65 25.50Q132.21 23.66 133.04 22.25L133.09 22.30L132.98 22.20Q135.70 17.87 141.64 11.51L141.60 11.48L141.70 11.57Q144.37 11.28 146.58 10.48L146.51 10.40L146.50 10.40Q139.75 17.96 136.55 22.18L136.51 22.15L136.41 22.04Q137.47 21.62 138.77 21.62L138.73 21.59L138.74 21.60Q142.10 21.65 143.63 23.59L143.63 23.59L143.57 23.53Q144.96 25.23 145.31 28.77L145.32 28.78L145.33 28.79Q145.43 29.54 145.43 30.15L145.25 29.97L145.43 30.15Q145.24 33.08 143.03 34.14L143.19 34.30L143.05 34.16Q141.93 34.87 138.04 35.25ZM140.40 37.72L140.21 37.53L140.23 37.55Q141.62 37.61 143.60 37.68L143.64 37.73L143.64 37.73Q145.22 37.75 146.78 37.02L146.76 37.00L146.82 37.06Q147.88 36.22 147.88 34.43L147.84 34.39L147.92 34.46Q147.92 33.97 147.75 32.98L147.62 32.86L147.78 33.01Q147.56 31.98 147.56 31.52L147.49 31.45L147.48 31.44Q146.75 26.86 145.15 24.96L145.12 24.93L145.05 24.86Q144.93 24.70 144.77 24.47L144.87 24.56L144.45 24.22L144.46 24.26L144.50 24.31Q144.10 23.76 143.49 22.81L143.58 22.90L143.60 22.91Q142.54 21.81 140.56 21.36L140.62 21.42L140.56 21.36Q141.86 19.84 144.82 16.14L144.78 16.10L149.12 10.92L149.01 10.82Q147.46 11.70 145.06 12.46L145.04 12.44L145.00 12.40Q146.05 11.54 147.84 9.56L147.85 9.58L147.79 9.52Q145.35 10.54 141.47 11.11L141.55 11.19L141.58 11.22Q135.80 17.06 132.83 22.00L132.73 21.90L132.85 22.02Q131.20 24.41 130.63 30.65L130.67 30.69L130.81 30.83Q130.54 31.21 130.61 32.16L130.62 32.17L130.76 32.30Q130.76 33.98 131.86 34.89L131.94 34.98L131.80 34.83Q132.24 35.04 132.20 35.08L132.18 35.06L132.23 35.11Q132.52 35.93 133.32 36.35L133.44 36.47L133.35 36.38Q134.80 37.07 136.74 37.26L136.80 37.31L136.88 37.39Q136.76 37.28 140.26 37.58ZM140.07 26.39L140.04 26.36L140.00 26.32Q140.55 26.19 141.50 26.68L141.57 26.75L141.50 26.68Q142.02 27.81 142.02 28.45L141.91 28.34L142.04 28.47Q142.16 30.27 141.21 31.26L141.19 31.24L141.23 31.28Q140.07 31.91 137.97 32.21L138.09 32.33L138.01 32.25Q136.51 32.19 135.98 31.93L136.12 32.07L136.08 32.03Q135.90 31.58 135.90 31.28L135.79 31.17L135.95 31.33Q135.63 27.96 138.56 26.67L138.56 26.67L138.65 26.76Q139.38 26.39 140.15 26.46Z"/><path fill="#111" d="M53.64 24.17L53.53 24.06L53.68 24.21Q51.79 24.03 50.55 25.46L50.43 25.33L50.61 25.51Q49.21 26.78 49.02 28.68L49.00 28.67L49.00 28.66Q48.91 30.86 50.00 31.83L49.85 31.68L49.90 31.74Q51.11 32.83 53.20 32.71L53.15 32.66L53.05 32.56Q55.12 32.39 56.23 31.71L56.39 31.87L56.37 31.85Q57.37 30.60 57.37 29.04L57.39 29.06L57.41 29.08Q57.52 28.81 57.45 28.43L57.49 28.47L57.35 28.34Q57.44 26.67 56.34 25.32L56.27 25.26L56.34 25.32Q55.30 24.04 53.62 24.15ZM53.06 35.13L53.10 35.16L53.20 35.26Q48.75 35.19 47.34 34.43L47.44 34.53L47.38 34.47Q46.31 33.66 46.12 31.95L46.15 31.99L46.13 31.96Q46.22 31.40 46.26 30.68L46.10 30.52L46.20 30.62Q46.23 29.55 46.23 29.09L46.21 29.08L46.22 29.08Q46.68 26.23 46.83 25.55L46.87 25.59L46.79 25.50Q47.35 23.66 48.19 22.25L48.13 22.20L48.24 22.31Q50.86 17.89 56.80 11.53L56.72 11.45L56.73 11.46Q59.37 11.13 61.58 10.34L61.67 10.43L61.57 10.32Q54.74 17.81 51.54 22.04L51.58 22.07L51.63 22.12Q52.54 21.55 53.84 21.55L53.98 21.69L53.79 21.50Q57.21 21.61 58.73 23.55L58.76 23.58L58.76 23.57Q60.14 25.26 60.48 28.80L60.39 28.71L60.36 28.68Q60.39 29.36 60.39 29.97L60.46 30.03L60.51 30.09Q60.54 33.23 58.33 34.30L58.17 34.14L58.31 34.28Q57.06 34.86 53.18 35.24ZM55.41 37.59L55.40 37.58L55.52 37.70Q56.84 37.68 58.82 37.76L58.73 37.67L58.78 37.72Q60.27 37.65 61.83 36.93L62.01 37.11L61.88 36.98Q63.09 36.28 63.09 34.49L62.97 34.37L63.05 34.45Q62.96 33.87 62.79 32.88L62.88 32.97L62.85 32.94Q62.78 32.05 62.78 31.59L62.59 31.41L62.61 31.42Q61.90 26.87 60.30 24.96L60.16 24.82L60.25 24.92Q60.23 24.86 60.08 24.63L59.93 24.48L59.70 24.32L59.51 24.18L59.53 24.20Q59.33 23.84 58.72 22.89L58.66 22.83L58.59 22.76Q57.72 21.85 55.74 21.39L55.66 21.31L55.83 21.48Q57.07 19.91 60.04 16.21L59.94 16.12L64.23 10.89L64.12 10.78Q62.61 11.70 60.21 12.47L60.11 12.37L60.21 12.47Q61.15 11.50 62.94 9.52L62.84 9.43L62.91 9.50Q60.53 10.58 56.65 11.15L56.61 11.11L56.69 11.19Q50.99 17.10 48.02 22.05L47.98 22.01L47.95 21.99Q46.46 24.53 45.89 30.77L45.79 30.67L45.77 30.65Q45.78 31.31 45.86 32.26L45.78 32.18L45.92 32.32Q45.92 34.00 47.02 34.91L47.08 34.97L47.07 34.96Q47.51 35.17 47.47 35.21L47.47 35.21L47.43 35.16Q47.79 36.06 48.59 36.48L48.64 36.53L48.64 36.53Q49.94 37.07 51.88 37.26L51.99 37.36L51.95 37.32Q52.02 37.40 55.52 37.70ZM55.28 26.45L55.21 26.39L55.13 26.31Q55.75 26.24 56.70 26.73L56.75 26.78L56.84 26.88Q57.05 27.69 57.05 28.34L57.10 28.39L57.17 28.46Q57.29 30.25 56.33 31.24L56.25 31.15L56.40 31.30Q55.28 31.98 53.19 32.28L53.21 32.30L53.10 32.19Q51.80 32.34 51.27 32.08L51.13 31.94L51.14 31.95Q50.99 31.53 50.99 31.22L50.91 31.14L50.92 31.15Q50.83 28.02 53.76 26.72L53.69 26.65L53.77 26.73Q54.36 26.22 55.12 26.30Z"/><path d="M3 32 C109 9,86 21,197 27" stroke="#555" fill="none"/><path fill="#222" d="M25.31 24.13L25.39 24.20L25.31 24.12Q23.41 23.94 22.18 25.37L22.21 25.40L22.21 25.40Q20.97 26.83 20.78 28.73L20.71 28.66L20.77 28.72Q20.54 30.77 21.62 31.75L21.72 31.84L21.64 31.76Q22.76 32.77 24.86 32.65L24.83 32.63L24.83 32.63Q27.03 32.58 28.13 31.90L28.04 31.80L27.98 31.74Q29.26 30.77 29.26 29.21L29.18 29.14L29.26 29.22Q29.08 28.66 29.01 28.28L29.01 28.28L29.03 28.30Q29.11 26.63 28.01 25.28L28.09 25.36L28.08 25.36Q26.94 23.97 25.27 24.08ZM24.95 35.30L24.96 35.30L24.95 35.30Q20.47 35.19 19.06 34.43L19.10 34.47L19.15 34.52Q18.08 33.72 17.89 32.01L17.92 32.04L17.89 32.01Q17.89 31.36 17.92 30.63L17.84 30.55L17.89 30.60Q17.94 29.54 17.94 29.08L17.94 29.09L18.01 29.16Q18.46 26.30 18.61 25.61L18.52 25.52L18.65 25.65Q19.15 23.75 19.98 22.34L19.87 22.22L19.94 22.30Q22.57 17.88 28.50 11.52L28.43 11.44L28.42 11.43Q31.20 11.24 33.40 10.44L33.44 10.48L33.29 10.33Q26.57 17.92 23.37 22.15L23.42 22.19L23.33 22.10Q24.23 21.52 25.52 21.52L25.60 21.60L25.55 21.54Q28.85 21.54 30.38 23.48L30.51 23.61L30.52 23.63Q31.68 25.09 32.03 28.63L32.08 28.68L32.11 28.72Q32.14 29.40 32.14 30.01L32.15 30.01L32.14 30.00Q32.21 33.20 30.01 34.26L29.91 34.17L29.95 34.20Q28.68 34.76 24.79 35.14ZM27.23 37.70L27.24 37.70L27.21 37.67Q28.49 37.63 30.47 37.70L30.36 37.58L30.41 37.64Q32.04 37.70 33.60 36.98L33.71 37.09L33.73 37.11Q34.79 36.27 34.79 34.48L34.70 34.39L34.79 34.48Q34.67 33.87 34.50 32.88L34.52 32.89L34.66 33.04Q34.46 32.02 34.46 31.57L34.39 31.49L34.45 31.55Q33.61 26.87 32.01 24.97L31.89 24.84L31.98 24.94Q31.86 24.77 31.70 24.54L31.76 24.60L31.44 24.36L31.21 24.17L31.25 24.20Q31.02 23.82 30.41 22.87L30.40 22.86L30.45 22.90Q29.45 21.87 27.47 21.41L27.49 21.43L27.37 21.31Q28.73 19.86 31.70 16.16L31.59 16.05L35.92 10.86L35.91 10.86Q34.35 11.73 31.95 12.49L32.00 12.54L32.01 12.55Q32.74 11.37 34.52 9.39L34.64 9.51L34.66 9.53Q32.14 10.47 28.26 11.04L28.40 11.19L28.39 11.18Q22.72 17.12 19.75 22.06L19.64 21.96L19.68 22.00Q18.15 24.50 17.58 30.75L17.66 30.83L17.60 30.77Q17.57 31.39 17.65 32.34L17.61 32.30L17.48 32.17Q17.55 33.91 18.65 34.82L18.71 34.88L18.78 34.96Q19.08 35.02 19.04 35.06L19.07 35.09L19.05 35.08Q19.56 36.11 20.36 36.53L20.32 36.50L20.36 36.53Q21.77 37.18 23.71 37.37L23.70 37.36L23.61 37.28Q23.73 37.39 27.23 37.69ZM26.92 26.38L26.91 26.37L27.03 26.49Q27.44 26.21 28.39 26.71L28.51 26.83L28.48 26.79Q28.80 27.73 28.80 28.38L28.83 28.40L28.73 28.31Q29.07 30.32 28.12 31.31L27.96 31.15L28.04 31.24Q26.87 31.86 24.78 32.16L24.88 32.26L24.94 32.32Q23.48 32.31 22.95 32.04L22.97 32.06L22.84 31.93Q22.80 31.63 22.80 31.32L22.64 31.16L22.78 31.30Q22.57 28.04 25.50 26.75L25.33 26.58L25.44 26.69Q26.21 26.35 26.97 26.43Z"/></svg>