<svg xmlns="http://www.w3.org/2000/svg" width="200" height="40" viewBox="0,0,200,40"><path d="M11 33 C118 32,117 32,184 38" stroke="#777" fill="none"/><path fill="#333" d="M53.64 24.17L53.64 24.17L53.62 24.15Q51.75 24.14 50.53 25.47L50.55 25.49L50.66 25.61Q49.39 26.88 49.24 28.79L49.20 28.75L49.11 28.66Q49.05 30.93 50.27 31.94L50.21 31.87L50.14 31.80Q51.54 33.00 53.67 32.92L53.59 32.84L53.66 32.91Q55.86 32.63 56.81 31.68L56.81 31.68L56.95 31.82Q57.79 30.18 57.68 28.36L57.82 28.50L57.72 28.40Q57.56 26.49 56.47 25.29L56.57 25.38L56.51 25.33Q55.55 24.25 53.72 24.25ZM53.68 14.81L53.63 14.75L53.72 14.84Q52.28 14.70 50.95 15.19L50.80 15.04L50.85 15.10Q49.49 15.83 49.71 17.69L49.78 17.76L49.77 17.75Q50.31 21.52 53.66 21.52L53.70 21.57L53.59 21.45Q55.20 21.70 56.19 20.56L56.27 20.64L56.28 20.64Q57.26 19.49 57.30 17.93L57.32 17.95L57.33 17.96Q57.38 16.19 56.66 15.58L56.58 15.49L56.55 15.47Q54.93 14.69 53.64 14.76ZM53.41 35.36L53.45 35.40L50.26 35.26L50.37 35.36Q48.69 35.21 47.36 34.33L47.41 34.38L47.40 34.38Q46.14 33.34 46.29 30.48L46.20 30.40L46.33 30.52Q46.67 23.55 50.28 22.56L50.28 22.56L50.35 22.63Q48.03 21.68 46.69 16.31L46.65 16.26L46.66 16.27Q46.28 14.83 46.36 14.03L46.36 14.03L46.48 14.15Q46.77 12.00 50.46 11.97L50.48 11.99L50.41 11.91Q54.63 11.83 56.08 12.02L56.15 12.10L56.02 11.97Q60.03 12.67 60.49 14.69L60.45 14.64L60.39 14.59Q60.51 15.20 60.51 15.58L60.57 15.65L60.47 15.55Q60.49 16.24 60.30 16.85L60.37 16.93L60.26 16.82Q59.75 21.14 56.82 22.67L56.71 22.56L56.83 22.68Q60.34 23.49 60.84 28.78L60.70 28.64L60.69 28.63Q60.88 28.97 60.91 30.26L60.76 30.10L60.90 30.25Q60.96 32.98 59.36 34.04L59.21 33.88L59.31 33.98Q57.84 34.77 53.27 35.22ZM55.55 37.53L55.56 37.55L58.90 37.61L58.92 37.63Q60.60 37.68 62.13 36.96L62.14 36.97L62.27 37.10Q63.42 36.39 63.50 34.52L63.54 34.56L63.39 34.41Q63.39 33.27 63.00 31.32L63.11 31.43L63.15 31.47Q62.23 26.82 60.14 24.95L60.10 24.92L59.94 24.56L59.79 24.34L59.61 24.05L59.60 24.03Q61.28 22.71 62.20 18.56L62.04 18.41L62.18 18.54Q62.21 18.19 62.28 17.35L62.15 17.22L62.20 17.27Q62.34 16.65 62.26 16.04L62.21 15.99L62.21 15.99Q62.03 14.52 60.85 14.02L60.77 13.94L60.82 13.95L60.74 13.95L60.71 13.91Q60.39 13.14 59.21 12.34L59.24 12.37L59.36 12.45L59.31 12.41Q57.29 11.68 53.22 11.49L53.18 11.45L53.16 11.43Q51.67 11.39 50.30 11.50L50.37 11.57L50.41 11.61Q49.46 11.50 48.17 11.65L48.19 11.68L48.15 11.63Q46.28 12.09 46.05 13.72L46.09 13.76L46.13 13.81Q46.00 14.21 46.04 15.01L46.12 15.09L46.03 14.99Q46.18 15.57 46.75 17.93L46.64 17.81L46.73 17.90Q47.53 21.14 49.28 22.47L49.34 22.53L49.35 22.54L49.45 22.64Q46.53 23.79 45.99 28.97L45.95 28.93L46.07 29.04Q45.85 31.23 45.85 32.14L45.83 32.12L45.91 32.20Q45.95 33.95 47.13 34.87L47.07 34.80L47.06 34.80Q47.16 34.86 47.42 35.05L47.41 35.03L47.44 35.06Q48.51 37.39 55.63 37.62ZM55.37 26.62L55.29 26.54L55.39 26.65Q56.26 26.52 57.13 26.98L57.09 26.93L57.04 26.88Q57.50 27.96 57.47 28.49L57.50 28.53L57.45 28.48Q57.38 28.67 57.38 28.97L57.48 29.08L57.41 29.00Q57.39 31.34 55.10 32.18L55.24 32.32L55.27 32.35Q54.30 32.49 53.51 32.37L53.58 32.44L53.63 32.50Q52.56 32.65 51.42 32.19L51.40 32.16L51.39 32.16Q51.15 31.54 51.23 30.55L51.13 30.45L51.05 30.37Q51.37 28.94 52.57 27.72L52.43 27.58L52.48 27.63Q53.77 26.50 55.37 26.62ZM55.62 17.16L55.57 17.12L55.51 17.05Q56.23 16.86 56.76 17.01L56.94 17.19L56.78 17.83L56.94 17.98Q56.95 19.41 56.04 20.42L55.95 20.33L55.98 20.36Q54.96 21.26 53.59 21.07L53.69 21.18L53.59 21.07Q52.69 21.16 52.27 20.93L52.20 20.86L52.26 20.92Q52.25 20.69 52.14 20.00L52.03 19.89L52.08 19.95Q51.73 18.46 52.95 17.62L53.03 17.70L53.14 17.80Q54.08 16.99 55.48 17.03Z"/><path d="M15 29 C107 29,100 10,192 13" stroke="#555" fill="none"/><path fill="#333" d="M90.82 18.29L90.87 18.34L90.82 18.30Q89.15 14.26 82.94 14.45L82.88 14.39L82.99 14.50Q78.51 14.55 76.54 16.00L76.55 16.02L76.55 16.02Q74.15 17.76 74.15 21.87L74.18 21.90L74.16 23.75L74.17 23.76Q74.06 32.48 83.08 32.48L83.05 32.45L83.04 32.44Q85.21 32.56 86.70 31.76L86.74 31.80L86.61 31.67Q88.40 30.61 88.25 28.74L88.44 28.93L88.30 28.79Q88.22 26.81 84.53 25.89L84.48 25.84L82.47 25.77L82.44 25.75Q81.49 25.75 80.54 25.79L80.51 25.76L80.59 25.84Q80.56 24.86 80.52 22.95L80.62 23.05L80.60 23.03Q88.30 23.09 92.49 22.74L92.44 22.69L92.37 22.63Q92.36 23.49 92.36 24.29L92.37 24.30L92.43 24.35Q92.30 25.03 92.34 25.83L92.32 25.80L92.40 25.89Q91.37 25.96 91.37 25.96L91.27 25.87L91.27 25.86Q89.90 25.86 90.28 25.86L90.31 25.89L90.23 25.81Q91.29 27.40 91.67 29.38L91.67 29.38L91.79 29.50Q91.87 30.19 91.87 30.65L91.89 30.67L91.84 30.62Q91.89 35.31 83.10 35.31L83.13 35.34L83.07 35.28Q75.93 35.27 73.34 33.18L73.46 33.29L73.30 33.13Q71.42 30.87 71.42 25.80L71.44 25.83L71.34 25.73Q71.33 24.65 71.18 21.95L71.27 22.04L71.21 21.98Q71.10 19.66 71.14 18.29L71.20 18.36L71.12 18.28Q71.16 15.35 72.53 13.75L72.59 13.81L72.56 13.78Q75.26 11.87 80.14 11.68L80.10 11.65L82.62 11.42L82.80 11.61Q85.77 11.37 89.19 11.79L89.31 11.91L89.30 11.90Q93.03 12.35 93.98 15.59L93.84 15.45L93.88 15.49Q92.97 16.52 90.88 18.35ZM92.27 20.54L92.36 20.52L92.27 20.43Q93.49 19.36 95.36 17.38L95.34 17.37L95.45 17.48Q95.13 16.51 94.14 14.80L94.00 14.65L94.17 14.82Q93.00 12.17 89.19 11.53L89.20 11.53L89.01 11.35Q86.97 11.32 82.67 11.02L82.71 11.05L80.09 11.25L80.04 11.20Q74.77 11.30 72.18 13.28L72.33 13.43L72.29 13.39Q70.89 15.00 70.77 18.08L70.84 18.15L70.81 18.11Q70.78 17.63 71.01 23.11L71.06 23.17L70.92 23.02Q70.93 24.36 71.00 27.10L71.16 27.26L71.17 27.27Q71.28 31.65 73.03 33.59L73.08 33.63L73.09 33.65Q73.36 34.37 74.23 35.24L74.27 35.29L74.28 35.29Q77.18 37.17 82.70 37.51L82.62 37.42L85.56 37.66L85.57 37.67Q87.18 37.80 89.20 37.68L89.27 37.76L89.24 37.72Q90.57 37.53 92.66 37.00L92.82 37.16L92.70 37.04Q94.77 36.67 94.73 34.35L94.58 34.20L94.57 34.19Q94.72 33.08 93.65 30.30L93.67 30.32L93.62 30.27Q93.38 29.42 92.85 28.62L92.70 28.47L92.69 28.46Q93.36 28.56 94.54 28.75L94.60 28.81L94.60 28.81Q94.25 25.14 94.28 24.46L94.30 24.48L94.27 24.44Q93.91 24.47 93.50 24.43L93.48 24.41L93.50 24.44Q93.13 24.41 92.75 24.49L92.74 24.48L92.78 24.52Q92.65 23.28 92.73 22.22L92.80 22.29L92.75 22.24Q86.58 22.85 80.30 22.73L80.31 22.74L80.26 22.69Q80.22 23.53 80.22 24.44L80.22 24.44L80.21 26.18L80.31 26.29Q80.71 26.31 81.13 26.27L81.06 26.20L81.08 26.21Q81.51 26.23 81.97 26.23L81.91 26.17L81.85 26.11Q81.95 26.67 81.99 27.16L81.93 27.11L82.08 27.25Q81.90 27.53 81.86 28.03L81.99 28.16L81.93 28.09Q83.00 28.10 84.03 28.06L84.03 28.07L84.10 28.14Q84.97 27.97 86.00 28.01L86.06 28.08L86.04 28.06Q87.19 28.40 88.07 28.79L88.06 28.78L87.92 28.68L87.94 28.69Q88.22 30.35 86.54 31.26L86.48 31.20L86.42 31.14Q84.82 32.12 83.10 32.12L83.17 32.19L83.13 32.15Q79.26 32.12 76.82 30.37L76.81 30.36L76.92 30.47Q75.85 28.34 76.01 25.79L76.10 25.88L75.97 25.75Q76.31 20.99 78.16 18.99L78.27 19.10L78.11 18.94Q80.11 17.10 84.80 16.80L84.78 16.79L84.64 16.64Q88.47 16.59 90.42 18.38L90.34 18.31L90.22 18.19Q90.41 18.41 90.52 18.60L90.43 18.51L90.68 18.64L90.59 18.56Q91.31 19.39 91.88 20.50L91.88 20.49L92.10 20.37Z"/><path fill="#222" d="M25.36 24.17L25.32 24.13L25.28 24.10Q23.46 23.99 22.22 25.42L22.23 25.42L22.25 25.44Q20.98 26.83 20.79 28.74L20.80 28.75L20.72 28.67Q20.53 30.77 21.62 31.74L21.58 31.70L21.57 31.69Q22.76 32.76 24.85 32.65L24.79 32.59L24.75 32.55Q26.88 32.43 27.98 31.74L28.14 31.90L28.09 31.86Q29.13 30.65 29.13 29.09L29.24 29.20L29.16 29.11Q29.25 28.82 29.17 28.44L29.03 28.30L29.02 28.29Q29.26 26.78 28.16 25.43L27.98 25.26L28.09 25.36Q26.97 23.99 25.29 24.10ZM24.86 35.21L24.90 35.25L24.88 35.23Q20.57 35.30 19.16 34.53L19.15 34.53L19.09 34.47Q18.11 33.75 17.92 32.03L17.91 32.03L17.88 31.99Q17.83 31.30 17.86 30.57L17.88 30.58L17.92 30.63Q18.07 29.68 18.07 29.22L17.99 29.14L17.97 29.11Q18.38 26.21 18.53 25.53L18.50 25.50L18.55 25.55Q19.08 23.68 19.92 22.27L19.98 22.33L19.83 22.19Q22.47 17.78 28.41 11.43L28.46 11.47L28.44 11.45Q31.09 11.14 33.30 10.34L33.29 10.33L33.38 10.42Q26.58 17.93 23.38 22.16L23.38 22.16L23.38 22.16Q24.23 21.53 25.53 21.53L25.64 21.64L25.53 21.53Q28.86 21.55 30.39 23.49L30.35 23.45L30.46 23.56Q31.80 25.20 32.14 28.75L32.19 28.79L32.21 28.81Q32.27 29.53 32.27 30.14L32.18 30.05L32.26 30.12Q32.23 33.22 30.03 34.28L29.98 34.24L29.94 34.20Q28.71 34.80 24.83 35.18ZM27.08 37.54L27.17 37.64L27.25 37.71Q28.52 37.65 30.50 37.73L30.38 37.61L30.41 37.64Q32.12 37.78 33.68 37.06L33.71 37.10L33.70 37.08Q34.83 36.31 34.83 34.52L34.78 34.47L34.76 34.45Q34.65 33.85 34.48 32.86L34.57 32.94L34.49 32.87Q34.39 31.94 34.39 31.49L34.33 31.43L34.48 31.59Q33.46 26.72 31.86 24.82L31.84 24.79L32.00 24.95Q31.89 24.80 31.74 24.57L31.64 24.48L31.39 24.30L31.40 24.35L31.23 24.18Q31.04 23.84 30.43 22.89L30.45 22.90L30.28 22.74Q29.54 21.96 27.56 21.50L27.40 21.34L27.56 21.50Q28.61 19.74 31.58 16.04L31.69 16.15L35.86 10.81L35.79 10.73Q34.39 11.77 31.99 12.53L31.85 12.39L31.93 12.47Q32.90 11.53 34.69 9.55L34.59 9.46L34.65 9.52Q32.14 10.47 28.26 11.05L28.33 11.11L28.35 11.13Q22.66 17.06 19.69 22.01L19.58 21.89L19.66 21.97Q18.10 24.45 17.52 30.69L17.62 30.79L17.49 30.66Q17.43 31.24 17.51 32.19L17.48 32.17L17.63 32.32Q17.74 34.10 18.84 35.02L18.83 35.01L18.70 34.88Q19.06 35.01 19.02 35.04L19.04 35.06L19.10 35.12Q19.38 35.93 20.18 36.35L20.24 36.42L20.23 36.40Q21.76 37.17 23.70 37.36L23.74 37.40L23.64 37.30Q23.56 37.22 27.06 37.53ZM26.92 26.38L26.90 26.36L26.96 26.42Q27.53 26.30 28.48 26.80L28.42 26.74L28.46 26.78Q28.83 27.76 28.83 28.40L28.87 28.44L28.76 28.33Q28.96 30.21 28.01 31.20L27.95 31.14L27.94 31.13Q27.00 31.98 24.91 32.29L24.94 32.32L24.81 32.19Q23.43 32.26 22.90 31.99L22.86 31.95L22.82 31.92Q22.76 31.59 22.76 31.28L22.78 31.30L22.63 31.15Q22.46 27.94 25.39 26.64L25.34 26.60L25.31 26.56Q26.26 26.40 27.02 26.48Z"/><path fill="#333" d="M110.20 24.16L110.17 24.12L110.33 24.29Q108.41 24.23 107.19 25.57L107.21 25.58L107.10 25.48Q105.92 26.85 105.77 28.75L105.86 28.84L105.75 28.73Q105.58 30.88 106.80 31.89L106.89 31.98L106.71 31.80Q107.97 32.85 110.10 32.77L110.13 32.81L110.24 32.92Q112.50 32.70 113.45 31.75L113.38 31.68L113.48 31.77Q114.42 30.24 114.31 28.42L114.33 28.44L114.31 28.42Q114.31 26.67 113.22 25.47L113.12 25.37L113.10 25.34Q111.96 24.09 110.13 24.09ZM110.16 14.71L110.29 14.84L110.25 14.80Q108.86 14.71 107.53 15.21L107.49 15.16L107.42 15.09Q106.11 15.88 106.34 17.74L106.38 17.78L106.36 17.76Q106.85 21.49 110.20 21.49L110.26 21.55L110.21 21.51Q111.82 21.74 112.81 20.60L112.77 20.56L112.81 20.60Q113.84 19.49 113.87 17.93L113.84 17.90L113.74 17.80Q113.88 16.11 113.16 15.50L113.25 15.59L113.10 15.45Q111.45 14.64 110.16 14.71ZM109.94 35.32L109.99 35.37L106.85 35.27L106.80 35.22Q105.32 35.26 103.99 34.39L104.07 34.47L103.97 34.37Q102.69 33.32 102.84 30.47L102.78 30.41L102.75 30.37Q103.34 23.65 106.96 22.66L106.80 22.51L106.95 22.66Q104.58 21.65 103.24 16.29L103.25 16.30L103.19 16.24Q103.00 14.97 103.07 14.18L102.98 14.08L102.90 14.00Q103.40 12.06 107.09 12.03L106.99 11.92L106.97 11.90Q111.28 11.91 112.73 12.10L112.74 12.11L112.65 12.03Q116.55 12.61 117.00 14.63L116.98 14.60L116.91 14.54Q117.12 15.24 117.12 15.62L116.98 15.48L117.16 15.66Q117.05 16.23 116.86 16.84L116.93 16.91L116.86 16.84Q116.35 21.17 113.42 22.70L113.35 22.62L113.36 22.63Q116.78 23.35 117.28 28.65L117.35 28.71L117.42 28.79Q117.39 28.91 117.42 30.20L117.38 30.16L117.38 30.16Q117.52 32.96 115.92 34.02L115.77 33.87L115.81 33.92Q114.42 34.78 109.86 35.23ZM112.21 37.63L112.19 37.60L115.64 37.78L115.64 37.78Q117.27 37.78 118.80 37.05L118.89 37.15L118.75 37.01Q119.91 36.30 119.99 34.44L120.07 34.53L120.08 34.53Q119.98 33.29 119.60 31.35L119.77 31.52L119.69 31.44Q118.73 26.75 116.64 24.88L116.65 24.90L116.57 24.63L116.31 24.29L116.04 23.91L116.06 23.93Q117.70 22.56 118.61 18.41L118.68 18.48L118.69 18.49Q118.60 18.02 118.68 17.18L118.78 17.28L118.68 17.18Q118.89 16.63 118.81 16.02L118.80 16.01L118.76 15.97Q118.65 14.57 117.47 14.07L117.42 14.02L117.49 14.05L117.28 13.91L117.34 13.98Q117.00 13.18 115.82 12.38L115.75 12.31L115.77 12.29L115.83 12.35Q113.79 11.60 109.71 11.41L109.80 11.50L109.81 11.51Q108.16 11.31 106.79 11.42L106.97 11.60L106.86 11.49Q106.02 11.49 104.73 11.64L104.83 11.75L104.78 11.70Q102.82 12.05 102.59 13.69L102.59 13.70L102.68 13.78Q102.61 14.25 102.65 15.05L102.60 15.00L102.67 15.06Q102.77 15.58 103.34 17.94L103.39 18.00L103.21 17.81Q104.11 21.15 105.86 22.49L105.79 22.41L105.95 22.58L106.02 22.65Q103.25 23.94 102.72 29.12L102.65 29.05L102.59 29.00Q102.38 31.18 102.38 32.09L102.41 32.13L102.42 32.13Q102.42 33.86 103.60 34.77L103.77 34.94L103.73 34.89Q103.77 34.89 104.03 35.08L104.11 35.16L104.04 35.09Q105.16 37.47 112.28 37.70ZM111.92 26.60L111.84 26.52L111.89 26.57Q112.70 26.39 113.57 26.85L113.56 26.83L113.74 27.02Q114.08 27.97 114.05 28.50L114.07 28.52L113.95 28.40Q114.00 28.72 114.00 29.02L114.01 29.03L113.99 29.02Q114.02 31.41 111.74 32.24L111.78 32.29L111.74 32.25Q110.86 32.47 110.06 32.35L110.09 32.38L110.19 32.49Q109.08 32.59 107.94 32.13L107.84 32.04L107.87 32.07Q107.69 31.51 107.77 30.52L107.76 30.51L107.76 30.51Q107.92 28.92 109.12 27.70L108.97 27.56L109.15 27.73Q110.29 26.45 111.89 26.57ZM112.11 17.08L112.11 17.09L112.10 17.07Q112.90 16.96 113.43 17.11L113.48 17.16L113.39 17.86L113.45 17.93Q113.47 19.35 112.55 20.36L112.49 20.30L112.44 20.25Q111.59 21.32 110.22 21.13L110.13 21.05L110.31 21.22Q109.26 21.16 108.84 20.93L108.73 20.82L108.75 20.84Q108.83 20.69 108.71 20.00L108.71 20.00L108.71 20.00Q108.34 18.49 109.56 17.65L109.63 17.73L109.55 17.65Q110.68 17.02 112.09 17.06Z"/><path fill="#444" d="M175.67 18.29L175.73 18.34L175.60 18.22Q173.86 14.12 167.66 14.31L167.83 14.48L167.68 14.33Q163.40 14.58 161.42 16.02L161.37 15.98L161.33 15.94Q158.86 17.62 158.86 21.73L159.03 21.89L158.93 23.66L158.91 23.64Q158.99 32.55 168.01 32.55L167.97 32.51L168.02 32.56Q169.96 32.44 171.44 31.64L171.49 31.69L171.53 31.73Q173.28 30.63 173.13 28.77L173.13 28.77L173.28 28.91Q172.93 26.66 169.24 25.75L169.39 25.90L167.43 25.88L167.46 25.92Q166.52 25.92 165.57 25.96L165.38 25.77L165.53 25.92Q165.48 24.92 165.44 23.02L165.41 22.99L165.52 23.10Q173.18 23.10 177.37 22.76L177.24 22.63L177.24 22.64Q177.23 23.50 177.23 24.30L177.21 24.28L177.20 24.27Q177.20 25.07 177.24 25.87L177.23 25.86L177.22 25.85Q176.26 26.00 176.26 26.00L176.25 25.98L176.11 25.85Q174.68 25.78 175.06 25.78L175.15 25.87L175.09 25.81Q176.27 27.53 176.66 29.51L176.62 29.47L176.58 29.44Q176.75 30.22 176.75 30.68L176.68 30.60L176.78 30.70Q176.80 35.36 168.00 35.36L168.02 35.38L167.88 35.24Q160.77 35.25 158.18 33.15L158.14 33.11L158.31 33.28Q156.33 30.92 156.33 25.86L156.18 25.71L156.22 25.75Q156.28 24.75 156.13 22.05L156.08 22.00L156.12 22.03Q155.86 19.56 155.89 18.19L156.00 18.30L156.01 18.31Q156.20 15.53 157.57 13.93L157.50 13.85L157.57 13.93Q159.93 11.68 164.80 11.49L164.91 11.60L167.46 11.41L167.54 11.49Q170.75 11.50 174.17 11.91L173.98 11.72L174.02 11.76Q177.92 12.39 178.87 15.62L178.76 15.51L178.84 15.59Q177.73 16.42 175.63 18.25ZM177.06 20.48L177.12 20.42L177.11 20.41Q178.35 19.37 180.22 17.39L180.22 17.39L180.27 17.44Q180.00 16.53 179.01 14.81L178.86 14.66L178.93 14.73Q177.80 12.11 173.99 11.46L173.98 11.45L174.02 11.49Q171.92 11.41 167.62 11.11L167.49 10.98L164.87 11.17L164.96 11.27Q159.78 11.46 157.19 13.44L157.00 13.24L157.09 13.33Q155.68 14.94 155.57 18.02L155.57 18.02L155.68 18.13Q155.56 17.55 155.79 23.03L155.92 23.16L155.80 23.04Q155.89 24.47 155.97 27.21L155.90 27.15L155.99 27.23Q156.09 31.59 157.84 33.54L157.86 33.56L157.94 33.63Q158.26 34.41 159.14 35.29L159.22 35.38L159.20 35.35Q162.09 37.22 167.61 37.56L167.61 37.56L170.43 37.67L170.42 37.67Q172.00 37.76 174.01 37.64L174.04 37.67L173.99 37.62Q175.50 37.61 177.60 37.08L177.53 37.01L177.59 37.07Q179.54 36.59 179.50 34.26L179.57 34.32L179.55 34.31Q179.43 32.93 178.36 30.15L178.55 30.34L178.54 30.33Q178.15 29.33 177.61 28.53L177.55 28.47L177.55 28.46Q178.32 28.66 179.50 28.85L179.34 28.70L179.39 28.74Q179.11 25.15 179.15 24.47L179.16 24.48L179.24 24.55Q178.79 24.49 178.37 24.45L178.40 24.48L178.24 24.32Q177.91 24.33 177.53 24.41L177.63 24.51L177.54 24.42Q177.67 23.44 177.74 22.38L177.74 22.38L177.65 22.28Q171.36 22.77 165.08 22.65L165.18 22.75L165.14 22.72Q165.18 23.63 165.18 24.55L165.07 24.43L165.16 26.28L165.12 26.24Q165.46 26.20 165.88 26.16L165.98 26.26L165.96 26.24Q166.41 26.27 166.87 26.27L166.74 26.14L166.90 26.30Q166.73 26.59 166.77 27.08L166.84 27.15L166.92 27.23Q166.89 27.67 166.86 28.16L166.71 28.02L166.84 28.15Q167.80 28.04 168.83 28.00L168.94 28.11L168.81 27.99Q169.88 28.03 170.91 28.07L170.92 28.07L170.98 28.13Q172.08 28.43 172.95 28.81L172.81 28.67L172.80 28.70L172.82 28.72Q173.10 30.38 171.43 31.29L171.27 31.13L171.36 31.23Q169.78 32.22 168.06 32.22L167.91 32.07L167.90 32.06Q164.22 32.22 161.78 30.47L161.73 30.42L161.68 30.37Q160.80 28.42 160.95 25.87L160.99 25.91L160.90 25.83Q161.22 21.04 163.07 19.04L162.99 18.97L163.07 19.05Q164.92 17.06 169.61 16.75L169.51 16.66L169.53 16.68Q173.23 16.50 175.17 18.28L175.16 18.27L175.17 18.28Q175.24 18.39 175.36 18.58L175.41 18.64L175.43 18.54L175.50 18.61Q176.10 19.33 176.67 20.43L176.77 20.53L177.04 20.45Z"/><path fill="#333" d="M137.53 35.00L137.54 35.01L137.35 34.83Q133.31 34.40 131.48 32.95L131.47 32.94L131.42 32.89Q129.63 31.48 129.21 28.47L129.20 28.47L129.10 28.36Q129.17 28.09 128.83 23.33L128.87 23.38L128.76 23.26Q128.96 22.24 128.88 20.99L128.88 20.99L128.89 21.00Q128.56 15.79 130.77 14.04L130.81 14.08L130.78 14.05Q133.43 11.94 141.20 11.26L141.22 11.28L141.35 11.42Q142.51 11.09 144.15 11.13L144.14 11.12L144.27 11.25Q144.25 11.23 147.22 11.23L147.20 11.21L147.24 11.25Q148.12 11.29 149.83 11.44L149.66 11.27L149.66 11.28Q149.32 12.38 148.29 15.46L148.27 15.44L148.20 15.37Q146.14 14.19 143.13 14.19L143.16 14.21L143.19 14.24Q142.40 14.21 141.60 14.29L141.66 14.35L141.65 14.34Q136.49 14.74 133.97 16.71L134.00 16.74L134.05 16.79Q131.85 18.20 131.69 21.55L131.75 21.60L131.77 21.63Q131.72 22.22 131.75 23.48L131.86 23.58L131.83 23.55Q131.91 28.36 134.31 30.45L134.29 30.43L134.28 30.42Q136.52 32.43 141.50 32.73L141.46 32.69L141.35 32.58Q144.53 32.79 147.53 31.00L147.62 31.08L147.58 31.04Q148.20 33.79 148.81 35.16L148.74 35.10L148.83 35.19Q146.77 35.49 145.14 35.45L145.10 35.41L145.02 35.34Q140.60 35.33 137.48 34.95ZM152.52 38.61L152.54 38.63L152.64 38.73Q150.76 35.63 150.07 33.04L150.08 33.05L150.15 33.12Q149.71 33.36 148.72 33.75L148.62 33.65L148.60 33.62Q148.25 32.82 148.06 31.98L148.11 32.03L147.67 30.26L147.70 30.28Q144.57 32.49 141.45 32.37L141.46 32.39L141.41 32.33Q137.20 32.20 134.88 30.45L134.87 30.44L134.81 30.38Q133.63 28.51 133.70 25.58L133.71 25.59L133.71 25.59Q133.86 21.09 136.33 18.96L136.33 18.96L136.42 19.04Q138.51 17.10 143.19 16.49L143.18 16.47L143.12 16.42Q143.90 16.29 144.63 16.29L144.65 16.31L144.72 16.38Q147.55 16.43 149.64 17.95L149.64 17.96L149.61 17.92Q149.96 15.65 151.18 12.41L151.33 12.56L151.29 12.52Q151.06 12.55 150.50 12.50L150.49 12.48L150.49 12.48Q149.84 12.33 149.58 12.33L149.53 12.29L149.54 12.29Q149.77 11.80 150.23 10.81L150.20 10.78L150.30 10.88Q150.02 10.83 147.52 10.75L147.57 10.80L147.57 10.80Q145.03 10.67 144.38 10.71L144.42 10.75L144.44 10.78Q133.97 11.15 130.50 13.74L130.52 13.75L130.37 13.61Q128.36 15.44 128.36 19.36L128.48 19.48L128.38 19.38Q128.34 20.44 128.45 23.14L128.50 23.20L128.60 23.29Q128.65 26.77 128.88 28.49L128.84 28.44L128.85 28.45Q129.31 31.65 130.90 33.17L130.95 33.22L130.82 33.09Q131.43 33.89 132.69 35.03L132.63 34.97L132.52 34.87Q135.79 36.65 141.04 37.41L141.13 37.50L141.15 37.52Q147.66 38.54 152.64 38.73Z"/></svg>