<svg xmlns="http://www.w3.org/2000/svg" width="200" height="40" viewBox="0,0,200,40"><path fill="#333" d="M51.03 24.58L51.03 24.59L51.00 24.55Q51.05 28.87 50.33 33.02L50.27 32.97L50.41 33.10Q52.66 32.54 55.75 32.42L55.69 32.37L55.70 32.38Q57.07 32.60 58.13 31.59L58.01 31.47L58.05 31.51Q59.10 30.49 59.10 29.16L59.24 29.29L59.25 29.31Q59.11 28.85 59.07 28.59L59.15 28.67L59.14 28.66Q58.87 25.61 56.62 24.77L56.70 24.85L56.69 24.83Q55.96 24.56 55.27 24.64L55.18 24.55L55.30 24.66Q54.18 24.53 53.15 24.57L53.21 24.64L53.19 24.61Q52.19 24.72 51.17 24.72ZM49.89 14.23L49.82 14.17L49.90 14.24Q50.68 17.46 50.95 21.84L50.94 21.83L51.10 21.99Q52.49 22.05 55.15 22.09L55.18 22.11L55.04 21.97Q58.09 22.13 58.43 18.59L58.44 18.59L58.35 18.51Q58.61 16.64 57.20 15.80L57.21 15.80L57.15 15.75Q56.19 15.16 51.77 14.51L51.81 14.55L51.80 14.54Q50.75 14.41 49.84 14.18ZM46.26 37.13L46.14 37.02L46.29 37.17Q48.64 30.38 48.38 23.00L48.40 23.03L48.37 22.99Q48.13 15.74 45.20 9.27L45.22 9.30L45.21 9.28Q48.91 11.73 55.13 11.97L55.19 12.03L55.25 12.09Q61.37 12.23 61.71 15.13L61.88 15.30L61.82 15.24Q62.19 18.04 60.78 20.71L60.82 20.75L60.82 20.74Q59.88 22.05 58.28 22.74L58.46 22.91L58.36 22.82Q62.08 23.57 62.31 28.93L62.15 28.77L62.16 28.79Q62.22 29.88 62.14 31.28L62.23 31.37L62.23 31.36Q62.24 32.75 61.31 33.68L61.36 33.74L61.33 33.70Q60.25 34.49 58.92 34.65L59.00 34.73L59.08 34.81Q57.60 34.89 56.53 34.89L56.48 34.83L56.40 34.75Q50.66 34.72 46.13 37.01ZM58.92 37.31L58.93 37.32L58.98 37.37Q60.02 37.53 61.89 37.65L61.87 37.63L61.74 37.50Q63.30 37.69 64.40 36.82L64.26 36.67L64.36 36.77Q65.17 35.87 65.05 34.31L65.06 34.31L65.08 34.34Q64.90 33.28 64.18 29.82L64.30 29.94L64.19 29.83Q63.51 26.60 61.65 25.12L61.66 25.13L61.23 24.28L61.22 24.27Q62.97 22.93 63.54 19.17L63.59 19.22L63.59 19.21Q63.66 17.99 63.58 16.58L63.56 16.56L63.60 16.60Q63.55 15.29 62.45 14.45L62.50 14.50L62.41 14.41Q62.17 14.30 62.06 14.26L62.05 14.25L61.98 14.18Q61.66 13.59 60.82 12.79L60.97 12.94L60.83 12.80Q59.43 11.86 55.21 11.67L55.22 11.68L55.16 11.62Q48.49 11.31 44.49 8.41L44.56 8.49L44.64 8.56Q47.78 15.44 48.09 22.98L48.09 22.98L48.09 22.98Q48.50 30.89 45.69 37.82L45.65 37.78L47.74 36.86L47.62 36.75Q47.37 38.02 46.88 39.16L46.84 39.13L46.86 39.15Q51.11 37.23 56.13 37.23L56.08 37.17L56.16 37.25Q57.55 37.24 59.00 37.39ZM56.93 26.90L56.88 26.85L56.94 26.91Q57.55 26.72 58.46 27.18L58.55 27.27L58.57 27.29Q58.55 27.50 58.71 28.57L58.78 28.65L58.79 28.65Q59.00 30.05 58.07 31.09L58.06 31.09L58.05 31.07Q57.14 32.15 55.74 32.03L55.68 31.97L54.31 32.20L54.29 32.19Q53.51 32.20 52.78 32.32L52.63 32.17L52.71 32.24Q52.98 30.38 53.05 26.91L53.19 27.05L53.09 26.95Q53.83 26.96 55.08 26.93L55.02 26.87L55.07 26.91Q56.29 26.84 56.90 26.88ZM55.91 17.32L55.88 17.29L56.19 17.22L56.32 17.35Q56.52 17.32 56.71 17.36L56.61 17.26L57.10 17.37L57.28 17.35L57.94 17.48L57.90 17.44Q58.06 17.76 58.06 18.06L58.10 18.11L58.06 18.60L58.09 18.63Q58.05 19.84 57.18 20.78L57.21 20.81L57.24 20.84Q56.29 21.70 55.07 21.70L55.15 21.77L55.00 21.63Q54.12 21.77 54.12 21.77L54.01 21.67L54.04 21.69Q52.70 21.65 53.04 21.65L53.03 21.64L53.05 21.66Q53.07 20.19 52.76 17.14L52.65 17.03L52.66 17.04Q54.42 17.36 55.95 17.36Z"/><path d="M15 8 C85 24,96 6,189 32" stroke="#777" fill="none"/><path fill="#222" d="M83.53 35.08L83.54 35.09L81.41 35.25L81.52 35.36Q80.98 35.28 80.01 35.33L80.05 35.37L79.94 35.26Q79.13 35.48 78.64 35.48L78.48 35.32L78.66 35.51Q76.96 35.44 75.94 34.60L75.95 34.62L75.87 34.54Q76.62 33.39 78.26 31.25L78.27 31.27L78.38 31.38Q79.57 32.88 81.78 32.65L81.88 32.74L81.88 32.75Q82.76 32.60 83.41 31.95L83.47 32.01L83.34 31.88Q83.95 31.19 83.83 30.32L83.85 30.34L83.97 30.45Q83.87 25.87 83.95 21.30L83.84 21.19L83.90 21.25Q83.90 16.61 84.44 12.00L84.38 11.95L84.37 11.94Q86.28 11.72 88.41 10.69L88.43 10.71L88.50 10.77Q86.69 17.57 86.69 24.80L86.58 24.69L86.55 24.67Q86.69 28.34 87.14 31.84L87.20 31.90L87.03 31.73Q87.17 32.14 87.17 32.48L87.10 32.41L87.15 32.46Q87.23 33.11 87.00 33.64L86.97 33.61L86.99 33.63Q86.36 34.83 83.55 35.10ZM88.51 37.97L88.54 38.00L88.86 37.97L89.12 37.82L89.42 37.74L89.36 37.68Q89.68 37.43 89.76 37.31L89.76 37.31L89.77 37.32Q89.92 36.10 89.65 35.11L89.65 35.11L89.61 35.07Q88.34 29.34 88.60 22.98L88.68 23.07L88.67 23.06Q88.91 16.93 90.70 11.03L90.70 11.03L90.66 10.99Q89.67 11.53 88.41 12.25L88.58 12.42L88.43 12.27Q88.76 11.64 89.18 10.12L89.04 9.98L89.09 10.04Q86.62 11.41 83.95 11.71L84.00 11.76L84.00 11.76Q83.56 16.08 83.48 21.03L83.43 20.97L83.43 20.97Q83.49 27.00 83.56 30.43L83.46 30.32L83.57 30.44Q83.59 32.17 81.84 32.32L81.74 32.23L81.86 32.34Q80.14 32.45 78.46 30.82L78.33 30.68L78.34 30.69Q76.28 33.20 75.33 34.76L75.37 34.80L75.39 34.82Q76.09 35.52 77.12 35.75L77.14 35.77L77.15 35.78Q77.05 35.91 76.78 36.13L76.73 36.09L76.77 36.13Q78.24 37.10 80.22 37.37L80.18 37.33L80.14 37.29Q80.60 37.40 83.89 37.71L83.78 37.60L83.92 37.74Q87.16 37.99 88.53 37.99Z"/><path fill="#111" d="M25.25 24.07L25.24 24.06L25.34 24.15Q23.56 24.09 22.33 25.52L22.28 25.47L22.30 25.49Q20.92 26.77 20.73 28.68L20.78 28.73L20.77 28.72Q20.56 30.80 21.65 31.77L21.65 31.77L21.72 31.84Q22.72 32.73 24.81 32.61L24.89 32.69L24.80 32.60Q26.98 32.54 28.09 31.85L28.01 31.78L27.96 31.72Q29.23 30.74 29.23 29.18L29.20 29.16L29.09 29.05Q29.27 28.85 29.19 28.46L29.09 28.36L29.20 28.47Q29.16 26.68 28.05 25.33L28.09 25.37L28.17 25.44Q27.02 24.04 25.34 24.16ZM24.85 35.20L24.93 35.28L24.80 35.15Q20.50 35.23 19.09 34.47L19.12 34.49L19.01 34.38Q18.02 33.66 17.83 31.95L17.81 31.93L17.88 32.00Q17.86 31.33 17.90 30.61L17.85 30.56L17.96 30.67Q17.98 29.58 17.98 29.13L18.05 29.20L18.04 29.19Q18.44 26.28 18.59 25.59L18.69 25.69L18.53 25.53Q19.09 23.69 19.93 22.28L19.81 22.16L19.96 22.31Q22.50 17.82 28.44 11.46L28.55 11.57L28.44 11.45Q31.18 11.22 33.39 10.42L33.31 10.35L33.31 10.35Q26.48 17.83 23.28 22.05L23.22 21.99L23.31 22.09Q24.28 21.57 25.57 21.57L25.63 21.62L25.56 21.55Q28.84 21.53 30.37 23.47L30.35 23.46L30.46 23.56Q31.79 25.20 32.13 28.74L32.10 28.70L32.08 28.69Q32.21 29.46 32.21 30.07L32.14 30.00L32.11 29.97Q32.18 33.17 29.97 34.23L29.98 34.24L30.01 34.27Q28.75 34.84 24.87 35.22ZM27.11 37.58L27.16 37.63L27.21 37.67Q28.50 37.63 30.48 37.71L30.51 37.74L30.53 37.76Q32.16 37.83 33.72 37.10L33.66 37.04L33.73 37.12Q34.78 36.26 34.78 34.47L34.64 34.33L34.72 34.41Q34.72 33.91 34.55 32.93L34.59 32.97L34.60 32.98Q34.43 31.99 34.43 31.54L34.35 31.45L34.33 31.43Q33.44 26.69 31.84 24.79L31.95 24.91L31.98 24.94Q31.91 24.82 31.76 24.59L31.63 24.47L31.48 24.39L31.27 24.23L31.40 24.35Q31.04 23.84 30.44 22.89L30.39 22.84L30.27 22.72Q29.45 21.87 27.47 21.41L27.40 21.34L27.41 21.35Q28.71 19.83 31.68 16.14L31.73 16.19L35.82 10.76L35.79 10.73Q34.38 11.76 31.98 12.52L31.85 12.39L31.97 12.52Q32.80 11.44 34.59 9.46L34.58 9.45L34.70 9.57Q32.30 10.64 28.42 11.21L28.42 11.21L28.40 11.19Q22.65 17.05 19.68 21.99L19.74 22.06L19.62 21.93Q18.21 24.56 17.63 30.80L17.61 30.77L17.66 30.83Q17.53 31.35 17.61 32.30L17.52 32.21L17.56 32.25Q17.67 34.04 18.78 34.95L18.78 34.95L18.82 35.00Q19.04 34.99 19.01 35.03L19.06 35.09L19.02 35.04Q19.42 35.98 20.22 36.40L20.26 36.43L20.17 36.35Q21.79 37.20 23.73 37.39L23.63 37.29L23.69 37.36Q23.66 37.32 27.16 37.63ZM27.02 26.48L26.84 26.30L27.00 26.46Q27.48 26.25 28.43 26.75L28.36 26.68L28.51 26.83Q28.85 27.78 28.85 28.42L28.85 28.42L28.83 28.41Q29.05 30.30 28.10 31.29L27.99 31.18L28.02 31.21Q26.91 31.89 24.82 32.20L24.81 32.19L24.87 32.25Q23.45 32.28 22.92 32.01L22.88 31.98L22.80 31.89Q22.76 31.58 22.76 31.28L22.78 31.30L22.66 31.18Q22.42 27.89 25.35 26.60L25.34 26.59L25.40 26.65Q26.16 26.30 26.92 26.38Z"/><path fill="#333" d="M166.89 14.66L166.86 14.63L165.34 14.79L165.24 14.69Q163.04 14.85 162.81 16.86L162.84 16.89L162.87 16.93Q162.69 17.55 162.73 18.54L162.86 18.66L162.70 18.50Q162.75 20.46 164.01 21.79L164.13 21.92L164.16 21.94Q165.33 23.20 167.24 23.04L167.23 23.04L167.26 23.07Q169.30 22.90 170.06 21.98L170.10 22.03L170.14 22.06Q171.07 21.01 171.33 18.76L171.47 18.90L171.29 18.72Q171.58 16.50 170.32 15.66L170.33 15.66L170.31 15.65Q169.59 15.00 166.92 14.70ZM172.97 23.95L172.86 23.83L171.67 26.21L171.67 26.21Q168.98 31.03 165.21 35.11L165.13 35.02L165.20 35.09Q163.43 35.11 160.72 35.91L160.73 35.91L160.83 36.01Q166.21 29.78 169.37 24.98L169.39 25.01L169.31 24.93Q168.29 25.58 166.65 25.65L166.71 25.71L166.54 25.55Q163.62 25.79 162.10 23.81L162.04 23.74L162.15 23.86Q160.80 22.13 159.70 17.56L159.74 17.60L159.84 17.70Q159.76 17.17 159.61 16.24L159.58 16.20L159.66 16.28Q159.57 15.41 159.57 14.95L159.51 14.89L159.54 14.93Q159.55 13.15 160.62 12.54L160.53 12.45L160.56 12.49Q161.71 11.65 163.57 11.65L163.66 11.74L163.66 11.73Q166.92 11.80 166.92 11.80L166.86 11.74L166.77 11.65Q168.89 11.64 170.15 11.83L170.24 11.92L170.16 11.84Q172.37 12.19 173.28 12.68L173.37 12.77L173.23 12.63Q174.60 13.39 174.79 15.14L174.81 15.16L174.77 15.12Q174.88 15.46 174.69 18.13L174.62 18.05L174.66 18.09Q174.21 20.16 173.98 20.99L174.11 21.12L174.13 21.15Q173.62 22.42 172.85 23.82ZM174.87 26.33L174.86 26.33L174.91 26.37Q175.84 24.11 176.38 19.81L176.29 19.73L176.40 19.83Q176.64 17.59 176.60 16.72L176.66 16.78L176.56 16.68Q176.46 14.75 175.28 13.84L175.41 13.97L175.02 13.77L174.96 13.71Q174.87 13.12 173.95 12.48L173.91 12.43L173.90 12.43Q171.64 11.46 166.84 11.30L166.80 11.26L166.82 11.28Q165.86 11.27 163.42 11.27L163.46 11.30L163.40 11.25Q161.62 11.22 160.14 11.91L160.21 11.98L160.11 11.88Q159.00 12.71 159.08 14.54L159.09 14.56L159.00 14.46Q159.19 15.37 159.38 17.39L159.46 17.47L159.45 17.46Q160.14 20.18 160.41 21.01L160.26 20.87L160.45 21.05Q160.99 22.89 161.95 24.19L161.79 24.03L161.83 24.07Q162.17 24.49 162.55 24.87L162.46 24.78L162.54 24.85Q162.79 25.30 163.44 26.21L163.39 26.17L163.41 26.18Q165.00 27.66 166.94 27.85L166.78 27.69L166.88 27.78Q165.04 30.52 163.48 32.42L163.36 32.30L159.80 36.73L159.73 36.67Q162.10 36.03 163.74 35.68L163.66 35.60L163.58 35.53Q162.89 36.47 161.32 38.18L161.40 38.26L161.25 38.11Q164.35 37.21 167.47 37.17L167.58 37.28L167.61 37.31Q169.80 34.59 174.14 27.36L174.23 27.44L174.21 27.51L174.29 27.58Q174.40 26.71 174.75 26.21ZM168.78 17.01L168.88 17.11L168.82 17.05Q169.34 16.85 169.80 16.96L169.82 16.98L169.84 17.00Q170.45 17.08 170.83 17.19L170.86 17.22L170.88 17.25Q171.01 17.64 171.08 18.06L171.05 18.02L171.10 18.08Q171.15 18.47 171.04 18.85L170.99 18.80L171.13 18.94Q171.09 20.65 169.91 21.76L169.77 21.62L169.80 21.65Q168.89 22.72 167.25 22.68L167.25 22.67L167.32 22.74Q166.88 22.72 165.36 22.42L165.33 22.39L165.30 22.36Q165.12 21.53 165.12 20.81L165.06 20.75L165.15 20.84Q164.92 20.42 164.92 20.19L165.05 20.33L165.02 20.29Q164.98 18.04 167.26 17.24L167.37 17.35L167.35 17.33Q167.87 16.94 168.71 16.94Z"/><path d="M8 30 C120 18,109 8,184 30" stroke="#999" fill="none"/><path fill="#222" d="M118.13 32.88L118.21 32.97L118.19 32.95Q118.37 33.81 118.90 35.82L119.06 35.98L119.07 35.99Q114.80 34.62 110.19 34.89L110.24 34.93L110.08 34.78Q105.56 35.09 101.56 37.07L101.51 37.01L101.53 37.03Q101.72 36.31 101.76 36.38L101.82 36.45L101.90 36.53Q105.66 32.60 109.58 28.18L109.55 28.16L109.60 28.20Q113.90 23.10 115.08 18.42L115.08 18.41L115.17 18.51Q115.54 16.67 114.26 15.49L114.25 15.47L114.37 15.60Q112.92 14.24 111.13 14.39L111.19 14.45L111.13 14.39Q110.91 14.47 110.56 14.47L110.50 14.41L110.59 14.50Q108.93 14.36 107.67 15.27L107.80 15.40L107.72 15.32Q106.38 16.64 106.60 19.31L106.70 19.40L106.62 19.32Q104.84 18.98 103.62 18.53L103.75 18.66L103.77 18.68Q103.50 17.19 103.42 15.74L103.36 15.68L103.51 15.83Q103.37 14.13 103.98 12.99L103.93 12.94L104.02 13.03Q105.84 11.68 109.19 11.68L109.07 11.57L110.89 11.63L110.86 11.61Q113.15 11.65 114.10 11.76L114.17 11.83L114.00 11.66Q118.47 12.21 118.74 14.65L118.66 14.57L118.66 14.57Q118.67 15.08 118.59 15.88L118.63 15.92L118.77 16.05Q118.68 16.65 118.53 17.33L118.54 17.35L118.47 17.28Q116.94 25.49 109.37 32.35L109.35 32.33L109.18 32.16Q110.62 32.04 111.99 32.04L112.04 32.09L112.02 32.06Q115.28 32.09 118.14 32.89ZM117.65 12.16L117.59 12.09L117.48 11.99Q115.96 11.41 114.24 11.33L114.28 11.37L110.84 11.17L110.87 11.20Q106.44 10.95 104.23 12.06L104.15 11.98L104.16 11.99Q103.16 13.42 103.16 15.48L103.06 15.38L103.20 15.52Q103.09 16.09 103.39 18.91L103.51 19.02L103.40 18.92Q104.00 19.21 105.18 19.51L105.10 19.44L105.11 20.48L105.15 20.52Q105.16 21.02 105.24 21.55L105.24 21.56L105.24 21.56Q106.42 21.59 108.89 21.82L108.88 21.81L109.00 21.93Q108.98 21.57 108.98 21.22L108.86 21.10L108.96 21.20Q108.89 19.30 110.11 17.95L110.08 17.92L110.02 17.87Q111.26 16.54 113.05 16.65L113.22 16.82L113.16 16.76Q113.88 16.76 114.64 16.91L114.67 16.94L114.74 17.01Q114.83 17.37 114.91 17.78L114.81 17.69L114.88 17.76Q114.94 18.20 114.87 18.54L114.86 18.54L114.87 18.55Q113.56 23.25 109.14 28.09L109.09 28.03L109.22 28.16Q107.06 30.38 101.61 36.43L101.60 36.42L101.49 36.31Q101.28 37.13 100.94 37.70L101.04 37.80L100.94 37.70Q102.57 36.85 104.09 36.32L104.17 36.41L104.15 36.38Q103.40 36.92 102.45 38.41L102.55 38.51L102.47 38.43Q102.32 38.73 102.20 39.08L102.19 39.07L102.18 39.06Q107.01 36.96 112.49 37.15L112.59 37.25L112.52 37.17Q118.25 37.38 122.82 39.74L122.75 39.68L121.88 37.67L121.75 37.53Q121.10 36.20 120.84 35.40L121.01 35.58L120.98 35.54Q120.17 35.04 118.96 34.63L118.97 34.64L118.90 34.57Q118.82 33.92 118.44 32.55L118.41 32.52L118.51 32.61Q116.24 31.98 113.95 31.79L113.97 31.81L114.05 31.89Q118.66 27.24 120.18 18.98L120.20 19.00L120.44 16.16L120.37 16.09Q120.36 14.37 119.14 13.68L118.97 13.51L119.05 13.63L118.96 13.54Q118.89 13.43 118.81 13.43L118.97 13.59L118.91 13.53Q118.68 12.69 117.58 12.08Z"/><path fill="#444" d="M145.10 23.66L145.09 23.65L139.20 23.73L139.22 23.74Q136.34 23.83 133.40 23.76L133.42 23.77L133.44 23.79Q133.39 30.33 131.34 35.85L131.36 35.88L131.48 35.99Q129.65 36.48 127.90 37.17L127.79 37.06L127.82 37.09Q130.64 31.42 130.64 24.76L130.73 24.85L130.56 24.68Q130.69 16.32 126.58 9.28L126.46 9.16L126.51 9.21Q127.98 9.96 130.45 10.76L130.51 10.81L130.52 10.82Q132.73 15.96 133.26 20.83L133.28 20.85L133.27 20.84Q136.40 21.20 139.26 21.16L139.16 21.06L139.29 21.19Q141.96 21.20 145.27 20.93L145.30 20.96L145.13 20.79Q145.61 16.40 147.36 11.30L147.51 11.44L147.46 11.39Q149.37 10.94 151.62 10.11L151.58 10.07L151.66 10.15Q148.09 16.93 148.09 24.89L147.96 24.76L147.94 24.74Q148.01 31.02 150.37 36.35L150.44 36.41L150.28 36.25Q148.71 35.68 146.66 35.37L146.68 35.39L146.64 35.35Q145.03 30.40 145.15 23.70ZM146.52 35.85L146.52 35.85L146.49 35.82Q147.42 35.87 148.52 36.14L148.66 36.27L148.49 36.11Q148.99 36.98 149.63 38.46L149.55 38.38L149.47 38.30Q152.99 39.42 154.78 40.33L154.66 40.21L154.64 40.19Q150.24 34.08 149.94 25.82L150.03 25.92L150.03 25.92Q149.58 17.74 153.24 10.93L153.24 10.93L152.13 11.35L152.26 11.47Q151.63 11.57 151.02 11.72L151.19 11.88L151.11 11.81Q151.58 11.06 152.42 9.50L152.29 9.37L152.44 9.52Q149.76 10.53 147.13 11.03L147.03 10.92L147.00 10.90Q145.48 15.88 145.02 20.56L144.91 20.46L144.90 20.44Q142.41 20.66 139.97 20.66L140.11 20.80L140.06 20.74Q137.61 20.70 135.10 20.55L135.15 20.59L135.04 20.49Q134.94 17.34 133.83 13.26L133.77 13.19L133.82 13.25Q133.15 13.15 131.70 12.77L131.59 12.66L131.76 12.82Q131.26 11.49 130.81 10.46L130.84 10.49L130.92 10.58Q128.06 9.70 125.78 8.44L125.73 8.39L125.75 8.42Q130.45 15.97 130.45 24.76L130.36 24.67L130.43 24.74Q130.31 31.59 127.19 37.72L127.23 37.76L127.19 37.72Q127.91 37.45 129.24 36.88L129.33 36.97L129.34 36.98Q128.96 37.77 128.16 39.30L128.15 39.29L128.22 39.36Q130.96 38.29 133.20 37.87L133.29 37.95L133.16 37.83Q135.06 32.31 135.25 26.14L135.37 26.25L135.34 26.23Q136.84 26.06 140.04 26.02L140.10 26.08L140.16 26.14Q143.00 26.08 144.90 26.16L144.92 26.18L144.85 26.11Q145.09 31.83 146.42 35.75Z"/></svg>