<svg xmlns="http://www.w3.org/2000/svg" width="200" height="40" viewBox="0,0,200,40"><path d="M7 18 C97 27,107 4,198 23" stroke="#111" fill="none"/><path fill="#333" d="M45.55 9.30L45.50 9.25L45.63 9.38Q49.45 11.95 54.21 12.18L54.15 12.12L54.11 12.08Q58.63 12.14 62.89 10.39L63.07 10.56L63.02 10.51Q62.73 11.02 61.96 13.80L62.03 13.87L62.05 13.89Q59.23 14.83 56.26 14.98L56.26 14.99L56.28 15.00Q53.22 15.07 50.33 14.35L50.42 14.43L50.33 14.35Q51.14 18.09 51.33 21.75L51.38 21.80L51.26 21.68Q53.40 22.02 55.00 21.98L54.94 21.93L54.85 21.84Q56.19 21.96 58.58 21.84L58.61 21.86L58.60 21.85Q58.48 22.43 58.48 23.11L58.51 23.14L58.54 24.50L58.52 24.48Q56.19 24.55 51.40 24.63L51.28 24.51L51.21 24.44Q51.29 28.64 50.72 32.63L50.70 32.61L50.67 32.59Q53.30 31.94 56.04 32.05L56.18 32.19L56.15 32.17Q58.83 32.21 61.42 33.05L61.45 33.08L61.42 33.06Q61.40 33.75 61.66 34.51L61.76 34.61L62.11 36.03L62.26 36.17Q58.94 34.76 55.51 34.76L55.47 34.72L55.58 34.83Q50.72 34.84 46.46 37.08L46.41 37.04L46.40 37.03Q48.79 30.28 48.52 23.16L48.53 23.17L48.53 23.17Q48.20 15.95 45.54 9.29ZM45.88 37.73L45.96 37.81L45.89 37.74Q47.23 37.10 48.00 36.76L47.96 36.73L48.04 36.80Q47.80 37.51 47.23 39.03L47.16 38.97L47.09 38.90Q51.67 36.97 56.73 37.23L56.72 37.23L56.82 37.32Q62.05 37.68 66.05 40.39L66.00 40.34L65.98 40.31Q64.75 37.72 64.07 35.77L64.16 35.87L64.05 35.76Q63.15 35.24 62.16 34.89L62.02 34.76L62.17 34.90Q61.71 33.45 61.55 32.65L61.65 32.75L61.64 32.74Q58.44 31.63 55.28 31.63L55.39 31.74L55.43 31.78Q54.23 31.73 53.09 31.84L52.99 31.74L52.96 31.71Q53.25 30.63 53.28 29.41L53.20 29.32L53.36 26.90L53.33 26.87Q55.04 26.67 56.82 26.71L56.87 26.75L56.92 26.81Q58.69 26.78 60.48 26.93L60.61 27.06L60.58 27.03Q60.50 26.08 60.50 25.13L60.53 25.15L60.39 23.11L59.64 23.24L59.59 23.19Q59.15 23.24 58.69 23.24L58.71 23.26L58.76 23.31Q58.80 22.67 58.96 21.38L58.94 21.36L58.85 21.27Q57.23 21.47 56.05 21.51L56.09 21.56L56.06 21.53Q55.15 21.56 53.32 21.49L53.42 21.58L53.30 21.47Q53.30 20.13 53.11 17.32L53.12 17.33L53.00 17.21Q54.19 17.48 55.18 17.48L55.10 17.40L55.13 17.43Q59.82 17.40 63.51 15.50L63.59 15.58L63.62 15.61Q64.10 13.15 64.97 10.95L64.88 10.85L65.00 10.97Q63.56 11.70 62.72 12.04L62.89 12.22L62.88 12.21Q63.09 11.35 63.55 9.79L63.52 9.76L63.65 9.89Q58.84 11.85 53.96 11.55L54.06 11.65L54.03 11.61Q48.72 11.29 44.87 8.43L44.94 8.50L44.88 8.44Q47.71 15.34 48.01 22.96L48.14 23.08L48.10 23.04Q48.37 30.93 45.86 37.71Z"/><path fill="#111" d="M164.07 14.38L164.06 14.37L163.97 14.28Q164.81 18.50 164.96 22.08L164.96 22.08L165.15 22.27Q166.08 22.17 167.14 22.17L167.29 22.31L169.52 22.34L169.47 22.29Q170.39 22.14 171.27 20.73L171.36 20.82L171.37 20.84Q172.14 19.71 172.26 18.53L172.25 18.52L172.14 18.41Q172.60 15.48 168.37 14.99L168.29 14.90L168.36 14.97Q166.72 14.97 164.09 14.40ZM165.17 25.03L165.04 24.90L165.04 24.90Q165.07 31.22 163.93 35.63L163.86 35.56L163.80 35.50Q162.49 36.06 160.17 37.13L160.17 37.12L160.19 37.14Q162.38 30.31 162.11 23.04L162.23 23.16L162.28 23.20Q161.98 15.83 159.20 9.39L159.09 9.28L159.01 9.21Q163.27 12.09 169.51 12.09L169.60 12.18L169.53 12.11Q175.53 12.05 175.68 15.51L175.61 15.45L175.70 15.54Q175.78 17.98 174.79 20.64L174.80 20.65L174.71 20.56Q174.41 21.79 173.46 23.00L173.52 23.06L173.47 23.02Q172.13 24.60 169.58 24.87L169.63 24.92L169.64 24.93Q167.39 24.97 165.14 25.00ZM171.13 27.10L171.12 27.10L171.27 27.24Q175.44 27.50 176.70 22.70L176.65 22.66L176.55 22.56Q177.51 18.91 177.36 16.89L177.39 16.92L177.48 17.02Q177.26 15.38 176.50 14.39L176.61 14.50L176.47 14.37Q176.26 14.15 175.76 13.92L175.69 13.86L175.75 13.91Q175.73 13.74 175.12 12.98L175.10 12.96L175.13 12.99Q173.63 11.71 169.67 11.71L169.57 11.62L169.52 11.57Q162.64 11.58 158.42 8.42L158.41 8.41L158.47 8.47Q161.66 15.58 161.93 23.04L161.90 23.01L161.88 23.00Q162.24 30.74 159.57 37.82L159.53 37.78L159.62 37.87Q160.53 37.06 161.52 36.68L161.56 36.72L161.20 37.89L161.19 37.88Q160.96 38.41 160.70 38.98L160.69 38.97L160.78 39.06Q163.21 38.03 166.10 37.50L166.10 37.49L166.01 37.40Q166.85 31.89 166.93 27.17L166.99 27.24L166.93 27.17Q168.05 27.12 169.04 27.12L169.05 27.12L169.09 27.16Q170.42 27.16 171.22 27.20ZM170.20 17.20L170.19 17.18L170.24 17.23Q170.71 17.21 171.70 17.44L171.71 17.45L171.83 17.57Q171.77 17.63 171.81 17.93L171.90 18.02L171.99 18.11Q172.01 18.35 171.93 18.62L171.87 18.56L171.94 18.63Q171.74 19.76 171.01 20.63L171.07 20.69L171.12 20.74Q170.40 21.65 169.37 21.85L169.50 21.98L169.45 21.92Q168.59 21.79 166.96 21.79L167.00 21.83L166.98 21.82Q166.93 19.52 166.70 17.16L166.81 17.27L168.59 17.37L168.47 17.26Q169.33 17.28 170.21 17.20Z"/><path fill="#333" d="M84.23 15.18L84.26 15.22L84.13 15.08Q79.90 15.16 76.21 14.17L76.13 14.09L76.08 14.04Q77.67 18.67 77.86 23.51L77.77 23.42L77.93 23.58Q77.95 28.20 76.73 32.81L76.75 32.83L76.75 32.83Q79.66 32.31 83.16 32.16L83.08 32.08L83.08 32.08Q87.02 31.91 88.81 29.47L88.77 29.44L88.85 29.51Q90.35 27.44 90.54 23.33L90.50 23.28L90.66 23.45Q90.74 21.70 90.28 19.98L90.25 19.95L90.19 19.89Q88.90 15.13 84.17 15.13ZM72.25 37.12L72.24 37.12L72.25 37.12Q75.16 31.47 75.16 24.77L75.18 24.79L75.06 24.67Q75.25 16.33 70.94 9.32L70.95 9.32L70.90 9.28Q76.03 11.82 84.29 12.01L84.32 12.04L84.43 12.14Q93.24 12.28 93.58 19.44L93.53 19.38L93.56 19.42Q93.61 22.05 93.57 23.50L93.61 23.54L93.72 23.65Q93.52 28.21 92.69 30.38L92.78 30.48L92.84 30.53Q92.37 31.58 91.61 32.42L91.54 32.35L91.58 32.40Q90.17 33.88 87.54 34.37L87.48 34.31L87.62 34.45Q86.04 34.74 83.04 34.97L82.98 34.91L82.99 34.92Q76.84 35.36 72.24 37.11ZM90.15 36.98L90.15 36.98L90.12 36.95Q92.99 36.74 94.63 35.26L94.55 35.18L94.53 35.15Q95.68 33.33 95.64 30.59L95.62 30.58L95.66 30.62Q95.65 29.24 95.50 25.73L95.56 25.79L95.22 21.26L95.13 21.17Q95.04 18.99 94.09 16.90L94.02 16.83L94.12 16.92Q93.54 15.93 92.85 15.28L92.97 15.39L92.90 15.18L92.76 15.03Q91.12 12.14 86.71 11.76L86.79 11.85L86.69 11.74Q84.06 11.66 77.05 10.94L77.13 11.02L77.01 10.90Q73.78 10.49 70.09 8.47L70.14 8.52L70.15 8.53Q74.98 15.91 74.98 24.66L74.88 24.57L74.94 24.63Q74.97 31.66 71.62 37.83L71.50 37.71L71.65 37.86Q72.25 37.51 73.58 37.01L73.49 36.92L73.59 37.02Q73.21 37.81 72.33 39.30L72.37 39.34L72.35 39.32Q75.46 38.32 78.81 37.83L78.86 37.87L78.75 37.76Q80.77 37.39 84.43 37.27L84.47 37.32L84.51 37.36Q88.30 37.15 90.13 36.96ZM90.27 23.43L90.26 23.42L90.27 23.43Q89.75 31.28 83.05 31.67L83.10 31.72L83.11 31.73Q81.27 31.94 79.21 32.21L79.22 32.22L79.18 32.18Q79.80 28.22 79.80 24.57L79.81 24.59L79.86 24.63Q79.93 21.01 79.20 17.16L79.08 17.04L79.06 17.02Q81.43 17.49 86.12 17.49L86.16 17.53L86.13 17.50Q87.48 17.33 89.11 18.28L89.17 18.33L89.05 18.22Q90.46 20.62 90.31 23.47Z"/><path d="M4 14 C103 22,114 26,192 28" stroke="#888" fill="none"/><path fill="#333" d="M25.36 24.18L25.37 24.18L25.27 24.08Q23.55 24.08 22.31 25.50L22.22 25.42L22.15 25.34Q21.07 26.93 20.88 28.83L20.81 28.76L20.76 28.71Q20.64 30.87 21.72 31.85L21.59 31.71L21.73 31.85Q22.65 32.66 24.75 32.55L24.92 32.72L24.86 32.66Q27.03 32.58 28.13 31.89L27.97 31.74L28.07 31.84Q29.09 30.61 29.09 29.05L29.14 29.09L29.25 29.20Q29.27 28.84 29.19 28.46L29.09 28.37L29.07 28.34Q29.26 26.78 28.15 25.43L28.08 25.35L28.15 25.42Q26.88 23.91 25.21 24.02ZM24.87 35.22L24.86 35.21L24.91 35.26Q20.45 35.17 19.04 34.41L19.17 34.54L19.13 34.50Q18.13 33.77 17.94 32.05L17.80 31.92L17.96 32.08Q17.81 31.28 17.85 30.56L17.85 30.55L17.92 30.63Q18.06 29.66 18.06 29.21L18.00 29.14L17.90 29.05Q18.39 26.22 18.54 25.54L18.60 25.60L18.68 25.67Q19.10 23.70 19.94 22.29L19.89 22.24L19.88 22.23Q22.49 17.80 28.42 11.44L28.55 11.57L28.53 11.54Q31.16 11.21 33.37 10.41L33.30 10.34L33.33 10.37Q26.60 17.95 23.40 22.18L23.39 22.16L23.29 22.07Q24.39 21.68 25.68 21.68L25.53 21.53L25.52 21.52Q28.90 21.58 30.42 23.53L30.41 23.52L30.45 23.56Q31.76 25.16 32.10 28.70L32.09 28.70L32.14 28.74Q32.24 29.50 32.24 30.11L32.15 30.01L32.25 30.12Q32.24 33.23 30.04 34.29L30.07 34.33L29.96 34.22Q28.75 34.83 24.86 35.21ZM27.14 37.61L27.26 37.72L27.22 37.68Q28.52 37.66 30.50 37.73L30.48 37.70L30.36 37.59Q32.16 37.82 33.72 37.10L33.72 37.10L33.66 37.04Q34.73 36.21 34.73 34.42L34.65 34.34L34.68 34.37Q34.82 34.01 34.65 33.02L34.58 32.96L34.57 32.95Q34.36 31.92 34.36 31.46L34.43 31.53L34.40 31.50Q33.60 26.85 32.00 24.95L31.87 24.82L31.95 24.90Q31.94 24.85 31.78 24.62L31.79 24.63L31.40 24.31L31.30 24.26L31.37 24.33Q30.97 23.77 30.36 22.82L30.39 22.85L30.46 22.91Q29.41 21.83 27.43 21.38L27.48 21.42L27.47 21.41Q28.60 19.73 31.57 16.03L31.71 16.18L35.84 10.79L35.81 10.75Q34.30 11.68 31.90 12.45L31.98 12.52L31.94 12.48Q32.79 11.42 34.58 9.44L34.59 9.46L34.65 9.52Q32.30 10.63 28.41 11.20L28.34 11.13L28.32 11.11Q22.68 17.08 19.71 22.03L19.65 21.97L19.70 22.02Q18.14 24.49 17.57 30.74L17.60 30.76L17.65 30.82Q17.47 31.29 17.55 32.24L17.51 32.20L17.61 32.30Q17.58 33.95 18.69 34.86L18.82 35.00L18.70 34.87Q19.18 35.13 19.14 35.16L19.19 35.21L19.07 35.09Q19.49 36.05 20.29 36.47L20.26 36.44L20.23 36.40Q21.77 37.18 23.71 37.37L23.76 37.42L23.58 37.24Q23.61 37.27 27.11 37.57ZM27.00 26.46L26.96 26.42L27.03 26.49Q27.57 26.34 28.52 26.84L28.47 26.79L28.42 26.74Q28.78 27.71 28.78 28.35L28.78 28.36L28.87 28.44Q29.04 30.29 28.09 31.28L27.94 31.13L28.07 31.26Q27.06 32.04 24.96 32.34L24.89 32.27L24.94 32.32Q23.48 32.31 22.95 32.04L22.84 31.93L22.99 32.08Q22.66 31.49 22.66 31.18L22.69 31.22L22.80 31.32Q22.47 27.95 25.40 26.65L25.35 26.60L25.42 26.67Q26.23 26.37 26.99 26.45Z"/><path fill="#222" d="M110.30 14.65L110.20 14.55L108.70 14.72L108.76 14.78Q106.51 14.89 106.28 16.90L106.31 16.93L106.32 16.94Q106.23 17.65 106.27 18.64L106.21 18.59L106.30 18.67Q106.34 20.62 107.59 21.95L107.43 21.78L107.58 21.93Q108.85 23.29 110.76 23.13L110.62 22.99L110.76 23.14Q112.79 22.96 113.56 22.05L113.48 21.97L113.44 21.93Q114.54 21.06 114.81 18.81L114.73 18.73L114.91 18.91Q115.05 16.54 113.80 15.70L113.78 15.69L113.89 15.80Q112.92 14.90 110.25 14.60ZM116.43 23.97L116.41 23.96L115.01 26.13L115.11 26.23Q112.28 30.91 108.52 34.98L108.62 35.08L108.52 34.98Q107.00 35.25 104.29 36.05L104.26 36.01L104.26 36.01Q109.62 29.77 112.78 24.97L112.72 24.90L112.67 24.86Q111.68 25.55 110.05 25.62L110.01 25.58L110.05 25.63Q107.06 25.79 105.53 23.81L105.52 23.80L105.57 23.85Q104.34 22.23 103.23 17.66L103.22 17.65L103.16 17.60Q103.27 17.25 103.12 16.32L103.08 16.28L103.07 16.26Q103.00 15.41 103.00 14.96L102.98 14.94L102.81 14.77Q102.87 13.04 103.93 12.43L103.96 12.45L104.02 12.51Q105.14 11.66 107.01 11.66L107.00 11.65L107.12 11.77Q110.25 11.70 110.25 11.70L110.26 11.71L110.21 11.66Q112.38 11.70 113.64 11.89L113.59 11.85L113.64 11.89Q115.88 12.27 116.80 12.77L116.63 12.60L116.79 12.76Q118.01 13.37 118.20 15.12L118.28 15.20L118.23 15.15Q118.28 15.43 118.09 18.09L118.01 18.02L118.19 18.19Q117.64 20.15 117.41 20.99L117.51 21.09L117.53 21.11Q117.15 22.52 116.38 23.93ZM118.26 26.30L118.34 26.38L118.33 26.37Q119.16 24.00 119.69 19.70L119.85 19.86L119.74 19.74Q119.98 17.51 119.94 16.63L120.07 16.76L119.91 16.60Q120.00 14.86 118.82 13.95L118.84 13.97L118.42 13.74L118.41 13.73Q118.21 13.04 117.29 12.39L117.22 12.32L117.24 12.33Q115.06 11.45 110.27 11.30L110.12 11.15L110.17 11.21Q109.36 11.34 106.92 11.34L106.76 11.18L106.76 11.18Q105.10 11.27 103.61 11.95L103.58 11.92L103.63 11.97Q102.48 12.76 102.55 14.59L102.57 14.60L102.59 14.62Q102.64 15.40 102.83 17.42L102.99 17.57L102.88 17.47Q103.47 20.08 103.74 20.91L103.76 20.94L103.85 21.02Q104.34 22.80 105.29 24.10L105.29 24.10L105.39 24.20Q105.60 24.49 105.98 24.87L106.05 24.93L105.90 24.79Q106.24 25.32 106.89 26.23L106.86 26.20L106.91 26.26Q108.34 27.57 110.28 27.76L110.30 27.78L110.37 27.85Q108.36 30.41 106.80 32.31L106.83 32.34L103.22 36.73L103.28 36.78Q105.52 36.01 107.15 35.67L107.05 35.57L107.06 35.58Q106.26 36.42 104.70 38.13L104.85 38.28L104.75 38.18Q107.94 37.37 111.06 37.34L110.94 37.21L110.98 37.25Q113.33 34.69 117.67 27.46L117.55 27.34L117.62 27.49L117.54 27.41Q117.94 26.81 118.28 26.32ZM112.24 17.04L112.31 17.11L112.25 17.05Q112.84 16.92 113.29 17.03L113.30 17.03L113.36 17.10Q114.00 17.21 114.38 17.32L114.37 17.31L114.42 17.35Q114.42 17.62 114.49 18.04L114.51 18.06L114.60 18.15Q114.67 18.56 114.55 18.94L114.54 18.92L114.56 18.94Q114.43 20.56 113.25 21.67L113.22 21.63L113.17 21.58Q112.38 22.78 110.74 22.74L110.69 22.69L110.64 22.64Q110.31 22.73 108.79 22.43L108.80 22.43L108.74 22.37Q108.41 21.40 108.41 20.68L108.54 20.80L108.46 20.72Q108.45 20.52 108.45 20.30L108.43 20.28L108.33 20.17Q108.51 18.15 110.80 17.35L110.77 17.33L110.66 17.21Q111.44 17.07 112.27 17.07Z"/><path fill="#111" d="M145.15 23.70L145.14 23.69L139.31 23.84L139.18 23.71Q136.29 23.79 133.36 23.71L133.29 23.65L133.33 23.69Q133.39 30.33 131.34 35.85L131.40 35.91L131.53 36.04Q129.64 36.48 127.89 37.17L127.77 37.05L127.96 37.23Q130.68 31.47 130.68 24.80L130.60 24.72L130.55 24.68Q130.59 16.23 126.48 9.18L126.55 9.26L126.60 9.30Q128.10 10.08 130.58 10.88L130.50 10.80L130.51 10.82Q132.63 15.87 133.16 20.74L133.11 20.68L133.26 20.83Q136.30 21.10 139.16 21.06L139.28 21.18L139.22 21.12Q141.81 21.05 145.13 20.78L145.15 20.81L145.20 20.86Q145.74 16.52 147.49 11.42L147.43 11.36L147.38 11.31Q149.33 10.90 151.57 10.06L151.63 10.12L151.53 10.02Q148.05 16.89 148.05 24.85L148.03 24.83L147.95 24.75Q147.92 30.93 150.28 36.26L150.44 36.42L150.34 36.32Q148.76 35.73 146.71 35.42L146.75 35.47L146.79 35.50Q145.11 30.48 145.23 23.78ZM146.44 35.77L146.48 35.81L146.50 35.82Q147.40 35.85 148.50 36.11L148.60 36.22L148.51 36.13Q148.91 36.91 149.56 38.39L149.51 38.35L149.50 38.33Q152.98 39.42 154.77 40.33L154.66 40.21L154.60 40.16Q150.34 34.18 150.03 25.92L149.87 25.76L149.89 25.78Q149.67 17.83 153.33 11.02L153.35 11.04L152.26 11.48L152.18 11.40Q151.68 11.62 151.08 11.77L151.07 11.77L151.17 11.87Q151.45 10.93 152.28 9.36L152.34 9.42L152.42 9.51Q149.74 10.52 147.11 11.01L147.11 11.01L147.17 11.06Q145.44 15.84 144.98 20.53L144.88 20.43L144.89 20.43Q142.43 20.68 139.99 20.68L140.05 20.74L140.08 20.77Q137.55 20.63 135.03 20.48L135.13 20.57L135.07 20.51Q134.96 17.36 133.86 13.28L133.77 13.20L133.84 13.27Q133.17 13.17 131.72 12.79L131.57 12.64L131.66 12.73Q131.24 11.47 130.79 10.44L130.85 10.51L130.85 10.51Q128.05 9.68 125.76 8.43L125.79 8.45L125.88 8.55Q130.37 15.89 130.37 24.69L130.29 24.61L130.45 24.76Q130.42 31.69 127.29 37.82L127.22 37.75L127.22 37.75Q128.03 37.57 129.36 37.00L129.24 36.88L129.36 37.00Q128.93 37.74 128.13 39.27L128.15 39.29L128.07 39.21Q130.96 38.29 133.20 37.87L133.13 37.80L133.23 37.90Q134.99 32.24 135.18 26.07L135.21 26.09L135.29 26.18Q136.97 26.18 140.17 26.14L140.08 26.05L140.01 25.98Q143.02 26.10 144.92 26.17L144.92 26.17L144.79 26.05Q145.13 31.86 146.46 35.78Z"/></svg>