<svg xmlns="http://www.w3.org/2000/svg" width="200" height="40" viewBox="0,0,200,40"><path fill="#444" d="M166.54 35.23L166.44 35.13L166.54 35.24Q162.99 35.26 161.35 34.72L161.39 34.76L161.43 34.80Q159.37 34.08 159.07 30.69L159.13 30.75L160.65 29.76L160.62 29.73Q161.22 29.08 161.99 28.58L162.15 28.74L162.00 28.60Q161.91 30.68 163.51 31.89L163.41 31.80L163.50 31.89Q164.69 32.81 166.82 32.62L166.81 32.61L166.74 32.54Q171.30 32.30 171.11 28.76L170.96 28.61L171.10 28.75Q170.82 26.38 168.19 25.16L168.29 25.25L168.23 25.19Q165.43 24.19 163.07 22.97L163.03 22.93L162.99 22.89Q160.41 21.52 159.42 16.84L159.40 16.82L159.51 16.94Q159.31 16.40 159.20 15.63L159.32 15.75L159.30 15.74Q159.28 15.03 159.35 14.45L159.25 14.35L159.30 14.40Q159.39 12.74 160.65 12.28L160.67 12.31L160.70 12.34Q163.01 11.37 167.00 11.56L167.06 11.62L167.14 11.69Q168.94 11.78 169.73 11.85L169.74 11.86L169.79 11.91Q171.12 11.95 172.19 12.40L172.22 12.44L172.33 12.55Q174.40 12.98 174.63 15.45L174.56 15.39L174.49 15.32Q173.49 16.06 171.28 17.40L171.27 17.38L171.27 17.38Q170.83 14.36 166.45 14.36L166.63 14.54L166.52 14.42Q164.54 14.35 163.55 15.04L163.59 15.08L163.60 15.08Q162.51 15.67 162.73 17.45L162.61 17.33L162.69 17.41Q162.95 19.61 165.92 21.14L166.01 21.23L165.84 21.06Q166.53 21.44 171.02 23.08L170.89 22.94L171.03 23.08Q173.63 24.54 174.05 28.92L174.03 28.90L173.93 28.80Q174.06 29.08 174.13 30.34L174.11 30.32L174.01 30.22Q174.09 33.00 172.53 34.10L172.54 34.11L172.58 34.16Q170.76 35.16 166.58 35.27ZM168.92 37.69L168.93 37.70L168.78 37.55Q170.39 37.78 172.37 37.78L172.38 37.80L172.31 37.73Q174.38 37.71 175.64 37.29L175.54 37.19L175.62 37.27Q176.89 36.48 176.81 34.69L176.74 34.62L176.79 34.67Q176.77 33.70 176.39 31.64L176.45 31.71L176.43 31.68Q175.45 26.94 173.36 25.07L173.28 25.00L173.31 25.03Q172.63 23.54 171.30 22.82L171.22 22.74L165.85 20.61L165.99 20.75Q165.68 20.59 165.23 20.37L165.14 20.28L165.08 19.96L164.96 19.49L165.07 19.60Q164.77 18.05 165.91 17.44L165.91 17.43L166.01 17.53Q166.81 17.00 168.52 16.81L168.46 16.75L168.39 16.68Q169.67 16.70 170.82 17.16L170.71 17.05L170.84 17.18Q170.77 17.15 170.96 17.99L170.95 17.98L171.01 18.04Q171.28 17.97 171.78 17.74L171.74 17.70L171.66 17.62Q172.39 18.54 172.50 19.69L172.56 19.75L172.63 19.82Q172.70 19.77 176.36 17.18L176.31 17.14L176.30 17.12Q176.05 14.52 174.60 13.83L174.56 13.78L174.59 13.82Q174.09 12.63 172.65 12.10L172.53 11.98L172.56 12.01Q170.20 11.14 167.00 11.14L167.03 11.16L167.17 11.30Q162.07 11.12 160.20 11.80L160.35 11.95L160.23 11.83Q159.02 12.41 158.91 14.08L158.91 14.09L158.87 14.05Q158.88 14.63 159.30 16.84L159.29 16.83L159.33 16.86Q159.93 20.55 162.10 22.80L162.07 22.77L162.05 22.75Q162.98 24.59 164.48 25.27L164.35 25.14L164.31 25.10Q165.85 25.83 169.77 27.39L169.84 27.46L169.69 27.35L170.43 27.78L170.42 27.80L170.48 27.87Q170.68 28.33 170.71 28.67L170.73 28.69L170.76 28.71Q170.67 32.01 166.75 32.17L166.88 32.30L166.84 32.26Q165.68 32.27 164.38 31.89L164.27 31.78L164.39 31.90Q164.08 31.09 164.08 30.37L164.01 30.30L164.13 30.43Q164.13 30.15 164.17 29.89L164.09 29.81L164.06 29.78Q163.70 30.07 162.90 30.56L162.89 30.56L162.91 30.58Q162.32 29.38 162.47 28.01L162.48 28.01L162.53 28.07Q160.40 29.21 158.80 30.62L158.77 30.58L158.85 30.67Q158.88 31.46 158.96 32.49L158.88 32.41L158.92 32.45Q159.24 34.17 160.53 34.93L160.60 35.00L160.64 35.05Q161.84 36.85 164.39 37.23L164.42 37.26L164.42 37.26Q166.02 37.53 168.95 37.72Z"/><path d="M18 35 C81 6,103 2,179 37" stroke="#111" fill="none"/><path fill="#111" d="M73.75 33.94L73.68 33.87L73.78 33.97Q75.53 31.46 80.29 24.19L80.37 24.27L80.46 24.36Q84.42 18.08 87.28 14.81L87.35 14.88L87.23 14.76Q85.22 15.15 83.12 15.15L83.15 15.17L83.15 15.17Q77.87 15.14 73.87 13.35L73.87 13.36L73.91 13.39Q73.11 11.34 72.42 9.78L72.56 9.91L72.55 9.90Q77.05 12.01 82.73 12.12L82.81 12.21L82.73 12.13Q87.85 12.18 93.03 10.28L93.10 10.35L93.13 10.38Q92.58 11.04 92.27 11.84L92.43 12.00L91.85 13.60L91.81 13.56Q88.60 17.05 84.61 22.87L84.67 22.94L81.44 27.85L81.31 27.73Q79.78 30.31 77.96 32.59L77.87 32.51L77.85 32.48Q81.25 31.96 84.56 32.03L84.50 31.98L84.55 32.02Q87.87 32.12 91.03 33.03L91.02 33.02L91.57 34.67L91.45 34.55Q91.80 35.47 92.15 36.31L92.15 36.32L92.02 36.19Q87.40 34.65 82.26 34.84L82.33 34.91L82.20 34.78Q77.14 35.05 72.65 37.07L72.68 37.10L72.69 37.11Q73.04 36.01 73.76 33.96ZM72.09 37.80L72.07 37.78L72.04 37.75Q73.19 37.07 73.99 36.81L74.16 36.98L74.02 36.84Q73.84 37.69 73.16 39.21L73.19 39.24L73.08 39.13Q78.86 37.07 84.84 37.30L84.86 37.33L84.82 37.29Q91.21 37.58 96.23 40.36L96.07 40.20L96.16 40.28Q94.74 37.88 93.94 35.71L93.94 35.70L93.92 35.69Q93.53 35.56 92.00 34.99L91.94 34.92L92.03 35.02Q91.80 34.21 91.38 32.73L91.32 32.67L91.37 32.71Q87.08 31.40 81.98 31.59L82.12 31.73L82.07 31.68Q84.28 29.02 87.82 23.46L87.69 23.33L87.75 23.38Q91.41 17.68 93.31 15.13L93.29 15.10L93.29 15.11Q93.74 13.66 94.77 10.95L94.85 11.04L94.76 10.94Q94.07 11.28 92.62 11.89L92.69 11.96L92.62 11.89Q93.01 11.14 93.73 9.61L93.71 9.59L93.67 9.55Q88.49 11.83 82.78 11.76L82.71 11.69L82.67 11.64Q76.73 11.57 71.78 9.05L71.77 9.04L71.89 9.16Q73.00 11.49 73.72 13.74L73.59 13.60L73.60 13.62Q74.85 14.29 75.65 14.52L75.60 14.47L75.64 14.52Q75.81 15.10 76.08 16.55L76.08 16.55L76.20 16.67Q79.82 17.63 84.70 17.44L84.77 17.52L84.76 17.51Q82.22 20.56 78.91 25.55L78.90 25.54L73.52 34.02L73.52 34.02Q73.10 35.24 72.08 37.79Z"/><path d="M13 21 C79 34,90 23,182 36" stroke="#555" fill="none"/><path fill="#222" d="M46.96 10.80L46.93 10.77L47.06 10.90Q48.90 15.72 49.47 20.90L49.49 20.92L49.52 20.94Q53.22 16.80 59.12 11.97L59.11 11.95L59.18 12.02Q62.20 11.54 64.82 10.74L64.96 10.87L58.44 16.54L58.38 16.48Q54.84 19.30 51.98 22.15L52.03 22.19L52.16 22.32Q60.13 31.48 65.19 36.20L65.05 36.05L65.13 36.13Q61.96 35.13 59.63 34.98L59.65 34.99L59.66 35.00Q53.99 29.71 49.68 23.89L49.53 23.73L49.62 23.82Q49.70 30.42 47.84 35.74L47.87 35.78L47.89 35.80Q47.64 35.81 47.14 36.00L47.19 36.05L47.17 36.22L47.18 36.23Q46.85 36.13 44.30 37.04L44.32 37.07L44.30 37.04Q47.33 30.55 46.98 23.09L46.87 22.97L46.84 22.95Q46.63 15.73 43.08 9.22L43.16 9.29L43.64 9.50L44.00 9.75L44.10 9.82L44.09 9.80Q44.86 10.23 47.07 10.92ZM47.25 10.53L47.23 10.51L47.25 10.53Q45.08 10.07 42.45 8.55L42.33 8.42L42.35 8.44Q46.62 15.72 46.62 24.66L46.66 24.70L46.61 24.66Q46.74 31.79 43.77 37.85L43.62 37.70L45.76 36.94L45.68 36.86Q45.29 37.88 44.60 39.17L44.69 39.26L44.75 39.32Q46.88 38.41 48.83 37.99L48.83 37.99L48.92 37.85L48.94 37.87Q49.15 37.78 49.72 37.63L49.69 37.59L49.82 37.73Q51.45 31.78 51.56 26.98L51.51 26.93L51.46 26.88Q53.62 29.46 55.45 31.33L55.35 31.23L55.48 31.35Q56.60 32.40 59.60 35.37L59.61 35.37L59.73 35.49L59.66 35.43Q60.69 36.27 62.56 37.86L62.55 37.85L62.45 37.76Q66.37 38.52 69.84 40.23L69.95 40.35L69.83 40.23Q60.58 31.70 54.34 24.28L54.29 24.23L54.28 24.21Q58.83 20.09 67.58 11.48L67.55 11.45L67.51 11.41Q65.03 12.62 63.01 13.00L62.94 12.93L62.92 12.91Q64.21 12.00 66.54 9.98L66.43 9.87L66.57 10.01Q62.33 11.29 58.98 11.48L59.02 11.52L58.98 11.48Q56.08 13.72 51.21 18.40L51.19 18.39L51.28 18.48Q50.78 15.77 50.21 13.22L50.26 13.27L50.30 13.31Q49.16 13.20 48.17 12.86L48.08 12.76L48.09 12.77Q47.88 12.03 47.31 10.58Z"/><path fill="#444" d="M25.36 24.18L25.32 24.13L25.26 24.08Q23.52 24.05 22.29 25.48L22.21 25.40L22.32 25.51Q21.03 26.88 20.84 28.79L20.87 28.82L20.72 28.67Q20.62 30.85 21.70 31.82L21.75 31.87L21.62 31.74Q22.81 32.82 24.91 32.71L24.86 32.66L24.89 32.68Q26.99 32.54 28.09 31.85L28.03 31.79L28.00 31.77Q29.11 30.63 29.11 29.07L29.12 29.08L29.24 29.20Q29.11 28.68 29.03 28.30L29.20 28.47L29.14 28.41Q29.22 26.74 28.11 25.39L28.00 25.28L28.14 25.42Q27.05 24.07 25.37 24.19ZM24.88 35.23L24.91 35.26L24.88 35.23Q20.51 35.24 19.10 34.48L19.09 34.46L19.04 34.42Q18.10 33.74 17.91 32.03L17.79 31.91L17.94 32.06Q17.83 31.30 17.86 30.57L17.81 30.52L17.91 30.62Q17.94 29.55 17.94 29.09L18.07 29.22L17.97 29.11Q18.53 26.36 18.68 25.68L18.69 25.69L18.58 25.57Q18.99 23.59 19.83 22.18L19.84 22.19L19.85 22.21Q22.62 17.93 28.56 11.58L28.42 11.44L28.51 11.53Q31.19 11.23 33.40 10.43L33.42 10.46L33.39 10.42Q26.49 17.84 23.29 22.06L23.40 22.18L23.31 22.09Q24.39 21.68 25.68 21.68L25.61 21.61L25.56 21.55Q28.83 21.51 30.35 23.46L30.44 23.54L30.37 23.47Q31.79 25.20 32.14 28.74L32.16 28.77L32.14 28.74Q32.14 29.39 32.14 30.00L32.12 29.99L32.28 30.14Q32.10 33.08 29.89 34.15L30.06 34.32L30.07 34.32Q28.67 34.76 24.79 35.14ZM27.09 37.55L27.21 37.67L27.10 37.56Q28.47 37.60 30.45 37.68L30.39 37.62L30.37 37.60Q32.17 37.84 33.73 37.12L33.62 37.00L33.60 36.98Q34.72 36.20 34.72 34.41L34.72 34.41L34.75 34.44Q34.74 33.94 34.57 32.95L34.52 32.90L34.54 32.91Q34.34 31.90 34.34 31.44L34.40 31.50L34.37 31.47Q33.53 26.79 31.93 24.88L32.02 24.97L31.88 24.83Q31.83 24.75 31.68 24.52L31.69 24.53L31.46 24.38L31.28 24.23L31.34 24.29Q31.04 23.83 30.43 22.88L30.32 22.77L30.27 22.73Q29.43 21.85 27.45 21.39L27.46 21.40L27.50 21.44Q28.61 19.73 31.58 16.04L31.65 16.11L35.97 10.91L35.89 10.84Q34.35 11.73 31.95 12.49L31.96 12.50L31.84 12.38Q32.75 11.39 34.54 9.41L34.62 9.49L34.59 9.46Q32.25 10.59 28.37 11.16L28.41 11.20L28.40 11.19Q22.71 17.11 19.74 22.06L19.68 22.00L19.76 22.08Q18.23 24.58 17.66 30.82L17.51 30.68L17.48 30.64Q17.58 31.39 17.65 32.34L17.53 32.22L17.67 32.35Q17.61 33.97 18.71 34.88L18.83 35.00L18.79 34.96Q19.17 35.12 19.13 35.16L19.14 35.16L19.07 35.10Q19.41 35.97 20.21 36.38L20.34 36.51L20.32 36.49Q21.81 37.22 23.75 37.41L23.75 37.41L23.69 37.35Q23.58 37.24 27.09 37.55ZM26.93 26.39L26.98 26.44L26.89 26.35Q27.56 26.33 28.51 26.83L28.45 26.77L28.55 26.87Q28.86 27.78 28.86 28.43L28.79 28.36L28.86 28.43Q29.09 30.34 28.13 31.33L27.97 31.16L28.00 31.19Q26.89 31.87 24.79 32.17L24.88 32.26L24.87 32.25Q23.49 32.32 22.96 32.05L22.93 32.02L22.83 31.92Q22.69 31.51 22.69 31.21L22.76 31.28L22.77 31.29Q22.49 27.97 25.42 26.68L25.33 26.58L25.35 26.60Q26.16 26.30 26.92 26.38Z"/><path fill="#333" d="M109.93 35.19L110.04 35.31L109.88 35.14Q106.46 35.30 104.82 34.77L104.96 34.90L104.90 34.85Q102.96 34.24 102.66 30.85L102.52 30.71L104.10 29.78L104.06 29.74Q104.67 29.10 105.43 28.60L105.47 28.64L105.46 28.63Q105.30 30.64 106.90 31.86L106.77 31.73L106.80 31.76Q108.05 32.74 110.18 32.55L110.32 32.69L110.28 32.65Q114.59 32.17 114.40 28.63L114.51 28.73L114.37 28.60Q114.32 26.45 111.69 25.23L111.70 25.24L111.65 25.19Q108.89 24.22 106.53 23.00L106.56 23.03L106.53 23.00Q103.98 21.67 102.99 16.98L102.94 16.93L102.91 16.91Q102.90 16.55 102.78 15.79L102.77 15.77L102.70 15.70Q102.56 14.88 102.64 14.31L102.72 14.39L102.64 14.31Q102.85 12.77 104.10 12.31L104.15 12.36L104.05 12.26Q106.50 11.44 110.50 11.63L110.51 11.64L110.55 11.67Q112.38 11.79 113.18 11.87L113.06 11.76L113.05 11.74Q114.62 12.02 115.69 12.47L115.77 12.56L115.63 12.42Q117.81 12.96 118.04 15.44L117.99 15.39L117.90 15.30Q117.05 16.19 114.84 17.53L114.76 17.45L114.80 17.49Q114.26 14.36 109.88 14.36L109.99 14.47L110.04 14.52Q108.10 14.48 107.11 15.17L107.13 15.19L107.05 15.11Q105.99 15.72 106.21 17.51L106.04 17.33L106.21 17.50Q106.40 19.63 109.37 21.15L109.26 21.05L109.40 21.19Q109.92 21.40 114.41 23.04L114.39 23.02L114.42 23.05Q116.96 24.45 117.38 28.82L117.33 28.78L117.33 28.77Q117.35 28.94 117.42 30.20L117.55 30.33L117.55 30.33Q117.67 33.15 116.11 34.25L116.02 34.16L115.98 34.12Q114.12 35.08 109.93 35.20ZM112.38 37.72L112.25 37.59L112.27 37.61Q113.69 37.66 115.67 37.66L115.75 37.74L115.77 37.76Q117.83 37.73 119.09 37.31L119.15 37.38L119.10 37.32Q120.22 36.39 120.14 34.60L120.30 34.75L120.16 34.62Q120.25 33.75 119.87 31.70L119.71 31.54L119.76 31.59Q118.95 27.00 116.85 25.14L116.72 25.00L116.80 25.08Q115.97 23.45 114.63 22.73L114.74 22.83L109.35 20.68L109.44 20.77Q109.09 20.57 108.63 20.34L108.64 20.35L108.38 19.83L108.34 19.44L108.35 19.45Q108.22 18.06 109.36 17.45L109.36 17.45L109.47 17.56Q110.12 16.88 111.83 16.69L111.93 16.79L112.00 16.86Q113.02 16.62 114.16 17.08L114.14 17.06L114.19 17.11Q114.29 17.24 114.48 18.08L114.51 18.11L114.43 18.03Q114.65 17.91 115.14 17.68L115.06 17.60L115.06 17.60Q115.81 18.53 115.92 19.68L115.99 19.75L115.99 19.74Q116.06 19.70 119.72 17.11L119.64 17.04L119.63 17.03Q119.53 14.57 118.08 13.88L117.91 13.71L117.91 13.71Q117.46 12.57 116.02 12.04L116.00 12.03L115.97 12.00Q113.67 11.19 110.48 11.19L110.42 11.13L110.54 11.25Q105.65 11.27 103.78 11.95L103.80 11.97L103.82 11.99Q102.42 12.38 102.31 14.06L102.37 14.12L102.23 13.98Q102.30 14.62 102.72 16.83L102.73 16.84L102.68 16.79Q103.36 20.55 105.53 22.80L105.51 22.78L105.59 22.86Q106.39 24.57 107.89 25.26L107.84 25.21L107.83 25.20Q109.37 25.91 113.29 27.48L113.16 27.35L113.14 27.37L113.97 27.89L113.96 27.91L113.96 27.91Q114.01 28.23 114.04 28.57L114.21 28.74L114.20 28.73Q114.21 32.12 110.29 32.28L110.21 32.20L110.34 32.33Q109.00 32.17 107.71 31.79L107.80 31.88L107.79 31.87Q107.52 31.11 107.52 30.39L107.50 30.36L107.49 30.35Q107.42 30.01 107.45 29.75L107.53 29.83L107.45 29.74Q107.09 30.04 106.29 30.53L106.23 30.46L106.30 30.53Q105.82 29.45 105.97 28.08L106.02 28.13L105.96 28.06Q103.97 29.35 102.37 30.76L102.27 30.66L102.31 30.69Q102.37 31.52 102.45 32.55L102.30 32.40L102.42 32.52Q102.78 34.28 104.07 35.04L103.95 34.92L104.08 35.06Q105.31 36.89 107.86 37.27L107.89 37.30L107.89 37.31Q109.28 37.36 112.21 37.55Z"/><path fill="#333" d="M136.38 21.76L136.47 21.85L136.37 21.75Q138.22 21.97 140.05 21.97L140.09 22.01L140.10 22.02Q141.84 21.97 143.67 21.82L143.62 21.77L143.65 21.80Q143.54 22.45 143.54 23.18L143.53 23.17L143.54 24.51L143.50 24.47Q141.11 24.44 136.35 24.55L136.35 24.56L136.41 24.62Q136.45 30.60 135.31 35.58L135.35 35.62L135.34 35.61Q133.17 36.33 131.68 37.13L131.59 37.04L131.68 37.13Q133.93 30.24 133.66 23.12L133.57 23.03L133.65 23.11Q133.31 15.88 130.65 9.22L130.73 9.31L130.82 9.39Q134.44 11.87 139.20 12.10L139.17 12.07L139.16 12.06Q143.83 12.24 147.98 10.49L147.95 10.45L148.06 10.57Q147.70 11.31 147.47 12.11L147.52 12.15L147.07 13.81L147.03 13.76Q144.19 14.73 141.22 14.88L141.36 15.02L141.34 15.01Q138.33 15.07 135.48 14.35L135.43 14.31L135.54 14.42Q136.34 17.92 136.53 21.91ZM148.72 9.89L148.61 9.78L148.66 9.83Q144.08 11.99 139.20 11.68L139.23 11.71L139.09 11.57Q133.91 11.42 130.18 8.56L130.04 8.42L130.04 8.42Q133.07 15.52 133.37 23.13L133.30 23.06L133.35 23.11Q133.61 30.98 131.09 37.76L131.15 37.82L131.08 37.74Q131.77 37.37 133.14 36.73L133.03 36.62L133.15 36.73Q132.88 37.41 132.31 38.94L132.33 38.96L132.45 39.08Q134.71 37.95 137.60 37.45L137.65 37.50L137.68 37.53Q138.25 32.62 138.44 26.91L138.38 26.85L138.41 26.88Q140.09 26.74 141.92 26.74L142.08 26.89L141.98 26.79Q143.88 26.90 145.70 27.09L145.62 27.01L145.66 27.04Q145.58 26.13 145.58 25.22L145.55 25.19L145.42 23.15L145.41 23.15Q144.84 23.45 144.00 23.45L143.82 23.27L143.93 23.37Q143.99 22.56 144.06 21.53L144.05 21.52L144.06 21.53Q142.61 21.63 141.20 21.63L141.12 21.56L141.17 21.61Q139.85 21.70 138.48 21.66L138.41 21.59L138.36 19.41L138.39 19.43Q138.21 18.19 138.10 17.13L138.27 17.30L138.29 17.32Q139.26 17.37 140.25 17.37L140.18 17.30L140.25 17.37Q144.99 17.35 148.60 15.45L148.48 15.33L148.48 15.33Q149.14 13.66 150.05 11.04L149.88 10.86L149.87 10.85Q148.59 11.70 147.79 12.04L147.77 12.02L147.90 12.16Q148.15 11.38 148.65 9.82Z"/></svg>