<svg xmlns="http://www.w3.org/2000/svg" width="200" height="40" viewBox="0,0,200,40"><path fill="#222" d="M140.19 35.17L140.05 35.03L138.07 35.33L138.10 35.37Q137.60 35.32 136.63 35.38L136.52 35.27L136.58 35.32Q135.61 35.39 135.12 35.39L135.20 35.47L135.14 35.41Q133.54 35.45 132.51 34.61L132.52 34.62L132.48 34.58Q133.21 33.41 134.85 31.27L134.98 31.41L134.83 31.26Q136.14 32.87 138.35 32.64L138.30 32.60L138.38 32.67Q139.28 32.55 139.93 31.90L140.03 32.00L139.94 31.91Q140.55 31.23 140.44 30.36L140.57 30.48L140.40 30.32Q140.29 25.71 140.36 21.14L140.44 21.22L140.45 21.23Q140.47 16.61 141.00 12.00L140.95 11.95L141.00 11.99Q143.00 11.87 145.13 10.84L145.07 10.77L145.14 10.84Q143.16 17.47 143.16 24.70L143.31 24.85L143.17 24.71Q143.30 28.38 143.76 31.88L143.71 31.84L143.68 31.80Q143.75 32.14 143.75 32.49L143.76 32.50L143.68 32.42Q143.77 33.07 143.54 33.61L143.52 33.59L143.42 33.49Q142.94 34.84 140.13 35.11ZM145.17 38.06L145.03 37.92L145.50 38.04L145.68 37.80L146.04 37.79L146.03 37.77Q146.26 37.43 146.34 37.32L146.42 37.40L146.30 37.29Q146.56 36.18 146.30 35.19L146.26 35.15L146.17 35.06Q144.88 29.31 145.15 22.96L145.20 23.01L145.17 22.98Q145.46 16.91 147.25 11.01L147.25 11.01L147.23 10.99Q146.26 11.55 145.00 12.27L145.08 12.35L145.16 12.42Q145.34 11.65 145.76 10.13L145.68 10.05L145.72 10.09Q143.12 11.34 140.45 11.64L140.49 11.68L140.53 11.72Q140.14 16.08 140.06 21.03L140.13 21.10L140.16 21.13Q139.99 26.93 140.06 30.36L140.10 30.39L140.10 30.39Q140.04 32.05 138.29 32.20L138.41 32.33L138.43 32.34Q136.62 32.36 134.94 30.72L135.05 30.83L134.91 30.69Q132.86 33.21 131.91 34.77L131.90 34.76L132.08 34.94Q132.71 35.57 133.74 35.80L133.61 35.67L133.58 35.64Q133.58 35.87 133.31 36.10L133.32 36.10L133.31 36.10Q134.83 37.12 136.81 37.39L136.73 37.30L136.68 37.26Q137.23 37.46 140.52 37.76L140.44 37.68L140.38 37.62Q143.75 38.01 145.12 38.01Z"/><path d="M3 3 C80 26,86 35,186 6" stroke="#333" fill="none"/><path fill="#222" d="M164.21 35.43L164.07 35.30L164.19 35.41Q160.07 35.60 159.08 33.28L159.12 33.31L159.08 33.27Q159.83 32.31 161.40 30.53L161.36 30.49L161.32 30.45Q161.94 32.59 164.94 32.70L165.01 32.77L164.85 32.61Q168.31 32.76 169.95 31.43L169.91 31.38L170.01 31.49Q171.29 29.76 171.21 27.06L171.22 27.06L171.26 27.11Q171.18 22.11 166.38 22.34L166.25 22.20L166.39 22.35Q163.44 22.36 161.68 23.62L161.66 23.60L161.50 23.59L161.31 23.47L161.16 23.32Q161.55 20.21 161.44 17.47L161.55 17.59L161.38 17.42Q161.32 14.84 160.97 11.53L160.99 11.55L161.00 11.55Q164.65 12.50 168.45 12.38L168.45 12.38L168.47 12.40Q172.21 12.26 175.79 11.00L175.89 11.10L175.31 12.62L175.22 12.53Q175.01 13.38 174.82 14.22L174.79 14.19L174.68 14.08Q171.61 15.16 167.73 15.16L167.86 15.29L167.74 15.17Q166.41 15.29 164.93 15.13L164.91 15.12L164.83 15.04Q164.82 15.79 164.48 20.25L164.35 20.12L164.37 20.13Q165.23 19.70 167.28 19.55L167.28 19.54L167.36 19.62Q171.02 19.78 172.46 21.45L172.53 21.53L172.41 21.41Q173.85 22.99 174.11 26.84L174.18 26.91L174.12 26.84Q174.43 31.07 173.21 33.09L173.28 33.16L173.15 33.03Q171.07 34.87 167.76 35.10L167.76 35.11L167.80 35.14Q166.84 35.24 164.17 35.40ZM170.25 37.71L170.28 37.73L170.29 37.75Q173.68 37.78 175.58 36.68L175.57 36.66L175.64 36.74Q176.49 35.08 176.49 32.98L176.53 33.02L176.56 33.05Q176.58 29.99 175.63 25.87L175.61 25.85L175.58 25.83Q175.25 24.12 174.03 22.71L173.99 22.68L174.08 22.80L173.76 22.41L173.46 22.27L173.47 22.27Q173.04 21.43 172.40 20.74L172.43 20.77L172.45 20.84L172.41 20.79Q170.87 19.10 167.18 19.10L167.36 19.28L167.09 19.28L166.96 19.15Q167.15 18.69 167.34 17.58L167.29 17.53L167.25 17.50Q172.28 17.66 176.32 16.02L176.39 16.09L176.30 16.00Q176.68 14.56 177.63 11.74L177.76 11.87L175.55 12.70L175.48 12.63Q176.00 11.63 176.50 10.49L176.55 10.54L176.41 10.40Q172.63 11.91 168.52 11.99L168.56 12.03L168.43 11.90Q164.31 12.01 160.35 10.90L160.43 10.98L160.36 10.91Q161.16 15.45 161.16 19.86L161.16 19.86L161.05 19.75Q161.09 21.69 160.98 23.60L160.93 23.55L161.00 23.62Q161.20 23.74 161.77 24.04L161.86 24.14L161.87 24.15Q162.20 23.91 162.85 23.57L162.75 23.46L162.83 23.54Q162.72 24.23 162.49 25.76L162.55 25.81L162.54 25.81Q163.06 26.10 163.48 26.33L163.30 26.15L163.40 26.25Q166.20 24.51 168.06 24.51L168.05 24.51L167.96 24.41Q169.42 24.54 170.60 25.19L170.59 25.18L170.59 25.17Q170.93 26.20 170.97 27.15L170.85 27.04L170.84 27.03Q170.97 29.67 169.95 30.78L169.97 30.80L169.99 30.82Q168.66 32.08 166.41 32.30L166.41 32.30L166.29 32.19Q165.43 32.35 164.75 32.28L164.81 32.34L164.76 32.29Q163.96 32.21 163.20 31.87L163.09 31.76L163.00 31.49L162.98 31.69L162.91 31.62Q162.15 31.17 161.62 29.83L161.73 29.95L161.74 29.96Q160.28 31.24 158.61 33.37L158.67 33.44L158.69 33.46Q159.00 34.11 159.84 35.06L159.85 35.07L159.70 34.92Q160.77 36.75 163.59 37.25L163.71 37.37L163.60 37.26Q164.83 37.54 170.20 37.65Z"/><path fill="#333" d="M62.30 35.39L62.36 35.45L62.29 35.39Q59.28 31.46 56.65 22.82L56.71 22.88L56.75 22.92Q55.98 20.66 55.18 18.53L55.18 18.54L52.43 27.43L52.26 27.27Q50.49 32.23 48.10 35.47L48.09 35.46L48.13 35.51Q47.37 35.66 45.73 35.81L45.62 35.70L45.60 35.68Q45.76 34.54 45.76 33.28L45.72 33.24L45.70 33.23Q45.81 27.33 43.07 21.20L43.04 21.16L42.93 21.05Q39.82 14.17 33.96 9.19L34.04 9.27L33.96 9.19Q36.13 9.92 38.49 10.45L38.53 10.49L38.46 10.42Q47.28 19.01 48.57 29.97L48.59 29.99L48.48 29.88Q50.08 26.53 51.53 21.16L51.55 21.18L51.56 21.20Q53.61 13.76 54.10 12.35L53.97 12.22L56.31 12.31L56.40 12.41Q56.98 14.32 57.63 16.64L57.63 16.64L58.83 21.04L58.92 21.13Q60.39 26.48 61.80 29.72L61.80 29.72L61.84 29.76Q63.62 18.25 71.54 10.91L71.51 10.88L71.47 10.84Q73.05 10.55 76.02 9.90L75.96 9.85L75.88 9.76Q70.68 14.19 67.63 20.32L67.59 20.29L67.52 20.21Q64.47 26.49 64.47 33.27L64.43 33.23L64.48 33.27Q64.49 34.39 64.57 35.53L64.59 35.56L63.38 35.37L63.39 35.39Q62.91 35.44 62.34 35.44ZM68.61 38.35L68.55 38.29L68.46 38.21Q67.24 34.67 67.36 30.79L67.46 30.89L67.43 30.86Q67.65 19.20 77.02 10.94L77.09 11.01L77.16 11.08Q76.04 11.15 74.10 11.68L74.15 11.73L74.14 11.72Q75.23 11.02 77.13 9.23L77.09 9.19L77.01 9.11Q74.49 10.01 71.56 10.51L71.47 10.42L71.41 10.36Q63.94 17.51 62.04 26.99L61.99 26.94L62.05 27.00Q61.41 25.30 58.56 13.84L58.70 13.99L58.56 13.85Q58.12 13.89 57.17 13.89L57.20 13.93L57.05 13.02L56.98 12.94Q56.85 12.40 56.62 11.90L56.57 11.86L53.64 11.81L53.70 11.87Q52.80 14.25 51.53 19.37L51.51 19.35L51.69 19.53Q50.30 24.54 49.31 27.01L49.26 26.96L49.32 27.03Q47.72 19.10 42.16 12.78L42.14 12.77L42.12 12.75Q41.69 12.73 40.73 12.54L40.86 12.66L40.85 12.66Q40.05 11.74 38.49 10.10L38.41 10.02L38.58 10.20Q35.17 9.37 33.00 8.58L33.01 8.58L32.99 8.57Q38.63 13.21 41.90 19.42L41.94 19.45L41.82 19.33Q45.25 25.93 45.25 32.93L45.42 33.09L45.37 33.05Q45.25 34.49 45.06 36.09L45.13 36.15L45.18 36.21Q45.30 36.10 45.76 36.01L45.75 36.00L45.74 35.98Q46.35 36.05 46.58 36.05L46.43 35.90L46.51 37.00L46.50 36.99Q46.45 37.41 46.53 37.94L46.57 37.98L46.66 38.07Q47.80 37.99 50.08 37.84L50.03 37.79L49.96 37.72Q53.63 32.37 56.37 22.96L56.35 22.94L56.47 23.06Q59.11 31.71 62.08 35.67L62.19 35.78L62.17 35.76Q62.70 35.83 63.53 35.95L63.52 35.93L63.54 35.95Q64.33 36.93 65.40 38.00L65.42 38.02L65.34 37.94Q66.20 38.08 68.60 38.35Z"/><path d="M2 18 C108 27,98 28,181 8" stroke="#999" fill="none"/><path fill="#444" d="M110.15 24.10L110.17 24.13L110.18 24.14Q108.46 24.28 107.24 25.61L107.12 25.49L107.20 25.57Q105.83 26.76 105.68 28.66L105.82 28.80L105.69 28.67Q105.49 30.80 106.71 31.80L106.81 31.91L106.78 31.87Q107.94 32.82 110.07 32.75L110.15 32.83L110.15 32.83Q112.39 32.59 113.34 31.64L113.52 31.81L113.39 31.69Q114.40 30.22 114.29 28.39L114.41 28.52L114.30 28.41Q114.21 26.57 113.13 25.37L113.08 25.33L113.15 25.40Q112.13 24.26 110.31 24.26ZM110.24 14.79L110.17 14.73L110.27 14.82Q108.73 14.57 107.39 15.07L107.39 15.07L107.47 15.14Q106.06 15.83 106.29 17.70L106.30 17.71L106.38 17.78Q106.80 21.44 110.15 21.44L110.32 21.61L110.17 21.46Q111.81 21.74 112.80 20.59L112.83 20.62L112.76 20.55Q113.69 19.35 113.73 17.79L113.82 17.88L113.74 17.80Q113.82 16.05 113.10 15.44L113.14 15.49L113.24 15.58Q111.50 14.68 110.20 14.76ZM109.98 35.36L109.99 35.37L106.89 35.32L106.90 35.32Q105.34 35.29 104.01 34.42L104.03 34.43L103.96 34.36Q102.73 33.37 102.89 30.51L102.74 30.36L102.90 30.52Q103.32 23.64 106.94 22.65L106.88 22.59L106.98 22.68Q104.63 21.71 103.30 16.34L103.19 16.24L103.25 16.29Q102.93 14.91 103.01 14.11L102.99 14.09L102.91 14.01Q103.28 11.94 106.97 11.91L107.05 11.99L107.02 11.95Q111.20 11.84 112.65 12.03L112.72 12.10L112.68 12.06Q116.59 12.66 117.05 14.68L116.97 14.59L116.98 14.61Q117.11 15.23 117.11 15.61L117.07 15.57L117.17 15.67Q117.04 16.22 116.85 16.83L116.90 16.89L116.91 16.89Q116.30 21.13 113.37 22.65L113.38 22.66L113.42 22.69Q116.84 23.42 117.34 28.71L117.28 28.65L117.29 28.66Q117.39 28.91 117.43 30.21L117.45 30.23L117.46 30.24Q117.56 33.00 115.96 34.07L115.78 33.88L115.82 33.93Q114.41 34.76 109.84 35.22ZM112.28 37.69L112.12 37.54L115.49 37.64L115.48 37.63Q117.22 37.72 118.74 37.00L118.74 37.00L118.73 36.99Q119.95 36.34 120.03 34.48L119.96 34.42L120.00 34.45Q120.07 33.38 119.69 31.44L119.61 31.36L119.66 31.41Q118.80 26.82 116.71 24.95L116.66 24.91L116.47 24.53L116.25 24.23L116.06 23.92L116.12 23.98Q117.75 22.61 118.67 18.46L118.71 18.50L118.75 18.54Q118.68 18.09 118.76 17.26L118.71 17.21L118.66 17.16Q118.87 16.61 118.79 16.00L118.85 16.06L118.80 16.01Q118.69 14.60 117.51 14.11L117.40 14.00L117.52 14.08L117.25 13.89L117.18 13.82Q116.96 13.14 115.78 12.34L115.83 12.39L115.84 12.36L115.81 12.33Q113.94 11.76 109.87 11.57L109.77 11.47L109.90 11.60Q108.25 11.39 106.88 11.51L106.92 11.55L106.96 11.59Q106.12 11.59 104.83 11.74L104.77 11.68L104.86 11.77Q102.87 12.10 102.64 13.74L102.66 13.76L102.52 13.62Q102.54 14.17 102.57 14.97L102.60 15.00L102.64 15.03Q102.72 15.53 103.29 17.89L103.37 17.97L103.21 17.81Q104.04 21.08 105.79 22.41L105.86 22.48L105.89 22.51L106.03 22.65Q103.17 23.86 102.63 29.04L102.62 29.03L102.67 29.07Q102.43 31.24 102.43 32.15L102.42 32.13L102.51 32.22Q102.44 33.87 103.62 34.79L103.67 34.83L103.61 34.78Q103.89 35.02 104.16 35.21L104.12 35.17L104.09 35.14Q105.08 37.39 112.20 37.62ZM111.78 26.46L111.84 26.52L111.82 26.50Q112.85 26.54 113.73 27.00L113.58 26.85L113.66 26.93Q114.11 27.99 114.07 28.52L114.05 28.50L113.98 28.43Q114.09 28.81 114.09 29.11L114.09 29.11L114.11 29.13Q114.12 31.51 111.84 32.34L111.83 32.34L111.82 32.32Q110.93 32.54 110.13 32.42L110.21 32.50L110.20 32.49Q109.01 32.53 107.87 32.07L107.97 32.16L107.96 32.16Q107.62 31.44 107.70 30.45L107.76 30.52L107.70 30.45Q107.91 28.91 109.11 27.70L109.12 27.70L109.07 27.65Q110.31 26.47 111.90 26.58ZM112.01 16.98L112.17 17.14L112.14 17.11Q112.88 16.94 113.41 17.09L113.49 17.17L113.41 17.89L113.46 17.94Q113.47 19.36 112.56 20.36L112.55 20.36L112.44 20.25Q111.56 21.29 110.19 21.10L110.30 21.21L110.26 21.17Q109.21 21.11 108.79 20.88L108.88 20.97L108.90 20.99Q108.73 20.59 108.61 19.91L108.64 19.94L108.72 20.02Q108.40 18.55 109.62 17.71L109.59 17.69L109.60 17.70Q110.74 17.08 112.14 17.12Z"/><path fill="#222" d="M25.31 24.13L25.26 24.07L25.36 24.18Q23.41 23.94 22.18 25.37L22.29 25.48L22.14 25.33Q20.93 26.78 20.74 28.69L20.76 28.72L20.76 28.71Q20.48 30.71 21.56 31.69L21.69 31.81L21.72 31.84Q22.84 32.84 24.93 32.73L24.87 32.67L24.75 32.55Q26.98 32.54 28.09 31.85L28.06 31.82L28.13 31.89Q29.08 30.60 29.08 29.04L29.19 29.15L29.15 29.10Q29.14 28.72 29.06 28.34L29.04 28.31L29.02 28.29Q29.11 26.63 28.01 25.28L28.11 25.39L28.10 25.38Q26.99 24.01 25.31 24.13ZM24.85 35.20L24.95 35.30L24.79 35.14Q20.55 35.28 19.14 34.52L19.01 34.38L19.17 34.54Q18.16 33.80 17.97 32.09L17.82 31.94L17.83 31.95Q17.77 31.24 17.81 30.52L17.88 30.59L17.84 30.55Q17.98 29.58 17.98 29.13L17.94 29.09L17.91 29.06Q18.38 26.21 18.53 25.53L18.63 25.63L18.57 25.57Q19.03 23.63 19.87 22.22L19.82 22.18L19.99 22.34Q22.63 17.94 28.57 11.58L28.55 11.56L28.49 11.51Q31.19 11.23 33.39 10.43L33.33 10.37L33.36 10.40Q26.50 17.85 23.30 22.08L23.41 22.19L23.34 22.11Q24.34 21.63 25.64 21.63L25.67 21.67L25.60 21.59Q28.95 21.63 30.47 23.57L30.51 23.61L30.46 23.56Q31.77 25.18 32.11 28.72L32.08 28.69L32.02 28.63Q32.26 29.52 32.26 30.13L32.15 30.01L32.22 30.08Q32.21 33.20 30.00 34.26L29.93 34.19L30.01 34.27Q28.85 34.94 24.97 35.32ZM27.15 37.62L27.21 37.68L27.13 37.59Q28.54 37.67 30.52 37.75L30.44 37.67L30.41 37.64Q32.13 37.80 33.69 37.07L33.62 37.00L33.73 37.11Q34.69 36.17 34.69 34.38L34.72 34.41L34.77 34.46Q34.81 34.01 34.64 33.02L34.63 33.01L34.57 32.95Q34.48 32.04 34.48 31.58L34.39 31.49L34.49 31.59Q33.49 26.75 31.89 24.84L31.96 24.91L32.02 24.97Q31.92 24.83 31.76 24.60L31.63 24.47L31.37 24.28L31.27 24.22L31.21 24.17Q30.97 23.77 30.36 22.82L30.35 22.81L30.32 22.78Q29.51 21.93 27.53 21.47L27.48 21.42L27.48 21.42Q28.74 19.86 31.70 16.17L31.67 16.13L35.79 10.73L35.98 10.92Q34.34 11.72 31.94 12.48L31.88 12.42L31.87 12.41Q32.74 11.38 34.53 9.40L34.58 9.45L34.66 9.53Q32.27 10.60 28.38 11.17L28.34 11.13L28.38 11.17Q22.59 16.99 19.62 21.94L19.74 22.05L19.64 21.96Q18.10 24.45 17.53 30.70L17.61 30.77L17.57 30.74Q17.56 31.37 17.63 32.32L17.57 32.26L17.57 32.26Q17.69 34.05 18.79 34.96L18.77 34.95L18.71 34.89Q19.12 35.07 19.08 35.10L19.08 35.10L19.02 35.04Q19.52 36.07 20.32 36.49L20.30 36.48L20.25 36.43Q21.69 37.10 23.63 37.29L23.59 37.25L23.75 37.41Q23.74 37.41 27.25 37.71ZM27.01 26.47L27.00 26.47L26.94 26.40Q27.44 26.22 28.39 26.71L28.46 26.78L28.38 26.70Q28.71 27.64 28.71 28.29L28.84 28.42L28.89 28.47Q29.00 30.25 28.05 31.24L27.97 31.16L28.03 31.23Q26.93 31.91 24.84 32.22L24.86 32.24L24.83 32.21Q23.48 32.31 22.95 32.04L22.84 31.93L22.87 31.97Q22.79 31.61 22.79 31.31L22.80 31.32L22.63 31.15Q22.42 27.90 25.36 26.61L25.48 26.73L25.31 26.56Q26.18 26.33 26.94 26.40Z"/><path fill="#222" d="M83.55 35.10L83.49 35.04L81.37 35.21L81.55 35.38Q80.92 35.21 79.95 35.27L80.05 35.37L79.99 35.31Q79.16 35.50 78.66 35.50L78.56 35.40L78.61 35.45Q76.88 35.36 75.85 34.52L76.00 34.67L75.86 34.53Q76.71 33.48 78.35 31.34L78.25 31.25L78.35 31.35Q79.69 33.00 81.90 32.77L81.89 32.76L81.80 32.66Q82.65 32.49 83.30 31.84L83.27 31.82L83.34 31.89Q84.01 31.26 83.90 30.38L84.00 30.49L83.83 30.32Q83.84 25.83 83.91 21.27L83.80 21.15L83.82 21.17Q83.88 16.58 84.41 11.98L84.45 12.01L84.48 12.04Q86.41 11.84 88.54 10.82L88.51 10.78L88.57 10.85Q86.74 17.62 86.74 24.85L86.68 24.80L86.61 24.72Q86.68 28.33 87.13 31.83L87.18 31.87L87.11 31.81Q87.12 32.09 87.12 32.43L87.17 32.48L87.18 32.49Q87.16 33.04 86.93 33.57L87.02 33.66L87.02 33.66Q86.29 34.76 83.48 35.03ZM88.48 37.94L88.48 37.94L88.80 37.92L89.15 37.84L89.47 37.78L89.29 37.61Q89.67 37.41 89.75 37.30L89.86 37.42L89.76 37.32Q89.97 36.15 89.70 35.16L89.75 35.21L89.66 35.12Q88.37 29.38 88.64 23.02L88.63 23.01L88.54 22.92Q88.81 16.83 90.60 10.93L90.54 10.88L90.66 11.00Q89.77 11.63 88.52 12.35L88.55 12.38L88.54 12.38Q88.65 11.54 89.07 10.02L89.15 10.09L89.07 10.01Q86.56 11.35 83.90 11.65L84.02 11.77L84.00 11.75Q83.65 16.16 83.57 21.11L83.45 20.99L83.50 21.04Q83.41 26.92 83.48 30.35L83.49 30.36L83.46 30.33Q83.59 32.18 81.84 32.33L81.73 32.21L81.88 32.37Q80.12 32.44 78.45 30.80L78.40 30.75L78.41 30.76Q76.32 33.24 75.37 34.80L75.42 34.85L75.35 34.78Q76.06 35.49 77.09 35.72L77.07 35.70L77.10 35.73Q77.01 35.87 76.75 36.10L76.81 36.16L76.70 36.05Q78.24 37.10 80.22 37.37L80.21 37.36L80.20 37.34Q80.50 37.31 83.79 37.61L83.86 37.68L83.83 37.65Q87.10 37.92 88.47 37.92Z"/></svg>