<svg xmlns="http://www.w3.org/2000/svg" width="200" height="40" viewBox="0,0,200,40"><path d="M5 38 C109 36,112 34,196 6" stroke="#555" fill="none"/><path fill="#111" d="M135.85 35.36L135.85 35.36L135.89 35.40Q131.74 35.55 130.75 33.22L130.73 33.21L130.87 33.35Q131.59 32.36 133.15 30.57L133.09 30.50L133.06 30.48Q133.54 32.48 136.55 32.60L136.68 32.73L136.60 32.64Q139.93 32.66 141.57 31.33L141.74 31.50L141.74 31.51Q142.97 29.73 142.90 27.03L142.96 27.09L142.92 27.05Q142.93 22.15 138.13 22.38L138.07 22.31L138.12 22.37Q135.14 22.35 133.39 23.61L133.38 23.60L133.08 23.46L132.94 23.39L132.98 23.43Q133.24 20.19 133.13 17.45L133.21 17.53L133.15 17.47Q132.97 14.78 132.63 11.47L132.69 11.53L132.63 11.47Q136.33 12.47 140.14 12.35L140.19 12.40L140.10 12.31Q144.07 12.40 147.64 11.14L147.60 11.10L146.96 12.55L146.93 12.52Q146.75 13.41 146.56 14.25L146.42 14.10L146.43 14.12Q143.32 15.15 139.44 15.15L139.45 15.16L139.43 15.15Q138.04 15.20 136.56 15.05L136.46 14.96L136.52 15.02Q136.44 15.70 136.10 20.15L136.18 20.23L136.19 20.25Q136.92 19.68 138.98 19.53L138.95 19.50L139.10 19.66Q142.69 19.74 144.14 21.42L144.17 21.45L144.29 21.56Q145.52 22.95 145.79 26.80L145.89 26.90L145.94 26.95Q146.19 31.11 144.97 33.13L144.91 33.08L144.99 33.16Q142.80 34.89 139.49 35.11L139.64 35.27L139.59 35.21Q138.54 35.24 135.88 35.39ZM141.99 37.73L141.94 37.68L141.84 37.58Q145.36 37.75 147.26 36.64L147.19 36.57L147.20 36.59Q148.29 35.16 148.29 33.07L148.28 33.06L148.31 33.08Q148.25 29.94 147.29 25.83L147.38 25.92L147.20 25.73Q146.88 24.04 145.66 22.63L145.74 22.71L145.75 22.76L145.44 22.37L145.06 22.15L145.15 22.24Q144.92 21.58 144.27 20.90L144.22 20.85L144.30 20.96L144.24 20.91Q142.62 19.14 138.93 19.14L138.91 19.11L138.71 19.19L138.70 19.17Q138.70 18.53 138.89 17.43L139.05 17.58L138.98 17.51Q143.91 17.57 147.95 15.94L147.93 15.91L148.06 16.05Q148.48 14.64 149.43 11.82L149.46 11.85L147.38 12.82L147.23 12.67Q147.76 11.67 148.25 10.53L148.23 10.51L148.16 10.44Q144.29 11.86 140.18 11.93L140.16 11.92L140.18 11.93Q136.16 12.14 132.20 11.04L132.07 10.91L132.10 10.94Q132.89 15.46 132.89 19.87L132.84 19.82L132.82 19.81Q132.87 21.76 132.75 23.66L132.70 23.61L132.68 23.58Q133.02 23.85 133.59 24.16L133.46 24.02L133.61 24.17Q133.93 23.92 134.58 23.58L134.55 23.56L134.57 23.57Q134.56 24.36 134.33 25.88L134.30 25.85L134.31 25.86Q134.63 25.95 135.05 26.18L135.14 26.27L135.18 26.31Q137.86 24.47 139.73 24.47L139.66 24.40L139.85 24.59Q141.14 24.54 142.32 25.19L142.19 25.06L142.32 25.20Q142.53 26.09 142.56 27.04L142.65 27.12L142.63 27.11Q142.73 29.71 141.70 30.82L141.70 30.82L141.70 30.82Q140.34 32.05 138.10 32.28L138.07 32.25L138.16 32.34Q137.16 32.37 136.47 32.29L136.36 32.18L136.46 32.28Q135.60 32.14 134.83 31.79L134.89 31.85L134.79 31.56L134.69 31.69L134.61 31.60Q133.88 31.18 133.35 29.85L133.41 29.92L133.39 29.89Q131.94 31.18 130.27 33.32L130.29 33.34L130.37 33.42Q130.73 34.12 131.57 35.08L131.45 34.96L131.41 34.92Q132.64 36.91 135.45 37.40L135.30 37.25L135.34 37.29Q136.63 37.63 142.00 37.74Z"/><path fill="#222" d="M170.02 34.90L169.99 34.87L168.09 34.92L167.95 34.78Q167.14 34.92 166.19 35.03L166.14 34.99L166.03 34.87Q166.79 28.85 166.79 24.86L166.64 24.71L166.62 24.69Q162.81 18.17 155.15 9.49L155.14 9.48L155.06 9.40Q156.90 10.44 160.25 11.24L160.27 11.26L160.26 11.25Q165.31 16.83 168.31 22.04L168.26 21.99L168.34 22.07Q171.30 16.46 175.68 11.44L175.59 11.35L175.58 11.34Q178.10 11.05 180.62 10.25L180.63 10.26L180.59 10.23Q174.61 16.39 169.74 24.80L169.63 24.70L169.74 24.80Q169.71 31.82 170.02 34.90ZM179.14 12.35L181.71 9.37L181.74 9.40Q178.67 10.59 175.55 11.04L175.57 11.06L175.55 11.04Q171.27 15.72 168.46 20.82L168.46 20.82L168.44 20.80Q166.48 17.32 163.28 13.43L163.24 13.40L163.17 13.32Q162.89 13.31 162.39 13.23L162.51 13.35L162.50 13.34Q161.64 12.37 160.12 10.69L160.23 10.80L160.25 10.82Q156.91 10.11 153.94 8.55L153.83 8.43L153.93 8.53Q161.56 16.93 166.32 24.85L166.32 24.84L166.32 24.85Q166.24 31.20 165.63 35.35L165.67 35.39L165.68 35.40Q166.42 35.38 167.86 35.26L167.74 35.14L167.92 36.34L167.91 36.33Q167.83 36.71 167.75 37.24L167.80 37.29L167.76 37.25Q171.29 37.24 173.04 37.43L172.98 37.37L173.14 37.53Q171.80 32.76 171.68 26.79L171.64 26.75L171.71 26.81Q176.02 18.29 182.57 10.95L182.70 11.07L179.07 12.28Z"/><path d="M17 7 C84 7,106 28,181 3" stroke="#333" fill="none"/><path fill="#333" d="M107.63 35.42L107.67 35.46L107.50 35.29Q103.43 35.52 102.44 33.20L102.43 33.20L102.47 33.24Q103.19 32.24 104.75 30.45L104.82 30.52L104.86 30.56Q105.43 32.65 108.44 32.77L108.36 32.70L108.28 32.61Q111.75 32.77 113.39 31.44L113.36 31.41L113.33 31.38Q114.86 29.90 114.78 27.20L114.64 27.06L114.70 27.11Q114.55 22.05 109.75 22.28L109.77 22.30L109.73 22.26Q106.86 22.36 105.11 23.62L105.13 23.64L104.76 23.42L104.63 23.37L104.70 23.43Q105.05 20.28 104.93 17.54L104.88 17.49L104.92 17.53Q104.84 14.93 104.49 11.62L104.50 11.62L104.51 11.63Q107.99 12.41 111.79 12.29L111.91 12.41L111.91 12.41Q115.62 12.23 119.19 10.98L119.18 10.97L118.76 12.64L118.75 12.63Q118.34 13.28 118.15 14.12L118.22 14.19L118.30 14.27Q115.14 15.26 111.25 15.26L111.21 15.22L111.10 15.10Q109.66 15.11 108.18 14.96L108.36 15.14L108.27 15.05Q108.29 15.83 107.95 20.29L107.80 20.14L107.79 20.13Q108.64 19.69 110.70 19.53L110.84 19.68L110.65 19.49Q114.50 19.84 115.95 21.51L115.84 21.41L115.92 21.49Q117.20 22.92 117.47 26.76L117.56 26.86L117.57 26.86Q117.81 31.03 116.59 33.04L116.61 33.06L116.52 32.97Q114.50 34.87 111.19 35.10L111.31 35.22L111.32 35.23Q110.22 35.20 107.56 35.35ZM113.55 37.58L113.61 37.63L113.56 37.59Q117.04 37.72 118.94 36.61L119.06 36.73L118.89 36.56Q119.97 35.12 119.97 33.03L119.99 33.05L120.04 33.11Q119.96 29.94 119.00 25.82L119.05 25.87L118.91 25.73Q118.63 24.08 117.41 22.67L117.50 22.75L117.50 22.80L117.31 22.53L116.83 22.20L116.82 22.19Q116.55 21.50 115.90 20.82L115.95 20.86L115.91 20.86L115.95 20.90Q114.31 19.11 110.62 19.11L110.72 19.22L110.44 19.20L110.52 19.28Q110.54 18.66 110.73 17.55L110.66 17.48L110.62 17.44Q115.64 17.59 119.68 15.95L119.82 16.10L119.74 16.01Q120.13 14.57 121.08 11.76L121.08 11.76L119.01 12.73L118.96 12.69Q119.45 11.65 119.94 10.51L119.90 10.47L119.90 10.46Q115.95 11.80 111.84 11.88L111.90 11.94L111.87 11.91Q107.72 11.99 103.76 10.89L103.80 10.92L103.94 11.07Q104.56 15.41 104.56 19.83L104.61 19.88L104.47 19.74Q104.55 21.72 104.43 23.62L104.51 23.70L104.41 23.61Q104.79 23.90 105.36 24.21L105.19 24.04L105.25 24.10Q105.52 23.80 106.17 23.45L106.33 23.62L106.23 23.52Q106.19 24.28 105.96 25.80L105.98 25.82L105.89 25.73Q106.41 26.02 106.83 26.25L106.75 26.17L106.73 26.15Q109.56 24.45 111.43 24.45L111.50 24.53L111.41 24.43Q112.72 24.41 113.90 25.05L114.02 25.18L114.06 25.22Q114.35 26.19 114.39 27.14L114.41 27.16L114.33 27.09Q114.37 29.64 113.34 30.74L113.34 30.74L113.33 30.73Q111.94 31.93 109.69 32.16L109.73 32.20L109.75 32.21Q108.92 32.41 108.23 32.33L108.22 32.32L108.17 32.27Q107.37 32.19 106.60 31.85L106.57 31.82L106.57 31.62L106.38 31.66L106.49 31.77Q105.58 31.17 105.05 29.84L105.17 29.96L105.14 29.92Q103.75 31.27 102.07 33.41L102.13 33.46L101.97 33.31Q102.33 34.01 103.17 34.96L103.25 35.04L103.12 34.91Q104.30 36.86 107.12 37.35L107.01 37.24L107.04 37.27Q108.27 37.55 113.63 37.66Z"/><path fill="#333" d="M25.31 24.13L25.27 24.08L25.36 24.17Q23.56 24.09 22.33 25.52L22.22 25.41L22.28 25.47Q20.99 26.85 20.80 28.75L20.85 28.80L20.88 28.84Q20.63 30.86 21.71 31.83L21.71 31.83L21.71 31.83Q22.75 32.76 24.85 32.65L24.76 32.56L24.79 32.59Q26.93 32.48 28.03 31.79L27.99 31.75L28.05 31.82Q29.27 30.79 29.27 29.23L29.26 29.22L29.16 29.12Q29.27 28.85 29.19 28.46L29.07 28.34L29.01 28.28Q29.26 26.78 28.16 25.43L28.12 25.39L28.03 25.31Q27.03 24.06 25.36 24.17ZM24.84 35.19L24.90 35.25L24.83 35.18Q20.52 35.25 19.11 34.49L19.02 34.39L19.07 34.45Q18.14 33.78 17.95 32.07L17.85 31.97L17.96 32.08Q17.80 31.27 17.84 30.54L17.83 30.54L17.83 30.54Q18.00 29.61 18.00 29.15L17.91 29.06L18.05 29.19Q18.42 26.25 18.57 25.57L18.62 25.62L18.65 25.65Q19.03 23.63 19.86 22.22L19.94 22.30L19.87 22.23Q22.52 17.83 28.45 11.47L28.46 11.47L28.55 11.57Q31.09 11.14 33.30 10.34L33.31 10.35L33.46 10.49Q26.54 17.90 23.34 22.12L23.38 22.16L23.39 22.17Q24.37 21.66 25.66 21.66L25.60 21.60L25.67 21.67Q28.90 21.58 30.42 23.52L30.40 23.50L30.45 23.55Q31.67 25.08 32.01 28.62L32.08 28.68L32.13 28.74Q32.19 29.44 32.19 30.05L32.16 30.03L32.13 29.99Q32.25 33.23 30.04 34.30L29.89 34.15L29.91 34.17Q28.68 34.77 24.80 35.15ZM27.13 37.59L27.20 37.66L27.24 37.70Q28.49 37.62 30.47 37.70L30.39 37.61L30.44 37.66Q32.05 37.72 33.61 36.99L33.56 36.94L33.64 37.02Q34.72 36.19 34.72 34.41L34.83 34.52L34.69 34.38Q34.69 33.89 34.52 32.90L34.65 33.02L34.60 32.97Q34.39 31.95 34.39 31.49L34.47 31.58L34.38 31.48Q33.60 26.86 32.01 24.96L32.00 24.96L31.93 24.89Q31.76 24.68 31.61 24.45L31.62 24.46L31.48 24.39L31.31 24.26L31.38 24.33Q30.97 23.77 30.37 22.82L30.40 22.85L30.33 22.79Q29.35 21.77 27.37 21.31L27.52 21.46L27.37 21.32Q28.62 19.74 31.59 16.05L31.67 16.13L35.95 10.89L35.83 10.78Q34.41 11.79 32.01 12.55L31.86 12.40L31.99 12.53Q32.83 11.47 34.62 9.49L34.67 9.53L34.66 9.53Q32.30 10.64 28.42 11.21L28.33 11.12L28.44 11.22Q22.57 16.97 19.60 21.91L19.61 21.93L19.65 21.97Q18.13 24.48 17.56 30.73L17.47 30.64L17.60 30.77Q17.53 31.35 17.61 32.30L17.64 32.33L17.53 32.22Q17.71 34.08 18.82 34.99L18.66 34.84L18.76 34.94Q19.12 35.06 19.08 35.10L19.13 35.15L19.10 35.12Q19.41 35.96 20.21 36.38L20.21 36.38L20.25 36.42Q21.74 37.15 23.68 37.34L23.60 37.26L23.62 37.28Q23.75 37.41 27.25 37.72ZM26.89 26.35L27.01 26.47L26.89 26.35Q27.48 26.25 28.43 26.75L28.48 26.79L28.48 26.80Q28.88 27.81 28.88 28.45L28.80 28.38L28.88 28.46Q29.05 30.31 28.10 31.30L27.99 31.19L28.03 31.22Q26.88 31.86 24.79 32.17L24.95 32.33L24.92 32.30Q23.49 32.32 22.96 32.05L22.93 32.03L22.89 31.98Q22.74 31.56 22.74 31.26L22.73 31.25L22.63 31.15Q22.38 27.86 25.32 26.57L25.39 26.64L25.34 26.59Q26.24 26.39 27.00 26.46Z"/><path fill="#333" d="M56.88 34.90L56.81 34.84L54.97 34.94L54.97 34.94Q53.97 34.89 53.02 35.01L53.00 34.99L53.06 35.05Q53.64 28.85 53.64 24.85L53.55 24.77L53.54 24.75Q49.66 18.17 42.01 9.49L41.97 9.45L41.91 9.39Q43.73 10.41 47.08 11.21L47.09 11.23L47.01 11.14Q52.14 16.81 55.15 22.03L55.14 22.01L55.09 21.96Q58.12 16.43 62.50 11.40L62.43 11.34L62.55 11.46Q64.88 10.97 67.39 10.17L67.51 10.29L67.41 10.18Q61.45 16.37 56.57 24.78L56.49 24.70L56.55 24.76Q56.48 31.73 56.78 34.81ZM65.95 12.30L68.59 9.38L68.67 9.47Q65.63 10.69 62.51 11.14L62.51 11.15L62.47 11.10Q58.22 15.81 55.41 20.91L55.41 20.91L55.37 20.88Q53.27 17.25 50.07 13.36L50.12 13.42L50.14 13.44Q49.68 13.24 49.18 13.16L49.24 13.22L49.26 13.24Q48.55 12.42 47.03 10.74L47.13 10.84L47.02 10.74Q43.67 10.01 40.70 8.45L40.64 8.39L40.63 8.38Q48.41 16.93 53.17 24.84L53.27 24.94L53.22 24.89Q53.08 31.19 52.47 35.33L52.55 35.41L52.55 35.41Q53.26 35.36 54.70 35.25L54.69 35.24L54.78 36.35L54.73 36.30Q54.79 36.81 54.71 37.34L54.56 37.19L54.54 37.17Q58.21 37.30 59.96 37.49L60.00 37.53L59.91 37.45Q58.67 32.78 58.55 26.80L58.58 26.82L58.55 26.80Q62.99 18.41 69.54 11.06L69.41 10.93L65.90 12.25Z"/><path fill="#444" d="M85.18 34.92L85.13 34.87L83.17 34.86L83.13 34.82Q82.16 34.80 81.21 34.91L81.19 34.89L81.27 34.97Q81.84 28.77 81.84 24.77L81.77 24.70L81.78 24.71Q77.93 18.15 70.28 9.47L70.15 9.35L70.23 9.43Q72.08 10.48 75.43 11.28L75.37 11.22L75.28 11.13Q80.36 16.74 83.36 21.95L83.45 22.03L83.34 21.93Q86.44 16.46 90.82 11.44L90.91 11.53L90.91 11.52Q93.17 10.98 95.69 10.18L95.80 10.29L95.69 10.18Q89.62 16.26 84.75 24.67L84.89 24.81L84.70 24.62Q84.70 31.67 85.01 34.75ZM94.15 12.22L96.98 9.49L97.00 9.51Q93.85 10.62 90.73 11.08L90.69 11.05L90.70 11.06Q86.50 15.80 83.68 20.90L83.66 20.88L83.71 20.93Q81.50 17.19 78.30 13.31L78.42 13.43L78.23 13.24Q78.03 13.31 77.54 13.23L77.65 13.35L77.48 13.17Q76.95 12.53 75.43 10.85L75.46 10.89L75.27 10.69Q71.91 9.96 68.94 8.40L68.90 8.37L68.99 8.46Q76.73 16.95 81.49 24.87L81.41 24.79L81.51 24.90Q81.36 31.18 80.76 35.33L80.80 35.38L80.85 35.43Q81.52 35.33 82.96 35.22L82.99 35.25L82.89 36.17L82.91 36.19Q83.06 36.80 82.98 37.33L82.91 37.26L82.81 37.16Q86.53 37.34 88.28 37.53L88.12 37.37L88.10 37.35Q86.95 32.77 86.83 26.79L86.83 26.79L86.82 26.78Q91.19 18.32 97.74 10.97L97.70 10.94L94.27 12.34Z"/></svg>