<svg xmlns="http://www.w3.org/2000/svg" width="200" height="40" viewBox="0,0,200,40"><path d="M18 14 C99 35,82 15,184 8" stroke="#888" fill="none"/><path d="M9 15 C96 34,117 14,190 39" stroke="#666" fill="none"/><path fill="#222" d="M106.31 27.96L106.25 27.90L106.31 27.95Q109.40 27.58 112.60 27.70L112.59 27.69L112.58 27.68Q112.48 25.06 112.48 22.67L112.59 22.78L112.63 22.81Q112.61 20.32 112.80 17.77L112.74 17.71L112.67 17.64Q111.61 19.52 106.40 28.05ZM116.22 35.31L116.17 35.26L116.11 35.21Q114.56 35.03 112.77 34.96L112.66 34.84L112.71 34.89Q112.57 32.58 112.45 30.10L112.36 30.01L112.35 30.00Q107.05 29.84 102.33 31.25L102.37 31.29L102.42 31.34Q102.41 30.72 102.60 29.73L102.70 29.83L102.68 29.80Q104.45 26.63 108.03 20.35L108.03 20.35L107.97 20.29Q110.93 15.48 114.35 11.60L114.41 11.66L114.42 11.66Q115.24 11.42 116.91 11.15L116.99 11.23L116.87 11.10Q115.08 17.65 115.08 24.69L114.95 24.56L115.09 24.71Q115.02 26.13 115.10 27.61L115.02 27.53L116.37 27.70L116.33 27.66Q116.94 27.70 117.55 27.81L117.59 27.86L117.66 27.93Q117.77 28.91 118.03 30.85L118.05 30.87L117.93 30.75Q116.73 30.49 115.24 30.30L115.25 30.31L115.25 30.32Q115.53 32.38 116.22 35.32ZM117.96 27.58L117.93 27.54L117.88 27.50Q117.64 27.37 117.45 27.37L117.59 27.51L117.21 27.51L117.19 27.49Q117.09 26.03 117.09 24.62L117.00 24.52L116.94 24.47Q116.97 18.10 119.03 12.09L119.05 12.11L118.96 12.02Q118.35 12.43 116.90 12.81L116.82 12.74L116.90 12.81Q117.06 11.99 117.52 10.58L117.62 10.68L117.54 10.60Q116.31 11.04 114.25 11.27L114.25 11.27L114.17 11.18Q110.36 15.63 105.14 25.00L105.07 24.93L107.14 21.25L107.14 21.25Q106.81 22.36 106.54 22.93L106.43 22.83L102.10 31.97L101.99 31.86Q102.67 31.74 103.81 31.36L103.88 31.43L103.57 31.50L103.55 31.47Q103.55 32.28 103.25 33.54L103.26 33.55L103.24 33.53Q107.36 32.20 112.19 32.39L112.09 32.29L112.25 32.45Q112.13 33.24 112.32 35.22L112.38 35.28L112.45 35.35Q113.48 35.32 114.55 35.44L114.62 35.50L114.49 35.37Q114.60 36.02 114.87 37.39L114.99 37.51L114.97 37.49Q116.80 37.64 119.80 38.56L119.92 38.68L119.88 38.63Q118.89 36.51 117.98 33.23L118.00 33.25L119.47 33.73L119.49 33.75Q120.15 33.96 120.84 34.30L120.75 34.21L120.76 34.22Q119.91 31.66 119.76 29.99L119.77 30.00L119.83 30.05Q119.19 29.84 118.05 29.61L118.06 29.62L118.17 29.73Q117.88 28.37 117.88 27.50ZM109.86 27.32L109.85 27.31L109.81 27.27Q110.74 26.14 112.30 23.59L112.12 23.41L112.22 23.51Q112.22 24.47 112.18 25.42L112.15 25.38L112.24 25.47Q112.18 26.40 112.22 27.35L112.23 27.36L112.12 27.26Q111.62 27.29 111.05 27.29L111.11 27.36L110.99 27.23Q110.45 27.30 109.84 27.30Z"/><path fill="#222" d="M29.13 22.10L29.15 22.12L29.20 22.17Q30.04 22.21 31.45 22.06L31.36 21.97L31.37 21.98Q31.36 22.65 31.36 23.30L31.45 23.40L31.46 24.66L31.34 24.54Q30.60 24.63 29.76 24.71L29.64 24.59L29.63 24.58Q28.81 24.64 27.97 24.60L28.03 24.66L28.05 24.67Q25.20 30.85 21.78 35.46L21.83 35.51L21.64 35.32Q19.17 36.01 17.88 36.62L17.98 36.73L17.88 36.63Q22.01 30.93 25.05 24.65L25.07 24.67L22.49 24.71L22.56 24.78Q22.45 23.34 22.34 22.01L22.42 22.09L22.40 22.07Q24.17 22.09 26.23 22.09L26.30 22.16L28.23 18.50L28.11 18.38Q29.12 16.50 30.34 14.90L30.35 14.91L30.51 15.07Q28.79 15.06 27.19 15.06L27.17 15.04L27.18 15.05Q21.19 15.15 17.42 12.95L17.49 13.02L16.67 11.12L16.71 11.16Q16.41 10.37 16.03 9.49L16.03 9.50L16.03 9.49Q20.34 12.09 26.05 12.32L26.10 12.37L26.18 12.45Q31.19 12.55 36.33 10.57L36.32 10.56L36.43 10.67Q36.23 11.07 35.73 11.95L35.63 11.85L35.63 11.85Q32.05 16.65 29.20 22.17ZM37.23 13.22L37.32 13.31L38.32 11.30L38.22 11.20Q37.34 11.77 35.66 12.49L35.58 12.41L35.87 12.21L35.91 12.25Q35.98 12.04 36.09 11.93L35.96 11.80L36.10 11.94Q36.42 11.19 37.14 9.86L37.23 9.95L37.16 9.87Q31.79 12.13 26.05 11.90L26.16 12.01L26.17 12.02Q20.12 11.72 15.36 8.75L15.30 8.69L15.37 8.76Q16.30 10.53 17.14 13.20L17.09 13.15L17.22 13.27Q18.21 13.80 19.00 14.11L19.00 14.10L19.13 14.24Q19.15 14.45 19.61 16.31L19.70 16.40L19.68 16.38Q22.91 17.71 28.43 17.56L28.29 17.42L28.41 17.54Q28.06 18.06 26.08 21.83L26.16 21.91L26.04 21.79Q24.00 21.80 22.02 21.61L21.97 21.57L21.95 21.55Q22.19 22.54 22.19 23.42L22.12 23.35L22.20 25.15L23.72 24.99L23.70 26.38L23.86 26.54Q19.85 33.83 17.07 37.41L17.10 37.44L17.04 37.38Q18.77 36.75 20.41 36.26L20.36 36.21L20.31 36.16Q19.60 37.04 18.22 38.76L18.31 38.84L18.19 38.72Q21.34 37.60 23.77 37.38L23.92 37.53L23.92 37.53Q26.75 33.66 29.88 26.88L29.89 26.90L33.31 27.08L33.44 27.21Q33.21 26.14 33.21 25.23L33.20 25.22L33.31 23.54L33.17 23.40Q32.94 23.43 32.38 23.47L32.47 23.56L32.41 23.50Q31.83 23.50 31.56 23.50L31.66 23.61L31.64 23.58Q31.54 23.37 31.58 23.22L31.60 23.24L31.71 23.08L31.76 23.13Q34.21 17.93 37.29 13.28Z"/><path fill="#222" d="M51.04 35.41L50.92 35.29L51.01 35.37Q47.03 35.70 46.04 33.37L46.00 33.34L45.95 33.28Q46.74 32.36 48.30 30.57L48.18 30.45L48.26 30.54Q48.86 32.66 51.87 32.77L51.77 32.67L51.84 32.74Q55.11 32.70 56.75 31.37L56.78 31.40L56.70 31.32Q58.17 29.79 58.10 27.08L58.12 27.11L58.14 27.13Q58.04 22.11 53.24 22.34L53.26 22.37L53.25 22.35Q50.45 22.52 48.69 23.77L48.70 23.78L48.24 23.47L48.02 23.32L48.16 23.47Q48.34 20.15 48.23 17.41L48.22 17.40L48.27 17.45Q48.25 14.92 47.91 11.61L47.91 11.60L47.82 11.52Q51.57 12.56 55.38 12.45L55.38 12.45L55.38 12.45Q59.07 12.25 62.64 11.00L62.68 11.03L62.13 12.57L62.05 12.50Q61.86 13.38 61.67 14.21L61.64 14.18L61.55 14.09Q58.53 15.22 54.65 15.22L54.57 15.14L54.67 15.25Q53.12 15.14 51.63 14.99L51.73 15.08L51.78 15.13Q51.71 15.83 51.37 20.28L51.27 20.18L51.24 20.15Q52.11 19.73 54.17 19.58L54.14 19.55L54.14 19.55Q57.99 19.90 59.44 21.57L59.33 21.46L59.33 21.46Q60.81 23.09 61.07 26.94L60.92 26.79L60.92 26.78Q61.30 31.08 60.08 33.10L60.03 33.05L60.11 33.13Q57.99 34.93 54.67 35.16L54.65 35.13L54.74 35.22Q53.62 35.17 50.95 35.32ZM57.10 37.70L56.99 37.59L57.06 37.66Q60.58 37.83 62.48 36.72L62.47 36.71L62.38 36.62Q63.33 35.05 63.33 32.96L63.45 33.08L63.42 33.06Q63.43 29.98 62.48 25.87L62.40 25.79L62.39 25.78Q62.15 24.17 60.93 22.76L60.89 22.72L60.92 22.79L60.66 22.45L60.34 22.28L60.28 22.22Q60.07 21.60 59.42 20.91L59.27 20.76L59.41 20.93L59.25 20.78Q57.74 19.11 54.04 19.11L54.07 19.14L53.95 19.28L53.90 19.23Q54.03 18.72 54.23 17.62L54.23 17.62L54.06 17.45Q59.14 17.66 63.17 16.02L63.22 16.07L63.15 16.00Q63.58 14.59 64.53 11.78L64.63 11.88L62.41 12.70L62.49 12.78Q62.87 11.65 63.37 10.50L63.21 10.35L63.29 10.42Q59.56 11.99 55.45 12.07L55.43 12.05L55.32 11.93Q51.31 12.15 47.35 11.05L47.26 10.96L47.25 10.94Q47.89 15.32 47.89 19.73L47.95 19.80L47.98 19.82Q47.89 21.64 47.78 23.54L47.93 23.69L47.92 23.68Q48.14 23.82 48.71 24.13L48.63 24.05L48.67 24.09Q48.96 23.81 49.60 23.46L49.74 23.60L49.70 23.56Q49.73 24.39 49.50 25.91L49.42 25.83L49.47 25.88Q49.78 25.96 50.20 26.19L50.31 26.30L50.20 26.19Q53.12 24.58 54.99 24.58L54.87 24.47L54.82 24.42Q56.17 24.43 57.35 25.08L57.35 25.08L57.40 25.13Q57.69 26.10 57.73 27.06L57.85 27.18L57.81 27.14Q57.83 29.67 56.80 30.77L56.77 30.74L56.85 30.83Q55.47 32.03 53.23 32.26L53.14 32.18L53.15 32.19Q52.18 32.25 51.50 32.17L51.55 32.23L51.58 32.25Q50.76 32.16 50.00 31.81L49.97 31.79L50.00 31.62L49.85 31.71L49.82 31.68Q48.98 31.14 48.44 29.80L48.41 29.77L48.50 29.86Q47.09 31.19 45.42 33.33L45.56 33.47L45.49 33.40Q45.87 34.12 46.71 35.07L46.60 34.97L46.62 34.99Q47.76 36.88 50.57 37.38L50.45 37.25L50.57 37.37Q51.64 37.49 57.01 37.60Z"/><path fill="#111" d="M136.50 21.88L136.36 21.75L136.46 21.84Q138.33 22.08 140.16 22.08L139.99 21.91L140.10 22.02Q141.78 21.91 143.61 21.76L143.72 21.87L143.68 21.83Q143.54 22.46 143.54 23.18L143.60 23.24L143.50 24.47L143.53 24.50Q141.25 24.58 136.49 24.70L136.43 24.63L136.48 24.69Q136.36 30.50 135.22 35.49L135.36 35.63L135.24 35.51Q133.02 36.19 131.54 36.98L131.70 37.15L131.53 36.98Q134.00 30.31 133.74 23.19L133.72 23.18L133.63 23.08Q133.32 15.89 130.65 9.22L130.80 9.37L130.81 9.38Q134.44 11.87 139.20 12.10L139.09 11.99L139.11 12.01Q143.90 12.31 148.05 10.56L148.02 10.53L147.89 10.39Q147.66 11.27 147.43 12.07L147.58 12.22L147.07 13.81L146.90 13.63Q144.20 14.74 141.23 14.89L141.34 15.00L141.23 14.89Q138.33 15.08 135.48 14.35L135.50 14.38L135.54 14.42Q136.28 17.85 136.47 21.85ZM148.65 9.83L148.65 9.82L148.62 9.80Q143.98 11.89 139.11 11.59L139.07 11.55L139.18 11.66Q133.83 11.33 130.10 8.48L130.04 8.42L130.07 8.45Q132.93 15.38 133.23 22.99L133.38 23.14L133.22 22.98Q133.70 31.08 131.19 37.85L131.02 37.69L131.18 37.85Q131.79 37.39 133.16 36.75L133.10 36.68L133.12 36.71Q132.92 37.45 132.35 38.98L132.31 38.94L132.38 39.01Q134.75 37.99 137.64 37.49L137.57 37.43L137.53 37.38Q138.11 32.48 138.30 26.77L138.32 26.79L138.47 26.94Q140.17 26.82 142.00 26.82L141.92 26.74L141.96 26.78Q143.81 26.83 145.64 27.02L145.57 26.95L145.63 27.02Q145.41 25.96 145.41 25.05L145.52 25.15L145.46 23.19L145.58 23.31Q144.72 23.33 143.89 23.33L143.93 23.38L143.91 23.36Q143.92 22.49 144.00 21.46L143.91 21.37L144.06 21.53Q142.57 21.60 141.16 21.60L141.27 21.71L141.26 21.70Q139.78 21.63 138.41 21.59L138.41 21.59L138.40 19.44L138.26 19.31Q138.32 18.30 138.21 17.24L138.26 17.29L138.16 17.19Q139.20 17.32 140.19 17.32L140.10 17.22L140.15 17.28Q144.86 17.22 148.47 15.32L148.58 15.42L148.50 15.34Q148.96 13.49 149.88 10.86L149.99 10.98L149.89 10.87Q148.59 11.70 147.79 12.04L147.79 12.05L147.82 12.08Q148.07 11.30 148.57 9.74Z"/><path fill="#222" d="M163.55 35.38L163.48 35.31L163.43 35.26Q162.08 35.40 160.52 34.98L160.61 35.07L160.54 35.00Q159.35 34.11 159.19 32.47L159.11 32.38L159.12 32.40Q159.20 32.33 159.39 29.70L159.42 29.73L159.33 29.64Q160.43 29.52 162.44 29.14L162.44 29.13L162.26 29.90L162.10 29.75Q161.86 31.52 163.27 32.09L163.34 32.16L163.26 32.08Q164.02 32.39 166.12 32.39L166.25 32.52L166.19 32.46Q167.75 32.27 167.94 32.20L167.92 32.18L167.92 32.18Q168.90 32.09 169.62 31.59L169.73 31.71L169.63 31.60Q171.01 30.62 170.82 28.53L170.78 28.49L170.76 28.47Q170.75 26.21 169.02 24.65L168.95 24.59L168.88 24.52Q167.20 23.01 164.73 23.01L164.72 23.00L164.82 22.87L164.65 22.70Q165.19 22.82 166.06 22.74L166.01 22.69L165.94 22.63Q167.80 22.47 169.17 21.23L169.26 21.32L169.16 21.22Q170.56 20.00 170.71 18.14L170.70 18.13L170.69 18.12Q170.78 17.80 170.78 17.45L170.84 17.51L170.90 17.57Q170.81 15.96 169.44 15.04L169.47 15.07L169.49 15.09Q168.24 14.26 166.64 14.38L166.75 14.48L166.66 14.40Q165.28 14.16 164.06 14.58L164.11 14.62L164.06 14.57Q162.70 15.20 162.40 16.34L162.40 16.34L162.40 16.34Q162.21 17.10 162.29 17.86L162.36 17.94L162.39 17.97Q161.31 17.69 159.26 16.97L159.17 16.88L159.26 16.97Q159.01 15.27 159.05 14.44L158.97 14.36L158.93 14.31Q159.23 12.98 160.29 12.29L160.23 12.23L160.27 12.27Q161.54 11.52 163.14 11.52L163.21 11.60L163.17 11.55Q166.28 11.46 169.44 11.73L169.47 11.76L169.46 11.75Q174.61 12.26 174.31 16.03L174.26 15.98L174.27 15.99Q174.21 17.49 173.72 19.05L173.73 19.06L173.66 19.00Q172.82 22.15 170.46 23.07L170.47 23.08L170.36 22.97Q173.11 23.63 173.72 26.98L173.62 26.87L173.75 27.00Q173.99 28.16 174.07 30.18L173.94 30.05L174.00 30.11Q174.09 34.51 169.49 34.96L169.62 35.10L169.60 35.08Q168.72 34.99 163.43 35.26ZM168.78 37.64L168.69 37.56L168.72 37.58Q169.40 37.69 172.26 37.77L172.22 37.74L172.15 37.66Q173.96 37.80 175.60 37.15L175.59 37.15L175.63 37.18Q176.69 36.11 176.50 34.36L176.54 34.41L176.55 34.41Q176.38 33.02 176.07 31.27L176.14 31.34L176.06 31.25Q175.38 26.81 173.44 25.17L173.48 25.21L173.19 24.74L173.18 24.68L173.18 24.69Q175.08 23.39 175.85 19.01L175.83 19.00L175.77 18.94Q175.72 18.39 175.83 17.44L175.83 17.43L175.87 17.48Q175.99 16.76 175.91 16.07L175.90 16.06L175.98 16.14Q175.74 14.38 174.45 13.69L174.54 13.78L174.36 13.68L174.47 13.79Q174.01 12.65 172.87 12.11L172.93 12.17L173.03 12.28Q171.47 11.55 166.33 11.25L166.30 11.22L166.34 11.26Q164.69 11.20 163.09 11.20L163.10 11.22L162.97 11.08Q161.39 11.11 159.87 11.76L159.98 11.86L159.84 11.73Q158.75 12.61 158.75 14.36L158.68 14.29L158.71 14.33Q158.71 13.91 158.97 17.26L159.04 17.32L159.01 17.29Q159.21 17.26 160.85 17.87L160.84 17.86L160.80 17.82Q160.81 18.36 160.77 18.86L160.84 18.93L160.94 19.03Q160.77 19.36 160.81 19.89L160.98 20.06L160.90 19.98Q162.59 20.26 164.61 20.38L164.71 20.48L164.75 20.52Q164.68 18.50 165.78 17.66L165.70 17.58L165.64 17.52Q166.54 16.94 168.56 16.72L168.55 16.70L168.65 16.80Q169.66 16.67 170.23 16.86L170.23 16.87L170.35 16.98Q170.26 16.97 170.30 17.08L170.39 17.17L170.27 17.24L170.47 17.90L170.39 17.82Q170.41 18.03 170.37 18.18L170.46 18.27L170.49 18.30Q170.31 19.91 168.78 21.09L168.77 21.07L168.85 21.16Q168.00 22.13 165.98 22.32L165.90 22.24L165.85 22.19Q165.25 22.46 164.37 22.46L164.28 22.37L164.29 22.38Q164.42 22.81 164.57 23.50L164.54 23.46L164.45 23.38Q166.26 23.43 167.70 24.16L167.67 24.13L167.63 24.20L166.06 24.37L166.09 24.41Q166.06 24.68 166.18 25.29L166.15 25.26L166.16 25.28Q168.35 25.26 170.06 26.59L170.05 26.58L169.92 26.45Q170.16 26.84 170.46 28.47L170.64 28.65L170.60 28.61Q170.67 31.43 167.74 31.85L167.80 31.91L167.75 31.85Q165.68 32.15 165.11 32.11L165.21 32.20L165.07 32.07Q164.76 32.10 164.23 32.03L164.08 31.88L164.09 31.43L164.37 31.14L164.33 30.68L164.27 30.28L164.35 30.36Q163.31 30.34 162.51 30.53L162.66 30.69L162.66 30.68Q162.53 30.37 162.53 30.18L162.57 30.21L162.60 30.24Q162.61 30.03 162.61 29.80L162.50 29.69L162.52 29.71Q162.68 29.41 162.84 28.69L162.78 28.64L162.69 28.55Q161.01 28.96 159.14 29.30L158.97 29.13L158.96 29.12Q159.13 29.78 159.01 30.90L158.86 30.75L158.92 30.81Q158.76 31.89 158.76 32.49L158.83 32.56L158.80 32.54Q158.85 34.57 160.22 35.33L160.33 35.44L160.35 35.46Q161.66 37.57 166.38 37.38L166.42 37.41L166.48 37.48Q167.14 37.37 168.66 37.53Z"/><path fill="#333" d="M84.47 27.25L75.14 17.16L75.14 17.16Q75.98 20.85 75.98 24.58L76.02 24.62L75.89 24.49Q75.96 30.54 73.91 36.10L73.84 36.03L73.81 36.00Q72.93 36.46 70.69 37.22L70.64 37.17L70.66 37.19Q73.41 31.34 73.41 24.64L73.44 24.67L73.34 24.57Q73.38 15.97 68.89 8.54L68.99 8.64L68.92 8.57Q69.29 8.68 69.97 9.10L69.95 9.07L69.98 9.10Q82.08 20.33 89.92 29.58L89.99 29.65L89.96 29.61Q89.73 27.25 89.73 24.81L89.74 24.82L89.71 24.80Q89.70 17.56 92.22 11.35L92.21 11.35L92.13 11.27Q94.47 10.75 96.07 10.06L96.02 10.02L96.05 10.05Q92.76 16.24 92.46 23.39L92.57 23.50L92.41 23.35Q92.24 30.83 95.21 36.99L95.25 37.04L95.11 36.89Q94.60 36.88 94.18 36.69L94.24 36.75L94.07 36.58Q89.69 32.81 84.47 27.25L84.28 27.06ZM97.86 40.22L97.69 40.04L97.76 40.12Q98.21 40.27 98.63 40.46L98.62 40.45L99.56 40.89L99.54 40.87Q94.28 33.82 94.28 24.46L94.34 24.52L94.26 24.43Q94.26 17.20 97.57 10.96L97.70 11.08L97.62 11.01Q96.98 11.24 95.57 11.85L95.52 11.80L95.67 11.94Q95.94 11.01 96.78 9.44L96.86 9.53L96.75 9.41Q94.34 10.36 91.91 10.93L91.96 10.98L91.95 10.97Q89.28 17.40 89.28 24.82L89.29 24.83L89.33 24.87Q89.25 26.66 89.44 28.64L89.49 28.68L89.47 28.67Q84.91 23.08 80.15 18.47L80.13 18.45L69.94 8.64L69.92 8.63Q69.52 8.49 68.30 7.91L68.26 7.88L68.25 7.87Q73.06 15.53 73.06 24.63L73.10 24.67L73.08 24.65Q73.09 31.78 70.01 37.80L70.02 37.80L69.98 37.77Q70.34 37.71 71.98 37.10L71.89 37.01L71.96 37.09Q71.53 37.76 70.69 39.24L70.71 39.26L70.87 39.42Q72.21 38.89 75.68 38.09L75.66 38.08L75.59 38.01Q77.83 31.80 77.83 24.60L77.99 24.77L77.83 24.61Q77.95 22.63 77.72 20.49L77.72 20.50L77.72 20.50Q89.20 33.31 97.80 40.16Z"/></svg>