<svg xmlns="http://www.w3.org/2000/svg" width="200" height="40" viewBox="0,0,200,40"><path d="M15 15 C98 30,113 22,181 6" stroke="#222" fill="none"/><path fill="#333" d="M130.45 9.35L130.41 9.30L130.32 9.21Q134.17 11.80 138.92 12.03L138.97 12.08L138.92 12.02Q143.49 12.14 147.75 10.39L147.88 10.52L147.78 10.42Q147.64 11.08 146.88 13.86L146.88 13.86L146.94 13.92Q144.08 14.83 141.11 14.98L141.16 15.03L141.12 14.99Q138.24 15.23 135.35 14.51L135.28 14.45L135.22 14.38Q135.97 18.07 136.17 21.72L136.18 21.74L136.23 21.79Q138.11 21.87 139.71 21.84L139.75 21.88L139.83 21.96Q140.91 21.83 143.31 21.71L143.30 21.70L143.45 21.85Q143.34 22.42 143.34 23.11L143.34 23.11L143.29 24.39L143.26 24.36Q141.02 24.53 136.23 24.60L136.17 24.54L136.07 24.44Q136.10 28.59 135.53 32.59L135.57 32.62L135.64 32.69Q138.31 32.09 141.05 32.21L140.90 32.05L140.86 32.01Q143.56 32.09 146.15 32.92L146.33 33.10L146.18 32.96Q146.38 33.88 146.65 34.64L146.50 34.50L146.98 36.04L147.09 36.15Q143.76 34.72 140.33 34.72L140.33 34.72L140.52 34.91Q135.51 34.77 131.24 37.01L131.24 37.01L131.21 36.98Q133.66 30.29 133.39 23.17L133.36 23.14L133.30 23.08Q133.07 15.96 130.40 9.30ZM130.86 37.85L130.88 37.87L130.76 37.75Q132.08 37.09 132.84 36.75L132.80 36.70L132.81 36.71Q132.61 37.47 132.04 38.99L132.05 39.00L132.06 39.01Q136.59 37.03 141.65 37.30L141.65 37.29L141.68 37.32Q146.86 37.64 150.86 40.34L150.77 40.25L150.75 40.22Q149.64 37.75 148.95 35.80L149.00 35.85L148.88 35.74Q147.89 35.13 146.90 34.78L146.99 34.87L146.90 34.78Q146.54 33.43 146.39 32.63L146.44 32.68L146.36 32.60Q143.45 31.78 140.29 31.78L140.27 31.77L140.24 31.74Q139.11 31.75 137.97 31.86L137.85 31.75L137.84 31.73Q138.12 30.64 138.16 29.42L138.06 29.33L138.07 26.75L138.15 26.82Q140.04 26.82 141.83 26.86L141.80 26.83L141.79 26.81Q143.49 26.73 145.28 26.88L145.34 26.94L145.44 27.04Q145.31 26.03 145.31 25.08L145.24 25.01L145.24 23.10L144.55 23.29L144.53 23.27Q144.12 23.36 143.66 23.36L143.55 23.25L143.63 23.33Q143.56 22.57 143.72 21.28L143.68 21.25L143.72 21.28Q142.08 21.47 140.90 21.51L140.96 21.56L140.99 21.60Q140.11 21.67 138.28 21.60L138.24 21.55L138.29 21.60Q138.13 20.11 137.94 17.30L137.95 17.30L137.97 17.33Q139.06 17.50 140.05 17.50L139.88 17.33L140.00 17.45Q144.71 17.44 148.41 15.54L148.44 15.57L148.43 15.56Q148.98 13.18 149.85 10.97L149.76 10.87L149.78 10.90Q148.43 11.72 147.59 12.06L147.74 12.21L147.57 12.03Q147.89 11.29 148.35 9.73L148.49 9.87L148.44 9.82Q143.86 12.02 138.98 11.71L138.81 11.54L138.80 11.53Q133.54 11.26 129.70 8.40L129.70 8.40L129.72 8.43Q132.62 15.40 132.92 23.01L132.94 23.02L132.88 22.97Q133.28 30.98 130.77 37.76Z"/><path fill="#333" d="M52.67 35.00L52.55 34.88L52.52 34.85Q48.33 34.28 46.50 32.83L46.53 32.86L46.52 32.85Q44.68 31.39 44.26 28.38L44.31 28.43L44.29 28.41Q44.30 28.08 43.96 23.32L43.91 23.27L44.04 23.40Q44.08 22.23 44.01 20.97L43.88 20.84L44.05 21.01Q43.71 15.80 45.92 14.05L45.97 14.10L46.04 14.17Q48.65 12.02 56.41 11.33L56.33 11.25L56.37 11.29Q57.67 11.11 59.31 11.15L59.29 11.12L59.31 11.15Q59.42 11.26 62.39 11.26L62.28 11.15L62.24 11.11Q63.11 11.14 64.83 11.30L64.97 11.44L64.95 11.42Q64.40 12.31 63.37 15.39L63.37 15.40L63.40 15.43Q61.31 14.21 58.30 14.21L58.31 14.22L58.19 14.10Q57.51 14.18 56.71 14.26L56.67 14.21L56.75 14.30Q51.62 14.73 49.11 16.71L49.10 16.70L49.10 16.70Q47.09 18.30 46.93 21.65L46.83 21.55L46.90 21.61Q46.83 22.20 46.87 23.45L46.95 23.53L46.89 23.48Q46.94 28.24 49.34 30.33L49.38 30.38L49.46 30.46Q51.56 32.32 56.54 32.63L56.53 32.61L56.61 32.70Q59.71 32.82 62.71 31.04L62.75 31.07L62.80 31.12Q63.26 33.71 63.87 35.08L63.90 35.11L63.96 35.18Q61.86 35.44 60.23 35.40L60.18 35.35L60.25 35.42Q55.67 35.26 52.55 34.88ZM67.65 38.60L67.70 38.65L67.68 38.62Q65.83 35.56 65.14 32.97L65.22 33.05L65.23 33.06Q64.80 33.31 63.81 33.69L63.85 33.74L63.83 33.71Q63.50 32.92 63.31 32.08L63.36 32.13L62.90 30.34L62.92 30.37Q59.54 32.32 56.42 32.20L56.57 32.36L56.43 32.21Q52.29 32.14 49.96 30.39L50.02 30.45L49.86 30.29Q48.75 28.49 48.83 25.56L48.94 25.67L48.81 25.54Q48.92 21.01 51.40 18.88L51.48 18.97L51.57 19.06Q53.54 16.99 58.22 16.38L58.22 16.37L58.38 16.53Q59.07 16.31 59.79 16.31L59.79 16.31L59.85 16.37Q62.57 16.31 64.66 17.83L64.78 17.95L64.75 17.92Q65.26 15.81 66.48 12.57L66.43 12.52L66.36 12.44Q66.23 12.59 65.68 12.53L65.56 12.41L65.69 12.54Q64.98 12.33 64.72 12.33L64.70 12.31L64.73 12.34Q64.95 11.83 65.40 10.85L65.50 10.94L65.39 10.83Q65.25 10.91 62.75 10.84L62.62 10.71L62.62 10.71Q60.31 10.81 59.66 10.85L59.49 10.68L59.51 10.70Q49.04 11.08 45.58 13.67L45.53 13.62L45.50 13.59Q43.52 15.46 43.52 19.38L43.58 19.43L43.58 19.44Q43.48 20.44 43.59 23.14L43.70 23.25L43.64 23.19Q43.86 26.84 44.09 28.55L43.94 28.40L44.10 28.56Q44.34 31.54 45.94 33.06L45.95 33.07L45.95 33.07Q46.49 33.80 47.74 34.94L47.82 35.02L47.76 34.96Q51.01 36.72 56.26 37.49L56.38 37.61L56.22 37.45Q62.73 38.47 67.72 38.66Z"/><path fill="#222" d="M116.91 23.74L116.90 23.74L111.00 23.81L111.01 23.82Q108.03 23.81 105.10 23.74L105.17 23.81L105.12 23.76Q105.16 30.39 103.11 35.91L103.21 36.01L103.19 35.99Q101.33 36.45 99.58 37.14L99.52 37.08L99.58 37.14Q102.28 31.35 102.28 24.68L102.36 24.77L102.40 24.81Q102.26 16.18 98.15 9.13L98.26 9.25L98.31 9.30Q99.80 10.07 102.28 10.87L102.21 10.80L102.22 10.81Q104.33 15.85 104.86 20.72L105.00 20.86L104.85 20.71Q108.00 21.08 110.86 21.05L110.86 21.05L110.93 21.12Q113.55 21.07 116.86 20.80L116.99 20.93L117.03 20.97Q117.45 16.53 119.20 11.42L119.09 11.31L119.22 11.44Q121.15 11.01 123.40 10.17L123.32 10.09L123.41 10.18Q119.65 16.78 119.65 24.74L119.63 24.71L119.65 24.74Q119.65 30.95 122.01 36.28L122.12 36.39L122.06 36.32Q120.50 35.75 118.45 35.45L118.33 35.33L118.37 35.37Q116.81 30.46 116.92 23.76ZM118.22 35.84L118.22 35.84L118.18 35.80Q119.17 35.90 120.27 36.17L120.21 36.11L120.22 36.12Q120.54 36.81 121.18 38.30L121.25 38.37L121.22 38.34Q124.63 39.34 126.41 40.26L126.39 40.23L126.49 40.34Q122.01 34.14 121.71 25.88L121.66 25.83L121.57 25.75Q121.26 17.70 124.91 10.89L125.01 10.98L123.93 11.43L124.01 11.51Q123.40 11.62 122.79 11.78L122.82 11.80L122.79 11.77Q123.25 11.02 124.09 9.46L124.13 9.50L124.01 9.37Q121.50 10.56 118.87 11.05L118.89 11.07L118.77 10.95Q117.17 15.86 116.72 20.55L116.69 20.52L116.71 20.54Q114.11 20.64 111.67 20.64L111.69 20.66L111.78 20.75Q109.37 20.74 106.86 20.59L106.81 20.54L106.76 20.49Q106.62 17.30 105.51 13.23L105.46 13.18L105.48 13.20Q104.73 13.02 103.29 12.64L103.34 12.70L103.47 12.82Q103.09 11.61 102.64 10.58L102.62 10.56L102.47 10.42Q99.86 9.78 97.57 8.52L97.44 8.39L97.60 8.55Q102.07 15.88 102.07 24.67L102.17 24.76L102.11 24.71Q101.99 31.56 98.87 37.68L99.00 37.81L98.95 37.77Q99.62 37.45 100.95 36.88L101.06 36.98L101.08 37.00Q100.76 37.86 99.96 39.39L99.96 39.39L99.79 39.21Q102.69 38.31 104.93 37.89L104.91 37.87L104.99 37.95Q106.83 32.36 107.02 26.20L106.90 26.07L106.93 26.10Q108.58 26.07 111.77 26.04L111.81 26.07L111.82 26.09Q114.58 25.95 116.48 26.02L116.57 26.11L116.50 26.04Q116.72 31.74 118.05 35.66Z"/><path d="M16 31 C80 31,119 25,191 2" stroke="#777" fill="none"/><path fill="#222" d="M29.26 22.23L29.19 22.16L29.16 22.13Q29.93 22.11 31.34 21.95L31.43 22.04L31.37 21.98Q31.43 22.72 31.43 23.37L31.42 23.36L31.36 24.56L31.28 24.48Q30.52 24.56 29.68 24.63L29.70 24.65L29.60 24.55Q28.93 24.75 28.09 24.72L28.02 24.64L28.03 24.66Q25.26 30.91 21.84 35.52L21.79 35.47L21.67 35.35Q19.23 36.07 17.93 36.68L18.00 36.74L18.02 36.76Q22.09 31.01 25.14 24.73L25.06 24.66L22.36 24.58L22.43 24.65Q22.54 23.42 22.42 22.09L22.27 21.95L22.28 21.95Q24.25 22.17 26.31 22.17L26.25 22.11L28.23 18.50L28.20 18.47Q29.11 16.49 30.33 14.89L30.45 15.01L30.39 14.94Q28.88 15.15 27.28 15.15L27.25 15.12L27.31 15.18Q21.11 15.07 17.34 12.86L17.47 13.00L16.65 11.11L16.75 11.21Q16.33 10.29 15.95 9.41L16.04 9.51L15.94 9.40Q20.40 12.15 26.11 12.38L26.01 12.28L26.07 12.34Q31.13 12.48 36.26 10.51L36.35 10.59L36.42 10.66Q36.20 11.05 35.71 11.93L35.60 11.82L35.65 11.87Q32.02 16.62 29.17 22.14ZM37.22 13.21L37.23 13.22L38.17 11.16L38.26 11.24Q37.37 11.80 35.69 12.52L35.66 12.49L35.80 12.14L35.89 12.23Q35.87 11.93 35.98 11.82L36.08 11.92L35.97 11.81Q36.47 11.24 37.19 9.91L37.07 9.79L37.17 9.88Q31.90 12.23 26.15 12.00L25.99 11.84L26.02 11.87Q20.02 11.62 15.26 8.65L15.21 8.59L15.23 8.62Q16.25 10.48 17.09 13.15L17.08 13.14L17.26 13.32Q18.19 13.79 18.99 14.09L19.02 14.13L19.16 14.26Q19.31 14.60 19.77 16.47L19.72 16.42L19.59 16.29Q22.79 17.59 28.31 17.44L28.39 17.52L28.36 17.49Q28.06 18.06 26.08 21.83L25.98 21.73L25.99 21.74Q24.09 21.89 22.11 21.70L21.97 21.57L22.02 21.62Q22.11 22.47 22.11 23.34L22.12 23.35L22.16 25.10L23.82 25.09L23.73 26.41L23.73 26.40Q19.95 33.94 17.17 37.51L17.19 37.53L17.08 37.42Q18.77 36.76 20.41 36.26L20.32 36.17L20.40 36.25Q19.55 37.00 18.18 38.72L18.27 38.80L18.22 38.75Q21.45 37.72 23.88 37.49L23.93 37.53L23.96 37.57Q26.75 33.66 29.87 26.88L29.85 26.86L33.32 27.09L33.44 27.21Q33.23 26.17 33.23 25.25L33.35 25.37L33.23 23.45L33.21 23.44Q32.94 23.44 32.39 23.48L32.37 23.46L32.53 23.61Q31.87 23.55 31.60 23.55L31.73 23.67L31.62 23.57Q31.64 23.47 31.68 23.32L31.77 23.40L31.71 23.08L31.60 22.97Q34.13 17.85 37.21 13.21Z"/><path fill="#222" d="M166.72 24.10L166.72 24.10L166.72 24.10Q164.86 23.96 163.63 25.39L163.75 25.52L163.61 25.37Q162.52 26.94 162.33 28.85L162.24 28.76L162.15 28.68Q162.00 30.81 163.08 31.78L163.18 31.87L163.17 31.86Q164.27 32.85 166.36 32.73L166.24 32.61L166.32 32.69Q168.34 32.47 169.45 31.78L169.37 31.70L169.39 31.72Q170.69 30.78 170.69 29.22L170.57 29.10L170.54 29.07Q170.54 28.69 170.46 28.31L170.60 28.44L170.58 28.43Q170.58 26.67 169.48 25.32L169.47 25.32L169.56 25.40Q168.31 23.90 166.63 24.02ZM166.33 35.25L166.28 35.20L166.31 35.23Q162.03 35.33 160.62 34.56L160.43 34.38L160.46 34.40Q159.56 33.78 159.37 32.06L159.30 31.99L159.23 31.92Q159.29 31.33 159.33 30.61L159.34 30.62L159.31 30.59Q159.35 29.53 159.35 29.07L159.36 29.08L159.47 29.19Q159.81 26.22 159.96 25.53L160.09 25.66L159.97 25.54Q160.47 23.64 161.30 22.23L161.29 22.22L161.24 22.16Q163.94 17.82 169.87 11.46L169.91 11.50L169.93 11.52Q172.61 11.23 174.82 10.43L174.74 10.35L174.83 10.44Q167.87 17.79 164.67 22.02L164.73 22.07L164.78 22.13Q165.77 21.63 167.06 21.63L167.09 21.66L166.97 21.54Q170.28 21.54 171.81 23.48L171.82 23.49L171.82 23.50Q173.16 25.14 173.50 28.68L173.59 28.76L173.61 28.79Q173.60 29.43 173.60 30.04L173.61 30.04L173.53 29.97Q173.71 33.27 171.51 34.33L171.47 34.30L171.36 34.19Q170.23 34.89 166.35 35.27ZM168.61 37.64L168.62 37.65L168.67 37.70Q169.87 37.57 171.84 37.64L171.89 37.68L171.77 37.57Q173.50 37.74 175.06 37.01L175.10 37.06L175.16 37.11Q176.27 36.32 176.27 34.53L176.09 34.36L176.26 34.52Q176.25 34.02 176.08 33.03L176.09 33.04L175.97 32.92Q175.85 31.98 175.85 31.52L175.85 31.52L175.74 31.41Q174.96 26.79 173.36 24.88L173.33 24.85L173.32 24.84Q173.26 24.74 173.10 24.51L173.04 24.45L172.79 24.27L172.66 24.19L172.77 24.29Q172.43 23.80 171.82 22.85L171.76 22.79L171.88 22.91Q170.82 21.81 168.84 21.35L168.97 21.48L168.81 21.32Q170.07 19.77 173.04 16.08L173.09 16.13L177.22 10.74L177.31 10.82Q175.82 11.78 173.42 12.54L173.30 12.41L173.35 12.47Q174.19 11.40 175.98 9.42L176.13 9.57L176.12 9.56Q173.63 10.54 169.75 11.11L169.80 11.16L169.75 11.11Q164.11 17.08 161.14 22.03L161.04 21.93L161.13 22.02Q159.51 24.44 158.94 30.68L159.02 30.76L158.96 30.69Q158.86 31.25 158.94 32.20L158.96 32.22L158.93 32.19Q159.06 33.99 160.16 34.91L160.18 34.93L160.15 34.90Q160.53 35.05 160.49 35.09L160.42 35.02L160.58 35.17Q160.85 35.97 161.65 36.39L161.61 36.35L161.60 36.35Q163.16 37.14 165.10 37.33L165.07 37.30L165.12 37.35Q165.15 37.38 168.65 37.68ZM168.34 26.37L168.32 26.36L168.43 26.46Q168.99 26.34 169.95 26.84L169.98 26.87L169.91 26.80Q170.28 27.78 170.28 28.43L170.27 28.42L170.26 28.41Q170.44 30.27 169.49 31.26L169.52 31.28L169.51 31.27Q168.38 31.93 166.28 32.23L166.24 32.19L166.37 32.32Q164.94 32.34 164.41 32.07L164.37 32.04L164.31 31.98Q164.05 31.45 164.05 31.14L164.16 31.26L164.09 31.18Q163.90 27.95 166.84 26.66L166.82 26.64L166.84 26.66Q167.67 26.39 168.43 26.47Z"/><path fill="#111" d="M85.18 34.92L85.03 34.77L83.20 34.89L83.10 34.79Q82.24 34.87 81.28 34.99L81.17 34.88L81.25 34.96Q81.81 28.73 81.81 24.73L81.77 24.70L81.85 24.78Q77.79 18.01 70.13 9.33L70.16 9.36L70.16 9.36Q72.05 10.45 75.40 11.25L75.38 11.23L75.37 11.21Q80.42 16.80 83.43 22.01L83.34 21.93L83.52 22.11Q86.52 16.55 90.90 11.52L90.72 11.34L90.81 11.43Q93.13 10.93 95.64 10.13L95.82 10.31L95.77 10.26Q89.76 16.39 84.88 24.80L84.74 24.66L84.71 24.63Q84.82 31.79 85.13 34.87ZM94.17 12.24L96.96 9.47L96.96 9.47Q93.83 10.61 90.71 11.06L90.71 11.06L90.72 11.08Q86.42 15.72 83.60 20.82L83.65 20.87L83.66 20.87Q81.60 17.29 78.40 13.41L78.41 13.42L78.38 13.39Q78.00 13.28 77.51 13.20L77.54 13.23L77.63 13.32Q76.86 12.44 75.33 10.76L75.28 10.71L75.26 10.69Q71.88 9.93 68.91 8.37L69.00 8.46L69.05 8.51Q76.65 16.87 81.41 24.79L81.51 24.90L81.48 24.86Q81.43 31.25 80.82 35.40L80.73 35.30L80.74 35.32Q81.58 35.39 83.02 35.28L82.96 35.21L82.97 36.26L82.97 36.25Q82.96 36.70 82.88 37.23L82.85 37.20L82.96 37.31Q86.44 37.25 88.19 37.44L88.15 37.40L88.21 37.45Q87.02 32.84 86.90 26.86L86.89 26.85L86.89 26.85Q91.26 18.39 97.80 11.04L97.73 10.96L94.10 12.17Z"/></svg>