<svg xmlns="http://www.w3.org/2000/svg" width="200" height="40" viewBox="0,0,200,40"><path fill="#222" d="M166.80 24.18L166.68 24.06L166.77 24.16Q164.82 23.92 163.59 25.35L163.68 25.45L163.74 25.51Q162.35 26.78 162.16 28.68L162.13 28.66L162.21 28.73Q162.08 30.89 163.17 31.86L163.10 31.80L163.16 31.85Q164.08 32.66 166.17 32.54L166.18 32.55L166.33 32.70Q168.44 32.57 169.55 31.88L169.41 31.74L169.43 31.76Q170.67 30.76 170.67 29.20L170.56 29.09L170.65 29.18Q170.55 28.70 170.48 28.32L170.60 28.44L170.55 28.39Q170.69 26.78 169.59 25.43L169.43 25.27L169.53 25.38Q168.32 23.91 166.64 24.03ZM166.32 35.25L166.38 35.30L166.38 35.30Q161.98 35.28 160.57 34.51L160.60 34.55L160.53 34.47Q159.49 33.70 159.30 31.99L159.34 32.03L159.36 32.05Q159.23 31.27 159.27 30.55L159.33 30.61L159.38 30.66Q159.46 29.63 159.46 29.18L159.46 29.18L159.44 29.16Q159.94 26.35 160.09 25.67L160.11 25.68L160.07 25.64Q160.56 23.73 161.39 22.32L161.29 22.21L161.30 22.23Q163.90 17.78 169.83 11.42L169.89 11.48L169.89 11.48Q172.65 11.27 174.86 10.47L174.79 10.40L174.76 10.37Q167.92 17.84 164.72 22.07L164.80 22.14L164.80 22.15Q165.81 21.67 167.10 21.67L167.10 21.67L167.12 21.69Q170.43 21.68 171.95 23.63L171.80 23.48L171.88 23.56Q173.17 25.15 173.52 28.69L173.60 28.77L173.53 28.71Q173.59 29.41 173.59 30.02L173.56 29.99L173.59 30.02Q173.54 33.10 171.34 34.17L171.34 34.17L171.38 34.21Q170.19 34.85 166.31 35.23ZM168.52 37.55L168.65 37.69L168.59 37.63Q169.91 37.61 171.89 37.69L171.96 37.75L171.96 37.76Q173.55 37.79 175.11 37.06L174.98 36.93L174.98 36.94Q176.07 36.12 176.07 34.33L176.12 34.38L176.22 34.48Q176.09 33.86 175.92 32.87L175.91 32.86L176.08 33.02Q175.92 32.05 175.92 31.60L175.88 31.55L175.90 31.58Q174.93 26.75 173.33 24.85L173.44 24.96L173.42 24.94Q173.19 24.67 173.03 24.44L173.16 24.56L172.80 24.28L172.80 24.33L172.68 24.20Q172.30 23.68 171.70 22.72L171.70 22.72L171.86 22.89Q170.94 21.93 168.96 21.48L168.91 21.43L168.95 21.46Q170.09 19.78 173.06 16.09L173.14 16.17L177.21 10.73L177.24 10.76Q175.69 11.64 173.29 12.40L173.42 12.53L173.33 12.45Q174.33 11.54 176.12 9.56L176.13 9.57L176.02 9.46Q173.59 10.49 169.71 11.06L169.82 11.18L169.80 11.16Q164.01 16.98 161.04 21.93L161.07 21.96L161.02 21.90Q159.54 24.46 158.97 30.70L159.00 30.74L159.06 30.80Q158.84 31.22 158.92 32.18L159.05 32.31L158.96 32.22Q159.06 34.00 160.17 34.91L160.20 34.95L160.14 34.89Q160.55 35.06 160.51 35.10L160.54 35.13L160.62 35.21Q160.90 36.03 161.70 36.45L161.78 36.53L161.61 36.36Q163.05 37.03 164.99 37.22L165.12 37.35L165.17 37.40Q165.13 37.36 168.63 37.67ZM168.38 26.41L168.44 26.48L168.39 26.42Q168.97 26.32 169.92 26.82L169.80 26.69L169.95 26.85Q170.31 27.81 170.31 28.46L170.21 28.36L170.27 28.42Q170.33 30.16 169.38 31.15L169.38 31.15L169.56 31.32Q168.40 31.95 166.31 32.26L166.39 32.34L166.38 32.33Q164.96 32.36 164.43 32.09L164.34 32.00L164.37 32.04Q164.16 31.56 164.16 31.25L164.09 31.19L164.20 31.29Q163.82 27.87 166.76 26.58L166.82 26.64L166.94 26.76Q167.62 26.34 168.38 26.42Z"/><path fill="#444" d="M53.46 35.29L53.34 35.17L53.40 35.23Q50.00 35.41 48.36 34.88L48.23 34.74L48.26 34.78Q46.38 34.23 46.08 30.84L45.95 30.72L47.48 29.73L47.54 29.80Q48.14 29.14 48.90 28.64L48.99 28.73L48.92 28.66Q48.73 30.64 50.33 31.86L50.23 31.76L50.20 31.73Q51.58 32.84 53.71 32.65L53.69 32.63L53.72 32.67Q58.15 32.30 57.96 28.76L57.95 28.74L57.79 28.58Q57.68 26.38 55.05 25.16L55.15 25.26L55.15 25.26Q52.25 24.15 49.89 22.93L49.98 23.02L49.87 22.91Q47.31 21.57 46.32 16.89L46.39 16.95L46.40 16.97Q46.15 16.37 46.03 15.61L46.08 15.66L46.07 15.65Q45.96 14.85 46.03 14.28L46.07 14.32L46.14 14.38Q46.36 12.85 47.61 12.39L47.55 12.33L47.57 12.35Q49.83 11.34 53.83 11.53L54.02 11.72L53.96 11.66Q55.78 11.76 56.58 11.84L56.57 11.83L56.56 11.82Q58.11 12.08 59.18 12.54L59.13 12.49L59.08 12.44Q61.14 12.86 61.36 15.33L61.51 15.48L61.36 15.33Q60.34 16.06 58.13 17.39L58.24 17.50L58.16 17.42Q57.68 14.35 53.30 14.35L53.31 14.36L53.38 14.43Q51.55 14.50 50.56 15.19L50.48 15.11L50.45 15.07Q49.28 15.59 49.51 17.38L49.50 17.36L49.46 17.32Q49.73 19.53 52.69 21.05L52.85 21.21L52.82 21.18Q53.31 21.36 57.80 23.00L57.76 22.96L57.72 22.92Q60.37 24.43 60.79 28.81L60.91 28.92L60.80 28.81Q60.88 29.05 60.95 30.30L60.91 30.26L60.89 30.24Q61.08 33.13 59.52 34.24L59.47 34.18L59.49 34.21Q57.63 35.16 53.44 35.27ZM55.65 37.56L55.63 37.54L55.77 37.69Q57.08 37.62 59.06 37.62L59.19 37.75L59.08 37.64Q61.15 37.61 62.40 37.20L62.55 37.34L62.56 37.35Q63.63 36.37 63.56 34.58L63.65 34.67L63.65 34.68Q63.55 33.62 63.17 31.56L63.21 31.60L63.28 31.67Q62.33 26.96 60.24 25.09L60.22 25.08L60.20 25.05Q59.45 23.51 58.12 22.78L58.09 22.75L52.77 20.67L52.73 20.63Q52.39 20.44 51.93 20.21L51.98 20.26L51.92 19.94L51.81 19.48L51.84 19.51Q51.81 18.22 52.95 17.61L52.79 17.46L52.79 17.45Q53.54 16.87 55.25 16.68L55.34 16.77L55.39 16.82Q56.42 16.60 57.57 17.06L57.57 17.05L57.66 17.15Q57.71 17.24 57.90 18.07L57.81 17.98L57.92 18.09Q58.14 17.97 58.63 17.74L58.50 17.60L58.49 17.59Q59.20 18.50 59.31 19.64L59.46 19.78L59.38 19.70Q59.53 19.74 63.18 17.15L63.16 17.13L63.05 17.01Q62.82 14.43 61.38 13.75L61.45 13.82L61.45 13.82Q60.94 12.63 59.50 12.10L59.42 12.02L59.50 12.09Q57.04 11.13 53.85 11.13L53.86 11.14L53.90 11.18Q48.96 11.15 47.10 11.84L47.20 11.94L47.15 11.89Q45.73 12.26 45.62 13.94L45.64 13.96L45.65 13.97Q45.66 14.55 46.08 16.76L46.07 16.75L46.18 16.86Q46.74 20.50 48.91 22.75L48.94 22.78L48.99 22.83Q49.81 24.56 51.31 25.25L51.25 25.19L51.33 25.27Q52.73 25.85 56.65 27.41L56.57 27.33L56.55 27.35L57.24 27.73L57.29 27.82L57.30 27.83Q57.49 28.28 57.53 28.63L57.57 28.67L57.60 28.70Q57.56 32.05 53.64 32.20L53.60 32.16L53.61 32.17Q52.61 32.35 51.31 31.97L51.20 31.86L51.28 31.93Q50.83 30.99 50.83 30.26L50.90 30.34L51.02 30.45Q50.95 30.12 50.99 29.85L50.91 29.77L50.95 29.82Q50.59 30.10 49.79 30.59L49.70 30.51L49.72 30.53Q49.21 29.41 49.36 28.04L49.39 28.07L49.34 28.02Q47.26 29.21 45.66 30.62L45.76 30.71L45.80 30.76Q45.79 31.51 45.86 32.53L45.87 32.54L45.78 32.45Q46.15 34.23 47.44 34.99L47.47 35.02L47.36 34.91Q48.63 36.78 51.18 37.16L51.27 37.25L51.28 37.26Q52.80 37.45 55.73 37.64Z"/><path fill="#222" d="M29.17 22.14L29.27 22.24L29.14 22.11Q30.05 22.22 31.45 22.06L31.41 22.02L31.32 21.93Q31.41 22.70 31.41 23.35L31.28 23.22L31.31 24.51L31.27 24.47Q30.43 24.47 29.59 24.54L29.75 24.70L29.70 24.65Q28.81 24.64 27.97 24.60L27.95 24.58L28.07 24.70Q25.17 30.82 21.74 35.42L21.69 35.37L21.72 35.40Q19.31 36.15 18.01 36.76L17.86 36.61L17.96 36.71Q21.97 30.89 25.02 24.61L25.05 24.65L22.53 24.75L22.38 24.60Q22.51 23.40 22.40 22.07L22.41 22.08L22.37 22.04Q24.30 22.22 26.36 22.22L26.28 22.15L28.17 18.44L28.14 18.40Q29.22 16.59 30.44 15.00L30.50 15.06L30.38 14.94Q28.92 15.19 27.32 15.19L27.20 15.07L27.27 15.14Q21.21 15.17 17.44 12.96L17.34 12.87L16.82 11.28L16.71 11.17Q16.34 10.30 15.96 9.42L16.02 9.48L16.07 9.53Q20.39 12.15 26.10 12.37L26.00 12.27L26.01 12.28Q31.28 12.64 36.42 10.66L36.40 10.64L36.34 10.58Q36.16 11.01 35.67 11.89L35.70 11.92L35.67 11.89Q32.05 16.64 29.19 22.16ZM37.35 13.34L37.25 13.24L38.27 11.26L38.33 11.31Q37.21 11.64 35.54 12.37L35.56 12.39L35.75 12.09L35.74 12.08Q35.86 11.93 35.98 11.82L36.01 11.85L35.99 11.83Q36.50 11.27 37.22 9.94L37.20 9.92L37.10 9.82Q31.86 12.19 26.11 11.96L26.13 11.98L26.00 11.85Q20.10 11.70 15.34 8.73L15.25 8.64L15.33 8.72Q16.24 10.47 17.08 13.13L17.14 13.19L17.19 13.24Q18.25 13.85 19.05 14.15L19.12 14.22L19.00 14.10Q19.23 14.52 19.68 16.38L19.61 16.31L19.62 16.32Q22.87 17.66 28.39 17.51L28.46 17.58L28.33 17.46Q28.06 18.06 26.08 21.83L26.14 21.89L26.15 21.90Q23.97 21.78 21.99 21.59L21.99 21.59L22.03 21.63Q22.08 22.44 22.08 23.31L22.15 23.38L22.17 25.12L23.85 25.12L23.79 26.47L23.79 26.46Q19.85 33.83 17.07 37.41L17.00 37.35L17.01 37.36Q18.74 36.73 20.38 36.23L20.34 36.19L20.27 36.12Q19.69 37.14 18.32 38.85L18.28 38.81L18.27 38.81Q21.36 37.63 23.80 37.40L23.94 37.54L23.82 37.42Q26.77 33.68 29.90 26.90L29.94 26.95L33.26 27.03L33.40 27.17Q33.31 26.24 33.31 25.32L33.22 25.23L33.35 23.58L33.19 23.42Q33.06 23.55 32.50 23.59L32.42 23.50L32.49 23.58Q31.91 23.59 31.65 23.59L31.56 23.50L31.73 23.67Q31.65 23.48 31.69 23.32L31.74 23.38L31.61 22.98L31.72 23.09Q34.22 17.94 37.31 13.30Z"/><path fill="#111" d="M140.66 15.04L140.80 15.19L140.65 15.03Q136.49 15.18 132.80 14.19L132.75 14.13L132.64 14.03Q134.23 18.66 134.42 23.50L134.49 23.57L134.47 23.55Q134.60 28.28 133.38 32.89L133.40 32.91L133.35 32.86Q136.21 32.29 139.71 32.14L139.81 32.23L139.77 32.20Q143.55 31.87 145.34 29.43L145.44 29.54L145.47 29.56Q146.86 27.38 147.05 23.27L147.11 23.32L147.15 23.36Q147.25 21.63 146.79 19.92L146.80 19.92L146.85 19.98Q145.45 15.12 140.73 15.12ZM128.82 37.12L128.87 37.18L128.91 37.21Q131.74 31.48 131.74 24.78L131.69 24.73L131.75 24.79Q131.80 16.31 127.50 9.31L127.48 9.29L127.46 9.27Q132.69 11.91 140.95 12.10L140.83 11.98L140.89 12.03Q149.79 12.26 150.14 19.42L150.14 19.42L150.08 19.36Q150.24 22.12 150.21 23.56L150.14 23.50L150.19 23.55Q150.13 28.24 149.29 30.41L149.40 30.52L149.34 30.46Q148.82 31.47 148.06 32.31L148.20 32.44L148.21 32.45Q146.85 33.99 144.22 34.48L144.13 34.39L144.21 34.47Q142.49 34.61 139.48 34.84L139.64 35.00L139.58 34.94Q133.47 35.42 128.87 37.17ZM146.83 37.08L146.84 37.10L146.78 37.04Q149.55 36.72 151.18 35.24L151.21 35.27L151.06 35.12Q152.40 33.48 152.36 30.74L152.25 30.63L152.25 30.63Q152.26 29.27 152.10 25.76L152.11 25.77L151.82 21.29L151.85 21.32Q151.60 18.98 150.65 16.89L150.70 16.94L150.63 16.87Q150.13 15.95 149.45 15.31L149.47 15.33L149.41 15.11L149.49 15.19Q147.68 12.13 143.27 11.75L143.28 11.77L143.34 11.82Q140.68 11.71 133.67 10.99L133.55 10.86L133.54 10.86Q130.31 10.44 126.62 8.43L126.59 8.39L126.74 8.55Q131.42 15.78 131.42 24.54L131.41 24.52L131.56 24.67Q131.53 31.65 128.18 37.82L128.19 37.83L128.12 37.76Q128.80 37.49 130.14 36.99L130.18 37.04L130.12 36.97Q129.81 37.84 128.93 39.33L128.97 39.37L128.89 39.28Q132.06 38.35 135.41 37.85L135.37 37.81L135.39 37.83Q137.35 37.39 141.00 37.27L141.04 37.31L141.11 37.38Q145.03 37.30 146.85 37.11ZM146.77 23.36L146.87 23.47L146.89 23.48Q146.49 31.46 139.79 31.84L139.75 31.80L139.68 31.73Q137.82 31.92 135.76 32.19L135.70 32.12L135.72 32.15Q136.45 28.31 136.45 24.66L136.40 24.60L136.47 24.67Q136.34 20.85 135.62 17.01L135.60 16.99L135.67 17.06Q137.96 17.45 142.65 17.45L142.72 17.53L142.66 17.46Q144.03 17.31 145.67 18.26L145.73 18.33L145.58 18.18Q146.97 20.55 146.82 23.41Z"/><path d="M11 19 C119 10,103 26,181 31" stroke="#666" fill="none"/><path d="M7 23 C114 2,119 7,194 7" stroke="#444" fill="none"/><path fill="#444" d="M78.67 35.36L78.63 35.32L78.58 35.27Q77.15 35.33 75.59 34.91L75.72 35.04L75.65 34.97Q74.51 34.13 74.36 32.50L74.31 32.45L74.33 32.47Q74.28 32.26 74.47 29.64L74.45 29.62L74.56 29.73Q75.50 29.45 77.52 29.07L77.52 29.08L77.32 29.82L77.26 29.77Q76.97 31.49 78.38 32.07L78.38 32.06L78.52 32.20Q79.34 32.56 81.43 32.56L81.36 32.49L81.41 32.55Q82.98 32.36 83.17 32.28L83.15 32.26L83.10 32.21Q84.07 32.12 84.79 31.62L84.69 31.52L84.70 31.53Q86.10 30.57 85.91 28.48L85.93 28.49L86.04 28.60Q85.84 26.16 84.11 24.60L84.07 24.56L84.03 24.52Q82.27 22.93 79.80 22.93L79.92 23.05L79.79 22.70L79.88 22.79Q80.17 22.66 81.04 22.58L81.13 22.67L81.05 22.59Q83.11 22.63 84.48 21.39L84.45 21.37L84.39 21.31Q85.87 20.17 86.02 18.31L86.01 18.30L85.88 18.17Q86.08 17.95 86.08 17.61L86.03 17.56L85.98 17.50Q85.95 15.96 84.58 15.04L84.60 15.06L84.54 15.01Q83.41 14.28 81.81 14.40L81.91 14.50L81.72 14.31Q80.43 14.17 79.21 14.58L79.26 14.63L79.24 14.61Q77.84 15.19 77.54 16.34L77.50 16.30L77.45 16.25Q77.37 17.11 77.44 17.88L77.37 17.81L77.47 17.90Q76.32 17.55 74.26 16.83L74.28 16.84L74.40 16.96Q74.12 15.24 74.15 14.40L74.19 14.43L74.10 14.34Q74.25 12.86 75.32 12.17L75.43 12.29L75.28 12.13Q76.74 11.58 78.34 11.58L78.26 11.50L78.37 11.61Q81.51 11.55 84.67 11.82L84.60 11.75L84.67 11.82Q89.64 12.15 89.34 15.92L89.44 16.01L89.35 15.92Q89.25 17.39 88.76 18.95L88.78 18.97L88.81 19.01Q88.00 22.19 85.64 23.11L85.53 23.00L85.66 23.13Q88.25 23.62 88.85 26.97L88.91 27.02L88.73 26.84Q88.96 27.98 89.03 30.00L89.04 30.01L89.18 30.14Q89.18 34.45 84.57 34.90L84.73 35.06L84.61 34.94Q83.97 35.11 78.68 35.37ZM83.96 37.68L83.90 37.62L83.91 37.63Q84.41 37.56 87.26 37.64L87.26 37.63L87.31 37.68Q89.08 37.77 90.71 37.12L90.80 37.21L90.65 37.06Q91.84 36.12 91.65 34.37L91.70 34.42L91.67 34.38Q91.59 33.09 91.29 31.34L91.36 31.41L91.32 31.37Q90.56 26.85 88.62 25.21L88.70 25.29L88.48 24.88L88.36 24.72L88.33 24.69Q90.20 23.37 90.97 18.99L90.92 18.94L90.87 18.90Q90.89 18.41 91.00 17.46L91.01 17.48L91.10 17.57Q91.10 16.72 91.02 16.04L91.13 16.14L91.11 16.12Q90.88 14.38 89.59 13.69L89.55 13.65L89.61 13.79L89.63 13.81Q89.15 12.65 88.01 12.11L88.00 12.10L88.12 12.22Q86.66 11.60 81.52 11.30L81.38 11.15L81.51 11.28Q79.73 11.10 78.13 11.10L78.07 11.04L78.10 11.07Q76.46 11.03 74.94 11.68L74.97 11.71L74.99 11.73Q73.90 12.62 73.90 14.37L73.82 14.30L73.81 14.28Q73.86 13.91 74.13 17.26L74.14 17.28L74.00 17.13Q74.34 17.25 75.98 17.86L75.97 17.85L75.99 17.87Q76.09 18.50 76.05 19.00L76.05 19.00L75.91 18.86Q75.94 19.38 75.98 19.92L75.98 19.92L76.02 19.96Q77.85 20.38 79.86 20.49L79.91 20.53L79.83 20.45Q79.73 18.41 80.83 17.58L80.77 17.51L80.79 17.54Q81.75 17.01 83.77 16.78L83.63 16.64L83.76 16.77Q84.91 16.78 85.48 16.97L85.36 16.85L85.46 16.95Q85.50 17.06 85.53 17.18L85.58 17.22L85.60 17.43L85.62 17.91L85.71 17.99Q85.60 18.08 85.56 18.23L85.60 18.26L85.66 18.33Q85.45 19.91 83.93 21.09L83.91 21.07L83.97 21.13Q83.11 22.09 81.09 22.28L81.08 22.27L81.14 22.33Q80.41 22.48 79.53 22.48L79.42 22.37L79.43 22.38Q79.44 22.69 79.59 23.38L79.63 23.41L79.62 23.41Q81.44 23.47 82.89 24.20L82.94 24.25L82.65 24.07L81.21 24.39L81.14 24.32Q81.22 24.70 81.34 25.31L81.34 25.31L81.28 25.26Q83.52 25.29 85.23 26.62L85.13 26.51L85.12 26.50Q85.39 26.92 85.69 28.56L85.75 28.62L85.72 28.59Q85.93 31.54 83.00 31.96L82.86 31.82L82.94 31.90Q80.80 32.12 80.23 32.08L80.25 32.11L80.31 32.17Q79.87 32.07 79.34 31.99L79.27 31.92L79.33 31.53L79.34 30.97L79.48 30.69L79.48 30.35L79.58 30.45Q78.58 30.48 77.79 30.67L77.77 30.65L77.68 30.56Q77.76 30.45 77.76 30.26L77.63 30.13L77.62 30.12Q77.79 30.06 77.79 29.83L77.81 29.86L77.75 29.79Q77.71 29.30 77.86 28.58L77.93 28.64L77.83 28.54Q76.16 28.97 74.29 29.31L74.26 29.28L74.27 29.29Q74.22 29.73 74.10 30.85L74.18 30.93L74.18 30.93Q74.04 32.02 74.04 32.63L74.03 32.62L74.06 32.65Q74.07 34.64 75.44 35.40L75.39 35.35L75.33 35.29Q76.98 37.74 81.70 37.55L81.63 37.48L81.70 37.55Q82.27 37.36 83.79 37.51Z"/><path fill="#333" d="M110.22 24.17L110.26 24.22L110.15 24.11Q108.34 24.17 107.12 25.50L107.07 25.44L107.21 25.58Q105.96 26.88 105.81 28.79L105.82 28.80L105.74 28.71Q105.54 30.84 106.76 31.85L106.72 31.81L106.78 31.88Q107.94 32.82 110.07 32.75L110.17 32.84L110.11 32.78Q112.50 32.70 113.46 31.75L113.33 31.63L113.50 31.79Q114.52 30.34 114.41 28.52L114.27 28.38L114.42 28.53Q114.21 26.57 113.13 25.37L113.18 25.42L113.13 25.38Q112.14 24.27 110.31 24.27ZM110.27 14.83L110.17 14.72L110.15 14.70Q108.87 14.71 107.53 15.21L107.44 15.12L107.52 15.20Q106.11 15.88 106.34 17.74L106.45 17.86L106.29 17.70Q106.94 21.58 110.29 21.58L110.31 21.60L110.22 21.51Q111.78 21.70 112.77 20.56L112.74 20.53L112.85 20.64Q113.68 19.34 113.72 17.78L113.80 17.85L113.74 17.80Q113.94 16.17 113.21 15.56L113.20 15.55L113.06 15.41Q111.49 14.68 110.20 14.75ZM109.99 35.37L110.00 35.38L106.92 35.34L106.85 35.27Q105.37 35.32 104.04 34.44L104.06 34.46L104.00 34.41Q102.73 33.37 102.89 30.51L102.85 30.48L102.86 30.48Q103.29 23.60 106.90 22.61L106.80 22.51L106.94 22.65Q104.65 21.73 103.32 16.37L103.24 16.28L103.21 16.25Q102.99 14.97 103.07 14.17L102.98 14.08L102.93 14.03Q103.28 11.94 106.97 11.90L107.08 12.01L107.08 12.02Q111.30 11.93 112.75 12.12L112.60 11.98L112.77 12.14Q116.50 12.57 116.96 14.58L116.94 14.57L116.99 14.62Q117.12 15.24 117.12 15.62L117.17 15.67L117.12 15.62Q117.16 16.35 116.97 16.96L116.85 16.84L116.88 16.87Q116.21 21.03 113.27 22.55L113.28 22.55L113.44 22.72Q116.76 23.34 117.26 28.63L117.35 28.72L117.25 28.62Q117.30 28.82 117.33 30.11L117.41 30.19L117.43 30.21Q117.41 32.85 115.81 33.92L115.83 33.94L115.82 33.92Q114.54 34.89 109.97 35.35ZM112.28 37.69L112.22 37.63L115.63 37.78L115.47 37.62Q117.28 37.79 118.81 37.07L118.84 37.10L118.84 37.10Q119.92 36.31 119.99 34.45L120.01 34.46L119.96 34.41Q120.03 33.34 119.65 31.39L119.75 31.50L119.73 31.48Q118.77 26.79 116.68 24.92L116.64 24.89L116.52 24.57L116.37 24.35L116.11 23.97L116.19 24.06Q117.75 22.61 118.66 18.46L118.68 18.47L118.76 18.56Q118.74 18.16 118.82 17.32L118.75 17.26L118.84 17.34Q118.80 16.54 118.73 15.93L118.84 16.05L118.70 15.91Q118.66 14.57 117.48 14.08L117.33 13.93L117.54 14.10L117.18 13.81L117.32 13.95Q116.93 13.11 115.75 12.31L115.76 12.32L115.79 12.31L115.84 12.36Q113.79 11.61 109.72 11.42L109.71 11.41L109.82 11.52Q108.15 11.30 106.78 11.41L106.91 11.54L106.83 11.46Q106.14 11.60 104.84 11.76L104.88 11.80L104.71 11.63Q102.87 12.10 102.64 13.74L102.65 13.75L102.59 13.69Q102.62 14.25 102.66 15.05L102.54 14.93L102.60 15.00Q102.75 15.56 103.32 17.92L103.37 17.98L103.33 17.93Q104.17 21.21 105.93 22.55L105.77 22.40L106.01 22.63L105.99 22.62Q103.10 23.79 102.56 28.97L102.68 29.09L102.55 28.95Q102.44 31.24 102.44 32.15L102.50 32.21L102.38 32.10Q102.51 33.94 103.69 34.86L103.59 34.75L103.67 34.84Q103.80 34.93 104.07 35.12L104.04 35.09L104.11 35.16Q105.06 37.37 112.18 37.60ZM111.83 26.52L111.94 26.62L111.77 26.45Q112.71 26.40 113.58 26.86L113.71 26.98L113.71 26.98Q114.13 28.01 114.09 28.54L114.02 28.47L113.98 28.43Q113.96 28.68 113.96 28.98L114.14 29.16L113.95 28.97Q114.06 31.44 111.77 32.28L111.77 32.27L111.76 32.27Q110.97 32.58 110.17 32.47L110.12 32.41L110.12 32.41Q109.09 32.60 107.95 32.14L107.92 32.12L107.97 32.17Q107.59 31.40 107.66 30.41L107.80 30.55L107.69 30.44Q107.84 28.84 109.04 27.62L108.97 27.55L109.11 27.69Q110.26 26.42 111.86 26.54ZM112.05 17.02L112.04 17.01L112.19 17.16Q112.92 16.98 113.45 17.13L113.42 17.09L113.45 17.93L113.38 17.86Q113.42 19.31 112.51 20.31L112.59 20.40L112.54 20.35Q111.52 21.25 110.15 21.06L110.13 21.04L110.14 21.05Q109.31 21.21 108.89 20.98L108.80 20.89L108.83 20.92Q108.82 20.68 108.71 20.00L108.62 19.92L108.65 19.94Q108.35 18.50 109.57 17.66L109.72 17.81L109.57 17.67Q110.67 17.02 112.08 17.05Z"/></svg>