<svg xmlns="http://www.w3.org/2000/svg" width="200" height="40" viewBox="0,0,200,40"><path d="M2 12 C96 25,86 37,181 21" stroke="#888" fill="none"/><path d="M9 14 C82 13,116 13,181 33" stroke="#111" fill="none"/><path fill="#333" d="M135.94 24.64L136.01 24.71L135.95 24.65Q135.87 28.83 135.14 32.98L135.25 33.09L135.12 32.96Q137.43 32.45 140.51 32.33L140.61 32.43L140.63 32.45Q141.84 32.52 142.91 31.51L142.89 31.50L142.85 31.46Q144.04 30.57 144.04 29.23L144.01 29.21L144.03 29.23Q144.10 28.99 144.06 28.73L143.94 28.60L144.07 28.73Q143.74 25.62 141.49 24.78L141.67 24.96L141.64 24.93Q140.80 24.55 140.12 24.63L140.08 24.59L140.10 24.61Q139.08 24.58 138.05 24.62L138.11 24.68L138.06 24.62Q137.00 24.67 135.97 24.67ZM134.64 14.12L134.65 14.13L134.79 14.28Q135.61 17.53 135.88 21.91L135.78 21.81L135.90 21.93Q137.38 22.09 140.05 22.12L139.92 22.00L140.07 22.14Q142.90 22.08 143.24 18.54L143.30 18.60L143.19 18.49Q143.45 16.61 142.04 15.77L142.01 15.74L141.96 15.70Q141.11 15.22 136.69 14.58L136.76 14.65L136.67 14.56Q135.60 14.40 134.69 14.17ZM131.00 37.02L130.99 37.01L130.98 37.00Q133.46 30.35 133.20 22.96L133.32 23.08L133.35 23.11Q133.02 15.78 130.09 9.30L130.06 9.28L130.07 9.29Q133.77 11.73 140.00 11.98L140.15 12.14L140.07 12.06Q146.31 12.32 146.66 15.21L146.74 15.30L146.68 15.24Q146.99 17.98 145.58 20.65L145.67 20.73L145.64 20.71Q144.77 22.08 143.17 22.77L143.15 22.75L143.12 22.72Q146.85 23.48 147.08 28.85L147.16 28.93L147.04 28.81Q147.12 29.92 147.04 31.33L147.05 31.34L147.12 31.40Q147.15 32.81 146.22 33.74L146.14 33.66L146.04 33.56Q145.30 34.68 143.96 34.83L143.85 34.72L143.87 34.74Q142.35 34.78 141.28 34.78L141.31 34.81L141.44 34.93Q135.66 34.86 131.13 37.15ZM143.86 37.39L143.95 37.48L143.82 37.35Q144.77 37.43 146.64 37.54L146.69 37.59L146.70 37.61Q148.17 37.71 149.28 36.83L149.22 36.78L149.23 36.78Q150.07 35.91 149.95 34.35L149.85 34.24L149.88 34.27Q149.71 33.23 148.99 29.77L149.04 29.82L149.17 29.95Q148.48 26.71 146.62 25.23L146.54 25.15L146.19 24.38L146.01 24.21Q147.70 22.81 148.27 19.04L148.44 19.21L148.29 19.06Q148.60 18.08 148.53 16.67L148.38 16.52L148.44 16.58Q148.49 15.38 147.39 14.54L147.29 14.44L147.27 14.42Q146.93 14.20 146.82 14.16L146.86 14.20L146.89 14.23Q146.54 13.61 145.70 12.81L145.77 12.88L145.70 12.82Q144.30 11.87 140.07 11.68L140.05 11.65L139.97 11.57Q133.32 11.28 129.32 8.39L129.38 8.44L129.46 8.52Q132.61 15.41 132.92 22.95L132.97 23.00L132.99 23.02Q133.41 30.94 130.59 37.87L130.50 37.77L132.55 36.82L132.64 36.91Q132.08 37.87 131.59 39.01L131.72 39.15L131.70 39.13Q135.97 37.23 140.99 37.23L141.09 37.33L141.04 37.28Q142.48 37.31 143.93 37.46ZM141.77 26.89L141.66 26.78L141.80 26.92Q142.37 26.69 143.28 27.15L143.33 27.20L143.37 27.23Q143.56 27.65 143.71 28.71L143.61 28.61L143.64 28.64Q143.80 29.98 142.87 31.03L142.87 31.04L142.94 31.11Q142.03 32.17 140.62 32.06L140.58 32.02L139.03 32.07L139.07 32.11Q138.39 32.23 137.66 32.34L137.59 32.27L137.63 32.30Q137.91 30.45 137.98 26.98L138.01 27.01L137.90 26.90Q138.71 26.99 139.96 26.95L139.79 26.78L139.86 26.84Q141.09 26.78 141.70 26.82ZM140.65 17.20L140.68 17.24L141.05 17.23L141.14 17.31Q141.27 17.21 141.46 17.25L141.56 17.35L141.84 17.25L142.23 17.45L142.80 17.49L142.86 17.55Q142.90 17.74 142.90 18.04L142.89 18.03L142.89 18.57L142.88 18.55Q142.91 19.85 142.04 20.78L142.07 20.82L142.02 20.76Q141.14 21.69 139.92 21.69L139.90 21.67L140.04 21.81Q138.94 21.74 138.94 21.74L138.92 21.72L138.89 21.69Q137.67 21.76 138.01 21.76L137.84 21.59L137.85 21.59Q137.96 20.22 137.65 17.17L137.58 17.10L137.52 17.05Q139.25 17.33 140.78 17.33Z"/><path fill="#222" d="M111.83 35.10L111.78 35.05L109.85 35.40L109.82 35.36Q109.30 35.30 108.33 35.36L108.40 35.43L108.33 35.36Q107.26 35.32 106.76 35.32L106.87 35.43L106.96 35.51Q105.30 35.49 104.27 34.66L104.25 34.64L104.29 34.67Q105.08 33.56 106.72 31.43L106.57 31.28L106.65 31.37Q107.93 32.95 110.14 32.72L110.14 32.72L110.04 32.62Q110.93 32.48 111.57 31.83L111.69 31.95L111.69 31.95Q112.36 31.33 112.25 30.45L112.18 30.38L112.18 30.38Q112.09 25.80 112.17 21.23L112.08 21.14L112.25 21.32Q112.16 16.58 112.70 11.98L112.75 12.03L112.66 11.94Q114.57 11.72 116.70 10.69L116.72 10.70L116.83 10.82Q114.97 17.56 114.97 24.79L114.93 24.76L114.85 24.67Q114.88 28.24 115.33 31.75L115.32 31.74L115.39 31.80Q115.55 32.23 115.55 32.57L115.48 32.50L115.48 32.50Q115.48 33.07 115.25 33.60L115.15 33.51L115.28 33.63Q114.75 34.93 111.94 35.20ZM116.79 37.96L116.70 37.88L117.19 38.02L117.42 37.83L117.67 37.70L117.74 37.77Q118.01 37.47 118.09 37.36L118.08 37.35L118.00 37.26Q118.22 36.12 117.96 35.13L117.89 35.06L118.03 35.20Q116.67 29.39 116.94 23.03L116.97 23.06L116.93 23.03Q117.22 16.95 119.00 11.05L118.90 10.95L119.01 11.06Q118.12 11.69 116.87 12.42L116.84 12.39L116.83 12.38Q116.98 11.58 117.40 10.06L117.38 10.04L117.32 9.98Q114.94 11.44 112.28 11.75L112.15 11.62L112.28 11.75Q111.91 16.14 111.83 21.09L111.82 21.08L111.89 21.15Q111.74 26.98 111.82 30.40L111.79 30.38L111.74 30.32Q111.77 32.06 110.02 32.21L110.09 32.29L110.11 32.31Q108.34 32.37 106.67 30.73L106.72 30.79L106.70 30.76Q104.70 33.33 103.75 34.89L103.79 34.93L103.67 34.81Q104.31 35.45 105.34 35.68L105.33 35.67L105.41 35.76Q105.28 35.85 105.01 36.08L105.10 36.17L105.04 36.11Q106.43 37.00 108.41 37.27L108.53 37.39L108.41 37.27Q108.87 37.39 112.16 37.69L112.17 37.70L112.09 37.62Q115.41 37.96 116.78 37.96Z"/><path fill="#444" d="M166.66 24.05L166.77 24.16L166.66 24.05Q164.81 23.91 163.57 25.33L163.73 25.50L163.65 25.42Q162.39 26.82 162.20 28.72L162.14 28.66L162.27 28.79Q162.04 30.84 163.12 31.81L163.02 31.72L163.03 31.72Q164.16 32.73 166.25 32.62L166.35 32.72L166.22 32.59Q168.43 32.55 169.53 31.87L169.49 31.83L169.47 31.81Q170.55 30.63 170.55 29.07L170.69 29.22L170.54 29.07Q170.63 28.77 170.55 28.39L170.46 28.30L170.62 28.47Q170.59 26.68 169.49 25.33L169.56 25.40L169.51 25.35Q168.32 23.91 166.64 24.03ZM166.27 35.19L166.31 35.23L166.21 35.13Q161.99 35.29 160.58 34.53L160.57 34.52L160.58 34.53Q159.57 33.78 159.38 32.07L159.28 31.97L159.32 32.01Q159.35 31.40 159.39 30.67L159.31 30.59L159.34 30.62Q159.40 29.58 159.40 29.12L159.46 29.18L159.52 29.24Q159.90 26.30 160.05 25.62L160.08 25.65L159.97 25.54Q160.51 23.69 161.35 22.28L161.27 22.20L161.36 22.29Q163.95 17.83 169.89 11.47L169.91 11.49L169.84 11.43Q172.66 11.28 174.87 10.48L174.86 10.47L174.75 10.36Q167.93 17.86 164.74 22.08L164.80 22.15L164.71 22.05Q165.81 21.67 167.10 21.67L167.02 21.59L167.10 21.67Q170.26 21.52 171.78 23.46L171.94 23.62L171.85 23.53Q173.14 25.12 173.48 28.66L173.56 28.74L173.48 28.66Q173.64 29.47 173.64 30.07L173.52 29.96L173.69 30.12Q173.65 33.21 171.45 34.27L171.36 34.19L171.50 34.33Q170.24 34.90 166.36 35.28ZM168.63 37.66L168.62 37.66L168.54 37.57Q169.85 37.56 171.83 37.63L171.95 37.74L171.85 37.65Q173.42 37.66 174.98 36.94L175.16 37.11L174.98 36.94Q176.10 36.15 176.10 34.36L176.18 34.44L176.09 34.36Q176.17 33.94 176.00 32.95L175.94 32.89L176.08 33.03Q175.76 31.89 175.76 31.43L175.91 31.58L175.75 31.42Q174.94 26.77 173.34 24.86L173.42 24.95L173.28 24.81Q173.36 24.84 173.21 24.62L173.07 24.48L172.89 24.38L172.73 24.25L172.73 24.25Q172.41 23.78 171.80 22.83L171.83 22.86L171.74 22.77Q170.97 21.96 168.99 21.50L168.95 21.47L168.84 21.35Q170.20 19.89 173.17 16.20L173.05 16.09L177.36 10.88L177.31 10.82Q175.78 11.73 173.38 12.49L173.31 12.42L173.35 12.47Q174.29 11.50 176.08 9.52L176.07 9.51L176.04 9.48Q173.75 10.65 169.87 11.22L169.86 11.22L169.78 11.14Q164.11 17.08 161.14 22.03L161.07 21.96L161.02 21.91Q159.53 24.46 158.96 30.70L159.02 30.76L159.02 30.76Q158.84 31.22 158.92 32.18L159.03 32.29L158.93 32.19Q159.10 34.04 160.21 34.95L160.16 34.90L160.20 34.95Q160.65 35.17 160.61 35.21L160.49 35.09L160.56 35.15Q160.95 36.08 161.75 36.50L161.73 36.47L161.79 36.53Q163.13 37.12 165.08 37.31L165.02 37.25L165.01 37.25Q165.15 37.38 168.65 37.68ZM168.35 26.38L168.41 26.44L168.27 26.30Q168.89 26.24 169.84 26.73L169.80 26.69L169.97 26.86Q170.19 27.69 170.19 28.34L170.16 28.31L170.23 28.38Q170.35 30.17 169.40 31.16L169.45 31.21L169.41 31.17Q168.45 32.01 166.36 32.31L166.29 32.24L166.34 32.29Q164.91 32.31 164.38 32.04L164.38 32.04L164.29 31.96Q164.23 31.62 164.23 31.32L164.16 31.25L164.16 31.26Q163.92 27.97 166.85 26.67L166.78 26.60L166.82 26.64Q167.50 26.22 168.27 26.30Z"/><path fill="#111" d="M29.19 22.16L29.18 22.15L29.21 22.18Q30.05 22.22 31.46 22.07L31.35 21.96L31.42 22.03Q31.42 22.71 31.42 23.36L31.30 23.24L31.28 24.47L31.40 24.60Q30.49 24.52 29.65 24.60L29.70 24.65L29.70 24.65Q28.87 24.70 28.03 24.66L27.98 24.61L28.06 24.69Q25.14 30.79 21.71 35.39L21.78 35.46L21.69 35.37Q19.21 36.05 17.91 36.66L17.85 36.59L17.99 36.73Q22.12 31.04 25.16 24.76L25.16 24.75L22.38 24.60L22.39 24.61Q22.50 23.39 22.39 22.06L22.32 21.99L22.32 21.99Q24.28 22.20 26.33 22.20L26.31 22.18L28.25 18.52L28.28 18.55Q29.27 16.65 30.49 15.05L30.37 14.93L30.45 15.01Q28.86 15.13 27.27 15.13L27.21 15.08L27.23 15.10Q21.12 15.08 17.36 12.88L17.49 13.01L16.69 11.14L16.66 11.12Q16.37 10.33 15.99 9.45L15.97 9.44L16.00 9.47Q20.36 12.11 26.07 12.34L26.04 12.31L26.16 12.43Q31.28 12.64 36.42 10.66L36.42 10.66L36.29 10.53Q36.11 10.96 35.62 11.84L35.62 11.84L35.73 11.95Q32.00 16.59 29.14 22.11ZM37.29 13.28L37.31 13.30L38.20 11.19L38.25 11.24Q37.40 11.83 35.72 12.55L35.55 12.37L35.79 12.12L35.88 12.21Q35.86 11.92 35.97 11.81L36.14 11.98L35.96 11.80Q36.36 11.14 37.09 9.81L37.06 9.78L37.16 9.88Q31.89 12.22 26.14 11.99L26.06 11.91L26.04 11.89Q20.16 11.76 15.40 8.79L15.23 8.62L15.33 8.72Q16.31 10.53 17.14 13.20L17.11 13.16L17.23 13.29Q18.26 13.86 19.06 14.16L19.01 14.11L19.00 14.11Q19.29 14.58 19.74 16.44L19.74 16.44L19.61 16.31Q22.85 17.65 28.37 17.50L28.40 17.52L28.27 17.39Q27.97 17.97 25.99 21.74L26.03 21.78L26.11 21.86Q24.06 21.86 22.08 21.67L22.02 21.61L22.12 21.72Q22.22 22.57 22.22 23.45L22.02 23.26L22.18 25.13L23.77 25.04L23.72 26.40L23.89 26.57Q19.97 33.96 17.19 37.53L17.12 37.46L17.02 37.36Q18.64 36.62 20.28 36.13L20.33 36.18L20.43 36.28Q19.69 37.14 18.32 38.85L18.36 38.89L18.25 38.78Q21.38 37.65 23.82 37.42L23.88 37.49L23.78 37.38Q26.87 33.77 29.99 27.00L29.86 26.86L33.36 27.13L33.28 27.05Q33.30 26.24 33.30 25.32L33.26 25.27L33.27 23.50L33.31 23.54Q33.06 23.55 32.50 23.59L32.47 23.56L32.53 23.62Q31.88 23.55 31.61 23.55L31.66 23.61L31.54 23.48Q31.72 23.55 31.76 23.39L31.76 23.40L31.71 23.08L31.64 23.01Q34.22 17.94 37.30 13.29Z"/><path fill="#333" d="M84.96 34.93L84.88 34.85L84.96 34.93Q82.88 34.75 80.86 34.94L80.87 34.95L80.82 34.90Q81.55 29.73 81.55 24.90L81.50 24.85L81.59 24.93Q81.53 19.97 80.88 14.75L80.89 14.75L81.00 14.86Q76.28 14.33 73.08 12.66L73.08 12.66L72.39 10.94L72.37 10.92Q72.16 10.40 71.55 9.18L71.57 9.21L71.63 9.27Q76.68 11.92 82.70 12.11L82.64 12.05L82.67 12.08Q88.49 12.19 93.93 10.14L94.05 10.25L93.92 10.12Q93.35 11.68 92.70 13.51L92.75 13.56L92.75 13.56Q89.04 14.76 84.78 14.95L84.71 14.89L84.89 15.06Q84.50 19.89 84.50 24.84L84.50 24.84L84.65 24.99Q84.64 29.93 84.95 34.92ZM94.73 9.56L94.63 9.47L94.71 9.55Q88.78 11.72 82.57 11.53L82.59 11.55L82.69 11.65Q76.02 11.45 70.92 8.48L70.87 8.43L70.86 8.42Q71.60 9.69 72.89 12.96L72.90 12.97L73.01 13.09Q73.54 13.27 74.80 13.84L74.93 13.97L74.79 13.84Q75.18 14.68 75.52 16.21L75.41 16.09L75.57 16.25Q77.68 16.92 80.73 17.14L80.89 17.30L80.79 17.21Q81.25 20.98 81.25 24.75L81.20 24.70L81.13 24.63Q81.17 30.04 80.37 35.41L80.44 35.48L80.32 35.36Q82.15 35.39 82.68 35.39L82.64 35.35L82.55 35.27Q82.56 35.58 82.50 36.24L82.56 36.30L82.63 36.37Q82.48 36.94 82.48 37.29L82.45 37.25L82.46 37.26Q83.73 37.28 85.25 37.35L85.10 37.20L85.22 37.33Q86.06 37.29 87.89 37.44L87.98 37.53L87.87 37.42Q86.79 32.65 86.68 27.47L86.61 27.41L86.62 27.41Q86.51 22.13 87.04 17.22L87.02 17.20L86.99 17.17Q90.91 16.59 94.06 15.37L94.01 15.31L94.05 15.36Q94.80 13.02 95.83 10.96L95.77 10.91L95.88 11.02Q94.52 11.68 93.72 11.98L93.64 11.90L93.60 11.86Q94.09 10.64 94.66 9.50Z"/><path fill="#222" d="M54.63 25.48L54.57 25.42L54.67 25.52Q51.15 31.82 47.72 35.78L47.59 35.65L47.61 35.67Q45.85 36.19 43.41 37.06L43.43 37.09L43.32 36.98Q48.36 31.51 53.12 23.10L53.10 23.07L52.96 22.94Q48.47 16.09 42.50 9.69L42.49 9.69L42.38 9.58Q45.33 10.82 47.62 11.31L47.67 11.37L47.66 11.36Q52.36 16.63 54.80 20.59L54.78 20.57L54.82 20.61Q57.32 16.18 61.24 11.76L61.27 11.79L61.27 11.80Q62.68 11.30 65.88 10.54L66.01 10.67L66.06 10.72Q59.93 17.11 56.46 23.05L56.48 23.07L56.51 23.10Q61.53 31.62 65.91 36.19L65.88 36.16L65.91 36.19Q63.44 35.51 61.35 35.28L61.23 35.16L61.38 35.32Q58.57 32.31 54.65 25.50ZM61.21 35.56L61.29 35.65L61.24 35.59Q61.54 35.63 62.00 35.75L61.99 35.74L61.97 35.71Q62.83 36.54 64.36 38.14L64.23 38.02L64.36 38.14Q67.72 38.96 70.77 40.33L70.77 40.33L70.62 40.18Q63.59 33.68 58.49 24.93L58.40 24.83L58.48 24.92Q62.29 18.34 68.20 11.48L68.20 11.49L68.07 11.36Q66.74 12.12 64.57 12.66L64.52 12.60L64.43 12.51Q65.30 11.59 67.05 9.80L67.21 9.97L67.06 9.82Q64.75 10.79 61.06 11.36L61.10 11.40L61.11 11.40Q57.57 15.10 54.98 19.40L55.08 19.50L55.01 19.42Q54.19 17.92 53.01 16.44L52.86 16.28L50.69 13.47L50.22 13.38L50.31 13.48Q50.08 13.40 49.86 13.32L49.96 13.43L49.81 13.27Q49.09 12.41 47.61 10.85L47.77 11.01L47.72 10.95Q43.89 10.06 41.30 8.69L41.23 8.62L41.22 8.61Q48.07 15.99 52.63 23.03L52.68 23.08L52.57 22.97Q48.08 31.15 42.33 37.74L42.35 37.76L42.40 37.80Q43.70 37.13 45.83 36.55L45.81 36.54L44.59 38.05L44.57 38.03Q44.50 37.96 43.16 39.29L43.30 39.43L43.23 39.36Q46.22 38.28 49.38 37.78L49.38 37.78L49.32 37.72Q53.33 33.21 55.92 28.45L56.06 28.58L55.96 28.49Q58.50 32.70 61.20 35.56Z"/></svg>