<svg xmlns="http://www.w3.org/2000/svg" width="200" height="40" viewBox="0,0,200,40"><path d="M21 20 C111 2,113 27,197 11" stroke="#777" fill="none"/><path d="M5 33 C80 22,84 24,180 14" stroke="#444" fill="none"/><path fill="#444" d="M114.10 22.21L113.98 22.09L114.01 22.12Q114.92 22.23 116.33 22.08L116.27 22.02L116.20 21.95Q116.20 22.64 116.20 23.29L116.32 23.41L116.14 24.48L116.22 24.56Q115.30 24.48 114.46 24.55L114.56 24.65L114.48 24.57Q113.78 24.75 112.94 24.71L112.85 24.62L112.84 24.61Q110.04 30.83 106.61 35.44L106.64 35.46L106.67 35.50Q104.03 36.01 102.73 36.62L102.82 36.70L102.78 36.67Q106.83 30.90 109.88 24.62L109.98 24.72L107.35 24.72L107.37 24.73Q107.24 23.27 107.13 21.94L107.29 22.10L107.30 22.11Q109.20 22.26 111.25 22.26L111.12 22.12L113.12 18.53L113.05 18.46Q114.03 16.55 115.25 14.95L115.31 15.01L115.29 14.99Q113.69 15.11 112.09 15.11L112.02 15.04L112.06 15.07Q106.04 15.14 102.27 12.93L102.17 12.84L101.56 11.16L101.53 11.13Q101.29 10.40 100.91 9.52L100.90 9.51L100.93 9.54Q105.27 12.17 110.98 12.40L110.85 12.27L110.93 12.34Q116.02 12.52 121.16 10.54L121.25 10.63L121.17 10.55Q120.99 10.98 120.49 11.86L120.52 11.88L120.54 11.90Q117.01 16.75 114.15 22.27ZM122.11 13.25L122.18 13.32L123.07 11.20L123.10 11.23Q122.14 11.71 120.46 12.44L120.55 12.53L120.59 12.06L120.73 12.21Q120.80 12.01 120.91 11.89L120.94 11.93L120.82 11.80Q121.32 11.24 122.05 9.91L122.00 9.86L121.96 9.82Q116.64 12.12 110.89 11.89L110.88 11.87L110.90 11.90Q104.98 11.72 100.22 8.75L100.24 8.78L100.11 8.65Q101.15 10.52 101.99 13.19L102.09 13.29L102.02 13.21Q103.18 13.92 103.98 14.22L103.96 14.21L103.97 14.22Q104.10 14.54 104.56 16.40L104.56 16.41L104.53 16.37Q107.71 17.65 113.23 17.50L113.29 17.56L113.31 17.58Q112.99 18.14 111.01 21.90L110.97 21.86L111.01 21.90Q108.95 21.90 106.97 21.71L106.91 21.65L106.96 21.70Q106.97 22.47 106.97 23.35L107.00 23.38L106.88 24.97L108.71 25.12L108.72 26.54L108.61 26.43Q104.67 33.79 101.89 37.37L101.99 37.47L101.88 37.36Q103.54 36.67 105.18 36.17L105.25 36.25L105.20 36.20Q104.49 37.08 103.12 38.79L103.16 38.84L103.20 38.87Q106.34 37.75 108.78 37.52L108.83 37.57L108.75 37.50Q111.56 33.61 114.68 26.83L114.72 26.87L118.15 27.06L118.19 27.11Q118.18 26.25 118.18 25.34L118.22 25.38L118.04 23.41L118.04 23.42Q117.80 23.44 117.25 23.48L117.34 23.57L117.26 23.49Q116.81 23.63 116.55 23.63L116.52 23.60L116.46 23.55Q116.48 23.45 116.52 23.30L116.58 23.36L116.47 22.98L116.45 22.97Q119.13 17.99 122.21 13.35Z"/><path fill="#444" d="M25.41 24.23L25.44 24.25L25.46 24.28Q23.52 24.20 22.31 25.54L22.19 25.42L22.34 25.57Q21.14 26.92 20.99 28.82L20.96 28.80L20.83 28.67Q20.76 30.92 21.98 31.93L21.88 31.83L22.02 31.97Q23.18 32.92 25.32 32.85L25.29 32.82L25.27 32.80Q27.67 32.73 28.63 31.78L28.57 31.73L28.50 31.65Q29.65 30.32 29.53 28.50L29.41 28.38L29.50 28.46Q29.43 26.64 28.34 25.44L28.37 25.47L28.25 25.35Q27.19 24.18 25.37 24.18ZM25.28 14.69L25.28 14.69L25.24 14.65Q23.99 14.70 22.66 15.19L22.64 15.17L22.62 15.15Q21.34 15.96 21.57 17.83L21.56 17.83L21.50 17.76Q21.93 21.43 25.28 21.43L25.39 21.54L25.40 21.55Q27.01 21.79 28.00 20.65L27.93 20.58L27.98 20.63Q28.94 19.45 28.97 17.89L29.05 17.96L29.04 17.96Q29.01 16.10 28.28 15.49L28.35 15.55L28.23 15.44Q26.65 14.70 25.36 14.77ZM25.04 35.27L25.10 35.34L22.03 35.31L22.05 35.33Q20.55 35.35 19.22 34.48L19.19 34.45L19.21 34.47Q17.74 33.23 17.89 30.37L17.94 30.43L17.90 30.38Q18.49 23.66 22.11 22.67L22.02 22.59L22.04 22.61Q19.83 21.77 18.50 16.40L18.42 16.32L18.38 16.28Q17.99 14.83 18.07 14.03L18.05 14.01L18.21 14.17Q18.38 11.91 22.08 11.87L22.12 11.92L22.22 12.01Q26.39 11.88 27.84 12.07L27.71 11.95L27.78 12.01Q31.58 12.50 32.04 14.52L32.03 14.52L32.11 14.59Q32.21 15.19 32.21 15.57L32.16 15.52L32.22 15.58Q32.30 16.34 32.11 16.95L32.06 16.90L32.12 16.96Q31.45 21.13 28.52 22.65L28.54 22.67L28.42 22.56Q31.99 23.42 32.49 28.71L32.39 28.62L32.56 28.78Q32.45 28.83 32.49 30.12L32.53 30.17L32.47 30.10Q32.56 32.86 30.96 33.92L31.01 33.98L30.94 33.91Q29.62 34.83 25.05 35.28ZM27.27 37.54L27.37 37.64L30.74 37.74L30.80 37.80Q32.49 37.86 34.02 37.13L34.02 37.13L33.85 36.96Q35.01 36.26 35.09 34.40L35.17 34.48L35.19 34.50Q35.29 33.45 34.91 31.51L34.91 31.52L34.75 31.36Q33.81 26.68 31.71 24.82L31.78 24.88L31.63 24.54L31.41 24.24L31.25 23.97L31.34 24.07Q32.89 22.61 33.81 18.46L33.73 18.38L33.83 18.48Q33.89 18.16 33.97 17.33L33.93 17.29L33.90 17.26Q33.90 16.50 33.83 15.89L33.90 15.96L33.95 16.01Q33.80 14.57 32.62 14.08L32.66 14.12L32.60 14.01L32.45 13.94L32.42 13.91Q32.13 13.16 30.95 12.36L31.00 12.41L30.91 12.29L31.04 12.42Q28.98 11.65 24.90 11.46L24.97 11.53L24.96 11.51Q23.37 11.37 22.00 11.49L21.94 11.43L22.08 11.57Q21.31 11.63 20.01 11.79L20.01 11.78L20.02 11.80Q17.90 11.99 17.67 13.63L17.78 13.74L17.67 13.63Q17.75 14.24 17.78 15.04L17.84 15.10L17.84 15.09Q17.79 15.47 18.36 17.83L18.44 17.91L18.43 17.89Q19.19 21.09 20.94 22.42L21.02 22.50L21.17 22.65L21.16 22.63Q18.27 23.83 17.74 29.00L17.78 29.04L17.86 29.12Q17.47 31.13 17.47 32.05L17.61 32.19L17.62 32.20Q17.56 33.84 18.74 34.76L18.89 34.91L18.84 34.86Q18.87 34.85 19.13 35.04L19.23 35.14L19.21 35.12Q20.15 37.31 27.26 37.54ZM26.94 26.48L26.98 26.52L26.99 26.53Q28.01 26.55 28.88 27.01L28.89 27.02L28.75 26.88Q29.26 28.00 29.22 28.53L29.14 28.45L29.22 28.53Q29.09 28.67 29.09 28.98L29.24 29.12L29.20 29.08Q29.09 31.33 26.80 32.17L26.81 32.17L26.90 32.27Q26.12 32.59 25.32 32.47L25.27 32.42L25.30 32.45Q24.17 32.54 23.03 32.09L23.01 32.07L23.02 32.08Q22.76 31.44 22.84 30.45L22.93 30.54L22.82 30.42Q22.99 28.85 24.19 27.63L24.26 27.70L24.20 27.64Q25.48 26.50 27.08 26.61ZM27.34 17.17L27.26 17.09L27.18 17.01Q28.11 17.03 28.64 17.18L28.55 17.08L28.66 18.00L28.48 17.82Q28.53 19.27 27.61 20.28L27.63 20.30L27.72 20.38Q26.81 21.40 25.44 21.21L25.28 21.04L25.40 21.17Q24.34 21.10 23.92 20.87L23.91 20.86L24.02 20.97Q24.02 20.74 23.91 20.06L23.72 19.87L23.84 19.99Q23.53 18.54 24.75 17.70L24.68 17.64L24.76 17.71Q25.93 17.13 27.34 17.17Z"/><path fill="#333" d="M165.75 34.94L165.68 34.86L165.72 34.91Q161.54 34.34 159.71 32.89L159.80 32.98L159.71 32.89Q157.92 31.49 157.50 28.48L157.38 28.35L157.52 28.50Q157.47 28.10 157.13 23.34L157.06 23.27L157.12 23.34Q157.22 22.22 157.14 20.96L157.00 20.82L157.18 21.00Q156.82 15.77 159.03 14.02L159.18 14.16L159.13 14.11Q161.76 11.99 169.53 11.31L169.58 11.36L169.59 11.37Q170.88 11.17 172.51 11.21L172.59 11.29L172.55 11.24Q172.50 11.20 175.47 11.20L175.45 11.17L175.51 11.24Q176.37 11.26 178.09 11.41L178.12 11.44L178.08 11.41Q177.62 12.39 176.59 15.47L176.60 15.48L176.54 15.43Q174.32 14.08 171.31 14.08L171.35 14.11L171.49 14.26Q170.66 14.19 169.86 14.27L169.86 14.27L169.86 14.27Q164.77 14.73 162.26 16.71L162.30 16.75L162.19 16.64Q160.15 18.22 159.99 21.57L160.11 21.69L160.10 21.67Q160.05 22.27 160.08 23.52L160.00 23.44L160.04 23.48Q160.12 28.28 162.52 30.37L162.67 30.52L162.48 30.33Q164.75 32.38 169.74 32.68L169.66 32.61L169.69 32.63Q172.89 32.86 175.90 31.07L175.79 30.97L175.83 31.01Q176.54 33.85 177.15 35.22L177.07 35.14L177.04 35.11Q175.04 35.48 173.41 35.44L173.39 35.42L173.44 35.47Q168.85 35.29 165.72 34.91ZM180.79 38.59L180.90 38.71L180.75 38.56Q179.04 35.63 178.35 33.04L178.41 33.09L178.35 33.03Q177.96 33.33 176.97 33.71L176.89 33.63L176.90 33.63Q176.66 32.94 176.47 32.10L176.40 32.04L176.08 30.38L175.97 30.27Q172.72 32.36 169.60 32.24L169.71 32.35L169.64 32.28Q165.41 32.13 163.09 30.37L163.01 30.30L163.17 30.45Q161.93 28.53 162.00 25.60L161.94 25.53L162.08 25.67Q162.17 21.12 164.65 18.99L164.65 18.99L164.56 18.90Q166.71 17.01 171.39 16.41L171.48 16.50L171.52 16.54Q172.23 16.33 172.95 16.33L173.00 16.38L172.95 16.33Q175.67 16.27 177.76 17.79L177.87 17.89L177.89 17.92Q178.28 15.68 179.49 12.44L179.60 12.54L179.64 12.58Q179.21 12.42 178.65 12.36L178.79 12.50L178.75 12.46Q178.13 12.33 177.86 12.33L177.86 12.33L177.87 12.34Q178.10 11.85 178.56 10.86L178.58 10.87L178.63 10.93Q178.31 10.83 175.81 10.76L175.87 10.81L175.89 10.83Q173.36 10.72 172.71 10.76L172.68 10.73L172.68 10.73Q162.24 11.14 158.78 13.73L158.65 13.60L158.80 13.75Q156.65 15.44 156.65 19.36L156.75 19.47L156.69 19.40Q156.63 20.45 156.75 23.16L156.80 23.21L156.90 23.31Q157.04 26.87 157.27 28.59L157.12 28.43L157.24 28.56Q157.53 31.59 159.13 33.11L159.09 33.07L159.15 33.13Q159.57 33.75 160.83 34.89L160.89 34.95L160.92 34.98Q164.16 36.74 169.42 37.50L169.42 37.51L169.34 37.42Q175.78 38.38 180.77 38.57Z"/><path fill="#222" d="M53.80 14.60L53.89 14.70L53.97 14.77Q51.84 14.74 50.89 14.89L50.96 14.96L50.99 14.99Q49.23 15.10 48.01 15.63L48.03 15.65L48.08 15.70Q44.56 17.12 44.44 21.81L44.41 21.77L44.54 21.90Q44.38 24.48 45.02 27.41L44.97 27.36L44.98 27.37Q45.98 31.52 49.59 32.70L49.51 32.62L49.60 32.71Q51.51 33.29 52.96 33.14L52.85 33.03L53.33 33.05L53.21 32.93Q53.50 33.03 53.69 33.07L53.68 33.06L53.70 33.08Q53.84 33.06 53.99 33.02L54.02 33.05L53.92 32.96Q56.51 32.66 57.88 32.09L57.88 32.08L54.40 28.64L54.32 28.56Q54.81 28.41 55.42 27.80L55.37 27.74L56.25 26.80L56.22 26.77Q58.14 28.91 60.12 30.97L60.06 30.91L60.07 30.92Q62.48 29.19 62.75 23.82L62.74 23.81L62.68 23.75Q62.73 22.81 62.73 21.90L62.70 21.87L62.75 21.91Q62.77 16.27 57.71 15.16L57.76 15.21L57.58 15.03Q56.31 14.75 53.79 14.59ZM66.65 36.74L66.56 36.65L66.68 36.77Q66.12 37.23 64.94 38.11L64.90 38.08L60.53 34.43L60.52 34.41Q58.00 35.59 53.73 35.63L53.73 35.62L53.70 35.59Q47.18 35.73 44.36 33.48L44.28 33.41L44.30 33.42Q42.60 31.73 42.15 28.76L42.16 28.77L42.07 28.68Q41.97 26.99 41.59 23.41L41.63 23.44L41.55 23.37Q41.58 22.67 41.47 20.92L41.46 20.91L41.38 20.83Q41.35 19.40 41.39 18.52L41.36 18.49L41.31 18.44Q41.38 15.35 43.13 13.79L43.13 13.80L43.16 13.82Q44.79 12.60 47.99 12.10L47.98 12.09L47.97 12.08Q50.42 11.68 53.31 11.75L53.31 11.75L53.32 11.76Q60.67 11.73 63.79 14.09L63.82 14.11L63.89 14.19Q66.09 16.35 65.82 21.26L65.72 21.15L65.71 21.15Q65.59 24.87 65.40 26.20L65.42 26.22L65.31 26.12Q64.86 30.80 62.53 33.12L62.41 32.99L62.46 33.04Q63.94 34.29 66.68 36.77ZM61.77 12.44L61.78 12.45L61.69 12.37Q59.74 11.71 53.23 11.22L53.17 11.16L53.33 11.31Q51.93 11.33 49.16 11.44L49.10 11.38L49.05 11.33Q44.85 11.59 42.60 13.57L42.56 13.53L42.73 13.69Q41.02 15.11 41.02 18.27L41.03 18.28L40.96 18.21Q40.92 19.01 41.07 20.72L41.19 20.84L41.09 20.73Q41.30 22.51 41.30 23.39L41.21 23.29L41.26 23.34Q41.50 25.18 41.88 28.76L41.77 28.65L41.87 28.75Q42.05 31.44 43.65 33.50L43.76 33.61L43.79 33.63Q44.09 34.44 45.31 35.58L45.22 35.48L45.30 35.57Q48.07 37.61 53.24 37.88L53.19 37.82L53.29 37.92Q53.55 37.84 55.95 37.95L56.02 38.03L55.92 37.93Q60.73 38.10 63.02 37.03L63.07 37.08L63.00 37.01Q64.01 37.84 68.74 41.41L68.60 41.28L68.64 41.32Q69.23 40.76 70.52 39.77L70.53 39.78L70.46 39.71Q69.73 39.17 68.93 38.49L68.95 38.51L67.15 36.90L67.32 36.91L67.25 36.84Q66.78 36.49 65.56 35.46L65.43 35.33L65.46 35.36Q67.37 32.85 67.37 28.32L67.46 28.41L67.33 28.29Q67.45 27.98 67.49 27.15L67.56 27.22L67.39 27.05Q67.56 26.35 67.56 25.93L67.53 25.90L67.50 25.86Q67.49 20.33 66.76 17.97L66.71 17.92L66.68 17.89Q66.41 16.70 65.53 15.64L65.59 15.70L65.59 15.69Q64.80 13.58 61.87 12.55ZM55.78 17.04L55.83 17.09L55.76 17.02Q59.76 16.87 61.59 18.47L61.68 18.56L61.59 18.47Q62.31 19.84 62.42 21.17L62.43 21.18L62.38 21.13Q62.38 22.30 62.30 23.67L62.32 23.69L62.33 23.71Q62.02 28.68 60.08 30.40L60.10 30.42L60.06 30.37Q58.76 29.08 56.25 26.34L56.18 26.27L56.25 26.34Q55.40 27.01 53.84 28.57L53.89 28.63L53.93 28.67Q54.42 29.19 55.56 30.37L55.61 30.42L55.64 30.56L55.55 30.48Q56.17 31.06 57.20 32.12L57.22 32.15L57.05 31.98Q56.22 32.40 53.89 32.70L53.84 32.65L53.36 32.70L52.92 32.68L52.82 32.62L52.83 32.62Q49.37 32.63 47.39 30.99L47.35 30.95L47.36 30.97Q46.38 28.92 46.42 25.80L46.36 25.74L46.37 25.75Q46.63 17.14 55.81 17.07Z"/><path fill="#444" d="M75.20 10.76L75.24 10.80L75.21 10.77Q77.21 15.74 77.78 20.92L77.84 20.98L77.79 20.92Q81.46 16.76 87.36 11.92L87.34 11.90L87.41 11.97Q90.47 11.53 93.10 10.73L93.17 10.80L86.67 16.48L86.71 16.53Q83.15 19.32 80.29 22.17L80.30 22.18L80.39 22.27Q88.25 31.31 93.32 36.04L93.34 36.05L93.43 36.15Q90.29 35.18 87.97 35.02L87.99 35.05L87.89 34.95Q82.29 29.73 77.99 23.91L77.96 23.88L77.98 23.90Q77.98 30.40 76.11 35.73L76.06 35.68L76.16 35.79Q75.87 35.76 75.37 35.95L75.45 36.02L75.46 36.23L75.43 36.20Q75.18 36.17 72.63 37.08L72.67 37.12L72.55 37.00Q75.58 30.52 75.23 23.05L75.27 23.09L75.22 23.04Q74.88 15.69 71.34 9.18L71.36 9.20L71.96 9.54L72.33 9.79L72.31 9.74L72.27 9.70Q73.01 10.09 75.22 10.78ZM75.53 10.52L75.48 10.47L75.65 10.64Q73.37 10.07 70.74 8.55L70.64 8.45L70.61 8.42Q75.03 15.85 75.03 24.79L74.88 24.65L74.86 24.62Q75.04 31.81 72.07 37.86L72.04 37.83L74.07 36.96L74.06 36.96Q73.60 37.90 72.91 39.19L73.02 39.30L72.97 39.25Q75.13 38.37 77.07 37.95L77.15 38.03L77.13 37.78L77.14 37.79Q77.41 37.75 77.98 37.60L77.98 37.60L78.11 37.73Q79.76 31.80 79.87 27.00L79.76 26.89L79.81 26.95Q81.92 29.48 83.75 31.34L83.67 31.26L83.77 31.36Q84.80 32.32 87.81 35.29L87.89 35.37L87.99 35.46L87.95 35.43Q88.97 36.26 90.84 37.86L90.76 37.78L90.80 37.82Q94.60 38.47 98.07 40.18L98.15 40.26L98.22 40.33Q88.84 31.67 82.60 24.25L82.57 24.22L82.69 24.34Q87.11 20.09 95.87 11.48L95.73 11.34L95.74 11.35Q93.27 12.58 91.25 12.96L91.24 12.95L91.17 12.88Q92.50 12.00 94.83 9.98L94.85 10.01L94.73 9.89Q90.65 11.33 87.30 11.52L87.38 11.60L87.30 11.52Q84.35 13.71 79.48 18.39L79.41 18.32L79.43 18.34Q79.16 15.87 78.59 13.32L78.50 13.22L78.60 13.33Q77.27 13.02 76.28 12.67L76.28 12.67L76.45 12.85Q76.24 12.10 75.67 10.66Z"/><path fill="#222" d="M131.87 10.86L131.79 10.78L131.93 10.92Q133.87 15.83 134.44 21.01L134.39 20.95L134.41 20.98Q138.03 16.75 143.93 11.92L143.87 11.86L144.01 12.00Q147.23 11.72 149.86 10.92L149.82 10.88L143.17 16.41L143.22 16.46Q139.80 19.40 136.95 22.26L137.02 22.33L136.93 22.24Q144.89 31.38 149.95 36.10L149.96 36.11L149.89 36.04Q146.96 35.28 144.64 35.12L144.47 34.96L144.64 35.13Q138.79 29.66 134.49 23.84L134.47 23.81L134.55 23.89Q134.50 30.36 132.63 35.68L132.76 35.81L132.62 35.67Q132.52 35.83 132.02 36.02L132.02 36.02L131.97 36.16L131.98 36.17Q131.80 36.22 129.25 37.13L129.26 37.15L129.18 37.06Q132.20 30.57 131.86 23.10L131.77 23.02L131.86 23.11Q131.53 15.78 127.99 9.27L127.87 9.14L128.49 9.50L128.98 9.87L128.93 9.79L128.86 9.72Q129.68 10.19 131.88 10.87ZM132.12 10.54L132.14 10.56L132.21 10.63Q129.83 9.96 127.20 8.44L127.21 8.44L127.27 8.51Q131.62 15.86 131.62 24.81L131.47 24.66L131.48 24.67Q131.46 31.66 128.50 37.71L128.56 37.77L130.51 36.83L130.56 36.88Q130.23 37.96 129.54 39.26L129.59 39.31L129.48 39.19Q131.79 38.45 133.73 38.03L133.60 37.91L133.75 37.83L133.82 37.89Q134.07 37.85 134.65 37.70L134.71 37.76L134.59 37.64Q136.31 31.79 136.43 26.99L136.43 26.99L136.41 26.98Q138.47 29.46 140.30 31.32L140.25 31.27L140.26 31.28Q141.41 32.36 144.42 35.32L144.40 35.31L144.43 35.33L144.51 35.42Q145.42 36.13 147.28 37.73L147.39 37.84L147.31 37.76Q151.25 38.54 154.71 40.25L154.72 40.26L154.66 40.20Q145.45 31.71 139.21 24.29L139.26 24.35L139.22 24.30Q143.56 19.96 152.32 11.36L152.42 11.47L152.42 11.47Q149.78 12.51 147.76 12.89L147.82 12.95L147.72 12.85Q148.98 11.91 151.30 9.89L151.42 10.00L151.25 9.84Q147.30 11.40 143.95 11.59L143.90 11.54L143.83 11.48Q140.87 13.65 135.99 18.34L136.11 18.45L136.03 18.37Q135.64 15.77 135.07 13.22L135.18 13.34L135.16 13.31Q133.97 13.15 132.98 12.81L132.87 12.69L133.03 12.86Q132.73 12.02 132.16 10.58Z"/></svg>