<svg xmlns="http://www.w3.org/2000/svg" width="200" height="40" viewBox="0,0,200,40"><path fill="#111" d="M82.83 25.39L82.83 25.39L82.82 25.39Q79.45 31.84 76.02 35.79L75.98 35.76L75.86 35.64Q74.04 36.09 71.60 36.97L71.63 37.00L71.73 37.10Q76.59 31.45 81.35 23.04L81.33 23.02L81.32 23.01Q76.80 16.13 70.82 9.73L70.78 9.70L70.66 9.57Q73.65 10.85 75.93 11.34L75.98 11.39L75.92 11.33Q80.53 16.51 82.96 20.47L83.03 20.54L82.99 20.49Q85.54 16.11 89.46 11.70L89.52 11.76L89.46 11.70Q91.04 11.38 94.24 10.62L94.23 10.60L94.26 10.64Q88.12 17.02 84.65 22.96L84.67 22.97L84.65 22.95Q89.84 31.64 94.22 36.21L94.18 36.18L94.33 36.32Q91.67 35.45 89.57 35.22L89.61 35.26L89.62 35.27Q86.89 32.35 82.97 25.54ZM89.54 35.61L89.41 35.48L89.44 35.50Q89.80 35.60 90.26 35.72L90.35 35.81L90.22 35.67Q91.02 36.44 92.54 38.04L92.49 37.98L92.65 38.15Q95.93 38.88 98.98 40.25L98.88 40.16L99.03 40.30Q91.89 33.69 86.79 24.94L86.76 24.91L86.63 24.78Q90.48 18.24 96.38 11.39L96.44 11.45L96.35 11.36Q94.92 12.02 92.75 12.55L92.86 12.66L92.84 12.64Q93.57 11.58 95.32 9.79L95.44 9.91L95.37 9.84Q93.00 10.74 89.30 11.31L89.26 11.27L89.41 11.42Q85.80 15.04 83.21 19.34L83.22 19.36L83.24 19.37Q82.45 17.89 81.27 16.41L81.18 16.33L78.99 13.48L78.55 13.43L78.44 13.32Q78.33 13.36 78.10 13.29L78.13 13.31L78.14 13.32Q77.41 12.44 75.92 10.87L75.93 10.89L76.02 10.98Q72.28 10.16 69.69 8.79L69.55 8.65L69.60 8.70Q76.36 16.00 80.93 23.04L80.96 23.07L80.96 23.07Q76.31 31.09 70.56 37.68L70.62 37.74L70.69 37.81Q72.02 37.16 74.15 36.59L74.20 36.64L72.84 38.02L72.74 37.92Q72.81 37.99 71.48 39.32L71.50 39.34L71.56 39.40Q74.53 38.30 77.69 37.81L77.71 37.83L77.72 37.84Q81.68 33.27 84.27 28.51L84.31 28.55L84.23 28.47Q86.84 32.76 89.55 35.61Z"/><path fill="#222" d="M166.57 35.26L166.62 35.32L166.54 35.23Q163.03 35.30 161.39 34.77L161.42 34.80L161.37 34.74Q159.50 34.20 159.19 30.81L159.17 30.79L160.50 29.62L160.57 29.68Q161.36 29.22 162.12 28.72L162.16 28.76L162.06 28.66Q161.84 30.61 163.44 31.83L163.48 31.87L163.38 31.77Q164.77 32.89 166.90 32.70L166.89 32.68L166.93 32.72Q171.19 32.20 171.00 28.66L171.09 28.74L171.10 28.75Q170.91 26.46 168.28 25.25L168.19 25.16L168.19 25.15Q165.43 24.19 163.07 22.97L163.07 22.97L163.01 22.91Q160.39 21.51 159.40 16.83L159.47 16.89L159.49 16.92Q159.45 16.53 159.33 15.77L159.36 15.79L159.22 15.66Q159.25 15.00 159.33 14.43L159.18 14.28L159.31 14.41Q159.45 12.80 160.71 12.34L160.66 12.29L160.70 12.34Q163.06 11.42 167.06 11.61L167.15 11.71L166.97 11.53Q168.88 11.72 169.68 11.80L169.62 11.74L169.72 11.84Q171.09 11.91 172.15 12.37L172.17 12.38L172.17 12.39Q174.39 12.97 174.62 15.44L174.49 15.32L174.61 15.44Q173.62 16.20 171.41 17.53L171.42 17.54L171.40 17.52Q170.87 14.40 166.49 14.40L166.55 14.45L166.58 14.48Q164.56 14.37 163.57 15.05L163.73 15.21L163.68 15.16Q162.41 15.57 162.64 17.36L162.66 17.39L162.60 17.32Q162.97 19.63 165.94 21.16L166.00 21.22L165.91 21.13Q166.44 21.35 170.93 22.98L170.96 23.02L170.91 22.97Q173.60 24.51 174.02 28.89L174.03 28.90L174.00 28.87Q174.05 29.07 174.12 30.33L174.09 30.29L174.03 30.23Q174.08 32.99 172.52 34.09L172.54 34.11L172.67 34.24Q170.78 35.17 166.59 35.28ZM168.77 37.54L168.85 37.61L168.91 37.67Q170.25 37.64 172.23 37.64L172.26 37.68L172.32 37.74Q174.44 37.77 175.70 37.35L175.68 37.33L175.72 37.37Q176.86 36.46 176.79 34.67L176.75 34.63L176.85 34.74Q176.67 33.60 176.29 31.54L176.34 31.60L176.39 31.64Q175.45 26.94 173.36 25.07L173.39 25.10L173.28 24.99Q172.64 23.56 171.31 22.83L171.23 22.75L165.99 20.75L165.88 20.64Q165.67 20.58 165.22 20.36L165.21 20.35L165.00 19.87L164.98 19.51L165.05 19.58Q164.82 18.09 165.96 17.48L165.99 17.52L165.98 17.51Q166.81 17.00 168.52 16.81L168.51 16.80L168.42 16.71Q169.64 16.67 170.79 17.13L170.66 17.01L170.80 17.15Q170.88 17.26 171.07 18.10L171.08 18.11L171.09 18.12Q171.14 17.83 171.64 17.60L171.63 17.60L171.63 17.60Q172.43 18.58 172.54 19.73L172.53 19.72L172.47 19.66Q172.71 19.78 176.37 17.19L176.33 17.15L176.35 17.17Q176.02 14.49 174.57 13.80L174.60 13.82L174.48 13.71Q174.00 12.55 172.56 12.01L172.63 12.08L172.64 12.09Q170.24 11.18 167.04 11.18L167.01 11.14L167.10 11.24Q162.18 11.23 160.31 11.91L160.34 11.94L160.22 11.82Q159.03 12.42 158.92 14.10L158.92 14.10L158.78 13.95Q158.85 14.60 159.27 16.81L159.27 16.80L159.18 16.72Q159.86 20.48 162.03 22.73L162.07 22.76L162.15 22.85Q162.86 24.48 164.37 25.16L164.35 25.15L164.34 25.14Q165.85 25.82 169.77 27.38L169.78 27.40L169.85 27.50L170.47 27.82L170.49 27.87L170.55 27.94Q170.70 28.36 170.74 28.70L170.74 28.70L170.60 28.56Q170.74 32.08 166.82 32.24L166.85 32.27L166.85 32.27Q165.60 32.20 164.30 31.82L164.44 31.95L164.39 31.90Q163.98 31.00 163.98 30.28L164.03 30.32L163.99 30.28Q164.06 30.08 164.09 29.82L164.00 29.73L164.20 29.92Q163.74 30.11 162.94 30.61L162.82 30.49L162.89 30.55Q162.36 29.41 162.51 28.04L162.53 28.06L162.59 28.12Q160.46 29.26 158.86 30.67L158.88 30.70L158.92 30.73Q158.84 31.41 158.91 32.44L158.96 32.48L158.99 32.52Q159.40 34.34 160.70 35.10L160.63 35.03L160.55 34.95Q161.79 36.81 164.34 37.19L164.27 37.11L164.39 37.23Q166.01 37.52 168.94 37.71Z"/><path fill="#444" d="M133.82 14.23L133.84 14.25L133.70 14.12Q134.89 18.65 135.04 21.85L135.07 21.88L135.10 21.91Q135.46 21.82 139.84 21.93L139.89 21.98L139.87 21.96Q142.46 22.04 142.84 18.58L142.83 18.57L142.78 18.51Q143.07 16.86 142.15 15.95L142.09 15.89L142.11 15.90Q140.87 15.05 138.89 14.89L138.86 14.86L138.90 14.90Q135.64 14.65 133.77 14.19ZM135.14 23.78L135.14 23.78L135.25 23.90Q135.30 29.77 133.51 35.71L133.62 35.81L133.49 35.68Q132.40 36.16 129.81 37.18L129.77 37.14L129.79 37.16Q132.59 30.63 132.25 23.17L132.21 23.14L132.25 23.17Q131.92 15.80 128.61 9.29L128.61 9.30L128.52 9.20Q133.48 12.11 140.45 12.11L140.52 12.18L140.48 12.14Q146.03 12.06 146.30 15.60L146.28 15.58L146.36 15.66Q146.30 16.14 146.23 16.75L146.33 16.85L146.25 17.98L146.19 17.93Q145.35 21.84 143.21 23.56L143.25 23.59L143.20 23.54Q142.43 24.26 141.40 24.26L141.45 24.31L138.81 24.25L138.76 24.21Q144.50 31.58 149.03 36.15L149.04 36.16L148.90 36.02Q146.78 35.34 143.85 35.00L143.90 35.05L143.78 34.94Q140.06 31.03 135.15 23.79ZM143.63 35.28L143.70 35.35L144.00 35.35L145.23 36.57L145.39 36.73Q145.82 37.12 146.46 37.73L146.56 37.82L146.57 37.84Q149.98 38.32 153.56 40.19L153.62 40.24L153.67 40.30Q146.60 33.42 141.20 26.49L141.23 26.52L143.11 26.65L143.11 26.65Q146.09 26.55 147.42 22.02L147.48 22.07L147.41 22.00Q148.24 19.94 148.24 17.24L148.09 17.09L148.08 17.08Q148.19 14.91 146.48 14.26L146.35 14.13L146.51 14.29Q146.34 13.85 145.76 13.16L145.82 13.22L145.80 13.20Q143.98 11.61 140.33 11.53L140.44 11.64L140.49 11.70Q132.46 11.39 127.78 8.39L127.88 8.49L127.87 8.48Q131.62 15.31 131.96 23.00L131.98 23.02L131.91 22.95Q132.18 30.84 129.06 37.69L129.24 37.86L129.16 37.78Q130.37 37.17 131.17 36.87L131.20 36.90L130.22 39.19L130.29 39.26Q133.01 38.21 135.68 37.72L135.56 37.61L135.58 37.62Q136.91 32.55 137.10 27.34L137.00 27.24L137.12 27.36Q140.58 32.27 143.74 35.39ZM142.48 17.45L142.52 17.50L142.56 17.53Q142.55 17.75 142.55 18.09L142.55 18.10L142.45 18.57L142.50 18.62Q142.53 19.75 141.84 20.70L141.83 20.69L141.78 20.64Q141.12 21.35 140.21 21.54L140.35 21.69L140.34 21.68Q140.11 21.71 138.51 21.75L138.50 21.74L138.53 21.77Q137.92 21.76 137.08 21.65L137.11 21.67L137.06 21.63Q136.87 20.03 136.53 16.98L136.69 17.15L136.61 17.06Q138.11 17.35 138.80 17.35L138.67 17.23L138.65 17.20Q140.50 17.23 142.45 17.42Z"/><path fill="#111" d="M25.45 14.65L25.48 14.68L23.88 14.75L23.92 14.80Q21.54 14.77 21.31 16.79L21.45 16.94L21.48 16.96Q21.36 17.64 21.40 18.63L21.37 18.60L21.31 18.54Q21.39 20.53 22.65 21.86L22.69 21.91L22.61 21.82Q23.91 23.20 25.81 23.04L25.89 23.13L25.85 23.08Q27.78 22.80 28.54 21.89L28.62 21.97L28.56 21.91Q29.74 21.11 30.01 18.87L30.06 18.92L30.05 18.91Q30.31 16.66 29.06 15.82L28.89 15.65L28.97 15.74Q28.19 15.03 25.52 14.73ZM31.40 23.80L31.44 23.84L30.21 26.19L30.25 26.22Q27.47 30.95 23.70 35.02L23.81 35.13L23.78 35.10Q22.14 35.25 19.43 36.05L19.37 35.98L19.39 36.00Q24.73 29.73 27.89 24.93L27.79 24.84L27.88 24.92Q26.92 25.64 25.28 25.71L25.10 25.54L25.24 25.67Q22.17 25.76 20.64 23.78L20.70 23.83L20.66 23.79Q19.53 22.29 18.43 17.72L18.44 17.73L18.29 17.58Q18.39 17.23 18.24 16.29L18.10 16.15L18.22 16.28Q17.98 15.26 17.98 14.80L18.00 14.82L18.14 14.96Q18.10 13.13 19.17 12.52L19.15 12.50L19.07 12.43Q20.33 11.70 22.19 11.70L22.27 11.77L22.19 11.70Q25.30 11.61 25.30 11.61L25.48 11.78L25.38 11.69Q27.66 11.84 28.92 12.03L28.79 11.90L28.91 12.02Q31.02 12.27 31.93 12.76L31.89 12.71L31.86 12.69Q33.24 13.46 33.43 15.21L33.42 15.20L33.48 15.26Q33.40 15.41 33.21 18.07L33.14 18.01L33.21 18.07Q32.89 20.26 32.66 21.10L32.61 21.05L32.70 21.14Q32.16 22.39 31.40 23.80ZM33.40 26.29L33.45 26.34L33.30 26.19Q34.29 23.99 34.82 19.68L34.96 19.82L34.91 19.77Q35.14 17.53 35.11 16.66L35.11 16.66L35.05 16.60Q35.18 14.90 34.00 13.99L33.84 13.82L33.56 13.74L33.70 13.88Q33.39 13.08 32.48 12.43L32.51 12.46L32.51 12.46Q30.20 11.44 25.40 11.29L25.31 11.20L25.28 11.17Q24.44 11.28 22.01 11.28L21.93 11.21L22.02 11.29Q20.19 11.22 18.70 11.90L18.65 11.85L18.65 11.84Q17.57 12.71 17.64 14.53L17.64 14.53L17.58 14.47Q17.87 15.48 18.06 17.50L17.98 17.42L18.06 17.50Q18.68 20.14 18.95 20.98L18.99 21.02L18.84 20.87Q19.54 22.86 20.49 24.16L20.47 24.14L20.47 24.14Q20.78 24.52 21.16 24.91L21.00 24.74L21.08 24.83Q21.33 25.26 21.98 26.18L22.03 26.23L22.05 26.25Q23.43 27.52 25.37 27.71L25.39 27.72L25.34 27.68Q23.61 30.51 22.05 32.41L21.95 32.32L18.42 36.78L18.26 36.62Q20.56 35.92 22.20 35.57L22.17 35.55L22.18 35.56Q21.51 36.52 19.95 38.24L20.01 38.29L20.01 38.30Q22.92 37.21 26.05 37.18L26.19 37.32L26.07 37.20Q28.37 34.59 32.71 27.36L32.71 27.35L32.69 27.41L32.87 27.59Q32.98 26.72 33.33 26.22ZM27.47 17.13L27.31 16.97L27.31 16.97Q27.97 16.90 28.42 17.02L28.52 17.11L28.41 17.01Q29.03 17.09 29.41 17.20L29.53 17.32L29.51 17.30Q29.50 17.56 29.57 17.98L29.61 18.01L29.65 18.05Q29.70 18.44 29.58 18.82L29.64 18.88L29.54 18.78Q29.59 20.59 28.41 21.69L28.41 21.68L28.32 21.60Q27.41 22.66 25.77 22.63L25.90 22.75L25.89 22.74Q25.33 22.60 23.81 22.30L23.81 22.31L23.97 22.46Q23.74 21.58 23.74 20.86L23.61 20.73L23.54 20.66Q23.56 20.49 23.56 20.27L23.54 20.24L23.64 20.35Q23.66 18.15 25.94 17.35L25.83 17.24L25.75 17.16Q26.53 17.03 27.37 17.03Z"/><path d="M18 11 C79 29,88 23,193 8" stroke="#666" fill="none"/><path fill="#222" d="M112.68 27.17L103.41 17.14L103.37 17.10Q104.22 20.80 104.22 24.53L104.34 24.65L104.32 24.64Q104.34 30.63 102.28 36.19L102.19 36.09L102.19 36.09Q101.09 36.32 98.84 37.09L98.86 37.11L98.87 37.12Q101.77 31.41 101.77 24.71L101.75 24.69L101.74 24.68Q101.73 16.03 97.24 8.61L97.31 8.68L97.21 8.58Q97.64 8.74 98.33 9.16L98.36 9.20L98.29 9.12Q110.44 20.40 118.28 29.65L118.27 29.64L118.34 29.70Q117.93 27.17 117.93 24.73L117.92 24.72L118.06 24.86Q117.86 17.43 120.38 11.23L120.54 11.39L120.39 11.24Q122.81 10.80 124.40 10.11L124.46 10.17L124.33 10.04Q121.16 16.35 120.86 23.51L120.72 23.37L120.73 23.38Q120.56 30.86 123.53 37.03L123.40 36.90L123.44 36.94Q122.94 36.94 122.53 36.75L122.38 36.61L122.36 36.59Q117.84 32.68 112.63 27.12L112.75 27.24ZM126.14 40.21L126.03 40.10L126.09 40.16Q126.52 40.29 126.94 40.48L126.92 40.46L127.90 40.95L127.74 40.78Q122.57 33.83 122.57 24.46L122.54 24.43L122.60 24.49Q122.62 17.27 125.93 11.03L125.92 11.02L125.99 11.09Q125.36 11.34 123.95 11.95L123.84 11.84L123.96 11.95Q124.25 11.02 125.09 9.46L125.09 9.47L125.18 9.56Q122.59 10.32 120.15 10.89L120.12 10.85L120.26 11.00Q117.48 17.32 117.48 24.74L117.61 24.87L117.52 24.77Q117.53 26.65 117.72 28.63L117.81 28.72L117.77 28.68Q113.04 22.93 108.28 18.32L108.43 18.46L98.28 8.70L98.36 8.78Q97.73 8.41 96.51 7.84L96.41 7.74L96.56 7.89Q101.26 15.45 101.26 24.55L101.35 24.63L101.41 24.69Q101.44 31.85 98.36 37.86L98.31 37.81L98.37 37.87Q98.51 37.59 100.14 36.98L100.30 37.14L100.15 36.99Q99.84 37.78 99.00 39.27L99.11 39.37L99.07 39.33Q100.49 38.89 103.96 38.09L103.80 37.93L103.85 37.99Q106.15 31.83 106.15 24.63L106.20 24.69L106.28 24.77Q106.24 22.64 106.02 20.51L105.87 20.36L105.89 20.38Q117.55 33.37 126.16 40.23Z"/><path d="M13 38 C95 6,101 18,185 25" stroke="#111" fill="none"/><path fill="#222" d="M49.75 27.97L49.82 28.03L49.78 28.00Q52.78 27.54 55.98 27.65L56.09 27.76L56.04 27.71Q56.08 25.24 56.08 22.84L56.04 22.80L55.95 22.71Q56.01 20.30 56.20 17.75L56.18 17.72L56.11 17.65Q54.93 19.40 49.71 27.93ZM59.71 35.38L59.63 35.30L59.66 35.33Q58.05 35.08 56.26 35.01L56.21 34.96L56.14 34.89Q56.05 32.63 55.94 30.16L55.78 30.00L55.90 30.13Q50.55 29.91 45.83 31.32L45.73 31.22L45.91 31.40Q45.85 30.73 46.04 29.74L46.07 29.77L46.20 29.90Q47.96 26.72 51.54 20.43L51.58 20.47L51.48 20.37Q54.39 15.52 57.82 11.64L57.81 11.62L57.79 11.60Q58.65 11.40 60.32 11.13L60.27 11.08L60.40 11.20Q58.48 17.63 58.48 24.67L58.44 24.62L58.49 24.67Q58.36 26.03 58.43 27.51L58.44 27.53L59.75 27.65L59.91 27.81Q60.39 27.72 61.00 27.83L61.02 27.85L61.00 27.83Q61.25 28.96 61.52 30.91L61.47 30.85L61.42 30.80Q60.22 30.56 58.74 30.37L58.71 30.35L58.67 30.30Q58.89 32.31 59.58 35.25ZM61.38 27.57L61.25 27.43L61.29 27.48Q61.06 27.36 60.87 27.36L60.94 27.43L60.49 27.36L60.58 27.45Q60.38 25.88 60.38 24.47L60.45 24.54L60.38 24.48Q60.53 18.23 62.58 12.21L62.52 12.15L62.55 12.18Q61.75 12.41 60.30 12.79L60.21 12.69L60.22 12.71Q60.56 12.06 61.02 10.65L60.91 10.54L61.04 10.67Q59.67 10.97 57.61 11.20L57.66 11.25L57.53 11.12Q53.68 15.53 48.47 24.90L48.39 24.81L50.65 21.33L50.51 21.19Q50.12 22.24 49.85 22.81L49.79 22.76L45.43 31.87L45.36 31.80Q46.13 31.77 47.27 31.39L47.31 31.43L47.08 31.58L47.04 31.54Q46.94 32.24 46.64 33.50L46.69 33.55L46.74 33.60Q50.82 32.24 55.66 32.43L55.63 32.40L55.68 32.46Q55.55 33.24 55.74 35.22L55.91 35.38L55.84 35.32Q56.92 35.32 57.98 35.44L57.93 35.39L57.92 35.37Q58.03 36.02 58.30 37.39L58.37 37.47L58.30 37.39Q60.20 37.61 63.20 38.53L63.31 38.63L63.24 38.56Q62.21 36.39 61.29 33.12L61.32 33.14L62.93 33.76L62.83 33.66Q63.46 33.84 64.15 34.18L64.16 34.20L64.25 34.28Q63.44 31.76 63.29 30.09L63.26 30.06L63.30 30.10Q62.66 29.87 61.52 29.65L61.61 29.74L61.49 29.62Q61.32 28.39 61.32 27.51ZM53.33 27.37L53.40 27.44L53.38 27.41Q54.10 26.07 55.66 23.52L55.58 23.44L55.61 23.47Q55.54 24.36 55.50 25.31L55.68 25.48L55.52 25.33Q55.50 26.30 55.54 27.25L55.59 27.30L55.69 27.40Q54.99 27.23 54.42 27.23L54.60 27.41L54.51 27.32Q53.83 27.26 53.23 27.26Z"/></svg>