<svg xmlns="http://www.w3.org/2000/svg" width="200" height="40" viewBox="0,0,200,40"><path fill="#222" d="M166.79 24.17L166.66 24.05L166.71 24.09Q164.85 23.95 163.61 25.38L163.73 25.50L163.71 25.48Q162.43 26.85 162.24 28.76L162.14 28.67L162.24 28.76Q161.97 30.78 163.05 31.75L163.13 31.83L163.03 31.72Q164.16 32.74 166.25 32.62L166.37 32.74L166.29 32.66Q168.34 32.47 169.45 31.78L169.52 31.86L169.51 31.84Q170.69 30.78 170.69 29.21L170.55 29.07L170.71 29.23Q170.64 28.78 170.56 28.40L170.44 28.28L170.55 28.39Q170.51 26.60 169.41 25.25L169.44 25.28L169.59 25.43Q168.36 23.95 166.68 24.07ZM166.23 35.15L166.29 35.21L166.24 35.16Q162.02 35.32 160.61 34.56L160.59 34.53L160.52 34.46Q159.44 33.66 159.25 31.94L159.34 32.03L159.33 32.02Q159.29 31.33 159.33 30.61L159.24 30.52L159.30 30.58Q159.33 29.51 159.33 29.05L159.41 29.13L159.39 29.11Q159.84 26.25 159.99 25.56L160.07 25.64L160.00 25.57Q160.40 23.58 161.24 22.17L161.38 22.31L161.27 22.20Q164.07 17.95 170.01 11.60L169.86 11.44L169.96 11.55Q172.60 11.22 174.81 10.42L174.82 10.43L174.70 10.31Q168.04 17.96 164.84 22.19L164.66 22.01L164.74 22.08Q165.76 21.63 167.06 21.63L166.99 21.56L167.05 21.62Q170.27 21.53 171.79 23.47L171.79 23.46L171.87 23.54Q173.19 25.17 173.53 28.71L173.61 28.79L173.55 28.73Q173.66 29.48 173.66 30.09L173.70 30.13L173.70 30.13Q173.57 33.13 171.36 34.19L171.48 34.31L171.36 34.19Q170.11 34.76 166.22 35.14ZM168.56 37.60L168.52 37.55L168.59 37.62Q169.87 37.57 171.85 37.65L171.92 37.72L171.92 37.72Q173.41 37.65 174.97 36.92L175.02 36.97L175.11 37.06Q176.20 36.25 176.20 34.46L176.25 34.51L176.08 34.34Q176.18 33.95 176.01 32.96L175.92 32.87L176.03 32.98Q175.77 31.90 175.77 31.45L175.73 31.40L175.84 31.51Q174.98 26.81 173.38 24.90L173.44 24.96L173.34 24.86Q173.25 24.74 173.10 24.51L173.22 24.62L172.73 24.22L172.65 24.17L172.83 24.36Q172.45 23.82 171.84 22.87L171.73 22.76L171.87 22.89Q170.93 21.92 168.95 21.47L168.98 21.49L168.80 21.32Q170.16 19.85 173.13 16.16L173.13 16.16L177.38 10.90L177.28 10.80Q175.68 11.63 173.28 12.39L173.41 12.52L173.32 12.43Q174.27 11.48 176.06 9.50L176.04 9.48L175.97 9.41Q173.60 10.50 169.71 11.07L169.78 11.14L169.72 11.08Q164.12 17.09 161.15 22.04L161.12 22.01L161.13 22.02Q159.51 24.43 158.93 30.67L159.01 30.75L158.93 30.66Q158.84 31.22 158.91 32.18L158.94 32.20L158.92 32.18Q159.17 34.10 160.27 35.02L160.19 34.93L160.11 34.86Q160.59 35.11 160.55 35.14L160.53 35.13L160.54 35.14Q160.83 35.96 161.63 36.38L161.65 36.40L161.72 36.47Q163.17 37.15 165.11 37.35L165.09 37.32L165.07 37.31Q165.16 37.39 168.66 37.70ZM168.37 26.40L168.29 26.32L168.30 26.33Q168.96 26.31 169.91 26.81L169.95 26.84L169.82 26.71Q170.25 27.75 170.25 28.39L170.27 28.42L170.28 28.42Q170.46 30.28 169.51 31.27L169.55 31.32L169.41 31.17Q168.43 31.98 166.33 32.29L166.24 32.19L166.39 32.34Q164.84 32.24 164.31 31.97L164.30 31.96L164.25 31.91Q164.13 31.53 164.13 31.22L164.15 31.25L164.05 31.15Q163.85 27.89 166.78 26.60L166.80 26.62L166.91 26.73Q167.54 26.26 168.30 26.33Z"/><path fill="#333" d="M84.18 15.13L84.17 15.13L84.09 15.05Q79.78 15.04 76.09 14.05L76.21 14.17L76.08 14.04Q77.61 18.62 77.80 23.45L77.80 23.45L77.80 23.45Q78.14 28.39 76.92 33.00L76.75 32.83L76.78 32.86Q79.56 32.21 83.06 32.06L83.17 32.17L83.06 32.06Q87.12 32.01 88.91 29.57L88.83 29.49L88.77 29.44Q90.35 27.44 90.54 23.32L90.54 23.33L90.60 23.38Q90.54 21.50 90.09 19.79L90.20 19.90L90.24 19.94Q88.85 15.08 84.13 15.08ZM72.21 37.08L72.31 37.19L72.34 37.21Q75.16 31.47 75.16 24.77L75.17 24.78L75.17 24.78Q75.16 16.24 70.86 9.23L70.83 9.21L70.77 9.15Q76.15 11.94 84.41 12.13L84.31 12.03L84.37 12.09Q93.27 12.31 93.62 19.47L93.50 19.35L93.66 19.52Q93.62 22.06 93.58 23.51L93.66 23.59L93.57 23.50Q93.67 28.35 92.83 30.52L92.73 30.42L92.77 30.47Q92.41 31.63 91.65 32.46L91.55 32.37L91.49 32.30Q90.27 33.98 87.65 34.48L87.47 34.30L87.59 34.42Q85.99 34.69 82.99 34.92L83.05 34.98L82.93 34.87Q76.86 35.38 72.25 37.13ZM90.12 36.95L90.20 37.03L90.25 37.08Q92.87 36.61 94.50 35.13L94.60 35.22L94.48 35.10Q95.84 33.49 95.80 30.75L95.74 30.69L95.72 30.67Q95.79 29.37 95.64 25.87L95.51 25.74L95.19 21.23L95.24 21.29Q94.95 18.91 94.00 16.81L93.99 16.80L94.15 16.95Q93.58 15.97 92.89 15.32L92.84 15.27L92.79 15.07L92.81 15.09Q91.08 12.10 86.66 11.72L86.85 11.91L86.68 11.73Q83.97 11.57 76.96 10.85L77.07 10.95L76.99 10.88Q73.72 10.42 70.03 8.40L70.03 8.41L70.15 8.53Q74.87 15.80 74.87 24.56L74.95 24.63L75.02 24.71Q74.97 31.66 71.62 37.83L71.52 37.72L71.50 37.71Q72.24 37.50 73.57 37.00L73.60 37.03L73.49 36.92Q73.25 37.86 72.38 39.34L72.38 39.35L72.33 39.30Q75.37 38.22 78.72 37.73L78.83 37.84L78.82 37.83Q80.80 37.41 84.45 37.29L84.42 37.27L84.40 37.24Q88.33 37.18 90.16 36.99ZM90.26 23.42L90.17 23.33L90.28 23.45Q89.84 31.38 83.14 31.76L83.08 31.70L83.19 31.81Q81.27 31.94 79.21 32.21L79.12 32.12L79.24 32.24Q79.92 28.34 79.92 24.69L79.94 24.71L79.79 24.56Q79.91 21.00 79.19 17.15L79.04 17.00L79.15 17.11Q81.49 17.55 86.17 17.55L86.07 17.44L86.17 17.54Q87.41 17.26 89.04 18.21L89.14 18.30L89.15 18.31Q90.39 20.55 90.24 23.40Z"/><path d="M18 30 C112 38,111 8,187 37" stroke="#222" fill="none"/><path fill="#222" d="M113.16 34.84L113.07 34.75L113.10 34.78Q111.20 34.79 109.18 34.98L109.13 34.93L109.26 35.05Q109.94 29.84 109.94 25.00L109.87 24.93L109.88 24.95Q109.84 19.99 109.19 14.77L109.26 14.84L109.16 14.74Q104.67 14.44 101.47 12.76L101.41 12.70L100.76 11.02L100.73 10.99Q100.47 10.43 99.86 9.21L99.99 9.34L99.91 9.26Q104.98 11.93 111.00 12.12L110.96 12.09L111.02 12.15Q116.77 12.18 122.21 10.13L122.30 10.22L122.21 10.12Q121.63 11.68 120.98 13.51L121.03 13.56L120.99 13.52Q117.37 14.81 113.11 15.00L113.17 15.06L113.08 14.97Q112.92 20.03 112.92 24.98L112.93 24.99L112.88 24.93Q112.82 29.83 113.13 34.81ZM123.07 9.62L122.99 9.54L123.06 9.61Q117.23 11.89 111.03 11.70L111.01 11.68L111.02 11.69Q104.33 11.48 99.23 8.51L99.11 8.39L99.19 8.47Q100.04 9.84 101.33 13.12L101.23 13.02L101.15 12.93Q101.90 13.35 103.16 13.92L103.08 13.83L103.08 13.84Q103.45 14.67 103.80 16.19L103.70 16.09L103.78 16.18Q106.02 16.97 109.07 17.20L109.12 17.25L109.05 17.18Q109.48 20.93 109.48 24.70L109.39 24.60L109.52 24.74Q109.49 30.07 108.69 35.44L108.60 35.35L108.69 35.44Q110.28 35.24 110.81 35.24L110.96 35.39L110.90 35.33Q110.88 35.61 110.83 36.28L110.89 36.34L110.86 36.31Q110.79 36.97 110.79 37.31L110.74 37.26L110.75 37.27Q112.02 37.28 113.54 37.36L113.45 37.27L113.40 37.22Q114.48 37.42 116.31 37.57L116.20 37.47L116.30 37.57Q115.06 32.64 114.95 27.46L114.89 27.40L114.78 27.29Q114.75 22.09 115.29 17.18L115.31 17.20L115.25 17.14Q119.22 16.61 122.38 15.40L122.47 15.49L122.29 15.31Q123.08 13.01 124.11 10.96L124.14 10.99L124.03 10.88Q122.84 11.71 122.04 12.01L121.91 11.88L121.98 11.95Q122.36 10.62 122.93 9.48Z"/><path d="M18 19 C106 36,103 10,179 29" stroke="#888" fill="none"/><path fill="#111" d="M25.46 14.66L25.35 14.55L23.95 14.83L23.82 14.70Q21.56 14.80 21.34 16.82L21.40 16.89L21.46 16.95Q21.25 17.54 21.29 18.53L21.42 18.65L21.42 18.66Q21.39 20.53 22.65 21.87L22.66 21.87L22.69 21.91Q23.81 23.10 25.72 22.95L25.72 22.96L25.80 23.03Q27.95 22.97 28.71 22.06L28.56 21.92L28.67 22.02Q29.63 21.00 29.90 18.76L30.00 18.86L29.96 18.82Q30.20 16.55 28.94 15.71L28.99 15.75L28.95 15.71Q28.06 14.90 25.39 14.59ZM31.42 23.82L31.44 23.84L30.10 26.08L30.28 26.26Q27.57 31.05 23.81 35.13L23.64 34.96L23.64 34.96Q22.14 35.25 19.43 36.04L19.45 36.07L19.43 36.05Q24.70 29.70 27.86 24.91L27.84 24.88L27.94 24.98Q26.74 25.46 25.11 25.54L25.27 25.70L25.15 25.58Q22.22 25.82 20.70 23.84L20.58 23.72L20.63 23.77Q19.39 22.14 18.29 17.58L18.44 17.73L18.37 17.66Q18.42 17.26 18.27 16.32L18.20 16.25L18.23 16.29Q18.08 15.35 18.08 14.89L18.06 14.88L18.08 14.89Q17.96 12.98 19.02 12.37L19.07 12.42L19.10 12.45Q20.28 11.65 22.14 11.65L22.14 11.65L22.15 11.66Q25.43 11.74 25.43 11.74L25.43 11.74L25.46 11.77Q27.59 11.77 28.85 11.96L28.79 11.90L28.85 11.96Q30.98 12.23 31.89 12.72L31.96 12.78L31.95 12.77Q33.22 13.44 33.41 15.19L33.41 15.19L33.51 15.29Q33.47 15.48 33.28 18.14L33.29 18.15L33.24 18.10Q32.90 20.27 32.67 21.11L32.60 21.04L32.72 21.17Q32.31 22.54 31.54 23.94ZM33.32 26.21L33.34 26.24L33.47 26.36Q34.47 24.16 35.00 19.86L34.87 19.73L34.90 19.76Q35.14 17.53 35.11 16.66L35.21 16.75L35.16 16.71Q35.01 14.73 33.83 13.82L33.86 13.85L33.68 13.86L33.68 13.86Q33.39 13.07 32.47 12.43L32.36 12.31L32.51 12.46Q30.11 11.35 25.31 11.20L25.28 11.17L25.33 11.22Q24.31 11.15 21.87 11.15L22.06 11.33L21.99 11.27Q20.31 11.34 18.82 12.02L18.77 11.96L18.82 12.02Q17.68 12.82 17.76 14.65L17.71 14.60L17.67 14.56Q17.88 15.50 18.07 17.51L17.97 17.41L18.06 17.51Q18.60 20.06 18.86 20.90L18.91 20.94L18.88 20.91Q19.50 22.83 20.46 24.12L20.47 24.14L20.51 24.18Q20.73 24.47 21.11 24.86L21.12 24.86L21.04 24.78Q21.43 25.36 22.08 26.28L21.95 26.15L22.01 26.21Q23.56 27.65 25.50 27.84L25.43 27.77L25.47 27.81Q23.52 30.42 21.96 32.33L21.92 32.28L18.43 36.80L18.32 36.68Q20.63 35.99 22.27 35.64L22.29 35.66L22.15 35.53Q21.43 36.44 19.87 38.16L19.90 38.19L19.98 38.27Q23.06 37.35 26.18 37.31L26.04 37.17L26.17 37.30Q28.52 34.74 32.86 27.50L32.87 27.51L32.68 27.40L32.80 27.52Q33.00 26.73 33.34 26.24ZM27.37 17.03L27.28 16.94L27.33 16.99Q28.02 16.95 28.48 17.07L28.47 17.06L28.53 17.13Q29.06 17.12 29.44 17.23L29.43 17.22L29.57 17.36Q29.57 17.63 29.65 18.05L29.70 18.10L29.66 18.06Q29.65 18.39 29.54 18.77L29.66 18.90L29.65 18.89Q29.53 20.52 28.35 21.63L28.49 21.77L28.35 21.62Q27.41 22.66 25.77 22.63L25.74 22.60L25.84 22.69Q25.37 22.64 23.85 22.34L23.82 22.31L23.95 22.44Q23.70 21.55 23.70 20.82L23.68 20.80L23.56 20.68Q23.51 20.44 23.51 20.21L23.58 20.28L23.64 20.34Q23.52 18.01 25.80 17.21L25.83 17.24L25.78 17.19Q26.60 17.10 27.44 17.10Z"/><path fill="#222" d="M55.90 15.14L55.90 15.14L55.93 15.17Q51.55 15.10 47.86 14.11L47.85 14.09L47.78 14.03Q49.48 18.77 49.67 23.60L49.62 23.56L49.53 23.47Q49.72 28.26 48.50 32.87L48.61 32.97L48.48 32.85Q51.41 32.35 54.91 32.20L54.91 32.20L54.93 32.22Q58.82 32.00 60.61 29.56L60.47 29.42L60.62 29.57Q62.15 27.52 62.35 23.41L62.25 23.32L62.30 23.37Q62.40 21.64 61.94 19.92L61.95 19.94L61.85 19.84Q60.58 15.10 55.86 15.10ZM44.00 37.16L43.88 37.04L43.90 37.06Q46.79 31.38 46.79 24.68L46.93 24.83L46.81 24.70Q46.88 16.25 42.58 9.25L42.63 9.30L42.63 9.30Q47.77 11.85 56.03 12.04L56.01 12.02L56.16 12.16Q64.86 12.19 65.21 19.35L65.29 19.43L65.31 19.45Q65.38 22.11 65.34 23.55L65.28 23.50L65.28 23.49Q65.35 28.32 64.51 30.49L64.54 30.52L64.53 30.51Q64.04 31.54 63.27 32.37L63.27 32.37L63.25 32.35Q61.81 33.80 59.18 34.30L59.32 34.44L59.21 34.33Q57.77 34.75 54.76 34.98L54.78 34.99L54.80 35.01Q48.57 35.38 43.97 37.13ZM61.92 37.04L61.95 37.07L61.93 37.05Q64.64 36.67 66.27 35.18L66.25 35.16L66.21 35.12Q67.39 33.33 67.35 30.59L67.35 30.58L67.40 30.64Q67.46 29.33 67.31 25.83L67.36 25.88L66.83 21.16L66.94 21.27Q66.78 19.02 65.83 16.93L65.81 16.91L65.86 16.96Q65.23 15.91 64.55 15.26L64.60 15.32L64.47 15.03L64.48 15.04Q62.82 12.12 58.40 11.74L58.55 11.89L58.46 11.80Q55.70 11.59 48.69 10.86L48.67 10.84L48.80 10.98Q45.50 10.49 41.81 8.47L41.77 8.44L41.77 8.43Q46.70 15.91 46.70 24.67L46.60 24.57L46.66 24.63Q46.66 31.63 43.31 37.80L43.23 37.72L43.33 37.82Q43.92 37.47 45.26 36.97L45.27 36.99L45.34 37.05Q44.87 37.76 43.99 39.25L44.10 39.35L44.15 39.41Q47.12 38.26 50.47 37.77L50.49 37.79L50.58 37.87Q52.52 37.42 56.17 37.30L56.17 37.31L56.23 37.36Q59.98 37.11 61.81 36.92ZM61.85 23.30L61.91 23.35L61.85 23.30Q61.50 31.33 54.80 31.71L54.80 31.71L54.93 31.84Q52.83 31.79 50.78 32.06L50.81 32.09L50.92 32.21Q51.64 28.36 51.64 24.70L51.50 24.56L51.67 24.73Q51.62 20.99 50.90 17.14L50.89 17.13L50.74 16.99Q53.07 17.41 57.75 17.41L57.84 17.50L57.84 17.50Q59.10 17.24 60.74 18.19L60.75 18.20L60.79 18.24Q62.09 20.53 61.94 23.39Z"/><path fill="#444" d="M139.48 25.48L139.44 25.44L139.40 25.40Q136.00 31.82 132.58 35.78L132.44 35.64L132.49 35.69Q130.66 36.14 128.22 37.02L128.16 36.96L128.14 36.94Q133.19 31.48 137.95 23.07L137.96 23.08L137.89 23.01Q133.38 16.14 127.40 9.74L127.22 9.56L127.26 9.60Q130.24 10.87 132.53 11.36L132.60 11.44L132.43 11.27Q137.15 16.56 139.59 20.52L139.51 20.44L139.55 20.48Q142.12 16.12 146.04 11.71L146.05 11.72L145.95 11.62Q147.57 11.33 150.77 10.57L150.85 10.65L150.74 10.54Q144.69 17.02 141.23 22.96L141.27 23.00L141.20 22.93Q146.52 31.75 150.90 36.32L150.85 36.27L150.84 36.26Q148.21 35.42 146.11 35.19L146.08 35.15L146.24 35.31Q143.42 32.31 139.50 25.49ZM146.00 35.50L146.06 35.56L146.04 35.54Q146.43 35.67 146.89 35.78L146.93 35.82L146.79 35.68Q147.71 36.56 149.23 38.16L149.22 38.15L149.25 38.17Q152.43 38.80 155.47 40.17L155.52 40.23L155.53 40.23Q148.44 33.67 143.34 24.92L143.22 24.80L143.38 24.96Q147.12 18.31 153.02 11.46L152.96 11.39L152.86 11.30Q151.50 12.02 149.33 12.56L149.42 12.65L149.27 12.50Q150.15 11.59 151.90 9.80L151.93 9.83L152.01 9.91Q149.64 10.81 145.95 11.39L145.98 11.41L145.96 11.40Q142.41 15.08 139.82 19.38L139.85 19.41L139.88 19.44Q138.90 17.78 137.72 16.29L137.74 16.31L135.59 13.51L135.02 13.33L135.01 13.32Q135.03 13.48 134.80 13.41L134.75 13.36L134.74 13.35Q134.06 12.52 132.57 10.95L132.64 11.02L132.61 10.99Q128.72 10.03 126.13 8.66L126.07 8.60L126.11 8.64Q132.91 15.98 137.48 23.02L137.47 23.01L137.42 22.96Q132.92 31.14 127.17 37.72L127.23 37.78L127.24 37.79Q128.57 37.14 130.71 36.57L130.75 36.62L129.37 37.97L129.36 37.97Q129.44 38.05 128.11 39.38L128.17 39.44L128.09 39.36Q131.03 38.23 134.19 37.73L134.19 37.74L134.33 37.87Q138.33 33.34 140.91 28.58L140.90 28.57L140.79 28.46Q143.39 32.74 146.10 35.59Z"/></svg>