<svg xmlns="http://www.w3.org/2000/svg" width="200" height="40" viewBox="0,0,200,40"><path fill="#222" d="M53.84 14.65L53.78 14.58L53.90 14.70Q51.90 14.79 50.95 14.95L50.96 14.96L50.99 14.99Q49.37 15.24 48.15 15.77L47.99 15.60L48.10 15.71Q44.61 17.17 44.49 21.86L44.46 21.82L44.47 21.83Q44.48 24.58 45.12 27.51L44.98 27.37L45.09 27.47Q45.92 31.47 49.54 32.65L49.51 32.63L49.54 32.65Q51.35 33.13 52.79 32.97L52.80 32.98L53.33 33.05L53.23 32.96Q53.53 33.06 53.72 33.10L53.73 33.10L53.76 33.13Q53.76 32.99 53.92 32.95L53.99 33.02L53.99 33.03Q56.56 32.71 57.93 32.14L57.93 32.13L54.38 28.62L54.34 28.58Q54.73 28.32 55.34 27.71L55.34 27.72L56.30 26.85L56.26 26.81Q58.14 28.92 60.12 30.97L60.03 30.89L60.12 30.97Q62.42 29.12 62.69 23.76L62.68 23.75L62.63 23.70Q62.71 22.79 62.71 21.88L62.79 21.96L62.72 21.88Q62.83 16.33 57.77 15.22L57.61 15.06L57.77 15.22Q56.33 14.77 53.82 14.62ZM66.68 36.77L66.54 36.63L66.63 36.72Q66.01 37.13 64.83 38.00L64.92 38.09L60.39 34.29L60.48 34.37Q57.95 35.54 53.69 35.58L53.73 35.63L53.70 35.60Q47.24 35.80 44.42 33.55L44.26 33.39L44.44 33.57Q42.62 31.75 42.17 28.78L42.05 28.67L42.07 28.68Q41.92 26.94 41.54 23.36L41.47 23.29L41.45 23.27Q41.46 22.55 41.34 20.80L41.39 20.85L41.33 20.78Q41.19 19.24 41.23 18.36L41.24 18.38L41.34 18.47Q41.33 15.30 43.08 13.74L43.23 13.89L43.17 13.83Q44.73 12.54 47.93 12.04L47.82 11.93L47.89 12.00Q50.41 11.67 53.30 11.74L53.31 11.75L53.19 11.63Q60.79 11.85 63.92 14.21L63.92 14.21L63.86 14.15Q66.03 16.28 65.76 21.20L65.79 21.22L65.86 21.30Q65.62 24.89 65.42 26.23L65.46 26.26L65.32 26.12Q64.75 30.69 62.43 33.01L62.44 33.03L62.49 33.07Q63.96 34.31 66.70 36.79ZM61.81 12.48L61.70 12.38L61.80 12.47Q59.80 11.77 53.29 11.27L53.24 11.23L53.26 11.25Q51.83 11.23 49.06 11.34L49.15 11.43L49.16 11.45Q44.82 11.56 42.57 13.54L42.72 13.69L42.56 13.52Q41.03 15.12 41.03 18.28L41.02 18.26L40.95 18.20Q40.94 19.03 41.09 20.74L41.15 20.80L41.18 20.82Q41.21 22.41 41.21 23.29L41.31 23.39L41.30 23.39Q41.50 25.18 41.88 28.76L41.88 28.76L41.86 28.74Q42.24 31.63 43.84 33.68L43.68 33.53L43.83 33.67Q44.00 34.34 45.22 35.48L45.24 35.51L45.33 35.60Q48.05 37.59 53.22 37.86L53.15 37.79L53.27 37.90Q53.66 37.95 56.06 38.06L55.90 37.91L56.05 38.06Q60.70 38.06 62.98 36.99L63.01 37.02L62.95 36.96Q63.91 37.73 68.63 41.31L68.62 41.30L68.55 41.23Q69.27 40.81 70.57 39.82L70.48 39.73L70.58 39.83Q69.74 39.18 68.94 38.49L68.96 38.52L67.26 37.00L67.38 36.98L67.37 36.97Q66.64 36.35 65.42 35.32L65.54 35.44L65.56 35.46Q67.39 32.87 67.39 28.34L67.43 28.38L67.44 28.40Q67.44 27.97 67.48 27.14L67.48 27.14L67.39 27.05Q67.43 26.21 67.43 25.80L67.40 25.77L67.44 25.81Q67.49 20.33 66.76 17.97L66.84 18.05L66.85 18.06Q66.40 16.69 65.52 15.63L65.61 15.72L65.54 15.65Q64.63 13.40 61.70 12.37ZM55.79 17.05L55.73 16.99L55.85 17.11Q59.81 16.92 61.63 18.51L61.61 18.49L61.58 18.46Q62.34 19.86 62.45 21.20L62.44 21.19L62.34 21.09Q62.35 22.28 62.28 23.65L62.37 23.75L62.35 23.72Q62.04 28.70 60.10 30.42L60.05 30.37L59.99 30.31Q58.79 29.11 56.28 26.37L56.33 26.42L56.36 26.45Q55.37 26.98 53.81 28.55L53.82 28.56L53.84 28.58Q54.56 29.33 55.70 30.51L55.64 30.45L55.52 30.45L55.59 30.52Q56.03 30.92 57.06 31.99L57.06 31.98L57.21 32.14Q56.10 32.28 53.78 32.59L53.83 32.64L53.28 32.63L52.89 32.65L52.80 32.60L52.89 32.69Q49.45 32.71 47.47 31.08L47.44 31.05L47.37 30.98Q46.41 28.95 46.45 25.83L46.52 25.89L46.51 25.89Q46.64 17.15 55.82 17.08Z"/><path fill="#222" d="M25.34 14.54L25.48 14.68L23.81 14.69L23.96 14.84Q21.55 14.79 21.32 16.81L21.48 16.96L21.30 16.79Q21.29 17.57 21.33 18.56L21.32 18.56L21.32 18.55Q21.37 20.51 22.62 21.84L22.70 21.92L22.65 21.86Q23.97 23.26 25.87 23.10L25.86 23.10L25.91 23.14Q27.77 22.80 28.54 21.89L28.69 22.04L28.72 22.07Q29.77 21.14 30.04 18.90L30.03 18.89L30.04 18.90Q30.25 16.60 28.99 15.76L28.88 15.64L28.92 15.69Q28.10 14.94 25.44 14.64ZM31.53 23.93L31.44 23.84L30.14 26.12L30.23 26.20Q27.42 30.90 23.65 34.97L23.79 35.11L23.63 34.95Q22.03 35.14 19.33 35.94L19.38 36.00L19.33 35.94Q24.62 29.62 27.78 24.83L27.82 24.87L27.93 24.98Q26.83 25.55 25.19 25.62L25.18 25.61L25.19 25.63Q22.12 25.71 20.60 23.73L20.76 23.89L20.64 23.77Q19.40 22.16 18.30 17.59L18.40 17.69L18.27 17.56Q18.30 17.14 18.15 16.20L18.18 16.23L18.10 16.15Q18.10 15.38 18.10 14.92L17.97 14.79L18.06 14.88Q18.12 13.14 19.18 12.53L19.06 12.41L19.17 12.52Q20.27 11.64 22.13 11.64L22.11 11.62L22.24 11.75Q25.45 11.76 25.45 11.76L25.39 11.70L25.40 11.71Q27.56 11.74 28.82 11.93L28.87 11.98L28.73 11.84Q31.03 12.28 31.95 12.77L31.80 12.62L31.77 12.60Q33.22 13.44 33.41 15.19L33.38 15.16L33.40 15.18Q33.37 15.38 33.18 18.04L33.18 18.04L33.22 18.08Q32.85 20.22 32.62 21.06L32.54 20.98L32.64 21.08Q32.25 22.48 31.49 23.89ZM33.42 26.32L33.39 26.28L33.47 26.36Q34.36 24.06 34.90 19.76L34.91 19.78L34.88 19.74Q35.18 17.57 35.14 16.69L35.09 16.64L35.04 16.59Q35.14 14.86 33.96 13.95L33.93 13.92L33.66 13.84L33.55 13.73Q33.31 13.00 32.40 12.35L32.46 12.41L32.40 12.35Q30.12 11.36 25.32 11.21L25.27 11.16L25.45 11.34Q24.49 11.33 22.05 11.33L21.98 11.26L22.06 11.34Q20.18 11.21 18.70 11.90L18.75 11.95L18.68 11.88Q17.53 12.67 17.61 14.50L17.72 14.61L17.62 14.51Q17.88 15.50 18.07 17.51L18.10 17.54L17.98 17.42Q18.57 20.03 18.84 20.87L19.00 21.04L18.87 20.90Q19.41 22.73 20.36 24.03L20.48 24.15L20.39 24.05Q20.63 24.37 21.01 24.75L21.14 24.88L21.00 24.74Q21.32 25.26 21.97 26.17L21.98 26.18L22.07 26.28Q23.44 27.52 25.38 27.71L25.51 27.84L25.34 27.68Q23.59 30.50 22.03 32.40L21.98 32.35L18.31 36.67L18.30 36.66Q20.60 35.96 22.24 35.61L22.26 35.64L22.21 35.58Q21.40 36.42 19.84 38.13L19.95 38.23L19.96 38.25Q22.96 37.25 26.08 37.21L26.17 37.30L26.17 37.30Q28.49 34.71 32.83 27.47L32.75 27.39L32.81 27.53L32.68 27.41Q33.04 26.77 33.38 26.28ZM27.43 17.08L27.36 17.02L27.42 17.08Q27.94 16.88 28.40 16.99L28.49 17.08L28.42 17.01Q29.06 17.12 29.45 17.24L29.39 17.19L29.41 17.20Q29.67 17.73 29.75 18.15L29.59 17.99L29.76 18.16Q29.68 18.42 29.56 18.80L29.54 18.78L29.62 18.86Q29.63 20.62 28.45 21.73L28.45 21.72L28.38 21.65Q27.35 22.60 25.71 22.57L25.77 22.62L25.83 22.68Q25.31 22.58 23.78 22.27L23.80 22.29L23.95 22.45Q23.71 21.55 23.71 20.83L23.61 20.73L23.69 20.81Q23.47 20.40 23.47 20.17L23.62 20.32L23.63 20.34Q23.62 18.12 25.91 17.32L25.90 17.31L25.77 17.18Q26.52 17.02 27.36 17.02Z"/><path fill="#222" d="M162.04 14.18L162.14 14.27L161.95 14.08Q163.11 18.59 163.26 21.79L163.43 21.96L163.38 21.90Q163.87 21.94 168.24 22.05L168.13 21.94L168.15 21.96Q170.83 22.12 171.21 18.66L171.22 18.67L171.04 18.49Q171.38 16.89 170.47 15.98L170.33 15.84L170.49 16.00Q169.12 15.01 167.14 14.86L167.11 14.82L167.08 14.79Q163.90 14.63 162.04 14.17ZM163.44 23.80L163.40 23.76L163.36 23.71Q163.67 29.85 161.88 35.79L161.80 35.71L161.93 35.84Q160.61 36.08 158.02 37.11L157.99 37.07L158.08 37.16Q160.91 30.67 160.57 23.20L160.48 23.12L160.40 23.04Q160.28 15.87 156.96 9.36L156.85 9.25L156.85 9.25Q161.65 11.99 168.61 11.99L168.61 11.98L168.71 12.08Q174.40 12.14 174.67 15.68L174.69 15.70L174.59 15.61Q174.77 16.32 174.70 16.93L174.62 16.86L174.56 18.01L174.44 17.89Q173.79 22.00 171.66 23.71L171.53 23.58L171.53 23.59Q170.75 24.29 169.73 24.29L169.82 24.39L167.09 24.25L167.06 24.22Q172.65 31.44 177.18 36.01L177.32 36.15L177.18 36.01Q175.01 35.29 172.08 34.95L172.07 34.94L172.22 35.09Q168.45 31.13 163.54 23.90ZM171.94 35.31L172.03 35.39L172.38 35.44L173.54 36.60L173.49 36.55Q174.12 37.14 174.76 37.75L174.80 37.78L174.71 37.70Q178.25 38.30 181.82 40.16L182.01 40.35L181.90 40.24Q175.08 33.61 169.67 26.68L169.59 26.59L171.38 26.64L171.28 26.53Q174.43 26.60 175.76 22.07L175.84 22.15L175.65 21.96Q176.42 19.84 176.42 17.13L176.49 17.20L176.34 17.05Q176.44 14.86 174.72 14.22L174.74 14.23L174.70 14.19Q174.59 13.82 174.02 13.13L173.94 13.06L174.11 13.23Q172.31 11.65 168.66 11.58L168.64 11.56L168.74 11.65Q160.87 11.52 156.19 8.51L156.09 8.41L156.14 8.46Q159.90 15.30 160.24 22.99L160.29 23.05L160.23 22.98Q160.55 30.92 157.43 37.77L157.44 37.78L157.37 37.72Q158.62 37.13 159.42 36.83L159.45 36.86L158.42 39.11L158.52 39.20Q161.20 38.12 163.87 37.62L163.93 37.69L163.86 37.61Q165.18 32.54 165.37 27.33L165.43 27.38L165.37 27.32Q168.86 32.26 172.02 35.38ZM170.73 17.42L170.74 17.43L170.72 17.41Q170.87 17.79 170.87 18.13L170.87 18.13L170.87 18.70L170.77 18.60Q170.76 19.70 170.08 20.65L170.16 20.73L170.09 20.66Q169.44 21.38 168.53 21.57L168.64 21.68L168.60 21.64Q168.26 21.58 166.66 21.61L166.85 21.80L166.81 21.76Q166.19 21.75 165.35 21.63L165.35 21.63L165.29 21.58Q165.27 20.14 164.93 17.10L164.83 17.00L164.86 17.03Q166.31 17.27 167.00 17.27L166.94 17.21L167.08 17.34Q168.89 17.33 170.83 17.52Z"/><path fill="#222" d="M112.65 27.14L103.42 17.14L103.33 17.06Q104.26 20.84 104.26 24.57L104.28 24.60L104.19 24.50Q104.23 30.52 102.17 36.08L102.10 36.01L102.17 36.07Q101.08 36.32 98.83 37.08L98.90 37.15L98.89 37.13Q101.69 31.33 101.69 24.63L101.72 24.66L101.75 24.69Q101.73 16.03 97.24 8.61L97.23 8.60L97.26 8.63Q97.61 8.71 98.30 9.13L98.34 9.18L98.23 9.06Q110.41 20.37 118.25 29.62L118.23 29.60L118.18 29.55Q117.97 27.20 117.97 24.77L117.88 24.68L117.98 24.78Q117.86 17.43 120.37 11.22L120.54 11.39L120.46 11.31Q122.71 10.70 124.31 10.02L124.39 10.10L124.30 10.01Q121.12 16.31 120.81 23.46L120.70 23.35L120.79 23.44Q120.48 30.78 123.45 36.95L123.45 36.95L123.49 36.99Q122.78 36.78 122.36 36.59L122.37 36.59L122.39 36.61Q117.79 32.63 112.58 27.07L112.68 27.17ZM125.99 40.06L125.98 40.05L126.15 40.22Q126.45 40.21 126.86 40.40L127.02 40.56L127.84 40.89L127.85 40.89Q122.56 33.82 122.56 24.45L122.66 24.54L122.71 24.60Q122.56 17.22 125.88 10.98L125.97 11.08L126.04 11.14Q125.37 11.35 123.97 11.96L123.91 11.90L123.86 11.85Q124.32 11.09 125.15 9.53L125.13 9.51L125.21 9.59Q122.67 10.39 120.23 10.96L120.11 10.84L120.12 10.85Q117.67 17.51 117.67 24.93L117.53 24.78L117.56 24.82Q117.63 26.75 117.82 28.73L117.67 28.59L117.67 28.58Q113.10 22.98 108.34 18.37L108.39 18.42L98.25 8.67L98.37 8.78Q97.64 8.33 96.42 7.75L96.41 7.74L96.43 7.76Q101.28 15.46 101.28 24.56L101.33 24.62L101.29 24.57Q101.41 31.81 98.32 37.83L98.27 37.77L98.32 37.83Q98.63 37.71 100.27 37.10L100.30 37.13L100.31 37.15Q99.86 37.80 99.02 39.28L99.04 39.30L99.01 39.28Q100.48 38.88 103.94 38.08L103.89 38.02L103.82 37.96Q106.22 31.90 106.22 24.71L106.23 24.72L106.27 24.75Q106.16 22.55 105.93 20.42L105.87 20.36L105.91 20.40Q117.44 33.26 126.04 40.11Z"/><path fill="#444" d="M79.30 24.57L79.37 24.64L79.41 24.68Q79.34 28.87 78.62 33.02L78.71 33.12L78.72 33.12Q80.99 32.58 84.07 32.46L83.90 32.29L83.89 32.28Q85.34 32.59 86.41 31.58L86.33 31.51L86.36 31.54Q87.52 30.62 87.52 29.29L87.41 29.18L87.45 29.22Q87.37 28.84 87.34 28.57L87.49 28.72L87.32 28.55Q87.21 25.67 84.97 24.83L84.92 24.79L84.99 24.85Q84.26 24.58 83.58 24.66L83.59 24.67L83.60 24.68Q82.43 24.50 81.40 24.54L81.51 24.65L81.46 24.60Q80.39 24.63 79.36 24.63ZM78.15 14.21L78.09 14.15L78.24 14.30Q78.97 17.46 79.24 21.84L79.33 21.93L79.39 22.00Q80.76 22.04 83.43 22.07L83.31 21.96L83.46 22.10Q86.43 22.18 86.77 18.64L86.62 18.49L86.63 18.50Q86.94 16.68 85.53 15.84L85.48 15.78L85.49 15.80Q84.50 15.19 80.08 14.54L80.05 14.51L80.04 14.50Q79.08 14.45 78.16 14.22ZM74.46 37.05L74.50 37.09L74.57 37.16Q77.03 30.49 76.76 23.10L76.72 23.05L76.74 23.08Q76.33 15.66 73.40 9.19L73.57 9.36L73.57 9.36Q77.35 11.89 83.58 12.13L83.43 11.99L83.53 12.09Q89.64 12.22 89.98 15.11L90.10 15.23L90.06 15.19Q90.32 17.88 88.91 20.55L88.98 20.62L89.02 20.66Q88.18 22.06 86.58 22.75L86.57 22.75L86.69 22.86Q90.28 23.48 90.51 28.85L90.54 28.89L90.53 28.87Q90.54 29.91 90.46 31.31L90.59 31.44L90.55 31.40Q90.41 32.64 89.48 33.57L89.51 33.60L89.54 33.62Q88.71 34.66 87.37 34.81L87.36 34.80L87.27 34.71Q85.75 34.75 84.69 34.75L84.78 34.85L84.72 34.79Q79.01 34.79 74.48 37.07ZM87.20 37.30L87.24 37.34L87.19 37.30Q88.19 37.42 90.06 37.54L90.16 37.63L90.16 37.64Q91.48 37.59 92.59 36.71L92.70 36.83L92.64 36.77Q93.49 35.90 93.38 34.34L93.24 34.21L93.39 34.36Q93.19 33.28 92.46 29.82L92.55 29.90L92.55 29.90Q91.86 26.66 89.99 25.17L89.91 25.09L89.59 24.35L89.61 24.37Q91.25 22.93 91.82 19.16L91.70 19.04L91.85 19.18Q92.01 18.05 91.93 16.64L91.93 16.64L91.76 16.47Q91.85 15.30 90.74 14.46L90.76 14.48L90.73 14.45Q90.46 14.29 90.34 14.26L90.27 14.18L90.22 14.13Q90.09 13.74 89.26 12.94L89.16 12.84L89.11 12.80Q87.61 11.75 83.38 11.56L83.47 11.65L83.44 11.61Q76.80 11.33 72.80 8.44L72.78 8.42L72.91 8.55Q76.07 15.44 76.38 22.98L76.49 23.09L76.48 23.08Q76.84 30.94 74.02 37.87L73.90 37.75L76.01 36.85L75.95 36.79Q75.62 37.98 75.12 39.12L75.19 39.19L75.05 39.05Q79.40 37.23 84.42 37.23L84.42 37.23L84.48 37.28Q85.92 37.32 87.37 37.47ZM85.11 26.80L85.10 26.79L85.12 26.81Q85.97 26.87 86.89 27.32L86.88 27.32L86.84 27.28Q86.94 27.60 87.09 28.67L87.14 28.72L86.99 28.57Q87.18 29.93 86.24 30.98L86.29 31.02L86.32 31.05Q85.31 32.02 83.90 31.91L84.01 32.02L82.53 32.14L82.53 32.14Q81.67 32.08 80.95 32.19L81.09 32.33L81.06 32.30Q81.23 30.35 81.31 26.88L81.46 27.04L81.31 26.88Q81.94 26.79 83.20 26.76L83.22 26.78L83.38 26.94Q84.51 26.78 85.12 26.81ZM84.09 17.21L84.21 17.33L84.52 17.27L84.46 17.21Q84.71 17.23 84.90 17.26L84.94 17.30L85.29 17.27L85.73 17.52L86.19 17.45L86.26 17.52Q86.38 17.79 86.38 18.10L86.27 17.99L86.35 18.60L86.39 18.64Q86.30 19.81 85.43 20.74L85.43 20.75L85.44 20.75Q84.56 21.69 83.35 21.69L83.30 21.64L83.43 21.77Q82.39 21.75 82.39 21.75L82.25 21.62L82.32 21.69Q80.92 21.59 81.27 21.59L81.34 21.66L81.31 21.63Q81.29 20.13 80.99 17.08L80.92 17.02L81.00 17.09Q82.60 17.24 84.12 17.24Z"/><path d="M11 24 C110 11,102 15,182 14" stroke="#111" fill="none"/><path d="M17 23 C91 14,96 28,194 36" stroke="#555" fill="none"/><path fill="#333" d="M138.67 14.61L138.70 14.65L138.67 14.62Q136.79 14.83 135.84 14.98L135.87 15.01L135.71 14.85Q134.15 15.16 132.93 15.69L132.96 15.72L132.89 15.65Q129.45 17.16 129.34 21.84L129.38 21.88L129.33 21.84Q129.32 24.56 129.96 27.49L129.83 27.36L129.95 27.48Q130.76 31.45 134.38 32.63L134.43 32.69L134.33 32.58Q136.30 33.22 137.75 33.07L137.64 32.96L138.12 32.99L138.12 32.98Q138.38 33.06 138.57 33.10L138.47 32.99L138.44 32.97Q138.78 33.15 138.93 33.11L138.93 33.11L138.85 33.03Q141.42 32.70 142.79 32.13L142.86 32.20L139.30 28.68L139.34 28.73Q139.63 28.36 140.24 27.75L140.16 27.68L141.08 26.77L141.10 26.79Q142.92 28.84 144.90 30.90L144.83 30.83L144.97 30.97Q147.32 29.16 147.58 23.79L147.43 23.64L147.56 23.77Q147.60 22.82 147.60 21.91L147.68 21.99L147.66 21.97Q147.56 16.20 142.50 15.09L142.47 15.06L142.56 15.15Q141.33 14.91 138.82 14.76ZM151.47 36.70L151.49 36.72L151.39 36.62Q150.85 37.11 149.67 37.99L149.66 37.98L145.28 34.32L145.23 34.27Q142.76 35.50 138.50 35.54L138.64 35.68L138.48 35.52Q132.05 35.75 129.24 33.50L129.17 33.44L129.27 33.53Q127.41 31.68 126.95 28.71L127.02 28.77L127.05 28.81Q126.76 26.92 126.38 23.34L126.39 23.35L126.37 23.33Q126.30 22.54 126.19 20.79L126.36 20.96L126.19 20.79Q126.21 19.40 126.25 18.53L126.13 18.40L126.22 18.50Q126.34 15.46 128.10 13.90L127.94 13.74L128.11 13.91Q129.46 12.41 132.66 11.92L132.83 12.09L132.72 11.97Q135.30 11.70 138.19 11.78L138.21 11.79L138.06 11.65Q145.66 11.86 148.78 14.22L148.68 14.12L148.68 14.12Q150.93 16.33 150.66 21.24L150.61 21.19L150.60 21.18Q150.53 24.95 150.34 26.29L150.23 26.18L150.34 26.29Q149.52 30.60 147.19 32.92L147.35 33.08L147.27 33.00Q148.72 34.22 151.46 36.69ZM146.70 12.52L146.62 12.44L146.55 12.37Q144.70 11.81 138.19 11.31L138.20 11.33L138.14 11.27Q136.82 11.35 134.04 11.47L134.02 11.45L133.92 11.35Q129.68 11.56 127.43 13.54L127.48 13.59L127.54 13.65Q125.80 15.03 125.80 18.19L125.89 18.28L125.86 18.25Q125.91 19.14 126.07 20.85L125.96 20.75L126.05 20.84Q126.02 22.37 126.02 23.25L126.11 23.34L126.13 23.35Q126.36 25.19 126.75 28.77L126.58 28.60L126.66 28.69Q126.92 31.45 128.52 33.51L128.59 33.58L128.66 33.65Q128.92 34.40 130.14 35.55L130.14 35.55L130.13 35.54Q132.94 37.63 138.12 37.89L137.99 37.77L138.06 37.84Q138.47 37.90 140.87 38.02L140.86 38.01L140.79 37.94Q145.60 38.10 147.88 37.04L147.99 37.15L147.91 37.06Q148.86 37.82 153.58 41.40L153.59 41.42L153.47 41.29Q154.05 40.73 155.34 39.74L155.48 39.87L155.37 39.77Q154.55 39.13 153.75 38.45L153.79 38.49L152.01 36.90L152.22 36.96L152.15 36.89Q151.50 36.35 150.28 35.32L150.31 35.35L150.42 35.46Q152.24 32.87 152.24 28.34L152.22 28.32L152.35 28.45Q152.32 28.00 152.36 27.16L152.41 27.22L152.37 27.18Q152.40 26.33 152.40 25.91L152.29 25.80L152.42 25.93Q152.35 20.34 151.63 17.98L151.71 18.06L151.67 18.02Q151.19 16.63 150.32 15.57L150.36 15.61L150.40 15.64Q149.56 13.47 146.63 12.44ZM140.69 17.09L140.54 16.95L140.69 17.09Q144.75 17.00 146.58 18.60L146.44 18.47L146.47 18.50Q147.04 19.71 147.15 21.04L147.31 21.20L147.13 21.02Q147.29 22.36 147.21 23.73L147.22 23.74L147.23 23.75Q146.84 28.65 144.90 30.36L144.91 30.37L144.92 30.38Q143.62 29.08 141.11 26.34L141.06 26.29L141.21 26.45Q140.27 27.02 138.71 28.58L138.82 28.70L138.84 28.72Q139.37 29.29 140.52 30.47L140.52 30.48L140.49 30.56L140.39 30.46Q141.03 31.06 142.06 32.13L142.07 32.14L141.98 32.05Q140.97 32.29 138.64 32.59L138.61 32.56L138.13 32.61L137.80 32.71L137.80 32.74L137.75 32.69Q134.27 32.67 132.29 31.04L132.23 30.98L132.26 31.01Q131.22 28.90 131.25 25.78L131.34 25.87L131.36 25.89Q131.48 17.13 140.65 17.05Z"/></svg>