<svg xmlns="http://www.w3.org/2000/svg" width="200" height="40" viewBox="0,0,200,40"><path fill="#333" d="M25.44 14.64L25.40 14.60L23.87 14.74L23.83 14.70Q21.72 14.96 21.49 16.98L21.38 16.86L21.46 16.95Q21.27 17.55 21.30 18.54L21.45 18.68L21.37 18.60Q21.31 20.44 22.56 21.78L22.57 21.79L22.66 21.88Q23.95 23.24 25.85 23.09L25.80 23.03L25.77 23.01Q27.95 22.98 28.71 22.06L28.72 22.08L28.62 21.97Q29.62 20.99 29.89 18.75L29.97 18.83L29.87 18.73Q30.25 16.60 29.00 15.76L29.03 15.80L28.91 15.67Q28.00 14.84 25.34 14.54ZM31.46 23.86L31.53 23.93L30.21 26.19L30.19 26.17Q27.49 30.97 23.72 35.04L23.69 35.01L23.66 34.98Q22.17 35.28 19.46 36.08L19.44 36.05L19.45 36.06Q24.75 29.75 27.91 24.95L27.84 24.88L27.94 24.98Q26.77 25.49 25.13 25.56L25.26 25.69L25.27 25.71Q22.12 25.71 20.60 23.74L20.68 23.82L20.68 23.82Q19.55 22.31 18.45 17.74L18.28 17.57L18.30 17.59Q18.45 17.28 18.30 16.35L18.15 16.20L18.24 16.29Q18.06 15.33 18.06 14.87L17.99 14.80L17.96 14.78Q18.07 13.10 19.14 12.49L19.17 12.52L19.01 12.36Q20.26 11.64 22.13 11.64L22.12 11.62L22.11 11.62Q25.30 11.61 25.30 11.61L25.38 11.69L25.35 11.66Q27.63 11.81 28.89 12.00L28.73 11.84L28.75 11.86Q30.87 12.11 31.78 12.61L31.79 12.62L31.80 12.62Q33.14 13.36 33.33 15.11L33.47 15.25L33.49 15.27Q33.38 15.38 33.19 18.05L33.18 18.04L33.17 18.03Q32.93 20.31 32.70 21.14L32.72 21.16L32.57 21.01Q32.20 22.43 31.44 23.84ZM33.32 26.21L33.48 26.37L33.45 26.34Q34.38 24.07 34.91 19.77L34.92 19.79L34.87 19.73Q35.25 17.64 35.21 16.76L35.18 16.73L35.08 16.63Q35.09 14.81 33.91 13.90L33.90 13.89L33.70 13.88L33.68 13.86Q33.44 13.13 32.53 12.48L32.44 12.39L32.37 12.32Q30.20 11.45 25.40 11.29L25.40 11.29L25.28 11.17Q24.41 11.25 21.97 11.25L22.05 11.33L21.88 11.16Q20.15 11.17 18.66 11.86L18.74 11.94L18.80 12.00Q17.64 12.78 17.72 14.61L17.64 14.53L17.73 14.62Q17.83 15.44 18.02 17.46L17.98 17.43L18.05 17.49Q18.59 20.05 18.86 20.89L18.88 20.91L18.85 20.88Q19.58 22.91 20.53 24.20L20.43 24.10L20.47 24.13Q20.80 24.54 21.18 24.93L21.06 24.81L21.00 24.75Q21.28 25.22 21.93 26.13L21.91 26.11L22.04 26.24Q23.51 27.60 25.45 27.79L25.43 27.76L25.44 27.77Q23.53 30.44 21.97 32.34L21.98 32.35L18.31 36.67L18.32 36.68Q20.53 35.88 22.16 35.54L22.14 35.52L22.22 35.60Q21.50 36.51 19.94 38.23L19.91 38.20L19.98 38.26Q22.91 37.20 26.03 37.16L26.07 37.20L26.22 37.35Q28.45 34.67 32.79 27.44L32.86 27.51L32.76 27.48L32.69 27.41Q33.07 26.80 33.41 26.31ZM27.35 17.01L27.32 16.98L27.42 17.08Q28.06 17.00 28.52 17.11L28.37 16.96L28.54 17.13Q29.16 17.22 29.54 17.34L29.42 17.21L29.47 17.26Q29.68 17.74 29.75 18.16L29.67 18.08L29.59 17.99Q29.66 18.40 29.54 18.78L29.67 18.91L29.60 18.84Q29.51 20.50 28.33 21.60L28.38 21.66L28.46 21.73Q27.38 22.63 25.74 22.59L25.86 22.71L25.90 22.76Q25.42 22.70 23.90 22.39L23.94 22.43L23.79 22.28Q23.72 21.56 23.72 20.84L23.63 20.75L23.69 20.81Q23.60 20.53 23.60 20.30L23.55 20.25L23.59 20.29Q23.51 18.01 25.80 17.21L25.78 17.19L25.75 17.16Q26.55 17.05 27.39 17.05Z"/><path fill="#333" d="M141.05 27.25L131.71 17.15L131.79 17.24Q132.63 20.93 132.63 24.66L132.51 24.54L132.56 24.58Q132.62 30.62 130.56 36.18L130.48 36.10L130.40 36.02Q129.34 36.29 127.09 37.05L127.08 37.04L127.08 37.04Q130.02 31.38 130.02 24.68L130.04 24.69L130.03 24.69Q129.99 16.01 125.50 8.58L125.49 8.57L125.49 8.57Q125.94 8.75 126.62 9.17L126.69 9.24L126.58 9.13Q138.74 20.41 146.58 29.66L146.64 29.72L146.52 29.60Q146.23 27.18 146.23 24.74L146.16 24.67L146.19 24.70Q146.33 17.62 148.85 11.41L148.84 11.40L148.82 11.39Q151.14 10.85 152.74 10.16L152.72 10.14L152.72 10.14Q149.42 16.32 149.11 23.48L149.02 23.39L149.03 23.39Q148.84 30.86 151.81 37.02L151.75 36.97L151.64 36.86Q151.07 36.78 150.65 36.59L150.68 36.62L150.73 36.67Q146.11 32.66 140.89 27.10L140.94 27.14ZM154.45 40.24L154.28 40.07L154.43 40.22Q154.75 40.23 155.17 40.43L155.30 40.55L156.09 40.85L156.12 40.88Q150.86 33.83 150.86 24.46L150.96 24.57L150.84 24.44Q150.95 17.32 154.26 11.08L154.24 11.05L154.20 11.02Q153.60 11.29 152.19 11.90L152.09 11.80L152.09 11.80Q152.61 11.10 153.45 9.54L153.39 9.48L153.40 9.49Q150.89 10.33 148.45 10.90L148.53 10.98L148.53 10.98Q145.80 17.35 145.80 24.77L145.84 24.81L145.79 24.76Q145.83 26.67 146.02 28.65L146.15 28.78L146.13 28.75Q141.51 23.11 136.75 18.50L136.69 18.44L126.63 8.76L126.48 8.61Q125.94 8.34 124.72 7.76L124.71 7.76L124.69 7.73Q129.61 15.50 129.61 24.60L129.61 24.61L129.62 24.62Q129.71 31.82 126.62 37.84L126.54 37.76L126.66 37.88Q126.89 37.69 128.53 37.08L128.49 37.04L128.55 37.10Q128.13 37.79 127.30 39.27L127.29 39.27L127.32 39.30Q128.71 38.83 132.18 38.03L132.20 38.05L132.26 38.11Q134.43 31.83 134.43 24.63L134.48 24.68L134.48 24.69Q134.52 22.62 134.29 20.49L134.16 20.36L134.22 20.43Q145.82 33.36 154.43 40.21Z"/><path d="M4 27 C104 6,84 32,193 29" stroke="#666" fill="none"/><path fill="#444" d="M79.95 21.91L79.95 21.90L79.81 21.77Q81.62 21.94 83.45 21.94L83.53 22.02L83.53 22.02Q85.24 21.95 87.07 21.79L87.08 21.81L87.17 21.89Q87.04 22.53 87.04 23.25L86.99 23.20L86.95 24.49L86.99 24.53Q84.55 24.45 79.79 24.57L79.94 24.71L79.78 24.55Q79.93 30.65 78.79 35.63L78.69 35.53L78.71 35.55Q76.45 36.19 74.97 36.99L74.99 37.01L75.00 37.02Q77.42 30.30 77.15 23.18L77.19 23.22L77.07 23.10Q76.88 16.02 74.21 9.36L74.14 9.29L74.07 9.21Q77.92 11.92 82.68 12.15L82.70 12.17L82.52 11.99Q87.21 12.19 91.36 10.44L91.37 10.44L91.49 10.56Q91.12 11.30 90.89 12.10L90.82 12.03L90.33 13.63L90.51 13.81Q87.70 14.81 84.73 14.97L84.66 14.89L84.82 15.05Q81.74 15.06 78.89 14.34L79.01 14.45L78.94 14.39Q79.63 17.78 79.82 21.77ZM92.00 9.75L92.05 9.79L92.03 9.78Q87.48 11.96 82.61 11.66L82.48 11.53L82.56 11.61Q77.18 11.26 73.45 8.40L73.50 8.45L73.52 8.47Q76.41 15.44 76.72 23.05L76.68 23.01L76.63 22.97Q76.96 30.91 74.45 37.69L74.54 37.78L74.60 37.84Q75.16 37.33 76.53 36.69L76.49 36.65L76.64 36.80Q76.43 37.53 75.86 39.06L75.80 39.00L75.74 38.94Q78.03 37.84 80.92 37.34L81.04 37.46L81.02 37.45Q81.70 32.64 81.89 26.93L81.76 26.80L81.86 26.91Q83.57 26.78 85.40 26.78L85.36 26.75L85.44 26.83Q87.31 26.91 89.14 27.10L89.02 26.98L89.00 26.96Q88.97 26.09 88.97 25.18L88.89 25.10L88.84 23.14L88.84 23.15Q88.09 23.27 87.25 23.27L87.33 23.35L87.43 23.45Q87.32 22.46 87.39 21.43L87.48 21.52L87.35 21.38Q86.08 21.68 84.67 21.68L84.65 21.66L84.60 21.61Q83.15 21.56 81.78 21.53L81.85 21.60L81.76 19.38L81.79 19.40Q81.81 18.37 81.70 17.30L81.64 17.24L81.62 17.22Q82.58 17.27 83.57 17.27L83.59 17.28L83.50 17.20Q88.38 17.32 92.00 15.42L91.94 15.35L92.03 15.45Q92.53 13.63 93.44 11.00L93.31 10.86L93.43 10.98Q92.18 11.87 91.38 12.21L91.33 12.15L91.34 12.17Q91.49 11.29 91.99 9.73Z"/><path fill="#111" d="M168.37 35.06L168.43 35.12L166.35 35.33L166.29 35.27Q165.84 35.28 164.87 35.34L164.99 35.45L164.84 35.31Q163.94 35.43 163.45 35.43L163.33 35.32L163.38 35.36Q161.83 35.45 160.80 34.61L160.75 34.56L160.70 34.51Q161.49 33.40 163.13 31.27L163.26 31.40L163.29 31.43Q164.44 32.89 166.65 32.66L166.72 32.72L166.77 32.77Q167.52 32.50 168.17 31.85L168.17 31.85L168.32 32.01Q168.80 31.19 168.69 30.32L168.81 30.44L168.84 30.47Q168.63 25.77 168.71 21.20L168.82 21.32L168.68 21.18Q168.73 16.58 169.26 11.97L169.38 12.09L169.35 12.06Q171.23 11.81 173.37 10.78L173.38 10.80L173.46 10.87Q171.59 17.61 171.59 24.84L171.47 24.72L171.49 24.74Q171.51 28.31 171.97 31.81L172.04 31.88L172.01 31.85Q171.95 32.06 171.95 32.40L172.13 32.58L172.10 32.55Q172.11 33.14 171.89 33.67L171.79 33.57L171.71 33.49Q171.24 34.85 168.43 35.12ZM173.39 37.99L173.43 38.03L173.67 37.93L173.90 37.74L174.24 37.70L174.32 37.78Q174.51 37.40 174.59 37.29L174.53 37.22L174.70 37.40Q174.81 36.14 174.54 35.15L174.57 35.17L174.47 35.07Q173.20 29.35 173.46 22.99L173.47 22.99L173.42 22.94Q173.67 16.84 175.46 10.94L175.52 11.00L175.59 11.07Q174.58 11.58 173.33 12.31L173.36 12.34L173.39 12.37Q173.62 11.64 174.04 10.12L173.91 9.99L174.03 10.12Q171.40 11.34 168.74 11.64L168.72 11.62L168.71 11.61Q168.38 16.04 168.30 20.98L168.43 21.12L168.32 21.01Q168.36 27.02 168.43 30.44L168.30 30.31L168.31 30.32Q168.34 32.07 166.59 32.22L166.74 32.36L166.63 32.26Q164.91 32.36 163.23 30.72L163.34 30.83L163.27 30.76Q161.24 33.30 160.29 34.86L160.31 34.88L160.25 34.82Q160.85 35.42 161.87 35.65L162.00 35.77L161.90 35.67Q161.84 35.84 161.57 36.07L161.54 36.04L161.58 36.08Q163.03 37.03 165.01 37.30L165.01 37.30L165.05 37.34Q165.39 37.33 168.68 37.64L168.73 37.69L168.61 37.57Q171.92 37.89 173.29 37.89Z"/><path fill="#333" d="M48.98 14.26L48.92 14.19L48.96 14.24Q50.07 18.70 50.22 21.90L50.15 21.82L50.11 21.78Q50.59 21.80 54.97 21.92L55.01 21.96L55.06 22.01Q57.71 22.15 58.09 18.68L58.10 18.69L57.94 18.53Q58.14 16.79 57.23 15.88L57.37 16.02L57.22 15.87Q55.98 15.01 54.00 14.86L54.05 14.90L54.09 14.95Q50.85 14.71 48.98 14.26ZM50.31 23.81L50.34 23.84L50.30 23.80Q50.56 29.88 48.77 35.82L48.78 35.83L48.75 35.80Q47.36 35.97 44.77 37.00L44.96 37.18L44.88 37.11Q47.76 30.66 47.42 23.20L47.38 23.16L47.29 23.07Q47.13 15.87 43.82 9.36L43.66 9.20L43.75 9.29Q48.62 12.11 55.59 12.11L55.52 12.04L55.59 12.11Q61.28 12.16 61.54 15.70L61.40 15.56L61.37 15.53Q61.49 16.18 61.42 16.79L61.48 16.85L61.47 18.07L61.36 17.95Q60.62 21.98 58.49 23.69L58.41 23.61L58.49 23.69Q57.70 24.38 56.67 24.38L56.65 24.36L54.05 24.35L54.06 24.36Q59.70 31.63 64.23 36.20L64.13 36.11L64.10 36.08Q61.96 35.39 59.03 35.04L58.93 34.94L59.03 35.04Q55.28 31.10 50.37 23.86ZM58.94 35.44L58.86 35.37L59.14 35.34L60.51 36.71L60.43 36.63Q60.96 37.12 61.61 37.73L61.60 37.72L61.56 37.69Q65.28 38.47 68.85 40.34L68.87 40.35L68.77 40.25Q61.77 33.44 56.37 26.51L56.43 26.58L58.14 26.53L58.16 26.56Q61.28 26.59 62.61 22.06L62.63 22.08L62.60 22.05Q63.27 19.83 63.27 17.12L63.33 17.18L63.39 17.24Q63.32 14.89 61.60 14.24L61.62 14.26L61.61 14.25Q61.42 13.79 60.85 13.11L60.92 13.18L60.93 13.19Q59.13 11.62 55.48 11.54L55.52 11.58L55.47 11.53Q47.64 11.43 42.95 8.42L43.02 8.49L43.05 8.51Q46.71 15.26 47.06 22.95L47.05 22.95L47.07 22.97Q47.38 30.89 44.26 37.74L44.32 37.80L44.27 37.76Q45.57 37.23 46.37 36.92L46.42 36.97L45.36 39.18L45.30 39.12Q48.01 38.06 50.67 37.57L50.73 37.63L50.83 37.73Q52.00 32.50 52.19 27.28L52.21 27.31L52.24 27.33Q55.69 32.23 58.85 35.35ZM57.60 17.43L57.54 17.37L57.68 17.51Q57.59 17.65 57.59 17.99L57.74 18.14L57.72 18.69L57.74 18.71Q57.66 19.73 56.97 20.68L56.94 20.66L56.98 20.69Q56.27 21.36 55.36 21.55L55.53 21.72L55.37 21.56Q55.19 21.64 53.59 21.68L53.62 21.72L53.62 21.71Q53.13 21.83 52.29 21.72L52.21 21.63L52.14 21.56Q52.01 20.02 51.66 16.98L51.75 17.07L51.69 17.00Q53.17 17.27 53.86 17.27L53.83 17.24L53.82 17.23Q55.61 17.19 57.55 17.38Z"/><path d="M7 10 C86 5,98 38,184 17" stroke="#777" fill="none"/><path fill="#444" d="M107.61 24.59L107.63 24.61L107.61 24.59Q107.72 28.96 106.99 33.11L107.01 33.13L106.94 33.06Q109.20 32.50 112.28 32.39L112.20 32.30L112.27 32.38Q113.57 32.54 114.64 31.53L114.66 31.55L114.63 31.52Q115.68 30.50 115.68 29.16L115.67 29.15L115.78 29.27Q115.78 28.95 115.74 28.69L115.76 28.71L115.77 28.72Q115.57 25.74 113.32 24.90L113.32 24.90L113.37 24.94Q112.61 24.65 111.93 24.73L111.80 24.60L111.88 24.68Q110.72 24.51 109.69 24.55L109.73 24.58L109.76 24.61Q108.79 24.74 107.76 24.74ZM106.50 14.27L106.52 14.29L106.35 14.12Q107.41 17.62 107.68 22.00L107.50 21.82L107.63 21.95Q109.09 22.08 111.76 22.12L111.70 22.06L111.74 22.10Q114.69 22.16 115.03 18.62L115.06 18.64L115.02 18.60Q115.19 16.64 113.78 15.80L113.71 15.73L113.78 15.80Q112.81 15.22 108.40 14.57L108.47 14.65L108.44 14.61Q107.28 14.37 106.37 14.14ZM102.80 37.11L102.80 37.10L102.74 37.04Q105.24 30.41 104.97 23.02L104.96 23.01L105.04 23.08Q104.73 15.77 101.80 9.30L101.76 9.26L101.68 9.18Q105.53 11.78 111.75 12.03L111.84 12.11L111.80 12.08Q117.96 12.25 118.30 15.15L118.43 15.28L118.39 15.24Q118.77 18.05 117.36 20.72L117.22 20.58L117.22 20.57Q116.48 22.08 114.88 22.77L114.86 22.75L114.99 22.87Q118.68 23.60 118.91 28.96L118.86 28.92L118.80 28.85Q118.83 29.91 118.75 31.32L118.75 31.32L118.89 31.46Q118.68 32.62 117.75 33.55L117.87 33.67L117.90 33.70Q116.90 34.57 115.57 34.73L115.58 34.73L115.62 34.77Q114.18 34.90 113.11 34.90L113.11 34.89L112.98 34.76Q107.30 34.79 102.77 37.07ZM115.55 37.37L115.61 37.43L115.68 37.50Q116.62 37.56 118.48 37.67L118.38 37.58L118.47 37.67Q119.86 37.68 120.96 36.80L120.86 36.71L120.98 36.83Q121.80 35.93 121.68 34.37L121.69 34.37L121.50 34.18Q121.57 33.38 120.85 29.92L120.88 29.94L120.80 29.87Q120.10 26.61 118.23 25.13L118.31 25.21L117.85 24.33L117.82 24.29Q119.51 22.90 120.08 19.13L119.97 19.03L120.04 19.09Q120.30 18.06 120.23 16.65L120.06 16.49L120.16 16.59Q120.16 15.33 119.05 14.49L119.00 14.43L119.07 14.51Q118.65 14.20 118.54 14.16L118.48 14.11L118.61 14.24Q118.37 13.73 117.53 12.93L117.43 12.83L117.52 12.92Q115.88 11.73 111.65 11.54L111.82 11.71L111.75 11.64Q105.07 11.32 101.08 8.43L101.19 8.54L101.02 8.37Q104.42 15.50 104.73 23.04L104.60 22.91L104.61 22.93Q105.13 30.95 102.31 37.88L102.32 37.88L104.26 36.81L104.26 36.82Q103.91 37.99 103.41 39.13L103.40 39.11L103.40 39.11Q107.70 37.25 112.73 37.25L112.68 37.20L112.76 37.28Q114.03 37.15 115.48 37.30ZM113.39 26.79L113.43 26.83L113.36 26.77Q114.09 26.70 115.00 27.15L115.08 27.23L115.03 27.18Q115.14 27.51 115.29 28.58L115.28 28.57L115.35 28.64Q115.51 29.98 114.57 31.02L114.60 31.05L114.69 31.14Q113.75 32.18 112.34 32.07L112.18 31.91L110.79 32.12L110.71 32.04Q109.94 32.06 109.22 32.18L109.21 32.17L109.26 32.22Q109.52 30.35 109.59 26.88L109.74 27.03L109.60 26.88Q110.38 26.95 111.64 26.91L111.67 26.94L111.60 26.87Q112.82 26.79 113.43 26.83ZM112.52 17.35L112.35 17.19L112.81 17.26L112.79 17.25Q113.02 17.25 113.21 17.28L113.15 17.23L113.68 17.38L113.90 17.41L114.64 17.61L114.58 17.56Q114.70 17.82 114.70 18.13L114.68 18.11L114.70 18.66L114.60 18.56Q114.57 19.79 113.70 20.73L113.85 20.88L113.68 20.71Q112.95 21.79 111.73 21.79L111.75 21.81L111.69 21.74Q110.66 21.75 110.66 21.75L110.65 21.74L110.69 21.77Q109.30 21.68 109.65 21.68L109.56 21.60L109.59 21.62Q109.57 20.12 109.27 17.08L109.32 17.13L109.29 17.10Q110.83 17.19 112.35 17.19Z"/></svg>