<svg xmlns="http://www.w3.org/2000/svg" width="200" height="40" viewBox="0,0,200,40"><path fill="#222" d="M84.97 34.94L84.85 34.82L84.92 34.89Q82.87 34.75 80.86 34.94L80.99 35.07L80.93 35.01Q81.54 29.72 81.54 24.88L81.56 24.90L81.54 24.88Q81.54 19.97 80.89 14.76L80.99 14.86L80.95 14.82Q76.27 14.33 73.08 12.65L73.10 12.68L72.37 10.92L72.40 10.95Q72.30 10.55 71.69 9.33L71.72 9.36L71.69 9.33Q76.79 12.03 82.80 12.22L82.63 12.05L82.64 12.05Q88.56 12.26 94.00 10.20L93.99 10.20L93.96 10.16Q93.37 11.71 92.73 13.53L92.66 13.47L92.64 13.45Q88.99 14.71 84.73 14.90L84.86 15.03L84.73 14.90Q84.58 19.97 84.58 24.92L84.55 24.89L84.47 24.81Q84.56 29.85 84.87 34.84ZM94.76 9.60L94.68 9.51L94.71 9.55Q88.90 11.84 82.69 11.65L82.76 11.72L82.74 11.70Q76.07 11.50 70.97 8.53L70.95 8.51L70.89 8.45Q71.72 9.81 73.02 13.09L72.90 12.97L73.06 13.13Q73.62 13.35 74.87 13.92L74.95 13.99L74.96 14.00Q75.17 14.67 75.52 16.20L75.39 16.07L75.39 16.07Q77.76 16.99 80.80 17.22L80.72 17.14L80.86 17.28Q81.23 20.96 81.23 24.73L81.09 24.59L81.27 24.77Q81.25 30.11 80.45 35.48L80.32 35.36L80.32 35.35Q82.14 35.39 82.68 35.39L82.55 35.26L82.60 35.32Q82.65 35.66 82.59 36.33L82.46 36.20L82.58 36.32Q82.39 36.85 82.39 37.20L82.51 37.31L82.40 37.21Q83.70 37.25 85.22 37.33L85.27 37.38L85.20 37.30Q86.03 37.26 87.86 37.41L88.01 37.56L87.86 37.41Q86.77 32.62 86.65 27.45L86.52 27.32L86.67 27.47Q86.45 22.07 86.99 17.16L86.95 17.13L87.04 17.21Q90.91 16.59 94.07 15.37L94.13 15.44L94.14 15.44Q94.85 13.07 95.88 11.02L95.84 10.98L95.87 11.00Q94.37 11.53 93.57 11.83L93.64 11.90L93.59 11.85Q94.10 10.64 94.67 9.50Z"/><path fill="#333" d="M164.04 14.34L164.13 14.44L163.97 14.27Q164.87 18.56 165.02 22.14L165.09 22.20L164.96 22.08Q166.17 22.26 167.24 22.26L167.23 22.26L169.42 22.23L169.52 22.34Q170.40 22.16 171.28 20.75L171.26 20.72L171.35 20.82Q171.98 19.54 172.09 18.36L172.23 18.50L172.26 18.53Q172.48 15.36 168.25 14.86L168.32 14.93L168.34 14.95Q166.59 14.84 163.96 14.27ZM165.00 24.86L165.10 24.96L165.15 25.01Q165.10 31.24 163.96 35.66L163.84 35.54L163.86 35.56Q162.52 36.09 160.20 37.15L160.07 37.03L160.14 37.09Q162.43 30.36 162.16 23.08L162.10 23.03L162.13 23.06Q161.88 15.73 159.11 9.30L159.08 9.27L159.14 9.33Q163.20 12.02 169.44 12.02L169.44 12.02L169.50 12.08Q175.63 12.15 175.78 15.62L175.68 15.52L175.66 15.49Q175.78 17.97 174.79 20.64L174.76 20.61L174.83 20.68Q174.33 21.71 173.38 22.92L173.37 22.91L173.39 22.93Q172.20 24.68 169.65 24.94L169.56 24.85L169.66 24.95Q167.29 24.87 165.05 24.91ZM171.13 27.11L171.27 27.25L171.20 27.17Q175.28 27.33 176.54 22.54L176.72 22.72L176.65 22.65Q177.48 18.88 177.33 16.86L177.41 16.94L177.48 17.01Q177.38 15.51 176.62 14.52L176.55 14.44L176.46 14.36Q176.27 14.17 175.78 13.94L175.79 13.95L175.66 13.82Q175.71 13.72 175.10 12.95L175.09 12.94L175.16 13.01Q173.62 11.70 169.66 11.70L169.54 11.59L169.56 11.60Q162.62 11.55 158.39 8.39L158.45 8.45L158.42 8.42Q161.62 15.54 161.89 23.01L161.97 23.09L161.84 22.96Q162.22 30.72 159.56 37.80L159.51 37.76L159.52 37.77Q160.58 37.11 161.57 36.73L161.50 36.66L161.27 37.96L161.15 37.83Q161.09 38.54 160.83 39.11L160.79 39.07L160.77 39.05Q163.13 37.95 166.02 37.42L166.15 37.55L166.04 37.43Q166.95 31.99 167.03 27.27L167.07 27.31L166.98 27.22Q168.00 27.07 168.99 27.07L169.08 27.15L169.10 27.17Q170.50 27.24 171.30 27.28ZM170.37 17.36L170.28 17.28L170.29 17.28Q170.82 17.32 171.81 17.55L171.85 17.59L171.81 17.54Q171.94 17.79 171.97 18.09L171.84 17.95L171.94 18.06Q171.92 18.27 171.85 18.54L171.82 18.50L171.89 18.58Q171.69 19.71 170.97 20.59L171.11 20.73L171.12 20.74Q170.43 21.69 169.41 21.88L169.49 21.97L169.47 21.94Q168.60 21.80 166.97 21.80L166.98 21.82L167.08 21.91Q166.98 19.56 166.75 17.20L166.80 17.26L168.61 17.39L168.48 17.26Q169.43 17.37 170.31 17.30Z"/><path fill="#333" d="M53.71 35.11L53.85 35.25L51.39 28.33L51.34 28.28Q46.96 15.68 41.03 9.29L41.01 9.27L40.98 9.25Q43.15 10.46 45.74 11.07L45.59 10.92L45.72 11.06Q50.73 17.21 55.07 29.96L55.24 30.13L55.11 29.99Q58.19 21.93 58.88 20.33L58.85 20.30L58.91 20.36Q61.33 14.78 64.15 11.47L64.02 11.34L64.15 11.47Q66.07 10.96 68.70 10.08L68.74 10.12L68.84 10.23Q64.14 14.70 61.09 21.93L61.08 21.92L61.10 21.94Q59.72 25.62 56.03 35.14L56.00 35.11L56.13 35.25Q55.55 35.24 54.98 35.20L55.00 35.21L54.94 35.15Q54.28 35.07 53.71 35.11ZM58.85 37.65L58.77 37.58L58.74 37.55Q61.51 27.52 63.07 23.49L63.18 23.60L63.16 23.58Q66.21 15.93 70.63 11.06L70.50 10.94L70.49 10.93Q69.51 11.36 67.42 12.08L67.48 12.14L68.60 10.78L68.59 10.77Q69.12 10.05 69.73 9.40L69.72 9.39L69.79 9.47Q66.90 10.38 63.89 10.95L63.96 11.02L63.93 10.99Q59.64 16.41 55.76 27.86L55.78 27.89L55.72 27.82Q52.08 17.72 48.89 13.34L48.89 13.35L48.83 13.29Q48.37 13.13 47.49 12.98L47.56 13.04L47.51 12.99Q47.42 12.76 45.83 10.70L45.81 10.68L45.84 10.72Q42.80 9.92 40.10 8.52L40.01 8.42L40.02 8.44Q46.73 15.61 51.11 28.40L51.04 28.32L51.10 28.39Q52.25 31.97 53.43 35.55L53.54 35.66L53.52 35.64Q53.81 35.63 54.65 35.52L54.78 35.65L54.66 35.53Q54.97 36.18 55.66 37.51L55.83 37.69L55.80 37.66Q56.65 37.59 57.38 37.67L57.27 37.56L57.32 37.62Q58.05 37.62 58.81 37.62Z"/><path fill="#222" d="M25.51 14.71L25.40 14.60L23.82 14.70L23.90 14.77Q21.68 14.92 21.45 16.93L21.35 16.83L21.45 16.93Q21.38 17.67 21.42 18.66L21.43 18.67L21.31 18.54Q21.36 20.50 22.61 21.83L22.62 21.83L22.64 21.86Q23.95 23.24 25.86 23.09L25.81 23.04L25.76 22.99Q27.89 22.92 28.65 22.00L28.62 21.97L28.68 22.03Q29.70 21.08 29.97 18.83L29.96 18.82L29.92 18.78Q30.21 16.55 28.95 15.71L28.90 15.66L29.06 15.83Q28.01 14.85 25.34 14.55ZM31.47 23.87L31.55 23.95L30.28 26.25L30.23 26.21Q27.47 30.95 23.70 35.02L23.68 35.00L23.64 34.96Q22.13 35.23 19.42 36.03L19.35 35.96L19.41 36.02Q24.64 29.64 27.80 24.84L27.81 24.86L27.90 24.95Q26.90 25.62 25.26 25.70L25.25 25.68L25.16 25.59Q22.14 25.74 20.62 23.76L20.59 23.72L20.76 23.90Q19.51 22.26 18.40 17.69L18.27 17.56L18.34 17.63Q18.36 17.19 18.20 16.26L18.19 16.24L18.29 16.35Q18.01 15.29 18.01 14.83L18.09 14.91L18.09 14.91Q18.13 13.16 19.20 12.55L19.02 12.37L19.07 12.42Q20.30 11.68 22.17 11.68L22.20 11.71L22.26 11.76Q25.38 11.69 25.38 11.69L25.42 11.73L25.38 11.69Q27.47 11.64 28.72 11.83L28.82 11.93L28.81 11.92Q30.99 12.23 31.90 12.73L31.89 12.71L31.80 12.63Q33.27 13.49 33.46 15.24L33.37 15.15L33.51 15.28Q33.45 15.45 33.26 18.12L33.26 18.12L33.32 18.18Q32.83 20.20 32.60 21.04L32.64 21.08L32.64 21.08Q32.28 22.51 31.52 23.92ZM33.36 26.25L33.32 26.22L33.40 26.30Q34.28 23.98 34.81 19.68L34.85 19.71L34.96 19.82Q35.14 17.53 35.10 16.65L35.22 16.77L35.08 16.63Q35.18 14.90 34.00 13.99L33.88 13.87L33.53 13.70L33.55 13.73Q33.40 13.08 32.49 12.44L32.48 12.43L32.45 12.40Q30.10 11.34 25.30 11.19L25.33 11.22L25.33 11.22Q24.34 11.18 21.90 11.18L22.05 11.32L21.98 11.25Q20.29 11.32 18.81 12.01L18.73 11.93L18.65 11.85Q17.56 12.70 17.64 14.53L17.64 14.54L17.74 14.63Q17.94 15.56 18.13 17.57L18.03 17.47L18.13 17.57Q18.69 20.15 18.96 20.99L18.87 20.90L19.01 21.04Q19.57 22.90 20.52 24.19L20.39 24.06L20.51 24.18Q20.63 24.38 21.01 24.76L21.11 24.86L21.01 24.75Q21.45 25.38 22.09 26.30L21.93 26.13L22.07 26.27Q23.52 27.61 25.46 27.80L25.40 27.73L25.40 27.73Q23.63 30.53 22.07 32.43L21.93 32.29L18.29 36.65L18.37 36.74Q20.60 35.96 22.24 35.61L22.29 35.67L22.27 35.64Q21.45 36.46 19.89 38.18L19.82 38.11L19.99 38.28Q23.07 37.36 26.19 37.32L26.21 37.34L26.10 37.23Q28.51 34.73 32.85 27.50L32.71 27.35L32.87 27.59L32.87 27.59Q33.03 26.76 33.37 26.26ZM27.28 16.94L27.41 17.07L27.38 17.04Q28.06 16.99 28.52 17.11L28.48 17.07L28.37 16.96Q29.16 17.22 29.54 17.33L29.41 17.20L29.56 17.35Q29.61 17.67 29.69 18.09L29.67 18.07L29.56 17.97Q29.66 18.40 29.54 18.78L29.71 18.95L29.54 18.78Q29.53 20.52 28.35 21.62L28.43 21.70L28.43 21.70Q27.37 22.62 25.73 22.58L25.77 22.62L25.78 22.63Q25.38 22.65 23.86 22.35L23.83 22.32L23.83 22.32Q23.73 21.57 23.73 20.85L23.65 20.77L23.60 20.72Q23.59 20.52 23.59 20.29L23.51 20.21L23.52 20.23Q23.63 18.12 25.91 17.32L25.84 17.24L25.77 17.18Q26.62 17.11 27.45 17.11Z"/><path fill="#444" d="M135.90 24.60L135.90 24.59L135.93 24.63Q136.01 28.97 135.29 33.12L135.20 33.04L135.29 33.12Q137.55 32.57 140.63 32.45L140.51 32.33L140.59 32.41Q141.80 32.48 142.87 31.47L143.02 31.63L142.88 31.48Q144.08 30.61 144.08 29.28L143.92 29.11L144.00 29.19Q143.97 28.87 143.94 28.60L144.01 28.68L143.91 28.57Q143.76 25.65 141.52 24.81L141.53 24.82L141.53 24.82Q140.83 24.58 140.14 24.65L140.12 24.63L140.19 24.70Q139.16 24.66 138.13 24.70L138.00 24.56L137.97 24.53Q136.88 24.55 135.85 24.55ZM134.72 14.21L134.75 14.24L134.72 14.21Q135.66 17.58 135.93 21.96L135.79 21.82L135.94 21.98Q137.40 22.10 140.07 22.14L140.08 22.15L140.04 22.11Q142.86 22.04 143.20 18.50L143.24 18.54L143.32 18.62Q143.53 16.69 142.12 15.86L142.04 15.78L142.09 15.83Q141.16 15.28 136.74 14.63L136.74 14.62L136.74 14.63Q135.60 14.40 134.68 14.17ZM131.09 37.11L131.06 37.08L131.16 37.18Q133.62 30.51 133.36 23.12L133.24 23.00L133.30 23.07Q133.00 15.76 130.07 9.29L130.05 9.27L130.13 9.35Q133.92 11.88 140.15 12.13L140.09 12.08L140.07 12.06Q146.32 12.33 146.66 15.22L146.69 15.25L146.58 15.14Q147.07 18.07 145.67 20.73L145.48 20.55L145.53 20.60Q144.75 22.06 143.15 22.75L143.15 22.75L143.14 22.74Q146.95 23.58 147.18 28.95L147.10 28.87L147.16 28.93Q147.25 30.05 147.17 31.46L147.03 31.31L147.17 31.45Q147.03 32.68 146.10 33.61L146.04 33.56L146.18 33.69Q145.14 34.52 143.81 34.67L143.86 34.73L143.96 34.82Q142.51 34.94 141.44 34.94L141.41 34.91L141.37 34.87Q135.52 34.72 130.99 37.01ZM143.89 37.43L143.83 37.36L143.93 37.46Q144.85 37.50 146.71 37.62L146.61 37.52L146.65 37.55Q148.12 37.66 149.23 36.78L149.25 36.80L149.19 36.74Q149.96 35.81 149.85 34.24L149.97 34.36L149.84 34.24Q149.79 33.31 149.07 29.85L149.00 29.78L148.98 29.76Q148.46 26.69 146.59 25.20L146.45 25.06L146.06 24.25L146.12 24.31Q147.76 22.87 148.34 19.10L148.38 19.15L148.32 19.08Q148.60 18.07 148.52 16.66L148.37 16.51L148.48 16.62Q148.36 15.24 147.25 14.40L147.26 14.41L147.32 14.47Q146.97 14.24 146.86 14.20L146.78 14.12L146.76 14.10Q146.60 13.68 145.76 12.88L145.69 12.80L145.85 12.97Q144.20 11.77 139.98 11.58L139.98 11.59L139.97 11.58Q133.32 11.28 129.32 8.39L129.49 8.56L129.36 8.42Q132.69 15.49 132.99 23.02L132.94 22.97L133.01 23.04Q133.37 30.90 130.55 37.83L130.55 37.83L132.46 36.73L132.59 36.86Q132.27 38.06 131.77 39.20L131.75 39.18L131.72 39.15Q136.05 37.31 141.07 37.31L140.93 37.17L140.99 37.22Q142.48 37.31 143.93 37.46ZM141.75 26.87L141.82 26.94L141.72 26.84Q142.43 26.75 143.35 27.21L143.33 27.20L143.40 27.26Q143.58 27.67 143.73 28.74L143.70 28.70L143.62 28.63Q143.83 30.01 142.90 31.06L142.97 31.13L142.85 31.02Q141.97 32.11 140.56 32.00L140.55 31.99L138.98 32.02L139.06 32.10Q138.24 32.08 137.52 32.20L137.66 32.33L137.50 32.18Q137.95 30.50 138.03 27.03L137.88 26.89L137.95 26.96Q138.55 26.83 139.81 26.79L139.87 26.86L139.88 26.87Q141.14 26.83 141.75 26.87ZM140.76 17.31L140.78 17.33L141.13 17.30L141.16 17.33Q141.30 17.24 141.49 17.28L141.44 17.23L141.80 17.21L142.28 17.50L142.80 17.48L142.79 17.48Q142.90 17.74 142.90 18.04L142.85 18.00L143.01 18.69L142.93 18.61Q142.93 19.86 142.05 20.80L141.96 20.70L142.08 20.82Q141.20 21.75 139.98 21.75L139.87 21.64L139.89 21.66Q138.93 21.73 138.93 21.73L138.90 21.70L138.92 21.72Q137.61 21.70 137.95 21.70L137.89 21.64L138.01 21.76Q137.86 20.13 137.56 17.08L137.57 17.09L137.68 17.21Q139.17 17.25 140.69 17.25Z"/><path d="M19 2 C102 25,99 13,196 22" stroke="#888" fill="none"/><path d="M18 32 C104 36,96 8,185 5" stroke="#555" fill="none"/><path fill="#111" d="M106.41 28.05L106.22 27.87L106.22 27.87Q109.39 27.57 112.58 27.68L112.62 27.72L112.54 27.64Q112.61 25.20 112.61 22.80L112.61 22.79L112.63 22.82Q112.47 20.19 112.66 17.63L112.78 17.76L112.67 17.65Q111.57 19.48 106.36 28.00ZM116.15 35.25L116.17 35.26L116.23 35.32Q114.63 35.10 112.84 35.02L112.71 34.89L112.72 34.90Q112.63 32.64 112.52 30.16L112.47 30.12L112.53 30.18Q107.13 29.92 102.41 31.33L102.48 31.40L102.35 31.27Q102.49 30.80 102.68 29.81L102.61 29.74L102.60 29.73Q104.58 26.76 108.16 20.48L108.08 20.40L107.99 20.31Q111.05 15.60 114.47 11.72L114.42 11.67L114.31 11.56Q115.35 11.53 117.03 11.27L116.88 11.11L116.93 11.16Q115.00 17.58 115.00 24.62L114.99 24.60L115.03 24.65Q115.12 26.23 115.20 27.71L115.00 27.51L116.34 27.67L116.40 27.73Q117.08 27.84 117.69 27.96L117.53 27.80L117.53 27.79Q117.72 28.86 117.99 30.81L118.08 30.90L118.01 30.83Q116.75 30.52 115.27 30.33L115.34 30.40L115.39 30.45Q115.43 32.28 116.11 35.21ZM117.87 27.49L117.92 27.53L117.95 27.57Q117.71 27.44 117.52 27.44L117.49 27.41L117.22 27.52L117.10 27.40Q117.05 25.98 117.05 24.57L116.99 24.52L117.02 24.55Q116.99 18.12 119.05 12.10L119.00 12.06L119.16 12.21Q118.32 12.40 116.87 12.78L116.83 12.74L116.76 12.67Q117.02 11.94 117.48 10.54L117.55 10.61L117.54 10.60Q116.20 10.93 114.14 11.16L114.15 11.17L114.27 11.29Q110.17 15.45 104.96 24.82L105.13 24.99L107.12 21.23L107.20 21.31Q106.75 22.31 106.48 22.88L106.41 22.81L102.02 31.89L101.94 31.81Q102.71 31.78 103.85 31.40L103.71 31.26L103.57 31.50L103.72 31.65Q103.58 32.31 103.28 33.57L103.16 33.44L103.22 33.51Q107.27 32.11 112.10 32.30L112.25 32.45L112.16 32.36Q112.21 33.33 112.40 35.31L112.45 35.35L112.43 35.33Q113.39 35.22 114.45 35.34L114.59 35.48L114.51 35.39Q114.67 36.09 114.94 37.46L114.88 37.41L114.88 37.41Q116.90 37.75 119.91 38.66L119.87 38.62L119.80 38.56Q118.84 36.45 117.92 33.17L117.97 33.22L119.43 33.69L119.46 33.72Q120.05 33.86 120.74 34.20L120.74 34.20L120.71 34.17Q119.90 31.65 119.75 29.98L119.80 30.03L119.92 30.15Q119.28 29.92 118.13 29.69L118.03 29.59L118.18 29.74Q117.92 28.41 117.92 27.53ZM109.96 27.42L109.99 27.45L109.85 27.31Q110.56 25.97 112.13 23.42L112.13 23.42L112.25 23.55Q112.12 24.37 112.08 25.32L112.11 25.35L112.09 25.33Q112.23 26.45 112.27 27.40L112.14 27.27L112.26 27.40Q111.67 27.34 111.09 27.34L111.15 27.39L111.11 27.35Q110.52 27.37 109.91 27.37Z"/></svg>