<svg xmlns="http://www.w3.org/2000/svg" width="200" height="40" viewBox="0,0,200,40"><path fill="#222" d="M22.65 25.71L22.66 25.71L22.64 25.70Q22.67 25.73 26.06 25.69L26.03 25.67L26.05 25.68Q28.15 25.50 29.22 25.54L29.33 25.66L29.19 25.51Q28.26 22.76 25.83 17.12L25.80 17.10L25.90 17.19Q25.24 18.52 24.20 21.37L24.26 21.44L24.16 21.34Q23.21 24.29 22.64 25.70ZM30.42 28.12L30.39 28.08L30.49 28.18Q28.09 28.03 25.88 28.07L25.85 28.03L26.02 28.20Q23.75 28.22 21.47 28.41L21.48 28.42L21.34 28.28Q19.77 31.66 16.54 35.85L16.72 36.04L16.58 35.89Q13.97 36.48 12.60 36.97L12.72 37.09L12.74 37.12Q17.86 31.46 22.54 18.10L22.45 18.01L22.42 17.98Q23.66 14.54 25.03 11.31L25.10 11.37L25.17 11.44Q25.46 11.42 25.80 11.42L25.84 11.47L26.47 11.37L26.42 11.32Q27.22 12.73 32.06 24.38L31.98 24.30L32.05 24.37Q35.31 32.20 39.31 36.35L39.38 36.42L39.33 36.37Q38.90 36.33 35.02 35.45L34.92 35.35L34.91 35.34Q32.33 32.19 30.35 28.04ZM34.91 35.76L34.92 35.77L35.40 35.76L35.38 35.74Q35.74 35.87 36.04 35.98L36.03 35.97L36.08 36.01Q36.31 36.28 38.13 38.30L38.10 38.26L38.16 38.32Q41.83 39.25 44.23 40.28L44.27 40.33L44.24 40.30Q38.70 35.71 34.70 27.71L34.78 27.79L34.70 27.71Q32.99 24.33 31.55 20.37L31.59 20.41L28.92 12.98L28.80 12.86Q28.71 13.12 28.49 13.12L28.50 13.13L27.92 13.09L27.84 13.01Q27.39 12.25 26.67 10.88L26.68 10.90L26.71 10.92Q26.19 10.94 25.73 10.90L25.85 11.01L25.87 11.04Q25.44 11.02 24.90 11.02L24.89 11.01L24.74 10.86Q23.49 14.94 19.61 25.11L19.58 25.08L19.52 25.02Q16.35 32.93 11.71 37.72L11.72 37.73L11.71 37.73Q12.71 37.28 14.73 36.67L14.84 36.78L14.71 36.65Q13.95 37.53 12.39 39.32L12.47 39.40L12.53 39.46Q14.17 38.74 18.09 37.98L18.10 37.99L18.06 37.95Q21.46 33.58 23.02 30.34L23.09 30.41L23.10 30.43Q24.92 30.38 27.24 30.41L27.19 30.36L27.12 30.29Q29.95 30.42 31.32 30.50L31.28 30.46L31.20 30.38Q32.55 32.83 34.91 35.76ZM27.19 21.08L27.23 21.11L27.21 21.09Q28.06 23.16 28.82 25.25L28.80 25.24L25.53 25.28L25.57 25.31Q26.14 23.86 27.20 21.09Z"/><path fill="#333" d="M111.21 25.49L111.15 25.44L111.22 25.51Q107.68 31.79 104.26 35.75L104.19 35.68L104.16 35.65Q102.40 36.18 99.97 37.05L99.86 36.94L99.89 36.98Q104.86 31.44 109.62 23.03L109.57 22.98L109.53 22.93Q105.03 16.08 99.06 9.68L98.93 9.56L99.06 9.69Q101.98 10.89 104.26 11.38L104.22 11.35L104.22 11.34Q108.96 16.66 111.40 20.62L111.38 20.60L111.22 20.44Q113.79 16.08 117.71 11.66L117.79 11.74L117.69 11.64Q119.28 11.33 122.48 10.57L122.64 10.73L122.49 10.58Q116.41 17.02 112.94 22.96L112.99 23.01L112.94 22.96Q118.18 31.70 122.56 36.27L122.49 36.20L122.54 36.25Q119.93 35.42 117.83 35.20L117.93 35.30L117.80 35.17Q115.04 32.21 111.12 25.40ZM117.84 35.63L117.81 35.60L117.82 35.60Q118.06 35.58 118.52 35.69L118.60 35.78L118.54 35.71Q119.34 36.48 120.86 38.07L120.93 38.14L120.79 38.00Q124.22 38.88 127.27 40.26L127.33 40.32L127.24 40.23Q120.14 33.66 115.04 24.91L114.96 24.83L115.11 24.97Q118.80 18.28 124.71 11.42L124.73 11.45L124.59 11.31Q123.28 12.10 121.11 12.63L120.97 12.49L121.10 12.61Q121.95 11.67 123.70 9.88L123.65 9.84L123.77 9.96Q121.25 10.71 117.56 11.28L117.66 11.38L117.66 11.39Q114.22 15.18 111.63 19.48L111.64 19.49L111.55 19.40Q110.70 17.86 109.52 16.37L109.45 16.30L107.23 13.44L106.92 13.51L106.82 13.41Q106.76 13.50 106.53 13.42L106.51 13.40L106.38 13.27Q105.77 12.51 104.28 10.95L104.21 10.88L104.35 11.01Q100.37 9.97 97.78 8.60L97.78 8.60L97.86 8.68Q104.62 15.97 109.19 23.01L109.23 23.05L109.16 22.99Q104.70 31.20 98.96 37.79L98.90 37.74L98.99 37.83Q100.33 37.18 102.46 36.61L102.47 36.62L101.18 38.07L101.16 38.05Q101.11 38.00 99.77 39.33L99.74 39.30L99.78 39.33Q102.87 38.35 106.03 37.86L106.01 37.84L105.94 37.77Q109.88 33.18 112.47 28.43L112.53 28.49L112.49 28.44Q115.16 32.79 117.87 35.65Z"/><path d="M19 24 C89 26,83 25,189 14" stroke="#222" fill="none"/><path fill="#333" d="M169.24 27.16L159.94 17.10L159.97 17.13Q160.83 20.84 160.83 24.58L160.90 24.64L160.73 24.48Q160.86 30.58 158.80 36.14L158.86 36.20L158.74 36.08Q157.61 36.28 155.37 37.04L155.43 37.10L155.54 37.21Q158.31 31.38 158.31 24.68L158.27 24.64L158.35 24.72Q158.31 16.04 153.82 8.61L153.78 8.58L153.83 8.63Q154.30 8.83 154.98 9.25L154.83 9.10L154.93 9.20Q166.91 20.30 174.75 29.55L174.80 29.60L174.86 29.65Q174.48 27.14 174.48 24.71L174.52 24.75L174.43 24.66Q174.60 17.59 177.11 11.39L177.04 11.32L177.06 11.33Q179.45 10.87 181.05 10.18L180.92 10.06L181.04 10.18Q177.61 16.23 177.31 23.39L177.42 23.50L177.42 23.50Q176.95 30.68 179.92 36.85L180.00 36.93L180.11 37.04Q179.43 36.85 179.01 36.66L179.10 36.75L179.10 36.75Q174.37 32.63 169.15 27.07L169.22 27.13ZM182.56 40.06L182.67 40.17L182.63 40.13Q183.17 40.36 183.59 40.55L183.51 40.47L184.37 40.84L184.47 40.94Q179.26 33.95 179.26 24.58L179.12 24.44L179.31 24.63Q179.31 17.39 182.62 11.15L182.48 11.01L182.61 11.14Q181.78 11.19 180.37 11.79L180.54 11.96L180.54 11.96Q180.93 11.13 181.77 9.57L181.66 9.46L181.63 9.44Q179.14 10.29 176.70 10.86L176.80 10.97L176.86 11.02Q174.16 17.42 174.16 24.85L174.17 24.85L174.24 24.93Q174.17 26.72 174.36 28.70L174.35 28.69L174.39 28.73Q169.78 23.09 165.02 18.49L164.85 18.31L154.91 8.76L154.88 8.72Q154.30 8.42 153.09 7.84L153.11 7.87L153.13 7.89Q157.99 15.60 157.99 24.70L158.00 24.71L157.98 24.69Q157.97 31.81 154.89 37.82L154.76 37.69L154.79 37.72Q155.19 37.70 156.83 37.09L156.84 37.10L156.88 37.15Q156.46 37.83 155.63 39.32L155.74 39.43L155.73 39.42Q156.95 38.78 160.42 37.98L160.41 37.97L160.53 38.09Q162.84 31.95 162.84 24.76L162.72 24.64L162.86 24.78Q162.80 22.63 162.57 20.49L162.55 20.47L162.48 20.40Q173.98 33.23 182.58 40.08Z"/><path fill="#333" d="M82.13 35.24L82.05 35.17L79.60 28.25L79.64 28.30Q75.38 15.81 69.44 9.42L69.34 9.32L69.32 9.30Q71.43 10.46 74.02 11.07L73.98 11.03L74.00 11.05Q79.16 17.35 83.50 30.10L83.53 30.13L83.50 30.10Q86.41 21.85 87.09 20.25L87.09 20.25L87.26 20.42Q89.53 14.70 92.35 11.39L92.35 11.39L92.44 11.48Q94.50 11.10 97.13 10.23L96.99 10.09L97.08 10.18Q92.55 14.82 89.50 22.06L89.56 22.11L89.52 22.07Q88.15 25.77 84.46 35.28L84.29 35.12L84.45 35.28Q83.81 35.21 83.24 35.17L83.30 35.23L83.19 35.12Q82.74 35.25 82.17 35.28ZM87.15 37.68L87.19 37.71L87.13 37.65Q89.90 27.63 91.46 23.60L91.36 23.50L91.53 23.66Q94.45 15.89 98.87 11.02L98.91 11.06L98.91 11.06Q97.77 11.32 95.67 12.05L95.65 12.03L96.86 10.76L96.86 10.76Q97.38 10.03 97.99 9.38L98.08 9.46L98.13 9.52Q95.34 10.54 92.33 11.11L92.25 11.02L92.15 10.92Q87.92 16.40 84.03 27.86L83.94 27.76L83.97 27.80Q80.35 17.71 77.16 13.33L77.13 13.30L77.21 13.39Q76.73 13.21 75.86 13.06L75.81 13.01L75.80 13.00Q75.74 12.78 74.14 10.73L74.02 10.61L73.97 10.56Q71.02 9.85 68.32 8.45L68.28 8.41L68.39 8.52Q74.90 15.49 79.28 28.28L79.37 28.37L79.29 28.29Q80.51 31.95 81.69 35.53L81.78 35.61L81.85 35.69Q82.14 35.67 82.98 35.55L82.98 35.56L82.95 35.53Q83.32 36.24 84.00 37.57L84.10 37.67L84.08 37.65Q84.77 37.42 85.49 37.50L85.59 37.59L85.60 37.60Q86.30 37.58 87.06 37.58Z"/><path d="M4 37 C108 12,103 3,199 14" stroke="#888" fill="none"/><path fill="#444" d="M57.53 22.22L57.45 22.14L57.44 22.12Q58.31 22.20 59.72 22.05L59.72 22.05L59.64 21.96Q59.68 22.69 59.68 23.34L59.61 23.26L59.67 24.58L59.62 24.54Q58.78 24.53 57.94 24.60L57.94 24.60L57.90 24.56Q57.13 24.67 56.30 24.64L56.37 24.70L56.31 24.64Q53.39 30.75 49.97 35.36L50.00 35.40L49.95 35.35Q47.58 36.14 46.29 36.75L46.20 36.65L46.13 36.59Q50.36 30.99 53.40 24.71L53.29 24.60L50.76 24.70L50.68 24.62Q50.81 23.41 50.69 22.08L50.58 21.97L50.65 22.04Q52.45 22.08 54.50 22.08L54.59 22.17L56.54 18.52L56.58 18.57Q57.45 16.54 58.67 14.94L58.79 15.06L58.75 15.02Q57.18 15.17 55.59 15.17L55.53 15.11L55.56 15.14Q49.45 15.13 45.68 12.92L45.76 13.00L45.04 11.21L45.01 11.17Q44.74 10.42 44.36 9.54L44.37 9.55L44.39 9.57Q48.69 12.15 54.40 12.38L54.44 12.43L54.28 12.26Q59.42 12.49 64.56 10.51L64.58 10.53L64.62 10.57Q64.44 11.00 63.94 11.88L63.95 11.88L64.02 11.95Q60.35 16.66 57.49 22.18ZM65.65 13.36L65.54 13.25L66.51 11.21L66.60 11.30Q65.58 11.73 63.91 12.45L63.93 12.47L64.16 12.21L64.06 12.11Q64.17 11.95 64.28 11.84L64.25 11.80L64.41 11.97Q64.67 11.16 65.40 9.83L65.47 9.90L65.44 9.87Q60.03 12.07 54.28 11.84L54.43 11.99L54.31 11.88Q48.41 11.72 43.65 8.75L43.54 8.64L43.63 8.73Q44.52 10.46 45.36 13.13L45.55 13.32L45.52 13.29Q46.59 13.90 47.39 14.21L47.28 14.10L47.41 14.23Q47.46 14.47 47.92 16.33L47.96 16.38L47.96 16.38Q51.04 17.55 56.56 17.40L56.67 17.51L56.59 17.43Q56.36 18.08 54.38 21.85L54.44 21.90L54.37 21.83Q52.22 21.74 50.24 21.55L50.35 21.66L50.34 21.65Q50.48 22.55 50.48 23.43L50.37 23.31L50.34 24.99L52.01 24.99L52.15 26.55L52.11 26.51Q48.25 33.95 45.47 37.53L45.46 37.52L45.28 37.34Q46.95 36.65 48.59 36.15L48.59 36.16L48.55 36.12Q47.86 37.02 46.49 38.73L46.47 38.71L46.46 38.71Q49.78 37.76 52.21 37.53L52.22 37.54L52.21 37.53Q55.07 33.69 58.19 26.91L58.11 26.83L61.68 27.17L61.56 27.04Q61.59 26.24 61.59 25.33L61.63 25.36L61.58 23.53L61.52 23.47Q61.24 23.45 60.69 23.49L60.67 23.47L60.79 23.59Q60.17 23.56 59.90 23.56L59.92 23.58L59.86 23.52Q59.96 23.50 60.00 23.35L60.03 23.38L60.01 23.10L60.01 23.10Q62.50 17.93 65.58 13.29Z"/><path fill="#444" d="M135.76 25.67L135.67 25.58L135.80 25.72Q135.76 25.68 139.15 25.64L139.11 25.60L139.19 25.68Q141.36 25.57 142.43 25.60L142.39 25.56L142.46 25.64Q141.38 22.73 138.95 17.10L139.00 17.16L138.98 17.14Q138.46 18.59 137.41 21.45L137.31 21.35L137.33 21.37Q136.22 24.15 135.64 25.56ZM143.53 28.08L143.59 28.14L143.63 28.17Q141.28 28.07 139.07 28.11L139.05 28.09L138.98 28.02Q136.79 28.12 134.51 28.31L134.61 28.41L134.47 28.27Q133.09 31.84 129.85 36.02L129.78 35.95L129.70 35.87Q127.26 36.63 125.89 37.12L125.77 37.00L125.85 37.08Q131.05 31.51 135.74 18.15L135.64 18.06L135.61 18.03Q136.92 14.65 138.29 11.41L138.30 11.43L138.13 11.26Q138.57 11.39 138.91 11.39L138.84 11.32L139.59 11.35L139.55 11.31Q140.45 12.82 145.29 24.47L145.28 24.46L145.28 24.46Q148.40 32.15 152.39 36.29L152.44 36.34L152.43 36.33Q152.01 36.29 148.13 35.42L148.06 35.35L148.10 35.39Q145.45 32.16 143.47 28.02ZM148.04 35.75L147.99 35.70L148.54 35.75L148.53 35.75Q148.95 35.93 149.25 36.05L149.23 36.03L149.18 35.97Q149.50 36.34 151.33 38.35L151.28 38.30L151.38 38.40Q154.85 39.13 157.24 40.16L157.27 40.18L157.30 40.21Q151.78 35.64 147.78 27.64L147.88 27.74L147.87 27.74Q146.24 24.43 144.79 20.47L144.69 20.37L142.13 13.05L142.06 12.98Q141.80 13.06 141.57 13.06L141.54 13.03L141.09 13.11L140.93 12.95Q140.55 12.27 139.83 10.90L139.82 10.89L139.88 10.95Q139.41 11.02 138.96 10.98L138.86 10.88L139.05 11.07Q138.49 10.93 137.95 10.93L137.99 10.96L137.91 10.88Q136.48 14.78 132.59 24.95L132.69 25.04L132.70 25.05Q129.62 33.05 124.97 37.84L124.96 37.83L124.87 37.74Q125.96 37.38 127.97 36.77L128.00 36.80L127.96 36.76Q127.24 37.67 125.68 39.46L125.60 39.39L125.63 39.41Q127.25 38.68 131.17 37.92L131.32 38.06L131.17 37.91Q134.62 33.59 136.18 30.36L136.26 30.44L136.30 30.48Q138.02 30.33 140.34 30.37L140.39 30.42L140.39 30.42Q142.97 30.30 144.34 30.38L144.32 30.35L144.34 30.37Q145.65 32.78 148.01 35.72ZM140.21 20.95L140.28 21.02L140.29 21.04Q141.08 23.04 141.85 25.14L141.87 25.16L138.70 25.30L138.55 25.16Q139.14 23.73 140.21 20.95Z"/></svg>