<svg xmlns="http://www.w3.org/2000/svg" width="200" height="40" viewBox="0,0,200,40"><path fill="#333" d="M102.09 9.27L102.15 9.33L102.09 9.27Q105.98 11.90 110.74 12.13L110.62 12.01L110.71 12.10Q115.22 12.16 119.49 10.41L119.65 10.58L119.53 10.45Q119.41 11.14 118.65 13.92L118.52 13.78L118.65 13.91Q115.81 14.84 112.84 14.99L112.91 15.06L112.84 14.99Q109.95 15.23 107.06 14.51L106.92 14.37L107.00 14.44Q107.75 18.13 107.94 21.78L107.86 21.70L107.81 21.65Q109.89 21.95 111.49 21.91L111.53 21.95L111.54 21.96Q112.79 21.99 115.19 21.87L115.17 21.86L115.06 21.75Q115.03 22.40 115.03 23.09L115.09 23.15L115.14 24.53L115.06 24.45Q112.76 24.55 107.97 24.63L107.87 24.53L107.86 24.52Q107.92 28.69 107.35 32.69L107.35 32.69L107.40 32.74Q109.97 32.04 112.71 32.15L112.70 32.14L112.61 32.05Q115.35 32.16 117.94 33.00L118.05 33.11L117.95 33.01Q118.03 33.82 118.30 34.58L118.24 34.51L118.73 36.07L118.81 36.16Q115.59 34.84 112.17 34.84L112.13 34.81L112.18 34.85Q107.20 34.75 102.94 37.00L102.90 36.96L102.91 36.97Q105.29 30.22 105.03 23.10L105.10 23.17L105.06 23.13Q104.70 15.88 102.03 9.22ZM102.56 37.83L102.49 37.77L102.48 37.76Q103.76 37.05 104.52 36.71L104.46 36.65L104.56 36.75Q104.29 37.43 103.71 38.95L103.85 39.09L103.66 38.90Q108.34 37.06 113.40 37.33L113.36 37.29L113.27 37.20Q118.56 37.62 122.56 40.33L122.62 40.38L122.56 40.32Q121.38 37.77 120.69 35.83L120.66 35.80L120.59 35.73Q119.68 35.20 118.69 34.86L118.75 34.91L118.77 34.93Q118.25 33.42 118.09 32.62L118.06 32.59L118.07 32.60Q115.13 31.75 111.97 31.75L111.97 31.75L111.95 31.73Q110.83 31.76 109.69 31.87L109.60 31.78L109.53 31.71Q109.64 30.45 109.68 29.23L109.85 29.40L109.93 26.89L109.95 26.91Q111.64 26.70 113.43 26.74L113.52 26.83L113.40 26.70Q115.26 26.78 117.05 26.93L117.14 27.02L117.02 26.90Q116.95 25.96 116.95 25.01L116.92 24.98L116.99 23.14L116.21 23.24L116.24 23.27Q115.78 23.31 115.32 23.31L115.38 23.36L115.31 23.29Q115.43 22.72 115.58 21.43L115.43 21.28L115.47 21.31Q113.82 21.49 112.64 21.53L112.68 21.57L112.67 21.56Q111.77 21.62 109.94 21.54L109.85 21.44L110.00 21.60Q109.87 20.13 109.68 17.32L109.74 17.38L109.69 17.32Q110.76 17.49 111.75 17.49L111.61 17.34L111.62 17.35Q116.37 17.38 120.06 15.48L120.09 15.50L120.06 15.48Q120.74 13.23 121.62 11.02L121.48 10.89L121.62 11.03Q120.16 11.73 119.32 12.07L119.36 12.11L119.37 12.12Q119.71 11.39 120.16 9.83L120.06 9.73L120.06 9.73Q115.47 11.92 110.60 11.61L110.69 11.70L110.69 11.70Q105.25 11.25 101.40 8.39L101.47 8.46L101.38 8.37Q104.44 15.51 104.75 23.12L104.73 23.10L104.62 22.99Q105.05 31.04 102.54 37.82Z"/><path fill="#333" d="M45.60 9.35L45.57 9.32L45.53 9.28Q49.30 11.79 54.05 12.02L54.08 12.05L54.02 11.99Q58.74 12.26 63.01 10.51L63.09 10.58L62.97 10.47Q62.72 11.02 61.96 13.80L61.97 13.80L61.98 13.82Q59.27 14.87 56.30 15.03L56.39 15.11L56.27 15.00Q53.28 15.13 50.39 14.41L50.48 14.49L50.35 14.37Q51.05 18.00 51.24 21.65L51.28 21.69L51.37 21.78Q53.25 21.88 54.85 21.84L55.01 22.00L54.96 21.95Q56.04 21.81 58.44 21.70L58.55 21.80L58.45 21.71Q58.48 22.42 58.48 23.11L58.56 23.19L58.43 24.40L58.54 24.50Q56.16 24.52 51.36 24.59L51.21 24.44L51.30 24.54Q51.37 28.71 50.80 32.71L50.77 32.68L50.64 32.55Q53.44 32.08 56.18 32.19L56.02 32.04L56.12 32.13Q58.88 32.26 61.47 33.10L61.32 32.96L61.38 33.01Q61.50 33.86 61.77 34.62L61.77 34.62L62.11 36.03L62.12 36.04Q58.97 34.79 55.55 34.79L55.64 34.88L55.57 34.82Q50.77 34.89 46.51 37.14L46.33 36.96L46.39 37.01Q48.73 30.22 48.46 23.10L48.54 23.18L48.52 23.16Q48.13 15.88 45.47 9.22ZM45.84 37.69L45.89 37.73L45.87 37.72Q47.22 37.09 47.98 36.74L47.96 36.72L47.86 36.62Q47.73 37.44 47.16 38.97L47.18 38.99L47.14 38.95Q51.72 37.02 56.78 37.28L56.80 37.30L56.74 37.24Q61.86 37.49 65.86 40.19L65.91 40.25L65.86 40.19Q64.84 37.80 64.15 35.86L64.06 35.77L64.01 35.72Q63.16 35.25 62.17 34.90L62.11 34.85L62.12 34.86Q61.72 33.46 61.57 32.67L61.65 32.75L61.67 32.77Q58.59 31.78 55.43 31.78L55.26 31.62L55.26 31.62Q54.26 31.76 53.12 31.87L53.11 31.86L53.05 31.80Q53.11 30.49 53.15 29.27L53.28 29.40L53.21 26.74L53.21 26.75Q55.01 26.64 56.80 26.68L56.81 26.69L56.85 26.74Q58.69 26.79 60.48 26.94L60.48 26.94L60.47 26.92Q60.51 26.08 60.51 25.13L60.46 25.08L60.53 23.25L59.56 23.16L59.69 23.29Q59.18 23.27 58.72 23.27L58.85 23.40L58.69 23.24Q58.78 22.65 58.94 21.36L58.84 21.26L58.98 21.40Q57.23 21.48 56.05 21.52L56.16 21.63L56.17 21.63Q55.22 21.64 53.39 21.56L53.43 21.60L53.32 21.48Q53.33 20.16 53.13 17.34L53.16 17.37L53.00 17.20Q54.20 17.49 55.19 17.49L55.15 17.45L55.11 17.42Q59.77 17.36 63.46 15.45L63.58 15.57L63.54 15.53Q64.05 13.10 64.92 10.89L64.99 10.97L64.87 10.85Q63.61 11.76 62.78 12.10L62.70 12.02L62.80 12.13Q63.17 11.42 63.62 9.86L63.57 9.81L63.51 9.75Q59.00 12.02 54.13 11.71L54.00 11.58L53.96 11.54Q48.68 11.25 44.83 8.39L44.89 8.45L44.90 8.46Q47.80 15.44 48.10 23.05L48.17 23.11L48.13 23.07Q48.35 30.90 45.83 37.68Z"/><path fill="#111" d="M22.48 25.54L22.54 25.60L22.50 25.56Q22.50 25.56 25.88 25.52L25.93 25.57L25.87 25.50Q28.12 25.47 29.19 25.51L29.25 25.57L29.24 25.56Q28.16 22.65 25.72 17.01L25.77 17.06L25.74 17.04Q25.18 18.46 24.13 21.31L24.12 21.29L24.24 21.42Q23.24 24.32 22.67 25.73ZM30.42 28.11L30.37 28.06L30.33 28.03Q28.13 28.07 25.92 28.10L25.97 28.15L25.96 28.14Q23.64 28.11 21.36 28.30L21.44 28.38L21.44 28.38Q19.94 31.84 16.71 36.02L16.62 35.94L16.67 35.98Q14.04 36.55 12.67 37.04L12.76 37.14L12.66 37.04Q17.85 31.45 22.53 18.09L22.52 18.08L22.46 18.02Q23.67 14.55 25.04 11.32L25.17 11.44L25.16 11.43Q25.52 11.48 25.86 11.48L25.78 11.40L26.53 11.43L26.47 11.37Q27.20 12.71 32.04 24.36L31.98 24.30L32.06 24.38Q35.41 32.30 39.41 36.45L39.29 36.34L39.39 36.43Q38.82 36.25 34.94 35.37L34.88 35.32L34.85 35.28Q32.43 32.29 30.45 28.14ZM34.88 35.73L34.82 35.67L35.49 35.84L35.38 35.73Q35.76 35.89 36.06 36.00L36.02 35.96L36.01 35.95Q36.41 36.39 38.24 38.40L38.10 38.27L38.12 38.28Q41.89 39.31 44.29 40.34L44.10 40.16L44.25 40.30Q38.74 35.75 34.75 27.75L34.68 27.69L34.67 27.68Q33.06 24.39 31.61 20.43L31.62 20.44L28.96 13.02L28.89 12.95Q28.68 13.08 28.45 13.08L28.38 13.01L27.96 13.13L27.90 13.07Q27.44 12.30 26.71 10.93L26.79 11.01L26.68 10.89Q26.34 11.08 25.88 11.04L25.86 11.02L25.78 10.95Q25.45 11.04 24.92 11.04L24.91 11.02L24.91 11.03Q23.34 14.79 19.45 24.95L19.58 25.07L19.62 25.12Q16.36 32.94 11.72 37.73L11.68 37.70L11.72 37.74Q12.84 37.41 14.86 36.80L14.82 36.76L14.74 36.69Q13.95 37.53 12.39 39.32L12.41 39.34L12.42 39.35Q14.23 38.80 18.15 38.03L18.15 38.04L18.08 37.96Q21.57 33.69 23.13 30.46L23.02 30.34L23.19 30.51Q24.78 30.24 27.10 30.27L27.19 30.36L27.26 30.43Q29.89 30.36 31.26 30.44L31.35 30.53L31.34 30.52Q32.56 32.84 34.92 35.77ZM27.24 21.12L27.14 21.03L27.18 21.07Q27.94 23.04 28.70 25.13L28.70 25.14L25.55 25.30L25.42 25.17Q26.02 23.75 27.09 20.97Z"/><path fill="#222" d="M166.75 24.13L166.73 24.12L166.77 24.15Q164.98 24.08 163.75 25.51L163.57 25.33L163.63 25.39Q162.33 26.76 162.14 28.66L162.28 28.80L162.22 28.74Q161.92 30.72 163.00 31.70L163.13 31.82L163.14 31.83Q164.15 32.73 166.25 32.62L166.23 32.60L166.32 32.69Q168.41 32.54 169.52 31.85L169.37 31.71L169.48 31.81Q170.51 30.60 170.51 29.04L170.70 29.23L170.56 29.09Q170.67 28.82 170.60 28.44L170.60 28.44L170.47 28.31Q170.54 26.63 169.43 25.28L169.47 25.32L169.45 25.29Q168.40 24.00 166.72 24.11ZM166.33 35.25L166.40 35.32L166.36 35.28Q161.94 35.24 160.54 34.48L160.50 34.44L160.60 34.55Q159.48 33.69 159.29 31.98L159.25 31.94L159.31 32.00Q159.19 31.23 159.23 30.51L159.24 30.52L159.29 30.57Q159.39 29.57 159.39 29.11L159.44 29.16L159.32 29.04Q159.85 26.26 160.00 25.58L159.94 25.51L160.03 25.60Q160.51 23.68 161.34 22.27L161.32 22.24L161.30 22.22Q164.03 17.91 169.96 11.55L169.84 11.43L169.88 11.47Q172.54 11.16 174.75 10.36L174.84 10.45L174.73 10.34Q167.95 17.87 164.75 22.10L164.75 22.10L164.81 22.16Q165.81 21.67 167.10 21.67L166.95 21.52L166.96 21.53Q170.39 21.65 171.91 23.59L171.78 23.45L171.78 23.45Q173.23 25.21 173.57 28.75L173.60 28.78L173.58 28.75Q173.59 29.41 173.59 30.02L173.63 30.07L173.57 30.01Q173.68 33.23 171.47 34.30L171.33 34.16L171.39 34.22Q170.24 34.89 166.35 35.27ZM168.61 37.64L168.51 37.54L168.54 37.57Q169.83 37.53 171.81 37.61L171.91 37.70L171.79 37.59Q173.54 37.77 175.10 37.05L175.13 37.08L175.15 37.10Q176.18 36.23 176.18 34.44L176.08 34.34L176.21 34.47Q176.17 33.94 176.00 32.95L176.02 32.97L176.01 32.96Q175.91 32.04 175.91 31.58L175.87 31.54L175.87 31.55Q174.90 26.72 173.30 24.82L173.45 24.97L173.34 24.87Q173.21 24.70 173.06 24.47L173.10 24.51L172.76 24.24L172.75 24.27L172.84 24.36Q172.46 23.83 171.85 22.88L171.70 22.73L171.74 22.76Q170.87 21.86 168.89 21.41L168.95 21.46L168.98 21.50Q170.04 19.74 173.01 16.05L173.13 16.16L177.40 10.92L177.24 10.75Q175.67 11.62 173.27 12.38L173.30 12.41L173.39 12.50Q174.22 11.43 176.01 9.45L176.13 9.57L175.96 9.40Q173.75 10.66 169.87 11.23L169.69 11.05L169.76 11.11Q164.07 17.04 161.11 21.99L161.17 22.05L161.01 21.90Q159.59 24.52 159.02 30.76L159.09 30.83L159.01 30.75Q158.91 31.30 158.99 32.25L159.00 32.26L158.93 32.19Q159.09 34.02 160.19 34.94L160.16 34.91L160.24 34.99Q160.58 35.10 160.55 35.14L160.53 35.12L160.60 35.19Q160.83 35.96 161.63 36.38L161.76 36.51L161.68 36.43Q163.21 37.19 165.15 37.38L165.10 37.34L165.01 37.24Q165.18 37.41 168.68 37.72ZM168.41 26.44L168.30 26.33L168.36 26.39Q168.88 26.22 169.83 26.72L169.89 26.78L169.93 26.82Q170.30 27.80 170.30 28.44L170.31 28.46L170.24 28.39Q170.41 30.23 169.46 31.22L169.48 31.25L169.42 31.18Q168.44 31.99 166.34 32.30L166.39 32.34L166.25 32.20Q164.77 32.17 164.24 31.90L164.32 31.98L164.26 31.93Q164.05 31.45 164.05 31.15L164.06 31.16L164.07 31.16Q164.00 28.05 166.94 26.76L166.92 26.74L166.85 26.67Q167.59 26.31 168.35 26.38Z"/><path fill="#333" d="M84.85 34.82L84.90 34.87L84.88 34.85Q82.85 34.73 80.84 34.92L80.91 34.99L80.93 35.01Q81.65 29.83 81.65 24.99L81.61 24.96L81.58 24.93Q81.59 20.03 80.95 14.81L80.87 14.74L80.87 14.74Q76.31 14.37 73.12 12.69L73.10 12.68L72.48 11.04L72.47 11.02Q72.20 10.44 71.59 9.22L71.59 9.23L71.63 9.26Q76.70 11.94 82.72 12.13L82.78 12.20L82.65 12.06Q88.55 12.25 93.99 10.20L94.05 10.25L93.92 10.13Q93.23 11.57 92.58 13.39L92.62 13.43L92.76 13.57Q88.99 14.71 84.72 14.90L84.83 15.00L84.82 15.00Q84.57 19.96 84.57 24.91L84.61 24.95L84.52 24.86Q84.60 29.89 84.91 34.88ZM94.77 9.60L94.63 9.46L94.67 9.51Q88.81 11.75 82.60 11.56L82.63 11.59L82.74 11.70Q76.10 11.53 71.00 8.56L70.95 8.51L70.94 8.50Q71.70 9.79 72.99 13.06L72.89 12.96L72.88 12.95Q73.55 13.28 74.81 13.85L74.91 13.95L74.83 13.87Q75.07 14.57 75.41 16.09L75.42 16.10L75.42 16.10Q77.77 17.01 80.82 17.24L80.78 17.19L80.70 17.12Q81.23 20.96 81.23 24.73L81.28 24.77L81.15 24.65Q81.11 29.98 80.31 35.34L80.47 35.50L80.47 35.51Q82.01 35.26 82.55 35.26L82.66 35.38L82.58 35.29Q82.53 35.54 82.47 36.21L82.60 36.34L82.48 36.22Q82.46 36.93 82.46 37.27L82.48 37.28L82.48 37.28Q83.73 37.27 85.25 37.35L85.27 37.37L85.27 37.38Q86.10 37.33 87.93 37.48L87.93 37.48L87.95 37.50Q86.72 32.58 86.61 27.40L86.67 27.47L86.53 27.33Q86.47 22.09 87.01 17.18L86.92 17.09L86.92 17.10Q90.95 16.63 94.11 15.42L94.12 15.43L94.09 15.40Q94.78 13.00 95.80 10.94L95.75 10.89L95.80 10.94Q94.54 11.69 93.74 12.00L93.62 11.88L93.62 11.88Q94.17 10.72 94.74 9.57Z"/><path d="M18 22 C120 35,115 11,192 20" stroke="#666" fill="none"/><path d="M6 9 C96 28,102 22,184 20" stroke="#999" fill="none"/><path fill="#444" d="M141.45 34.85L141.54 34.94L141.35 34.75Q139.41 34.72 137.39 34.91L137.52 35.04L137.47 34.98Q138.15 29.76 138.15 24.93L138.05 24.82L138.15 24.92Q138.08 19.95 137.44 14.73L137.53 14.83L137.62 14.91Q132.86 14.34 129.66 12.67L129.78 12.79L128.98 10.96L129.06 11.04Q128.88 10.55 128.27 9.33L128.13 9.20L128.16 9.23Q133.26 11.93 139.28 12.12L139.30 12.14L139.30 12.14Q145.09 12.22 150.53 10.17L150.53 10.16L150.53 10.16Q149.86 11.63 149.22 13.46L149.19 13.43L149.18 13.42Q145.66 14.81 141.39 15.00L141.37 14.98L141.35 14.95Q141.24 20.06 141.24 25.01L141.06 24.83L141.20 24.97Q141.12 29.84 141.43 34.83ZM151.32 9.58L151.18 9.44L151.33 9.59Q145.48 11.85 139.28 11.66L139.28 11.66L139.17 11.55Q132.64 11.50 127.54 8.53L127.48 8.47L127.53 8.51Q128.19 9.71 129.48 12.98L129.57 13.07L129.60 13.10Q130.23 13.39 131.49 13.96L131.52 13.99L131.35 13.82Q131.78 14.71 132.12 16.23L132.00 16.11L132.00 16.11Q134.42 17.08 137.46 17.31L137.28 17.13L137.31 17.16Q137.66 20.81 137.66 24.58L137.67 24.60L137.82 24.75Q137.78 30.08 136.98 35.44L137.02 35.48L137.04 35.50Q138.69 35.36 139.22 35.36L139.10 35.24L139.18 35.32Q139.22 35.67 139.16 36.33L139.13 36.30L139.20 36.37Q139.04 36.93 139.04 37.27L138.95 37.18L139.15 37.38Q140.14 37.12 141.67 37.20L141.81 37.34L141.73 37.26Q142.65 37.30 144.48 37.46L144.59 37.57L144.47 37.45Q143.32 32.61 143.20 27.43L143.16 27.38L143.08 27.30Q142.95 21.99 143.48 17.08L143.58 17.18L143.59 17.19Q147.60 16.71 150.76 15.49L150.70 15.43L150.58 15.32Q151.41 13.06 152.44 11.00L152.43 10.99L152.34 10.91Q151.01 11.60 150.22 11.90L150.15 11.83L150.23 11.92Q150.61 10.59 151.18 9.44Z"/></svg>