<svg xmlns="http://www.w3.org/2000/svg" width="200" height="40" viewBox="0,0,200,40"><path fill="#222" d="M147.37 18.27L147.32 18.22L147.47 18.37Q145.62 14.16 139.42 14.35L139.37 14.31L139.40 14.34Q135.04 14.51 133.06 15.95L133.03 15.92L133.16 16.05Q130.58 17.63 130.58 21.74L130.58 21.74L130.77 23.79L130.63 23.65Q130.63 32.48 139.65 32.48L139.62 32.45L139.71 32.53Q141.81 32.58 143.29 31.78L143.18 31.67L143.32 31.81Q145.00 30.63 144.84 28.76L144.97 28.89L144.92 28.84Q144.68 26.69 140.98 25.78L141.06 25.86L139.17 25.90L139.17 25.91Q138.12 25.81 137.17 25.84L137.09 25.76L137.27 25.94Q137.12 24.84 137.08 22.94L137.23 23.09L137.23 23.10Q144.87 23.08 149.05 22.73L148.94 22.62L148.97 22.65Q148.97 23.53 148.97 24.33L148.93 24.28L148.91 24.27Q148.88 25.04 148.92 25.83L148.93 25.84L149.02 25.93Q147.95 25.97 147.95 25.97L147.83 25.85L147.94 25.96Q146.44 25.83 146.82 25.83L146.76 25.77L146.79 25.80Q147.92 27.46 148.30 29.44L148.41 29.55L148.38 29.53Q148.42 30.17 148.42 30.63L148.38 30.59L148.41 30.62Q148.45 35.30 139.65 35.30L139.61 35.25L139.70 35.34Q132.63 35.39 130.04 33.30L130.02 33.28L130.01 33.27Q127.95 30.83 127.95 25.76L127.89 25.70L127.98 25.79Q127.89 24.64 127.73 21.93L127.79 21.99L127.75 21.95Q127.75 19.74 127.79 18.37L127.62 18.21L127.61 18.19Q127.89 15.50 129.26 13.90L129.12 13.77L129.10 13.74Q131.80 11.84 136.67 11.65L136.65 11.63L139.21 11.44L139.30 11.53Q142.43 11.46 145.85 11.88L145.74 11.77L145.76 11.79Q149.59 12.35 150.55 15.58L150.56 15.59L150.43 15.47Q149.57 16.55 147.48 18.38ZM148.85 20.55L148.86 20.45L148.95 20.54Q150.02 19.32 151.88 17.34L152.05 17.50L152.04 17.49Q151.66 16.47 150.68 14.76L150.57 14.65L150.72 14.80Q149.51 12.11 145.70 11.47L145.66 11.42L145.59 11.36Q143.51 11.28 139.20 10.98L139.27 11.04L136.67 11.26L136.60 11.20Q131.37 11.33 128.78 13.31L128.73 13.25L128.85 13.38Q127.41 14.95 127.30 18.03L127.34 18.07L127.38 18.12Q127.46 17.73 127.68 23.22L127.69 23.22L127.52 23.05Q127.57 24.44 127.65 27.18L127.61 27.14L127.75 27.28Q127.95 31.74 129.70 33.68L129.55 33.53L129.63 33.61Q129.91 34.35 130.79 35.23L130.82 35.26L130.85 35.29Q133.73 37.14 139.25 37.48L139.25 37.49L142.19 37.72L142.09 37.63Q143.83 37.88 145.85 37.76L145.87 37.78L145.85 37.77Q147.19 37.59 149.29 37.05L149.23 37.00L149.36 37.12Q151.19 36.52 151.16 34.20L151.26 34.31L151.17 34.22Q151.29 33.07 150.22 30.29L150.22 30.29L150.26 30.33Q149.83 29.29 149.29 28.49L149.23 28.43L149.36 28.56Q149.97 28.60 151.15 28.79L151.20 28.84L151.12 28.76Q150.83 25.15 150.86 24.47L150.82 24.42L150.90 24.50Q150.49 24.48 150.07 24.44L150.09 24.45L150.04 24.41Q149.61 24.32 149.23 24.40L149.30 24.46L149.21 24.37Q149.34 23.40 149.42 22.34L149.28 22.19L149.32 22.24Q143.12 22.81 136.84 22.70L136.88 22.74L136.75 22.61Q136.77 23.51 136.77 24.42L136.87 24.53L136.88 26.28L136.84 26.24Q137.23 26.25 137.64 26.21L137.77 26.33L137.77 26.34Q138.07 26.21 138.52 26.21L138.58 26.27L138.52 26.21Q138.43 26.57 138.46 27.07L138.61 27.21L138.60 27.20Q138.63 27.69 138.59 28.18L138.58 28.17L138.57 28.16Q139.51 28.04 140.54 28.00L140.55 28.01L140.68 28.14Q141.69 28.12 142.72 28.16L142.72 28.16L142.75 28.19Q143.72 28.37 144.60 28.75L144.50 28.65L144.50 28.69L144.52 28.70Q144.86 30.41 143.18 31.33L143.04 31.18L142.99 31.14Q141.42 32.16 139.71 32.16L139.79 32.23L139.74 32.19Q135.94 32.23 133.50 30.48L133.49 30.47L133.45 30.43Q132.39 28.30 132.54 25.75L132.60 25.81L132.71 25.92Q132.89 21.00 134.74 19.00L134.74 19.00L134.74 19.00Q136.62 17.04 141.31 16.74L141.22 16.65L141.31 16.74Q144.92 16.47 146.87 18.26L146.98 18.38L146.91 18.31Q147.03 18.46 147.15 18.66L147.12 18.63L147.13 18.53L147.25 18.64Q147.83 19.34 148.40 20.45L148.32 20.37L148.81 20.51Z"/><path fill="#333" d="M53.42 35.25L53.32 35.15L53.35 35.18Q49.88 35.29 48.24 34.76L48.30 34.82L48.29 34.81Q46.32 34.17 46.01 30.78L45.96 30.72L47.35 29.61L47.47 29.72Q48.15 29.14 48.91 28.65L48.96 28.70L48.94 28.68Q48.65 30.56 50.25 31.78L50.36 31.89L50.37 31.90Q51.59 32.85 53.72 32.66L53.79 32.73L53.71 32.65Q58.00 32.14 57.81 28.60L57.79 28.58L57.90 28.70Q57.76 26.46 55.14 25.25L55.11 25.22L55.08 25.19Q52.27 24.17 49.91 22.95L49.97 23.02L49.86 22.90Q47.40 21.66 46.41 16.98L46.33 16.90L46.43 17.00Q46.30 16.52 46.19 15.76L46.16 15.73L46.13 15.71Q46.14 15.03 46.22 14.46L46.13 14.38L46.09 14.33Q46.33 12.83 47.59 12.37L47.45 12.23L47.62 12.40Q49.89 11.39 53.89 11.58L53.94 11.64L54.00 11.70Q55.85 11.84 56.65 11.91L56.57 11.83L56.58 11.84Q58.13 12.09 59.19 12.55L59.15 12.51L59.04 12.40Q61.13 12.85 61.36 15.33L61.44 15.41L61.52 15.49Q60.42 16.14 58.21 17.47L58.24 17.50L58.21 17.47Q57.73 14.40 53.35 14.40L53.39 14.44L53.44 14.49Q51.40 14.35 50.41 15.03L50.49 15.12L50.45 15.08Q49.35 15.66 49.58 17.44L49.62 17.48L49.49 17.35Q49.91 19.72 52.88 21.24L52.77 21.13L52.85 21.21Q53.31 21.37 57.81 23.00L57.76 22.96L57.73 22.93Q60.46 24.52 60.88 28.90L60.81 28.83L60.85 28.87Q60.78 28.95 60.85 30.20L60.86 30.21L60.88 30.22Q61.11 33.16 59.54 34.26L59.44 34.16L59.38 34.10Q57.67 35.21 53.48 35.32ZM55.62 37.53L55.69 37.60L55.72 37.64Q57.25 37.79 59.23 37.79L59.10 37.66L59.07 37.63Q61.14 37.61 62.40 37.19L62.40 37.20L62.47 37.26Q63.76 36.50 63.69 34.71L63.64 34.67L63.56 34.58Q63.68 33.75 63.30 31.69L63.30 31.69L63.12 31.52Q62.37 26.99 60.27 25.13L60.27 25.13L60.27 25.12Q59.38 23.44 58.05 22.72L58.04 22.70L52.75 20.65L52.84 20.74Q52.43 20.48 51.97 20.26L51.93 20.22L51.96 19.97L51.81 19.48L51.78 19.45Q51.65 18.07 52.79 17.46L52.94 17.60L52.84 17.50Q53.61 16.95 55.33 16.76L55.40 16.83L55.41 16.84Q56.49 16.67 57.63 17.12L57.66 17.15L57.57 17.06Q57.60 17.13 57.79 17.97L57.84 18.02L57.81 17.98Q58.08 17.91 58.57 17.68L58.64 17.75L58.48 17.59Q59.23 18.52 59.34 19.67L59.39 19.72L59.42 19.75Q59.54 19.75 63.20 17.16L63.18 17.14L63.18 17.15Q62.82 14.43 61.37 13.74L61.39 13.76L61.37 13.74Q60.77 12.46 59.33 11.92L59.31 11.91L59.46 12.06Q57.05 11.13 53.85 11.13L53.94 11.22L54.02 11.30Q48.93 11.12 47.06 11.81L47.24 11.99L47.07 11.81Q45.78 12.31 45.67 13.99L45.61 13.93L45.65 13.97Q45.63 14.52 46.05 16.73L46.13 16.81L46.15 16.83Q46.81 20.57 48.98 22.82L48.86 22.70L48.94 22.78Q49.79 24.55 51.30 25.23L51.25 25.19L51.16 25.10Q52.84 25.96 56.76 27.52L56.59 27.35L56.54 27.34L57.35 27.84L57.25 27.78L57.27 27.80Q57.56 28.35 57.60 28.70L57.56 28.66L57.61 28.71Q57.60 32.08 53.67 32.24L53.75 32.32L53.80 32.36Q52.56 32.30 51.26 31.92L51.24 31.90L51.25 31.91Q50.88 31.04 50.88 30.32L50.94 30.38L50.94 30.37Q50.99 30.16 51.02 29.89L50.98 29.85L51.04 29.91Q50.56 30.07 49.76 30.56L49.74 30.55L49.84 30.64Q49.26 29.46 49.41 28.09L49.42 28.09L49.48 28.15Q47.26 29.21 45.66 30.62L45.74 30.70L45.66 30.62Q45.67 31.39 45.75 32.42L45.82 32.49L45.74 32.41Q46.11 34.19 47.40 34.95L47.41 34.96L47.42 34.96Q48.63 36.78 51.18 37.16L51.14 37.13L51.18 37.17Q52.87 37.52 55.80 37.72Z"/><path d="M4 19 C100 9,112 23,193 10" stroke="#444" fill="none"/><path fill="#111" d="M174.69 32.88L174.77 32.95L174.73 32.91Q175.04 33.91 175.57 35.93L175.58 35.94L175.55 35.90Q171.39 34.64 166.79 34.91L166.70 34.82L166.63 34.75Q162.14 35.09 158.14 37.07L158.09 37.03L158.15 37.09Q158.42 36.43 158.45 36.51L158.35 36.41L158.44 36.50Q162.19 32.56 166.11 28.14L166.06 28.09L166.04 28.07Q170.52 23.14 171.70 18.46L171.60 18.36L171.69 18.46Q172.08 16.64 170.81 15.46L170.93 15.58L170.85 15.50Q169.61 14.35 167.82 14.50L167.72 14.41L167.85 14.54Q167.52 14.52 167.18 14.52L167.13 14.47L167.03 14.36Q165.53 14.39 164.28 15.30L164.37 15.40L164.37 15.40Q162.93 16.63 163.16 19.29L163.25 19.38L163.28 19.41Q161.43 19.01 160.21 18.55L160.20 18.53L160.31 18.65Q159.98 17.10 159.90 15.65L159.96 15.71L160.05 15.80Q159.97 14.16 160.58 13.02L160.48 12.92L160.48 12.91Q162.23 11.51 165.58 11.51L165.60 11.53L167.44 11.61L167.37 11.55Q169.75 11.68 170.70 11.79L170.60 11.70L170.66 11.75Q175.01 12.18 175.27 14.61L175.18 14.52L175.25 14.59Q175.29 15.13 175.22 15.93L175.24 15.95L175.30 16.01Q175.20 16.60 175.05 17.28L175.11 17.34L175.08 17.31Q173.47 25.45 165.89 32.30L165.89 32.30L165.85 32.26Q167.23 32.08 168.60 32.08L168.56 32.04L168.60 32.08Q171.85 32.09 174.71 32.89ZM174.22 12.15L174.21 12.14L174.15 12.08Q172.55 11.43 170.84 11.36L170.76 11.28L167.48 11.24L167.47 11.22Q162.88 10.83 160.68 11.93L160.70 11.96L160.77 12.03Q159.64 13.33 159.64 15.39L159.73 15.48L159.62 15.37Q159.70 16.13 160.00 18.95L159.94 18.89L160.05 19.00Q160.46 19.11 161.64 19.41L161.76 19.53L161.67 20.47L161.68 20.47Q161.62 20.91 161.69 21.44L161.72 21.46L161.81 21.56Q163.06 21.66 165.53 21.89L165.58 21.94L165.53 21.88Q165.57 21.58 165.57 21.24L165.55 21.22L165.46 21.13Q165.42 19.27 166.64 17.92L166.62 17.90L166.65 17.92Q167.81 16.52 169.60 16.63L169.71 16.74L169.61 16.64Q170.47 16.77 171.23 16.93L171.30 17.00L171.14 16.84Q171.35 17.31 171.42 17.73L171.45 17.76L171.49 17.80Q171.52 18.20 171.44 18.55L171.37 18.48L171.30 18.41Q170.21 23.33 165.79 28.17L165.61 27.98L165.71 28.08Q163.55 30.30 158.10 36.35L158.21 36.45L158.16 36.41Q157.91 37.19 157.57 37.76L157.54 37.73L157.62 37.81Q159.11 36.82 160.63 36.29L160.78 36.44L160.66 36.32Q159.89 36.84 158.94 38.33L159.03 38.42L159.00 38.39Q158.95 38.80 158.83 39.14L158.87 39.17L158.75 39.05Q163.64 37.01 169.12 37.20L169.19 37.27L169.17 37.25Q174.75 37.31 179.32 39.67L179.40 39.75L178.47 37.69L178.37 37.58Q177.70 36.23 177.44 35.43L177.48 35.47L177.44 35.43Q176.68 34.98 175.46 34.56L175.53 34.63L175.57 34.67Q175.41 33.94 175.03 32.57L175.04 32.58L174.97 32.51Q172.75 31.92 170.46 31.73L170.61 31.88L170.52 31.79Q175.12 27.14 176.65 18.88L176.68 18.92L176.96 16.11L176.89 16.05Q176.78 14.22 175.56 13.53L175.70 13.67L175.60 13.61L175.66 13.67Q175.56 13.53 175.48 13.53L175.47 13.52L175.49 13.54Q175.26 12.69 174.15 12.08Z"/><path fill="#333" d="M79.14 25.62L79.21 25.70L79.20 25.69Q79.14 25.63 82.53 25.59L82.52 25.58L82.48 25.55Q84.68 25.46 85.75 25.50L85.77 25.52L85.77 25.52Q84.73 22.65 82.29 17.01L82.31 17.04L82.48 17.20Q81.79 18.50 80.75 21.35L80.72 21.33L80.79 21.40Q79.74 24.24 79.17 25.65ZM86.99 28.11L87.02 28.14L87.09 28.21Q84.72 28.08 82.51 28.12L82.44 28.06L82.49 28.11Q80.29 28.19 78.01 28.38L78.00 28.37L77.88 28.25Q76.50 31.82 73.26 36.00L73.19 35.93L73.20 35.95Q70.58 36.52 69.21 37.01L69.32 37.13L69.15 36.96Q74.34 31.37 79.02 18.01L79.06 18.05L79.13 18.12Q80.24 14.55 81.61 11.31L81.57 11.27L81.67 11.37Q81.92 11.32 82.26 11.32L82.41 11.46L83.12 11.45L83.03 11.36Q83.70 12.63 88.53 24.28L88.61 24.36L88.67 24.42Q91.96 32.29 95.96 36.43L95.84 36.31L95.98 36.45Q95.48 36.33 91.60 35.46L91.44 35.30L91.45 35.31Q88.89 32.18 86.91 28.03ZM91.40 35.68L91.40 35.68L92.02 35.80L91.97 35.76Q92.25 35.81 92.56 35.93L92.62 35.98L92.62 35.98Q93.03 36.43 94.85 38.45L94.85 38.44L94.76 38.36Q98.45 39.31 100.85 40.33L100.85 40.33L100.78 40.26Q95.29 35.72 91.29 27.73L91.33 27.77L91.37 27.81Q89.74 24.50 88.29 20.54L88.11 20.36L85.39 12.88L85.38 12.87Q85.30 13.13 85.07 13.13L84.98 13.04L84.53 13.12L84.40 12.99Q84.07 12.36 83.35 10.99L83.25 10.89L83.36 11.00Q82.79 10.97 82.33 10.93L82.36 10.96L82.36 10.96Q81.91 10.92 81.38 10.92L81.38 10.93L81.37 10.92Q80.06 14.93 76.17 25.10L76.16 25.08L76.12 25.04Q72.93 32.94 68.29 37.73L68.41 37.85L68.28 37.72Q69.36 37.36 71.38 36.75L71.44 36.81L71.33 36.70Q70.53 37.54 68.97 39.33L69.12 39.47L69.00 39.35Q70.68 38.68 74.60 37.92L74.72 38.04L74.69 38.01Q78.21 33.75 79.77 30.52L79.62 30.37L79.75 30.50Q81.44 30.33 83.76 30.37L83.76 30.36L83.77 30.38Q86.45 30.35 87.82 30.42L87.81 30.41L87.79 30.40Q89.17 32.88 91.53 35.81ZM83.68 21.00L83.80 21.11L83.67 20.99Q84.67 23.21 85.44 25.30L85.37 25.24L81.96 25.13L82.06 25.23Q82.73 23.89 83.80 21.11Z"/><path d="M12 35 C101 13,112 3,196 19" stroke="#999" fill="none"/><path fill="#222" d="M22.49 25.55L22.56 25.62L22.58 25.64Q22.62 25.68 26.00 25.64L25.91 25.55L26.06 25.69Q28.20 25.55 29.27 25.59L29.34 25.66L29.36 25.68Q28.17 22.66 25.73 17.03L25.87 17.16L25.83 17.13Q25.22 18.50 24.18 21.35L24.20 21.38L24.20 21.37Q23.07 24.15 22.50 25.56ZM30.34 28.03L30.33 28.02L30.45 28.14Q28.11 28.05 25.90 28.09L25.87 28.06L25.84 28.02Q23.58 28.05 21.30 28.24L21.37 28.31L21.48 28.42Q19.87 31.77 16.64 35.95L16.55 35.87L16.65 35.96Q14.01 36.52 12.64 37.02L12.59 36.97L12.59 36.97Q17.81 31.41 22.49 18.05L22.53 18.09L22.59 18.15Q23.72 14.60 25.09 11.36L25.17 11.44L25.11 11.38Q25.48 11.45 25.83 11.45L25.72 11.34L26.53 11.43L26.45 11.35Q27.26 12.77 32.10 24.42L31.97 24.29L32.04 24.36Q35.35 32.25 39.35 36.40L39.39 36.43L39.37 36.41Q38.79 36.21 34.91 35.34L34.89 35.32L34.92 35.35Q32.37 32.24 30.39 28.09ZM34.82 35.67L34.88 35.73L35.53 35.88L35.52 35.88Q35.64 35.77 35.95 35.89L35.94 35.88L36.04 35.98Q36.42 36.40 38.25 38.41L38.17 38.33L38.13 38.29Q41.74 39.17 44.14 40.19L44.17 40.22L44.29 40.34Q38.77 35.78 34.78 27.78L34.68 27.69L34.78 27.79Q33.11 24.44 31.66 20.48L31.61 20.43L28.99 13.05L28.80 12.86Q28.58 12.99 28.35 12.99L28.37 13.00L27.81 12.97L27.77 12.94Q27.55 12.41 26.82 11.04L26.83 11.05L26.78 10.99Q26.32 11.07 25.86 11.03L25.91 11.07L25.85 11.01Q25.26 10.84 24.73 10.84L24.88 11.00L24.77 10.89Q23.40 14.85 19.52 25.01L19.53 25.02L19.48 24.98Q16.45 33.03 11.81 37.82L11.68 37.70L11.79 37.80Q12.78 37.35 14.80 36.74L14.90 36.84L14.78 36.72Q13.96 37.54 12.40 39.33L12.53 39.46L12.45 39.38Q14.23 38.79 18.15 38.03L18.16 38.04L18.11 37.99Q21.59 33.71 23.15 30.47L23.17 30.50L23.15 30.47Q24.85 30.30 27.17 30.34L27.23 30.41L27.16 30.33Q29.90 30.37 31.27 30.45L31.32 30.50L31.18 30.35Q32.54 32.82 34.90 35.75ZM27.07 20.95L27.12 21.00L27.22 21.11Q28.08 23.18 28.84 25.27L28.83 25.26L25.57 25.31L25.47 25.22Q26.14 23.87 27.21 21.09Z"/><path fill="#222" d="M102.11 9.29L102.09 9.27L102.16 9.34Q106.03 11.95 110.79 12.18L110.61 12.01L110.71 12.10Q115.20 12.14 119.46 10.39L119.59 10.51L119.57 10.50Q119.27 11.00 118.51 13.78L118.49 13.75L118.62 13.89Q115.87 14.91 112.90 15.06L112.83 14.99L112.96 15.11Q109.84 15.12 106.95 14.40L107.04 14.49L107.08 14.53Q107.75 18.12 107.94 21.78L107.84 21.68L107.83 21.67Q109.93 21.99 111.53 21.95L111.56 21.97L111.39 21.81Q112.64 21.83 115.03 21.72L115.19 21.88L115.10 21.78Q115.07 22.44 115.07 23.13L115.16 23.22L115.13 24.52L115.13 24.52Q112.62 24.41 107.83 24.49L107.86 24.52L107.84 24.50Q107.80 28.57 107.23 32.57L107.31 32.65L107.23 32.57Q109.94 32.00 112.68 32.12L112.66 32.10L112.64 32.08Q115.33 32.15 117.92 32.98L118.02 33.08L117.89 32.95Q117.98 33.77 118.25 34.53L118.37 34.65L118.71 36.06L118.69 36.03Q115.56 34.81 112.13 34.81L112.06 34.73L112.20 34.88Q107.21 34.76 102.95 37.00L102.93 36.99L103.06 37.12Q105.41 30.33 105.15 23.21L105.06 23.13L105.03 23.10Q104.81 15.99 102.15 9.33ZM102.49 37.77L102.46 37.74L102.57 37.85Q103.78 37.08 104.54 36.73L104.42 36.61L104.54 36.73Q104.40 37.55 103.83 39.07L103.79 39.03L103.82 39.06Q108.25 36.98 113.32 37.25L113.42 37.35L113.42 37.35Q118.44 37.50 122.44 40.20L122.60 40.36L122.46 40.23Q121.25 37.64 120.57 35.70L120.70 35.84L120.57 35.71Q119.69 35.21 118.70 34.87L118.63 34.80L118.64 34.80Q118.37 33.54 118.22 32.74L118.13 32.66L118.21 32.73Q115.06 31.68 111.90 31.68L112.00 31.79L111.81 31.59Q110.86 31.78 109.72 31.90L109.71 31.89L109.55 31.73Q109.77 30.58 109.81 29.36L109.72 29.27L109.91 26.87L109.87 26.83Q111.60 26.67 113.39 26.70L113.48 26.79L113.55 26.86Q115.33 26.85 117.12 27.01L117.15 27.03L117.18 27.07Q116.94 25.95 116.94 25.00L117.00 25.06L117.10 23.25L116.20 23.23L116.20 23.22Q115.73 23.25 115.27 23.25L115.25 23.23L115.35 23.33Q115.31 22.61 115.47 21.31L115.47 21.32L115.41 21.26Q113.80 21.48 112.62 21.51L112.71 21.60L112.80 21.69Q111.69 21.54 109.87 21.46L109.98 21.58L109.95 21.55Q109.81 20.08 109.62 17.26L109.69 17.33L109.59 17.23Q110.76 17.48 111.75 17.48L111.68 17.42L111.58 17.32Q116.32 17.33 120.01 15.43L120.14 15.56L120.17 15.59Q120.64 13.13 121.52 10.92L121.60 11.00L121.48 10.88Q120.27 11.84 119.43 12.18L119.35 12.10L119.36 12.12Q119.68 11.36 120.13 9.80L120.11 9.78L120.14 9.81Q115.57 12.02 110.70 11.71L110.66 11.67L110.63 11.64Q105.28 11.28 101.44 8.43L101.44 8.43L101.53 8.52Q104.27 15.33 104.57 22.95L104.74 23.12L104.75 23.13Q104.92 30.91 102.41 37.68Z"/></svg>