<svg xmlns="http://www.w3.org/2000/svg" width="200" height="40" viewBox="0,0,200,40"><path fill="#222" d="M53.88 35.28L53.70 35.10L51.31 28.26L51.44 28.38Q46.99 15.71 41.05 9.31L41.07 9.33L41.13 9.39Q43.19 10.51 45.78 11.12L45.78 11.11L45.61 10.94Q50.90 17.38 55.24 30.13L55.07 29.96L55.22 30.11Q58.30 22.04 58.99 20.44L58.88 20.33L58.90 20.35Q61.21 14.67 64.03 11.35L64.13 11.46L64.17 11.49Q66.13 11.02 68.75 10.14L68.88 10.27L68.84 10.23Q64.24 14.80 61.20 22.04L61.08 21.92L61.09 21.93Q59.79 25.69 56.09 35.21L56.07 35.19L56.16 35.28Q55.47 35.15 54.90 35.11L54.87 35.09L54.89 35.10Q54.43 35.21 53.85 35.25ZM58.88 37.69L58.78 37.58L58.87 37.68Q61.60 27.61 63.16 23.58L63.15 23.57L63.16 23.59Q66.11 15.83 70.52 10.96L70.49 10.92L70.54 10.97Q69.53 11.38 67.44 12.10L67.43 12.09L68.59 10.78L68.61 10.80Q69.26 10.19 69.87 9.55L69.75 9.42L69.81 9.48Q67.06 10.54 64.05 11.11L63.99 11.05L64.00 11.06Q59.51 16.27 55.62 27.73L55.67 27.78L55.78 27.89Q52.00 17.63 48.80 13.25L48.93 13.39L48.79 13.25Q48.48 13.24 47.60 13.09L47.61 13.10L47.50 12.98Q47.26 12.60 45.67 10.54L45.74 10.61L45.72 10.59Q42.85 9.97 40.14 8.56L40.13 8.55L40.09 8.50Q46.76 15.63 51.14 28.42L51.02 28.31L51.18 28.46Q52.37 32.10 53.55 35.68L53.42 35.54L53.40 35.52Q53.96 35.77 54.80 35.66L54.78 35.65L54.65 35.52Q55.09 36.30 55.77 37.63L55.83 37.69L55.64 37.50Q56.52 37.46 57.24 37.53L57.23 37.52L57.39 37.69Q58.09 37.66 58.85 37.66Z"/><path fill="#333" d="M22.62 25.68L22.65 25.70L22.63 25.69Q22.57 25.63 25.96 25.59L25.98 25.61L26.04 25.68Q28.11 25.46 29.18 25.50L29.32 25.64L29.22 25.54Q28.29 22.78 25.85 17.15L25.88 17.18L25.73 17.03Q25.21 18.48 24.16 21.34L24.25 21.42L24.15 21.33Q23.20 24.28 22.63 25.69ZM30.34 28.03L30.46 28.15L30.51 28.20Q28.04 27.98 25.83 28.01L25.98 28.17L25.99 28.17Q23.60 28.07 21.32 28.26L21.37 28.31L21.30 28.24Q19.82 31.71 16.58 35.90L16.57 35.88L16.69 36.01Q14.04 36.55 12.67 37.04L12.76 37.14L12.72 37.09Q17.84 31.45 22.52 18.08L22.41 17.97L22.45 18.01Q23.71 14.59 25.08 11.35L25.09 11.36L25.11 11.38Q25.37 11.33 25.71 11.33L25.75 11.37L26.47 11.37L26.51 11.41Q27.13 12.64 31.97 24.29L31.98 24.30L32.00 24.32Q35.31 32.20 39.31 36.35L39.28 36.33L39.41 36.45Q38.80 36.23 34.92 35.35L35.00 35.43L34.97 35.40Q32.30 32.17 30.32 28.02ZM34.81 35.66L34.86 35.71L35.46 35.81L35.52 35.87Q35.74 35.87 36.04 35.98L36.11 36.04L36.00 35.94Q36.28 36.25 38.11 38.27L38.15 38.31L38.24 38.40Q41.76 39.19 44.16 40.22L44.24 40.29L44.16 40.22Q38.76 35.77 34.77 27.78L34.67 27.67L34.74 27.75Q33.09 24.42 31.64 20.46L31.59 20.41L28.99 13.05L28.86 12.92Q28.55 12.95 28.32 12.95L28.37 13.00L27.95 13.12L27.87 13.04Q27.49 12.35 26.77 10.98L26.84 11.06L26.86 11.07Q26.23 10.98 25.78 10.94L25.90 11.07L25.72 10.89Q25.45 11.04 24.92 11.04L24.90 11.02L24.92 11.03Q23.42 14.87 19.54 25.03L19.47 24.97L19.58 25.08Q16.48 33.05 11.84 37.85L11.69 37.70L11.84 37.85Q12.79 37.36 14.81 36.75L14.90 36.84L14.73 36.67Q13.99 37.57 12.43 39.36L12.39 39.32L12.51 39.44Q14.12 38.69 18.05 37.93L18.09 37.97L18.05 37.94Q21.50 33.62 23.06 30.38L23.08 30.40L23.03 30.36Q24.83 30.29 27.16 30.33L27.26 30.43L27.10 30.27Q29.94 30.41 31.31 30.49L31.22 30.39L31.19 30.37Q32.54 32.82 34.90 35.75ZM27.08 20.96L27.05 20.94L27.23 21.12Q28.05 23.16 28.82 25.25L28.77 25.21L25.51 25.26L25.45 25.20Q26.12 23.85 27.19 21.07Z"/><path fill="#333" d="M85.02 34.76L85.19 34.94L83.22 34.91L83.07 34.75Q82.26 34.90 81.31 35.01L81.29 34.99L81.28 34.98Q81.81 28.74 81.81 24.74L81.73 24.66L81.74 24.66Q77.86 18.08 70.21 9.41L70.20 9.40L70.31 9.50Q72.10 10.49 75.45 11.29L75.29 11.13L75.41 11.26Q80.36 16.74 83.37 21.95L83.42 22.01L83.39 21.97Q86.46 16.48 90.84 11.46L90.84 11.46L90.89 11.51Q93.16 10.96 95.67 10.17L95.82 10.31L95.71 10.20Q89.64 16.27 84.77 24.69L84.89 24.81L84.82 24.74Q84.79 31.75 85.10 34.84ZM94.17 12.24L96.91 9.42L96.99 9.50Q93.74 10.51 90.62 10.97L90.69 11.04L90.64 11.00Q86.53 15.82 83.71 20.93L83.56 20.78L83.56 20.78Q81.46 17.16 78.27 13.28L78.25 13.26L78.24 13.25Q78.00 13.28 77.51 13.20L77.62 13.31L77.60 13.29Q76.89 12.47 75.37 10.80L75.28 10.71L75.34 10.77Q72.03 10.08 69.06 8.52L69.09 8.55L69.01 8.47Q76.70 16.93 81.46 24.85L81.53 24.92L81.39 24.78Q81.45 31.27 80.84 35.42L80.68 35.26L80.73 35.31Q81.47 35.29 82.92 35.18L82.88 35.13L82.88 36.17L83.01 36.29Q82.95 36.69 82.87 37.22L82.86 37.21L82.91 37.26Q86.46 37.27 88.22 37.46L88.24 37.49L88.13 37.38Q87.01 32.83 86.89 26.85L86.77 26.73L86.73 26.68Q91.25 18.38 97.80 11.03L97.80 11.03L94.26 12.33Z"/><path fill="#333" d="M167.71 25.42L167.68 25.39L167.77 25.48Q164.33 31.86 160.90 35.82L160.80 35.72L160.77 35.69Q159.04 36.24 156.60 37.11L156.58 37.09L156.57 37.08Q161.42 31.43 166.18 23.01L166.16 22.99L166.20 23.03Q161.63 16.10 155.65 9.70L155.56 9.61L155.57 9.62Q158.54 10.89 160.83 11.38L160.79 11.34L160.75 11.30Q165.37 16.49 167.81 20.45L167.80 20.45L167.88 20.53Q170.43 16.15 174.36 11.74L174.28 11.66L174.35 11.73Q175.89 11.37 179.09 10.61L179.18 10.70L179.02 10.54Q172.93 16.97 169.47 22.91L169.49 22.93L169.62 23.06Q174.69 31.64 179.07 36.20L179.17 36.31L179.17 36.31Q176.53 35.46 174.44 35.23L174.53 35.32L174.36 35.16Q171.74 32.34 167.81 25.52ZM174.45 35.66L174.30 35.52L174.35 35.56Q174.60 35.54 175.05 35.66L175.15 35.75L175.10 35.70Q175.88 36.44 177.40 38.04L177.35 37.99L177.45 38.09Q180.70 38.79 183.75 40.17L183.90 40.31L183.85 40.27Q176.75 33.70 171.65 24.94L171.60 24.89L171.51 24.80Q175.25 18.15 181.15 11.30L181.26 11.41L181.19 11.34Q179.79 12.03 177.62 12.56L177.54 12.49L177.67 12.62Q178.50 11.65 180.25 9.87L180.29 9.90L180.27 9.88Q177.77 10.66 174.08 11.23L174.26 11.41L174.16 11.31Q170.64 15.03 168.05 19.33L168.22 19.50L168.18 19.46Q167.27 17.86 166.09 16.38L165.99 16.27L163.86 13.50L163.45 13.47L163.33 13.35Q163.18 13.35 162.95 13.28L163.09 13.41L162.92 13.24Q162.29 12.47 160.81 10.91L160.86 10.96L160.82 10.92Q157.08 10.10 154.49 8.73L154.36 8.60L154.51 8.76Q161.25 16.03 165.82 23.07L165.67 22.92L165.70 22.95Q161.24 31.17 155.50 37.76L155.49 37.76L155.47 37.74Q156.78 37.06 158.91 36.49L158.89 36.47L157.78 38.10L157.63 37.95Q157.71 38.03 156.37 39.36L156.37 39.35L156.29 39.28Q159.35 38.26 162.51 37.77L162.53 37.79L162.47 37.73Q166.53 33.27 169.12 28.51L169.09 28.47L169.14 28.52Q171.60 32.66 174.30 35.51Z"/><path fill="#444" d="M112.69 27.18L103.33 17.06L103.46 17.18Q104.27 20.86 104.27 24.59L104.33 24.65L104.18 24.49Q104.26 30.56 102.21 36.11L102.26 36.17L102.20 36.10Q101.15 36.38 98.90 37.15L98.83 37.08L98.94 37.19Q101.78 31.42 101.78 24.72L101.69 24.63L101.63 24.58Q101.77 16.07 97.28 8.65L97.31 8.68L97.29 8.66Q97.62 8.72 98.31 9.14L98.30 9.14L98.23 9.07Q110.52 20.48 118.36 29.73L118.31 29.68L118.34 29.71Q118.02 27.26 118.02 24.82L118.04 24.84L117.88 24.68Q117.92 17.49 120.43 11.28L120.51 11.36L120.55 11.40Q122.89 10.88 124.49 10.20L124.43 10.14L124.48 10.19Q121.16 16.34 120.85 23.50L120.78 23.43L120.79 23.44Q120.39 30.69 123.36 36.86L123.43 36.93L123.35 36.85Q122.82 36.82 122.40 36.63L122.49 36.72L122.42 36.65Q117.81 32.65 112.60 27.09L112.64 27.13ZM126.05 40.12L126.15 40.22L126.07 40.14Q126.44 40.21 126.86 40.40L126.91 40.45L127.77 40.81L127.88 40.93Q122.58 33.84 122.58 24.47L122.69 24.58L122.62 24.51Q122.66 17.32 125.98 11.08L125.97 11.07L125.91 11.01Q125.25 11.22 123.84 11.83L123.83 11.83L123.96 11.95Q124.34 11.12 125.18 9.55L125.15 9.53L125.06 9.44Q122.70 10.42 120.26 10.99L120.23 10.97L120.14 10.87Q117.64 17.47 117.64 24.90L117.55 24.81L117.62 24.88Q117.64 26.76 117.83 28.74L117.83 28.74L117.79 28.70Q113.20 23.08 108.44 18.47L108.45 18.49L98.35 8.77L98.20 8.62Q97.73 8.41 96.51 7.84L96.39 7.72L96.47 7.80Q101.39 15.57 101.39 24.67L101.34 24.62L101.36 24.64Q101.28 31.68 98.20 37.70L98.32 37.83L98.22 37.72Q98.61 37.69 100.24 37.08L100.31 37.15L100.25 37.09Q99.84 37.78 99.00 39.26L99.10 39.37L99.06 39.33Q100.36 38.76 103.83 37.96L103.82 37.95L103.92 38.05Q106.18 31.86 106.18 24.67L106.14 24.63L106.28 24.77Q106.11 22.50 105.88 20.37L105.95 20.44L105.90 20.39Q117.52 33.34 126.13 40.20Z"/><path d="M12 29 C110 37,117 7,185 6" stroke="#333" fill="none"/><path d="M12 13 C86 8,91 11,187 26" stroke="#111" fill="none"/><path fill="#222" d="M140.84 15.23L140.81 15.20L140.74 15.13Q136.43 15.12 132.74 14.13L132.74 14.13L132.76 14.15Q134.24 18.67 134.43 23.51L134.44 23.52L134.41 23.49Q134.62 28.30 133.40 32.91L133.47 32.98L133.37 32.88Q136.26 32.35 139.77 32.20L139.81 32.23L139.80 32.23Q143.57 31.89 145.36 29.45L145.47 29.56L145.37 29.46Q146.90 27.41 147.09 23.30L147.13 23.34L147.17 23.38Q147.13 21.51 146.67 19.80L146.80 19.92L146.76 19.88Q145.39 15.06 140.67 15.06ZM128.84 37.15L128.89 37.19L128.86 37.17Q131.71 31.45 131.71 24.75L131.73 24.76L131.65 24.69Q131.72 16.23 127.41 9.22L127.37 9.18L127.35 9.15Q132.76 11.98 141.02 12.17L140.90 12.04L140.98 12.13Q149.88 12.35 150.22 19.51L150.24 19.53L150.17 19.45Q150.24 22.11 150.20 23.55L150.22 23.57L150.16 23.51Q150.07 28.18 149.23 30.35L149.33 30.45L149.32 30.44Q148.89 31.53 148.12 32.37L148.21 32.45L148.05 32.30Q146.66 33.80 144.03 34.29L144.22 34.48L144.10 34.36Q142.65 34.78 139.65 35.01L139.66 35.02L139.56 34.92Q133.53 35.48 128.93 37.23ZM146.78 37.04L146.75 37.01L146.66 36.92Q149.44 36.61 151.07 35.13L151.11 35.16L151.11 35.16Q152.38 33.46 152.34 30.72L152.28 30.66L152.29 30.67Q152.26 29.27 152.11 25.77L152.24 25.90L151.81 21.28L151.83 21.31Q151.58 18.96 150.63 16.87L150.68 16.91L150.61 16.85Q150.07 15.88 149.38 15.24L149.46 15.32L149.50 15.21L149.50 15.20Q147.71 12.16 143.30 11.78L143.36 11.84L143.25 11.74Q140.64 11.68 133.64 10.95L133.68 11.00L133.58 10.90Q130.41 10.54 126.72 8.52L126.66 8.46L126.63 8.44Q131.55 15.91 131.55 24.67L131.57 24.68L131.57 24.68Q131.40 31.52 128.05 37.68L128.10 37.73L128.10 37.74Q128.83 37.51 130.16 37.02L130.19 37.05L130.21 37.07Q129.74 37.77 128.86 39.26L128.91 39.31L128.90 39.29Q131.96 38.24 135.31 37.75L135.31 37.75L135.35 37.79Q137.33 37.37 140.98 37.26L140.97 37.24L141.12 37.39Q145.02 37.30 146.85 37.11ZM146.76 23.35L146.74 23.33L146.80 23.39Q146.38 31.35 139.68 31.73L139.64 31.69L139.66 31.71Q137.85 31.95 135.79 32.22L135.76 32.18L135.80 32.22Q136.43 28.29 136.43 24.63L136.50 24.71L136.34 24.55Q136.49 21.00 135.76 17.15L135.58 16.97L135.68 17.07Q137.86 17.35 142.55 17.35L142.74 17.54L142.71 17.52Q143.93 17.21 145.57 18.16L145.57 18.17L145.69 18.29Q146.99 20.58 146.84 23.43Z"/></svg>