<svg xmlns="http://www.w3.org/2000/svg" width="200" height="40" viewBox="0,0,200,40"><path fill="#333" d="M79.19 25.68L79.05 25.54L79.09 25.58Q79.08 25.56 82.46 25.53L82.54 25.60L82.52 25.58Q84.85 25.63 85.92 25.66L85.87 25.62L85.79 25.53Q84.77 22.69 82.33 17.05L82.37 17.09L82.38 17.10Q81.86 18.57 80.82 21.42L80.76 21.37L80.66 21.27Q79.78 24.28 79.20 25.69ZM86.91 28.03L86.96 28.08L87.03 28.15Q84.73 28.10 82.53 28.14L82.42 28.04L82.59 28.21Q80.27 28.17 77.99 28.36L78.02 28.39L78.05 28.43Q76.45 31.77 73.21 35.96L73.24 35.99L73.21 35.95Q70.65 36.59 69.28 37.09L69.23 37.04L69.16 36.96Q74.29 31.32 78.97 17.96L79.13 18.12L79.00 17.98Q80.39 14.69 81.76 11.46L81.64 11.34L81.68 11.38Q82.07 11.46 82.41 11.46L82.42 11.48L83.01 11.34L83.12 11.44Q83.77 12.71 88.60 24.36L88.67 24.42L88.67 24.43Q91.91 32.23 95.91 36.38L95.99 36.46L95.82 36.30Q95.38 36.23 91.49 35.35L91.48 35.34L91.55 35.41Q88.97 32.26 86.99 28.11ZM91.47 35.75L91.50 35.78L91.96 35.75L92.06 35.85Q92.28 35.83 92.58 35.95L92.60 35.96L92.66 36.03Q92.92 36.33 94.75 38.35L94.66 38.25L94.85 38.44Q98.42 39.28 100.82 40.30L100.84 40.32L100.72 40.20Q95.36 35.79 91.36 27.80L91.28 27.72L91.21 27.65Q89.74 24.50 88.29 20.54L88.18 20.43L85.42 12.91L85.45 12.94Q85.12 12.96 84.89 12.96L85.07 13.13L84.35 12.94L84.35 12.94Q84.07 12.36 83.34 10.99L83.35 10.99L83.36 11.00Q82.76 10.93 82.30 10.90L82.42 11.01L82.36 10.95Q81.96 10.98 81.43 10.98L81.40 10.95L81.34 10.88Q79.91 14.79 76.03 24.95L76.17 25.09L76.15 25.07Q72.93 32.94 68.29 37.73L68.26 37.70L68.39 37.83Q69.34 37.33 71.35 36.72L71.44 36.81L71.38 36.75Q70.68 37.69 69.12 39.48L69.10 39.45L69.02 39.38Q70.83 38.83 74.75 38.07L74.79 38.11L74.68 38.00Q78.20 33.75 79.76 30.51L79.60 30.35L79.66 30.41Q81.43 30.32 83.75 30.35L83.84 30.45L83.71 30.31Q86.40 30.30 87.77 30.38L87.86 30.46L87.84 30.45Q89.09 32.80 91.45 35.73ZM83.78 21.09L83.76 21.07L83.77 21.08Q84.65 23.18 85.41 25.27L85.42 25.28L82.04 25.21L82.00 25.17Q82.74 23.89 83.80 21.11Z"/><path fill="#333" d="M162.97 28.04L162.98 28.05L162.80 27.88Q166.00 27.61 169.20 27.73L169.11 27.64L169.25 27.78Q169.15 25.17 169.15 22.77L169.11 22.73L169.16 22.78Q169.17 20.32 169.36 17.77L169.27 17.67L169.25 17.66Q168.05 19.38 162.83 27.91ZM172.68 35.21L172.74 35.27L172.76 35.28Q171.03 34.92 169.24 34.85L169.36 34.97L169.36 34.97Q169.11 32.55 168.99 30.07L169.01 30.08L169.00 30.08Q163.62 29.84 158.90 31.25L159.02 31.36L158.87 31.21Q159.14 30.88 159.33 29.89L159.25 29.81L159.28 29.84Q160.97 26.58 164.55 20.30L164.56 20.30L164.64 20.39Q167.54 15.52 170.97 11.64L170.91 11.58L170.98 11.66Q171.89 11.49 173.56 11.23L173.41 11.07L173.49 11.16Q171.51 17.52 171.51 24.56L171.69 24.74L171.50 24.54Q171.62 26.15 171.70 27.64L171.65 27.59L172.91 27.66L173.05 27.81Q173.50 27.69 174.11 27.80L174.21 27.90L174.15 27.85Q174.24 28.81 174.51 30.75L174.63 30.87L174.61 30.86Q173.30 30.49 171.81 30.30L171.77 30.26L171.79 30.28Q172.11 32.39 172.79 35.32ZM174.53 27.57L174.40 27.44L174.45 27.50Q174.26 27.42 174.07 27.42L174.15 27.50L173.66 27.39L173.65 27.38Q173.53 25.89 173.53 24.48L173.67 24.62L173.53 24.48Q173.57 18.12 175.62 12.11L175.70 12.19L175.57 12.05Q174.94 12.46 173.50 12.84L173.34 12.68L173.46 12.80Q173.59 11.94 174.05 10.53L174.08 10.57L174.10 10.59Q172.89 11.06 170.84 11.28L170.76 11.21L170.82 11.26Q166.74 15.45 161.53 24.81L161.58 24.87L163.62 21.16L163.71 21.25Q163.25 22.23 162.98 22.80L163.13 22.95L158.56 31.86L158.49 31.79Q159.20 31.70 160.34 31.32L160.34 31.31L160.31 31.67L160.14 31.50Q160.08 32.24 159.77 33.49L159.78 33.50L159.82 33.54Q163.92 32.20 168.76 32.39L168.77 32.40L168.68 32.31Q168.76 33.31 168.95 35.29L169.02 35.36L168.97 35.30Q170.12 35.38 171.18 35.50L171.08 35.39L171.02 35.33Q171.20 36.05 171.47 37.42L171.58 37.53L171.47 37.42Q173.35 37.62 176.36 38.54L176.42 38.60L176.46 38.64Q175.50 36.54 174.58 33.26L174.58 33.26L175.98 33.67L175.97 33.66Q176.71 33.95 177.40 34.29L177.42 34.31L177.28 34.17Q176.51 31.68 176.35 30.01L176.41 30.07L176.49 30.14Q175.80 29.87 174.66 29.64L174.63 29.62L174.60 29.59Q174.47 28.39 174.47 27.52ZM166.42 27.31L166.51 27.40L166.45 27.34Q167.14 25.98 168.70 23.43L168.87 23.60L168.86 23.58Q168.78 24.45 168.74 25.40L168.77 25.43L168.72 25.39Q168.68 26.33 168.71 27.28L168.72 27.29L168.72 27.28Q168.31 27.41 167.74 27.41L167.63 27.30L167.56 27.23Q167.09 27.37 166.48 27.37Z"/><path fill="#333" d="M138.19 35.17L138.27 35.25L138.23 35.21Q134.75 35.31 133.11 34.77L133.09 34.75L133.10 34.76Q131.08 34.07 130.77 30.68L130.87 30.78L132.37 29.77L132.27 29.67Q133.06 29.20 133.82 28.70L133.89 28.77L133.79 28.67Q133.45 30.51 135.05 31.73L135.13 31.80L135.04 31.72Q136.39 32.79 138.52 32.60L138.54 32.62L138.49 32.57Q142.84 32.12 142.65 28.58L142.67 28.61L142.84 28.78Q142.68 26.52 140.05 25.30L139.91 25.16L139.94 25.20Q137.09 24.13 134.73 22.91L134.84 23.03L134.69 22.88Q132.28 21.68 131.29 17.00L131.23 16.94L131.29 17.00Q131.09 16.45 130.97 15.69L130.92 15.64L130.93 15.65Q130.86 14.90 130.94 14.33L130.94 14.33L130.94 14.32Q131.04 12.68 132.30 12.22L132.42 12.34L132.44 12.36Q134.76 11.41 138.76 11.60L138.86 11.70L138.84 11.69Q140.62 11.75 141.42 11.83L141.41 11.82L141.38 11.78Q142.89 12.00 143.95 12.46L143.87 12.37L144.00 12.51Q145.96 12.83 146.19 15.30L146.26 15.37L146.30 15.41Q145.25 16.11 143.04 17.44L143.13 17.53L142.96 17.36Q142.60 14.42 138.22 14.42L138.26 14.45L138.24 14.43Q136.34 14.44 135.35 15.12L135.28 15.05L135.40 15.17Q134.15 15.59 134.37 17.38L134.37 17.38L134.38 17.39Q134.67 19.62 137.64 21.14L137.57 21.08L137.59 21.09Q138.27 21.46 142.76 23.10L142.69 23.03L142.68 23.02Q145.26 24.46 145.68 28.84L145.74 28.90L145.65 28.81Q145.75 29.06 145.83 30.32L145.84 30.33L145.75 30.24Q145.94 33.13 144.38 34.24L144.29 34.15L144.39 34.25Q142.49 35.17 138.31 35.28ZM140.53 37.58L140.60 37.65L140.48 37.53Q142.01 37.69 143.99 37.69L143.92 37.62L143.96 37.66Q146.04 37.65 147.30 37.23L147.36 37.29L147.30 37.24Q148.62 36.50 148.54 34.71L148.50 34.67L148.52 34.68Q148.35 33.57 147.97 31.51L148.13 31.67L148.14 31.68Q147.08 26.85 144.98 24.98L145.00 24.99L145.00 25.00Q144.23 23.43 142.90 22.71L142.91 22.72L137.55 20.59L137.73 20.78Q137.34 20.54 136.88 20.31L136.84 20.26L136.70 19.86L136.76 19.58L136.69 19.51Q136.59 18.15 137.73 17.54L137.79 17.59L137.69 17.50Q138.52 16.99 140.23 16.80L140.27 16.84L140.23 16.81Q141.23 16.55 142.38 17.01L142.56 17.19L142.40 17.03Q142.46 17.13 142.65 17.96L142.65 17.97L142.81 18.13Q142.85 17.82 143.34 17.59L143.42 17.67L143.40 17.65Q144.15 18.59 144.26 19.73L144.36 19.82L144.27 19.73Q144.30 19.66 147.96 17.07L147.95 17.06L148.04 17.15Q147.76 14.51 146.31 13.83L146.25 13.76L146.24 13.76Q145.65 12.48 144.21 11.95L144.28 12.02L144.24 11.98Q141.92 11.14 138.72 11.14L138.72 11.14L138.73 11.15Q133.87 11.21 132.01 11.89L132.08 11.96L131.94 11.83Q130.73 12.41 130.62 14.08L130.50 13.96L130.61 14.07Q130.51 14.54 130.92 16.75L130.94 16.76L130.88 16.70Q131.64 20.55 133.81 22.80L133.73 22.71L133.74 22.73Q134.53 24.42 136.03 25.11L136.09 25.17L136.14 25.22Q137.59 25.85 141.51 27.41L141.52 27.42L141.52 27.46L142.14 27.77L142.27 27.94L142.12 27.79Q142.29 28.23 142.33 28.58L142.39 28.63L142.36 28.60Q142.38 32.01 138.46 32.16L138.47 32.17L138.62 32.32Q137.33 32.22 136.04 31.84L136.14 31.94L136.16 31.96Q135.73 31.03 135.73 30.31L135.73 30.31L135.87 30.45Q135.85 30.16 135.88 29.89L135.83 29.84L135.87 29.88Q135.43 30.09 134.63 30.58L134.54 30.49L134.66 30.61Q134.08 29.42 134.24 28.05L134.29 28.11L134.17 27.99Q132.15 29.24 130.55 30.65L130.50 30.60L130.51 30.61Q130.54 31.40 130.62 32.43L130.61 32.42L130.73 32.54Q131.07 34.29 132.37 35.06L132.28 34.97L132.37 35.06Q133.57 36.87 136.12 37.25L136.08 37.21L136.17 37.30Q137.67 37.47 140.60 37.66Z"/><path d="M12 36 C92 4,80 27,183 12" stroke="#666" fill="none"/><path d="M5 14 C120 32,118 39,180 25" stroke="#888" fill="none"/><path fill="#333" d="M112.59 27.08L103.44 17.17L103.32 17.05Q104.25 20.83 104.25 24.56L104.22 24.54L104.27 24.59Q104.29 30.58 102.23 36.14L102.18 36.09L102.10 36.01Q101.13 36.37 98.88 37.13L98.90 37.15L98.95 37.20Q101.79 31.43 101.79 24.73L101.71 24.65L101.68 24.62Q101.69 15.99 97.20 8.57L97.12 8.49L97.14 8.51Q97.68 8.78 98.36 9.20L98.41 9.25L98.28 9.11Q110.44 20.40 118.28 29.65L118.26 29.63L118.22 29.59Q117.93 27.16 117.93 24.73L117.89 24.69L117.88 24.68Q118.00 17.57 120.51 11.36L120.42 11.27L120.44 11.29Q122.89 10.88 124.48 10.19L124.32 10.03L124.30 10.01Q121.03 16.22 120.73 23.38L120.79 23.44L120.72 23.37Q120.53 30.84 123.50 37.00L123.51 37.01L123.40 36.90Q122.78 36.77 122.36 36.58L122.37 36.59L122.52 36.75Q117.95 32.79 112.74 27.23L112.74 27.23ZM125.98 40.05L126.00 40.07L126.16 40.23Q126.59 40.35 127.00 40.54L126.99 40.53L127.75 40.79L127.92 40.96Q122.72 33.97 122.72 24.61L122.58 24.47L122.70 24.59Q122.64 17.29 125.95 11.05L125.93 11.03L126.01 11.11Q125.30 11.27 123.89 11.88L123.84 11.84L123.93 11.93Q124.26 11.03 125.09 9.47L125.14 9.52L125.21 9.58Q122.72 10.45 120.29 11.02L120.16 10.90L120.11 10.84Q117.59 17.42 117.59 24.85L117.49 24.75L117.66 24.92Q117.58 26.70 117.77 28.68L117.84 28.75L117.84 28.75Q113.05 22.94 108.29 18.33L108.46 18.49L98.26 8.68L98.23 8.65Q97.63 8.31 96.41 7.74L96.47 7.80L96.45 7.78Q101.31 15.49 101.31 24.59L101.30 24.58L101.40 24.68Q101.44 31.85 98.36 37.86L98.29 37.79L98.38 37.88Q98.53 37.61 100.17 37.01L100.26 37.10L100.32 37.15Q99.95 37.89 99.11 39.38L99.17 39.44L99.10 39.36Q100.43 38.83 103.90 38.03L103.94 38.07L103.93 38.07Q106.10 31.78 106.10 24.58L106.11 24.60L106.13 24.61Q106.28 22.67 106.05 20.54L106.01 20.50L105.98 20.47Q117.49 33.31 126.09 40.17Z"/><path fill="#222" d="M22.77 24.61L22.87 24.71L22.90 24.74Q22.76 28.87 22.04 33.02L22.02 33.00L22.04 33.02Q24.38 32.54 27.46 32.43L27.38 32.34L27.47 32.43Q28.74 32.56 29.81 31.55L29.90 31.65L29.89 31.63Q30.84 30.51 30.84 29.18L30.80 29.14L30.79 29.13Q30.87 28.90 30.83 28.64L30.76 28.56L30.80 28.61Q30.61 25.64 28.37 24.80L28.38 24.81L28.37 24.80Q27.67 24.56 26.98 24.64L26.99 24.64L26.95 24.60Q25.88 24.52 24.85 24.56L24.88 24.59L24.83 24.54Q23.91 24.72 22.88 24.72ZM21.52 14.15L21.58 14.20L21.54 14.17Q22.55 17.62 22.82 21.99L22.83 22.00L22.69 21.87Q24.24 22.09 26.91 22.13L26.92 22.14L26.80 22.01Q29.73 22.05 30.07 18.51L30.06 18.50L30.11 18.55Q30.38 16.69 28.97 15.85L28.94 15.82L28.91 15.79Q28.01 15.27 23.60 14.63L23.51 14.54L23.57 14.60Q22.57 14.51 21.66 14.28ZM17.98 37.14L17.99 37.15L17.95 37.11Q20.32 30.34 20.05 22.96L20.24 23.14L20.04 22.95Q19.86 15.76 16.93 9.29L16.86 9.22L16.83 9.19Q20.73 11.84 26.96 12.08L26.85 11.98L27.03 12.16Q33.14 12.29 33.48 15.18L33.51 15.21L33.45 15.15Q33.86 18.00 32.45 20.66L32.39 20.61L32.52 20.73Q31.58 22.03 29.98 22.72L30.03 22.77L30.01 22.75Q33.79 23.56 34.01 28.93L33.98 28.89L34.00 28.91Q34.05 29.99 33.97 31.40L33.94 31.36L33.88 31.31Q33.99 32.78 33.06 33.72L33.06 33.72L33.00 33.66Q32.14 34.67 30.81 34.82L30.65 34.66L30.69 34.70Q29.32 34.89 28.25 34.89L28.13 34.77L28.21 34.84Q22.52 34.87 17.99 37.16ZM30.74 37.42L30.67 37.35L30.74 37.42Q31.68 37.48 33.54 37.59L33.63 37.68L33.48 37.53Q35.04 37.72 36.15 36.85L36.08 36.78L36.13 36.82Q36.84 35.82 36.72 34.26L36.66 34.20L36.82 34.36Q36.60 33.26 35.88 29.80L35.93 29.85L35.97 29.90Q35.24 26.61 33.38 25.13L33.38 25.13L32.89 24.22L32.92 24.26Q34.57 22.82 35.14 19.05L35.13 19.04L35.12 19.03Q35.28 17.90 35.20 16.49L35.26 16.54L35.39 16.67Q35.24 15.27 34.14 14.43L34.12 14.41L34.05 14.34Q33.82 14.23 33.71 14.19L33.72 14.20L33.73 14.21Q33.45 13.67 32.61 12.87L32.57 12.83L32.72 12.97Q31.08 11.80 26.86 11.61L26.81 11.56L26.87 11.61Q20.20 11.31 16.20 8.41L16.29 8.50L16.31 8.52Q19.58 15.52 19.89 23.06L19.80 22.97L19.75 22.92Q20.10 30.78 17.29 37.70L17.27 37.69L19.49 36.90L19.48 36.89Q18.94 37.87 18.45 39.02L18.50 39.07L18.48 39.05Q22.94 37.34 27.97 37.34L27.87 37.25L27.89 37.27Q29.22 37.19 30.66 37.34ZM28.53 26.79L28.51 26.77L28.67 26.94Q29.36 26.82 30.27 27.28L30.13 27.14L30.23 27.23Q30.26 27.49 30.41 28.56L30.43 28.57L30.44 28.59Q30.69 30.02 29.76 31.07L29.72 31.03L29.77 31.08Q28.79 32.08 27.38 31.96L27.33 31.91L25.85 32.03L25.98 32.16Q25.15 32.13 24.42 32.24L24.36 32.18L24.53 32.34Q24.78 30.47 24.86 27.01L24.76 26.91L24.78 26.92Q25.53 26.95 26.79 26.91L26.69 26.81L26.64 26.77Q28.06 26.89 28.66 26.93ZM27.61 17.31L27.65 17.35L27.85 17.16L27.96 17.27Q28.24 17.33 28.43 17.36L28.30 17.24L28.84 17.39L29.16 17.52L29.70 17.53L29.79 17.62Q29.82 17.81 29.82 18.11L29.80 18.09L29.87 18.69L29.83 18.65Q29.70 19.78 28.83 20.71L28.93 20.82L28.96 20.85Q28.08 21.77 26.86 21.77L26.74 21.66L26.79 21.71Q25.86 21.80 25.86 21.80L25.79 21.73L25.79 21.73Q24.35 21.58 24.69 21.58L24.77 21.66L24.81 21.70Q24.78 20.18 24.47 17.14L24.50 17.17L24.48 17.14Q26.07 17.29 27.60 17.29Z"/><path fill="#111" d="M53.73 14.65L53.62 14.54L52.25 14.84L52.09 14.68Q49.83 14.78 49.60 16.79L49.73 16.93L49.73 16.93Q49.65 17.65 49.69 18.64L49.64 18.59L49.70 18.65Q49.60 20.46 50.86 21.79L50.85 21.77L50.99 21.92Q52.13 23.14 54.04 22.99L54.04 22.99L54.14 23.09Q56.11 22.85 56.87 21.94L57.01 22.07L56.92 21.98Q58.06 21.15 58.33 18.90L58.24 18.81L58.31 18.88Q58.41 16.48 57.16 15.64L57.26 15.74L57.20 15.68Q56.35 14.90 53.68 14.60ZM59.76 23.88L59.84 23.96L58.55 26.24L58.47 26.16Q55.70 30.90 51.94 34.97L51.94 34.97L52.04 35.08Q50.35 35.18 47.65 35.98L47.75 36.08L47.69 36.02Q53.07 29.79 56.23 24.99L56.17 24.93L56.09 24.85Q55.05 25.48 53.41 25.56L53.49 25.64L53.49 25.64Q50.49 25.79 48.97 23.82L48.98 23.83L49.01 23.86Q47.75 22.22 46.65 17.65L46.61 17.62L46.64 17.64Q46.64 17.19 46.49 16.26L46.44 16.21L46.40 16.16Q46.37 15.35 46.37 14.90L46.32 14.85L46.30 14.83Q46.41 13.15 47.47 12.54L47.36 12.43L47.35 12.41Q48.52 11.61 50.38 11.61L50.43 11.65L50.51 11.73Q53.76 11.78 53.76 11.78L53.71 11.73L53.70 11.72Q55.84 11.73 57.09 11.92L57.07 11.90L57.11 11.93Q59.14 12.10 60.06 12.60L60.11 12.65L60.22 12.77Q61.59 13.52 61.78 15.28L61.77 15.27L61.77 15.26Q61.63 15.36 61.44 18.02L61.54 18.12L61.55 18.12Q61.14 20.23 60.91 21.07L60.82 20.98L60.97 21.12Q60.52 22.46 59.76 23.87ZM61.66 26.27L61.73 26.34L61.76 26.37Q62.63 24.04 63.16 19.74L63.26 19.84L63.16 19.74Q63.51 17.61 63.47 16.74L63.47 16.73L63.32 16.59Q63.31 14.75 62.13 13.83L62.24 13.94L61.92 13.81L61.82 13.72Q61.73 13.12 60.81 12.48L60.74 12.41L60.66 12.33Q58.40 11.36 53.61 11.21L53.67 11.28L53.61 11.21Q52.76 11.32 50.33 11.32L50.18 11.18L50.31 11.30Q48.48 11.22 46.99 11.91L47.10 12.01L46.93 11.85Q45.78 12.64 45.86 14.47L46.04 14.64L45.93 14.53Q46.24 15.57 46.43 17.59L46.28 17.44L46.26 17.42Q47.00 20.18 47.27 21.01L47.14 20.88L47.17 20.91Q47.74 22.78 48.69 24.07L48.70 24.08L48.73 24.11Q48.99 24.45 49.37 24.83L49.33 24.79L49.44 24.89Q49.55 25.20 50.20 26.12L50.38 26.29L50.21 26.12Q51.82 27.62 53.76 27.81L53.75 27.80L53.69 27.74Q51.82 30.44 50.26 32.34L50.28 32.37L46.55 36.63L46.66 36.73Q48.90 35.97 50.54 35.63L50.45 35.54L50.54 35.63Q49.77 36.49 48.21 38.21L48.29 38.29L48.22 38.23Q51.34 37.34 54.46 37.31L54.43 37.28L54.33 37.18Q56.65 34.58 60.99 27.35L61.12 27.48L61.06 27.50L61.13 27.56Q61.32 26.77 61.66 26.27ZM55.63 17.01L55.67 17.04L55.57 16.94Q56.36 17.01 56.82 17.13L56.82 17.13L56.72 17.03Q57.45 17.23 57.83 17.34L57.75 17.25L57.84 17.34Q57.92 17.69 58.00 18.11L57.96 18.07L57.92 18.03Q58.08 18.54 57.96 18.92L57.82 18.77L57.92 18.87Q57.78 20.49 56.60 21.59L56.76 21.75L56.63 21.62Q55.78 22.75 54.14 22.71L54.15 22.72L54.07 22.64Q53.73 22.72 52.21 22.41L52.11 22.31L52.17 22.37Q51.88 21.44 51.88 20.72L51.98 20.82L51.98 20.82Q51.90 20.54 51.90 20.31L51.84 20.25L51.95 20.36Q51.77 17.98 54.05 17.18L54.18 17.30L54.04 17.16Q54.86 17.07 55.69 17.07Z"/></svg>