<svg xmlns="http://www.w3.org/2000/svg" width="200" height="40" viewBox="0,0,200,40"><path fill="#222" d="M135.15 35.27L135.28 35.39L135.16 35.27Q133.90 35.50 132.34 35.08L132.19 34.94L132.25 35.00Q131.05 34.10 130.89 32.46L130.90 32.46L130.78 32.35Q130.83 32.24 131.02 29.62L131.02 29.62L131.02 29.62Q132.02 29.40 134.04 29.02L134.08 29.06L133.98 29.91L133.93 29.86Q133.55 31.50 134.96 32.07L135.05 32.16L135.10 32.22Q135.79 32.44 137.88 32.44L137.86 32.43L137.97 32.53Q139.52 32.33 139.71 32.26L139.81 32.35L139.76 32.30Q140.56 32.04 141.29 31.54L141.35 31.61L141.32 31.58Q142.74 30.64 142.55 28.54L142.54 28.54L142.58 28.58Q142.31 26.05 140.57 24.49L140.75 24.67L140.71 24.63Q138.99 23.08 136.51 23.08L136.41 22.98L136.39 22.72L136.52 22.86Q136.87 22.79 137.75 22.71L137.64 22.61L137.62 22.58Q139.50 22.45 140.87 21.22L140.96 21.31L141.04 21.38Q142.32 20.05 142.47 18.19L142.43 18.14L142.55 18.26Q142.64 17.93 142.64 17.59L142.64 17.60L142.60 17.56Q142.56 15.99 141.19 15.08L141.15 15.04L141.14 15.02Q139.90 14.21 138.30 14.32L138.41 14.43L138.40 14.42Q137.10 14.27 135.89 14.69L135.95 14.75L135.84 14.64Q134.33 15.11 134.02 16.25L134.17 16.39L134.11 16.34Q133.90 17.08 133.98 17.84L133.94 17.80L133.97 17.83Q132.97 17.64 130.92 16.91L130.99 16.98L130.89 16.88Q130.73 15.28 130.77 14.44L130.82 14.49L130.79 14.46Q130.75 12.78 131.81 12.10L131.96 12.24L131.98 12.27Q133.33 11.60 134.93 11.60L134.94 11.61L134.92 11.59Q138.08 11.55 141.24 11.81L141.32 11.89L141.20 11.78Q146.33 12.26 146.03 16.03L145.94 15.94L146.01 16.01Q145.96 17.52 145.46 19.08L145.47 19.09L145.46 19.08Q144.54 22.16 142.18 23.07L142.17 23.07L142.18 23.07Q144.71 23.51 145.32 26.86L145.45 27.00L145.33 26.87Q145.65 28.11 145.73 30.12L145.71 30.11L145.75 30.15Q145.80 34.50 141.19 34.95L141.14 34.90L141.25 35.01Q140.52 35.08 135.23 35.35ZM140.39 37.53L140.51 37.66L140.43 37.58Q140.97 37.54 143.82 37.62L143.94 37.74L143.82 37.62Q145.73 37.85 147.36 37.20L147.24 37.08L147.38 37.22Q148.55 36.26 148.36 34.51L148.33 34.48L148.34 34.49Q148.09 33.02 147.78 31.26L147.79 31.28L147.83 31.32Q147.23 26.95 145.29 25.31L145.22 25.23L145.08 24.91L144.95 24.74L144.96 24.75Q146.68 23.27 147.44 18.90L147.45 18.91L147.55 19.01Q147.45 18.41 147.57 17.46L147.65 17.54L147.73 17.62Q147.67 16.73 147.60 16.04L147.63 16.08L147.69 16.14Q147.50 14.42 146.20 13.73L146.13 13.67L146.01 13.62L146.13 13.74Q145.78 12.71 144.64 12.17L144.61 12.14L144.74 12.27Q143.22 11.58 138.08 11.28L138.06 11.26L137.94 11.14Q136.25 11.05 134.65 11.05L134.67 11.07L134.72 11.12Q133.11 11.11 131.58 11.75L131.68 11.85L131.68 11.85Q130.30 12.45 130.30 14.20L130.29 14.19L130.46 14.36Q130.40 13.89 130.67 17.24L130.60 17.17L130.65 17.22Q130.95 17.29 132.59 17.90L132.63 17.94L132.65 17.96Q132.56 18.41 132.53 18.90L132.59 18.96L132.47 18.84Q132.48 19.35 132.52 19.88L132.55 19.91L132.54 19.90Q134.45 20.40 136.46 20.52L136.45 20.51L136.48 20.53Q136.42 18.53 137.52 17.69L137.41 17.59L137.43 17.60Q138.21 16.89 140.23 16.67L140.21 16.65L140.36 16.80Q141.52 16.82 142.09 17.01L142.03 16.95L142.08 17.00Q142.10 17.09 142.13 17.20L142.03 17.10L142.04 17.30L142.17 17.88L142.20 17.92Q142.11 18.01 142.07 18.17L142.06 18.15L142.18 18.28Q142.11 20.00 140.59 21.18L140.54 21.13L140.58 21.16Q139.73 22.15 137.72 22.34L137.61 22.24L137.66 22.29Q136.93 22.43 136.05 22.43L135.97 22.35L135.97 22.34Q136.07 22.75 136.23 23.44L136.26 23.47L136.16 23.38Q138.04 23.50 139.48 24.22L139.36 24.10L139.31 24.17L137.70 24.30L137.66 24.26Q137.80 24.71 137.91 25.32L137.82 25.22L137.87 25.27Q139.94 25.14 141.66 26.47L141.73 26.54L141.71 26.52Q141.89 26.86 142.20 28.50L142.32 28.62L142.17 28.47Q142.49 31.53 139.56 31.95L139.49 31.88L139.62 32.01Q137.36 32.11 136.79 32.07L136.89 32.17L136.90 32.19Q136.38 32.00 135.85 31.93L135.93 32.01L135.78 31.41L136.01 31.07L135.93 30.57L136.03 30.32L136.08 30.37Q135.05 30.37 134.25 30.56L134.27 30.58L134.30 30.61Q134.20 30.33 134.20 30.14L134.31 30.24L134.22 30.15Q134.25 29.95 134.25 29.73L134.35 29.82L134.33 29.80Q134.26 29.27 134.41 28.55L134.53 28.67L134.51 28.65Q132.63 28.86 130.76 29.20L130.73 29.17L130.77 29.22Q130.77 29.71 130.65 30.83L130.66 30.84L130.69 30.86Q130.56 31.97 130.56 32.58L130.61 32.63L130.60 32.63Q130.56 34.56 131.93 35.32L131.98 35.37L132.07 35.47Q133.47 37.66 138.19 37.47L138.17 37.45L138.12 37.40Q138.82 37.34 140.35 37.50Z"/><path fill="#222" d="M90.61 35.43L90.62 35.44L90.53 35.34Q87.59 31.49 84.96 22.85L85.00 22.88L84.95 22.83Q84.28 20.68 83.48 18.54L83.53 18.59L80.58 27.30L80.66 27.37Q78.74 32.20 76.35 35.43L76.46 35.55L76.42 35.51Q75.51 35.51 73.87 35.66L74.02 35.81L73.93 35.72Q74.14 34.63 74.14 33.38L73.96 33.20L74.12 33.36Q74.04 27.27 71.30 21.14L71.34 21.18L71.29 21.13Q68.16 14.23 62.30 9.24L62.25 9.19L62.34 9.28Q64.47 9.97 66.83 10.50L66.81 10.48L66.80 10.47Q75.56 19.01 76.86 29.97L76.74 29.86L76.78 29.90Q78.51 26.67 79.95 21.30L79.94 21.29L79.87 21.22Q81.81 13.68 82.30 12.27L82.38 12.34L84.53 12.25L84.54 12.26Q85.40 14.45 86.04 16.77L86.00 16.72L87.10 21.03L87.24 21.16Q88.67 26.48 90.08 29.72L90.24 29.87L90.07 29.70Q91.87 18.22 99.79 10.87L99.70 10.78L99.77 10.85Q101.36 10.58 104.33 9.93L104.25 9.85L104.28 9.88Q98.90 14.13 95.85 20.26L95.79 20.19L95.88 20.29Q92.75 26.48 92.75 33.26L92.78 33.29L92.87 33.38Q92.78 34.40 92.86 35.54L92.78 35.46L91.64 35.35L91.72 35.43Q91.05 35.29 90.48 35.29ZM96.72 38.19L96.75 38.21L96.88 38.34Q95.57 34.71 95.69 30.83L95.73 30.88L95.76 30.90Q95.99 19.26 105.36 11.00L105.36 11.00L105.39 11.03Q104.45 11.27 102.51 11.80L102.51 11.80L102.40 11.69Q103.52 11.03 105.43 9.24L105.37 9.18L105.28 9.09Q102.59 9.83 99.66 10.33L99.71 10.38L99.67 10.33Q92.20 17.49 90.30 26.97L90.40 27.06L90.24 26.91Q89.85 25.45 86.99 13.99L86.97 13.96L86.87 13.87Q86.55 14.05 85.60 14.05L85.54 13.98L85.20 12.88L85.15 12.83Q85.14 12.40 84.91 11.91L84.85 11.85L82.05 11.94L81.92 11.81Q81.14 14.30 79.86 19.42L79.97 19.53L79.79 19.35Q78.64 24.59 77.65 27.07L77.66 27.07L77.54 26.96Q76.04 19.14 70.48 12.82L70.52 12.85L70.55 12.88Q70.05 12.80 69.09 12.61L69.14 12.66L69.07 12.59Q68.37 11.78 66.81 10.14L66.86 10.18L66.84 10.17Q63.32 9.24 61.15 8.44L61.23 8.52L61.24 8.53Q66.80 13.10 70.07 19.30L70.16 19.39L70.12 19.34Q73.66 26.05 73.66 33.06L73.56 32.95L73.63 33.03Q73.60 34.55 73.41 36.15L73.35 36.10L73.37 36.11Q73.69 36.20 74.14 36.11L74.07 36.03L74.19 36.16Q74.60 36.01 74.83 36.01L74.79 35.97L74.83 37.04L74.81 37.02Q74.87 37.54 74.95 38.07L74.92 38.04L74.83 37.96Q76.11 38.01 78.39 37.86L78.32 37.79L78.35 37.81Q81.86 32.30 84.60 22.90L84.66 22.96L84.63 22.93Q87.39 31.71 90.36 35.67L90.35 35.65L90.48 35.79Q91.00 35.85 91.84 35.96L91.67 35.80L91.83 35.96Q92.63 36.94 93.69 38.01L93.59 37.91L93.70 38.02Q94.50 38.09 96.90 38.36Z"/><path fill="#222" d="M50.77 25.55L50.84 25.61L50.79 25.56Q50.85 25.62 54.23 25.58L54.32 25.67L54.24 25.59Q56.48 25.54 57.54 25.58L57.59 25.63L57.60 25.63Q56.53 22.74 54.09 17.10L54.18 17.18L54.03 17.04Q53.61 18.60 52.56 21.45L52.48 21.37L52.39 21.29Q51.52 24.31 50.95 25.72ZM58.73 28.13L58.69 28.10L58.76 28.17Q56.40 28.06 54.20 28.09L54.20 28.09L54.27 28.17Q52.00 28.18 49.71 28.37L49.60 28.26L49.69 28.35Q48.10 31.71 44.87 35.89L44.95 35.98L45.02 36.05Q42.29 36.52 40.92 37.01L40.91 37.00L40.98 37.08Q46.08 31.40 50.77 18.04L50.85 18.12L50.78 18.06Q52.09 14.68 53.46 11.44L53.39 11.37L53.31 11.30Q53.62 11.30 53.97 11.30L54.03 11.37L54.87 11.48L54.74 11.36Q55.47 12.70 60.31 24.34L60.43 24.46L60.24 24.28Q63.65 32.26 67.65 36.40L67.71 36.47L67.58 36.34Q67.05 36.19 63.17 35.32L63.18 35.32L63.15 35.30Q60.59 32.17 58.61 28.02ZM63.16 35.73L63.13 35.70L63.66 35.73L63.73 35.80Q63.90 35.74 64.21 35.86L64.27 35.92L64.28 35.94Q64.62 36.31 66.45 38.33L66.44 38.32L66.50 38.38Q70.17 39.31 72.57 40.34L72.54 40.31L72.44 40.21Q67.02 35.74 63.02 27.74L63.07 27.79L62.95 27.67Q61.35 24.40 59.90 20.44L59.97 20.50L57.12 12.90L57.14 12.92Q56.85 12.96 56.62 12.96L56.65 13.00L56.13 13.01L56.12 13.00Q55.76 12.34 55.04 10.97L55.07 11.00L55.13 11.06Q54.56 11.02 54.10 10.98L54.03 10.91L54.20 11.08Q53.71 11.01 53.17 11.01L53.08 10.91L53.04 10.87Q51.72 14.88 47.84 25.05L47.82 25.03L47.89 25.10Q44.64 32.93 40.00 37.73L40.01 37.74L40.06 37.79Q41.17 37.45 43.19 36.84L43.16 36.82L43.03 36.69Q42.29 37.58 40.73 39.37L40.76 39.40L40.86 39.50Q42.50 38.79 46.42 38.02L46.31 37.91L46.38 37.98Q49.78 33.62 51.35 30.38L51.40 30.44L51.39 30.43Q53.17 30.34 55.49 30.38L55.43 30.31L55.41 30.30Q58.21 30.39 59.58 30.47L59.51 30.40L59.54 30.43Q60.84 32.84 63.20 35.77ZM55.40 21.00L55.51 21.11L55.46 21.06Q56.40 23.22 57.16 25.31L57.12 25.26L53.83 25.29L53.75 25.21Q54.29 23.73 55.36 20.95Z"/><path fill="#111" d="M107.37 25.58L107.53 25.73L107.43 25.63Q107.49 25.69 110.88 25.65L110.87 25.65L110.80 25.57Q113.16 25.65 114.22 25.68L114.08 25.54L114.11 25.57Q113.10 22.74 110.67 17.11L110.66 17.10L110.64 17.08Q110.01 18.43 108.97 21.29L109.05 21.37L109.01 21.33Q108.00 24.22 107.43 25.63ZM115.25 28.09L115.32 28.15L115.34 28.17Q112.99 28.07 110.78 28.11L110.85 28.17L110.69 28.01Q108.48 28.09 106.19 28.28L106.35 28.43L106.31 28.39Q104.63 31.67 101.40 35.85L101.56 36.01L101.53 35.98Q98.96 36.61 97.59 37.11L97.60 37.12L97.61 37.13Q102.68 31.43 107.37 18.07L107.39 18.09L107.26 17.97Q108.55 14.57 109.92 11.34L109.87 11.28L110.00 11.42Q110.24 11.35 110.58 11.35L110.60 11.36L111.27 11.31L111.35 11.40Q112.15 12.80 116.98 24.45L116.82 24.29L116.97 24.44Q120.11 32.15 124.11 36.30L124.17 36.36L124.26 36.44Q123.64 36.21 119.76 35.33L119.82 35.39L119.75 35.33Q117.19 32.19 115.21 28.04ZM119.65 35.64L119.74 35.73L120.29 35.79L120.37 35.87Q120.65 35.92 120.95 36.03L120.84 35.92L120.84 35.92Q121.18 36.30 123.01 38.32L123.06 38.37L123.12 38.43Q126.76 39.32 129.15 40.35L129.06 40.26L129.08 40.28Q123.60 35.75 119.60 27.75L119.51 27.66L119.64 27.79Q118.03 24.51 116.59 20.55L116.53 20.49L113.67 12.87L113.68 12.89Q113.55 13.10 113.32 13.10L113.16 12.94L112.70 13.01L112.65 12.96Q112.27 12.28 111.55 10.91L111.63 10.98L111.62 10.98Q111.07 10.97 110.62 10.93L110.73 11.04L110.59 10.90Q110.20 10.93 109.67 10.93L109.75 11.01L109.69 10.95Q108.20 14.79 104.32 24.95L104.35 24.98L104.32 24.96Q101.29 33.01 96.65 37.81L96.70 37.85L96.62 37.78Q97.66 37.37 99.68 36.76L99.70 36.78L99.75 36.84Q98.82 37.55 97.26 39.34L97.29 39.36L97.40 39.48Q99.15 38.86 103.07 38.10L102.95 37.98L103.06 38.09Q106.44 33.70 108.00 30.47L107.92 30.39L107.89 30.36Q109.64 30.24 111.96 30.28L112.02 30.34L111.98 30.29Q114.77 30.38 116.14 30.46L116.20 30.52L116.15 30.47Q117.35 32.77 119.71 35.70ZM112.02 21.05L111.97 21.00L112.00 21.03Q112.83 23.08 113.59 25.17L113.57 25.14L110.38 25.27L110.42 25.31Q110.88 23.75 111.94 20.97Z"/><path d="M19 33 C114 32,84 30,196 39" stroke="#888" fill="none"/><path d="M18 5 C101 28,101 8,186 24" stroke="#222" fill="none"/><path fill="#333" d="M164.16 35.39L164.18 35.40L164.10 35.32Q160.08 35.61 159.09 33.28L159.18 33.37L159.05 33.25Q159.92 32.40 161.48 30.61L161.48 30.61L161.45 30.58Q161.91 32.56 164.92 32.68L164.97 32.73L165.00 32.76Q168.33 32.77 169.96 31.44L169.95 31.43L169.90 31.38Q171.35 29.82 171.27 27.11L171.26 27.11L171.28 27.13Q171.02 21.96 166.23 22.18L166.36 22.31L166.29 22.25Q163.50 22.43 161.75 23.69L161.76 23.69L161.47 23.56L161.30 23.46L161.15 23.31Q161.59 20.25 161.47 17.51L161.41 17.45L161.45 17.49Q161.38 14.90 161.04 11.59L160.95 11.50L160.93 11.48Q164.58 12.43 168.39 12.32L168.42 12.35L168.50 12.42Q172.26 12.31 175.84 11.05L175.78 10.99L175.30 12.60L175.30 12.61Q174.90 13.27 174.71 14.11L174.73 14.13L174.69 14.09Q171.66 15.21 167.78 15.21L167.68 15.11L167.79 15.22Q166.42 15.30 164.94 15.15L164.84 15.05L164.79 15.00Q164.76 15.73 164.42 20.19L164.39 20.16L164.45 20.22Q165.32 19.79 167.37 19.64L167.36 19.63L167.23 19.50Q171.12 19.88 172.57 21.56L172.54 21.53L172.52 21.51Q173.77 22.91 174.04 26.76L174.05 26.77L174.04 26.76Q174.49 31.13 173.27 33.15L173.23 33.11L173.10 32.98Q171.20 35.00 167.88 35.22L167.93 35.28L167.80 35.14Q166.75 35.16 164.09 35.31ZM170.18 37.63L170.15 37.60L170.13 37.59Q173.54 37.64 175.44 36.54L175.59 36.68L175.52 36.62Q176.46 35.04 176.46 32.95L176.45 32.95L176.51 33.01Q176.62 30.03 175.67 25.91L175.63 25.87L175.51 25.76Q175.21 24.09 173.99 22.68L174.06 22.75L173.94 22.67L173.72 22.36L173.49 22.29L173.38 22.18Q173.09 21.48 172.45 20.79L172.40 20.74L172.45 20.83L172.49 20.88Q170.94 19.17 167.25 19.17L167.23 19.16L166.96 19.15L167.03 19.22Q167.05 18.59 167.24 17.49L167.37 17.61L167.28 17.53Q172.23 17.61 176.27 15.97L176.31 16.01L176.37 16.07Q176.69 14.56 177.64 11.75L177.62 11.73L175.64 12.80L175.59 12.74Q175.98 11.61 176.48 10.47L176.36 10.35L176.39 10.38Q172.67 11.95 168.56 12.03L168.41 11.88L168.49 11.96Q164.29 11.99 160.33 10.89L160.41 10.96L160.49 11.04Q161.11 15.40 161.11 19.81L161.11 19.81L161.02 19.72Q161.06 21.66 160.95 23.57L161.03 23.65L160.92 23.54Q161.20 23.74 161.77 24.05L161.93 24.21L161.75 24.02Q162.10 23.81 162.75 23.47L162.79 23.50L162.81 23.53Q162.88 24.39 162.65 25.92L162.48 25.74L162.54 25.80Q162.88 25.92 163.30 26.15L163.32 26.17L163.49 26.34Q166.09 24.41 167.95 24.41L168.11 24.56L168.11 24.56Q169.30 24.42 170.48 25.07L170.64 25.23L170.60 25.19Q170.98 26.25 171.01 27.20L170.87 27.05L170.90 27.08Q170.93 29.63 169.90 30.74L170.05 30.88L170.01 30.84Q168.60 32.02 166.36 32.25L166.39 32.28L166.33 32.22Q165.44 32.36 164.75 32.28L164.69 32.22L164.64 32.17Q163.98 32.24 163.22 31.89L163.06 31.73L163.05 31.54L162.91 31.62L162.90 31.62Q162.20 31.22 161.67 29.89L161.61 29.82L161.60 29.82Q160.31 31.27 158.64 33.40L158.66 33.43L158.70 33.47Q158.88 33.99 159.72 34.94L159.70 34.92L159.80 35.02Q160.75 36.73 163.57 37.23L163.75 37.41L163.57 37.23Q164.89 37.60 170.26 37.71Z"/><path fill="#222" d="M22.84 24.68L22.86 24.70L22.72 24.56Q22.79 28.90 22.07 33.05L22.09 33.06L22.05 33.03Q24.39 32.55 27.47 32.43L27.45 32.42L27.34 32.31Q28.77 32.59 29.84 31.58L29.77 31.52L29.74 31.49Q30.97 30.64 30.97 29.31L30.78 29.12L30.91 29.25Q30.86 28.89 30.82 28.63L30.75 28.55L30.84 28.64Q30.69 25.72 28.44 24.88L28.42 24.85L28.42 24.86Q27.77 24.66 27.09 24.74L27.08 24.73L26.92 24.57Q25.83 24.48 24.80 24.51L24.90 24.60L24.88 24.59Q23.87 24.69 22.85 24.69ZM21.53 14.16L21.69 14.31L21.61 14.23Q22.54 17.60 22.80 21.98L22.65 21.82L22.75 21.93Q24.10 21.94 26.76 21.98L26.88 22.10L26.76 21.97Q29.71 22.04 30.05 18.49L30.13 18.57L30.13 18.57Q30.29 16.60 28.88 15.76L28.93 15.81L28.88 15.76Q27.99 15.26 23.58 14.61L23.47 14.50L23.53 14.56Q22.58 14.53 21.67 14.30ZM17.92 37.08L17.99 37.15L17.86 37.02Q20.41 30.44 20.14 23.05L20.10 23.00L20.18 23.09Q19.81 15.71 16.88 9.24L16.91 9.27L16.90 9.26Q20.70 11.80 26.92 12.05L27.00 12.13L26.85 11.98Q33.24 12.39 33.58 15.29L33.57 15.27L33.45 15.15Q33.84 17.98 32.43 20.65L32.38 20.60L32.52 20.74Q31.70 22.16 30.10 22.84L30.11 22.86L30.04 22.78Q33.63 23.41 33.86 28.77L34.04 28.95L33.95 28.86Q34.12 30.06 34.04 31.47L33.89 31.31L33.92 31.34Q33.87 32.66 32.93 33.59L33.06 33.72L32.91 33.57Q32.13 34.65 30.80 34.81L30.72 34.73L30.80 34.81Q29.36 34.93 28.29 34.93L28.22 34.85L28.15 34.79Q22.39 34.74 17.86 37.02ZM30.80 37.47L30.72 37.39L30.79 37.47Q31.62 37.42 33.49 37.54L33.48 37.53L33.51 37.56Q34.92 37.60 36.03 36.73L35.97 36.67L36.13 36.83Q36.93 35.91 36.81 34.35L36.83 34.37L36.66 34.20Q36.65 33.31 35.93 29.85L35.94 29.86L35.90 29.83Q35.32 26.69 33.46 25.21L33.37 25.13L33.02 24.35L33.02 24.35Q34.72 22.97 35.29 19.20L35.12 19.03L35.22 19.13Q35.46 18.08 35.39 16.67L35.36 16.64L35.37 16.66Q35.24 15.27 34.14 14.43L34.07 14.36L34.12 14.41Q33.85 14.26 33.73 14.22L33.64 14.12L33.64 14.12Q33.44 13.65 32.60 12.85L32.71 12.96L32.59 12.84Q31.15 11.86 26.92 11.67L26.82 11.57L26.92 11.66Q20.26 11.36 16.26 8.47L16.20 8.41L16.34 8.55Q19.57 15.51 19.88 23.05L19.83 23.01L19.81 22.98Q20.23 30.90 17.41 37.83L17.35 37.77L19.33 36.75L19.33 36.74Q19.13 38.07 18.64 39.21L18.57 39.14L18.53 39.10Q22.75 37.15 27.78 37.15L27.79 37.17L27.88 37.25Q29.33 37.30 30.77 37.45ZM28.64 26.90L28.53 26.79L28.64 26.90Q29.37 26.83 30.28 27.29L30.31 27.31L30.18 27.19Q30.26 27.49 30.41 28.56L30.50 28.65L30.43 28.57Q30.60 29.93 29.67 30.98L29.74 31.05L29.80 31.11Q28.79 32.08 27.38 31.97L27.32 31.90L25.91 32.09L25.96 32.14Q25.21 32.19 24.49 32.31L24.41 32.22L24.39 32.20Q24.83 30.52 24.91 27.05L24.83 26.98L24.91 27.05Q25.50 26.92 26.75 26.88L26.76 26.89L26.74 26.87Q28.00 26.83 28.61 26.87ZM27.61 17.31L27.56 17.25L27.91 17.23L28.03 17.34Q28.20 17.28 28.39 17.32L28.42 17.35L28.81 17.36L29.13 17.49L29.69 17.52L29.70 17.53Q29.71 17.69 29.71 18.00L29.74 18.03L29.80 18.63L29.83 18.65Q29.67 19.75 28.80 20.68L28.96 20.85L28.91 20.80Q27.96 21.65 26.74 21.65L26.90 21.81L26.84 21.75Q25.72 21.66 25.72 21.66L25.69 21.63L25.70 21.64Q24.40 21.64 24.75 21.64L24.82 21.71L24.88 21.77Q24.81 20.22 24.50 17.17L24.41 17.08L24.47 17.13Q26.14 17.36 27.66 17.36Z"/></svg>