<svg xmlns="http://www.w3.org/2000/svg" width="200" height="40" viewBox="0,0,200,40"><path fill="#222" d="M73.69 33.89L73.82 34.01L73.73 33.92Q75.58 31.51 80.34 24.24L80.30 24.20L80.36 24.26Q84.47 18.13 87.32 14.85L87.27 14.80L87.28 14.81Q85.21 15.14 83.11 15.14L83.04 15.06L83.05 15.07Q77.82 15.10 73.82 13.31L73.92 13.41L73.88 13.36Q73.26 11.49 72.58 9.93L72.47 9.82L72.58 9.93Q77.00 11.95 82.67 12.07L82.76 12.15L82.82 12.22Q87.93 12.26 93.11 10.36L93.09 10.34L93.04 10.29Q92.64 11.11 92.34 11.91L92.29 11.87L91.84 13.59L91.73 13.47Q88.63 17.07 84.63 22.89L84.74 23.01L81.34 27.75L81.34 27.75Q79.73 30.26 77.91 32.54L77.95 32.58L77.97 32.61Q81.22 31.93 84.53 32.00L84.43 31.91L84.58 32.06Q87.92 32.17 91.08 33.08L90.94 32.94L91.57 34.67L91.50 34.60Q91.69 35.36 92.03 36.20L92.07 36.23L92.00 36.16Q87.40 34.65 82.26 34.84L82.25 34.83L82.18 34.76Q77.14 35.05 72.65 37.07L72.59 37.01L72.70 37.12Q73.13 36.10 73.85 34.04ZM72.07 37.78L72.01 37.72L71.98 37.70Q73.35 37.23 74.15 36.96L74.07 36.89L73.98 36.80Q73.87 37.71 73.18 39.24L73.09 39.14L73.04 39.10Q78.81 37.02 84.78 37.25L84.75 37.22L84.76 37.23Q91.09 37.46 96.11 40.24L96.21 40.33L96.22 40.35Q94.74 37.88 93.95 35.71L94.02 35.79L93.96 35.73Q93.41 35.44 91.88 34.87L91.99 34.98L91.98 34.96Q91.81 34.23 91.39 32.74L91.40 32.75L91.28 32.63Q87.18 31.49 82.08 31.69L82.15 31.76L82.00 31.61Q84.16 28.89 87.70 23.34L87.75 23.39L87.71 23.35Q91.35 17.62 93.25 15.07L93.23 15.05L93.23 15.04Q93.77 13.68 94.80 10.98L94.88 11.07L94.75 10.93Q94.24 11.45 92.79 12.06L92.68 11.95L92.65 11.92Q93.11 11.23 93.83 9.71L93.73 9.61L93.80 9.68Q88.47 11.81 82.76 11.73L82.75 11.72L82.71 11.68Q76.67 11.51 71.72 8.99L71.84 9.11L71.82 9.09Q72.92 11.41 73.64 13.65L73.58 13.60L73.68 13.70Q74.81 14.26 75.61 14.48L75.58 14.45L75.47 14.34Q75.76 15.05 76.03 16.50L76.09 16.56L76.12 16.59Q79.85 17.66 84.72 17.47L84.67 17.42L84.66 17.41Q82.30 20.64 78.99 25.63L79.09 25.73L73.46 33.96L73.41 33.91Q73.03 35.17 72.01 37.72Z"/><path fill="#111" d="M111.24 25.52L111.21 25.49L111.08 25.36Q107.59 31.69 104.16 35.65L104.28 35.76L104.19 35.68Q102.28 36.06 99.85 36.93L99.91 36.99L99.94 37.02Q104.87 31.45 109.63 23.03L109.58 22.98L109.63 23.04Q105.05 16.09 99.07 9.69L99.06 9.69L98.95 9.57Q101.95 10.87 104.24 11.36L104.17 11.29L104.20 11.32Q108.89 16.58 111.32 20.54L111.32 20.54L111.33 20.55Q113.82 16.11 117.74 11.69L117.69 11.64L117.77 11.72Q119.40 11.45 122.60 10.69L122.52 10.61L122.47 10.56Q116.41 17.02 112.94 22.96L112.89 22.91L112.99 23.01Q118.16 31.68 122.53 36.24L122.54 36.25L122.59 36.30Q120.05 35.55 117.95 35.32L117.89 35.25L117.82 35.18Q115.16 32.34 111.24 25.52ZM117.86 35.64L117.83 35.62L117.83 35.61Q118.09 35.61 118.55 35.73L118.47 35.64L118.63 35.80Q119.34 36.48 120.86 38.08L120.81 38.02L120.85 38.06Q124.24 38.90 127.29 40.27L127.25 40.24L127.32 40.31Q120.16 33.68 115.06 24.93L115.03 24.89L114.95 24.82Q118.72 18.20 124.63 11.34L124.73 11.45L124.65 11.37Q123.23 12.04 121.06 12.57L121.00 12.52L121.05 12.57Q121.88 11.61 123.63 9.82L123.64 9.82L123.59 9.78Q121.27 10.73 117.58 11.30L117.69 11.41L117.51 11.23Q114.12 15.07 111.53 19.38L111.63 19.48L111.57 19.42Q110.71 17.88 109.53 16.39L109.43 16.29L107.17 13.38L106.73 13.32L106.81 13.40Q106.77 13.51 106.54 13.44L106.49 13.39L106.54 13.44Q105.75 12.50 104.27 10.94L104.37 11.04L104.24 10.90Q100.46 10.06 97.87 8.69L97.90 8.72L97.78 8.60Q104.58 15.93 109.15 22.97L109.17 22.99L109.18 23.01Q104.65 31.15 98.90 37.74L98.87 37.70L98.96 37.79Q100.28 37.14 102.41 36.56L102.32 36.47L101.21 38.10L101.19 38.08Q101.21 38.10 99.87 39.43L99.81 39.37L99.86 39.42Q102.78 38.26 105.94 37.77L105.90 37.73L106.02 37.85Q109.89 33.20 112.48 28.44L112.45 28.41L112.45 28.41Q115.17 32.80 117.87 35.65Z"/><path fill="#222" d="M45.53 9.29L45.47 9.22L45.59 9.35Q49.32 11.82 54.08 12.05L54.14 12.10L54.16 12.12Q58.81 12.32 63.08 10.57L63.00 10.50L62.96 10.46Q62.68 10.97 61.92 13.75L61.96 13.79L61.91 13.74Q59.30 14.91 56.33 15.06L56.25 14.97L56.35 15.07Q53.31 15.16 50.41 14.43L50.47 14.48L50.33 14.35Q51.05 18.00 51.24 21.65L51.39 21.80L51.36 21.77Q53.27 21.89 54.87 21.85L54.93 21.91L54.91 21.90Q56.05 21.82 58.45 21.71L58.54 21.80L58.44 21.70Q58.41 22.36 58.41 23.04L58.45 23.08L58.49 24.45L58.52 24.48Q56.17 24.53 51.37 24.61L51.29 24.52L51.32 24.55Q51.25 28.59 50.68 32.59L50.78 32.69L50.81 32.72Q53.38 32.02 56.12 32.13L56.14 32.15L56.12 32.13Q58.83 32.21 61.42 33.05L61.43 33.06L61.32 32.96Q61.47 33.82 61.73 34.58L61.66 34.51L62.16 36.08L62.21 36.13Q59.05 34.87 55.62 34.87L55.66 34.90L55.52 34.77Q50.64 34.75 46.37 37.00L46.39 37.02L46.37 37.00Q48.75 30.25 48.49 23.13L48.40 23.04L48.45 23.09Q48.12 15.87 45.46 9.21ZM45.94 37.79L45.98 37.83L45.88 37.73Q47.14 37.01 47.90 36.66L47.95 36.71L47.95 36.71Q47.67 37.39 47.10 38.91L47.15 38.96L47.17 38.98Q51.63 36.93 56.69 37.19L56.84 37.34L56.85 37.36Q61.97 37.60 65.97 40.30L65.98 40.32L65.92 40.25Q64.84 37.80 64.15 35.86L64.01 35.72L64.07 35.78Q63.08 35.17 62.09 34.82L62.09 34.82L62.03 34.76Q61.70 33.45 61.55 32.65L61.64 32.74L61.48 32.58Q58.59 31.78 55.43 31.78L55.40 31.75L55.43 31.78Q54.26 31.75 53.11 31.86L52.97 31.72L53.13 31.88Q53.07 30.45 53.11 29.24L53.19 29.32L53.37 26.91L53.37 26.90Q55.11 26.74 56.89 26.78L56.87 26.75L56.97 26.85Q58.70 26.79 60.49 26.94L60.61 27.06L60.60 27.06Q60.52 26.10 60.52 25.15L60.34 24.97L60.39 23.12L59.59 23.19L59.70 23.30Q59.27 23.37 58.82 23.37L58.77 23.33L58.67 23.23Q58.77 22.63 58.92 21.34L58.99 21.41L58.86 21.28Q57.37 21.62 56.19 21.66L56.20 21.67L56.12 21.59Q55.14 21.55 53.31 21.48L53.26 21.43L53.28 21.44Q53.28 20.11 53.09 17.30L53.01 17.22L53.12 17.33Q54.11 17.41 55.10 17.41L55.03 17.34L55.13 17.44Q59.87 17.45 63.56 15.55L63.61 15.60L63.50 15.48Q64.11 13.17 64.99 10.96L64.97 10.95L64.88 10.85Q63.60 11.75 62.77 12.09L62.82 12.14L62.88 12.20Q63.07 11.33 63.53 9.77L63.56 9.81L63.57 9.81Q58.85 11.87 53.98 11.57L54.03 11.61L53.98 11.56Q48.82 11.39 44.98 8.54L44.94 8.51L44.82 8.39Q47.77 15.40 48.07 23.01L48.02 22.96L48.04 22.98Q48.36 30.92 45.85 37.70Z"/><path d="M16 2 C107 29,84 3,190 4" stroke="#888" fill="none"/><path fill="#333" d="M164.27 24.68L164.20 24.61L164.15 24.56Q164.15 28.83 163.43 32.98L163.50 33.05L163.50 33.05Q165.73 32.46 168.82 32.35L168.86 32.39L168.76 32.30Q170.09 32.48 171.16 31.48L171.34 31.65L171.22 31.54Q172.25 30.50 172.25 29.16L172.40 29.31L172.36 29.27Q172.22 28.83 172.18 28.56L172.28 28.66L172.29 28.66Q172.21 25.81 169.96 24.97L169.85 24.86L169.89 24.89Q169.12 24.58 168.43 24.66L168.45 24.68L168.41 24.63Q167.42 24.63 166.39 24.67L166.29 24.57L166.29 24.57Q165.31 24.69 164.28 24.69ZM163.08 14.28L163.05 14.25L163.02 14.22Q163.91 17.55 164.18 21.93L164.23 21.98L164.21 21.96Q165.53 21.94 168.19 21.98L168.24 22.03L168.27 22.06Q171.15 22.05 171.50 18.51L171.50 18.51L171.57 18.59Q171.81 16.69 170.41 15.86L170.37 15.83L170.25 15.71Q169.38 15.21 164.96 14.56L164.96 14.56L165.00 14.60Q163.90 14.41 162.99 14.19ZM159.38 37.12L159.44 37.17L159.30 37.03Q161.84 30.43 161.57 23.05L161.58 23.06L161.51 22.99Q161.24 15.71 158.31 9.24L158.23 9.17L158.31 9.25Q162.17 11.85 168.39 12.09L168.39 12.09L168.41 12.11Q174.64 12.36 174.98 15.25L174.93 15.21L174.95 15.23Q175.29 18.00 173.88 20.66L173.95 20.73L173.78 20.57Q173.17 22.20 171.57 22.89L171.57 22.89L171.59 22.90Q175.23 23.57 175.46 28.94L175.40 28.89L175.36 28.84Q175.37 29.89 175.30 31.29L175.29 31.28L175.34 31.34Q175.32 32.68 174.38 33.62L174.50 33.74L174.35 33.58Q173.41 34.51 172.08 34.66L172.23 34.81L172.22 34.80Q170.67 34.81 169.61 34.81L169.64 34.85L169.72 34.93Q163.88 34.80 159.35 37.08ZM172.20 37.44L172.24 37.48L172.11 37.36Q173.14 37.52 175.01 37.63L174.90 37.52L174.93 37.55Q176.41 37.66 177.51 36.78L177.57 36.84L177.46 36.73Q178.37 35.93 178.26 34.37L178.17 34.28L178.07 34.18Q178.00 33.23 177.27 29.77L177.46 29.95L177.33 29.82Q176.63 26.58 174.77 25.09L174.82 25.15L174.36 24.26L174.31 24.21Q176.09 22.91 176.66 19.14L176.67 19.15L176.60 19.09Q176.79 17.98 176.71 16.57L176.75 16.60L176.76 16.62Q176.67 15.27 175.57 14.43L175.63 14.49L175.56 14.43Q175.24 14.22 175.13 14.18L175.09 14.15L175.03 14.09Q174.84 13.63 174.00 12.83L174.04 12.86L174.00 12.83Q172.56 11.85 168.34 11.66L168.35 11.67L168.38 11.70Q161.73 11.40 157.73 8.51L157.66 8.44L157.59 8.37Q160.93 15.44 161.24 22.98L161.22 22.97L161.18 22.93Q161.53 30.78 158.72 37.71L158.79 37.78L160.84 36.83L160.76 36.74Q160.39 37.90 159.90 39.04L159.96 39.10L159.94 39.08Q164.19 37.17 169.22 37.17L169.24 37.19L169.34 37.29Q170.77 37.31 172.21 37.46ZM170.04 26.87L170.05 26.89L169.95 26.78Q170.78 26.81 171.69 27.27L171.67 27.25L171.71 27.28Q171.82 27.63 171.97 28.69L171.85 28.57L171.96 28.68Q172.12 30.01 171.18 31.06L171.18 31.06L171.21 31.09Q170.19 32.05 168.78 31.93L168.86 32.01L167.44 32.19L167.29 32.05Q166.59 32.14 165.87 32.26L165.89 32.27L165.88 32.27Q166.22 30.48 166.30 27.01L166.26 26.97L166.24 26.96Q166.89 26.88 168.14 26.84L168.09 26.79L168.11 26.81Q169.44 26.85 170.05 26.88ZM168.94 17.21L169.03 17.29L169.37 17.26L169.33 17.22Q169.51 17.17 169.70 17.21L169.83 17.34L170.23 17.36L170.61 17.54L171.05 17.45L171.20 17.60Q171.29 17.84 171.29 18.14L171.20 18.06L171.27 18.66L171.29 18.68Q171.15 19.79 170.27 20.73L170.37 20.83L170.32 20.78Q169.47 21.74 168.25 21.74L168.22 21.70L168.15 21.63Q167.11 21.63 167.11 21.63L167.29 21.80L167.15 21.66Q165.79 21.60 166.13 21.60L166.16 21.62L166.18 21.64Q166.26 20.24 165.95 17.19L165.96 17.20L165.89 17.13Q167.56 17.35 169.08 17.35Z"/><path d="M11 24 C104 24,119 29,184 18" stroke="#444" fill="none"/><path fill="#222" d="M138.70 14.64L138.75 14.69L138.81 14.75Q136.69 14.73 135.74 14.88L135.86 15.00L135.73 14.87Q134.11 15.12 132.89 15.65L132.93 15.69L132.97 15.73Q129.34 17.05 129.23 21.73L129.40 21.90L129.25 21.75Q129.33 24.58 129.98 27.51L129.89 27.42L129.93 27.46Q130.82 31.51 134.44 32.69L134.40 32.65L134.36 32.61Q136.37 33.29 137.82 33.14L137.78 33.10L138.14 33.00L138.18 33.05Q138.32 33.00 138.51 33.04L138.61 33.13L138.57 33.09Q138.66 33.03 138.82 33.00L138.77 32.95L138.78 32.96Q141.42 32.71 142.79 32.14L142.84 32.19L139.27 28.65L139.30 28.68Q139.55 28.29 140.16 27.68L140.25 27.77L141.06 26.75L141.18 26.87Q143.03 28.95 145.01 31.01L144.89 30.88L144.98 30.97Q147.17 29.02 147.44 23.65L147.57 23.78L147.58 23.79Q147.67 22.89 147.67 21.98L147.57 21.87L147.58 21.89Q147.61 16.24 142.54 15.14L142.50 15.09L142.48 15.08Q141.17 14.75 138.66 14.60ZM151.54 36.77L151.48 36.71L151.42 36.65Q150.88 37.14 149.70 38.02L149.76 38.07L145.37 34.41L145.32 34.36Q142.87 35.61 138.61 35.65L138.57 35.60L138.62 35.65Q132.12 35.81 129.30 33.57L129.16 33.43L129.19 33.46Q127.40 31.66 126.94 28.69L127.00 28.76L127.03 28.78Q126.82 26.98 126.44 23.40L126.45 23.40L126.34 23.30Q126.34 22.58 126.23 20.83L126.19 20.79L126.35 20.95Q126.07 19.26 126.11 18.39L126.21 18.48L126.17 18.44Q126.35 15.46 128.10 13.90L128.12 13.93L127.99 13.79Q129.49 12.44 132.69 11.94L132.70 11.96L132.78 12.04Q135.13 11.53 138.03 11.61L138.18 11.76L138.02 11.61Q145.53 11.73 148.65 14.09L148.68 14.12L148.75 14.19Q150.97 16.37 150.71 21.28L150.57 21.15L150.64 21.22Q150.49 24.91 150.30 26.24L150.32 26.27L150.20 26.15Q149.53 30.62 147.21 32.94L147.35 33.08L147.27 33.00Q148.81 34.31 151.55 36.78ZM146.59 12.41L146.64 12.46L146.59 12.41Q144.67 11.79 138.16 11.29L138.12 11.24L138.13 11.26Q136.66 11.19 133.88 11.31L134.01 11.44L133.89 11.32Q129.73 11.62 127.49 13.60L127.57 13.67L127.58 13.69Q125.87 15.10 125.87 18.26L125.86 18.25L125.84 18.23Q125.84 19.07 125.99 20.78L126.06 20.85L125.88 20.67Q126.16 22.51 126.16 23.39L126.22 23.45L126.16 23.39Q126.26 25.08 126.64 28.66L126.58 28.60L126.67 28.69Q127.00 31.54 128.60 33.59L128.59 33.58L128.60 33.59Q128.85 34.34 130.07 35.48L130.12 35.53L130.10 35.51Q132.93 37.62 138.11 37.89L137.98 37.76L138.08 37.85Q138.35 37.78 140.75 37.90L140.76 37.91L140.74 37.89Q145.65 38.16 147.93 37.09L147.98 37.14L147.91 37.07Q148.77 37.74 153.49 41.32L153.59 41.42L153.50 41.32Q154.11 40.79 155.41 39.80L155.42 39.82L155.36 39.76Q154.46 39.05 153.66 38.36L153.63 38.33L151.97 36.86L152.18 36.92L152.19 36.93Q151.67 36.52 150.45 35.50L150.28 35.33L150.34 35.38Q152.28 32.91 152.28 28.38L152.20 28.30L152.35 28.44Q152.36 28.04 152.39 27.20L152.40 27.21L152.39 27.20Q152.26 26.18 152.26 25.77L152.42 25.92L152.38 25.89Q152.34 20.33 151.62 17.97L151.64 17.99L151.70 18.05Q151.27 16.71 150.40 15.64L150.28 15.53L150.37 15.62Q149.52 13.44 146.59 12.41ZM140.57 16.97L140.55 16.95L140.63 17.03Q144.77 17.02 146.60 18.62L146.53 18.55L146.55 18.57Q147.14 19.81 147.26 21.15L147.20 21.09L147.31 21.20Q147.19 22.26 147.12 23.63L147.24 23.75L147.12 23.64Q146.79 28.60 144.85 30.31L144.93 30.39L144.96 30.42Q143.56 29.02 141.04 26.28L141.18 26.41L141.17 26.40Q140.39 27.14 138.83 28.70L138.84 28.71L138.80 28.68Q139.27 29.19 140.41 30.37L140.49 30.45L140.38 30.45L140.43 30.50Q140.96 30.99 141.99 32.06L141.99 32.06L142.09 32.16Q140.93 32.25 138.60 32.56L138.75 32.70L138.18 32.67L137.74 32.65L137.65 32.59L137.69 32.63Q134.19 32.59 132.21 30.96L132.31 31.06L132.30 31.05Q131.32 29.00 131.36 25.88L131.38 25.90L131.37 25.89Q131.55 17.20 140.73 17.13Z"/><path fill="#111" d="M22.89 24.73L22.90 24.74L22.71 24.55Q22.75 28.85 22.02 33.00L22.12 33.09L22.01 32.98Q24.29 32.45 27.38 32.34L27.31 32.27L27.49 32.46Q28.71 32.53 29.78 31.52L29.79 31.54L29.84 31.59Q30.86 30.53 30.86 29.20L30.87 29.21L30.83 29.17Q30.92 28.96 30.88 28.69L30.89 28.69L30.77 28.58Q30.60 25.63 28.35 24.79L28.52 24.95L28.49 24.92Q27.77 24.66 27.08 24.73L26.94 24.60L26.99 24.64Q25.95 24.60 24.93 24.64L24.95 24.65L24.83 24.54Q23.93 24.74 22.90 24.74ZM21.61 14.23L21.59 14.22L21.64 14.27Q22.52 17.58 22.78 21.96L22.65 21.83L22.76 21.93Q24.12 21.96 26.78 22.00L26.86 22.08L26.81 22.03Q29.76 22.08 30.10 18.54L30.12 18.56L30.08 18.52Q30.35 16.66 28.95 15.83L28.91 15.79L28.84 15.72Q28.08 15.34 23.66 14.69L23.53 14.56L23.52 14.55Q22.46 14.41 21.55 14.18ZM17.86 37.02L17.95 37.11L17.99 37.15Q20.50 30.53 20.24 23.14L20.15 23.05L20.07 22.97Q19.75 15.65 16.81 9.18L16.99 9.35L17.00 9.36Q20.69 11.79 26.91 12.04L26.85 11.98L27.01 12.14Q33.07 12.22 33.41 15.12L33.45 15.15L33.56 15.26Q33.86 18.00 32.45 20.66L32.48 20.69L32.39 20.61Q31.69 22.15 30.09 22.83L30.12 22.86L30.17 22.91Q33.65 23.42 33.88 28.79L34.05 28.96L34.06 28.97Q34.09 30.03 34.01 31.43L34.00 31.42L33.91 31.33Q33.99 32.79 33.06 33.72L33.02 33.68L32.89 33.55Q32.13 34.65 30.79 34.81L30.66 34.67L30.70 34.71Q29.26 34.83 28.20 34.83L28.29 34.93L28.29 34.92Q22.43 34.78 17.90 37.06ZM30.63 37.30L30.68 37.36L30.69 37.37Q31.58 37.38 33.44 37.49L33.61 37.66L33.60 37.65Q34.87 37.55 35.97 36.67L35.96 36.66L36.10 36.80Q36.90 35.89 36.79 34.33L36.80 34.34L36.68 34.22Q36.63 33.29 35.90 29.83L35.95 29.88L36.02 29.95Q35.32 26.69 33.45 25.20L33.31 25.07L32.97 24.31L33.01 24.34Q34.71 22.96 35.28 19.19L35.25 19.16L35.16 19.07Q35.33 17.94 35.25 16.53L35.38 16.66L35.39 16.67Q35.24 15.27 34.14 14.43L34.07 14.37L34.09 14.39Q33.90 14.31 33.79 14.27L33.69 14.18L33.71 14.20Q33.49 13.71 32.66 12.91L32.61 12.86L32.67 12.93Q31.07 11.78 26.84 11.59L26.92 11.66L26.85 11.60Q20.29 11.40 16.30 8.51L16.18 8.38L16.22 8.43Q19.44 15.38 19.75 22.92L19.85 23.02L19.80 22.98Q20.24 30.91 17.42 37.84L17.41 37.83L19.44 36.85L19.39 36.80Q19.05 37.98 18.55 39.12L18.47 39.04L18.50 39.08Q22.93 37.33 27.95 37.33L27.89 37.27L27.90 37.28Q29.36 37.33 30.81 37.48ZM28.56 26.82L28.57 26.83L28.54 26.80Q29.33 26.79 30.24 27.25L30.21 27.22L30.29 27.30Q30.43 27.67 30.59 28.74L30.48 28.63L30.49 28.64Q30.77 30.09 29.83 31.14L29.66 30.96L29.73 31.03Q28.90 32.19 27.50 32.08L27.34 31.92L26.02 32.20L25.85 32.03Q25.26 32.24 24.54 32.36L24.50 32.32L24.36 32.18Q24.67 30.35 24.74 26.89L24.80 26.95L24.80 26.94Q25.55 26.97 26.81 26.93L26.76 26.89L26.81 26.93Q28.08 26.91 28.69 26.95ZM27.66 17.35L27.50 17.20L27.92 17.24L28.04 17.36Q28.22 17.31 28.41 17.35L28.27 17.20L28.78 17.34L29.00 17.36L29.66 17.49L29.71 17.54Q29.74 17.72 29.74 18.02L29.74 18.03L29.67 18.49L29.75 18.57Q29.76 19.83 28.88 20.77L28.93 20.82L28.97 20.85Q28.08 21.78 26.86 21.78L26.78 21.69L26.79 21.71Q25.72 21.66 25.72 21.66L25.68 21.62L25.74 21.68Q24.44 21.68 24.78 21.68L24.77 21.66L24.75 21.65Q24.69 20.10 24.38 17.05L24.49 17.16L24.35 17.01Q26.00 17.22 27.53 17.22Z"/></svg>