<svg xmlns="http://www.w3.org/2000/svg" width="200" height="40" viewBox="0,0,200,40"><path fill="#222" d="M168.95 15.05L169.06 15.16L168.96 15.06Q164.64 15.04 160.94 14.05L161.09 14.20L161.09 14.19Q162.59 18.74 162.78 23.57L162.70 23.49L162.65 23.44Q162.90 28.30 161.68 32.90L161.64 32.86L161.70 32.93Q164.45 32.25 167.96 32.10L167.95 32.10L167.98 32.12Q171.92 31.95 173.71 29.52L173.77 29.58L173.76 29.57Q175.17 27.40 175.36 23.29L175.34 23.27L175.38 23.30Q175.50 21.60 175.05 19.89L174.95 19.79L175.13 19.97Q173.72 15.10 169.00 15.10ZM157.09 37.11L157.04 37.06L157.14 37.16Q160.01 31.46 160.01 24.76L160.03 24.78L160.03 24.78Q159.95 16.17 155.64 9.17L155.65 9.17L155.66 9.18Q160.92 11.85 169.18 12.04L169.17 12.03L169.28 12.15Q178.10 12.28 178.44 19.44L178.53 19.53L178.36 19.36Q178.59 22.18 178.56 23.63L178.46 23.53L178.52 23.59Q178.53 28.36 177.69 30.53L177.55 30.39L177.56 30.39Q177.25 31.61 176.49 32.45L176.39 32.35L176.42 32.38Q174.97 33.82 172.34 34.32L172.50 34.47L172.33 34.30Q170.84 34.68 167.83 34.91L167.92 35.00L167.94 35.02Q161.69 35.35 157.09 37.11ZM174.99 36.96L175.10 37.07L175.11 37.08Q177.79 36.68 179.42 35.19L179.47 35.24L179.41 35.18Q180.59 33.39 180.55 30.65L180.50 30.59L180.55 30.65Q180.68 29.40 180.53 25.90L180.41 25.78L180.07 21.26L180.15 21.34Q179.92 19.01 178.96 16.92L179.01 16.96L179.01 16.97Q178.49 16.02 177.80 15.37L177.73 15.30L177.64 15.06L177.64 15.06Q176.10 12.26 171.68 11.88L171.57 11.77L171.57 11.77Q168.88 11.63 161.88 10.91L161.95 10.98L161.91 10.94Q158.63 10.48 154.94 8.46L154.94 8.46L154.89 8.41Q159.78 15.85 159.78 24.61L159.88 24.71L159.84 24.67Q159.71 31.54 156.36 37.71L156.35 37.70L156.51 37.86Q157.05 37.45 158.38 36.95L158.44 37.01L158.37 36.94Q158.11 37.86 157.23 39.34L157.19 39.30L157.23 39.34Q160.19 38.19 163.54 37.69L163.67 37.83L163.66 37.82Q165.67 37.42 169.32 37.31L169.24 37.23L169.34 37.33Q173.32 37.31 175.14 37.12ZM175.04 23.35L175.11 23.42L175.14 23.45Q174.71 31.39 168.01 31.77L167.98 31.75L168.03 31.80Q166.14 31.96 164.09 32.23L163.90 32.04L164.03 32.17Q164.78 28.36 164.78 24.70L164.67 24.59L164.64 24.56Q164.73 20.96 164.01 17.11L163.93 17.03L163.88 16.98Q166.21 17.41 170.89 17.41L170.94 17.46L170.88 17.40Q172.28 17.28 173.92 18.23L173.90 18.21L174.02 18.33Q175.29 20.59 175.14 23.44Z"/><path fill="#333" d="M131.78 10.77L131.96 10.95L131.84 10.83Q133.81 15.77 134.38 20.95L134.41 20.97L134.42 20.99Q138.12 16.84 144.02 12.01L143.89 11.88L143.96 11.94Q147.09 11.58 149.72 10.78L149.83 10.89L143.29 16.53L143.29 16.53Q139.74 19.34 136.88 22.19L136.89 22.20L136.93 22.24Q144.91 31.40 149.98 36.12L149.89 36.04L149.89 36.03Q146.91 35.23 144.59 35.08L144.63 35.12L144.63 35.12Q138.76 29.63 134.46 23.80L134.51 23.85L134.56 23.90Q134.67 30.52 132.80 35.85L132.80 35.86L132.74 35.79Q132.47 35.79 131.98 35.98L131.91 35.91L132.01 36.20L132.03 36.22Q131.81 36.23 129.26 37.15L129.22 37.10L129.27 37.15Q132.11 30.48 131.77 23.02L131.87 23.12L131.84 23.09Q131.42 15.66 127.88 9.15L127.86 9.14L128.58 9.59L128.84 9.73L128.85 9.70L129.04 9.89Q129.65 10.16 131.86 10.85ZM132.12 10.54L132.13 10.54L132.15 10.57Q129.76 9.89 127.13 8.37L127.14 8.38L127.25 8.49Q131.47 15.72 131.47 24.66L131.55 24.74L131.50 24.69Q131.55 31.74 128.58 37.80L128.57 37.79L130.49 36.82L130.50 36.82Q130.17 37.90 129.49 39.20L129.52 39.23L129.57 39.28Q131.84 38.51 133.78 38.09L133.66 37.97L133.69 37.77L133.87 37.95Q134.03 37.80 134.60 37.65L134.63 37.68L134.62 37.67Q136.27 31.75 136.39 26.95L136.31 26.87L136.34 26.90Q138.48 29.46 140.31 31.33L140.25 31.27L140.30 31.32Q141.40 32.34 144.40 35.31L144.50 35.41L144.48 35.39L144.57 35.47Q145.52 36.23 147.38 37.83L147.35 37.80L147.36 37.81Q151.29 38.58 154.75 40.29L154.68 40.22L154.77 40.30Q145.36 31.62 139.11 24.19L139.17 24.26L139.17 24.25Q143.58 19.98 152.33 11.38L152.31 11.35L152.42 11.47Q149.81 12.54 147.79 12.92L147.72 12.85L147.87 13.01Q149.10 12.03 151.42 10.01L151.40 9.98L151.26 9.85Q147.12 11.22 143.77 11.41L143.90 11.55L143.82 11.46Q140.93 13.72 136.06 18.40L136.12 18.47L136.10 18.44Q135.70 15.83 135.13 13.28L135.13 13.28L135.15 13.30Q134.00 13.18 133.01 12.84L132.95 12.78L132.86 12.69Q132.64 11.93 132.07 10.49Z"/><path d="M15 13 C89 30,93 12,181 35" stroke="#555" fill="none"/><path d="M4 10 C89 16,79 25,194 35" stroke="#444" fill="none"/><path fill="#222" d="M109.07 34.83L109.15 34.91L109.21 34.97Q104.99 34.37 103.17 32.92L103.13 32.89L103.17 32.92Q101.39 31.52 100.97 28.51L100.97 28.52L100.95 28.50Q100.87 28.07 100.52 23.31L100.45 23.24L100.53 23.32Q100.65 22.22 100.58 20.97L100.51 20.90L100.55 20.94Q100.36 15.88 102.57 14.13L102.48 14.04L102.58 14.14Q105.29 12.09 113.06 11.40L112.94 11.29L113.04 11.39Q114.24 11.11 115.88 11.14L115.90 11.16L116.00 11.27Q115.92 11.19 118.89 11.19L118.93 11.23L119.00 11.30Q119.65 11.11 121.36 11.26L121.47 11.36L121.47 11.36Q121.04 12.38 120.01 15.46L119.97 15.42L119.89 15.35Q117.86 14.19 114.85 14.19L114.92 14.26L114.74 14.08Q114.10 14.20 113.30 14.27L113.36 14.33L113.19 14.17Q108.19 14.73 105.68 16.71L105.66 16.68L105.68 16.71Q103.65 18.29 103.50 21.64L103.54 21.69L103.46 21.61Q103.40 22.19 103.44 23.45L103.51 23.52L103.43 23.44Q103.66 28.39 106.06 30.49L105.95 30.37L105.97 30.40Q108.13 32.33 113.12 32.63L113.16 32.68L113.13 32.65Q116.20 32.74 119.21 30.95L119.34 31.09L119.26 31.01Q119.98 33.86 120.59 35.23L120.55 35.20L120.53 35.17Q118.40 35.41 116.77 35.37L116.85 35.45L116.83 35.43Q112.28 35.30 109.16 34.92ZM124.36 38.74L124.33 38.70L124.21 38.59Q122.41 35.56 121.72 32.97L121.87 33.12L121.73 32.99Q121.38 33.32 120.39 33.70L120.43 33.74L120.30 33.61Q120.09 32.94 119.90 32.10L119.93 32.13L119.45 30.33L119.55 30.42Q116.19 32.39 113.07 32.28L113.02 32.23L113.09 32.30Q108.74 32.02 106.42 30.27L106.49 30.35L106.46 30.31Q105.45 28.62 105.53 25.69L105.46 25.62L105.49 25.65Q105.50 21.02 107.98 18.89L108.09 19.00L108.08 18.99Q110.17 17.04 114.85 16.43L114.85 16.43L114.89 16.48Q115.76 16.43 116.48 16.43L116.49 16.44L116.35 16.29Q119.14 16.31 121.23 17.83L121.26 17.86L121.30 17.90Q121.79 15.76 123.01 12.52L123.04 12.56L123.03 12.55Q122.79 12.57 122.24 12.51L122.14 12.42L122.16 12.44Q121.53 12.30 121.26 12.30L121.29 12.33L121.37 12.41Q121.57 11.89 122.03 10.90L121.97 10.84L122.08 10.95Q121.73 10.82 119.23 10.75L119.33 10.84L119.23 10.75Q116.87 10.80 116.22 10.84L116.03 10.65L116.05 10.67Q105.63 11.10 102.16 13.68L102.14 13.66L102.11 13.63Q100.08 15.45 100.08 19.37L100.23 19.52L100.05 19.34Q100.05 20.44 100.16 23.14L100.32 23.30L100.18 23.16Q100.28 26.68 100.51 28.40L100.56 28.45L100.63 28.52Q100.93 31.56 102.53 33.09L102.56 33.11L102.53 33.09Q103.12 33.87 104.38 35.01L104.34 34.97L104.29 34.92Q107.66 36.81 112.91 37.57L112.80 37.46L112.92 37.58Q119.29 38.46 124.28 38.65Z"/><path fill="#222" d="M24.40 35.01L24.30 34.91L24.21 34.83Q20.19 34.42 18.36 32.97L18.24 32.86L18.36 32.97Q16.38 31.37 15.96 28.36L15.96 28.36L16.06 28.46Q16.05 28.11 15.71 23.36L15.72 23.37L15.76 23.41Q15.66 22.09 15.58 20.83L15.64 20.89L15.66 20.91Q15.38 15.76 17.59 14.01L17.78 14.19L17.77 14.19Q20.28 11.94 28.05 11.25L28.11 11.32L28.16 11.37Q29.41 11.13 31.05 11.17L31.00 11.12L31.06 11.18Q31.03 11.16 34.00 11.16L34.12 11.28L34.06 11.21Q34.86 11.17 36.57 11.33L36.69 11.45L36.55 11.31Q36.07 12.27 35.04 15.35L35.15 15.46L35.17 15.48Q32.91 14.10 29.91 14.10L29.98 14.18L30.01 14.21Q29.21 14.16 28.41 14.24L28.41 14.24L28.48 14.31Q23.32 14.71 20.81 16.69L20.76 16.64L20.89 16.77Q18.76 18.25 18.60 21.60L18.57 21.58L18.71 21.71Q18.61 22.26 18.65 23.52L18.60 23.47L18.70 23.57Q18.75 28.34 21.15 30.43L21.05 30.33L21.14 30.43Q23.40 32.45 28.39 32.76L28.34 32.71L28.37 32.74Q31.48 32.89 34.49 31.10L34.49 31.09L34.41 31.02Q34.97 33.71 35.58 35.08L35.67 35.17L35.64 35.14Q33.55 35.41 31.91 35.37L31.84 35.30L31.85 35.30Q27.45 35.33 24.33 34.95ZM39.39 38.62L39.40 38.64L39.41 38.64Q37.72 35.74 37.04 33.15L36.96 33.07L36.92 33.03Q36.46 33.26 35.47 33.64L35.46 33.63L35.54 33.70Q35.19 32.90 35.00 32.06L34.98 32.04L34.56 30.29L34.62 30.35Q31.40 32.46 28.28 32.34L28.15 32.22L28.23 32.30Q23.99 32.13 21.67 30.38L21.72 30.43L21.63 30.34Q20.42 28.45 20.50 25.52L20.65 25.67L20.51 25.53Q20.65 21.02 23.12 18.89L23.28 19.05L23.21 18.98Q25.42 17.16 30.11 16.55L29.92 16.36L29.94 16.38Q30.90 16.43 31.62 16.43L31.54 16.35L31.58 16.38Q34.27 16.30 36.37 17.82L36.48 17.93L36.37 17.82Q36.96 15.79 38.18 12.56L38.12 12.49L38.18 12.55Q37.82 12.46 37.26 12.40L37.30 12.44L37.32 12.45Q36.79 12.42 36.53 12.42L36.54 12.44L36.52 12.41Q36.65 11.83 37.11 10.84L37.22 10.95L37.10 10.83Q36.89 10.85 34.40 10.77L34.50 10.88L34.38 10.76Q32.02 10.81 31.37 10.84L31.23 10.70L31.35 10.82Q20.69 11.02 17.23 13.61L17.23 13.61L17.20 13.58Q15.32 15.54 15.32 19.47L15.29 19.43L15.29 19.43Q15.37 20.62 15.49 23.32L15.42 23.26L15.32 23.15Q15.53 26.80 15.76 28.51L15.64 28.39L15.79 28.54Q16.14 31.63 17.74 33.15L17.71 33.12L17.70 33.11Q18.22 33.83 19.48 34.97L19.44 34.93L19.55 35.04Q22.71 36.71 27.96 37.47L27.95 37.46L28.10 37.61Q34.51 38.54 39.50 38.73Z"/><path fill="#111" d="M61.50 32.83L61.49 32.82L61.50 32.82Q61.79 33.80 62.32 35.82L62.34 35.84L62.46 35.96Q58.18 34.57 53.58 34.84L53.53 34.79L53.66 34.93Q49.02 35.12 45.02 37.10L45.05 37.13L45.07 37.15Q45.21 36.37 45.25 36.45L45.32 36.52L45.27 36.47Q48.97 32.48 52.89 28.07L52.95 28.12L52.93 28.10Q57.38 23.15 58.56 18.46L58.47 18.38L58.59 18.50Q58.97 16.67 57.69 15.49L57.66 15.45L57.73 15.53Q56.50 14.39 54.71 14.54L54.56 14.39L54.59 14.42Q54.23 14.36 53.88 14.36L53.98 14.45L54.01 14.48Q52.35 14.36 51.10 15.27L51.10 15.27L51.25 15.42Q49.95 16.78 50.17 19.45L50.15 19.42L50.02 19.30Q48.29 19.01 47.08 18.56L47.02 18.50L47.17 18.65Q46.95 17.21 46.87 15.76L46.92 15.81L46.93 15.82Q46.82 14.15 47.43 13.01L47.28 12.86L47.40 12.98Q49.24 11.66 52.59 11.66L52.53 11.60L54.25 11.57L54.22 11.54Q56.45 11.53 57.41 11.64L57.45 11.69L57.56 11.79Q61.79 12.11 62.06 14.54L62.10 14.58L62.10 14.58Q62.21 15.19 62.14 15.99L62.04 15.90L62.04 15.90Q62.05 16.59 61.90 17.27L61.96 17.34L61.88 17.25Q60.35 25.47 52.78 32.33L52.74 32.29L52.67 32.22Q54.11 32.10 55.49 32.10L55.40 32.02L55.51 32.13Q58.75 32.13 61.60 32.93ZM60.95 12.02L61.06 12.14L61.00 12.08Q59.39 11.41 57.67 11.34L57.60 11.26L54.32 11.22L54.35 11.25Q49.81 10.89 47.60 12.00L47.71 12.10L47.59 11.99Q46.52 13.35 46.52 15.41L46.49 15.38L46.53 15.42Q46.61 16.19 46.91 19.00L46.91 19.00L46.98 19.07Q47.43 19.21 48.61 19.52L48.58 19.49L48.51 20.45L48.63 20.57Q48.58 21.02 48.66 21.55L48.63 21.52L48.68 21.57Q49.96 21.71 52.44 21.94L52.30 21.80L52.45 21.96Q52.39 21.55 52.39 21.21L52.36 21.17L52.35 21.17Q52.37 19.36 53.59 18.00L53.51 17.93L53.64 18.06Q54.81 16.66 56.60 16.77L56.53 16.71L56.64 16.81Q57.31 16.76 58.07 16.92L58.16 17.00L58.09 16.94Q58.17 17.28 58.25 17.70L58.25 17.70L58.28 17.73Q58.29 18.12 58.21 18.46L58.31 18.56L58.21 18.46Q56.96 23.23 52.54 28.06L52.52 28.03L52.57 28.08Q50.34 30.23 44.90 36.29L44.99 36.38L44.88 36.27Q44.78 37.20 44.44 37.77L44.38 37.71L44.50 37.83Q46.03 36.89 47.56 36.36L47.51 36.32L47.60 36.40Q46.86 36.96 45.91 38.45L45.81 38.34L45.80 38.34Q45.73 38.72 45.61 39.06L45.60 39.04L45.69 39.14Q50.46 36.98 55.94 37.17L56.03 37.25L56.07 37.29Q61.78 37.49 66.35 39.85L66.26 39.75L65.28 37.64L65.37 37.72Q64.62 36.29 64.35 35.49L64.43 35.57L64.36 35.50Q63.70 35.14 62.48 34.72L62.40 34.64L62.35 34.59Q62.25 33.92 61.87 32.55L61.79 32.47L61.88 32.56Q59.74 32.06 57.46 31.87L57.42 31.84L57.33 31.74Q62.11 27.27 63.63 19.01L63.57 18.95L63.88 16.17L63.84 16.13Q63.61 14.19 62.40 13.51L62.52 13.63L62.38 13.53L62.51 13.66Q62.39 13.50 62.31 13.50L62.38 13.57L62.42 13.61Q62.20 12.78 61.09 12.17Z"/><path fill="#333" d="M79.25 25.73L79.11 25.60L79.08 25.56Q79.20 25.68 82.58 25.65L82.59 25.65L82.49 25.55Q84.71 25.48 85.77 25.52L85.76 25.51L85.77 25.52Q84.86 22.78 82.42 17.14L82.45 17.17L82.31 17.03Q81.78 18.48 80.73 21.34L80.67 21.28L80.73 21.34Q79.69 24.20 79.12 25.61ZM86.90 28.01L86.89 28.01L87.00 28.12Q84.76 28.13 82.55 28.17L82.50 28.11L82.58 28.19Q80.19 28.09 77.91 28.28L78.01 28.38L78.05 28.42Q76.53 31.85 73.30 36.04L73.28 36.02L73.18 35.92Q70.72 36.66 69.35 37.16L69.32 37.13L69.28 37.08Q74.30 31.33 78.98 17.97L79.02 18.01L79.00 17.99Q80.24 14.54 81.61 11.31L81.73 11.43L81.67 11.37Q82.08 11.48 82.43 11.48L82.36 11.41L82.98 11.31L83.15 11.48Q83.76 12.70 88.59 24.35L88.60 24.35L88.53 24.29Q91.86 32.18 95.85 36.33L95.87 36.34L95.96 36.43Q95.50 36.35 91.61 35.48L91.46 35.32L91.54 35.40Q89.01 32.30 87.03 28.15ZM91.37 35.65L91.49 35.77L92.02 35.81L92.05 35.84Q92.38 35.93 92.68 36.05L92.65 36.02L92.58 35.95Q92.85 36.25 94.68 38.27L94.79 38.39L94.85 38.45Q98.30 39.16 100.70 40.18L100.80 40.29L100.78 40.27Q95.28 35.71 91.28 27.72L91.28 27.72L91.36 27.79Q89.74 24.50 88.29 20.54L88.25 20.50L85.45 12.94L85.51 13.00Q85.12 12.95 84.89 12.95L85.06 13.12L84.37 12.97L84.48 13.07Q84.01 12.30 83.29 10.93L83.29 10.94L83.37 11.01Q82.77 10.95 82.32 10.91L82.36 10.96L82.44 11.04Q81.90 10.91 81.36 10.91L81.44 10.99L81.41 10.95Q80.08 14.96 76.20 25.12L76.19 25.11L76.02 24.94Q72.90 32.91 68.26 37.70L68.31 37.75L68.36 37.81Q69.34 37.33 71.35 36.72L71.42 36.79L71.45 36.82Q70.70 37.71 69.14 39.49L69.10 39.46L69.10 39.45Q70.79 38.78 74.71 38.02L74.60 37.92L74.78 38.09Q78.03 33.57 79.59 30.34L79.69 30.45L79.63 30.38Q81.48 30.37 83.80 30.41L83.85 30.45L83.75 30.35Q86.40 30.30 87.77 30.37L87.80 30.40L87.73 30.34Q89.18 32.89 91.54 35.82ZM83.64 20.95L83.80 21.11L83.62 20.93Q84.67 23.20 85.43 25.30L85.28 25.15L82.13 25.30L81.95 25.12Q82.70 23.86 83.77 21.08Z"/></svg>