<svg xmlns="http://www.w3.org/2000/svg" width="200" height="40" viewBox="0,0,200,40"><path fill="#333" d="M50.31 35.29L50.40 35.38L50.28 35.26Q48.95 35.41 47.38 34.99L47.42 35.03L47.32 34.92Q46.19 34.10 46.04 32.46L45.98 32.41L46.10 32.52Q46.05 32.32 46.24 29.69L46.17 29.62L46.12 29.57Q47.22 29.46 49.24 29.08L49.25 29.08L49.12 29.91L49.05 29.84Q48.81 31.62 50.22 32.19L50.26 32.23L50.24 32.21Q50.94 32.45 53.03 32.45L53.06 32.47L53.02 32.44Q54.70 32.37 54.89 32.29L54.87 32.27L54.77 32.17Q55.69 32.02 56.41 31.53L56.43 31.55L56.50 31.61Q57.90 30.66 57.71 28.56L57.66 28.51L57.62 28.47Q57.43 26.04 55.70 24.48L55.83 24.61L55.88 24.66Q54.13 23.08 51.65 23.08L51.51 22.94L51.58 22.78L51.61 22.81Q51.96 22.73 52.83 22.66L52.92 22.75L52.82 22.64Q54.70 22.51 56.07 21.27L56.20 21.40L56.19 21.39Q57.50 20.09 57.65 18.23L57.68 18.26L57.65 18.23Q57.68 17.83 57.68 17.49L57.73 17.55L57.70 17.52Q57.76 16.05 56.39 15.14L56.29 15.04L56.31 15.05Q55.18 14.35 53.58 14.46L53.44 14.31L53.47 14.35Q52.23 14.25 51.01 14.67L50.91 14.57L50.97 14.62Q49.51 15.15 49.21 16.29L49.26 16.35L49.32 16.40Q49.16 17.19 49.23 17.95L49.17 17.89L49.07 17.79Q48.07 17.59 46.01 16.86L46.08 16.93L46.13 16.98Q45.93 15.34 45.97 14.50L45.84 14.37L45.78 14.31Q45.94 12.83 47.01 12.15L46.97 12.11L47.06 12.20Q48.41 11.54 50.01 11.54L50.10 11.63L49.97 11.50Q53.25 11.58 56.41 11.85L56.35 11.78L56.39 11.82Q61.36 12.15 61.06 15.92L61.20 16.07L61.16 16.02Q61.11 17.53 60.61 19.09L60.62 19.10L60.53 19.01Q59.64 22.11 57.28 23.03L57.27 23.02L57.36 23.11Q59.85 23.51 60.46 26.86L60.62 27.02L60.56 26.96Q60.85 28.16 60.92 30.17L60.84 30.09L60.78 30.04Q60.93 34.49 56.33 34.94L56.48 35.10L56.41 35.02Q55.60 35.01 50.31 35.28ZM55.64 37.65L55.49 37.50L55.54 37.55Q56.24 37.67 59.09 37.75L58.97 37.63L59.07 37.72Q60.76 37.74 62.40 37.09L62.51 37.20L62.34 37.04Q63.52 36.09 63.33 34.34L63.41 34.42L63.46 34.47Q63.32 33.10 63.01 31.35L62.98 31.32L62.96 31.30Q62.32 26.89 60.38 25.25L60.36 25.23L60.20 24.88L60.10 24.74L60.08 24.72Q61.91 23.35 62.67 18.98L62.53 18.84L62.66 18.97Q62.73 18.54 62.84 17.59L62.80 17.55L62.72 17.47Q62.95 16.86 62.87 16.18L62.71 16.01L62.69 15.99Q62.65 14.43 61.36 13.75L61.43 13.81L61.32 13.79L61.24 13.70Q60.90 12.68 59.76 12.14L59.71 12.10L59.74 12.13Q58.32 11.54 53.18 11.24L53.05 11.11L53.19 11.25Q51.50 11.16 49.90 11.16L49.93 11.19L49.82 11.08Q48.34 11.19 46.81 11.84L46.74 11.77L46.82 11.85Q45.60 12.61 45.60 14.36L45.50 14.26L45.59 14.35Q45.44 13.78 45.71 17.13L45.84 17.27L45.88 17.30Q46.20 17.39 47.83 18.00L47.83 18.00L47.80 17.97Q47.83 18.53 47.79 19.02L47.72 18.95L47.78 19.02Q47.70 19.43 47.74 19.96L47.74 19.96L47.71 19.93Q49.62 20.43 51.63 20.54L51.56 20.47L51.52 20.43Q51.51 18.48 52.61 17.64L52.58 17.61L52.55 17.58Q53.49 17.03 55.50 16.80L55.38 16.67L55.35 16.65Q56.65 16.81 57.23 17.00L57.14 16.91L57.24 17.01Q57.18 17.03 57.22 17.15L57.17 17.09L57.13 17.24L57.36 17.94L57.25 17.82Q57.28 18.05 57.24 18.20L57.21 18.17L57.36 18.32Q57.26 20.00 55.74 21.18L55.79 21.24L55.68 21.12Q54.71 21.98 52.69 22.17L52.70 22.18L52.79 22.27Q51.99 22.35 51.12 22.35L51.13 22.36L51.23 22.46Q51.24 22.78 51.39 23.46L51.39 23.46L51.45 23.52Q53.05 23.37 54.49 24.09L54.61 24.20L54.36 24.07L52.94 24.40L52.95 24.41Q52.91 24.67 53.02 25.28L53.05 25.31L53.11 25.37Q55.09 25.14 56.80 26.48L56.84 26.51L56.78 26.46Q57.10 26.92 57.40 28.56L57.44 28.60L57.38 28.54Q57.69 31.59 54.76 32.01L54.63 31.88L54.74 31.99Q52.55 32.16 51.98 32.12L52.04 32.19L51.94 32.08Q51.46 31.94 50.93 31.87L51.02 31.96L50.99 31.47L51.07 30.98L51.18 30.68L51.25 30.40L51.17 30.32Q50.20 30.37 49.40 30.57L49.51 30.68L49.36 30.53Q49.51 30.49 49.51 30.30L49.50 30.28L49.36 30.15Q49.36 29.92 49.36 29.69L49.40 29.73L49.45 29.78Q49.57 29.44 49.72 28.72L49.58 28.58L49.68 28.68Q47.86 28.95 46.00 29.30L45.90 29.21L45.89 29.19Q45.94 29.74 45.83 30.86L45.82 30.85L45.87 30.90Q45.75 32.02 45.75 32.62L45.67 32.55L45.72 32.60Q45.84 34.70 47.21 35.46L47.22 35.47L47.23 35.48Q48.54 37.59 53.26 37.39L53.28 37.42L53.35 37.49Q54.01 37.38 55.53 37.54Z"/><path d="M16 36 C96 38,87 33,180 38" stroke="#666" fill="none"/><path fill="#333" d="M163.45 35.28L163.56 35.39L163.44 35.27Q162.03 35.35 160.47 34.93L160.47 34.93L160.50 34.96Q159.29 34.06 159.14 32.42L159.09 32.37L159.21 32.49Q159.18 32.31 159.37 29.68L159.23 29.54L159.37 29.68Q160.31 29.40 162.33 29.02L162.46 29.16L162.26 29.91L162.09 29.73Q161.87 31.53 163.28 32.10L163.31 32.14L163.41 32.24Q164.09 32.46 166.19 32.46L166.13 32.41L166.17 32.45Q167.83 32.35 168.02 32.27L168.06 32.31L167.91 32.17Q168.91 32.10 169.63 31.60L169.60 31.57L169.66 31.64Q171.12 30.73 170.93 28.64L170.95 28.66L170.93 28.64Q170.72 26.18 168.99 24.62L169.03 24.67L168.99 24.63Q167.23 23.04 164.76 23.04L164.80 23.08L164.82 22.87L164.68 22.73Q165.21 22.84 166.08 22.76L165.91 22.59L165.99 22.67Q167.90 22.56 169.27 21.33L169.19 21.25L169.17 21.23Q170.60 20.05 170.75 18.18L170.77 18.20L170.73 18.16Q170.83 17.84 170.83 17.50L170.93 17.60L170.80 17.47Q170.87 16.01 169.50 15.10L169.50 15.10L169.52 15.12Q168.32 14.35 166.73 14.46L166.59 14.33L166.63 14.37Q165.46 14.33 164.24 14.75L164.09 14.61L164.08 14.60Q162.70 15.19 162.39 16.33L162.41 16.35L162.42 16.36Q162.12 17.01 162.19 17.77L162.35 17.92L162.33 17.90Q161.20 17.58 159.14 16.85L159.14 16.85L159.14 16.85Q158.96 15.22 159.00 14.39L158.98 14.36L158.97 14.36Q159.22 12.97 160.29 12.29L160.13 12.13L160.22 12.22Q161.54 11.52 163.14 11.52L163.23 11.62L163.13 11.51Q166.43 11.61 169.59 11.88L169.54 11.84L169.52 11.81Q174.64 12.29 174.34 16.06L174.25 15.97L174.35 16.07Q174.22 17.50 173.73 19.07L173.65 18.99L173.79 19.13Q172.79 22.13 170.43 23.04L170.54 23.14L170.43 23.04Q172.98 23.49 173.59 26.84L173.65 26.90L173.59 26.85Q173.91 28.07 173.98 30.09L174.03 30.14L173.97 30.08Q174.14 34.55 169.53 35.01L169.47 34.94L169.53 35.00Q168.73 35.00 163.44 35.27ZM168.79 37.65L168.72 37.58L168.69 37.56Q169.43 37.72 172.29 37.80L172.17 37.68L172.20 37.71Q174.02 37.85 175.65 37.21L175.51 37.07L175.66 37.21Q176.74 36.16 176.55 34.41L176.55 34.41L176.57 34.43Q176.42 33.07 176.12 31.32L176.12 31.32L176.18 31.38Q175.51 26.94 173.57 25.30L173.48 25.21L173.34 24.88L173.33 24.83L173.24 24.75Q174.96 23.26 175.72 18.89L175.75 18.92L175.82 18.99Q175.73 18.40 175.84 17.45L175.91 17.52L175.96 17.57Q176.00 16.76 175.92 16.08L175.88 16.04L175.86 16.02Q175.73 14.37 174.44 13.68L174.53 13.77L174.33 13.65L174.46 13.78Q174.19 12.82 173.04 12.29L172.91 12.15L173.01 12.25Q171.46 11.54 166.32 11.24L166.26 11.18L166.22 11.14Q164.71 11.22 163.11 11.22L162.95 11.07L163.10 11.22Q161.50 11.21 159.98 11.86L159.94 11.82L159.80 11.68Q158.72 12.59 158.72 14.34L158.60 14.22L158.71 14.32Q158.72 13.92 158.99 17.27L158.90 17.18L158.90 17.18Q159.26 17.31 160.90 17.92L160.92 17.94L160.91 17.93Q160.85 18.41 160.82 18.91L160.81 18.90L160.75 18.84Q160.83 19.41 160.86 19.94L160.82 19.90L160.84 19.92Q162.68 20.35 164.70 20.47L164.68 20.44L164.66 20.43Q164.60 18.42 165.70 17.58L165.65 17.54L165.80 17.69Q166.56 16.96 168.58 16.73L168.56 16.71L168.59 16.75Q169.61 16.63 170.19 16.82L170.35 16.98L170.21 16.84Q170.25 16.96 170.29 17.07L170.44 17.22L170.36 17.33L170.57 18.00L170.56 17.99Q170.49 18.11 170.45 18.26L170.51 18.32L170.46 18.27Q170.41 20.01 168.89 21.19L168.77 21.08L168.92 21.22Q167.93 22.06 165.91 22.25L165.86 22.20L165.98 22.32Q165.12 22.33 164.25 22.33L164.24 22.33L164.35 22.44Q164.30 22.69 164.45 23.38L164.49 23.42L164.56 23.48Q166.31 23.49 167.76 24.21L167.80 24.25L167.49 24.05L166.09 24.41L165.94 24.26Q166.03 24.66 166.15 25.26L166.24 25.36L166.23 25.35Q168.28 25.19 169.99 26.52L170.05 26.58L170.04 26.57Q170.33 27.01 170.64 28.65L170.46 28.47L170.55 28.57Q170.68 31.43 167.75 31.85L167.82 31.92L167.81 31.92Q165.66 32.12 165.09 32.09L165.19 32.19L165.14 32.13Q164.63 31.97 164.10 31.90L164.11 31.91L164.23 31.57L164.18 30.95L164.25 30.60L164.30 30.31L164.44 30.45Q163.48 30.51 162.68 30.70L162.54 30.57L162.63 30.66Q162.55 30.39 162.55 30.20L162.54 30.19L162.53 30.17Q162.68 30.09 162.68 29.87L162.69 29.88L162.58 29.77Q162.63 29.36 162.79 28.64L162.79 28.65L162.69 28.55Q160.98 28.93 159.11 29.27L159.08 29.24L158.99 29.14Q159.08 29.73 158.96 30.85L158.91 30.80L158.97 30.86Q158.83 31.96 158.83 32.57L158.77 32.50L158.92 32.66Q158.98 34.69 160.35 35.46L160.31 35.42L160.31 35.42Q161.84 37.74 166.56 37.55L166.41 37.41L166.46 37.46Q167.24 37.48 168.77 37.63Z"/><path fill="#333" d="M105.48 14.19L105.42 14.12L105.49 14.19Q106.63 18.69 106.79 21.88L106.78 21.88L106.86 21.96Q107.29 21.93 111.67 22.05L111.62 21.99L111.63 22.01Q114.25 22.12 114.63 18.65L114.67 18.69L114.49 18.51Q114.78 16.86 113.87 15.95L113.77 15.85L113.91 15.99Q112.48 14.94 110.50 14.79L110.61 14.90L110.48 14.77Q107.26 14.55 105.39 14.10ZM106.83 23.76L106.91 23.84L106.90 23.83Q107.16 29.91 105.37 35.85L105.38 35.86L105.38 35.86Q103.97 36.01 101.38 37.04L101.52 37.18L101.52 37.18Q104.23 30.56 103.89 23.10L103.98 23.20L103.83 23.04Q103.59 15.75 100.27 9.24L100.35 9.32L100.30 9.27Q105.11 12.03 112.08 12.03L112.07 12.02L112.13 12.08Q117.78 12.09 118.04 15.63L118.08 15.67L118.08 15.66Q118.03 16.15 117.95 16.76L118.04 16.85L117.95 17.98L118.05 18.08Q117.21 21.99 115.07 23.70L115.06 23.69L115.07 23.69Q114.12 24.23 113.09 24.23L113.11 24.25L110.60 24.33L110.49 24.22Q116.18 31.54 120.71 36.11L120.66 36.06L120.72 36.12Q118.53 35.38 115.60 35.04L115.48 34.92L115.66 35.10Q111.83 31.08 106.92 23.85ZM115.39 35.33L115.38 35.31L115.72 35.35L117.08 36.71L116.96 36.59Q117.66 37.25 118.31 37.86L118.15 37.70L118.32 37.88Q121.79 38.41 125.37 40.27L125.38 40.29L125.38 40.29Q118.46 33.56 113.05 26.63L112.98 26.56L114.71 26.53L114.66 26.49Q117.91 26.66 119.25 22.13L119.10 21.98L119.18 22.06Q119.89 19.88 119.89 17.17L119.92 17.20L119.81 17.09Q119.83 14.83 118.12 14.18L118.05 14.11L118.08 14.14Q118.12 13.92 117.55 13.24L117.56 13.24L117.43 13.11Q115.71 11.62 112.06 11.55L112.23 11.72L112.10 11.59Q104.18 11.40 99.50 8.39L99.57 8.46L99.54 8.43Q103.27 15.24 103.61 22.93L103.65 22.97L103.68 23.00Q104.08 31.02 100.96 37.87L100.92 37.83L100.90 37.82Q102.10 37.18 102.90 36.88L102.93 36.91L101.96 39.22L101.86 39.12Q104.67 38.16 107.34 37.67L107.42 37.75L107.34 37.66Q108.66 32.59 108.85 27.37L108.87 27.39L108.79 27.32Q112.35 32.32 115.51 35.44ZM114.11 17.37L114.18 17.44L114.18 17.44Q114.28 17.76 114.28 18.11L114.31 18.14L114.21 18.61L114.17 18.57Q114.18 19.69 113.49 20.64L113.47 20.62L113.48 20.62Q112.89 21.40 111.97 21.59L112.06 21.68L112.05 21.66Q111.74 21.63 110.14 21.66L110.10 21.62L110.27 21.79Q109.58 21.71 108.74 21.60L108.81 21.66L108.71 21.57Q108.69 20.14 108.35 17.09L108.35 17.09L108.27 17.01Q109.77 17.30 110.46 17.30L110.38 17.21L110.51 17.35Q112.23 17.24 114.17 17.43Z"/><path d="M9 12 C115 11,93 25,182 32" stroke="#222" fill="none"/><path fill="#333" d="M24.34 34.96L24.26 34.87L24.37 34.99Q20.12 34.36 18.30 32.91L18.27 32.88L18.25 32.87Q16.49 31.48 16.07 28.47L15.97 28.37L16.06 28.46Q16.06 28.12 15.71 23.36L15.60 23.25L15.66 23.31Q15.80 22.23 15.73 20.97L15.60 20.84L15.59 20.84Q15.41 15.79 17.62 14.03L17.67 14.09L17.60 14.02Q20.25 11.91 28.01 11.22L28.14 11.35L28.17 11.38Q29.35 11.07 30.99 11.11L31.07 11.19L31.17 11.30Q30.99 11.11 33.96 11.11L34.13 11.29L34.02 11.17Q34.79 11.11 36.50 11.26L36.66 11.41L36.68 11.43Q36.09 12.29 35.06 15.38L35.07 15.38L35.03 15.35Q32.96 14.15 29.96 14.15L29.93 14.12L29.95 14.15Q29.27 14.22 28.47 14.30L28.34 14.18L28.50 14.33Q23.40 14.79 20.89 16.77L20.73 16.61L20.75 16.63Q18.76 18.26 18.61 21.61L18.60 21.60L18.65 21.65Q18.61 22.26 18.65 23.52L18.62 23.48L18.56 23.42Q18.71 28.30 21.11 30.39L21.17 30.45L21.24 30.52Q23.23 32.29 28.22 32.59L28.37 32.74L28.28 32.65Q31.33 32.73 34.34 30.94L34.38 30.98L34.52 31.12Q34.98 33.72 35.59 35.09L35.75 35.25L35.63 35.13Q33.61 35.47 31.97 35.43L31.92 35.38L31.89 35.35Q27.33 35.20 24.21 34.82ZM39.32 38.55L39.36 38.59L39.35 38.58Q37.66 35.68 36.98 33.09L37.03 33.15L36.93 33.04Q36.62 33.42 35.63 33.80L35.44 33.61L35.46 33.63Q35.10 32.81 34.91 31.97L35.09 32.15L34.54 30.27L34.72 30.45Q31.42 32.48 28.30 32.36L28.13 32.20L28.14 32.21Q23.99 32.13 21.67 30.38L21.57 30.28L21.58 30.30Q20.58 28.60 20.65 25.67L20.65 25.67L20.60 25.62Q20.71 21.09 23.19 18.96L23.16 18.93L23.25 19.01Q25.43 17.16 30.11 16.56L29.92 16.36L30.02 16.46Q30.89 16.42 31.61 16.42L31.50 16.30L31.57 16.38Q34.40 16.43 36.50 17.95L36.43 17.88L36.39 17.84Q36.92 15.75 38.14 12.51L38.18 12.55L38.19 12.56Q37.79 12.43 37.24 12.37L37.25 12.39L37.40 12.53Q36.79 12.42 36.53 12.42L36.44 12.34L36.50 12.39Q36.68 11.85 37.14 10.86L37.22 10.94L37.09 10.81Q37.00 10.95 34.50 10.87L34.45 10.82L34.44 10.81Q31.83 10.61 31.18 10.65L31.29 10.77L31.27 10.75Q20.72 11.04 17.26 13.63L17.26 13.64L17.38 13.76Q15.21 15.43 15.21 19.35L15.30 19.44L15.23 19.38Q15.22 20.46 15.33 23.17L15.38 23.22L15.43 23.27Q15.42 26.68 15.64 28.39L15.73 28.47L15.65 28.39Q16.13 31.62 17.73 33.14L17.70 33.11L17.77 33.18Q18.25 33.85 19.51 35.00L19.48 34.96L19.55 35.04Q22.70 36.70 27.95 37.47L28.04 37.55L27.94 37.45Q34.36 38.39 39.35 38.58Z"/><path fill="#111" d="M79.40 24.67L79.46 24.73L79.33 24.60Q79.43 28.96 78.70 33.11L78.73 33.14L78.67 33.07Q80.95 32.54 84.03 32.42L83.89 32.28L84.01 32.40Q85.28 32.53 86.35 31.52L86.37 31.54L86.42 31.60Q87.51 30.61 87.51 29.28L87.54 29.30L87.47 29.24Q87.54 29.00 87.50 28.74L87.44 28.68L87.31 28.54Q87.20 25.66 84.96 24.82L84.99 24.85L85.10 24.97Q84.31 24.63 83.62 24.71L83.55 24.63L83.58 24.66Q82.42 24.49 81.39 24.53L81.56 24.70L81.38 24.52Q80.40 24.64 79.37 24.64ZM78.21 14.27L78.18 14.24L78.17 14.23Q79.08 17.58 79.35 21.95L79.30 21.90L79.23 21.83Q80.83 22.10 83.49 22.14L83.46 22.11L83.33 21.97Q86.40 22.15 86.74 18.61L86.72 18.59L86.73 18.59Q86.82 16.56 85.42 15.72L85.49 15.80L85.54 15.85Q84.56 15.25 80.14 14.60L80.13 14.59L80.19 14.65Q79.06 14.43 78.14 14.20ZM74.46 37.05L74.44 37.03L74.44 37.03Q76.91 30.36 76.64 22.98L76.65 22.98L76.75 23.08Q76.48 15.81 73.55 9.34L73.39 9.18L73.55 9.34Q77.23 11.76 83.45 12.01L83.57 12.13L83.48 12.03Q89.83 12.41 90.17 15.30L90.03 15.16L89.98 15.11Q90.51 18.07 89.10 20.74L89.09 20.73L89.00 20.64Q88.31 22.19 86.71 22.88L86.65 22.82L86.68 22.85Q90.22 23.42 90.45 28.79L90.61 28.95L90.54 28.88Q90.56 29.93 90.49 31.34L90.61 31.47L90.44 31.30Q90.56 32.78 89.62 33.71L89.52 33.61L89.61 33.70Q88.68 34.64 87.35 34.79L87.28 34.72L87.39 34.83Q85.91 34.91 84.84 34.91L84.84 34.91L84.81 34.87Q78.98 34.76 74.45 37.04ZM87.39 37.50L87.33 37.43L87.32 37.43Q88.26 37.49 90.13 37.60L90.05 37.52L90.16 37.63Q91.42 37.53 92.53 36.66L92.53 36.66L92.70 36.83Q93.48 35.90 93.37 34.34L93.29 34.25L93.40 34.37Q93.18 33.28 92.46 29.81L92.49 29.84L92.42 29.77Q91.75 26.55 89.89 25.07L89.88 25.06L89.60 24.37L89.57 24.33Q91.12 22.80 91.69 19.03L91.81 19.15L91.84 19.18Q91.90 17.94 91.82 16.53L91.87 16.58L91.95 16.67Q91.73 15.19 90.63 14.35L90.81 14.53L90.78 14.50Q90.33 14.17 90.22 14.13L90.21 14.12L90.19 14.10Q90.11 13.75 89.27 12.95L89.26 12.95L89.22 12.91Q87.73 11.87 83.50 11.68L83.36 11.54L83.45 11.62Q76.91 11.44 72.91 8.55L72.86 8.49L72.76 8.39Q76.13 15.50 76.44 23.04L76.50 23.11L76.39 22.99Q76.73 30.83 73.92 37.76L73.85 37.69L76.02 36.86L75.94 36.78Q75.58 37.95 75.09 39.09L75.07 39.07L75.05 39.05Q79.43 37.27 84.46 37.27L84.52 37.33L84.50 37.31Q85.88 37.28 87.33 37.43ZM85.15 26.84L85.18 26.87L85.14 26.83Q85.95 26.84 86.86 27.30L86.72 27.15L86.89 27.33Q86.97 27.63 87.12 28.70L86.99 28.57L87.00 28.57Q87.16 29.92 86.23 30.97L86.23 30.97L86.39 31.13Q85.37 32.08 83.96 31.97L83.89 31.90L82.45 32.06L82.52 32.13Q81.69 32.10 80.97 32.21L81.10 32.35L81.11 32.36Q81.36 30.47 81.44 27.01L81.36 26.93L81.34 26.91Q81.97 26.82 83.22 26.78L83.34 26.89L83.34 26.90Q84.47 26.73 85.08 26.77ZM84.11 17.24L84.06 17.18L84.47 17.21L84.49 17.23Q84.81 17.33 85.00 17.37L84.86 17.23L85.34 17.33L85.75 17.55L86.32 17.58L86.24 17.50Q86.39 17.80 86.39 18.10L86.40 18.11L86.28 18.53L86.43 18.68Q86.39 19.89 85.51 20.83L85.53 20.85L85.47 20.79Q84.61 21.73 83.39 21.73L83.37 21.71L83.28 21.62Q82.42 21.79 82.42 21.79L82.38 21.75L82.30 21.67Q80.99 21.65 81.33 21.65L81.34 21.66L81.45 21.77Q81.28 20.12 80.98 17.07L81.06 17.16L81.00 17.09Q82.56 17.21 84.09 17.21Z"/><path fill="#222" d="M147.34 18.24L147.43 18.33L147.43 18.33Q145.74 14.28 139.53 14.47L139.43 14.36L139.37 14.31Q135.06 14.52 133.08 15.97L133.08 15.97L133.08 15.97Q130.63 17.67 130.63 21.79L130.76 21.91L130.69 23.70L130.74 23.76Q130.65 32.50 139.67 32.50L139.71 32.54L139.79 32.62Q141.66 32.43 143.14 31.63L143.30 31.79L143.21 31.70Q145.10 30.73 144.95 28.87L144.86 28.78L144.82 28.74Q144.74 26.76 141.05 25.85L141.02 25.81L139.16 25.90L139.09 25.83Q138.17 25.86 137.22 25.90L137.16 25.84L137.12 25.80Q137.19 24.91 137.15 23.01L137.10 22.96L137.05 22.91Q144.79 23.00 148.98 22.66L149.08 22.76L149.05 22.73Q148.92 23.47 148.92 24.27L148.85 24.21L149.02 24.38Q148.94 25.09 148.98 25.89L148.99 25.90L149.02 25.94Q147.87 25.89 147.87 25.89L147.93 25.95L147.91 25.93Q146.54 25.93 146.93 25.93L146.92 25.93L146.91 25.92Q147.95 27.49 148.33 29.47L148.25 29.39L148.36 29.50Q148.54 30.29 148.54 30.75L148.47 30.67L148.43 30.63Q148.40 35.25 139.61 35.25L139.57 35.21L139.73 35.37Q132.44 35.21 129.85 33.11L129.99 33.25L129.91 33.17Q127.95 30.83 127.95 25.77L127.88 25.70L128.04 25.86Q128.06 24.80 127.90 22.10L127.77 21.97L127.86 22.06Q127.73 19.72 127.77 18.35L127.75 18.34L127.76 18.34Q127.73 15.35 129.10 13.75L129.25 13.90L129.17 13.81Q131.81 11.85 136.69 11.66L136.58 11.55L139.33 11.56L139.25 11.48Q142.32 11.35 145.74 11.77L145.82 11.85L145.82 11.85Q149.59 12.35 150.54 15.58L150.50 15.53L150.52 15.56Q149.54 16.52 147.45 18.35ZM148.75 20.45L148.95 20.54L148.99 20.58Q150.16 19.46 152.03 17.48L151.94 17.40L151.97 17.42Q151.56 16.37 150.57 14.66L150.65 14.73L150.62 14.71Q149.39 11.99 145.58 11.34L145.60 11.37L145.74 11.50Q143.49 11.27 139.19 10.96L139.27 11.04L136.57 11.16L136.50 11.09Q131.46 11.43 128.88 13.40L128.87 13.40L128.80 13.33Q127.38 14.92 127.27 18.00L127.39 18.12L127.33 18.07Q127.27 17.55 127.50 23.03L127.66 23.19L127.51 23.04Q127.66 24.52 127.74 27.27L127.61 27.14L127.72 27.25Q127.85 31.65 129.60 33.59L129.70 33.68L129.51 33.50Q129.94 34.38 130.82 35.26L130.90 35.34L130.79 35.23Q133.72 37.13 139.24 37.47L139.22 37.45L142.13 37.67L142.21 37.74Q143.68 37.73 145.70 37.61L145.72 37.63L145.88 37.80Q147.31 37.70 149.40 37.17L149.39 37.16L149.24 37.01Q151.32 36.65 151.28 34.33L151.24 34.28L151.28 34.33Q151.15 32.94 150.08 30.16L150.24 30.31L150.15 30.22Q149.83 29.30 149.30 28.50L149.43 28.62L149.40 28.59Q150.04 28.66 151.22 28.86L151.13 28.77L151.17 28.81Q150.76 25.09 150.80 24.40L150.79 24.39L150.83 24.43Q150.41 24.39 149.99 24.35L149.99 24.35L149.98 24.35Q149.59 24.30 149.21 24.38L149.27 24.43L149.37 24.53Q149.34 23.40 149.42 22.34L149.35 22.27L149.35 22.27Q143.08 22.77 136.80 22.66L136.85 22.71L136.88 22.74Q136.84 23.58 136.84 24.49L136.75 24.40L136.77 26.17L136.88 26.28Q137.28 26.30 137.70 26.26L137.58 26.15L137.77 26.33Q138.06 26.21 138.52 26.21L138.54 26.23L138.55 26.24Q138.61 26.76 138.65 27.25L138.63 27.23L138.53 27.13Q138.59 27.65 138.55 28.14L138.46 28.05L138.42 28.01Q139.59 28.12 140.62 28.08L140.60 28.06L140.65 28.11Q141.66 28.10 142.69 28.13L142.65 28.09L142.71 28.15Q143.73 28.38 144.61 28.76L144.47 28.62L144.53 28.72L144.63 28.81Q144.81 30.37 143.13 31.28L143.11 31.26L143.18 31.32Q141.41 32.14 139.69 32.14L139.67 32.12L139.61 32.06Q135.94 32.23 133.50 30.48L133.33 30.31L133.42 30.40Q132.48 28.39 132.63 25.84L132.61 25.82L132.54 25.74Q132.88 20.99 134.72 18.99L134.67 18.93L134.69 18.95Q136.53 16.95 141.21 16.64L141.37 16.80L141.30 16.73Q145.01 16.56 146.95 18.35L146.82 18.22L146.85 18.25Q146.97 18.40 147.08 18.59L147.03 18.54L147.19 18.59L147.19 18.58Q147.93 19.44 148.51 20.55L148.46 20.50L148.79 20.49Z"/></svg>