<svg xmlns="http://www.w3.org/2000/svg" width="200" height="40" viewBox="0,0,200,40"><path fill="#444" d="M138.67 14.61L138.72 14.66L138.67 14.61Q136.72 14.76 135.77 14.91L135.81 14.95L135.84 14.98Q134.22 15.22 133.00 15.76L133.00 15.76L132.94 15.70Q129.43 17.14 129.32 21.82L129.35 21.85L129.31 21.81Q129.29 24.53 129.93 27.46L129.86 27.39L129.88 27.41Q130.83 31.52 134.45 32.70L134.34 32.59L134.32 32.57Q136.22 33.15 137.67 32.99L137.64 32.96L138.16 33.03L138.18 33.04Q138.36 33.04 138.56 33.08L138.55 33.07L138.53 33.05Q138.78 33.15 138.93 33.11L138.81 32.99L138.80 32.98Q141.48 32.77 142.85 32.20L142.88 32.23L139.32 28.70L139.21 28.59Q139.58 28.31 140.18 27.70L140.25 27.77L141.13 26.82L141.15 26.84Q143.02 28.94 145.00 31.00L144.87 30.87L144.96 30.96Q147.31 29.15 147.58 23.79L147.49 23.70L147.48 23.69Q147.54 22.76 147.54 21.85L147.56 21.87L147.50 21.81Q147.68 16.31 142.61 15.21L142.60 15.20L142.51 15.11Q141.26 14.84 138.75 14.69ZM151.43 36.66L151.47 36.70L151.49 36.72Q150.86 37.12 149.68 38.00L149.65 37.96L145.40 34.44L145.34 34.38Q142.91 35.65 138.65 35.69L138.66 35.69L138.67 35.70Q132.09 35.79 129.27 33.54L129.26 33.53L129.21 33.48Q127.42 31.69 126.96 28.72L126.99 28.74L126.89 28.65Q126.82 26.97 126.44 23.39L126.44 23.40L126.45 23.41Q126.38 22.61 126.26 20.86L126.19 20.79L126.28 20.88Q126.08 19.27 126.12 18.39L126.19 18.47L126.11 18.39Q126.33 15.44 128.08 13.88L128.08 13.88L128.02 13.83Q129.47 12.42 132.67 11.93L132.69 11.95L132.77 12.03Q135.17 11.57 138.06 11.65L138.22 11.80L138.14 11.73Q145.53 11.72 148.65 14.08L148.77 14.21L148.71 14.15Q151.00 16.40 150.73 21.31L150.71 21.28L150.65 21.23Q150.51 24.93 150.32 26.26L150.17 26.11L150.35 26.29Q149.53 30.61 147.21 32.94L147.34 33.07L147.26 32.99Q148.75 34.25 151.49 36.72ZM146.65 12.47L146.74 12.56L146.59 12.41Q144.54 11.66 138.03 11.16L138.07 11.20L138.19 11.32Q136.69 11.22 133.91 11.34L133.88 11.31L133.95 11.37Q129.84 11.72 127.59 13.70L127.43 13.54L127.46 13.57Q125.86 15.09 125.86 18.25L125.82 18.21L125.82 18.21Q125.74 18.97 125.89 20.68L125.94 20.73L126.00 20.79Q126.13 22.48 126.13 23.36L126.10 23.32L126.19 23.42Q126.21 25.04 126.59 28.62L126.62 28.64L126.75 28.78Q127.07 31.60 128.66 33.66L128.68 33.67L128.60 33.59Q128.94 34.42 130.15 35.56L130.25 35.67L130.11 35.52Q132.99 37.68 138.17 37.94L138.15 37.93L138.09 37.87Q138.47 37.90 140.87 38.02L140.84 37.99L140.89 38.04Q145.58 38.09 147.87 37.02L147.99 37.15L147.92 37.08Q148.83 37.80 153.55 41.38L153.46 41.28L153.59 41.41Q154.11 40.79 155.40 39.80L155.38 39.78L155.47 39.86Q154.61 39.20 153.81 38.51L153.82 38.52L152.09 36.98L152.25 36.99L152.17 36.91Q151.62 36.48 150.40 35.45L150.42 35.46L150.32 35.36Q152.24 32.86 152.24 28.33L152.37 28.47L152.36 28.46Q152.20 27.88 152.24 27.04L152.25 27.05L152.28 27.08Q152.45 26.38 152.45 25.96L152.26 25.77L152.29 25.80Q152.40 20.39 151.68 18.03L151.70 18.05L151.60 17.95Q151.31 16.75 150.43 15.68L150.40 15.65L150.47 15.71Q149.50 13.42 146.57 12.39ZM140.63 17.04L140.69 17.09L140.68 17.08Q144.70 16.95 146.52 18.55L146.55 18.58L146.61 18.63Q147.12 19.79 147.23 21.12L147.30 21.18L147.20 21.09Q147.24 22.31 147.16 23.68L147.19 23.71L147.18 23.70Q146.77 28.58 144.83 30.29L144.95 30.41L144.94 30.40Q143.69 29.15 141.18 26.41L141.21 26.44L141.08 26.32Q140.31 27.07 138.75 28.63L138.80 28.68L138.82 28.70Q139.36 29.28 140.51 30.46L140.44 30.39L140.38 30.45L140.43 30.50Q141.04 31.07 142.07 32.13L141.98 32.05L142.02 32.09Q141.05 32.38 138.73 32.68L138.68 32.63L138.12 32.61L137.69 32.59L137.70 32.64L137.71 32.65Q134.30 32.71 132.32 31.07L132.24 30.99L132.39 31.14Q131.34 29.02 131.38 25.90L131.30 25.83L131.23 25.75Q131.48 17.13 140.66 17.06Z"/><path fill="#111" d="M24.39 35.00L24.37 34.98L24.36 34.98Q20.21 34.45 18.39 33.00L18.38 33.00L18.26 32.87Q16.53 31.52 16.11 28.51L16.06 28.47L15.99 28.40Q15.99 28.06 15.65 23.30L15.75 23.40L15.71 23.35Q15.79 22.22 15.71 20.96L15.76 21.01L15.73 20.98Q15.47 15.85 17.68 14.10L17.59 14.01L17.72 14.14Q20.41 12.06 28.17 11.38L28.20 11.40L28.03 11.23Q29.47 11.20 31.11 11.23L31.10 11.22L31.16 11.28Q31.14 11.27 34.11 11.27L34.00 11.15L33.98 11.14Q34.99 11.30 36.70 11.46L36.59 11.34L36.54 11.30Q36.15 12.35 35.12 15.43L34.99 15.30L35.07 15.38Q32.89 14.08 29.88 14.08L29.97 14.16L29.89 14.08Q29.16 14.11 28.36 14.19L28.49 14.32L28.36 14.19Q23.40 14.79 20.88 16.77L20.85 16.74L20.79 16.68Q18.69 18.19 18.54 21.54L18.60 21.60L18.68 21.68Q18.56 22.21 18.59 23.46L18.60 23.47L18.62 23.49Q18.79 28.38 21.19 30.47L21.06 30.34L21.11 30.39Q23.31 32.36 28.30 32.67L28.28 32.65L28.37 32.75Q31.34 32.74 34.35 30.96L34.41 31.02L34.44 31.05Q35.00 33.74 35.61 35.11L35.74 35.24L35.62 35.12Q33.57 35.43 31.94 35.39L31.96 35.42L31.88 35.34Q27.35 35.23 24.23 34.85ZM39.48 38.71L39.44 38.67L39.37 38.60Q37.59 35.60 36.90 33.01L37.04 33.15L36.96 33.07Q36.48 33.28 35.49 33.66L35.47 33.64L35.47 33.64Q35.28 32.99 35.09 32.15L34.95 32.02L34.59 30.32L34.69 30.42Q31.35 32.41 28.23 32.29L28.30 32.37L28.23 32.30Q23.97 32.11 21.65 30.36L21.57 30.28L21.61 30.33Q20.46 28.49 20.53 25.55L20.63 25.65L20.53 25.55Q20.79 21.17 23.27 19.04L23.23 19.00L23.27 19.04Q25.28 17.02 29.96 16.41L30.11 16.55L29.92 16.36Q30.91 16.44 31.63 16.44L31.50 16.30L31.45 16.26Q34.38 16.41 36.47 17.93L36.44 17.90L36.38 17.84Q37.00 15.83 38.22 12.59L38.23 12.60L38.21 12.59Q37.94 12.58 37.39 12.53L37.35 12.49L37.28 12.42Q36.74 12.37 36.48 12.37L36.51 12.41L36.42 12.32Q36.62 11.79 37.08 10.80L37.19 10.92L37.11 10.83Q37.01 10.96 34.51 10.89L34.46 10.84L34.32 10.69Q31.85 10.64 31.20 10.68L31.27 10.75L31.37 10.85Q20.70 11.02 17.23 13.61L17.27 13.64L17.40 13.78Q15.24 15.46 15.24 19.38L15.19 19.34L15.20 19.34Q15.25 20.50 15.37 23.21L15.48 23.31L15.39 23.23Q15.59 26.85 15.82 28.56L15.77 28.52L15.65 28.40Q16.10 31.59 17.70 33.11L17.70 33.11L17.81 33.22Q18.30 33.90 19.55 35.04L19.53 35.02L19.44 34.93Q22.75 36.75 28.00 37.51L27.98 37.49L27.93 37.45Q34.48 38.51 39.47 38.70Z"/><path fill="#333" d="M162.13 14.26L162.10 14.23L162.04 14.17Q163.21 18.69 163.36 21.89L163.33 21.86L163.27 21.80Q163.88 21.95 168.26 22.06L168.25 22.06L168.25 22.06Q170.80 22.09 171.18 18.63L171.24 18.69L171.19 18.64Q171.39 16.90 170.48 15.98L170.42 15.93L170.46 15.96Q169.05 14.94 167.07 14.78L167.24 14.95L167.08 14.80Q163.94 14.67 162.08 14.21ZM163.40 23.75L163.49 23.85L163.44 23.79Q163.62 29.80 161.83 35.74L161.81 35.72L161.81 35.72Q160.56 36.03 157.97 37.06L157.94 37.02L158.01 37.10Q160.82 30.58 160.48 23.12L160.57 23.21L160.56 23.20Q160.19 15.78 156.87 9.27L156.91 9.31L156.94 9.34Q161.78 12.13 168.75 12.13L168.65 12.03L168.72 12.10Q174.29 12.03 174.56 15.58L174.51 15.53L174.62 15.64Q174.63 16.18 174.55 16.79L174.52 16.76L174.55 18.00L174.45 17.90Q173.79 22.00 171.65 23.71L171.59 23.64L171.48 23.54Q170.81 24.35 169.78 24.35L169.74 24.31L167.11 24.26L167.14 24.30Q172.65 31.44 177.18 36.01L177.34 36.17L177.20 36.03Q175.01 35.29 172.08 34.94L172.19 35.06L172.09 34.96Q168.44 31.12 163.53 23.88ZM171.94 35.30L171.94 35.31L172.23 35.29L173.58 36.63L173.66 36.71Q174.10 37.12 174.75 37.73L174.73 37.71L174.84 37.82Q178.35 38.40 181.93 40.26L181.98 40.32L181.97 40.31Q175.04 33.57 169.63 26.64L169.63 26.64L171.32 26.58L171.24 26.49Q174.44 26.61 175.77 22.08L175.72 22.03L175.81 22.12Q176.45 19.87 176.45 17.17L176.48 17.19L176.37 17.08Q176.38 14.81 174.67 14.16L174.79 14.28L174.64 14.13Q174.70 13.93 174.13 13.24L174.13 13.24L174.01 13.12Q172.42 11.76 168.76 11.68L168.75 11.67L168.64 11.56Q160.76 11.41 156.08 8.40L156.21 8.53L156.17 8.50Q159.92 15.32 160.26 23.01L160.22 22.98L160.31 23.06Q160.65 31.02 157.53 37.87L157.37 37.71L157.39 37.73Q158.71 37.22 159.51 36.92L159.53 36.94L158.56 39.25L158.46 39.14Q161.24 38.15 163.90 37.66L163.89 37.65L163.90 37.66Q165.07 32.43 165.26 27.22L165.45 27.40L165.30 27.26Q168.85 32.25 172.01 35.37ZM170.79 17.48L170.85 17.53L170.74 17.43Q170.70 17.62 170.70 17.96L170.71 17.97L170.82 18.66L170.80 18.63Q170.83 19.77 170.15 20.72L170.15 20.72L170.10 20.68Q169.55 21.49 168.63 21.68L168.50 21.54L168.60 21.65Q168.39 21.70 166.79 21.74L166.76 21.71L166.85 21.80Q166.29 21.85 165.45 21.73L165.32 21.60L165.31 21.59Q165.30 20.17 164.96 17.13L164.93 17.10L164.94 17.11Q166.28 17.23 166.96 17.23L166.96 17.23L166.92 17.19Q168.79 17.23 170.73 17.42Z"/><path fill="#111" d="M53.56 24.09L53.49 24.01L53.65 24.18Q51.80 24.04 50.56 25.47L50.60 25.51L50.45 25.36Q49.23 26.80 49.04 28.70L49.05 28.72L49.12 28.79Q48.87 30.81 49.95 31.79L50.00 31.84L49.93 31.76Q51.13 32.85 53.23 32.74L53.13 32.64L53.15 32.66Q55.29 32.56 56.40 31.87L56.23 31.70L56.24 31.72Q57.56 30.79 57.56 29.23L57.39 29.07L57.54 29.21Q57.55 28.84 57.47 28.46L57.44 28.43L57.31 28.29Q57.53 26.76 56.42 25.41L56.30 25.29L56.27 25.25Q55.35 24.09 53.67 24.20ZM53.16 35.22L53.15 35.22L53.11 35.17Q48.77 35.21 47.36 34.45L47.34 34.43L47.47 34.56Q46.28 33.63 46.09 31.92L46.17 32.00L46.22 32.05Q46.15 31.34 46.19 30.62L46.22 30.64L46.22 30.64Q46.21 29.53 46.21 29.08L46.21 29.08L46.22 29.09Q46.70 26.25 46.85 25.56L46.96 25.67L46.83 25.55Q47.25 23.57 48.09 22.16L48.19 22.26L48.14 22.21Q50.88 17.91 56.82 11.55L56.82 11.55L56.81 11.54Q59.35 11.11 61.56 10.31L61.70 10.45L61.69 10.44Q54.80 17.87 51.61 22.10L51.53 22.02L51.56 22.05Q52.64 21.64 53.93 21.64L53.97 21.68L53.81 21.52Q57.29 21.69 58.81 23.63L58.64 23.46L58.75 23.57Q60.00 25.12 60.34 28.66L60.38 28.70L60.48 28.80Q60.51 29.48 60.51 30.09L60.40 29.98L60.50 30.07Q60.47 33.17 58.26 34.23L58.34 34.31L58.19 34.16Q57.04 34.84 53.16 35.22ZM55.40 37.58L55.53 37.71L55.54 37.71Q56.83 37.67 58.81 37.75L58.72 37.67L58.76 37.70Q60.35 37.73 61.91 37.01L61.97 37.06L61.83 36.93Q62.98 36.17 62.98 34.38L63.10 34.51L62.93 34.33Q63.11 34.02 62.94 33.03L62.84 32.93L62.79 32.88Q62.60 31.87 62.60 31.42L62.73 31.54L62.73 31.54Q61.82 26.79 60.22 24.89L60.11 24.78L60.19 24.85Q60.18 24.81 60.03 24.58L60.02 24.57L59.70 24.33L59.63 24.29L59.66 24.33Q59.16 23.68 58.55 22.73L58.74 22.91L58.57 22.74Q57.64 21.77 55.66 21.31L55.69 21.35L55.79 21.45Q57.05 19.89 60.02 16.19L59.99 16.16L64.26 10.92L64.18 10.84Q62.61 11.70 60.21 12.47L60.16 12.42L60.13 12.38Q61.13 11.49 62.92 9.51L63.00 9.58L62.84 9.42Q60.56 10.61 56.68 11.18L56.70 11.21L56.58 11.08Q50.93 17.04 47.96 21.99L47.86 21.89L47.98 22.01Q46.52 24.58 45.95 30.83L45.81 30.69L45.82 30.70Q45.79 31.32 45.86 32.27L45.84 32.25L45.80 32.20Q45.85 33.92 46.95 34.84L47.13 35.01L47.10 34.99Q47.44 35.10 47.40 35.14L47.33 35.07L47.45 35.18Q47.72 35.99 48.52 36.41L48.49 36.38L48.49 36.38Q49.96 37.09 51.90 37.28L51.97 37.35L52.03 37.41Q51.99 37.37 55.50 37.67ZM55.26 26.44L55.20 26.37L55.26 26.44Q55.86 26.35 56.81 26.85L56.69 26.73L56.82 26.85Q57.03 27.67 57.03 28.32L57.13 28.42L57.12 28.41Q57.36 30.33 56.41 31.31L56.35 31.26L56.25 31.16Q55.35 32.04 53.26 32.35L53.26 32.36L53.08 32.17Q51.70 32.25 51.17 31.98L51.11 31.91L51.20 32.00Q50.95 31.49 50.95 31.18L51.01 31.25L50.97 31.20Q50.85 28.04 53.78 26.75L53.68 26.64L53.78 26.74Q54.44 26.30 55.20 26.38Z"/><path fill="#333" d="M102.00 33.91L101.97 33.87L102.16 34.07Q103.80 31.45 108.56 24.18L108.72 24.33L108.69 24.30Q112.72 18.10 115.58 14.82L115.51 14.75L115.63 14.88Q113.42 15.06 111.32 15.06L111.45 15.19L111.46 15.19Q106.10 15.09 102.10 13.30L102.06 13.26L102.19 13.39Q101.47 11.41 100.78 9.85L100.82 9.89L100.79 9.85Q105.43 12.09 111.10 12.21L111.02 12.13L110.95 12.06Q116.13 12.18 121.31 10.27L121.24 10.20L121.25 10.21Q120.96 11.14 120.66 11.94L120.60 11.89L120.15 13.60L120.05 13.51Q116.91 17.07 112.91 22.89L112.96 22.94L109.69 27.82L109.77 27.89Q108.01 30.25 106.18 32.53L106.09 32.44L106.14 32.48Q109.40 31.82 112.71 31.90L112.81 32.00L112.73 31.92Q116.15 32.10 119.31 33.02L119.33 33.04L119.87 34.68L119.80 34.61Q120.10 35.49 120.45 36.33L120.36 36.23L120.37 36.25Q115.64 34.60 110.50 34.79L110.63 34.93L110.60 34.89Q105.51 35.13 101.01 37.15L100.93 37.06L101.02 37.16Q101.31 36.00 102.03 33.94ZM100.35 37.78L100.35 37.77L100.32 37.74Q101.67 37.27 102.47 37.00L102.32 36.86L102.28 36.81Q102.16 37.72 101.48 39.25L101.39 39.16L101.46 39.23Q107.13 37.06 113.11 37.29L113.12 37.30L113.18 37.36Q119.35 37.44 124.38 40.22L124.44 40.28L124.38 40.22Q123.10 37.95 122.30 35.78L122.16 35.64L122.32 35.80Q121.75 35.50 120.23 34.93L120.22 34.92L120.24 34.94Q120.11 34.24 119.69 32.76L119.53 32.59L119.58 32.64Q115.55 31.58 110.45 31.77L110.38 31.71L110.35 31.67Q112.49 28.94 116.03 23.39L115.94 23.29L115.96 23.31Q119.64 17.63 121.54 15.08L121.55 15.08L121.52 15.05Q122.01 13.64 123.04 10.93L123.14 11.03L123.07 10.97Q122.41 11.33 120.96 11.94L121.03 12.01L120.94 11.92Q121.28 11.12 122.00 9.60L122.13 9.73L122.11 9.70Q116.75 11.81 111.04 11.73L110.98 11.67L110.93 11.62Q105.12 11.68 100.17 9.16L100.12 9.11L100.12 9.10Q101.27 11.48 102.00 13.73L101.92 13.65L101.91 13.64Q102.95 14.11 103.75 14.34L103.76 14.34L103.84 14.43Q104.11 15.12 104.38 16.56L104.32 16.51L104.48 16.66Q108.11 17.63 112.98 17.44L112.90 17.36L113.09 17.55Q110.55 20.60 107.23 25.59L107.38 25.73L101.78 33.99L101.67 33.89Q101.32 35.17 100.29 37.72Z"/><path d="M10 29 C115 11,98 29,185 16" stroke="#555" fill="none"/><path d="M20 17 C104 31,92 9,194 32" stroke="#999" fill="none"/><path fill="#333" d="M88.47 23.60L88.52 23.64L82.59 23.69L82.70 23.81Q79.66 23.73 76.73 23.66L76.71 23.64L76.83 23.76Q76.95 30.46 74.89 35.98L74.80 35.89L74.76 35.85Q73.05 36.46 71.30 37.14L71.36 37.20L71.20 37.05Q74.14 31.50 74.14 24.83L74.04 24.73L74.09 24.79Q74.16 16.37 70.05 9.33L70.03 9.31L69.94 9.21Q71.47 10.02 73.95 10.82L74.02 10.90L73.87 10.74Q76.14 15.95 76.67 20.82L76.53 20.67L76.61 20.75Q79.88 21.25 82.74 21.21L82.63 21.11L82.67 21.14Q85.37 21.18 88.68 20.91L88.55 20.78L88.59 20.82Q89.15 16.50 90.90 11.40L90.81 11.32L90.78 11.28Q92.74 10.89 94.99 10.05L95.06 10.12L95.00 10.06Q91.47 16.89 91.47 24.84L91.48 24.85L91.39 24.76Q91.45 31.03 93.81 36.36L93.76 36.31L93.71 36.25Q92.24 35.78 90.18 35.47L90.14 35.42L90.08 35.37Q88.54 30.48 88.66 23.78ZM89.81 35.71L89.79 35.69L89.80 35.70Q90.84 35.86 91.94 36.13L92.07 36.26L91.99 36.18Q92.33 36.89 92.98 38.38L93.05 38.46L92.92 38.32Q96.29 39.30 98.08 40.21L98.21 40.34L98.14 40.27Q93.76 34.18 93.46 25.92L93.40 25.86L93.40 25.86Q93.14 17.87 96.80 11.06L96.64 10.90L95.70 11.48L95.68 11.47Q95.14 11.65 94.53 11.80L94.53 11.80L94.55 11.82Q94.97 11.02 95.81 9.46L95.72 9.37L95.83 9.48Q93.19 10.54 90.56 11.03L90.52 10.99L90.46 10.93Q88.89 15.87 88.43 20.55L88.34 20.46L88.41 20.53Q85.93 20.75 83.49 20.75L83.44 20.69L83.55 20.81Q80.98 20.64 78.47 20.48L78.65 20.66L78.60 20.61Q78.28 17.25 77.18 13.18L77.18 13.18L77.21 13.21Q76.54 13.11 75.10 12.73L75.15 12.78L75.14 12.78Q74.73 11.53 74.28 10.51L74.16 10.39L74.32 10.54Q71.42 9.63 69.13 8.37L69.15 8.38L69.19 8.42Q73.85 15.94 73.85 24.73L73.81 24.69L73.73 24.61Q73.79 31.64 70.67 37.77L70.58 37.68L70.61 37.72Q71.42 37.53 72.75 36.96L72.79 37.00L72.78 36.99Q72.36 37.75 71.56 39.27L71.52 39.23L71.51 39.23Q74.45 38.36 76.70 37.94L76.71 37.95L76.74 37.98Q78.42 32.24 78.61 26.07L78.73 26.19L78.73 26.18Q80.35 26.14 83.55 26.10L83.60 26.14L83.59 26.14Q86.35 26.00 88.25 26.08L88.23 26.06L88.18 26.01Q88.58 31.89 89.91 35.81Z"/></svg>