<svg xmlns="http://www.w3.org/2000/svg" width="200" height="40" viewBox="0,0,200,40"><path d="M15 23 C94 19,85 5,182 9" stroke="#333" fill="none"/><path fill="#222" d="M56.10 27.17L46.87 17.17L46.94 17.24Q47.76 20.92 47.76 24.65L47.78 24.66L47.74 24.63Q47.72 30.58 45.66 36.14L45.57 36.04L45.64 36.12Q44.52 36.33 42.27 37.09L42.29 37.11L42.39 37.20Q45.11 31.32 45.11 24.62L45.18 24.69L45.12 24.63Q45.04 15.91 40.55 8.49L40.64 8.58L40.63 8.57Q41.11 8.78 41.79 9.20L41.77 9.18L41.68 9.09Q53.82 20.35 61.66 29.60L61.67 29.61L61.68 29.62Q61.31 27.11 61.31 24.68L61.36 24.73L61.43 24.80Q61.30 17.44 63.81 11.23L63.87 11.29L63.91 11.33Q66.31 10.87 67.91 10.19L67.82 10.11L67.84 10.13Q64.54 16.30 64.24 23.46L64.21 23.43L64.15 23.37Q63.98 30.85 66.95 37.02L66.85 36.92L66.92 37.00Q66.30 36.87 65.88 36.68L65.90 36.70L65.93 36.72Q61.24 32.65 56.03 27.09L56.16 27.22ZM69.47 40.11L69.54 40.18L69.43 40.07Q69.96 40.29 70.37 40.48L70.45 40.56L71.19 40.80L71.28 40.89Q66.15 33.97 66.15 24.61L66.10 24.56L66.08 24.54Q66.02 17.25 69.33 11.00L69.28 10.96L69.42 11.09Q68.66 11.21 67.26 11.82L67.27 11.83L67.26 11.83Q67.80 11.15 68.64 9.59L68.62 9.57L68.59 9.54Q66.04 10.34 63.60 10.91L63.63 10.94L63.65 10.96Q61.10 17.51 61.10 24.93L61.07 24.89L61.05 24.88Q60.95 26.64 61.14 28.62L61.21 28.70L61.23 28.71Q56.49 22.95 51.74 18.34L51.80 18.41L41.66 8.65L41.66 8.65Q41.04 8.29 39.82 7.72L40.00 7.90L39.87 7.77Q44.76 15.52 44.76 24.62L44.71 24.57L44.85 24.71Q44.88 31.85 41.80 37.87L41.65 37.72L41.71 37.78Q41.96 37.61 43.59 37.00L43.74 37.15L43.72 37.13Q43.28 37.79 42.44 39.28L42.41 39.24L42.49 39.32Q43.78 38.75 47.25 37.95L47.37 38.07L47.33 38.03Q49.60 31.85 49.60 24.66L49.71 24.77L49.63 24.69Q49.66 22.62 49.43 20.49L49.30 20.36L49.40 20.46Q60.98 33.37 69.58 40.22Z"/><path fill="#333" d="M105.47 14.17L105.41 14.12L105.56 14.26Q106.68 18.73 106.83 21.93L106.68 21.78L106.82 21.92Q107.30 21.94 111.68 22.06L111.66 22.04L111.61 21.99Q114.26 22.12 114.64 18.66L114.61 18.64L114.67 18.69Q114.85 16.93 113.93 16.01L113.78 15.85L113.87 15.95Q112.57 15.03 110.59 14.88L110.60 14.89L110.66 14.95Q107.28 14.57 105.41 14.12ZM106.84 23.77L106.86 23.79L106.79 23.72Q107.07 29.82 105.28 35.76L105.30 35.78L105.26 35.73Q103.99 36.03 101.40 37.05L101.45 37.10L101.41 37.06Q104.27 30.60 103.93 23.14L103.89 23.10L103.83 23.04Q103.61 15.78 100.30 9.27L100.30 9.27L100.28 9.25Q105.19 12.11 112.16 12.11L112.17 12.12L112.12 12.07Q117.68 12.00 117.95 15.54L117.95 15.54L118.02 15.61Q118.10 16.22 118.02 16.83L118.10 16.91L117.89 17.91L117.87 17.89Q117.14 21.92 115.01 23.63L115.05 23.68L115.00 23.62Q114.11 24.22 113.08 24.22L113.11 24.25L110.50 24.23L110.51 24.24Q116.24 31.61 120.77 36.18L120.64 36.04L120.62 36.02Q118.56 35.41 115.63 35.07L115.50 34.94L115.51 34.94Q111.88 31.13 106.97 23.90ZM115.37 35.31L115.46 35.40L115.73 35.36L116.92 36.55L117.00 36.63Q117.57 37.16 118.22 37.77L118.30 37.86L118.18 37.73Q121.69 38.31 125.26 40.17L125.39 40.29L125.25 40.16Q118.43 33.53 113.02 26.60L113.06 26.64L114.76 26.59L114.76 26.58Q117.86 26.60 119.19 22.07L119.20 22.08L119.13 22.01Q119.79 19.77 119.79 17.07L119.86 17.14L119.78 17.06Q119.87 14.86 118.15 14.22L118.22 14.29L118.16 14.23Q117.96 13.76 117.39 13.08L117.38 13.06L117.45 13.13Q115.77 11.69 112.12 11.61L112.23 11.72L112.06 11.55Q104.19 11.41 99.51 8.40L99.57 8.46L99.55 8.44Q103.40 15.37 103.74 23.06L103.66 22.99L103.65 22.98Q104.05 30.99 100.93 37.84L100.89 37.80L100.91 37.83Q102.09 37.18 102.89 36.88L102.95 36.93L101.84 39.10L101.89 39.15Q104.75 38.24 107.41 37.74L107.41 37.73L107.28 37.61Q108.49 32.43 108.69 27.21L108.86 27.39L108.83 27.35Q112.22 32.19 115.38 35.31ZM114.23 17.49L114.21 17.47L114.19 17.45Q114.29 17.78 114.29 18.12L114.26 18.09L114.27 18.68L114.16 18.56Q114.31 19.82 113.63 20.77L113.56 20.70L113.61 20.76Q112.85 21.36 111.94 21.55L111.96 21.58L111.99 21.60Q111.81 21.69 110.21 21.73L110.15 21.67L110.19 21.71Q109.69 21.82 108.85 21.70L108.86 21.71L108.75 21.61Q108.66 20.10 108.31 17.06L108.33 17.07L108.23 16.98Q109.66 17.18 110.34 17.18L110.38 17.22L110.51 17.35Q112.18 17.19 114.12 17.38Z"/><path fill="#222" d="M168.47 35.17L168.50 35.19L166.37 35.34L166.35 35.33Q165.81 35.24 164.84 35.30L164.87 35.34L164.94 35.40Q164.00 35.49 163.51 35.49L163.42 35.40L163.42 35.41Q161.84 35.46 160.81 34.62L160.70 34.52L160.80 34.62Q161.52 33.43 163.16 31.30L163.15 31.29L163.29 31.43Q164.55 32.99 166.75 32.76L166.67 32.68L166.63 32.64Q167.52 32.50 168.17 31.85L168.17 31.85L168.28 31.96Q168.85 31.24 168.73 30.36L168.73 30.36L168.73 30.36Q168.58 25.72 168.66 21.15L168.63 21.13L168.78 21.27Q168.74 16.59 169.28 11.99L169.28 11.99L169.31 12.02Q171.14 11.72 173.27 10.69L173.27 10.69L173.30 10.72Q171.56 17.58 171.56 24.81L171.50 24.76L171.52 24.78Q171.49 28.28 171.94 31.78L171.94 31.79L171.97 31.81Q172.00 32.11 172.00 32.45L171.99 32.44L171.95 32.40Q172.01 33.03 171.78 33.56L171.71 33.50L171.87 33.65Q171.19 34.80 168.37 35.06ZM173.28 37.88L173.28 37.88L173.73 37.99L174.06 37.90L174.31 37.76L174.19 37.65Q174.52 37.41 174.60 37.30L174.68 37.38L174.69 37.39Q174.73 36.06 174.47 35.07L174.58 35.18L174.65 35.25Q173.29 29.44 173.56 23.08L173.45 22.97L173.48 23.00Q173.75 16.91 175.54 11.01L175.43 10.91L175.47 10.94Q174.69 11.69 173.43 12.41L173.30 12.28L173.41 12.38Q173.49 11.52 173.91 10.00L173.97 10.06L174.04 10.13Q171.51 11.44 168.85 11.75L168.83 11.73L168.85 11.75Q168.47 16.12 168.39 21.07L168.47 21.16L168.37 21.05Q168.27 26.93 168.34 30.35L168.42 30.43L168.30 30.31Q168.38 32.10 166.63 32.25L166.69 32.32L166.73 32.35Q164.90 32.36 163.23 30.72L163.36 30.85L163.32 30.81Q161.32 33.38 160.37 34.94L160.20 34.77L160.31 34.88Q160.99 35.56 162.02 35.79L161.95 35.73L161.96 35.73Q161.79 35.79 161.52 36.02L161.69 36.19L161.61 36.11Q162.99 37.00 164.97 37.26L165.07 37.36L165.06 37.35Q165.40 37.35 168.70 37.66L168.69 37.65L168.62 37.58Q172.00 37.97 173.37 37.97Z"/><path fill="#111" d="M75.26 10.82L75.32 10.88L75.31 10.88Q77.15 15.68 77.72 20.85L77.70 20.83L77.86 21.00Q81.53 16.82 87.43 11.99L87.30 11.85L87.43 11.99Q90.54 11.60 93.17 10.80L93.29 10.92L86.67 16.48L86.74 16.55Q83.26 19.43 80.40 22.28L80.30 22.18L80.35 22.24Q88.36 31.42 93.42 36.14L93.42 36.14L93.46 36.18Q90.39 35.28 88.07 35.12L87.96 35.02L87.94 35.00Q82.14 29.58 77.84 23.76L77.99 23.90L77.96 23.88Q77.99 30.42 76.13 35.75L76.16 35.78L76.08 35.70Q75.95 35.83 75.45 36.02L75.32 35.89L75.36 36.12L75.36 36.13Q75.16 36.15 72.61 37.07L72.59 37.05L72.61 37.07Q75.64 30.58 75.30 23.12L75.17 22.99L75.30 23.12Q74.97 15.79 71.43 9.28L71.28 9.13L72.00 9.58L72.43 9.90L72.39 9.81L72.35 9.78Q73.03 10.11 75.24 10.80ZM75.65 10.65L75.47 10.46L75.60 10.59Q73.29 9.99 70.66 8.47L70.68 8.49L70.58 8.39Q74.90 15.72 74.90 24.67L74.93 24.69L74.95 24.71Q74.98 31.75 72.01 37.80L71.97 37.76L74.03 36.92L73.97 36.87Q73.56 37.86 72.87 39.16L72.85 39.14L72.86 39.14Q75.15 38.39 77.09 37.97L77.21 38.09L77.22 37.87L77.12 37.77Q77.50 37.84 78.07 37.69L78.03 37.65L78.11 37.74Q79.59 31.64 79.70 26.84L79.86 27.00L79.76 26.90Q81.85 29.41 83.68 31.27L83.70 31.30L83.63 31.22Q84.92 32.43 87.93 35.40L87.88 35.35L87.84 35.32L87.87 35.35Q88.95 36.24 90.81 37.83L90.88 37.90L90.85 37.87Q94.70 38.56 98.16 40.27L98.05 40.16L98.15 40.26Q88.95 31.78 82.71 24.36L82.52 24.17L82.67 24.32Q87.00 19.98 95.76 11.37L95.81 11.43L95.79 11.41Q93.15 12.45 91.13 12.84L91.16 12.86L91.19 12.89Q92.37 11.86 94.69 9.84L94.72 9.88L94.75 9.91Q90.63 11.30 87.28 11.49L87.30 11.52L87.20 11.41Q84.37 13.73 79.50 18.41L79.43 18.34L79.44 18.35Q79.03 15.73 78.45 13.18L78.57 13.29L78.64 13.36Q77.28 13.04 76.30 12.69L76.36 12.76L76.38 12.78Q76.04 11.91 75.47 10.46Z"/><path d="M6 27 C112 10,96 24,180 13" stroke="#999" fill="none"/><path fill="#333" d="M24.33 34.95L24.30 34.92L24.27 34.88Q20.11 34.34 18.28 32.89L18.39 33.00L18.38 32.99Q16.38 31.37 15.96 28.37L16.07 28.48L16.04 28.44Q15.93 27.99 15.58 23.23L15.62 23.27L15.74 23.38Q15.66 22.09 15.58 20.83L15.57 20.82L15.68 20.93Q15.49 15.87 17.70 14.12L17.70 14.12L17.64 14.06Q20.39 12.05 28.16 11.36L28.18 11.38L28.09 11.29Q29.50 11.22 31.13 11.26L31.01 11.13L31.07 11.19Q31.05 11.17 34.02 11.17L34.15 11.30L33.97 11.13Q34.84 11.15 36.55 11.31L36.51 11.27L36.58 11.34Q36.03 12.23 35.00 15.32L35.08 15.39L35.02 15.33Q33.06 14.25 30.06 14.25L30.01 14.21L29.95 14.15Q29.24 14.20 28.44 14.27L28.47 14.30L28.46 14.29Q23.22 14.62 20.71 16.59L20.82 16.71L20.88 16.76Q18.88 18.37 18.72 21.72L18.71 21.71L18.66 21.66Q18.50 22.15 18.54 23.41L18.62 23.49L18.71 23.58Q18.66 28.25 21.06 30.34L21.11 30.39L21.09 30.37Q23.24 32.29 28.22 32.60L28.28 32.65L28.27 32.65Q31.39 32.79 34.40 31.00L34.49 31.10L34.49 31.09Q35.01 33.74 35.62 35.11L35.61 35.11L35.58 35.08Q33.65 35.51 32.01 35.47L31.84 35.30L31.92 35.38Q27.52 35.39 24.40 35.01ZM39.47 38.70L39.38 38.61L39.33 38.56Q37.56 35.58 36.88 32.99L36.91 33.02L37.00 33.11Q36.63 33.42 35.64 33.80L35.64 33.80L35.49 33.65Q35.13 32.84 34.94 32.00L34.95 32.02L34.69 30.43L34.70 30.43Q31.30 32.36 28.18 32.24L28.16 32.23L28.28 32.35Q23.96 32.10 21.64 30.35L21.67 30.39L21.55 30.26Q20.42 28.45 20.49 25.51L20.53 25.55L20.56 25.58Q20.81 21.18 23.28 19.05L23.23 19.00L23.24 19.00Q25.25 16.99 29.94 16.38L29.96 16.40L29.99 16.44Q30.81 16.34 31.53 16.34L31.63 16.44L31.53 16.34Q34.25 16.28 36.35 17.80L36.37 17.82L36.38 17.83Q36.89 15.72 38.11 12.48L38.14 12.51L38.07 12.44Q37.91 12.55 37.36 12.49L37.36 12.49L37.24 12.38Q36.66 12.29 36.40 12.29L36.44 12.34L36.52 12.41Q36.70 11.87 37.16 10.88L37.09 10.82L37.24 10.96Q36.84 10.80 34.35 10.72L34.49 10.87L34.43 10.80Q31.92 10.70 31.27 10.74L31.30 10.77L31.27 10.75Q20.79 11.12 17.33 13.71L17.28 13.66L17.26 13.64Q15.19 15.42 15.19 19.34L15.34 19.48L15.19 19.34Q15.28 20.53 15.40 23.23L15.43 23.26L15.36 23.20Q15.55 26.81 15.78 28.53L15.68 28.42L15.69 28.44Q16.18 31.67 17.78 33.19L17.78 33.19L17.67 33.08Q18.32 33.92 19.57 35.06L19.50 34.99L19.46 34.95Q22.67 36.67 27.92 37.43L28.06 37.57L27.97 37.49Q34.41 38.44 39.39 38.63Z"/><path fill="#222" d="M149.16 18.06L149.07 17.97L149.17 18.07Q147.27 20.70 144.61 26.34L144.76 26.49L142.65 30.62L142.61 30.59Q141.90 32.65 140.57 34.90L140.52 34.86L140.39 34.72Q140.86 34.74 139.19 34.78L139.34 34.93L139.31 34.90Q139.20 34.79 137.94 34.79L138.00 34.84L137.96 34.80Q137.35 33.43 134.42 26.28L134.32 26.18L134.26 26.12Q132.26 20.92 130.17 17.91L130.18 17.93L130.14 17.88Q130.79 20.85 130.79 24.01L130.87 24.10L130.84 24.07Q130.86 30.60 127.89 36.16L127.95 36.21L127.82 36.08Q126.57 36.51 124.21 37.23L124.09 37.11L124.23 37.26Q127.97 31.63 127.97 24.40L127.95 24.38L127.89 24.32Q127.86 15.34 122.46 8.38L122.55 8.47L122.51 8.43Q124.03 9.03 126.39 9.72L126.51 9.84L126.44 9.77Q133.57 16.59 139.66 29.92L139.52 29.78L139.66 29.92Q143.12 22.88 145.33 19.37L145.22 19.26L145.29 19.33Q148.93 13.61 152.89 10.14L152.93 10.18L152.84 10.09Q154.04 9.81 156.41 9.05L156.49 9.13L156.40 9.04Q151.48 15.74 151.48 24.34L151.39 24.25L151.49 24.35Q151.49 31.01 154.92 36.53L154.97 36.59L154.84 36.45Q153.57 36.22 150.83 35.61L150.83 35.60L150.90 35.68Q148.40 30.74 148.40 24.76L148.40 24.77L148.55 24.91Q148.53 21.46 149.21 18.11ZM150.71 36.05L150.62 35.96L150.67 36.02Q151.34 36.11 152.78 36.38L152.73 36.32L152.82 36.42Q153.16 37.06 154.11 38.54L154.27 38.70L154.17 38.60Q156.38 39.10 159.84 40.32L159.85 40.33L159.77 40.24Q153.43 33.83 153.43 24.01L153.50 24.07L153.57 24.14Q153.60 16.44 157.97 10.32L157.95 10.29L155.74 10.97L155.71 10.95Q156.73 9.41 157.37 8.54L157.41 8.58L157.32 8.48Q155.50 9.17 152.87 9.71L152.82 9.65L152.79 9.62Q146.06 15.77 140.01 28.37L140.12 28.47L140.04 28.40Q134.91 17.48 129.96 12.23L129.94 12.21L129.91 12.17Q129.58 12.15 129.01 12.04L128.98 12.00L127.67 10.62L127.77 10.71Q127.07 9.94 126.38 9.33L126.44 9.39L126.40 9.35Q123.35 8.36 121.56 7.63L121.61 7.69L121.55 7.62Q127.65 14.94 127.65 24.34L127.53 24.22L127.62 24.31Q127.56 31.86 123.41 37.73L123.41 37.73L123.45 37.77Q124.05 37.46 125.35 37.04L125.44 37.13L125.50 37.19Q125.27 37.34 123.86 39.43L123.92 39.50L123.89 39.46Q125.80 39.09 129.30 38.33L129.21 38.24L129.27 38.29Q132.85 31.10 132.66 23.34L132.79 23.47L132.71 23.39Q134.17 27.32 137.64 35.21L137.68 35.25L137.72 35.29Q137.95 35.22 138.18 35.22L138.19 35.23L138.77 35.27L138.74 35.24Q139.14 35.87 139.93 37.16L139.97 37.19L139.94 37.17Q141.70 37.29 141.70 37.29L141.64 37.23L141.65 37.23Q142.58 37.14 143.23 37.22L143.20 37.19L143.22 37.21Q144.75 33.14 148.10 25.15L148.17 25.22L148.12 25.17Q148.01 30.62 150.60 35.95Z"/></svg>