<svg xmlns="http://www.w3.org/2000/svg" width="200" height="40" viewBox="0,0,200,40"><path d="M11 9 C112 17,82 11,179 26" stroke="#666" fill="none"/><path d="M2 26 C93 5,109 3,184 31" stroke="#111" fill="none"/><path fill="#333" d="M81.99 14.62L81.97 14.60L80.38 14.69L80.54 14.85Q78.11 14.77 77.88 16.79L77.98 16.89L77.89 16.80Q77.93 17.64 77.97 18.63L78.01 18.67L77.87 18.53Q78.06 20.62 79.31 21.95L79.32 21.96L79.24 21.89Q80.46 23.18 82.37 23.03L82.29 22.95L82.30 22.96Q84.46 22.91 85.22 22.00L85.13 21.91L85.27 22.04Q86.19 20.99 86.45 18.74L86.49 18.78L86.57 18.86Q86.78 16.56 85.53 15.72L85.58 15.77L85.49 15.68Q84.65 14.92 81.99 14.62ZM88.07 23.90L88.05 23.87L86.70 26.11L86.69 26.10Q84.05 30.95 80.28 35.03L80.35 35.10L80.35 35.10Q78.70 35.24 76.00 36.04L75.96 36.00L75.94 35.98Q81.21 29.64 84.37 24.85L84.50 24.97L84.50 24.98Q83.50 25.64 81.86 25.72L81.87 25.73L81.85 25.71Q78.80 25.82 77.28 23.84L77.16 23.73L77.22 23.78Q76.09 22.27 74.98 17.70L74.97 17.69L74.82 17.54Q75.01 17.27 74.86 16.34L74.76 16.24L74.73 16.21Q74.60 15.30 74.60 14.84L74.54 14.78L74.55 14.79Q74.65 13.10 75.71 12.49L75.65 12.43L75.62 12.40Q77.00 11.80 78.86 11.80L78.85 11.79L78.72 11.66Q82.02 11.75 82.02 11.75L81.97 11.71L82.06 11.80Q84.10 11.71 85.36 11.90L85.40 11.94L85.45 11.99Q87.61 12.29 88.53 12.78L88.54 12.79L88.39 12.65Q89.84 13.48 90.03 15.23L89.92 15.13L89.92 15.13Q90.05 15.49 89.86 18.15L89.71 18.00L89.87 18.16Q89.50 20.30 89.27 21.14L89.29 21.16L89.26 21.13Q88.80 22.46 88.04 23.87ZM89.93 26.25L89.93 26.25L89.87 26.19Q90.92 24.04 91.45 19.74L91.45 19.74L91.45 19.74Q91.83 17.64 91.79 16.77L91.65 16.63L91.76 16.74Q91.62 14.77 90.44 13.86L90.46 13.88L90.11 13.72L90.16 13.76Q89.90 13.01 88.98 12.36L89.09 12.46L88.95 12.32Q86.75 11.42 81.95 11.27L81.98 11.30L81.98 11.30Q80.97 11.24 78.54 11.24L78.46 11.17L78.62 11.33Q76.77 11.23 75.28 11.91L75.36 11.98L75.22 11.85Q74.15 12.72 74.23 14.55L74.34 14.66L74.23 14.55Q74.44 15.48 74.63 17.50L74.65 17.53L74.71 17.58Q75.15 20.04 75.42 20.88L75.54 21.00L75.45 20.91Q76.09 22.84 77.04 24.13L77.09 24.18L76.92 24.02Q77.22 24.39 77.60 24.77L77.70 24.87L77.61 24.78Q77.92 25.28 78.57 26.20L78.54 26.17L78.67 26.30Q80.13 27.64 82.07 27.83L82.04 27.81L81.90 27.67Q80.04 30.37 78.48 32.28L78.55 32.34L74.94 36.73L74.99 36.78Q77.09 35.87 78.73 35.53L78.77 35.58L78.80 35.60Q78.05 36.49 76.49 38.21L76.47 38.18L76.39 38.11Q79.47 37.19 82.59 37.15L82.62 37.18L82.71 37.27Q85.11 34.76 89.45 27.52L89.43 27.51L89.31 27.46L89.28 27.43Q89.56 26.72 89.90 26.22ZM83.89 16.98L83.94 17.03L83.92 17.00Q84.54 16.90 84.99 17.01L85.04 17.06L84.94 16.96Q85.67 17.16 86.05 17.28L86.03 17.25L86.07 17.29Q86.22 17.71 86.29 18.12L86.26 18.09L86.25 18.08Q86.34 18.51 86.22 18.89L86.27 18.93L86.25 18.91Q86.15 20.57 84.97 21.67L84.94 21.64L84.91 21.61Q83.94 22.62 82.30 22.58L82.35 22.63L82.33 22.62Q82.03 22.74 80.51 22.43L80.45 22.37L80.39 22.31Q80.21 21.48 80.21 20.76L80.20 20.75L80.23 20.78Q80.10 20.46 80.10 20.23L80.12 20.25L80.14 20.27Q80.19 18.11 82.47 17.31L82.41 17.25L82.40 17.24Q83.14 17.07 83.98 17.07Z"/><path fill="#222" d="M50.77 25.55L50.90 25.67L50.77 25.54Q50.80 25.57 54.19 25.53L54.24 25.59L54.30 25.65Q56.50 25.57 57.57 25.60L57.58 25.61L57.54 25.58Q56.48 22.69 54.05 17.06L54.13 17.14L54.03 17.04Q53.57 18.56 52.52 21.42L52.44 21.33L52.42 21.31Q51.48 24.27 50.91 25.68ZM58.74 28.14L58.80 28.21L58.69 28.10Q56.38 28.03 54.17 28.07L54.27 28.17L54.16 28.06Q52.04 28.22 49.76 28.41L49.66 28.32L49.75 28.40Q48.25 31.86 45.02 36.04L44.83 35.86L44.97 36.00Q42.23 36.46 40.86 36.96L40.92 37.01L40.90 37.00Q46.20 31.52 50.88 18.15L50.75 18.02L50.76 18.03Q51.91 14.50 53.28 11.27L53.36 11.35L53.46 11.45Q53.64 11.32 53.98 11.32L54.02 11.36L54.86 11.48L54.70 11.32Q55.47 12.70 60.31 24.34L60.38 24.42L60.39 24.42Q63.54 32.15 67.54 36.30L67.57 36.33L67.55 36.31Q67.07 36.21 63.19 35.34L63.27 35.42L63.32 35.47Q60.69 32.27 58.71 28.12ZM63.23 35.80L63.23 35.80L63.76 35.83L63.72 35.79Q63.92 35.76 64.22 35.87L64.32 35.97L64.35 36.00Q64.62 36.31 66.45 38.33L66.50 38.38L66.51 38.39Q70.13 39.27 72.53 40.30L72.53 40.30L72.54 40.30Q67.04 35.76 63.04 27.76L62.91 27.63L62.92 27.64Q61.35 24.40 59.90 20.44L59.97 20.51L57.23 13.00L57.13 12.91Q56.86 12.98 56.63 12.98L56.69 13.04L56.10 12.98L56.22 13.10Q55.72 12.30 55.00 10.93L55.11 11.04L55.13 11.06Q54.62 11.08 54.16 11.04L54.02 10.90L54.16 11.05Q53.70 11.00 53.17 11.00L53.17 11.00L53.14 10.97Q51.73 14.89 47.84 25.05L47.84 25.05L47.85 25.06Q44.64 32.93 39.99 37.72L39.99 37.71L39.97 37.70Q41.03 37.31 43.05 36.70L43.15 36.81L43.13 36.78Q42.35 37.64 40.79 39.43L40.78 39.42L40.72 39.36Q42.44 38.72 46.36 37.96L46.41 38.01L46.37 37.97Q49.79 33.63 51.36 30.39L51.47 30.51L51.48 30.52Q53.17 30.34 55.49 30.38L55.56 30.45L55.49 30.38Q58.08 30.27 59.45 30.34L59.45 30.34L59.51 30.40Q60.89 32.89 63.25 35.82ZM55.43 21.02L55.39 20.99L55.47 21.07Q56.32 23.13 57.08 25.23L57.14 25.29L53.80 25.26L53.77 25.23Q54.35 23.79 55.41 21.01Z"/><path fill="#333" d="M133.82 14.23L133.77 14.18L133.72 14.14Q134.90 18.67 135.05 21.86L135.00 21.81L135.13 21.94Q135.49 21.84 139.87 21.96L139.92 22.01L140.02 22.11Q142.50 22.08 142.88 18.61L142.80 18.53L142.89 18.63Q143.08 16.87 142.17 15.96L142.10 15.89L142.06 15.85Q140.89 15.06 138.91 14.91L138.77 14.77L138.79 14.79Q135.55 14.56 133.68 14.10ZM135.23 23.87L135.22 23.86L135.11 23.75Q135.31 29.78 133.52 35.72L133.57 35.77L133.61 35.80Q132.35 36.10 129.76 37.13L129.74 37.11L129.77 37.14Q132.55 30.60 132.21 23.14L132.18 23.10L132.29 23.22Q131.81 15.69 128.49 9.18L128.50 9.18L128.64 9.32Q133.54 12.17 140.51 12.17L140.52 12.18L140.35 12.01Q146.10 12.13 146.37 15.67L146.34 15.64L146.37 15.68Q146.50 16.33 146.42 16.94L146.32 16.84L146.27 18.01L146.16 17.90Q145.48 21.98 143.35 23.69L143.30 23.64L143.35 23.69Q142.44 24.27 141.42 24.27L141.36 24.22L138.87 24.31L138.77 24.21Q144.47 31.55 149.00 36.12L148.93 36.05L149.05 36.17Q146.83 35.40 143.90 35.06L143.80 34.95L143.92 35.07Q140.09 31.05 135.18 23.82ZM143.64 35.29L143.68 35.33L144.10 35.44L145.32 36.66L145.31 36.66Q145.77 37.08 146.42 37.69L146.51 37.78L146.50 37.76Q150.12 38.46 153.70 40.32L153.58 40.20L153.55 40.18Q146.66 33.48 141.26 26.55L141.36 26.65L143.14 26.68L143.12 26.66Q146.19 26.64 147.52 22.11L147.54 22.14L147.41 22.00Q148.22 19.92 148.22 17.22L148.20 17.20L148.17 17.17Q148.20 14.91 146.49 14.27L146.46 14.24L146.39 14.17Q146.40 13.92 145.83 13.23L145.72 13.12L145.73 13.12Q144.16 11.78 140.50 11.71L140.51 11.72L140.33 11.53Q132.55 11.48 127.86 8.47L127.94 8.55L127.88 8.49Q131.60 15.29 131.94 22.98L131.95 22.99L131.86 22.89Q132.36 31.01 129.24 37.86L129.14 37.77L129.20 37.82Q130.48 37.28 131.28 36.97L131.24 36.93L130.21 39.18L130.12 39.09Q133.03 38.23 135.69 37.73L135.72 37.76L135.68 37.72Q136.80 32.45 136.99 27.23L137.05 27.28L137.11 27.35Q140.49 32.18 143.65 35.30ZM142.48 17.46L142.38 17.36L142.55 17.53Q142.55 17.75 142.55 18.10L142.49 18.03L142.57 18.68L142.47 18.58Q142.57 19.79 141.89 20.74L141.82 20.68L141.74 20.59Q141.32 21.55 140.40 21.74L140.37 21.70L140.32 21.65Q140.04 21.64 138.44 21.68L138.46 21.69L138.54 21.77Q137.91 21.75 137.07 21.64L137.00 21.56L137.01 21.58Q137.01 20.17 136.67 17.12L136.69 17.15L136.53 16.98Q137.97 17.21 138.66 17.21L138.78 17.33L138.72 17.27Q140.54 17.26 142.48 17.46Z"/><path fill="#333" d="M105.49 14.20L105.50 14.20L105.51 14.22Q106.61 18.66 106.76 21.86L106.77 21.87L106.73 21.83Q107.31 21.95 111.69 22.07L111.68 22.06L111.70 22.08Q114.16 22.03 114.55 18.57L114.54 18.56L114.63 18.65Q114.83 16.91 113.92 16.00L113.91 15.99L113.83 15.91Q112.57 15.03 110.59 14.87L110.48 14.77L110.59 14.88Q107.40 14.70 105.54 14.24ZM106.94 23.87L106.98 23.91L106.82 23.75Q107.00 29.75 105.21 35.69L105.25 35.73L105.28 35.76Q103.97 36.01 101.38 37.04L101.48 37.14L101.47 37.13Q104.32 30.65 103.98 23.19L103.90 23.11L103.85 23.07Q103.66 15.83 100.35 9.32L100.28 9.25L100.31 9.28Q105.26 12.18 112.23 12.18L112.23 12.18L112.17 12.11Q117.72 12.03 117.98 15.57L118.03 15.62L118.12 15.71Q118.07 16.19 118.00 16.80L118.07 16.88L118.01 18.04L118.05 18.07Q117.08 21.86 114.95 23.58L115.01 23.64L114.93 23.55Q114.21 24.32 113.18 24.32L113.24 24.38L110.52 24.25L110.58 24.31Q116.11 31.48 120.64 36.05L120.68 36.09L120.67 36.07Q118.52 35.37 115.59 35.03L115.59 35.02L115.48 34.92Q111.72 30.96 106.80 23.73ZM115.39 35.32L115.51 35.45L115.74 35.37L117.06 36.69L117.07 36.70Q117.58 37.17 118.23 37.78L118.21 37.76L118.23 37.78Q121.81 38.43 125.39 40.29L125.36 40.26L125.30 40.21Q118.40 33.50 112.99 26.57L113.05 26.63L114.83 26.66L114.78 26.61Q117.76 26.50 119.09 21.97L119.20 22.08L119.08 21.96Q119.92 19.90 119.92 17.20L119.95 17.23L119.86 17.14Q119.94 14.94 118.22 14.29L118.12 14.18L118.16 14.22Q117.99 13.79 117.42 13.10L117.37 13.05L117.39 13.07Q115.82 11.74 112.17 11.66L112.14 11.63L112.21 11.70Q104.19 11.41 99.51 8.40L99.51 8.40L99.58 8.48Q103.21 15.18 103.55 22.87L103.71 23.04L103.55 22.88Q103.94 30.88 100.82 37.73L100.86 37.77L100.89 37.80Q102.06 37.14 102.85 36.84L102.92 36.90L101.89 39.15L101.92 39.18Q104.74 38.22 107.40 37.73L107.35 37.67L107.30 37.63Q108.65 32.58 108.84 27.36L108.81 27.34L108.82 27.35Q112.21 32.19 115.37 35.31ZM114.22 17.48L114.17 17.43L114.16 17.42Q114.20 17.69 114.20 18.03L114.18 18.01L114.15 18.55L114.19 18.59Q114.27 19.77 113.58 20.73L113.61 20.75L113.52 20.67Q113.01 21.52 112.09 21.71L112.10 21.72L111.95 21.57Q111.87 21.75 110.27 21.79L110.15 21.67L110.11 21.63Q109.72 21.85 108.88 21.73L108.74 21.59L108.74 21.59Q108.73 20.18 108.39 17.13L108.41 17.15L108.25 17.00Q109.73 17.26 110.42 17.26L110.40 17.23L110.51 17.35Q112.16 17.17 114.10 17.36Z"/><path fill="#444" d="M27.60 15.13L27.56 15.09L27.59 15.12Q23.35 15.18 19.66 14.19L19.56 14.09L19.62 14.15Q21.18 18.76 21.37 23.59L21.34 23.56L21.28 23.51Q21.47 28.30 20.25 32.90L20.21 32.87L20.32 32.97Q23.13 32.36 26.64 32.21L26.47 32.05L26.48 32.05Q30.47 31.93 32.26 29.50L32.28 29.52L32.34 29.57Q33.84 27.50 34.03 23.39L34.05 23.40L34.06 23.41Q34.14 21.67 33.68 19.95L33.61 19.88L33.53 19.80Q32.25 15.06 27.53 15.06ZM15.69 37.13L15.59 37.04L15.76 37.20Q18.49 31.38 18.49 24.68L18.61 24.79L18.48 24.66Q18.49 16.14 14.19 9.14L14.26 9.21L14.21 9.16Q19.61 11.97 27.87 12.16L27.78 12.08L27.73 12.02Q36.59 12.20 36.94 19.36L37.04 19.47L36.98 19.40Q37.14 22.16 37.11 23.60L37.02 23.52L37.01 23.51Q36.97 28.22 36.13 30.39L36.11 30.38L36.07 30.33Q35.83 31.62 35.07 32.46L34.96 32.34L35.07 32.46Q33.62 33.90 30.99 34.39L31.00 34.40L31.08 34.48Q29.33 34.60 26.32 34.82L26.50 35.00L26.39 34.90Q20.35 35.44 15.74 37.19ZM33.68 37.09L33.54 36.94L33.71 37.11Q36.40 36.72 38.04 35.24L38.08 35.28L37.93 35.12Q39.10 33.33 39.06 30.59L39.13 30.65L39.05 30.57Q39.19 29.35 39.04 25.84L39.11 25.91L38.59 21.21L38.61 21.23Q38.44 18.97 37.49 16.87L37.50 16.88L37.45 16.83Q37.08 16.04 36.39 15.39L36.26 15.26L36.36 15.21L36.25 15.10Q34.52 12.11 30.10 11.73L30.12 11.75L30.25 11.88Q27.44 11.62 20.44 10.90L20.47 10.92L20.52 10.97Q17.15 10.42 13.45 8.40L13.43 8.38L13.60 8.55Q18.33 15.83 18.33 24.59L18.43 24.69L18.44 24.70Q18.38 31.65 15.03 37.81L14.99 37.77L14.98 37.76Q15.73 37.56 17.07 37.06L16.95 36.95L17.05 37.05Q16.71 37.89 15.83 39.37L15.74 39.28L15.87 39.41Q18.76 38.19 22.11 37.69L22.28 37.87L22.20 37.78Q24.34 37.53 28.00 37.42L27.88 37.30L27.98 37.39Q31.69 37.11 33.52 36.92ZM33.63 23.37L33.69 23.43L33.75 23.49Q33.26 31.37 26.56 31.75L26.53 31.72L26.64 31.83Q24.60 31.85 22.55 32.12L22.61 32.18L22.63 32.20Q23.23 28.23 23.23 24.58L23.27 24.62L23.20 24.55Q23.22 20.88 22.50 17.03L22.60 17.13L22.46 16.99Q24.81 17.44 29.49 17.44L29.44 17.38L29.59 17.54Q30.91 17.33 32.54 18.28L32.59 18.33L32.42 18.15Q33.74 20.47 33.59 23.33Z"/><path fill="#333" d="M169.93 34.82L169.96 34.85L168.09 34.92L167.92 34.75Q167.17 34.95 166.22 35.06L166.13 34.97L166.07 34.92Q166.68 28.75 166.68 24.75L166.64 24.71L166.70 24.77Q162.76 18.12 155.10 9.44L155.11 9.45L154.99 9.33Q156.88 10.42 160.23 11.22L160.15 11.14L160.21 11.20Q165.19 16.72 168.20 21.93L168.22 21.95L168.19 21.92Q171.29 16.45 175.67 11.43L175.76 11.53L175.68 11.44Q178.11 11.05 180.62 10.25L180.67 10.30L180.58 10.22Q174.45 16.23 169.58 24.64L169.65 24.71L169.62 24.69Q169.67 31.78 169.97 34.86ZM179.13 12.35L181.69 9.34L181.74 9.40Q178.70 10.62 175.58 11.08L175.55 11.04L175.54 11.04Q171.37 15.81 168.55 20.91L168.43 20.79L168.52 20.88Q166.31 17.15 163.12 13.27L163.12 13.27L163.09 13.24Q162.93 13.35 162.44 13.27L162.38 13.21L162.42 13.26Q161.75 12.48 160.23 10.80L160.19 10.76L160.31 10.88Q156.91 10.11 153.94 8.55L153.95 8.55L153.86 8.47Q161.51 16.88 166.27 24.80L166.39 24.92L166.42 24.94Q166.20 31.16 165.59 35.31L165.66 35.38L165.57 35.29Q166.41 35.37 167.85 35.25L167.86 35.25L167.86 36.29L167.90 36.33Q167.82 36.70 167.74 37.24L167.72 37.22L167.72 37.22Q171.27 37.22 173.02 37.41L173.02 37.41L172.99 37.38Q171.74 32.70 171.62 26.72L171.58 26.69L171.74 26.84Q176.02 18.30 182.57 10.95L182.53 10.91L178.98 12.19Z"/></svg>