<svg xmlns="http://www.w3.org/2000/svg" width="200" height="40" viewBox="0,0,200,40"><path d="M9 4 C102 16,91 17,188 34" stroke="#888" fill="none"/><path d="M5 12 C92 17,106 34,193 20" stroke="#444" fill="none"/><path fill="#222" d="M107.45 25.65L107.39 25.59L107.37 25.57Q107.40 25.60 110.79 25.57L110.72 25.50L110.76 25.53Q113.15 25.64 114.22 25.68L114.11 25.58L114.11 25.58Q113.08 22.71 110.64 17.08L110.59 17.03L110.61 17.05Q110.13 18.54 109.08 21.40L109.06 21.38L109.00 21.32Q107.98 24.21 107.41 25.62ZM115.19 28.03L115.35 28.19L115.19 28.02Q112.92 28.00 110.72 28.04L110.79 28.11L110.83 28.15Q108.58 28.19 106.29 28.38L106.32 28.40L106.21 28.29Q104.70 31.74 101.47 35.92L101.46 35.92L101.56 36.02Q98.89 36.55 97.52 37.04L97.48 37.00L97.45 36.97Q102.63 31.37 107.31 18.01L107.28 17.98L107.38 18.08Q108.49 14.51 109.86 11.27L109.89 11.30L109.97 11.38Q110.37 11.48 110.71 11.48L110.62 11.39L111.31 11.35L111.32 11.36Q112.03 12.68 116.87 24.33L116.90 24.36L116.91 24.38Q120.16 32.19 124.15 36.34L124.26 36.45L124.26 36.45Q123.66 36.23 119.78 35.35L119.71 35.29L119.90 35.48Q117.34 32.35 115.36 28.20ZM119.83 35.82L119.69 35.68L120.35 35.85L120.22 35.72Q120.65 35.92 120.95 36.03L120.78 35.86L120.88 35.96Q121.24 36.36 123.07 38.38L123.14 38.45L123.02 38.33Q126.72 39.29 129.12 40.31L129.11 40.31L129.09 40.28Q123.51 35.66 119.51 27.66L119.49 27.64L119.58 27.73Q117.92 24.39 116.47 20.43L116.53 20.50L113.66 12.86L113.70 12.90Q113.39 12.94 113.16 12.94L113.24 13.01L112.76 13.07L112.63 12.94Q112.38 12.38 111.66 11.01L111.70 11.06L111.69 11.04Q111.20 11.09 110.74 11.05L110.74 11.05L110.72 11.03Q110.27 11.00 109.74 11.00L109.68 10.94L109.71 10.97Q108.27 14.86 104.38 25.02L104.36 25.00L104.48 25.12Q101.30 33.02 96.66 37.81L96.60 37.75L96.70 37.86Q97.68 37.39 99.70 36.78L99.57 36.66L99.73 36.81Q98.88 37.61 97.32 39.39L97.33 39.40L97.31 39.38Q99.13 38.84 103.05 38.08L103.01 38.04L102.99 38.02Q106.41 33.67 107.97 30.43L108.00 30.47L107.97 30.43Q109.63 30.23 111.95 30.27L112.05 30.37L112.07 30.39Q114.77 30.39 116.14 30.46L116.07 30.39L116.11 30.43Q117.38 32.81 119.74 35.74ZM112.01 21.04L111.91 20.94L112.06 21.09Q112.81 23.05 113.57 25.15L113.68 25.26L110.25 25.14L110.25 25.14Q110.95 23.83 112.02 21.05Z"/><path fill="#444" d="M167.07 14.73L166.96 14.62L167.05 14.71Q164.99 14.74 164.03 14.89L164.18 15.03L164.04 14.89Q162.54 15.26 161.32 15.80L161.26 15.73L161.23 15.71Q157.69 17.11 157.58 21.79L157.56 21.77L157.71 21.93Q157.60 24.56 158.24 27.49L158.13 27.38L158.20 27.44Q158.99 31.39 162.60 32.57L162.67 32.64L162.66 32.63Q164.63 33.27 166.08 33.11L166.07 33.11L166.47 33.05L166.34 32.92Q166.60 32.99 166.79 33.03L166.79 33.02L166.87 33.11Q166.88 32.96 167.03 32.93L167.06 32.96L167.07 32.97Q169.79 32.79 171.16 32.22L171.07 32.13L167.58 28.68L167.45 28.54Q167.89 28.34 168.50 27.73L168.51 27.74L169.39 26.80L169.35 26.76Q171.18 28.81 173.16 30.87L173.30 31.01L173.25 30.96Q175.57 29.13 175.84 23.76L175.71 23.63L175.75 23.68Q175.93 22.87 175.93 21.96L175.81 21.83L175.90 21.93Q175.83 16.18 170.77 15.08L170.86 15.17L170.81 15.12Q169.55 14.84 167.03 14.69ZM179.82 36.77L179.84 36.78L179.76 36.71Q179.16 37.14 177.98 38.01L177.99 38.02L173.59 34.34L173.63 34.39Q171.03 35.47 166.76 35.51L166.83 35.58L166.83 35.58Q160.24 35.65 157.43 33.41L157.48 33.46L157.41 33.39Q155.70 31.68 155.25 28.72L155.26 28.73L155.21 28.68Q155.12 26.99 154.74 23.41L154.58 23.26L154.65 23.32Q154.77 22.72 154.65 20.97L154.56 20.87L154.48 20.79Q154.41 19.32 154.45 18.44L154.39 18.38L154.44 18.43Q154.53 15.36 156.28 13.80L156.32 13.84L156.39 13.91Q157.75 12.41 160.94 11.91L161.01 11.98L161.10 12.07Q163.56 11.67 166.45 11.75L166.46 11.76L166.42 11.72Q173.82 11.73 176.94 14.09L176.99 14.14L177.04 14.19Q179.28 16.39 179.01 21.30L178.98 21.27L178.92 21.21Q178.66 24.79 178.47 26.12L178.64 26.30L178.48 26.14Q177.96 30.76 175.64 33.08L175.64 33.09L175.58 33.02Q177.02 34.24 179.76 36.71ZM174.98 12.51L174.91 12.44L175.00 12.53Q172.87 11.70 166.36 11.20L166.46 11.30L166.47 11.31Q165.07 11.32 162.29 11.44L162.25 11.39L162.21 11.36Q158.05 11.64 155.80 13.62L155.86 13.68L155.77 13.60Q154.12 15.06 154.12 18.22L154.13 18.24L154.08 18.18Q154.09 19.04 154.25 20.75L154.24 20.74L154.20 20.71Q154.51 22.57 154.51 23.45L154.39 23.33L154.40 23.33Q154.52 25.06 154.90 28.64L155.04 28.77L155.04 28.78Q155.25 31.50 156.85 33.56L156.97 33.68L156.93 33.64Q157.23 34.43 158.45 35.57L158.46 35.59L158.51 35.64Q161.19 37.59 166.37 37.86L166.38 37.87L166.35 37.84Q166.66 37.81 169.06 37.93L169.02 37.88L169.10 37.97Q173.82 38.04 176.10 36.97L176.11 36.98L176.11 36.98Q177.09 37.76 181.81 41.34L181.88 41.42L181.78 41.32Q182.38 40.77 183.67 39.78L183.67 39.78L183.76 39.88Q182.80 39.10 182.00 38.42L182.02 38.44L180.35 36.95L180.52 36.97L180.39 36.84Q179.97 36.54 178.76 35.51L178.67 35.43L178.58 35.34Q180.66 33.00 180.66 28.47L180.61 28.42L180.53 28.34Q180.47 27.86 180.51 27.02L180.63 27.15L180.67 27.18Q180.70 26.35 180.70 25.93L180.55 25.77L180.71 25.94Q180.68 20.38 179.95 18.02L179.95 18.02L179.89 17.96Q179.56 16.71 178.68 15.65L178.57 15.53L178.70 15.66Q177.93 13.56 175.00 12.53ZM168.97 17.08L168.89 17.00L168.91 17.03Q172.97 16.93 174.79 18.53L174.77 18.51L174.76 18.50Q175.36 19.74 175.47 21.07L175.48 21.08L175.54 21.14Q175.68 22.46 175.60 23.83L175.41 23.64L175.54 23.77Q175.07 28.59 173.13 30.30L173.16 30.33L173.23 30.40Q171.89 29.07 169.38 26.33L169.45 26.40L169.43 26.37Q168.67 27.15 167.11 28.71L167.03 28.62L167.11 28.71Q167.55 29.18 168.70 30.36L168.84 30.51L168.75 30.53L168.74 30.52Q169.27 31.02 170.30 32.08L170.23 32.02L170.31 32.09Q169.31 32.35 166.99 32.66L166.95 32.61L166.46 32.66L166.02 32.63L165.95 32.61L166.05 32.70Q162.65 32.77 160.67 31.13L160.49 30.96L160.60 31.07Q159.49 28.89 159.53 25.77L159.58 25.82L159.57 25.80Q159.80 17.17 168.98 17.09Z"/><path fill="#333" d="M133.70 14.12L133.75 14.17L133.72 14.14Q134.88 18.65 135.03 21.85L135.12 21.93L135.11 21.93Q135.47 21.82 139.85 21.94L139.98 22.07L140.02 22.11Q142.50 22.08 142.88 18.61L142.78 18.52L142.90 18.64Q143.09 16.88 142.18 15.97L142.21 16.01L142.16 15.95Q140.88 15.06 138.90 14.91L138.88 14.88L138.80 14.80Q135.60 14.61 133.73 14.15ZM135.12 23.76L135.24 23.88L135.15 23.80Q135.34 29.80 133.55 35.74L133.48 35.68L133.65 35.84Q132.41 36.16 129.82 37.19L129.67 37.04L129.71 37.08Q132.53 30.57 132.19 23.11L132.22 23.14L132.25 23.18Q131.90 15.78 128.58 9.27L128.59 9.27L128.51 9.20Q133.52 12.15 140.49 12.15L140.42 12.08L140.49 12.15Q146.05 12.08 146.32 15.62L146.36 15.66L146.34 15.64Q146.31 16.15 146.24 16.76L146.40 16.92L146.20 17.94L146.23 17.97Q145.42 21.91 143.29 23.63L143.31 23.65L143.29 23.63Q142.40 24.22 141.37 24.22L141.52 24.37L138.95 24.40L138.81 24.26Q144.53 31.61 149.06 36.18L148.98 36.09L149.05 36.17Q146.77 35.33 143.84 34.99L143.81 34.97L143.83 34.99Q140.17 31.13 135.26 23.90ZM143.79 35.44L143.73 35.38L144.02 35.36L145.36 36.70L145.23 36.57Q145.85 37.16 146.50 37.77L146.59 37.86L146.52 37.78Q150.00 38.33 153.58 40.20L153.72 40.34L153.63 40.25Q146.61 33.43 141.21 26.50L141.30 26.59L143.00 26.54L143.02 26.56Q146.12 26.57 147.45 22.04L147.46 22.05L147.51 22.10Q148.24 19.94 148.24 17.24L148.22 17.22L148.24 17.24Q148.24 14.95 146.53 14.31L146.34 14.12L146.53 14.31Q146.41 13.92 145.84 13.24L145.69 13.09L145.68 13.08Q144.16 11.79 140.51 11.71L140.47 11.67L140.33 11.54Q132.57 11.50 127.88 8.49L127.76 8.37L127.91 8.51Q131.59 15.29 131.94 22.98L131.84 22.88L132.00 23.04Q132.21 30.86 129.08 37.71L129.19 37.82L129.08 37.71Q130.49 37.29 131.29 36.99L131.24 36.94L130.26 39.23L130.15 39.12Q133.04 38.24 135.71 37.75L135.60 37.64L135.56 37.60Q136.82 32.47 137.01 27.25L137.12 27.36L137.14 27.38Q140.64 32.32 143.79 35.44ZM142.43 17.40L142.51 17.49L142.49 17.47Q142.51 17.71 142.51 18.06L142.56 18.11L142.57 18.69L142.56 18.68Q142.54 19.76 141.86 20.71L141.80 20.65L141.78 20.64Q141.20 21.43 140.29 21.62L140.30 21.63L140.29 21.62Q140.14 21.74 138.54 21.78L138.43 21.67L138.54 21.77Q137.86 21.71 137.03 21.59L136.98 21.54L137.11 21.68Q137.03 20.19 136.69 17.15L136.64 17.10L136.62 17.08Q138.09 17.33 138.78 17.33L138.79 17.34L138.75 17.30Q140.50 17.22 142.44 17.41Z"/><path fill="#333" d="M27.61 15.14L27.61 15.14L27.63 15.15Q23.23 15.05 19.53 14.06L19.57 14.10L19.65 14.18Q21.16 18.74 21.35 23.57L21.22 23.45L21.31 23.53Q21.46 28.28 20.24 32.89L20.32 32.97L20.26 32.91Q23.17 32.39 26.67 32.24L26.53 32.10L26.53 32.10Q30.56 32.02 32.35 29.59L32.35 29.58L32.30 29.53Q33.77 27.42 33.96 23.31L34.00 23.36L34.08 23.43Q34.05 21.58 33.59 19.86L33.55 19.82L33.55 19.82Q32.42 15.22 27.70 15.22ZM15.75 37.19L15.74 37.19L15.75 37.20Q18.60 31.48 18.60 24.78L18.50 24.69L18.64 24.82Q18.61 16.27 14.31 9.26L14.20 9.15L14.24 9.19Q19.62 11.98 27.88 12.17L27.78 12.07L27.71 12.00Q36.64 12.26 36.99 19.41L36.92 19.35L37.06 19.49Q37.20 22.21 37.16 23.66L37.11 23.61L37.11 23.61Q36.94 28.19 36.10 30.36L36.17 30.44L36.14 30.41Q35.83 31.61 35.06 32.45L35.08 32.47L34.91 32.30Q33.57 33.85 30.95 34.35L30.96 34.36L30.95 34.35Q29.34 34.60 26.33 34.83L26.36 34.86L26.41 34.91Q20.30 35.39 15.70 37.14ZM33.59 36.99L33.56 36.96L33.68 37.08Q36.37 36.68 38.00 35.20L37.97 35.16L38.04 35.23Q39.12 33.35 39.08 30.60L39.06 30.59L39.13 30.65Q39.20 29.36 39.05 25.85L39.10 25.90L38.57 21.18L38.61 21.22Q38.54 19.07 37.59 16.97L37.54 16.92L37.42 16.80Q37.09 16.05 36.40 15.40L36.29 15.29L36.33 15.18L36.22 15.06Q34.53 12.12 30.11 11.74L30.10 11.73L30.24 11.86Q27.55 11.73 20.55 11.01L20.57 11.02L20.49 10.95Q17.12 10.40 13.43 8.38L13.56 8.51L13.53 8.48Q18.41 15.91 18.41 24.67L18.40 24.66L18.31 24.56Q18.39 31.65 15.04 37.82L14.91 37.69L15.07 37.85Q15.61 37.44 16.94 36.94L17.06 37.06L16.97 36.97Q16.67 37.85 15.79 39.33L15.76 39.30L15.79 39.33Q18.78 38.21 22.13 37.71L22.25 37.83L22.10 37.68Q24.28 37.47 27.93 37.35L27.98 37.39L27.85 37.27Q31.80 37.21 33.62 37.02ZM33.67 23.40L33.65 23.39L33.62 23.35Q33.26 31.37 26.56 31.76L26.53 31.72L26.48 31.67Q24.55 31.80 22.49 32.06L22.65 32.22L22.67 32.24Q23.23 28.23 23.23 24.58L23.31 24.66L23.37 24.72Q23.17 20.82 22.45 16.98L22.48 17.01L22.58 17.11Q24.74 17.36 29.42 17.36L29.50 17.45L29.41 17.36Q30.97 17.39 32.61 18.35L32.59 18.33L32.58 18.31Q33.83 20.56 33.68 23.41Z"/><path fill="#111" d="M75.21 10.78L75.33 10.90L75.21 10.77Q77.28 15.81 77.85 20.99L77.79 20.93L77.69 20.83Q81.45 16.75 87.36 11.92L87.27 11.83L87.39 11.95Q90.54 11.60 93.16 10.80L93.28 10.91L86.61 16.42L86.55 16.36Q83.24 19.41 80.38 22.26L80.32 22.20L80.40 22.28Q88.31 31.38 93.38 36.10L93.29 36.01L93.48 36.20Q90.22 35.11 87.90 34.95L88.01 35.07L88.03 35.08Q82.16 29.60 77.86 23.78L77.87 23.79L77.91 23.82Q77.92 30.35 76.06 35.68L76.23 35.86L76.09 35.71Q75.99 35.88 75.50 36.07L75.40 35.97L75.34 36.10L75.45 36.21Q75.23 36.23 72.68 37.14L72.68 37.13L72.64 37.10Q75.56 30.49 75.21 23.03L75.17 22.99L75.30 23.12Q74.87 15.69 71.33 9.18L71.38 9.23L71.94 9.52L72.43 9.89L72.35 9.77L72.28 9.71Q73.07 10.15 75.27 10.84ZM75.47 10.46L75.64 10.63L75.58 10.57Q73.22 9.93 70.60 8.40L70.61 8.41L70.56 8.37Q74.96 15.77 74.96 24.72L75.01 24.77L74.99 24.75Q74.94 31.71 71.97 37.76L72.07 37.86L74.09 36.99L74.01 36.91Q73.67 37.97 72.98 39.27L72.99 39.27L72.86 39.15Q75.20 38.43 77.14 38.02L77.21 38.09L77.20 37.85L77.29 37.94Q77.37 37.72 77.94 37.56L78.00 37.62L77.97 37.59Q79.75 31.80 79.87 27.00L79.88 27.02L79.82 26.95Q81.79 29.34 83.62 31.21L83.70 31.29L83.73 31.32Q84.82 32.34 87.83 35.31L87.96 35.44L88.03 35.51L87.87 35.34Q88.85 36.14 90.72 37.74L90.75 37.77L90.82 37.84Q94.65 38.51 98.11 40.22L98.20 40.31L98.15 40.26Q88.83 31.66 82.59 24.24L82.64 24.30L82.52 24.17Q86.95 19.92 95.70 11.32L95.83 11.45L95.87 11.48Q93.33 12.63 91.31 13.01L91.23 12.93L91.14 12.85Q92.48 11.97 94.80 9.96L94.73 9.89L94.69 9.85Q90.64 11.32 87.29 11.51L87.39 11.60L87.31 11.53Q84.33 13.69 79.46 18.37L79.52 18.43L79.59 18.50Q79.17 15.87 78.60 13.32L78.60 13.32L78.45 13.18Q77.34 13.09 76.35 12.75L76.32 12.72L76.28 12.68Q76.12 11.98 75.55 10.54Z"/><path fill="#111" d="M60.38 23.79L60.21 23.62L54.46 23.84L54.34 23.73Q51.53 23.88 48.60 23.81L48.50 23.71L48.62 23.83Q48.71 30.51 46.66 36.03L46.48 35.85L46.66 36.03Q44.77 36.46 43.02 37.15L42.99 37.12L43.08 37.21Q45.79 31.43 45.79 24.77L45.72 24.70L45.73 24.71Q45.87 16.36 41.76 9.32L41.70 9.26L41.73 9.29Q43.22 10.06 45.70 10.86L45.70 10.87L45.74 10.90Q47.75 15.84 48.28 20.71L48.38 20.81L48.33 20.77Q51.55 21.21 54.41 21.17L54.33 21.09L54.40 21.16Q56.99 21.08 60.30 20.82L60.46 20.97L60.36 20.87Q60.85 16.49 62.60 11.39L62.53 11.32L62.56 11.35Q64.60 11.03 66.84 10.19L66.70 10.05L66.69 10.03Q63.10 16.80 63.10 24.76L63.22 24.88L63.09 24.75Q63.05 30.91 65.41 36.24L65.54 36.38L65.52 36.35Q63.80 35.63 61.75 35.32L61.78 35.36L61.81 35.38Q60.09 30.32 60.21 23.62ZM61.55 35.73L61.54 35.73L61.66 35.84Q62.62 35.93 63.73 36.20L63.79 36.26L63.67 36.14Q64.00 36.85 64.64 38.33L64.64 38.33L64.71 38.40Q68.08 39.37 69.87 40.28L69.92 40.34L69.84 40.25Q65.47 34.17 65.16 25.91L64.98 25.73L65.01 25.75Q64.80 17.82 68.46 11.01L68.39 10.93L67.32 11.39L67.46 11.53Q66.84 11.63 66.23 11.78L66.16 11.72L66.29 11.85Q66.65 10.98 67.48 9.42L67.43 9.36L67.42 9.36Q64.91 10.54 62.29 11.04L62.17 10.92L62.13 10.88Q60.56 15.83 60.11 20.51L60.06 20.46L60.01 20.42Q57.53 20.63 55.09 20.63L55.16 20.70L55.19 20.73Q52.84 20.78 50.33 20.63L50.24 20.54L50.29 20.59Q50.14 17.39 49.03 13.32L48.93 13.21L49.03 13.32Q48.34 13.19 46.89 12.81L46.85 12.77L46.80 12.72Q46.33 11.41 45.87 10.39L45.94 10.46L46.06 10.58Q43.19 9.68 40.91 8.43L40.97 8.50L41.02 8.54Q45.44 15.81 45.44 24.61L45.55 24.72L45.48 24.65Q45.46 31.60 42.34 37.73L42.49 37.88L42.41 37.80Q43.20 37.60 44.53 37.03L44.43 36.92L44.40 36.90Q44.05 37.72 43.25 39.25L43.25 39.24L43.28 39.28Q46.04 38.23 48.29 37.81L48.43 37.96L48.41 37.94Q50.19 32.29 50.38 26.12L50.50 26.24L50.36 26.11Q52.12 26.19 55.32 26.15L55.21 26.04L55.23 26.06Q58.15 26.09 60.06 26.17L60.07 26.19L59.94 26.05Q60.32 31.92 61.65 35.84Z"/></svg>