<svg xmlns="http://www.w3.org/2000/svg" width="200" height="40" viewBox="0,0,200,40"><path fill="#111" d="M27.55 15.07L27.60 15.13L27.64 15.17Q23.28 15.11 19.59 14.12L19.66 14.19L19.62 14.15Q21.02 18.59 21.21 23.43L21.21 23.43L21.29 23.51Q21.42 28.25 20.20 32.85L20.31 32.97L20.16 32.81Q23.12 32.35 26.63 32.20L26.67 32.24L26.65 32.22Q30.54 32.00 32.33 29.56L32.28 29.52L32.27 29.50Q33.79 27.45 33.98 23.34L34.06 23.41L33.92 23.27Q34.00 21.52 33.54 19.81L33.57 19.84L33.58 19.85Q32.42 15.22 27.70 15.22ZM15.69 37.14L15.64 37.09L15.65 37.10Q18.53 31.41 18.53 24.71L18.53 24.71L18.67 24.85Q18.52 16.17 14.22 9.17L14.37 9.32L14.35 9.30Q19.61 11.97 27.87 12.16L27.77 12.06L27.82 12.11Q36.58 12.19 36.92 19.35L37.04 19.46L36.97 19.40Q37.06 22.08 37.02 23.52L37.17 23.66L37.14 23.64Q36.91 28.16 36.07 30.33L36.26 30.53L36.09 30.36Q35.70 31.48 34.94 32.32L34.94 32.33L35.04 32.43Q33.55 33.83 30.93 34.33L30.94 34.34L31.02 34.42Q29.42 34.68 26.41 34.91L26.32 34.82L26.36 34.86Q20.38 35.47 15.77 37.22ZM33.57 36.98L33.59 36.99L33.53 36.93Q36.27 36.58 37.90 35.10L37.97 35.17L38.07 35.27Q39.07 33.30 39.04 30.56L39.20 30.72L39.14 30.67Q39.12 29.27 38.97 25.77L39.05 25.85L38.67 21.29L38.63 21.25Q38.55 19.07 37.60 16.98L37.42 16.80L37.41 16.79Q36.99 15.95 36.31 15.31L36.40 15.40L36.20 15.05L36.29 15.13Q34.68 12.27 30.26 11.89L30.14 11.77L30.11 11.74Q27.43 11.61 20.43 10.89L20.55 11.01L20.54 11.00Q17.14 10.42 13.45 8.40L13.49 8.44L13.58 8.53Q18.27 15.77 18.27 24.52L18.35 24.60L18.40 24.66Q18.39 31.65 15.04 37.82L14.97 37.75L15.05 37.83Q15.72 37.55 17.06 37.06L16.98 36.98L16.97 36.97Q16.59 37.77 15.71 39.25L15.81 39.35L15.79 39.34Q18.92 38.35 22.27 37.85L22.10 37.68L22.15 37.74Q24.34 37.52 27.99 37.41L28.00 37.41L27.97 37.39Q31.82 37.24 33.65 37.05ZM33.74 23.48L33.62 23.35L33.59 23.32Q33.33 31.44 26.63 31.82L26.54 31.73L26.53 31.72Q24.66 31.91 22.60 32.17L22.52 32.09L22.65 32.22Q23.25 28.25 23.25 24.59L23.29 24.64L23.27 24.62Q23.23 20.88 22.50 17.03L22.63 17.17L22.50 17.03Q24.82 17.45 29.51 17.45L29.51 17.46L29.58 17.52Q30.86 17.28 32.49 18.23L32.60 18.34L32.45 18.19Q33.76 20.48 33.60 23.34Z"/><path fill="#333" d="M163.42 35.25L163.45 35.28L163.47 35.30Q162.17 35.49 160.61 35.07L160.58 35.04L160.47 34.93Q159.41 34.17 159.25 32.53L159.19 32.47L159.21 32.49Q159.09 32.22 159.28 29.59L159.27 29.58L159.24 29.55Q160.33 29.43 162.35 29.05L162.29 28.98L162.11 29.75L162.08 29.73Q161.95 31.61 163.36 32.18L163.27 32.09L163.37 32.20Q164.19 32.56 166.28 32.56L166.26 32.53L166.19 32.46Q167.77 32.29 167.96 32.22L167.95 32.21L167.97 32.22Q168.82 32.02 169.55 31.52L169.54 31.52L169.58 31.55Q170.96 30.57 170.77 28.48L170.91 28.62L170.88 28.59Q170.61 26.07 168.87 24.51L168.86 24.49L168.89 24.53Q167.15 22.96 164.68 22.96L164.79 23.07L164.67 22.73L164.64 22.69Q165.02 22.66 165.90 22.58L166.01 22.69L165.94 22.62Q167.87 22.54 169.24 21.30L169.35 21.40L169.30 21.35Q170.62 20.06 170.77 18.20L170.81 18.24L170.82 18.25Q170.83 17.85 170.83 17.50L170.84 17.51L170.89 17.56Q170.92 16.06 169.54 15.15L169.54 15.14L169.55 15.16Q168.31 14.34 166.72 14.45L166.71 14.45L166.58 14.31Q165.40 14.27 164.18 14.69L164.14 14.66L164.23 14.75Q162.62 15.12 162.32 16.26L162.40 16.34L162.32 16.26Q162.20 17.09 162.27 17.85L162.36 17.94L162.31 17.89Q161.31 17.69 159.25 16.96L159.27 16.98L159.27 16.98Q158.89 15.15 158.93 14.31L159.06 14.45L158.99 14.38Q159.14 12.89 160.20 12.20L160.14 12.14L160.10 12.10Q161.53 11.51 163.13 11.51L163.16 11.54L163.29 11.67Q166.44 11.63 169.60 11.89L169.47 11.76L169.58 11.87Q174.67 12.32 174.37 16.09L174.29 16.01L174.28 16.00Q174.25 17.54 173.76 19.10L173.65 18.99L173.65 18.98Q172.88 22.22 170.52 23.13L170.50 23.11L170.38 22.98Q173.15 23.66 173.76 27.01L173.64 26.90L173.63 26.89Q173.85 28.01 173.92 30.03L174.01 30.12L173.90 30.01Q174.03 34.44 169.43 34.90L169.47 34.95L169.50 34.97Q168.85 35.12 163.56 35.39ZM168.72 37.59L168.80 37.66L168.81 37.67Q169.36 37.65 172.22 37.73L172.24 37.75L172.26 37.77Q174.02 37.86 175.66 37.21L175.54 37.09L175.62 37.17Q176.85 36.28 176.66 34.53L176.63 34.49L176.53 34.39Q176.51 33.16 176.21 31.40L176.08 31.28L176.11 31.31Q175.37 26.80 173.43 25.16L173.52 25.26L173.32 24.86L173.35 24.85L173.21 24.71Q175.01 23.32 175.77 18.94L175.74 18.91L175.85 19.01Q175.71 18.39 175.83 17.44L175.82 17.43L175.83 17.43Q175.97 16.74 175.90 16.06L175.83 15.99L175.91 16.07Q175.72 14.36 174.43 13.67L174.49 13.74L174.30 13.62L174.39 13.71Q174.02 12.65 172.88 12.12L172.86 12.10L172.86 12.11Q171.39 11.47 166.25 11.17L166.30 11.22L166.27 11.18Q164.64 11.15 163.04 11.15L163.10 11.22L162.92 11.04Q161.50 11.21 159.97 11.86L159.91 11.80L159.89 11.78Q158.76 12.62 158.76 14.38L158.68 14.30L158.58 14.20Q158.67 13.87 158.94 17.22L158.91 17.19L158.95 17.23Q159.22 17.27 160.86 17.88L160.89 17.92L160.80 17.82Q160.81 18.37 160.78 18.87L160.84 18.93L160.83 18.92Q160.81 19.39 160.85 19.92L160.89 19.97L160.93 20.01Q162.76 20.43 164.77 20.54L164.60 20.37L164.66 20.43Q164.67 18.50 165.77 17.66L165.78 17.67L165.78 17.67Q166.64 17.04 168.66 16.81L168.56 16.72L168.58 16.74Q169.73 16.74 170.30 16.94L170.20 16.83L170.34 16.97Q170.23 16.94 170.27 17.06L170.42 17.21L170.27 17.25L170.38 17.81L170.46 17.89Q170.50 18.12 170.46 18.28L170.52 18.34L170.44 18.25Q170.28 19.88 168.75 21.06L168.84 21.14L168.88 21.19Q167.95 22.08 165.93 22.27L165.84 22.18L165.88 22.22Q165.24 22.45 164.36 22.45L164.40 22.49L164.26 22.35Q164.36 22.75 164.51 23.43L164.45 23.38L164.58 23.51Q166.31 23.49 167.76 24.21L167.71 24.17L167.59 24.15L166.10 24.41L166.11 24.43Q166.11 24.73 166.23 25.34L166.26 25.38L166.18 25.30Q168.34 25.25 170.06 26.59L170.02 26.55L170.11 26.64Q170.31 26.99 170.62 28.63L170.52 28.54L170.50 28.51Q170.67 31.42 167.74 31.84L167.91 32.02L167.83 31.93Q165.68 32.14 165.11 32.10L165.06 32.05L165.13 32.13Q164.61 31.95 164.08 31.88L164.16 31.96L164.23 31.57L164.29 31.06L164.37 30.72L164.25 30.26L164.36 30.37Q163.34 30.37 162.54 30.56L162.52 30.55L162.63 30.65Q162.63 30.47 162.63 30.28L162.48 30.13L162.46 30.11Q162.51 29.93 162.51 29.70L162.68 29.87L162.56 29.75Q162.54 29.28 162.70 28.55L162.76 28.61L162.84 28.69Q160.88 28.83 159.01 29.17L159.10 29.26L159.13 29.29Q159.10 29.75 158.98 30.87L158.96 30.85L158.94 30.83Q158.88 32.01 158.88 32.62L158.81 32.54L158.73 32.47Q158.93 34.65 160.30 35.41L160.32 35.42L160.37 35.47Q161.68 37.59 166.40 37.40L166.58 37.57L166.44 37.44Q167.27 37.50 168.79 37.65Z"/><path d="M14 27 C79 16,119 25,183 15" stroke="#888" fill="none"/><path fill="#111" d="M82.02 14.65L81.93 14.56L80.40 14.70L80.47 14.78Q78.15 14.81 77.92 16.83L77.87 16.78L78.04 16.96Q77.86 17.57 77.89 18.56L77.94 18.60L78.01 18.67Q77.89 20.46 79.15 21.79L79.28 21.92L79.16 21.81Q80.49 23.21 82.40 23.06L82.46 23.12L82.34 23.01Q84.45 22.91 85.21 21.99L85.11 21.89L85.25 22.03Q86.21 21.01 86.47 18.76L86.61 18.90L86.54 18.83Q86.78 16.56 85.53 15.72L85.64 15.83L85.62 15.82Q84.62 14.89 81.95 14.58ZM87.99 23.81L87.98 23.81L86.71 26.12L86.81 26.21Q84.02 30.93 80.25 35.00L80.23 34.98L80.23 34.98Q78.66 35.20 75.96 36.00L76.00 36.04L75.86 35.90Q81.23 29.66 84.39 24.86L84.53 25.01L84.45 24.92Q83.34 25.49 81.71 25.57L81.74 25.60L81.86 25.72Q78.80 25.82 77.28 23.84L77.26 23.83L77.32 23.89Q76.06 22.24 74.96 17.68L74.86 17.58L75.01 17.72Q74.86 17.12 74.71 16.19L74.68 16.16L74.73 16.21Q74.58 15.28 74.58 14.82L74.59 14.83L74.58 14.82Q74.58 13.04 75.65 12.43L75.73 12.51L75.71 12.49Q76.91 11.71 78.78 11.71L78.77 11.71L78.78 11.71Q82.04 11.77 82.04 11.77L81.98 11.71L82.04 11.78Q84.19 11.80 85.45 11.99L85.43 11.96L85.35 11.89Q87.57 12.24 88.48 12.73L88.49 12.75L88.42 12.68Q89.86 13.51 90.05 15.26L90.08 15.29L90.09 15.29Q89.95 15.38 89.76 18.05L89.89 18.18L89.84 18.13Q89.52 20.32 89.29 21.16L89.11 20.98L89.24 21.11Q88.80 22.46 88.04 23.87ZM89.95 26.27L89.95 26.28L90.01 26.33Q90.86 23.99 91.39 19.69L91.39 19.68L91.54 19.83Q91.76 17.58 91.72 16.70L91.66 16.64L91.79 16.77Q91.59 14.75 90.41 13.83L90.57 13.98L90.15 13.76L90.27 13.88Q89.89 13.00 88.97 12.35L88.95 12.33L89.03 12.41Q86.71 11.39 81.92 11.23L81.94 11.26L82.00 11.32Q80.88 11.15 78.45 11.15L78.51 11.22L78.60 11.31Q76.88 11.34 75.39 12.02L75.29 11.92L75.23 11.85Q74.17 12.74 74.25 14.57L74.28 14.60L74.17 14.49Q74.41 15.46 74.61 17.48L74.60 17.47L74.53 17.40Q75.29 20.17 75.55 21.01L75.42 20.88L75.43 20.89Q76.03 22.78 76.98 24.08L77.09 24.18L76.96 24.06Q77.33 24.50 77.71 24.88L77.70 24.88L77.75 24.92Q77.88 25.24 78.53 26.16L78.48 26.11L78.56 26.19Q80.01 27.52 81.95 27.71L81.93 27.70L81.93 27.69Q80.01 30.35 78.45 32.25L78.53 32.33L74.90 36.69L74.97 36.77Q77.11 35.90 78.75 35.56L78.82 35.63L78.86 35.67Q78.05 36.49 76.49 38.21L76.43 38.14L76.41 38.12Q79.49 37.21 82.61 37.17L82.71 37.26L82.78 37.34Q84.92 34.57 89.26 27.34L89.43 27.50L89.41 27.56L89.28 27.43Q89.68 26.84 90.03 26.35ZM84.01 17.10L84.01 17.09L84.00 17.09Q84.55 16.91 85.00 17.03L85.02 17.04L84.93 16.95Q85.58 17.07 85.96 17.18L86.00 17.23L86.04 17.26Q86.08 17.57 86.15 17.98L86.23 18.06L86.22 18.05Q86.32 18.50 86.21 18.88L86.23 18.90L86.10 18.77Q86.07 20.49 84.89 21.59L85.07 21.77L84.97 21.67Q84.02 22.71 82.39 22.67L82.36 22.64L82.47 22.75Q81.91 22.61 80.39 22.31L80.37 22.29L80.38 22.30Q80.24 21.51 80.24 20.79L80.28 20.83L80.25 20.80Q80.15 20.51 80.15 20.28L80.22 20.35L80.23 20.36Q80.13 18.05 82.41 17.25L82.44 17.28L82.34 17.18Q83.04 16.97 83.88 16.97Z"/><path d="M9 16 C119 21,95 27,192 13" stroke="#222" fill="none"/><path fill="#111" d="M147.41 18.31L147.45 18.35L147.29 18.19Q145.68 14.22 139.47 14.41L139.41 14.34L139.46 14.40Q134.98 14.44 133.00 15.89L133.14 16.03L133.13 16.03Q130.74 17.78 130.74 21.89L130.74 21.89L130.58 23.60L130.67 23.69Q130.67 32.53 139.70 32.53L139.78 32.61L139.66 32.49Q141.81 32.59 143.30 31.79L143.23 31.72L143.32 31.81Q145.10 30.73 144.94 28.86L144.96 28.88L144.86 28.78Q144.76 26.78 141.07 25.86L140.94 25.73L139.06 25.80L139.06 25.79Q138.19 25.88 137.24 25.92L137.28 25.96L137.17 25.85Q137.17 24.90 137.13 23.00L137.22 23.09L137.21 23.07Q144.70 22.91 148.89 22.56L149.01 22.69L149.07 22.75Q149.04 23.59 149.04 24.39L148.90 24.25L149.04 24.40Q148.85 25.00 148.89 25.80L149.07 25.98L148.91 25.82Q147.86 25.88 147.86 25.88L147.81 25.82L147.97 25.99Q146.52 25.91 146.90 25.91L146.86 25.87L146.84 25.85Q147.93 27.47 148.31 29.45L148.27 29.41L148.27 29.42Q148.46 30.21 148.46 30.67L148.44 30.64L148.46 30.66Q148.46 35.31 139.67 35.31L139.68 35.32L139.65 35.29Q132.59 35.35 130.00 33.26L130.01 33.26L130.01 33.27Q127.99 30.87 127.99 25.80L128.05 25.87L127.91 25.73Q127.88 24.63 127.73 21.93L127.75 21.95L127.74 21.94Q127.69 19.68 127.73 18.31L127.76 18.34L127.79 18.37Q127.74 15.36 129.11 13.76L129.24 13.89L129.25 13.89Q131.71 11.75 136.59 11.56L136.52 11.49L139.33 11.56L139.32 11.56Q142.32 11.35 145.74 11.77L145.80 11.83L145.80 11.83Q149.46 12.21 150.41 15.45L150.45 15.48L150.50 15.54Q149.57 16.55 147.48 18.38ZM148.79 20.49L148.84 20.42L148.95 20.54Q150.18 19.48 152.04 17.50L151.86 17.31L152.01 17.47Q151.71 16.52 150.72 14.81L150.56 14.65L150.72 14.81Q149.48 12.08 145.67 11.43L145.73 11.49L145.77 11.53Q143.55 11.33 139.25 11.03L139.31 11.08L136.60 11.19L136.50 11.10Q131.44 11.40 128.85 13.38L128.72 13.25L128.87 13.40Q127.36 14.90 127.25 17.98L127.40 18.14L127.34 18.07Q127.36 17.63 127.59 23.12L127.66 23.19L127.56 23.09Q127.66 24.52 127.74 27.26L127.65 27.17L127.64 27.17Q127.89 31.68 129.64 33.62L129.63 33.61L129.68 33.66Q129.92 34.36 130.80 35.24L130.77 35.20L130.86 35.30Q133.72 37.13 139.24 37.47L139.21 37.45L142.17 37.70L142.17 37.70Q143.79 37.84 145.81 37.72L145.71 37.63L145.86 37.78Q147.20 37.59 149.29 37.06L149.33 37.10L149.31 37.08Q151.33 36.66 151.29 34.33L151.22 34.27L151.17 34.22Q151.27 33.06 150.20 30.28L150.07 30.15L150.18 30.25Q149.88 29.34 149.34 28.54L149.26 28.46L149.36 28.56Q149.85 28.48 151.03 28.67L151.03 28.67L151.19 28.83Q150.84 25.17 150.88 24.48L150.94 24.54L150.76 24.37Q150.50 24.48 150.08 24.44L150.10 24.46L149.97 24.34Q149.67 24.38 149.29 24.46L149.37 24.54L149.24 24.41Q149.28 23.34 149.36 22.28L149.42 22.34L149.28 22.20Q143.09 22.79 136.81 22.67L136.73 22.59L136.74 22.60Q136.79 23.53 136.79 24.44L136.87 24.52L136.74 26.15L136.84 26.25Q137.25 26.27 137.67 26.23L137.61 26.18L137.74 26.30Q138.10 26.25 138.56 26.25L138.59 26.27L138.56 26.25Q138.61 26.75 138.65 27.25L138.59 27.19L138.51 27.11Q138.60 27.66 138.56 28.15L138.47 28.06L138.56 28.15Q139.55 28.07 140.57 28.03L140.60 28.06L140.65 28.11Q141.63 28.07 142.66 28.10L142.76 28.21L142.63 28.07Q143.61 28.25 144.49 28.64L144.50 28.65L144.61 28.80L144.64 28.83Q144.79 30.35 143.12 31.26L143.10 31.24L143.00 31.15Q141.36 32.09 139.65 32.09L139.60 32.05L139.65 32.10Q135.86 32.16 133.43 30.41L133.43 30.41L133.47 30.45Q132.40 28.32 132.56 25.77L132.68 25.89L132.56 25.77Q133.01 21.12 134.86 19.12L134.84 19.10L134.85 19.11Q136.58 17.00 141.26 16.69L141.30 16.73L141.23 16.67Q144.95 16.50 146.89 18.29L146.86 18.26L146.95 18.35Q146.88 18.31 146.99 18.50L147.03 18.54L147.20 18.60L147.24 18.64Q147.83 19.34 148.40 20.45L148.50 20.55L148.80 20.50Z"/><path fill="#111" d="M106.95 35.35L106.97 35.37L107.02 35.42Q105.52 35.41 103.96 34.99L103.91 34.94L104.00 35.03Q102.76 34.10 102.61 32.46L102.63 32.48L102.55 32.40Q102.50 32.19 102.69 29.57L102.84 29.73L102.68 29.56Q103.81 29.47 105.83 29.09L105.84 29.10L105.51 29.73L105.59 29.80Q105.38 31.62 106.79 32.19L106.71 32.10L106.66 32.06Q107.62 32.56 109.72 32.56L109.59 32.44L109.60 32.44Q111.17 32.26 111.36 32.19L111.40 32.23L111.42 32.25Q112.38 32.14 113.10 31.65L113.03 31.57L113.16 31.71Q114.41 30.59 114.22 28.50L114.27 28.55L114.20 28.48Q114.08 26.12 112.35 24.56L112.43 24.64L112.33 24.53Q110.65 23.02 108.17 23.02L108.20 23.05L108.23 22.85L108.19 22.82Q108.46 22.67 109.34 22.59L109.40 22.65L109.50 22.75Q111.29 22.53 112.66 21.29L112.64 21.27L112.73 21.35Q114.14 20.16 114.30 18.30L114.19 18.19L114.24 18.24Q114.35 17.93 114.35 17.59L114.37 17.61L114.31 17.55Q114.25 15.96 112.88 15.05L112.93 15.11L112.99 15.17Q111.67 14.26 110.07 14.37L110.06 14.37L110.15 14.46Q108.84 14.29 107.62 14.70L107.59 14.68L107.54 14.62Q106.12 15.19 105.82 16.33L105.85 16.37L105.78 16.30Q105.67 17.13 105.74 17.89L105.63 17.78L105.65 17.80Q104.66 17.61 102.61 16.89L102.70 16.98L102.59 16.87Q102.33 15.17 102.37 14.33L102.41 14.36L102.38 14.34Q102.52 12.84 103.58 12.15L103.56 12.13L103.53 12.10Q105.02 11.58 106.62 11.58L106.64 11.59L106.58 11.53Q109.88 11.63 113.04 11.90L112.98 11.85L112.86 11.73Q118.10 12.32 117.80 16.09L117.64 15.94L117.73 16.03Q117.63 17.48 117.13 19.04L117.11 19.02L117.05 18.96Q116.17 22.08 113.81 22.99L113.79 22.97L113.81 22.99Q116.42 23.50 117.02 26.85L117.09 26.91L117.02 26.85Q117.33 28.07 117.40 30.08L117.34 30.02L117.41 30.09Q117.62 34.60 113.01 35.06L112.92 34.97L112.86 34.91Q112.28 35.13 106.99 35.39ZM112.14 37.58L112.12 37.55L112.13 37.56Q112.75 37.61 115.61 37.69L115.63 37.71L115.54 37.63Q117.32 37.73 118.96 37.08L119.10 37.22L119.02 37.14Q120.13 36.12 119.94 34.37L120.00 34.43L120.08 34.51Q119.93 33.14 119.62 31.39L119.50 31.27L119.57 31.34Q118.81 26.81 116.87 25.17L116.85 25.16L116.76 24.88L116.69 24.76L116.62 24.70Q118.48 23.35 119.24 18.98L119.20 18.94L119.10 18.84Q119.18 18.42 119.29 17.47L119.28 17.46L119.42 17.60Q119.50 16.84 119.42 16.16L119.36 16.09L119.30 16.03Q119.22 14.43 117.93 13.74L117.95 13.77L117.84 13.73L117.76 13.65Q117.59 12.80 116.45 12.27L116.40 12.22L116.47 12.29Q114.81 11.47 109.67 11.16L109.78 11.27L109.80 11.29Q107.97 11.06 106.37 11.06L106.42 11.11L106.53 11.22Q104.91 11.20 103.39 11.85L103.40 11.86L103.36 11.82Q102.12 12.56 102.12 14.31L102.09 14.28L102.15 14.34Q102.18 13.94 102.44 17.29L102.34 17.19L102.34 17.19Q102.59 17.21 104.23 17.82L104.36 17.96L104.38 17.97Q104.31 18.44 104.27 18.93L104.29 18.95L104.26 18.92Q104.23 19.39 104.27 19.92L104.28 19.93L104.28 19.93Q106.07 20.32 108.09 20.43L108.19 20.53L108.06 20.40Q108.06 18.46 109.16 17.62L109.09 17.55L109.18 17.63Q109.97 16.94 111.99 16.71L112.08 16.80L112.07 16.79Q113.23 16.81 113.80 17.00L113.78 16.98L113.73 16.93Q113.84 17.11 113.87 17.23L113.80 17.15L113.88 17.42L113.83 17.83L113.87 17.87Q113.81 18.00 113.77 18.15L113.77 18.16L113.93 18.32Q113.84 20.01 112.32 21.19L112.21 21.09L112.22 21.09Q111.37 22.07 109.35 22.26L109.33 22.24L109.43 22.34Q108.54 22.33 107.66 22.33L107.78 22.44L107.64 22.30Q107.77 22.74 107.93 23.42L107.84 23.34L107.87 23.37Q109.73 23.48 111.18 24.20L111.12 24.15L111.08 24.22L109.52 24.41L109.39 24.28Q109.44 24.63 109.55 25.24L109.70 25.39L109.67 25.36Q111.78 25.26 113.50 26.60L113.35 26.45L113.53 26.63Q113.60 26.85 113.90 28.49L113.92 28.50L113.94 28.53Q114.09 31.42 111.16 31.84L111.24 31.91L111.23 31.91Q109.07 32.11 108.50 32.07L108.60 32.17L108.48 32.05Q108.17 32.08 107.63 32.00L107.65 32.02L107.51 31.42L107.78 31.12L107.69 30.61L107.69 30.27L107.76 30.34Q106.91 30.52 106.11 30.71L106.06 30.66L105.95 30.55Q105.92 30.33 105.92 30.14L105.95 30.17L105.96 30.18Q105.97 29.96 105.97 29.73L106.05 29.81L105.98 29.74Q106.04 29.35 106.20 28.62L106.19 28.62L106.12 28.55Q104.41 28.93 102.54 29.27L102.53 29.26L102.58 29.31Q102.43 29.65 102.31 30.77L102.43 30.89L102.31 30.77Q102.25 31.95 102.25 32.56L102.20 32.51L102.22 32.53Q102.40 34.69 103.77 35.45L103.62 35.30L103.79 35.47Q105.10 37.58 109.82 37.39L109.97 37.54L109.86 37.43Q110.57 37.38 112.10 37.53Z"/><path fill="#333" d="M48.80 14.08L48.99 14.27L48.86 14.14Q50.13 18.75 50.28 21.95L50.19 21.86L50.26 21.93Q50.63 21.84 55.00 21.95L55.09 22.04L54.98 21.93Q57.60 22.04 57.98 18.58L58.08 18.67L58.09 18.68Q58.28 16.93 57.37 16.02L57.37 16.02L57.36 16.01Q55.94 14.97 53.96 14.82L54.02 14.88L54.09 14.95Q50.79 14.66 48.93 14.20ZM50.37 23.87L50.30 23.80L50.40 23.89Q50.50 29.82 48.71 35.76L48.79 35.84L48.68 35.73Q47.53 36.15 44.95 37.17L44.77 37.00L44.87 37.09Q47.68 30.58 47.34 23.12L47.34 23.13L47.38 23.16Q47.09 15.83 43.78 9.32L43.81 9.35L43.72 9.26Q48.68 12.17 55.65 12.17L55.50 12.02L55.57 12.09Q61.12 12.00 61.38 15.54L61.55 15.71L61.41 15.57Q61.51 16.20 61.43 16.81L61.43 16.80L61.44 18.03L61.38 17.98Q60.59 21.95 58.46 23.66L58.37 23.56L58.39 23.59Q57.66 24.34 56.63 24.34L56.63 24.34L54.01 24.31L53.92 24.22Q59.62 31.56 64.15 36.13L64.08 36.05L64.04 36.02Q61.85 35.27 58.91 34.92L59.06 35.07L59.04 35.05Q55.13 30.95 50.21 23.71ZM58.80 35.31L58.91 35.42L59.19 35.39L60.51 36.72L60.46 36.66Q60.99 37.16 61.64 37.76L61.59 37.72L61.64 37.77Q65.19 38.38 68.77 40.25L68.68 40.16L68.71 40.19Q61.77 33.44 56.36 26.51L56.36 26.51L58.14 26.54L58.14 26.54Q61.27 26.59 62.61 22.06L62.66 22.11L62.68 22.13Q63.36 19.91 63.36 17.21L63.23 17.08L63.29 17.15Q63.30 14.87 61.59 14.23L61.52 14.15L61.50 14.13Q61.48 13.85 60.91 13.16L60.93 13.18L60.94 13.19Q59.28 11.76 55.62 11.69L55.60 11.66L55.61 11.67Q47.61 11.40 42.93 8.40L42.98 8.44L42.95 8.42Q46.65 15.20 46.99 22.89L47.06 22.96L47.00 22.89Q47.43 30.94 44.31 37.79L44.36 37.84L44.28 37.77Q45.48 37.14 46.28 36.83L46.38 36.94L45.34 39.16L45.34 39.17Q48.05 38.11 50.71 37.61L50.70 37.60L50.69 37.58Q52.10 32.61 52.30 27.39L52.17 27.27L52.28 27.37Q55.67 32.21 58.83 35.34ZM57.69 17.52L57.54 17.37L57.63 17.46Q57.76 17.81 57.76 18.16L57.68 18.08L57.66 18.64L57.60 18.58Q57.58 19.66 56.90 20.61L57.01 20.72L56.97 20.68Q56.38 21.47 55.47 21.66L55.38 21.56L55.48 21.67Q55.30 21.76 53.71 21.80L53.68 21.77L53.57 21.67Q52.99 21.69 52.15 21.58L52.19 21.62L52.16 21.59Q52.15 20.16 51.80 17.12L51.76 17.07L51.69 17.00Q53.20 17.30 53.89 17.30L53.80 17.21L53.92 17.33Q55.61 17.19 57.55 17.38Z"/></svg>