<svg xmlns="http://www.w3.org/2000/svg" width="200" height="40" viewBox="0,0,200,40"><path fill="#333" d="M53.86 35.26L53.69 35.09L51.43 28.38L51.34 28.29Q47.02 15.74 41.08 9.34L41.10 9.36L41.11 9.38Q43.09 10.40 45.68 11.01L45.77 11.10L45.73 11.06Q50.84 17.31 55.18 30.07L55.22 30.10L55.09 29.98Q58.28 22.01 58.97 20.41L58.89 20.34L58.87 20.31Q61.24 14.70 64.06 11.39L64.14 11.46L64.20 11.53Q66.26 11.15 68.88 10.27L68.80 10.19L68.77 10.16Q64.19 14.75 61.15 21.99L61.14 21.98L61.17 22.01Q59.84 25.74 56.15 35.26L56.11 35.23L56.10 35.21Q55.46 35.15 54.89 35.11L54.97 35.18L54.92 35.13Q54.41 35.20 53.84 35.23ZM58.75 37.56L58.75 37.56L58.87 37.68Q61.51 27.53 63.07 23.49L63.26 23.68L63.07 23.49Q66.07 15.80 70.49 10.92L70.55 10.99L70.57 11.01Q69.64 11.49 67.55 12.21L67.39 12.05L68.51 10.70L68.65 10.83Q69.08 10.01 69.69 9.36L69.86 9.53L69.79 9.46Q66.97 10.45 63.96 11.02L63.91 10.97L63.91 10.97Q59.61 16.37 55.72 27.83L55.75 27.86L55.70 27.81Q52.13 17.77 48.94 13.39L48.87 13.32L48.92 13.38Q48.45 13.21 47.57 13.05L47.51 12.99L47.57 13.05Q47.32 12.65 45.72 10.59L45.82 10.70L45.82 10.69Q42.76 9.88 40.06 8.47L40.18 8.60L40.17 8.58Q46.77 15.64 51.15 28.44L51.13 28.42L51.07 28.35Q52.40 32.13 53.59 35.71L53.52 35.64L53.47 35.59Q53.80 35.62 54.64 35.50L54.68 35.54L54.65 35.51Q55.11 36.31 55.79 37.64L55.83 37.69L55.81 37.67Q56.57 37.51 57.29 37.59L57.35 37.64L57.26 37.56Q58.13 37.70 58.89 37.70Z"/><path fill="#222" d="M27.54 15.07L27.62 15.15L27.58 15.11Q23.33 15.16 19.64 14.17L19.57 14.10L19.65 14.19Q21.06 18.63 21.25 23.47L21.32 23.54L21.31 23.53Q21.47 28.30 20.25 32.91L20.24 32.89L20.33 32.99Q22.97 32.20 26.48 32.05L26.60 32.17L26.64 32.21Q30.53 31.99 32.32 29.55L32.19 29.43L32.26 29.49Q33.85 27.51 34.04 23.40L34.05 23.40L34.03 23.38Q34.02 21.55 33.56 19.84L33.54 19.81L33.66 19.93Q32.27 15.08 27.55 15.08ZM15.76 37.20L15.72 37.17L15.68 37.13Q18.55 31.43 18.55 24.73L18.66 24.84L18.62 24.80Q18.65 16.30 14.35 9.30L14.32 9.27L14.34 9.29Q19.55 11.91 27.81 12.10L27.89 12.18L27.71 12.00Q36.74 12.35 37.09 19.51L37.03 19.45L36.93 19.36Q37.21 22.22 37.17 23.67L37.18 23.68L37.08 23.58Q37.03 28.29 36.19 30.46L36.16 30.43L36.24 30.50Q35.68 31.46 34.92 32.30L35.03 32.42L34.91 32.29Q33.52 33.80 30.89 34.29L31.07 34.47L31.00 34.40Q29.35 34.61 26.34 34.84L26.38 34.88L26.43 34.94Q20.22 35.31 15.62 37.06ZM33.71 37.11L33.71 37.11L33.64 37.04Q36.37 36.69 38.01 35.20L38.01 35.21L37.94 35.13Q39.23 33.45 39.19 30.71L39.20 30.73L39.20 30.73Q39.18 29.34 39.03 25.83L38.94 25.74L38.65 21.26L38.70 21.32Q38.52 19.04 37.57 16.95L37.41 16.79L37.42 16.80Q36.91 15.87 36.22 15.22L36.38 15.38L36.33 15.17L36.19 15.03Q34.58 12.17 30.17 11.79L30.14 11.76L30.23 11.86Q27.56 11.74 20.55 11.01L20.47 10.93L20.42 10.88Q17.30 10.57 13.61 8.56L13.61 8.56L13.60 8.55Q18.44 15.94 18.44 24.69L18.41 24.67L18.37 24.62Q18.27 31.53 14.92 37.70L14.92 37.70L14.99 37.77Q15.77 37.59 17.10 37.10L17.07 37.07L17.00 37.00Q16.59 37.77 15.71 39.26L15.82 39.36L15.75 39.29Q18.82 38.25 22.17 37.75L22.18 37.77L22.28 37.86Q24.16 37.35 27.82 37.24L27.91 37.33L27.83 37.25Q31.85 37.27 33.68 37.08ZM33.75 23.48L33.61 23.34L33.69 23.43Q33.23 31.34 26.53 31.72L26.58 31.77L26.52 31.71Q24.57 31.81 22.51 32.08L22.52 32.09L22.58 32.15Q23.22 28.22 23.22 24.57L23.33 24.68L23.29 24.63Q23.20 20.85 22.48 17.01L22.64 17.17L22.45 16.99Q24.92 17.54 29.60 17.54L29.48 17.42L29.44 17.39Q30.86 17.28 32.50 18.23L32.42 18.16L32.43 18.16Q33.75 20.47 33.59 23.33Z"/><path fill="#333" d="M81.83 24.08L81.79 24.03L81.86 24.10Q79.94 23.90 78.70 25.33L78.87 25.50L78.73 25.35Q77.66 26.95 77.47 28.85L77.47 28.85L77.32 28.70Q77.12 30.78 78.20 31.75L78.28 31.83L78.17 31.72Q79.32 32.75 81.41 32.64L81.39 32.61L81.46 32.68Q83.49 32.47 84.59 31.79L84.63 31.82L84.58 31.77Q85.69 30.64 85.69 29.08L85.72 29.10L85.77 29.15Q85.66 28.66 85.58 28.28L85.63 28.33L85.58 28.28Q85.70 26.65 84.59 25.29L84.63 25.33L84.57 25.27Q83.50 23.95 81.83 24.07ZM81.49 35.27L81.54 35.31L81.36 35.14Q77.10 35.26 75.69 34.49L75.67 34.47L75.73 34.54Q74.58 33.65 74.39 31.94L74.42 31.96L74.40 31.94Q74.45 31.35 74.48 30.62L74.36 30.49L74.54 30.67Q74.59 29.62 74.59 29.17L74.54 29.12L74.59 29.16Q75.03 26.30 75.19 25.61L75.25 25.68L75.12 25.54Q75.58 23.61 76.42 22.20L76.40 22.18L76.37 22.15Q79.19 17.93 85.12 11.57L84.99 11.43L85.05 11.49Q87.77 11.25 89.98 10.45L90.03 10.49L89.96 10.42Q83.16 17.94 79.96 22.16L79.93 22.14L79.85 22.05Q80.94 21.66 82.24 21.66L82.21 21.63L82.22 21.65Q85.46 21.57 86.98 23.52L86.99 23.52L87.09 23.62Q88.43 25.27 88.77 28.81L88.65 28.69L88.74 28.78Q88.84 29.52 88.84 30.13L88.74 30.03L88.78 30.07Q88.66 33.07 86.45 34.14L86.57 34.25L86.63 34.32Q85.32 34.83 81.43 35.21ZM83.78 37.67L83.66 37.55L83.74 37.63Q85.01 37.57 86.99 37.65L87.04 37.70L86.95 37.60Q88.71 37.81 90.27 37.08L90.15 36.96L90.25 37.06Q91.32 36.22 91.32 34.43L91.31 34.43L91.23 34.35Q91.37 33.99 91.20 33.00L91.05 32.85L91.11 32.91Q90.92 31.90 90.92 31.45L90.90 31.43L91.05 31.58Q90.17 26.85 88.57 24.95L88.52 24.90L88.53 24.91Q88.47 24.81 88.32 24.59L88.23 24.49L87.96 24.30L87.88 24.26L87.97 24.35Q87.58 23.81 86.97 22.85L86.91 22.79L87.03 22.92Q85.97 21.82 83.99 21.36L83.96 21.33L84.02 21.39Q85.33 19.89 88.30 16.19L88.30 16.19L92.55 10.92L92.43 10.80Q90.90 11.71 88.50 12.47L88.43 12.40L88.42 12.39Q89.34 11.41 91.13 9.43L91.23 9.53L91.11 9.40Q88.81 10.57 84.93 11.14L84.88 11.09L84.99 11.20Q79.14 16.96 76.17 21.91L76.22 21.97L76.17 21.92Q74.68 24.46 74.11 30.70L74.05 30.65L74.11 30.70Q73.98 31.23 74.06 32.18L74.12 32.24L74.07 32.19Q74.12 33.91 75.22 34.83L75.39 34.99L75.41 35.01Q75.65 35.03 75.62 35.07L75.68 35.13L75.58 35.03Q76.01 35.99 76.81 36.41L76.93 36.53L76.89 36.49Q78.27 37.11 80.21 37.30L80.31 37.40L80.30 37.39Q80.20 37.29 83.70 37.59ZM83.55 26.44L83.55 26.44L83.50 26.39Q84.00 26.20 84.95 26.70L84.95 26.70L85.11 26.86Q85.45 27.80 85.45 28.45L85.41 28.41L85.35 28.36Q85.54 30.22 84.59 31.21L84.60 31.22L84.66 31.28Q83.64 32.05 81.55 32.35L81.48 32.28L81.37 32.18Q80.00 32.26 79.47 31.99L79.48 32.00L79.50 32.02Q79.24 31.49 79.24 31.19L79.24 31.19L79.26 31.21Q79.10 28.00 82.03 26.71L81.94 26.62L81.91 26.59Q82.70 26.28 83.46 26.35Z"/><path d="M8 32 C82 23,108 39,196 28" stroke="#777" fill="none"/><path fill="#222" d="M135.75 14.34L135.68 14.27L135.73 14.32Q136.68 18.66 136.83 22.23L136.70 22.11L136.73 22.14Q137.88 22.26 138.94 22.26L138.84 22.15L141.18 22.28L141.11 22.21Q142.15 22.19 143.02 20.78L143.05 20.81L142.99 20.74Q143.83 19.68 143.94 18.50L143.97 18.52L143.89 18.44Q144.22 15.39 140.00 14.90L140.02 14.92L140.08 14.97Q138.39 14.92 135.76 14.35ZM136.75 24.90L136.75 24.90L136.88 25.03Q136.70 31.13 135.56 35.54L135.50 35.48L135.67 35.66Q134.22 36.07 131.90 37.14L131.74 36.98L131.82 37.06Q134.23 30.45 133.96 23.18L133.89 23.10L133.95 23.16Q133.61 15.74 130.83 9.31L130.75 9.23L130.79 9.27Q135.01 12.11 141.25 12.11L141.13 11.99L141.14 12.00Q147.33 12.14 147.48 15.60L147.47 15.59L147.40 15.52Q147.59 18.07 146.60 20.74L146.58 20.71L146.49 20.63Q146.09 21.75 145.14 22.96L145.17 23.00L145.20 23.03Q143.82 24.58 141.27 24.85L141.33 24.90L141.26 24.83Q138.95 24.81 136.71 24.85ZM142.93 27.20L142.94 27.20L142.86 27.13Q147.03 27.37 148.29 22.57L148.38 22.67L148.24 22.53Q149.34 19.03 149.19 17.01L149.15 16.96L149.12 16.94Q149.09 15.50 148.33 14.51L148.35 14.53L148.31 14.49Q147.88 14.06 147.38 13.83L147.41 13.86L147.33 13.77Q147.36 13.66 146.75 12.89L146.87 13.02L146.82 12.96Q145.22 11.59 141.26 11.59L141.36 11.69L141.33 11.66Q134.31 11.53 130.08 8.37L130.13 8.42L130.28 8.56Q133.27 15.48 133.54 22.94L133.58 22.98L133.68 23.08Q133.90 30.69 131.24 37.77L131.28 37.82L131.15 37.68Q132.36 37.18 133.35 36.80L133.20 36.65L132.85 37.83L132.85 37.83Q132.63 38.37 132.36 38.94L132.46 39.03L132.45 39.02Q134.83 37.94 137.73 37.41L137.74 37.42L137.76 37.45Q138.71 32.03 138.79 27.31L138.73 27.25L138.72 27.25Q139.72 27.07 140.71 27.07L140.80 27.16L140.82 27.17Q142.16 27.19 142.96 27.22ZM142.05 17.32L141.89 17.16L142.00 17.28Q142.53 17.31 143.52 17.54L143.45 17.47L143.54 17.57Q143.62 17.76 143.66 18.06L143.53 17.93L143.64 18.04Q143.67 18.30 143.59 18.57L143.54 18.51L143.52 18.49Q143.49 19.79 142.76 20.67L142.68 20.58L142.77 20.67Q142.11 21.65 141.08 21.84L141.06 21.82L141.08 21.84Q140.38 21.87 138.74 21.87L138.77 21.89L138.82 21.94Q138.65 19.53 138.42 17.17L138.48 17.23L140.24 17.31L140.30 17.37Q141.19 17.42 142.06 17.34Z"/><path fill="#222" d="M119.09 18.28L119.03 18.21L119.15 18.33Q117.39 14.21 111.18 14.40L111.19 14.42L111.16 14.38Q106.86 14.62 104.88 16.06L104.76 15.94L104.88 16.06Q102.45 17.78 102.45 21.89L102.47 21.91L102.43 23.73L102.38 23.68Q102.30 32.43 111.32 32.43L111.39 32.51L111.32 32.43Q113.39 32.44 114.87 31.65L114.92 31.69L115.01 31.78Q116.80 30.72 116.65 28.85L116.62 28.83L116.69 28.90Q116.35 26.65 112.66 25.74L112.64 25.73L110.86 25.88L110.77 25.80Q109.80 25.78 108.85 25.81L108.92 25.89L108.89 25.85Q108.94 24.95 108.90 23.05L108.79 22.93L108.95 23.10Q116.46 22.95 120.65 22.61L120.74 22.70L120.69 22.65Q120.64 23.48 120.64 24.28L120.60 24.24L120.65 24.29Q120.64 25.08 120.68 25.88L120.63 25.83L120.79 25.99Q119.60 25.91 119.60 25.91L119.53 25.83L119.55 25.85Q118.13 25.81 118.51 25.81L118.63 25.93L118.61 25.90Q119.67 27.50 120.05 29.48L120.14 29.57L120.04 29.47Q120.09 30.12 120.09 30.58L120.12 30.61L120.24 30.73Q120.21 35.35 111.41 35.35L111.35 35.28L111.42 35.35Q104.29 35.34 101.70 33.25L101.59 33.13L101.58 33.13Q99.71 30.87 99.71 25.81L99.77 25.87L99.66 25.76Q99.70 24.74 99.55 22.03L99.63 22.11L99.56 22.05Q99.42 19.70 99.46 18.33L99.51 18.38L99.38 18.25Q99.55 15.45 100.92 13.85L100.81 13.74L100.92 13.85Q103.47 11.79 108.34 11.60L108.36 11.62L111.09 11.60L111.03 11.54Q114.09 11.41 117.51 11.83L117.47 11.78L117.45 11.76Q121.33 12.37 122.29 15.61L122.17 15.50L122.29 15.61Q121.23 16.49 119.14 18.32ZM120.47 20.45L120.69 20.57L120.56 20.43Q121.83 19.42 123.70 17.44L123.75 17.49L123.62 17.36Q123.40 16.50 122.41 14.79L122.41 14.78L122.36 14.73Q121.28 12.16 117.47 11.52L117.42 11.47L117.43 11.48Q115.25 11.31 110.94 11.01L110.96 11.02L108.25 11.13L108.32 11.20Q103.18 11.43 100.59 13.41L100.58 13.39L100.51 13.33Q99.14 14.96 99.02 18.04L99.11 18.13L99.06 18.08Q99.10 17.66 99.33 23.15L99.33 23.14L99.23 23.05Q99.28 24.43 99.36 27.17L99.31 27.13L99.44 27.25Q99.49 31.57 101.24 33.51L101.37 33.64L101.35 33.62Q101.70 34.43 102.58 35.30L102.53 35.25L102.48 35.21Q105.56 37.26 111.08 37.60L111.04 37.56L113.84 37.66L113.83 37.65Q115.51 37.84 117.53 37.73L117.60 37.80L117.57 37.77Q118.99 37.67 121.09 37.14L120.95 37.00L121.02 37.07Q123.01 36.62 122.97 34.30L123.00 34.33L122.92 34.25Q122.90 32.97 121.83 30.19L121.92 30.28L121.86 30.22Q121.63 29.38 121.09 28.58L121.05 28.54L120.97 28.46Q121.61 28.53 122.79 28.72L122.83 28.75L122.81 28.74Q122.62 25.23 122.65 24.54L122.51 24.40L122.54 24.43Q122.20 24.47 121.78 24.43L121.79 24.44L121.86 24.51Q121.37 24.36 120.99 24.44L120.91 24.36L121.05 24.50Q120.97 23.31 121.04 22.25L120.99 22.19L121.14 22.34Q114.75 22.73 108.47 22.62L108.46 22.60L108.57 22.72Q108.51 23.53 108.51 24.45L108.53 24.47L108.51 26.20L108.61 26.30Q108.97 26.28 109.39 26.24L109.46 26.31L109.42 26.27Q109.74 26.17 110.20 26.17L110.31 26.28L110.19 26.16Q110.22 26.66 110.26 27.15L110.23 27.12L110.26 27.15Q110.19 27.53 110.15 28.03L110.31 28.19L110.18 28.06Q111.31 28.12 112.34 28.08L112.42 28.16L112.28 28.02Q113.43 28.15 114.46 28.19L114.40 28.13L114.41 28.13Q115.36 28.29 116.23 28.67L116.19 28.62L116.24 28.72L116.36 28.83Q116.46 30.31 114.79 31.22L114.74 31.18L114.81 31.25Q113.04 32.06 111.33 32.06L111.33 32.06L111.46 32.19Q107.59 32.17 105.15 30.42L105.14 30.41L105.17 30.44Q104.27 28.47 104.42 25.91L104.41 25.91L104.24 25.73Q104.61 21.00 106.45 19.00L106.55 19.10L106.41 18.96Q108.38 17.08 113.06 16.78L113.04 16.76L112.93 16.64Q116.62 16.45 118.56 18.24L118.56 18.24L118.58 18.26Q118.65 18.37 118.76 18.56L118.85 18.65L118.82 18.50L118.88 18.56Q119.53 19.33 120.10 20.43L120.09 20.42L120.51 20.50Z"/><path d="M18 3 C86 10,108 17,193 2" stroke="#444" fill="none"/><path fill="#333" d="M174.63 32.81L174.75 32.93L174.69 32.87Q175.01 33.88 175.54 35.90L175.63 35.99L175.53 35.89Q171.24 34.49 166.63 34.75L166.78 34.90L166.65 34.78Q162.09 35.05 158.10 37.03L158.13 37.07L158.09 37.03Q158.33 36.35 158.37 36.43L158.51 36.57L158.50 36.56Q162.11 32.48 166.03 28.06L166.10 28.13L166.13 28.16Q170.48 23.10 171.66 18.42L171.59 18.36L171.74 18.51Q172.15 16.71 170.87 15.53L170.91 15.56L170.90 15.55Q169.66 14.41 167.87 14.56L167.82 14.51L167.87 14.56Q167.54 14.53 167.20 14.53L167.03 14.36L167.04 14.37Q165.53 14.39 164.27 15.30L164.35 15.38L164.39 15.42Q163.08 16.77 163.30 19.43L163.17 19.30L163.35 19.48Q161.47 19.04 160.25 18.58L160.32 18.66L160.19 18.53Q160.11 17.22 160.03 15.78L159.96 15.71L160.08 15.83Q159.91 14.10 160.52 12.96L160.46 12.89L160.55 12.99Q162.26 11.54 165.61 11.54L165.65 11.57L167.43 11.60L167.41 11.58Q169.67 11.60 170.62 11.71L170.56 11.66L170.73 11.82Q175.04 12.21 175.30 14.64L175.17 14.51L175.21 14.55Q175.41 15.24 175.33 16.04L175.18 15.89L175.15 15.87Q175.21 16.61 175.06 17.29L175.12 17.35L174.98 17.22Q173.36 25.34 165.79 32.20L165.88 32.29L165.87 32.28Q167.19 32.03 168.56 32.03L168.56 32.04L168.68 32.16Q171.93 32.17 174.78 32.97ZM174.21 12.15L174.20 12.13L174.18 12.11Q172.57 11.45 170.85 11.38L170.80 11.32L167.44 11.20L167.39 11.15Q163.03 10.97 160.82 12.07L160.75 12.00L160.81 12.06Q159.64 13.33 159.64 15.39L159.74 15.49L159.61 15.36Q159.69 16.12 159.99 18.94L159.96 18.91L159.96 18.91Q160.58 19.22 161.76 19.52L161.78 19.55L161.75 20.55L161.74 20.54Q161.74 21.03 161.81 21.56L161.83 21.58L161.70 21.44Q163.03 21.64 165.51 21.87L165.56 21.92L165.43 21.78Q165.44 21.46 165.44 21.11L165.47 21.14L165.50 21.17Q165.40 19.24 166.62 17.89L166.74 18.01L166.77 18.05Q167.99 16.69 169.78 16.81L169.72 16.76L169.73 16.76Q170.49 16.79 171.25 16.95L171.15 16.84L171.25 16.95Q171.39 17.35 171.47 17.77L171.39 17.70L171.44 17.75Q171.52 18.21 171.45 18.55L171.46 18.56L171.27 18.38Q170.04 23.16 165.63 28.00L165.77 28.15L165.75 28.12Q163.49 30.24 158.04 36.29L158.04 36.29L158.19 36.44Q158.02 37.30 157.68 37.87L157.63 37.82L157.68 37.87Q159.22 36.93 160.74 36.40L160.64 36.30L160.79 36.45Q160.05 37.00 159.09 38.48L159.03 38.41L159.06 38.45Q158.87 38.71 158.75 39.05L158.77 39.07L158.72 39.02Q163.74 37.11 169.22 37.30L169.15 37.23L169.13 37.21Q174.77 37.34 179.34 39.70L179.47 39.83L178.44 37.65L178.42 37.63Q177.67 36.19 177.40 35.39L177.40 35.40L177.40 35.40Q176.80 35.10 175.58 34.68L175.49 34.59L175.65 34.74Q175.32 33.85 174.94 32.48L174.98 32.51L174.99 32.53Q172.72 31.90 170.44 31.71L170.56 31.83L170.54 31.81Q175.23 27.25 176.75 18.99L176.72 18.96L176.86 16.01L176.94 16.09Q176.90 14.34 175.69 13.66L175.68 13.65L175.51 13.52L175.53 13.54Q175.50 13.47 175.43 13.47L175.40 13.45L175.46 13.51Q175.29 12.73 174.19 12.12Z"/></svg>