<svg xmlns="http://www.w3.org/2000/svg" width="200" height="40" viewBox="0,0,200,40"><path d="M2 31 C120 13,95 37,185 18" stroke="#555" fill="none"/><path fill="#222" d="M80.97 35.02L80.88 34.93L80.87 34.91Q76.66 34.32 74.83 32.87L74.89 32.93L74.79 32.83Q73.01 31.43 72.59 28.43L72.64 28.48L72.60 28.43Q72.48 27.97 72.14 23.22L72.24 23.32L72.19 23.27Q72.32 22.18 72.25 20.92L72.24 20.92L72.25 20.93Q72.05 15.85 74.25 14.10L74.29 14.13L74.32 14.16Q76.90 11.98 84.66 11.30L84.59 11.22L84.71 11.35Q85.94 11.09 87.58 11.13L87.67 11.22L87.63 11.18Q87.62 11.17 90.59 11.17L90.65 11.23L90.57 11.15Q91.41 11.16 93.13 11.31L93.25 11.44L93.18 11.36Q92.73 12.36 91.70 15.45L91.62 15.36L91.62 15.36Q89.51 14.13 86.50 14.13L86.45 14.08L86.64 14.26Q85.82 14.20 85.02 14.28L85.00 14.27L85.09 14.35Q79.84 14.66 77.33 16.64L77.43 16.75L77.28 16.59Q75.41 18.34 75.26 21.69L75.29 21.72L75.11 21.54Q75.09 22.17 75.13 23.43L75.17 23.46L75.11 23.40Q75.31 28.33 77.71 30.42L77.71 30.42L77.82 30.53Q79.81 32.30 84.80 32.60L84.91 32.71L84.92 32.72Q87.95 32.79 90.96 31.00L90.99 31.02L91.02 31.06Q91.58 33.74 92.19 35.11L92.32 35.25L92.31 35.23Q90.11 35.40 88.47 35.36L88.44 35.32L88.43 35.31Q83.96 35.27 80.84 34.89ZM95.98 38.64L95.99 38.65L95.96 38.62Q94.23 35.68 93.55 33.09L93.46 33.00L93.44 32.98Q93.07 33.30 92.08 33.68L92.10 33.70L92.15 33.74Q91.81 32.95 91.62 32.11L91.56 32.05L91.13 30.29L91.10 30.26Q88.02 32.51 84.90 32.39L84.85 32.35L84.75 32.25Q80.53 32.10 78.21 30.35L78.15 30.29L78.30 30.44Q77.17 28.62 77.24 25.69L77.18 25.63L77.18 25.62Q77.34 21.14 79.81 19.01L79.71 18.91L79.86 19.05Q81.83 16.99 86.51 16.38L86.67 16.54L86.53 16.40Q87.43 16.39 88.15 16.39L88.06 16.30L88.12 16.35Q90.87 16.32 92.96 17.84L93.07 17.95L93.02 17.90Q93.50 15.76 94.72 12.52L94.68 12.49L94.69 12.49Q94.44 12.51 93.89 12.45L93.84 12.41L93.79 12.35Q93.36 12.42 93.10 12.42L93.09 12.41L93.06 12.38Q93.22 11.82 93.67 10.83L93.68 10.84L93.80 10.95Q93.48 10.87 90.99 10.79L91.02 10.82L90.95 10.75Q88.47 10.69 87.82 10.73L87.85 10.75L87.90 10.80Q77.31 11.06 73.85 13.65L73.79 13.59L73.92 13.73Q71.94 15.59 71.94 19.51L71.91 19.48L71.78 19.35Q71.77 20.44 71.88 23.15L72.06 23.33L71.94 23.20Q72.07 26.76 72.29 28.47L72.35 28.53L72.25 28.43Q72.75 31.67 74.35 33.19L74.27 33.11L74.30 33.14Q74.88 33.91 76.14 35.05L76.14 35.06L76.05 34.96Q79.27 36.70 84.52 37.46L84.63 37.57L84.61 37.55Q90.96 38.42 95.95 38.61Z"/><path fill="#222" d="M110.22 24.18L110.20 24.15L110.16 24.11Q108.30 24.12 107.08 25.45L107.15 25.53L107.12 25.50Q105.87 26.80 105.72 28.70L105.82 28.80L105.70 28.68Q105.49 30.79 106.71 31.80L106.90 31.99L106.84 31.93Q107.93 32.82 110.07 32.74L110.11 32.79L110.07 32.74Q112.43 32.63 113.38 31.68L113.43 31.73L113.38 31.67Q114.41 30.23 114.30 28.41L114.34 28.44L114.33 28.44Q114.14 26.50 113.05 25.30L113.12 25.36L113.14 25.39Q112.06 24.19 110.23 24.19ZM110.25 14.81L110.25 14.81L110.28 14.83Q108.76 14.61 107.43 15.11L107.36 15.04L107.45 15.13Q106.25 16.02 106.48 17.89L106.45 17.86L106.48 17.89Q106.89 21.53 110.24 21.53L110.20 21.49L110.19 21.48Q111.77 21.69 112.76 20.55L112.84 20.63L112.79 20.58Q113.73 19.38 113.76 17.82L113.82 17.87L113.85 17.91Q113.86 16.09 113.13 15.48L113.24 15.59L113.24 15.59Q111.54 14.72 110.24 14.80ZM109.94 35.32L109.84 35.22L106.96 35.38L106.87 35.29Q105.36 35.30 104.02 34.43L103.93 34.33L103.94 34.35Q102.62 33.25 102.77 30.39L102.82 30.44L102.75 30.37Q103.22 23.53 106.83 22.54L106.96 22.67L106.86 22.57Q104.53 21.61 103.20 16.24L103.34 16.38L103.24 16.28Q102.99 14.96 103.06 14.17L103.04 14.14L103.07 14.18Q103.29 11.95 106.98 11.91L107.06 11.99L107.03 11.97Q111.20 11.83 112.65 12.02L112.74 12.11L112.60 11.97Q116.46 12.52 116.91 14.54L117.00 14.63L116.98 14.60Q117.05 15.17 117.05 15.55L117.01 15.51L117.03 15.53Q117.03 16.22 116.84 16.83L116.98 16.96L116.98 16.97Q116.34 21.16 113.41 22.68L113.38 22.65L113.44 22.72Q116.91 23.48 117.41 28.77L117.34 28.71L117.37 28.74Q117.43 28.95 117.46 30.24L117.42 30.20L117.44 30.22Q117.37 32.81 115.77 33.87L115.82 33.92L115.91 34.01Q114.48 34.83 109.91 35.29ZM112.20 37.62L112.25 37.67L115.56 37.70L115.60 37.74Q117.29 37.79 118.81 37.07L118.74 37.00L118.84 37.10Q119.95 36.34 120.02 34.47L119.96 34.42L119.93 34.38Q120.08 33.39 119.70 31.44L119.75 31.50L119.70 31.45Q118.81 26.83 116.71 24.96L116.74 24.99L116.49 24.55L116.25 24.23L116.10 23.97L116.17 24.04Q117.74 22.60 118.66 18.45L118.66 18.46L118.68 18.47Q118.77 18.18 118.85 17.35L118.84 17.34L118.78 17.29Q118.93 16.67 118.86 16.06L118.77 15.98L118.79 15.99Q118.68 14.59 117.50 14.10L117.46 14.06L117.55 14.11L117.30 13.94L117.31 13.94Q117.03 13.21 115.85 12.41L115.82 12.38L115.80 12.32L115.95 12.47Q113.94 11.76 109.87 11.57L109.75 11.45L109.89 11.58Q108.15 11.30 106.78 11.41L106.93 11.56L106.84 11.47Q106.07 11.54 104.78 11.69L104.86 11.77L104.84 11.75Q102.75 11.99 102.52 13.63L102.59 13.69L102.56 13.66Q102.60 14.23 102.64 15.03L102.70 15.10L102.68 15.07Q102.65 15.46 103.22 17.82L103.39 17.99L103.23 17.84Q104.10 21.14 105.85 22.47L105.78 22.40L105.92 22.54L106.00 22.62Q103.16 23.85 102.62 29.03L102.67 29.08L102.60 29.01Q102.41 31.21 102.41 32.13L102.39 32.11L102.44 32.16Q102.48 33.91 103.66 34.83L103.65 34.81L103.67 34.83Q103.85 34.97 104.11 35.16L103.98 35.03L104.07 35.12Q105.16 37.46 112.28 37.69ZM111.83 26.51L111.85 26.53L111.95 26.63Q112.72 26.41 113.60 26.87L113.60 26.87L113.72 26.99Q114.03 27.91 113.99 28.44L114.04 28.49L114.04 28.50Q114.05 28.77 114.05 29.07L114.04 29.06L114.13 29.16Q114.08 31.46 111.79 32.30L111.70 32.20L111.76 32.26Q110.88 32.49 110.08 32.37L110.10 32.39L110.19 32.49Q109.12 32.64 107.98 32.18L107.82 32.02L108.00 32.20Q107.55 31.37 107.63 30.38L107.71 30.46L107.70 30.45Q107.96 28.96 109.16 27.74L109.11 27.70L108.98 27.56Q110.30 26.47 111.90 26.58ZM112.06 17.04L112.01 16.98L112.19 17.16Q112.80 16.86 113.34 17.01L113.39 17.07L113.36 17.84L113.38 17.86Q113.51 19.39 112.59 20.40L112.53 20.33L112.57 20.38Q111.69 21.42 110.32 21.23L110.20 21.11L110.19 21.10Q109.25 21.16 108.84 20.93L108.90 20.99L108.76 20.85Q108.74 20.60 108.62 19.92L108.63 19.92L108.71 20.00Q108.46 18.61 109.68 17.77L109.68 17.78L109.54 17.63Q110.65 16.99 112.06 17.03Z"/><path d="M7 3 C102 4,110 8,194 25" stroke="#333" fill="none"/><path fill="#222" d="M167.03 14.69L167.06 14.72L167.08 14.74Q164.94 14.70 163.99 14.85L164.06 14.92L164.04 14.90Q162.54 15.26 161.32 15.79L161.30 15.78L161.18 15.66Q157.68 17.11 157.57 21.79L157.67 21.89L157.62 21.84Q157.44 24.40 158.09 27.34L158.20 27.44L158.10 27.34Q158.96 31.36 162.58 32.54L162.69 32.66L162.75 32.71Q164.52 33.16 165.97 33.00L166.10 33.13L166.35 32.93L166.53 33.11Q166.67 33.06 166.86 33.10L166.79 33.03L166.88 33.12Q167.04 33.12 167.19 33.08L167.11 33.00L167.07 32.97Q169.72 32.72 171.09 32.15L171.22 32.28L167.56 28.65L167.60 28.70Q167.96 28.41 168.57 27.80L168.43 27.66L169.47 26.88L169.51 26.91Q171.29 28.92 173.27 30.98L173.21 30.92L173.22 30.93Q175.60 29.16 175.87 23.79L175.71 23.64L175.86 23.79Q175.88 22.82 175.88 21.90L175.92 21.94L175.96 21.98Q175.85 16.20 170.79 15.10L170.77 15.08L170.79 15.10Q169.45 14.75 166.94 14.59ZM179.78 36.73L179.82 36.77L179.80 36.74Q179.19 37.16 178.01 38.04L178.11 38.14L173.67 34.42L173.61 34.36Q171.11 35.56 166.85 35.60L166.79 35.54L166.83 35.58Q160.28 35.69 157.47 33.45L157.40 33.39L157.41 33.39Q155.75 31.74 155.30 28.77L155.16 28.63L155.31 28.78Q154.98 26.85 154.59 23.27L154.58 23.25L154.62 23.29Q154.76 22.71 154.65 20.96L154.55 20.86L154.47 20.78Q154.36 19.27 154.40 18.39L154.45 18.44L154.50 18.49Q154.57 15.41 156.33 13.84L156.33 13.85L156.29 13.81Q157.92 12.58 161.12 12.09L161.05 12.02L160.95 11.92Q163.60 11.72 166.50 11.79L166.32 11.62L166.47 11.77Q173.81 11.72 176.93 14.08L177.11 14.26L177.12 14.27Q179.25 16.37 178.99 21.28L178.93 21.22L178.94 21.23Q178.71 24.85 178.52 26.18L178.63 26.29L178.60 26.26Q177.87 30.67 175.55 32.99L175.63 33.07L175.49 32.93Q177.07 34.28 179.81 36.76ZM174.99 12.53L174.85 12.39L174.86 12.39Q172.99 11.82 166.48 11.32L166.40 11.24L166.46 11.30Q164.97 11.22 162.19 11.33L162.30 11.44L162.19 11.34Q158.10 11.69 155.85 13.67L155.68 13.51L155.85 13.67Q154.04 14.98 154.04 18.14L154.06 18.17L154.05 18.15Q154.11 19.05 154.26 20.76L154.30 20.80L154.34 20.84Q154.41 22.48 154.41 23.35L154.35 23.29L154.49 23.43Q154.47 25.01 154.85 28.58L154.96 28.70L154.98 28.72Q155.27 31.51 156.86 33.57L156.90 33.61L156.95 33.66Q157.16 34.36 158.38 35.51L158.35 35.48L158.36 35.48Q161.13 37.53 166.31 37.80L166.29 37.78L166.41 37.90Q166.63 37.78 169.03 37.90L169.15 38.02L169.08 37.95Q173.90 38.12 176.19 37.06L176.28 37.14L176.10 36.96Q177.03 37.71 181.75 41.29L181.83 41.36L181.80 41.34Q182.47 40.87 183.77 39.88L183.62 39.73L183.70 39.81Q182.76 39.06 181.96 38.38L182.05 38.47L180.38 36.99L180.37 36.82L180.46 36.92Q179.96 36.53 178.74 35.50L178.68 35.44L178.61 35.37Q180.50 32.84 180.50 28.31L180.59 28.40L180.62 28.43Q180.56 27.95 180.59 27.11L180.69 27.21L180.64 27.15Q180.59 26.23 180.59 25.81L180.60 25.82L180.59 25.82Q180.71 20.41 179.99 18.05L179.97 18.03L179.96 18.02Q179.60 16.75 178.73 15.69L178.59 15.55L178.71 15.67Q177.92 13.55 174.99 12.52ZM168.82 16.94L168.96 17.07L168.96 17.07Q173.02 16.99 174.85 18.59L174.92 18.65L174.75 18.48Q175.29 19.68 175.41 21.01L175.40 21.01L175.42 21.02Q175.58 22.36 175.51 23.74L175.46 23.69L175.59 23.82Q175.06 28.58 173.12 30.30L173.16 30.34L173.28 30.46Q171.87 29.04 169.36 26.30L169.37 26.32L169.50 26.45Q168.68 27.15 167.12 28.71L167.13 28.72L167.05 28.64Q167.70 29.33 168.84 30.51L168.68 30.35L168.67 30.46L168.59 30.37Q169.27 31.01 170.30 32.08L170.20 31.98L170.34 32.12Q169.25 32.29 166.93 32.59L166.96 32.63L166.45 32.65L166.06 32.67L165.99 32.65L165.95 32.61Q162.47 32.59 160.49 30.95L160.48 30.95L160.63 31.09Q159.57 28.96 159.61 25.84L159.62 25.86L159.52 25.76Q159.73 17.10 168.91 17.02Z"/><path fill="#222" d="M56.85 34.88L56.82 34.85L54.80 34.77L54.78 34.75Q54.02 34.94 53.07 35.06L53.07 35.06L53.04 35.03Q53.59 28.80 53.59 24.80L53.63 24.85L53.53 24.74Q49.56 18.07 41.90 9.39L41.89 9.37L41.94 9.43Q43.80 10.48 47.15 11.28L46.98 11.11L47.03 11.17Q52.19 16.86 55.20 22.07L55.11 21.99L55.14 22.02Q58.13 16.43 62.50 11.41L62.58 11.49L62.63 11.53Q64.86 10.95 67.38 10.15L67.36 10.14L67.36 10.14Q61.29 16.21 56.42 24.62L56.61 24.82L56.51 24.71Q56.53 31.78 56.84 34.87ZM65.87 12.22L68.66 9.45L68.63 9.43Q65.59 10.65 62.47 11.11L62.34 10.97L62.51 11.15Q58.20 15.78 55.38 20.88L55.36 20.87L55.44 20.94Q53.23 17.21 50.03 13.33L49.98 13.28L49.99 13.29Q49.86 13.42 49.36 13.34L49.24 13.22L49.25 13.23Q48.55 12.42 47.03 10.75L47.17 10.88L47.13 10.84Q43.61 9.95 40.64 8.39L40.66 8.41L40.80 8.55Q48.46 16.97 53.22 24.89L53.11 24.79L53.11 24.78Q53.11 31.22 52.50 35.37L52.53 35.39L52.56 35.42Q53.22 35.32 54.66 35.20L54.73 35.27L54.69 36.26L54.69 36.26Q54.64 36.67 54.57 37.20L54.55 37.19L54.60 37.24Q58.22 37.32 59.97 37.51L59.86 37.40L59.80 37.34Q58.57 32.68 58.46 26.70L58.53 26.77L58.49 26.73Q62.84 18.26 69.39 10.91L69.47 10.99L65.92 12.28Z"/><path fill="#333" d="M138.65 14.71L138.57 14.63L137.08 14.82L137.04 14.77Q134.84 14.94 134.61 16.95L134.53 16.87L134.61 16.95Q134.54 17.68 134.57 18.66L134.50 18.59L134.46 18.55Q134.50 20.49 135.75 21.82L135.73 21.80L135.71 21.79Q137.08 23.23 138.98 23.07L138.95 23.04L138.98 23.07Q141.06 22.94 141.82 22.03L141.67 21.88L141.71 21.92Q142.88 21.11 143.14 18.86L143.19 18.90L143.19 18.91Q143.42 16.63 142.17 15.79L142.10 15.72L142.08 15.70Q141.25 14.95 138.59 14.65ZM144.53 23.79L144.55 23.80L143.36 26.19L143.35 26.18Q140.63 30.96 136.86 35.04L136.92 35.10L136.82 35.00Q135.14 35.10 132.43 35.90L132.52 35.99L132.59 36.06Q137.78 29.63 140.94 24.84L141.00 24.91L141.01 24.91Q140.01 25.59 138.38 25.67L138.35 25.64L138.31 25.60Q135.39 25.84 133.87 23.86L133.86 23.85L133.79 23.79Q132.58 22.19 131.48 17.62L131.42 17.57L131.40 17.55Q131.59 17.28 131.43 16.34L131.43 16.34L131.27 16.18Q131.20 15.33 131.20 14.87L131.18 14.85L131.12 14.79Q131.28 13.17 132.35 12.56L132.35 12.56L132.24 12.45Q133.38 11.61 135.25 11.61L135.40 11.77L135.37 11.73Q138.62 11.79 138.62 11.79L138.46 11.62L138.47 11.63Q140.68 11.71 141.93 11.90L141.91 11.88L142.02 11.98Q144.00 12.10 144.91 12.60L144.94 12.63L145.04 12.72Q146.35 13.42 146.54 15.17L146.56 15.20L146.53 15.16Q146.56 15.42 146.37 18.09L146.37 18.09L146.47 18.19Q145.91 20.15 145.69 20.98L145.74 21.04L145.68 20.98Q145.29 22.38 144.53 23.78ZM146.46 26.21L146.51 26.26L146.48 26.24Q147.49 24.04 148.02 19.74L148.12 19.83L148.01 19.73Q148.34 17.58 148.30 16.71L148.36 16.76L148.24 16.64Q148.18 14.76 147.00 13.84L147.02 13.87L146.72 13.76L146.85 13.89Q146.40 12.94 145.48 12.29L145.67 12.48L145.67 12.48Q143.29 11.40 138.50 11.24L138.41 11.16L138.53 11.28Q137.48 11.18 135.04 11.18L135.13 11.26L135.02 11.15Q133.39 11.28 131.91 11.97L131.96 12.01L131.92 11.98Q130.71 12.71 130.79 14.54L130.72 14.47L130.78 14.53Q131.07 15.54 131.26 17.56L131.23 17.53L131.10 17.40Q131.84 20.16 132.11 20.99L132.14 21.03L132.16 21.05Q132.66 22.84 133.61 24.13L133.56 24.08L133.68 24.20Q133.75 24.35 134.13 24.74L134.27 24.87L134.28 24.88Q134.42 25.21 135.07 26.13L135.11 26.17L135.12 26.18Q136.54 27.48 138.48 27.67L138.60 27.80L138.61 27.81Q136.69 30.45 135.13 32.35L135.02 32.24L131.42 36.64L131.44 36.66Q133.70 35.91 135.34 35.57L135.42 35.65L135.35 35.59Q134.54 36.41 132.97 38.12L133.15 38.29L132.97 38.12Q136.22 37.37 139.34 37.33L139.22 37.20L139.36 37.34Q141.49 34.56 145.83 27.33L146.02 27.52L145.91 27.49L145.92 27.50Q146.24 26.83 146.58 26.33ZM140.50 17.02L140.58 17.09L140.50 17.02Q141.05 16.84 141.51 16.96L141.53 16.98L141.50 16.95Q142.25 17.17 142.63 17.28L142.56 17.21L142.70 17.35Q142.72 17.63 142.79 18.05L142.84 18.10L142.83 18.09Q142.91 18.51 142.80 18.89L142.85 18.95L142.74 18.84Q142.75 20.60 141.57 21.70L141.46 21.59L141.63 21.76Q140.66 22.77 139.02 22.74L138.90 22.61L138.98 22.69Q138.44 22.57 136.92 22.27L137.05 22.40L137.10 22.44Q136.87 21.57 136.87 20.85L136.85 20.83L136.70 20.68Q136.63 20.42 136.63 20.19L136.75 20.31L136.64 20.20Q136.68 18.03 138.96 17.23L139.08 17.35L138.91 17.17Q139.59 16.94 140.43 16.94Z"/><path fill="#333" d="M27.58 15.11L27.56 15.09L27.59 15.12Q23.30 15.13 19.61 14.14L19.59 14.12L19.54 14.07Q21.00 18.58 21.19 23.41L21.22 23.44L21.27 23.49Q21.51 28.34 20.30 32.95L20.24 32.89L20.27 32.92Q23.15 32.38 26.66 32.23L26.63 32.20L26.52 32.09Q30.39 31.85 32.18 29.42L32.29 29.52L32.20 29.44Q33.84 27.50 34.03 23.39L33.94 23.30L34.07 23.42Q34.08 21.61 33.63 19.90L33.57 19.84L33.57 19.84Q32.39 15.20 27.67 15.20ZM15.68 37.13L15.78 37.23L15.69 37.13Q18.62 31.50 18.62 24.80L18.65 24.83L18.64 24.82Q18.51 16.17 14.21 9.16L14.26 9.21L14.26 9.21Q19.58 11.94 27.84 12.13L27.82 12.11L27.88 12.17Q36.63 12.24 36.97 19.40L36.93 19.35L37.04 19.46Q37.11 22.12 37.07 23.57L37.00 23.50L37.08 23.57Q36.91 28.17 36.08 30.34L36.17 30.44L36.17 30.44Q35.77 31.56 35.01 32.40L34.90 32.29L35.05 32.44Q33.61 33.89 30.98 34.38L30.96 34.36L30.91 34.31Q29.47 34.73 26.46 34.96L26.44 34.95L26.37 34.87Q20.22 35.31 15.61 37.06ZM33.58 36.98L33.64 37.04L33.71 37.11Q36.28 36.59 37.91 35.11L38.06 35.26L37.91 35.11Q39.22 33.44 39.18 30.70L39.16 30.69L39.21 30.74Q39.11 29.26 38.96 25.76L39.07 25.87L38.64 21.26L38.74 21.35Q38.49 19.02 37.54 16.92L37.47 16.85L37.60 16.98Q37.00 15.97 36.32 15.32L36.34 15.34L36.21 15.06L36.25 15.10Q34.59 12.18 30.17 11.80L30.12 11.75L30.29 11.91Q27.58 11.76 20.58 11.03L20.51 10.97L20.41 10.87Q17.19 10.47 13.50 8.45L13.56 8.51L13.50 8.45Q18.42 15.92 18.42 24.67L18.27 24.52L18.37 24.62Q18.44 31.70 15.09 37.87L14.98 37.76L14.94 37.72Q15.65 37.48 16.99 36.99L16.99 36.99L17.01 37.01Q16.67 37.85 15.79 39.34L15.72 39.26L15.78 39.32Q18.87 38.29 22.22 37.80L22.23 37.81L22.28 37.86Q24.35 37.53 28.00 37.42L28.00 37.42L27.82 37.23Q31.83 37.24 33.65 37.05ZM33.74 23.48L33.74 23.47L33.58 23.31Q33.36 31.47 26.66 31.85L26.66 31.86L26.56 31.75Q24.62 31.86 22.56 32.13L22.56 32.13L22.50 32.07Q23.24 28.24 23.24 24.58L23.35 24.70L23.25 24.59Q23.19 20.84 22.47 17.00L22.60 17.13L22.46 16.99Q24.79 17.42 29.47 17.42L29.56 17.51L29.44 17.39Q30.86 17.29 32.50 18.24L32.46 18.20L32.47 18.21Q33.77 20.50 33.62 23.35Z"/></svg>