<svg xmlns="http://www.w3.org/2000/svg" width="200" height="40" viewBox="0,0,200,40"><path fill="#333" d="M51.04 35.41L51.08 35.45L51.09 35.46Q46.99 35.66 46.00 33.34L46.05 33.38L45.98 33.31Q46.67 32.29 48.23 30.51L48.31 30.58L48.34 30.62Q48.86 32.66 51.87 32.77L51.78 32.68L51.71 32.61Q55.19 32.78 56.82 31.45L56.79 31.41L56.73 31.36Q58.17 29.79 58.10 27.08L58.21 27.20L58.11 27.10Q57.89 21.96 53.09 22.19L53.26 22.36L53.28 22.38Q50.41 22.48 48.66 23.74L48.70 23.77L48.22 23.45L48.13 23.44L48.03 23.33Q48.47 20.27 48.36 17.53L48.37 17.54L48.25 17.43Q48.18 14.85 47.84 11.54L47.90 11.60L47.78 11.48Q51.49 12.48 55.29 12.36L55.22 12.29L55.26 12.33Q59.21 12.40 62.79 11.14L62.70 11.05L62.05 12.50L62.10 12.55Q61.88 13.40 61.69 14.23L61.69 14.23L61.65 14.19Q58.48 15.17 54.60 15.17L54.62 15.20L54.63 15.21Q53.16 15.18 51.67 15.03L51.65 15.00L51.68 15.03Q51.68 15.80 51.34 20.25L51.23 20.14L51.22 20.13Q52.12 19.73 54.17 19.58L54.10 19.51L54.09 19.50Q57.80 19.71 59.25 21.39L59.30 21.43L59.42 21.56Q60.75 23.03 61.01 26.88L61.06 26.92L60.97 26.84Q61.30 31.09 60.08 33.10L59.98 33.00L60.10 33.12Q57.92 34.86 54.61 35.09L54.64 35.13L54.64 35.12Q53.69 35.24 51.03 35.40ZM57.08 37.68L57.03 37.63L57.05 37.64Q60.55 37.79 62.45 36.69L62.30 36.54L62.43 36.67Q63.45 35.18 63.45 33.09L63.41 33.05L63.31 32.94Q63.48 30.03 62.53 25.92L62.52 25.91L62.45 25.85Q62.03 24.05 60.81 22.64L60.93 22.76L60.81 22.68L60.71 22.50L60.23 22.17L60.23 22.18Q60.04 21.57 59.39 20.88L59.40 20.89L59.36 20.89L59.43 20.95Q57.86 19.23 54.17 19.23L54.15 19.22L53.96 19.29L53.80 19.13Q53.97 18.66 54.16 17.55L54.23 17.62L54.06 17.45Q59.11 17.63 63.14 15.99L63.16 16.01L63.11 15.96Q63.56 14.57 64.51 11.76L64.62 11.87L62.34 12.64L62.43 12.72Q62.90 11.67 63.39 10.53L63.24 10.37L63.33 10.47Q59.53 11.96 55.42 12.04L55.45 12.06L55.31 11.92Q51.17 12.01 47.21 10.91L47.26 10.96L47.37 11.06Q47.98 15.40 47.98 19.82L47.88 19.73L48.06 19.91Q47.94 21.68 47.82 23.59L47.82 23.58L47.92 23.69Q48.10 23.78 48.67 24.09L48.59 24.01L48.75 24.17Q49.03 23.88 49.68 23.54L49.75 23.61L49.77 23.63Q49.71 24.37 49.48 25.89L49.37 25.78L49.35 25.76Q49.91 26.09 50.33 26.32L50.32 26.31L50.28 26.28Q52.95 24.41 54.82 24.41L54.83 24.43L54.87 24.47Q56.27 24.54 57.45 25.19L57.42 25.15L57.49 25.22Q57.77 26.18 57.81 27.14L57.77 27.09L57.79 27.11Q57.77 29.62 56.75 30.72L56.78 30.75L56.85 30.82Q55.42 31.98 53.17 32.21L53.26 32.29L53.22 32.26Q52.30 32.36 51.61 32.29L51.51 32.19L51.60 32.28Q50.74 32.14 49.98 31.79L50.05 31.87L49.87 31.50L49.75 31.60L49.83 31.68Q48.94 31.09 48.40 29.76L48.55 29.91L48.58 29.94Q47.23 31.33 45.56 33.46L45.58 33.49L45.45 33.35Q45.73 33.98 46.57 34.93L46.59 34.96L46.72 35.08Q47.72 36.84 50.53 37.34L50.51 37.32L50.45 37.26Q51.75 37.60 57.11 37.71Z"/><path fill="#333" d="M140.17 35.15L140.22 35.20L138.01 35.27L138.11 35.38Q137.66 35.38 136.69 35.44L136.52 35.27L136.64 35.39Q135.60 35.37 135.10 35.37L135.24 35.51L135.19 35.46Q133.42 35.33 132.39 34.49L132.41 34.51L132.51 34.61Q133.28 33.48 134.92 31.35L134.86 31.28L134.85 31.27Q136.17 32.90 138.38 32.67L138.32 32.62L138.29 32.59Q139.21 32.48 139.86 31.83L140.01 31.98L139.95 31.92Q140.54 31.22 140.42 30.34L140.39 30.31L140.46 30.38Q140.45 25.88 140.53 21.31L140.35 21.13L140.46 21.24Q140.47 16.60 141.00 11.99L140.91 11.91L141.06 12.05Q142.89 11.75 145.02 10.72L145.09 10.79L145.11 10.81Q143.25 17.55 143.25 24.79L143.28 24.82L143.19 24.73Q143.20 28.28 143.65 31.78L143.70 31.83L143.65 31.77Q143.69 32.09 143.69 32.43L143.83 32.57L143.79 32.53Q143.67 32.98 143.44 33.51L143.55 33.62L143.53 33.60Q142.97 34.87 140.15 35.13ZM145.17 38.06L145.15 38.03L145.41 37.95L145.79 37.91L146.04 37.78L145.87 37.61Q146.19 37.36 146.27 37.25L146.36 37.34L146.28 37.26Q146.53 36.14 146.26 35.15L146.31 35.19L146.29 35.17Q145.02 29.46 145.29 23.10L145.15 22.96L145.21 23.02Q145.51 16.96 147.29 11.06L147.31 11.07L147.25 11.01Q146.33 11.61 145.07 12.34L145.15 12.41L145.13 12.39Q145.37 11.68 145.79 10.16L145.68 10.05L145.74 10.11Q143.08 11.30 140.42 11.61L140.59 11.77L140.59 11.78Q140.19 16.14 140.12 21.09L140.09 21.06L140.13 21.10Q139.93 26.88 140.01 30.31L140.08 30.38L140.01 30.31Q140.13 32.14 138.38 32.29L138.45 32.37L138.46 32.37Q136.62 32.36 134.95 30.73L134.91 30.69L135.07 30.85Q132.91 33.26 131.96 34.82L132.01 34.87L132.00 34.86Q132.54 35.40 133.57 35.63L133.66 35.72L133.59 35.65Q133.65 35.94 133.38 36.17L133.28 36.06L133.24 36.02Q134.74 37.03 136.72 37.29L136.71 37.28L136.76 37.33Q137.18 37.41 140.47 37.72L140.45 37.70L140.36 37.61Q143.79 38.05 145.16 38.05Z"/><path fill="#333" d="M82.07 14.70L81.93 14.56L80.39 14.69L80.35 14.66Q78.19 14.85 77.96 16.87L77.88 16.80L77.98 16.89Q77.90 17.61 77.94 18.60L77.90 18.56L77.92 18.58Q77.93 20.50 79.19 21.83L79.26 21.91L79.21 21.85Q80.57 23.28 82.47 23.13L82.31 22.97L82.35 23.01Q84.41 22.86 85.17 21.95L85.14 21.92L85.11 21.89Q86.22 21.02 86.48 18.77L86.55 18.84L86.47 18.76Q86.89 16.67 85.63 15.83L85.58 15.77L85.50 15.70Q84.76 15.03 82.09 14.72ZM88.06 23.89L87.98 23.80L86.78 26.18L86.73 26.13Q84.15 31.06 80.38 35.13L80.32 35.06L80.22 34.97Q78.67 35.21 75.97 36.01L75.90 35.94L75.92 35.96Q81.36 29.79 84.52 24.99L84.51 24.98L84.41 24.88Q83.46 25.61 81.83 25.69L81.71 25.57L81.70 25.56Q78.71 25.73 77.19 23.75L77.20 23.76L77.22 23.78Q76.06 22.24 74.96 17.67L74.93 17.65L74.90 17.62Q75.01 17.27 74.86 16.34L74.76 16.24L74.79 16.28Q74.65 15.35 74.65 14.89L74.69 14.93L74.67 14.91Q74.62 13.08 75.69 12.47L75.62 12.40L75.66 12.44Q76.91 11.71 78.78 11.71L78.84 11.78L78.71 11.64Q82.02 11.75 82.02 11.75L82.02 11.75L82.00 11.74Q84.05 11.66 85.31 11.85L85.43 11.97L85.38 11.92Q87.57 12.24 88.48 12.74L88.38 12.64L88.42 12.68Q89.74 13.39 89.93 15.14L89.96 15.17L90.06 15.27Q90.04 15.48 89.85 18.14L89.81 18.10L89.87 18.16Q89.48 20.29 89.26 21.12L89.20 21.07L89.18 21.05Q88.90 22.56 88.14 23.97ZM89.95 26.27L89.97 26.29L89.88 26.21Q90.92 24.04 91.45 19.74L91.40 19.69L91.43 19.72Q91.84 17.66 91.80 16.78L91.63 16.61L91.76 16.74Q91.71 14.87 90.53 13.95L90.46 13.87L90.22 13.83L90.26 13.87Q89.86 12.97 88.94 12.32L89.00 12.38L88.98 12.36Q86.69 11.37 81.90 11.21L82.01 11.33L81.93 11.24Q80.88 11.15 78.44 11.15L78.58 11.28L78.45 11.16Q76.84 11.30 75.36 11.98L75.39 12.02L75.29 11.92Q74.09 12.66 74.17 14.49L74.23 14.55L74.24 14.56Q74.46 15.50 74.65 17.52L74.59 17.46L74.53 17.40Q75.19 20.08 75.46 20.92L75.46 20.92L75.48 20.94Q76.07 22.82 77.02 24.12L76.96 24.05L76.96 24.06Q77.37 24.54 77.75 24.92L77.58 24.76L77.69 24.86Q77.88 25.25 78.53 26.16L78.56 26.19L78.56 26.19Q80.08 27.60 82.02 27.79L82.06 27.82L81.93 27.70Q80.02 30.35 78.46 32.25L78.44 32.24L74.85 36.64L74.87 36.67Q77.11 35.89 78.74 35.55L78.71 35.51L78.83 35.64Q78.08 36.52 76.51 38.23L76.49 38.21L76.49 38.21Q79.49 37.21 82.61 37.17L82.78 37.34L82.64 37.20Q85.04 34.69 89.38 27.46L89.27 27.34L89.42 27.57L89.37 27.52Q89.68 26.84 90.03 26.35ZM83.92 17.01L84.00 17.09L83.93 17.01Q84.53 16.90 84.99 17.01L85.03 17.05L85.03 17.05Q85.58 17.07 85.96 17.18L85.99 17.21L86.04 17.27Q86.18 17.66 86.25 18.08L86.23 18.06L86.16 17.99Q86.32 18.49 86.21 18.88L86.10 18.77L86.14 18.81Q86.18 20.60 85.00 21.71L85.05 21.75L84.99 21.70Q83.97 22.66 82.34 22.62L82.35 22.63L82.42 22.70Q81.92 22.62 80.40 22.32L80.48 22.40L80.45 22.37Q80.28 21.55 80.28 20.82L80.17 20.72L80.21 20.76Q80.11 20.47 80.11 20.24L80.13 20.26L80.07 20.20Q80.21 18.14 82.50 17.34L82.38 17.22L82.45 17.29Q83.11 17.04 83.95 17.04Z"/><path fill="#333" d="M166.63 35.32L166.56 35.25L166.49 35.18Q163.16 35.43 161.52 34.89L161.53 34.91L161.45 34.83Q159.54 34.25 159.24 30.86L159.12 30.74L160.58 29.69L160.50 29.61Q161.23 29.08 161.99 28.59L162.14 28.74L162.05 28.64Q161.80 30.56 163.39 31.78L163.38 31.77L163.41 31.80Q164.73 32.85 166.86 32.66L166.81 32.61L166.84 32.64Q171.31 32.31 171.12 28.77L171.04 28.69L170.95 28.60Q170.81 26.37 168.18 25.15L168.16 25.13L168.19 25.15Q165.37 24.13 163.01 22.91L162.94 22.84L163.04 22.94Q160.58 21.70 159.59 17.01L159.45 16.88L159.44 16.86Q159.39 16.47 159.27 15.70L159.19 15.62L159.35 15.78Q159.25 15.00 159.33 14.43L159.36 14.46L159.20 14.30Q159.38 12.73 160.63 12.27L160.74 12.38L160.63 12.26Q163.03 11.39 167.02 11.58L167.13 11.69L167.10 11.66Q168.88 11.72 169.68 11.80L169.60 11.72L169.63 11.75Q171.17 12.00 172.24 12.45L172.25 12.47L172.23 12.44Q174.36 12.94 174.59 15.42L174.47 15.30L174.49 15.31Q173.50 16.07 171.29 17.41L171.33 17.44L171.25 17.37Q170.93 14.45 166.55 14.45L166.44 14.34L166.48 14.39Q164.67 14.48 163.68 15.16L163.63 15.11L163.65 15.13Q162.39 15.55 162.62 17.34L162.72 17.44L162.67 17.39Q162.99 19.65 165.96 21.17L165.83 21.04L165.96 21.18Q166.53 21.44 171.02 23.08L170.88 22.94L170.91 22.96Q173.57 24.49 173.99 28.87L173.91 28.79L173.97 28.85Q174.01 29.03 174.08 30.29L174.01 30.21L174.05 30.26Q174.24 33.15 172.68 34.25L172.53 34.10L172.53 34.10Q170.82 35.21 166.63 35.33ZM168.85 37.62L168.77 37.54L168.78 37.55Q170.30 37.70 172.28 37.70L172.38 37.79L172.25 37.67Q174.34 37.67 175.60 37.25L175.63 37.28L175.65 37.30Q176.84 36.44 176.77 34.65L176.71 34.59L176.69 34.57Q176.65 33.58 176.27 31.53L176.29 31.55L176.39 31.64Q175.35 26.84 173.26 24.97L173.41 25.13L173.29 25.00Q172.62 23.54 171.29 22.81L171.29 22.81L165.86 20.62L165.92 20.68Q165.71 20.62 165.25 20.39L165.14 20.28L165.03 19.91L165.07 19.60L165.08 19.61Q164.93 18.20 166.07 17.59L166.02 17.54L165.91 17.44Q166.71 16.90 168.42 16.71L168.57 16.86L168.53 16.82Q169.57 16.60 170.72 17.06L170.67 17.02L170.82 17.16Q170.82 17.21 171.02 18.05L170.93 17.96L171.06 18.09Q171.14 17.83 171.63 17.60L171.79 17.75L171.80 17.76Q172.44 18.60 172.56 19.74L172.59 19.77L172.52 19.70Q172.53 19.60 176.19 17.01L176.26 17.08L176.35 17.18Q175.99 14.45 174.54 13.77L174.51 13.74L174.64 13.87Q174.05 12.59 172.60 12.06L172.64 12.09L172.58 12.03Q170.27 11.21 167.07 11.21L166.98 11.11L167.10 11.24Q162.24 11.29 160.38 11.98L160.29 11.89L160.26 11.86Q159.04 12.43 158.93 14.10L158.80 13.98L158.81 13.99Q158.82 14.56 159.23 16.77L159.26 16.79L159.30 16.84Q159.91 20.53 162.08 22.78L162.13 22.83L161.99 22.69Q162.85 24.46 164.35 25.15L164.48 25.28L164.31 25.10Q165.94 25.91 169.86 27.47L169.86 27.48L169.71 27.36L170.39 27.74L170.40 27.79L170.50 27.89Q170.68 28.33 170.72 28.67L170.61 28.57L170.78 28.74Q170.83 32.18 166.91 32.33L166.80 32.22L166.90 32.31Q165.74 32.34 164.45 31.96L164.34 31.86L164.30 31.81Q163.96 30.98 163.96 30.26L163.96 30.26L164.15 30.45Q164.12 30.14 164.15 29.88L164.19 29.91L164.06 29.78Q163.74 30.11 162.94 30.60L162.89 30.56L162.83 30.49Q162.30 29.35 162.45 27.98L162.49 28.02L162.61 28.14Q160.51 29.31 158.91 30.72L158.86 30.68L158.91 30.73Q158.93 31.50 159.00 32.53L158.96 32.48L159.02 32.55Q159.21 34.14 160.50 34.90L160.51 34.92L160.52 34.92Q161.78 36.79 164.33 37.17L164.43 37.27L164.30 37.14Q166.01 37.52 168.94 37.71Z"/><path d="M11 1 C92 9,118 18,181 16" stroke="#777" fill="none"/><path d="M4 2 C91 29,113 6,192 19" stroke="#777" fill="none"/><path fill="#222" d="M17.32 9.36L17.17 9.21L17.18 9.21Q21.14 11.93 25.90 12.15L25.91 12.16L25.80 12.05Q30.51 12.31 34.78 10.56L34.63 10.41L34.67 10.45Q34.48 11.06 33.72 13.84L33.65 13.78L33.65 13.78Q31.07 14.96 28.10 15.11L27.91 14.92L27.91 14.93Q25.12 15.26 22.23 14.53L22.11 14.42L22.09 14.40Q22.79 18.02 22.98 21.68L23.01 21.71L22.96 21.66Q25.13 22.04 26.73 22.00L26.71 21.98L26.62 21.89Q27.87 21.93 30.27 21.81L30.24 21.78L30.21 21.76Q30.15 22.38 30.15 23.06L30.14 23.05L30.11 24.36L30.14 24.38Q27.88 24.52 23.08 24.60L23.11 24.63L22.93 24.45Q22.96 28.59 22.39 32.59L22.50 32.69L22.35 32.55Q25.11 32.03 27.85 32.14L27.81 32.10L27.77 32.07Q30.54 32.21 33.13 33.05L33.20 33.11L33.08 33.00Q33.22 33.86 33.48 34.62L33.53 34.67L33.88 36.08L33.88 36.09Q30.64 34.74 27.21 34.74L27.30 34.83L27.32 34.85Q22.46 34.86 18.19 37.11L18.24 37.15L18.19 37.11Q20.42 30.20 20.16 23.08L20.27 23.20L20.16 23.09Q19.85 15.88 17.18 9.22ZM17.72 37.85L17.65 37.78L17.67 37.80Q18.92 37.07 19.68 36.73L19.70 36.75L19.60 36.65Q19.50 37.51 18.93 39.03L18.87 38.97L18.87 38.97Q23.53 37.11 28.59 37.38L28.41 37.20L28.45 37.23Q33.68 37.60 37.68 40.30L37.70 40.32L37.69 40.31Q36.42 37.67 35.73 35.73L35.72 35.72L35.77 35.77Q34.75 35.12 33.76 34.78L33.83 34.85L33.77 34.79Q33.48 33.51 33.33 32.71L33.25 32.64L33.35 32.74Q30.11 31.59 26.95 31.59L27.05 31.69L26.96 31.60Q25.98 31.76 24.83 31.87L24.72 31.76L24.75 31.79Q24.90 30.57 24.94 29.35L24.86 29.27L24.98 26.80L25.00 26.82Q26.92 26.84 28.71 26.87L28.60 26.76L28.52 26.69Q30.51 26.89 32.30 27.04L32.24 26.98L32.31 27.05Q32.12 25.99 32.12 25.03L32.15 25.06L32.22 23.23L31.42 23.30L31.26 23.14Q30.99 23.37 30.53 23.37L30.49 23.33L30.47 23.31Q30.50 22.65 30.65 21.36L30.69 21.40L30.56 21.27Q28.93 21.46 27.75 21.50L27.77 21.52L27.79 21.54Q26.84 21.54 25.01 21.46L25.00 21.45L25.09 21.54Q25.06 20.19 24.87 17.37L24.77 17.26L24.77 17.26Q25.86 17.44 26.85 17.44L26.88 17.47L26.85 17.44Q31.54 17.41 35.23 15.51L35.19 15.46L35.18 15.46Q35.76 13.11 36.64 10.90L36.76 11.02L36.59 10.85Q35.34 11.77 34.50 12.11L34.60 12.20L34.56 12.17Q34.78 11.32 35.23 9.76L35.30 9.83L35.29 9.82Q30.65 11.96 25.78 11.65L25.72 11.59L25.80 11.67Q20.54 11.39 16.69 8.54L16.54 8.38L16.59 8.44Q19.59 15.51 19.90 23.13L19.73 22.96L19.74 22.97Q20.14 30.98 17.62 37.76Z"/><path fill="#222" d="M107.38 25.58L107.39 25.59L107.51 25.72Q107.34 25.55 110.73 25.51L110.76 25.54L110.75 25.53Q113.15 25.64 114.22 25.68L114.20 25.66L114.11 25.57Q113.05 22.69 110.62 17.05L110.75 17.19L110.58 17.02Q110.05 18.47 109.00 21.32L109.00 21.32L109.05 21.37Q107.99 24.22 107.42 25.62ZM115.22 28.05L115.22 28.05L115.23 28.07Q112.93 28.01 110.72 28.04L110.84 28.16L110.83 28.16Q108.64 28.25 106.35 28.44L106.16 28.24L106.35 28.43Q104.65 31.69 101.42 35.88L101.50 35.96L101.55 36.01Q98.86 36.51 97.49 37.01L97.56 37.08L97.57 37.10Q102.69 31.43 107.37 18.07L107.37 18.07L107.29 18.00Q108.51 14.53 109.88 11.29L110.00 11.41L109.97 11.39Q110.36 11.47 110.70 11.47L110.61 11.38L111.33 11.37L111.36 11.41Q112.00 12.65 116.83 24.30L116.93 24.40L116.99 24.46Q120.25 32.28 124.24 36.43L124.28 36.47L124.11 36.30Q123.70 36.27 119.81 35.39L119.89 35.46L119.90 35.48Q117.21 32.21 115.23 28.06ZM119.65 35.64L119.80 35.80L120.31 35.81L120.26 35.76Q120.61 35.88 120.92 36.00L120.96 36.04L120.88 35.96Q121.25 36.37 123.08 38.39L122.96 38.27L123.11 38.42Q126.56 39.13 128.96 40.16L129.10 40.30L129.13 40.33Q123.60 35.75 119.60 27.75L119.56 27.71L119.53 27.68Q117.99 24.47 116.55 20.51L116.53 20.49L113.84 13.05L113.71 12.92Q113.42 12.97 113.19 12.97L113.22 13.00L112.75 13.06L112.69 13.00Q112.40 12.40 111.67 11.03L111.67 11.03L111.60 10.95Q111.05 10.94 110.59 10.90L110.72 11.03L110.69 11.00Q110.19 10.92 109.65 10.92L109.69 10.95L109.67 10.93Q108.18 14.77 104.30 24.94L104.37 25.01L104.42 25.06Q101.25 32.96 96.60 37.76L96.67 37.83L96.56 37.72Q97.58 37.30 99.60 36.69L99.71 36.80L99.69 36.77Q98.85 37.57 97.29 39.36L97.40 39.47L97.34 39.41Q99.02 38.73 102.94 37.97L102.95 37.98L102.89 37.91Q106.49 33.76 108.05 30.52L108.02 30.48L108.01 30.48Q109.75 30.35 112.08 30.39L111.97 30.28L112.09 30.41Q114.83 30.44 116.20 30.52L116.13 30.45L116.07 30.38Q117.38 32.80 119.74 35.73ZM111.94 20.97L112.00 21.03L111.93 20.96Q112.85 23.10 113.62 25.19L113.67 25.25L110.39 25.28L110.35 25.24Q110.89 23.77 111.96 20.99Z"/></svg>