<svg xmlns="http://www.w3.org/2000/svg" width="200" height="40" viewBox="0,0,200,40"><path d="M15 4 C104 25,97 37,183 24" stroke="#333" fill="none"/><path d="M7 22 C101 4,113 23,189 13" stroke="#555" fill="none"/><path fill="#222" d="M110.14 24.09L110.11 24.07L110.25 24.21Q108.42 24.09 107.19 25.52L107.18 25.51L107.10 25.44Q105.76 26.76 105.57 28.66L105.70 28.80L105.57 28.66Q105.36 30.73 106.44 31.70L106.50 31.76L106.45 31.71Q107.60 32.75 109.70 32.64L109.64 32.58L109.79 32.73Q111.75 32.45 112.86 31.76L112.80 31.70L112.89 31.80Q114.11 30.77 114.11 29.21L114.00 29.10L113.96 29.06Q113.96 28.68 113.88 28.30L113.91 28.32L113.91 28.32Q114.10 26.77 113.00 25.41L112.87 25.28L113.01 25.42Q111.83 24.00 110.15 24.11ZM109.83 35.32L109.78 35.27L109.75 35.24Q105.32 35.19 103.92 34.43L103.88 34.40L103.88 34.40Q102.91 33.70 102.72 31.99L102.83 32.09L102.64 31.90Q102.61 31.22 102.65 30.50L102.66 30.51L102.75 30.60Q102.76 29.50 102.76 29.05L102.81 29.11L102.79 29.08Q103.30 26.28 103.45 25.60L103.52 25.67L103.47 25.61Q103.92 23.66 104.76 22.26L104.80 22.29L104.78 22.28Q107.38 17.83 113.31 11.47L113.26 11.42L113.27 11.43Q116.06 11.25 118.27 10.45L118.32 10.51L118.23 10.41Q111.28 17.78 108.08 22.00L108.24 22.16L108.24 22.16Q109.16 21.59 110.45 21.59L110.55 21.69L110.43 21.57Q113.70 21.53 115.22 23.47L115.36 23.61L115.21 23.46Q116.60 25.15 116.94 28.69L117.02 28.77L116.99 28.74Q117.10 29.49 117.10 30.10L117.04 30.05L117.12 30.13Q117.13 33.26 114.93 34.33L114.94 34.34L114.91 34.31Q113.57 34.80 109.69 35.18ZM112.10 37.71L112.05 37.66L111.93 37.53Q113.37 37.64 115.35 37.72L115.22 37.59L115.28 37.65Q116.84 37.64 118.40 36.92L118.45 36.97L118.39 36.92Q119.54 36.16 119.54 34.37L119.61 34.44L119.52 34.35Q119.55 33.89 119.38 32.90L119.52 33.04L119.50 33.01Q119.17 31.88 119.17 31.42L119.30 31.54L119.28 31.52Q118.42 26.82 116.82 24.92L116.70 24.80L116.87 24.97Q116.64 24.70 116.49 24.47L116.63 24.61L116.33 24.39L116.15 24.24L116.23 24.33Q115.90 23.85 115.29 22.89L115.28 22.88L115.16 22.76Q114.24 21.80 112.26 21.34L112.33 21.41L112.35 21.44Q113.64 19.90 116.60 16.21L116.54 16.15L120.83 10.92L120.84 10.92Q119.18 11.71 116.78 12.47L116.80 12.48L116.72 12.41Q117.60 11.38 119.39 9.40L119.38 9.40L119.43 9.45Q117.16 10.63 113.27 11.20L113.18 11.11L113.19 11.12Q107.50 17.05 104.53 21.99L104.42 21.88L104.44 21.90Q102.92 24.42 102.35 30.66L102.43 30.74L102.35 30.66Q102.26 31.22 102.34 32.17L102.44 32.28L102.41 32.25Q102.49 34.00 103.59 34.91L103.56 34.87L103.53 34.85Q104.01 35.10 103.97 35.14L104.02 35.19L104.04 35.21Q104.23 35.93 105.03 36.35L105.06 36.38L105.13 36.45Q106.58 37.14 108.52 37.33L108.60 37.41L108.49 37.30Q108.48 37.28 111.98 37.59ZM111.85 26.45L111.76 26.36L111.89 26.50Q112.27 26.19 113.22 26.68L113.37 26.83L113.34 26.80Q113.64 27.71 113.64 28.35L113.68 28.39L113.64 28.36Q113.87 30.26 112.91 31.25L112.84 31.18L112.95 31.28Q111.89 32.02 109.80 32.32L109.72 32.24L109.64 32.16Q108.22 32.19 107.69 31.92L107.78 32.02L107.82 32.05Q107.52 31.49 107.52 31.19L107.57 31.24L107.55 31.21Q107.39 28.01 110.32 26.72L110.29 26.68L110.30 26.70Q110.98 26.26 111.74 26.34Z"/><path fill="#222" d="M17.24 9.27L17.23 9.26L17.24 9.28Q20.99 11.77 25.75 12.00L25.80 12.05L25.87 12.12Q30.34 12.14 34.60 10.38L34.75 10.53L34.72 10.50Q34.42 11.00 33.66 13.78L33.68 13.80L33.71 13.84Q30.92 14.81 27.95 14.96L27.96 14.97L27.97 14.98Q24.94 15.07 22.04 14.35L22.15 14.46L22.11 14.42Q22.90 18.14 23.09 21.79L23.00 21.70L22.97 21.67Q25.12 22.03 26.72 21.99L26.63 21.90L26.62 21.90Q27.88 21.94 30.28 21.83L30.31 21.85L30.23 21.77Q30.17 22.40 30.17 23.09L30.25 23.16L30.29 24.54L30.12 24.37Q27.78 24.42 22.98 24.50L23.02 24.53L23.08 24.60Q22.97 28.60 22.40 32.60L22.43 32.63L22.37 32.57Q24.99 31.92 27.73 32.03L27.82 32.11L27.79 32.08Q30.56 32.23 33.14 33.06L33.14 33.06L33.05 32.97Q33.17 33.82 33.44 34.58L33.36 34.49L33.86 36.06L33.81 36.01Q30.79 34.90 27.37 34.90L27.35 34.88L27.24 34.77Q22.34 34.74 18.07 36.99L18.22 37.13L18.16 37.08Q20.46 30.24 20.19 23.12L20.28 23.20L20.25 23.17Q19.87 15.91 17.21 9.24ZM17.65 37.78L17.58 37.71L17.69 37.83Q18.83 36.98 19.59 36.64L19.68 36.73L19.71 36.76Q19.40 37.40 18.83 38.92L18.82 38.92L18.96 39.06Q23.43 37.02 28.50 37.28L28.42 37.21L28.52 37.31Q33.66 37.58 37.66 40.28L37.72 40.34L37.75 40.37Q36.57 37.82 35.89 35.88L35.74 35.73L35.81 35.81Q34.79 35.17 33.80 34.83L33.85 34.87L33.76 34.79Q33.51 33.54 33.36 32.74L33.28 32.67L33.30 32.69Q30.23 31.71 27.08 31.71L26.96 31.60L26.98 31.62Q25.93 31.71 24.78 31.82L24.74 31.78L24.84 31.88Q24.79 30.46 24.83 29.24L24.85 29.26L25.07 26.90L24.91 26.74Q26.91 26.83 28.70 26.87L28.53 26.70L28.57 26.74Q30.45 26.83 32.24 26.98L32.29 27.03L32.32 27.06Q32.21 26.07 32.21 25.12L32.23 25.15L32.22 23.23L31.39 23.27L31.29 23.17Q31.03 23.41 30.57 23.41L30.50 23.33L30.53 23.37Q30.41 22.57 30.57 21.27L30.71 21.41L30.73 21.43Q29.01 21.55 27.83 21.59L27.90 21.65L27.92 21.67Q26.88 21.58 25.05 21.51L25.16 21.62L25.15 21.60Q25.00 20.12 24.81 17.31L24.80 17.30L24.89 17.38Q25.86 17.44 26.85 17.44L26.88 17.47L26.80 17.39Q31.60 17.47 35.29 15.56L35.32 15.60L35.33 15.61Q35.76 13.10 36.64 10.90L36.61 10.87L36.76 11.02Q35.25 11.68 34.42 12.03L34.55 12.16L34.47 12.08Q34.91 11.46 35.37 9.90L35.25 9.78L35.19 9.71Q30.64 11.94 25.76 11.63L25.70 11.57L25.80 11.67Q20.38 11.23 16.53 8.38L16.53 8.38L16.61 8.46Q19.50 15.42 19.81 23.04L19.74 22.97L19.86 23.09Q20.16 31.01 17.65 37.78Z"/><path fill="#333" d="M135.87 14.46L135.80 14.39L135.68 14.27Q136.53 18.50 136.68 22.08L136.81 22.21L136.80 22.21Q137.83 22.21 138.90 22.21L138.92 22.23L141.05 22.16L141.09 22.19Q142.14 22.18 143.02 20.77L143.01 20.76L143.10 20.85Q143.83 19.68 143.95 18.50L143.88 18.43L143.90 18.46Q144.19 15.35 139.96 14.86L139.96 14.85L140.02 14.92Q138.41 14.95 135.79 14.38ZM136.71 24.85L136.80 24.94L136.88 25.03Q136.71 31.14 135.57 35.56L135.60 35.59L135.50 35.49Q134.05 35.90 131.73 36.97L131.73 36.97L131.78 37.02Q134.08 30.30 133.81 23.03L133.89 23.10L133.88 23.09Q133.54 15.67 130.76 9.24L130.79 9.27L130.75 9.23Q135.06 12.17 141.31 12.17L141.17 12.03L141.25 12.12Q147.21 12.02 147.36 15.48L147.45 15.57L147.51 15.63Q147.59 18.07 146.60 20.73L146.47 20.61L146.56 20.69Q146.03 21.69 145.08 22.91L145.20 23.03L145.14 22.97Q143.94 24.70 141.39 24.97L141.27 24.84L141.26 24.84Q138.98 24.84 136.73 24.88ZM142.96 27.22L142.95 27.22L143.01 27.28Q147.02 27.36 148.28 22.57L148.28 22.57L148.34 22.63Q149.23 18.91 149.08 16.90L149.18 17.00L149.23 17.04Q149.12 15.53 148.36 14.54L148.22 14.40L148.20 14.38Q147.92 14.10 147.43 13.87L147.34 13.78L147.48 13.93Q147.48 13.77 146.87 13.01L146.85 12.99L146.74 12.88Q145.19 11.56 141.23 11.56L141.37 11.70L141.39 11.72Q134.47 11.69 130.24 8.53L130.09 8.37L130.09 8.38Q133.26 15.46 133.52 22.92L133.66 23.06L133.52 22.92Q133.87 30.66 131.21 37.74L131.27 37.80L131.16 37.69Q132.26 37.08 133.25 36.69L133.25 36.70L132.85 37.82L132.93 37.90Q132.70 38.43 132.43 39.00L132.52 39.09L132.45 39.02Q134.81 37.92 137.70 37.38L137.75 37.43L137.77 37.45Q138.64 31.96 138.71 27.24L138.65 27.17L138.78 27.31Q139.72 27.07 140.71 27.07L140.82 27.17L140.75 27.11Q142.09 27.12 142.89 27.15ZM141.93 17.21L141.96 17.24L142.08 17.36Q142.50 17.28 143.49 17.51L143.46 17.48L143.41 17.43Q143.51 17.64 143.55 17.95L143.71 18.11L143.63 18.03Q143.66 18.29 143.59 18.56L143.59 18.57L143.59 18.56Q143.52 19.83 142.80 20.71L142.70 20.60L142.80 20.71Q142.18 21.72 141.15 21.91L141.13 21.89L141.24 22.00Q140.35 21.84 138.72 21.84L138.83 21.95L138.66 21.78Q138.80 19.67 138.57 17.31L138.52 17.26L140.26 17.33L140.15 17.21Q141.17 17.40 142.05 17.33Z"/><path fill="#333" d="M164.19 24.60L164.23 24.64L164.31 24.72Q164.27 28.94 163.54 33.09L163.50 33.05L163.44 32.99Q165.68 32.41 168.76 32.29L168.78 32.31L168.86 32.39Q170.12 32.51 171.18 31.50L171.22 31.54L171.29 31.60Q172.39 30.64 172.39 29.30L172.29 29.20L172.22 29.13Q172.33 28.94 172.29 28.67L172.23 28.61L172.19 28.57Q172.06 25.66 169.81 24.82L169.83 24.84L169.95 24.96Q169.15 24.61 168.46 24.68L168.39 24.61L168.43 24.65Q167.41 24.63 166.39 24.67L166.30 24.58L166.27 24.55Q165.23 24.61 164.20 24.61ZM162.95 14.14L163.09 14.29L163.07 14.27Q163.87 17.51 164.14 21.89L164.07 21.82L164.23 21.97Q165.55 21.97 168.22 22.01L168.29 22.08L168.18 21.97Q171.28 22.18 171.63 18.64L171.49 18.51L171.50 18.51Q171.79 16.67 170.39 15.84L170.26 15.71L170.36 15.81Q169.40 15.23 164.98 14.58L164.96 14.56L165.08 14.68Q163.93 14.44 163.01 14.21ZM159.30 37.03L159.29 37.03L159.45 37.18Q161.93 30.53 161.67 23.15L161.55 23.02L161.58 23.06Q161.30 15.78 158.37 9.30L158.36 9.30L158.37 9.30Q162.13 11.81 168.35 12.05L168.33 12.03L168.36 12.06Q174.67 12.40 175.02 15.29L174.86 15.13L174.95 15.22Q175.21 17.92 173.80 20.58L173.94 20.72L173.81 20.59Q173.17 22.20 171.57 22.89L171.57 22.89L171.54 22.85Q175.22 23.56 175.44 28.93L175.42 28.90L175.35 28.84Q175.54 30.05 175.46 31.46L175.40 31.40L175.41 31.41Q175.39 32.76 174.46 33.69L174.36 33.59L174.45 33.68Q173.41 34.50 172.07 34.66L172.10 34.68L172.24 34.83Q170.76 34.90 169.69 34.90L169.61 34.82L169.68 34.89Q163.84 34.76 159.31 37.05ZM172.09 37.33L172.18 37.42L172.17 37.42Q173.03 37.40 174.89 37.51L175.05 37.67L175.01 37.63Q176.43 37.68 177.53 36.80L177.53 36.80L177.38 36.65Q178.33 35.89 178.22 34.33L178.13 34.24L178.20 34.31Q178.16 33.39 177.44 29.93L177.28 29.77L177.43 29.92Q176.75 26.69 174.88 25.21L174.75 25.07L174.40 24.30L174.37 24.27Q176.15 22.97 176.72 19.20L176.60 19.08L176.73 19.21Q176.77 17.96 176.69 16.55L176.70 16.56L176.77 16.63Q176.70 15.29 175.59 14.46L175.49 14.36L175.67 14.54Q175.18 14.16 175.07 14.12L175.03 14.08L175.06 14.12Q174.81 13.60 173.98 12.80L174.03 12.86L174.00 12.83Q172.44 11.73 168.22 11.54L168.29 11.61L168.26 11.58Q161.59 11.27 157.60 8.38L157.67 8.45L157.60 8.38Q161.00 15.51 161.31 23.05L161.33 23.08L161.27 23.01Q161.53 30.78 158.71 37.70L158.69 37.68L160.78 36.76L160.89 36.87Q160.45 37.96 159.96 39.10L159.91 39.05L160.02 39.17Q164.32 37.29 169.34 37.29L169.31 37.26L169.34 37.29Q170.79 37.33 172.24 37.48ZM170.10 26.93L170.05 26.88L169.95 26.78Q170.82 26.85 171.73 27.31L171.68 27.26L171.70 27.28Q171.83 27.64 171.98 28.70L171.94 28.66L171.91 28.63Q172.13 30.03 171.20 31.08L171.18 31.06L171.18 31.06Q170.22 32.08 168.82 31.97L168.84 32.00L167.41 32.16L167.29 32.04Q166.67 32.22 165.94 32.33L165.87 32.26L165.84 32.23Q166.15 30.41 166.23 26.95L166.32 27.04L166.21 26.93Q166.81 26.81 168.07 26.77L168.12 26.82L168.24 26.94Q169.41 26.81 170.02 26.85ZM169.01 17.28L168.89 17.16L169.36 17.24L169.38 17.27Q169.52 17.18 169.71 17.22L169.86 17.37L170.21 17.34L170.58 17.51L171.17 17.57L171.20 17.60Q171.11 17.67 171.11 17.97L171.21 18.07L171.15 18.54L171.19 18.58Q171.23 19.87 170.35 20.81L170.29 20.74L170.34 20.79Q169.49 21.75 168.27 21.75L168.29 21.77L168.20 21.69Q167.26 21.77 167.26 21.77L167.13 21.64L167.28 21.79Q165.88 21.68 166.22 21.68L166.26 21.72L166.22 21.68Q166.09 20.07 165.79 17.03L165.77 17.01L165.77 17.01Q167.52 17.31 169.04 17.31Z"/><path fill="#222" d="M45.64 9.39L45.50 9.25L45.50 9.25Q49.35 11.85 54.11 12.08L54.04 12.00L54.07 12.03Q58.74 12.25 63.01 10.50L62.99 10.49L63.08 10.58Q62.71 11.01 61.95 13.79L62.08 13.92L61.98 13.82Q59.32 14.93 56.36 15.08L56.38 15.11L56.28 15.01Q53.22 15.07 50.33 14.35L50.44 14.46L50.38 14.40Q51.08 18.03 51.27 21.68L51.32 21.73L51.30 21.72Q53.39 22.01 54.99 21.97L54.98 21.97L54.84 21.83Q56.06 21.83 58.46 21.72L58.55 21.81L58.56 21.82Q58.41 22.35 58.41 23.03L58.53 23.16L58.43 24.39L58.55 24.51Q56.09 24.45 51.29 24.52L51.22 24.45L51.33 24.56Q51.38 28.72 50.81 32.72L50.70 32.61L50.76 32.68Q53.31 31.94 56.05 32.06L56.00 32.01L56.11 32.12Q58.87 32.25 61.46 33.09L61.47 33.10L61.32 32.95Q61.54 33.89 61.80 34.65L61.73 34.58L62.21 36.12L62.17 36.08Q59.07 34.89 55.64 34.89L55.62 34.86L55.55 34.80Q50.75 34.87 46.49 37.12L46.41 37.04L46.46 37.09Q48.66 30.15 48.39 23.03L48.42 23.06L48.56 23.20Q48.15 15.90 45.48 9.23ZM45.96 37.81L45.89 37.74L45.96 37.80Q47.13 37.00 47.89 36.65L48.00 36.76L48.03 36.79Q47.78 37.50 47.21 39.02L47.16 38.97L47.27 39.08Q51.81 37.11 56.87 37.37L56.86 37.36L56.84 37.35Q61.96 37.59 65.96 40.29L65.99 40.33L66.03 40.37Q64.78 37.75 64.10 35.81L64.13 35.84L64.07 35.78Q63.07 35.16 62.08 34.81L62.07 34.81L62.11 34.85Q61.73 33.48 61.58 32.68L61.64 32.74L61.65 32.75Q58.51 31.70 55.35 31.70L55.27 31.62L55.33 31.69Q54.11 31.60 52.96 31.72L53.14 31.89L53.05 31.80Q53.18 30.56 53.22 29.34L53.20 29.33L53.27 26.80L53.30 26.83Q55.20 26.84 56.99 26.87L56.94 26.82L56.80 26.68Q58.67 26.77 60.46 26.92L60.58 27.04L60.45 26.90Q60.39 25.97 60.39 25.02L60.45 25.08L60.44 23.16L59.59 23.19L59.56 23.16Q59.15 23.24 58.69 23.24L58.78 23.33L58.71 23.26Q58.67 22.53 58.82 21.24L58.90 21.32L58.95 21.37Q57.23 21.48 56.05 21.52L56.16 21.63L56.18 21.65Q55.25 21.67 53.42 21.59L53.35 21.52L53.42 21.59Q53.20 20.03 53.01 17.22L53.03 17.24L53.06 17.27Q54.08 17.38 55.07 17.38L55.19 17.50L55.13 17.43Q59.75 17.33 63.44 15.43L63.46 15.44L63.44 15.43Q64.10 13.16 64.98 10.95L64.90 10.87L65.02 11.00Q63.66 11.80 62.82 12.14L62.71 12.03L62.73 12.06Q63.01 11.27 63.47 9.71L63.64 9.88L63.49 9.73Q58.83 11.85 53.96 11.54L54.11 11.69L53.96 11.54Q48.67 11.24 44.82 8.39L44.98 8.54L44.96 8.52Q47.79 15.43 48.10 23.04L48.07 23.02L48.05 22.99Q48.42 30.98 45.91 37.76Z"/><path fill="#222" d="M78.71 35.40L78.74 35.43L78.62 35.31Q77.16 35.34 75.60 34.92L75.74 35.06L75.74 35.05Q74.38 34.00 74.23 32.36L74.41 32.54L74.35 32.49Q74.19 32.17 74.38 29.54L74.45 29.62L74.53 29.70Q75.44 29.39 77.46 29.01L77.51 29.06L77.41 29.91L77.36 29.86Q77.00 31.52 78.41 32.09L78.48 32.16L78.45 32.13Q79.19 32.42 81.28 32.42L81.45 32.59L81.43 32.56Q83.04 32.42 83.23 32.34L83.14 32.25L83.12 32.23Q84.15 32.20 84.87 31.70L84.83 31.66L84.86 31.69Q86.28 30.75 86.09 28.66L85.94 28.51L85.98 28.54Q85.72 26.04 83.99 24.48L84.18 24.67L84.04 24.53Q82.26 22.92 79.78 22.92L79.82 22.96L79.88 22.79L79.95 22.86Q80.29 22.78 81.17 22.71L81.20 22.74L81.19 22.73Q83.04 22.56 84.41 21.32L84.41 21.32L84.48 21.39Q85.79 20.09 85.94 18.23L85.87 18.16L85.96 18.24Q86.07 17.94 86.07 17.59L86.02 17.55L86.05 17.58Q86.09 16.09 84.72 15.18L84.71 15.17L84.59 15.05Q83.41 14.29 81.82 14.41L81.85 14.44L81.86 14.45Q80.57 14.30 79.35 14.72L79.21 14.58L79.35 14.72Q77.77 15.12 77.47 16.26L77.49 16.29L77.54 16.34Q77.34 17.09 77.41 17.85L77.39 17.83L77.36 17.80Q76.32 17.55 74.26 16.83L74.29 16.86L74.42 16.99Q74.13 15.25 74.17 14.42L74.08 14.32L74.14 14.38Q74.24 12.84 75.30 12.16L75.28 12.13L75.39 12.25Q76.79 11.62 78.38 11.62L78.41 11.65L78.32 11.56Q81.48 11.53 84.64 11.79L84.63 11.77L84.61 11.76Q89.66 12.16 89.36 15.93L89.50 16.07L89.35 15.92Q89.43 17.56 88.93 19.12L88.95 19.14L88.84 19.04Q87.89 22.08 85.53 22.99L85.51 22.98L85.49 22.96Q88.19 23.56 88.80 26.91L88.86 26.97L88.89 27.00Q89.00 28.03 89.08 30.04L89.08 30.05L89.15 30.12Q89.30 34.57 84.69 35.03L84.70 35.03L84.73 35.07Q83.88 35.01 78.58 35.27ZM83.83 37.55L83.83 37.55L83.93 37.65Q84.48 37.63 87.34 37.71L87.36 37.73L87.27 37.64Q89.14 37.84 90.78 37.19L90.63 37.04L90.63 37.04Q91.93 36.21 91.74 34.46L91.73 34.45L91.73 34.44Q91.61 33.11 91.30 31.36L91.28 31.33L91.24 31.29Q90.61 26.90 88.67 25.26L88.61 25.20L88.39 24.79L88.48 24.84L88.40 24.76Q90.06 23.22 90.82 18.84L90.91 18.93L90.88 18.90Q90.99 18.52 91.10 17.56L91.00 17.46L91.09 17.55Q91.22 16.85 91.15 16.16L91.01 16.03L91.00 16.02Q90.90 14.40 89.61 13.71L89.52 13.63L89.61 13.79L89.61 13.79Q89.29 12.78 88.15 12.25L88.07 12.18L88.11 12.21Q86.54 11.48 81.40 11.18L81.33 11.11L81.52 11.30Q79.81 11.19 78.21 11.19L78.21 11.18L78.17 11.14Q76.48 11.05 74.95 11.69L74.97 11.71L75.04 11.78Q73.75 12.47 73.75 14.22L73.83 14.31L73.73 14.20Q73.90 13.96 74.17 17.31L74.11 17.24L74.17 17.31Q74.42 17.33 76.06 17.94L76.04 17.93L76.04 17.92Q75.99 18.40 75.95 18.90L75.94 18.89L75.96 18.90Q76.05 19.50 76.09 20.03L76.09 20.02L76.01 19.95Q77.80 20.33 79.82 20.44L79.81 20.44L79.90 20.53Q79.69 18.37 80.79 17.53L80.91 17.65L80.87 17.61Q81.76 17.02 83.78 16.79L83.73 16.74L83.73 16.74Q84.83 16.70 85.40 16.89L85.47 16.96L85.37 16.85Q85.40 16.96 85.43 17.07L85.55 17.19L85.59 17.43L85.59 17.88L85.62 17.91Q85.58 18.05 85.54 18.21L85.52 18.19L85.65 18.32Q85.60 20.06 84.08 21.24L84.01 21.17L83.89 21.06Q83.00 21.99 80.99 22.18L81.06 22.26L81.01 22.21Q80.38 22.45 79.51 22.45L79.35 22.30L79.46 22.41Q79.57 22.82 79.72 23.51L79.69 23.47L79.69 23.47Q81.40 23.43 82.84 24.15L82.84 24.15L82.67 24.09L81.18 24.36L81.25 24.43Q81.13 24.61 81.25 25.22L81.25 25.23L81.38 25.35Q83.44 25.21 85.15 26.54L85.14 26.52L85.17 26.56Q85.42 26.96 85.72 28.59L85.60 28.48L85.72 28.59Q85.92 31.53 82.99 31.95L83.00 31.97L82.97 31.94Q80.79 32.12 80.22 32.08L80.28 32.14L80.34 32.20Q79.76 31.96 79.23 31.89L79.39 32.04L79.30 31.49L79.37 30.99L79.39 30.60L79.58 30.44L79.43 30.29Q78.46 30.35 77.66 30.54L77.67 30.55L77.78 30.66Q77.61 30.30 77.61 30.11L77.69 30.20L77.64 30.15Q77.71 29.98 77.71 29.75L77.79 29.83L77.64 29.68Q77.76 29.35 77.91 28.62L78.03 28.74L77.87 28.58Q76.04 28.85 74.18 29.19L74.10 29.12L74.12 29.13Q74.18 29.69 74.07 30.82L74.15 30.90L74.06 30.81Q73.90 31.88 73.90 32.49L73.91 32.50L73.88 32.47Q73.98 34.55 75.35 35.31L75.44 35.40L75.44 35.40Q76.99 37.76 81.71 37.57L81.65 37.51L81.56 37.41Q82.38 37.47 83.90 37.62Z"/></svg>