<svg xmlns="http://www.w3.org/2000/svg" width="200" height="40" viewBox="0,0,200,40"><path fill="#333" d="M53.46 35.29L53.37 35.20L53.37 35.20Q49.90 35.32 48.27 34.78L48.37 34.89L48.28 34.80Q46.32 34.17 46.01 30.78L45.99 30.76L47.51 29.76L47.43 29.68Q48.26 29.26 49.02 28.77L48.85 28.59L48.95 28.69Q48.74 30.65 50.34 31.87L50.29 31.82L50.26 31.79Q51.64 32.90 53.77 32.71L53.72 32.66L53.75 32.69Q57.99 32.13 57.80 28.59L57.97 28.77L57.87 28.67Q57.65 26.35 55.02 25.13L55.08 25.19L55.05 25.16Q52.17 24.07 49.81 22.85L49.87 22.91L49.95 22.99Q47.25 21.51 46.26 16.83L46.28 16.85L46.40 16.96Q46.27 16.50 46.16 15.74L46.21 15.79L46.16 15.74Q46.01 14.90 46.08 14.33L46.11 14.36L46.21 14.45Q46.29 12.78 47.55 12.33L47.54 12.32L47.54 12.32Q49.89 11.40 53.89 11.59L53.99 11.69L53.96 11.66Q55.83 11.81 56.63 11.89L56.51 11.77L56.54 11.80Q58.07 12.04 59.14 12.50L59.04 12.40L59.06 12.42Q61.28 13.00 61.50 15.47L61.45 15.42L61.46 15.43Q60.39 16.11 58.18 17.44L58.18 17.44L58.19 17.45Q57.80 14.47 53.42 14.47L53.44 14.49L53.33 14.38Q51.45 14.41 50.46 15.09L50.56 15.19L50.45 15.08Q49.25 15.55 49.48 17.34L49.45 17.32L49.48 17.34Q49.72 19.53 52.69 21.05L52.83 21.18L52.69 21.05Q53.35 21.40 57.84 23.04L57.83 23.03L57.90 23.10Q60.52 24.58 60.94 28.96L60.91 28.92L60.93 28.95Q60.85 29.02 60.93 30.28L60.93 30.28L61.01 30.36Q60.98 33.03 59.41 34.13L59.35 34.07L59.42 34.13Q57.59 35.12 53.40 35.24ZM55.79 37.71L55.80 37.71L55.69 37.61Q57.16 37.70 59.13 37.70L59.06 37.62L59.12 37.68Q61.20 37.66 62.45 37.25L62.56 37.35L62.43 37.22Q63.81 36.55 63.73 34.76L63.67 34.69L63.61 34.64Q63.65 33.72 63.27 31.66L63.19 31.58L63.14 31.53Q62.36 26.99 60.26 25.12L60.12 24.98L60.20 25.06Q59.40 23.46 58.07 22.74L58.05 22.72L52.76 20.66L52.84 20.75Q52.57 20.62 52.11 20.40L52.04 20.32L52.00 20.02L51.83 19.50L51.81 19.49Q51.62 18.04 52.77 17.43L52.80 17.46L52.88 17.54Q53.53 16.86 55.24 16.67L55.28 16.71L55.26 16.69Q56.46 16.63 57.60 17.09L57.57 17.06L57.58 17.06Q57.78 17.30 57.97 18.14L57.85 18.03L57.79 17.97Q58.05 17.88 58.54 17.65L58.47 17.58L58.49 17.60Q59.31 18.61 59.42 19.75L59.38 19.71L59.34 19.67Q59.42 19.63 63.08 17.04L63.18 17.15L63.11 17.08Q62.83 14.44 61.39 13.76L61.45 13.81L61.48 13.85Q60.80 12.48 59.35 11.95L59.38 11.97L59.43 12.03Q57.06 11.14 53.86 11.14L53.88 11.16L53.88 11.16Q49.11 11.30 47.25 11.99L47.08 11.82L47.13 11.87Q45.79 12.32 45.68 14.00L45.71 14.03L45.73 14.05Q45.68 14.57 46.10 16.78L46.07 16.75L46.14 16.82Q46.70 20.46 48.87 22.71L49.03 22.87L48.92 22.76Q49.83 24.58 51.33 25.27L51.31 25.24L51.25 25.19Q52.78 25.90 56.70 27.46L56.69 27.45L56.63 27.42L57.32 27.81L57.42 27.95L57.26 27.79Q57.47 28.26 57.50 28.60L57.48 28.58L57.55 28.65Q57.53 32.01 53.61 32.17L53.60 32.17L53.61 32.17Q52.54 32.28 51.25 31.90L51.30 31.95L51.20 31.85Q50.98 31.14 50.98 30.42L50.86 30.29L50.96 30.40Q50.99 30.16 51.03 29.90L50.99 29.86L51.05 29.91Q50.55 30.07 49.75 30.56L49.84 30.64L49.83 30.64Q49.15 29.35 49.30 27.98L49.35 28.02L49.36 28.04Q47.29 29.24 45.69 30.65L45.69 30.64L45.62 30.58Q45.76 31.48 45.84 32.51L45.85 32.52L45.75 32.42Q46.12 34.20 47.41 34.96L47.54 35.09L47.52 35.06Q48.62 36.77 51.17 37.16L51.20 37.18L51.17 37.16Q52.86 37.51 55.79 37.71Z"/><path d="M15 5 C120 16,87 32,197 33" stroke="#333" fill="none"/><path fill="#111" d="M112.61 27.10L103.37 17.09L103.45 17.18Q104.30 20.89 104.30 24.62L104.17 24.49L104.24 24.56Q104.31 30.60 102.25 36.16L102.16 36.07L102.23 36.13Q101.06 36.30 98.82 37.06L98.97 37.22L98.81 37.06Q101.75 31.39 101.75 24.69L101.64 24.58L101.74 24.68Q101.67 15.97 97.17 8.54L97.23 8.60L97.30 8.67Q97.60 8.71 98.29 9.12L98.32 9.15L98.41 9.25Q110.38 20.34 118.22 29.59L118.22 29.59L118.36 29.73Q117.99 27.23 117.99 24.79L117.93 24.73L117.87 24.67Q117.99 17.56 120.50 11.35L120.51 11.35L120.55 11.40Q122.82 10.81 124.42 10.13L124.45 10.16L124.38 10.09Q121.09 16.28 120.78 23.43L120.78 23.43L120.76 23.42Q120.51 30.81 123.48 36.98L123.50 37.00L123.40 36.90Q122.92 36.92 122.50 36.73L122.50 36.72L122.51 36.73Q117.88 32.71 112.66 27.15L112.64 27.13ZM126.01 40.08L126.12 40.19L126.09 40.16Q126.59 40.36 127.01 40.55L126.98 40.52L127.88 40.93L127.85 40.89Q122.54 33.80 122.54 24.43L122.66 24.54L122.63 24.52Q122.55 17.21 125.87 10.97L126.01 11.11L126.04 11.15Q125.39 11.36 123.98 11.97L123.94 11.94L123.91 11.91Q124.25 11.02 125.09 9.46L125.02 9.40L125.08 9.45Q122.73 10.46 120.29 11.03L120.23 10.97L120.26 10.99Q117.58 17.42 117.58 24.84L117.58 24.84L117.52 24.78Q117.53 26.65 117.72 28.63L117.74 28.65L117.70 28.61Q113.09 22.98 108.34 18.37L108.28 18.32L98.24 8.66L98.34 8.76Q97.65 8.34 96.44 7.77L96.44 7.77L96.44 7.77Q101.39 15.58 101.39 24.67L101.44 24.72L101.44 24.73Q101.43 31.83 98.35 37.85L98.18 37.68L98.25 37.75Q98.53 37.61 100.17 37.00L100.19 37.02L100.25 37.09Q99.95 37.90 99.12 39.38L99.11 39.37L99.17 39.43Q100.42 38.82 103.89 38.02L103.84 37.97L103.97 38.10Q106.27 31.95 106.27 24.75L106.15 24.64L106.27 24.76Q106.12 22.51 105.89 20.38L106.02 20.51L105.88 20.37Q117.50 33.32 126.10 40.17Z"/><path fill="#111" d="M133.74 14.16L133.81 14.22L133.82 14.23Q134.99 18.76 135.14 21.96L135.08 21.89L135.01 21.82Q135.46 21.82 139.84 21.94L139.86 21.95L139.94 22.03Q142.39 21.97 142.77 18.51L142.89 18.62L142.76 18.50Q143.07 16.86 142.15 15.95L142.07 15.86L142.15 15.95Q140.82 14.99 138.84 14.84L138.94 14.94L138.92 14.92Q135.61 14.61 133.74 14.16ZM135.22 23.86L135.15 23.79L135.16 23.80Q135.35 29.82 133.57 35.76L133.60 35.80L133.59 35.78Q132.24 35.99 129.65 37.02L129.64 37.01L129.68 37.05Q132.62 30.66 132.28 23.20L132.22 23.14L132.28 23.20Q131.87 15.75 128.56 9.24L128.51 9.20L128.50 9.18Q133.44 12.06 140.40 12.06L140.44 12.10L140.40 12.06Q146.08 12.11 146.34 15.65L146.27 15.57L146.32 15.62Q146.41 16.25 146.34 16.86L146.24 16.76L146.30 18.04L146.27 18.01Q145.44 21.94 143.31 23.65L143.26 23.60L143.36 23.71Q142.46 24.29 141.44 24.29L141.36 24.21L138.79 24.23L138.77 24.21Q144.45 31.53 148.98 36.10L148.99 36.11L148.90 36.02Q146.85 35.42 143.92 35.08L143.78 34.94L143.90 35.05Q140.14 31.10 135.23 23.87ZM143.64 35.29L143.63 35.28L144.00 35.35L145.37 36.71L145.31 36.65Q145.89 37.19 146.53 37.80L146.52 37.78L146.60 37.87Q149.97 38.31 153.55 40.17L153.66 40.28L153.57 40.20Q146.76 33.57 141.36 26.65L141.36 26.65L143.09 26.63L142.97 26.51Q146.12 26.57 147.45 22.04L147.55 22.15L147.51 22.11Q148.13 19.83 148.13 17.12L148.09 17.09L148.17 17.17Q148.16 14.87 146.44 14.22L146.47 14.25L146.45 14.23Q146.35 13.86 145.78 13.18L145.70 13.10L145.84 13.24Q144.08 11.71 140.43 11.63L140.38 11.58L140.43 11.64Q132.60 11.54 127.92 8.53L127.87 8.48L127.78 8.39Q131.58 15.27 131.92 22.96L131.93 22.97L131.87 22.91Q132.24 30.89 129.12 37.75L129.15 37.78L129.15 37.78Q130.33 37.13 131.13 36.82L131.19 36.89L130.26 39.23L130.27 39.24Q132.87 38.07 135.54 37.58L135.67 37.71L135.59 37.63Q136.97 32.62 137.16 27.40L137.05 27.29L137.17 27.41Q140.49 32.18 143.65 35.30ZM142.38 17.35L142.57 17.54L142.55 17.52Q142.59 17.80 142.59 18.14L142.58 18.12L142.58 18.69L142.60 18.72Q142.60 19.82 141.91 20.77L141.76 20.61L141.73 20.59Q141.12 21.35 140.21 21.54L140.32 21.65L140.40 21.73Q140.07 21.67 138.47 21.71L138.56 21.80L138.51 21.75Q138.00 21.84 137.16 21.73L137.10 21.67L137.11 21.68Q136.86 20.02 136.51 16.97L136.52 16.98L136.60 17.05Q137.95 17.19 138.64 17.19L138.76 17.31L138.72 17.28Q140.52 17.25 142.46 17.44Z"/><path fill="#222" d="M162.04 14.18L161.98 14.11L162.01 14.14Q163.15 18.63 163.30 21.83L163.24 21.77L163.25 21.77Q163.87 21.94 168.25 22.06L168.13 21.94L168.23 22.04Q170.70 21.99 171.08 18.53L171.07 18.52L171.05 18.50Q171.28 16.78 170.36 15.87L170.32 15.83L170.50 16.01Q169.20 15.09 167.22 14.94L167.11 14.83L167.13 14.85Q163.96 14.68 162.09 14.22ZM163.38 23.74L163.52 23.87L163.36 23.72Q163.68 29.86 161.90 35.80L161.88 35.79L161.81 35.72Q160.64 36.10 158.05 37.13L158.02 37.10L158.10 37.18Q160.90 30.65 160.55 23.19L160.50 23.14L160.48 23.12Q160.16 15.76 156.85 9.25L156.96 9.36L156.86 9.26Q161.74 12.08 168.71 12.08L168.65 12.03L168.76 12.14Q174.28 12.02 174.54 15.56L174.62 15.63L174.61 15.62Q174.74 16.29 174.66 16.90L174.66 16.90L174.60 18.05L174.60 18.06Q173.75 21.96 171.62 23.68L171.49 23.55L171.63 23.68Q170.69 24.23 169.66 24.23L169.82 24.39L167.08 24.24L167.22 24.38Q172.68 31.47 177.21 36.04L177.35 36.19L177.18 36.01Q175.07 35.35 172.14 35.01L172.14 35.01L172.15 35.02Q168.39 31.07 163.48 23.84ZM172.08 35.45L171.93 35.29L172.32 35.38L173.66 36.72L173.63 36.68Q174.21 37.23 174.86 37.84L174.89 37.87L174.80 37.78Q178.42 38.47 182.00 40.34L181.93 40.27L181.99 40.32Q175.04 33.56 169.63 26.63L169.51 26.51L171.35 26.61L171.35 26.61Q174.43 26.60 175.77 22.07L175.71 22.02L175.85 22.16Q176.47 19.88 176.47 17.18L176.35 17.06L176.49 17.20Q176.40 14.83 174.69 14.18L174.63 14.12L174.75 14.24Q174.64 13.86 174.06 13.18L174.07 13.18L174.13 13.24Q172.28 11.62 168.63 11.55L168.73 11.64L168.64 11.56Q160.78 11.43 156.10 8.42L156.14 8.47L156.18 8.50Q159.84 15.25 160.18 22.94L160.21 22.96L160.27 23.02Q160.63 31.00 157.51 37.85L157.50 37.84L157.44 37.79Q158.76 37.28 159.56 36.97L159.53 36.94L158.44 39.12L158.46 39.14Q161.34 38.26 164.00 37.76L163.92 37.67L163.87 37.63Q165.16 32.52 165.35 27.31L165.37 27.33L165.43 27.39Q168.77 32.17 171.93 35.29ZM170.68 17.37L170.85 17.54L170.79 17.48Q170.80 17.72 170.80 18.06L170.82 18.08L170.70 18.53L170.89 18.72Q170.77 19.70 170.08 20.65L170.17 20.74L170.15 20.72Q169.54 21.48 168.62 21.67L168.53 21.58L168.54 21.59Q168.27 21.58 166.67 21.62L166.69 21.63L166.69 21.64Q166.16 21.72 165.32 21.60L165.35 21.63L165.29 21.57Q165.20 20.07 164.85 17.02L164.99 17.16L164.99 17.16Q166.35 17.30 167.03 17.30L167.01 17.28L166.97 17.24Q168.73 17.17 170.67 17.36Z"/><path d="M10 33 C81 38,117 27,197 8" stroke="#777" fill="none"/><path fill="#111" d="M17.32 9.36L17.24 9.28L17.32 9.36Q21.00 11.78 25.75 12.01L25.82 12.07L25.78 12.03Q30.51 12.31 34.78 10.56L34.66 10.45L34.74 10.53Q34.52 11.10 33.76 13.88L33.76 13.88L33.68 13.80Q30.99 14.88 28.02 15.03L28.00 15.01L27.96 14.97Q25.09 15.22 22.19 14.50L22.06 14.37L22.11 14.41Q22.91 18.15 23.10 21.80L22.95 21.65L22.96 21.66Q25.11 22.02 26.71 21.98L26.62 21.89L26.60 21.88Q27.81 21.86 30.21 21.75L30.20 21.74L30.21 21.75Q30.17 22.39 30.17 23.08L30.21 23.12L30.29 24.54L30.16 24.40Q27.72 24.37 22.93 24.44L22.97 24.49L23.04 24.55Q23.11 28.74 22.54 32.73L22.52 32.72L22.41 32.60Q25.16 32.08 27.90 32.20L27.91 32.20L27.82 32.12Q30.57 32.24 33.16 33.08L33.04 32.96L33.19 33.11Q33.08 33.73 33.35 34.49L33.40 34.53L33.97 36.17L33.94 36.14Q30.69 34.79 27.26 34.79L27.19 34.72L27.21 34.74Q22.40 34.81 18.14 37.05L18.15 37.07L18.18 37.09Q20.51 30.28 20.24 23.17L20.19 23.12L20.21 23.14Q19.83 15.87 17.17 9.20ZM17.73 37.87L17.55 37.68L17.73 37.87Q18.87 37.02 19.63 36.68L19.58 36.63L19.61 36.66Q19.41 37.41 18.84 38.94L18.93 39.02L18.90 39.00Q23.46 37.05 28.53 37.32L28.49 37.28L28.48 37.27Q33.74 37.66 37.74 40.36L37.61 40.23L37.58 40.20Q36.57 37.82 35.88 35.88L35.74 35.74L35.78 35.78Q34.73 35.11 33.74 34.76L33.76 34.79L33.74 34.76Q33.37 33.40 33.21 32.60L33.32 32.70L33.27 32.66Q30.23 31.71 27.07 31.71L26.97 31.60L26.95 31.59Q25.92 31.70 24.78 31.82L24.80 31.84L24.70 31.74Q24.82 30.49 24.86 29.27L24.82 29.24L24.99 26.81L25.02 26.84Q26.81 26.72 28.60 26.76L28.66 26.83L28.65 26.81Q30.49 26.86 32.28 27.02L32.25 26.99L32.33 27.07Q32.16 26.02 32.16 25.07L32.11 25.02L32.24 23.25L31.40 23.29L31.33 23.21Q30.88 23.26 30.42 23.26L30.38 23.22L30.42 23.26Q30.47 22.62 30.62 21.33L30.66 21.37L30.61 21.31Q28.94 21.47 27.76 21.51L27.88 21.63L27.85 21.60Q26.88 21.58 25.05 21.50L25.15 21.60L25.14 21.59Q25.01 20.13 24.82 17.31L24.89 17.38L24.81 17.31Q25.81 17.39 26.80 17.39L26.89 17.49L26.90 17.49Q31.57 17.44 35.26 15.54L35.26 15.54L35.27 15.54Q35.71 13.05 36.59 10.85L36.71 10.97L36.60 10.86Q35.33 11.76 34.49 12.10L34.44 12.05L34.55 12.16Q34.76 11.31 35.22 9.75L35.36 9.89L35.29 9.82Q30.62 11.93 25.75 11.62L25.78 11.65L25.80 11.68Q20.50 11.36 16.65 8.50L16.52 8.37L16.57 8.42Q19.46 15.39 19.77 23.00L19.91 23.14L19.82 23.05Q20.09 30.93 17.58 37.71Z"/><path fill="#333" d="M77.10 14.09L77.17 14.16L77.17 14.16Q78.33 18.67 78.48 21.87L78.46 21.85L78.57 21.95Q79.04 21.97 83.42 22.08L83.32 21.98L83.38 22.04Q85.99 22.15 86.38 18.68L86.37 18.68L86.29 18.59Q86.57 16.94 85.66 16.02L85.60 15.96L85.62 15.99Q84.26 15.00 82.28 14.85L82.28 14.85L82.24 14.81Q79.08 14.66 77.21 14.20ZM78.68 23.89L78.68 23.89L78.52 23.74Q78.80 29.84 77.01 35.77L76.96 35.72L76.92 35.69Q75.75 36.07 73.16 37.10L73.23 37.17L73.11 37.06Q76.02 30.64 75.68 23.17L75.55 23.04L75.53 23.02Q75.37 15.83 72.06 9.32L72.04 9.29L71.95 9.21Q76.95 12.15 83.92 12.15L83.86 12.09L83.89 12.12Q89.57 12.17 89.83 15.71L89.69 15.56L89.80 15.67Q89.91 16.32 89.83 16.92L89.81 16.90L89.69 18.00L89.65 17.96Q88.78 21.85 86.65 23.56L86.72 23.63L86.71 23.63Q85.86 24.25 84.83 24.25L84.83 24.26L82.30 24.32L82.22 24.23Q87.87 31.52 92.40 36.09L92.49 36.17L92.41 36.10Q90.26 35.39 87.33 35.05L87.26 34.99L87.22 34.95Q83.52 31.05 78.61 23.82ZM87.22 35.44L87.19 35.41L87.42 35.34L88.79 36.70L88.71 36.63Q89.25 37.13 89.90 37.74L89.88 37.72L89.90 37.74Q93.48 38.39 97.06 40.25L97.06 40.25L97.13 40.32Q90.22 33.60 84.81 26.67L84.67 26.53L86.56 26.67L86.47 26.58Q89.63 26.66 90.96 22.13L90.90 22.06L90.84 22.00Q91.61 19.88 91.61 17.18L91.58 17.15L91.50 17.06Q91.49 14.78 89.78 14.13L89.78 14.13L89.78 14.13Q89.67 13.75 89.10 13.07L89.17 13.14L89.16 13.13Q87.46 11.66 83.80 11.58L83.89 11.67L83.93 11.71Q75.88 11.39 71.20 8.38L71.24 8.42L71.37 8.55Q75.00 15.26 75.34 22.95L75.45 23.06L75.38 22.99Q75.75 30.98 72.63 37.83L72.62 37.81L72.65 37.84Q73.77 37.14 74.57 36.84L74.67 36.93L73.57 39.12L73.73 39.27Q76.48 38.25 79.14 37.75L79.11 37.72L79.01 37.62Q80.21 32.42 80.40 27.21L80.50 27.31L80.51 27.32Q84.08 32.34 87.24 35.46ZM85.86 17.41L85.85 17.39L85.83 17.38Q86.03 17.80 86.03 18.15L85.94 18.06L85.91 18.60L86.02 18.71Q86.03 19.82 85.35 20.77L85.34 20.77L85.29 20.71Q84.56 21.36 83.65 21.55L83.71 21.61L83.79 21.70Q83.60 21.77 82.00 21.81L81.91 21.71L82.00 21.81Q81.42 21.83 80.58 21.72L80.41 21.55L80.58 21.72Q80.38 20.11 80.03 17.06L80.09 17.12L79.95 16.98Q81.52 17.33 82.20 17.33L82.17 17.30L82.22 17.35Q84.05 17.35 85.99 17.54Z"/></svg>