<svg xmlns="http://www.w3.org/2000/svg" width="200" height="40" viewBox="0,0,200,40"><path d="M20 37 C118 4,111 17,189 25" stroke="#111" fill="none"/><path fill="#222" d="M163.56 35.39L163.59 35.43L163.50 35.33Q162.02 35.34 160.46 34.92L160.50 34.96L160.46 34.92Q159.25 34.01 159.09 32.37L159.16 32.44L159.18 32.46Q159.16 32.29 159.35 29.66L159.31 29.62L159.34 29.65Q160.41 29.51 162.43 29.12L162.29 28.98L162.17 29.81L162.18 29.82Q162.00 31.66 163.41 32.24L163.35 32.17L163.32 32.14Q164.13 32.50 166.22 32.50L166.22 32.49L166.20 32.48Q167.87 32.39 168.06 32.32L168.10 32.35L168.06 32.31Q168.98 32.17 169.70 31.67L169.68 31.65L169.55 31.52Q171.11 30.72 170.92 28.63L170.82 28.53L170.84 28.55Q170.74 26.20 169.01 24.64L168.97 24.61L169.03 24.66Q167.21 23.01 164.73 23.01L164.79 23.07L164.74 22.79L164.80 22.85Q165.16 22.80 166.04 22.72L165.90 22.58L165.90 22.58Q167.94 22.61 169.32 21.37L169.31 21.37L169.34 21.39Q170.63 20.07 170.78 18.21L170.84 18.27L170.74 18.17Q170.92 17.93 170.92 17.59L170.91 17.58L170.81 17.48Q170.85 16.00 169.48 15.08L169.40 15.00L169.49 15.09Q168.27 14.29 166.67 14.41L166.75 14.49L166.59 14.33Q165.46 14.33 164.24 14.75L164.23 14.74L164.25 14.77Q162.65 15.14 162.35 16.29L162.50 16.44L162.31 16.25Q162.18 17.07 162.26 17.83L162.26 17.84L162.29 17.87Q161.36 17.74 159.31 17.02L159.30 17.01L159.24 16.95Q158.95 15.22 158.99 14.38L159.05 14.44L158.95 14.34Q159.19 12.94 160.26 12.26L160.26 12.26L160.28 12.28Q161.59 11.57 163.19 11.57L163.21 11.59L163.17 11.55Q166.44 11.63 169.60 11.89L169.61 11.90L169.53 11.82Q174.57 12.22 174.26 15.98L174.24 15.96L174.28 16.00Q174.27 17.55 173.77 19.11L173.63 18.97L173.63 18.97Q172.72 22.05 170.36 22.96L170.53 23.14L170.52 23.12Q173.15 23.66 173.76 27.02L173.76 27.01L173.63 26.88Q173.98 28.15 174.05 30.16L173.92 30.03L174.03 30.14Q174.06 34.48 169.46 34.93L169.49 34.97L169.60 35.08Q168.83 35.11 163.54 35.38ZM168.77 37.64L168.78 37.64L168.68 37.55Q169.39 37.69 172.25 37.76L172.22 37.73L172.23 37.75Q174.03 37.87 175.67 37.22L175.63 37.19L175.59 37.14Q176.80 36.22 176.61 34.47L176.65 34.51L176.64 34.50Q176.53 33.18 176.23 31.43L176.21 31.41L176.10 31.30Q175.43 26.86 173.49 25.23L173.50 25.24L173.28 24.82L173.24 24.74L173.23 24.74Q175.02 23.32 175.78 18.95L175.84 19.01L175.67 18.84Q175.86 18.53 175.97 17.58L175.83 17.44L176.00 17.60Q176.00 16.77 175.92 16.08L175.82 15.98L175.83 15.99Q175.78 14.41 174.48 13.73L174.38 13.62L174.43 13.75L174.30 13.63Q174.05 12.69 172.91 12.16L173.04 12.29L173.02 12.26Q171.40 11.48 166.26 11.18L166.24 11.16L166.28 11.19Q164.67 11.19 163.07 11.19L162.94 11.05L162.97 11.08Q161.37 11.08 159.85 11.73L159.93 11.81L159.98 11.87Q158.61 12.48 158.61 14.23L158.59 14.21L158.63 14.24Q158.62 13.81 158.88 17.16L158.94 17.22L158.93 17.21Q159.17 17.22 160.80 17.83L160.97 17.99L160.82 17.85Q160.90 18.46 160.87 18.96L160.76 18.85L160.81 18.90Q160.80 19.39 160.84 19.92L160.96 20.04L160.91 19.99Q162.63 20.30 164.65 20.42L164.74 20.51L164.70 20.47Q164.60 18.43 165.71 17.59L165.74 17.62L165.62 17.50Q166.49 16.89 168.51 16.66L168.53 16.69L168.53 16.69Q169.76 16.77 170.33 16.96L170.34 16.97L170.25 16.88Q170.37 17.08 170.41 17.19L170.42 17.20L170.43 17.40L170.45 17.88L170.40 17.83Q170.38 18.00 170.34 18.15L170.48 18.29L170.46 18.27Q170.43 20.03 168.90 21.21L168.79 21.10L168.76 21.06Q167.90 22.03 165.88 22.22L165.95 22.29L165.92 22.26Q165.18 22.39 164.30 22.39L164.29 22.38L164.34 22.43Q164.38 22.78 164.53 23.46L164.47 23.40L164.54 23.47Q166.16 23.33 167.60 24.05L167.71 24.16L167.49 24.06L165.97 24.29L166.00 24.32Q165.99 24.61 166.10 25.22L166.15 25.27L166.23 25.35Q168.40 25.31 170.11 26.64L170.03 26.56L170.00 26.53Q170.29 26.98 170.60 28.61L170.52 28.53L170.46 28.47Q170.81 31.56 167.88 31.98L167.85 31.95L167.82 31.93Q165.70 32.17 165.13 32.13L165.06 32.06L165.09 32.09Q164.62 31.97 164.09 31.89L164.16 31.96L164.18 31.53L164.35 31.12L164.38 30.73L164.26 30.27L164.43 30.44Q163.48 30.51 162.68 30.70L162.50 30.52L162.62 30.64Q162.58 30.42 162.58 30.23L162.56 30.21L162.61 30.25Q162.60 30.02 162.60 29.79L162.54 29.73L162.62 29.81Q162.58 29.31 162.73 28.58L162.81 28.66L162.75 28.61Q160.96 28.91 159.09 29.25L159.15 29.31L159.08 29.24Q159.07 29.73 158.96 30.85L158.97 30.86L158.95 30.84Q158.85 31.97 158.85 32.58L158.82 32.56L158.73 32.47Q158.92 34.64 160.29 35.40L160.18 35.28L160.32 35.43Q161.74 37.65 166.46 37.46L166.41 37.40L166.55 37.55Q167.15 37.38 168.67 37.53Z"/><path fill="#222" d="M109.88 35.15L110.05 35.31L109.98 35.25Q106.41 35.25 104.77 34.72L104.91 34.85L104.86 34.80Q102.98 34.26 102.68 30.87L102.56 30.76L104.06 29.74L104.01 29.69Q104.80 29.23 105.56 28.73L105.54 28.71L105.60 28.77Q105.33 30.67 106.93 31.89L106.84 31.80L106.84 31.80Q108.17 32.87 110.31 32.68L110.34 32.71L110.28 32.65Q114.70 32.27 114.51 28.73L114.41 28.63L114.38 28.60Q114.40 26.53 111.77 25.31L111.59 25.13L111.71 25.25Q108.80 24.13 106.44 22.91L106.48 22.94L106.48 22.95Q103.85 21.54 102.86 16.86L102.93 16.92L102.91 16.91Q102.85 16.50 102.74 15.74L102.75 15.76L102.61 15.61Q102.54 14.86 102.62 14.29L102.71 14.38L102.77 14.45Q102.86 12.78 104.11 12.32L104.16 12.37L104.12 12.33Q106.47 11.40 110.46 11.59L110.56 11.69L110.54 11.67Q112.29 11.70 113.09 11.78L113.19 11.88L113.15 11.84Q114.67 12.07 115.74 12.52L115.69 12.48L115.68 12.46Q117.67 12.82 117.90 15.29L117.92 15.32L118.07 15.47Q116.99 16.14 114.78 17.47L114.81 17.50L114.69 17.38Q114.37 14.47 110.00 14.47L109.99 14.47L109.95 14.43Q108.08 14.46 107.09 15.15L106.99 15.04L107.05 15.10Q105.88 15.61 106.11 17.40L106.18 17.47L106.05 17.35Q106.42 19.65 109.39 21.18L109.29 21.08L109.44 21.23Q109.87 21.35 114.36 22.98L114.34 22.97L114.30 22.92Q117.04 24.53 117.46 28.91L117.42 28.87L117.40 28.85Q117.39 28.99 117.47 30.24L117.54 30.32L117.54 30.31Q117.61 33.09 116.04 34.19L115.95 34.09L116.11 34.25Q114.20 35.16 110.01 35.27ZM112.29 37.63L112.20 37.54L112.30 37.64Q113.78 37.74 115.75 37.74L115.78 37.77L115.78 37.77Q117.89 37.78 119.14 37.36L119.05 37.27L118.98 37.20Q120.28 36.44 120.20 34.65L120.24 34.69L120.26 34.71Q120.18 33.68 119.80 31.63L119.83 31.66L119.78 31.60Q118.92 26.98 116.83 25.11L116.86 25.14L116.77 25.06Q116.08 23.57 114.75 22.84L114.75 22.85L109.34 20.67L109.33 20.66Q109.10 20.58 108.64 20.35L108.57 20.28L108.40 19.85L108.42 19.52L108.52 19.62Q108.34 18.18 109.48 17.57L109.46 17.56L109.52 17.61Q110.14 16.90 111.85 16.71L111.96 16.82L112.00 16.86Q113.06 16.66 114.20 17.12L114.28 17.20L114.25 17.16Q114.27 17.22 114.46 18.06L114.45 18.05L114.43 18.03Q114.58 17.84 115.08 17.62L115.20 17.74L115.13 17.67Q115.80 18.52 115.91 19.67L115.90 19.65L115.99 19.75Q116.03 19.67 119.68 17.08L119.66 17.06L119.61 17.01Q119.52 14.56 118.08 13.87L117.96 13.76L117.97 13.77Q117.51 12.63 116.07 12.09L116.04 12.06L115.94 11.97Q113.68 11.19 110.48 11.19L110.41 11.12L110.40 11.11Q105.60 11.22 103.73 11.90L103.70 11.87L103.69 11.86Q102.41 12.37 102.30 14.05L102.26 14.01L102.34 14.09Q102.31 14.63 102.73 16.84L102.67 16.78L102.64 16.75Q103.33 20.52 105.50 22.77L105.53 22.80L105.60 22.87Q106.26 24.45 107.77 25.13L107.80 25.16L107.87 25.23Q109.28 25.82 113.20 27.38L113.33 27.52L113.25 27.47L113.79 27.71L114.01 27.97L113.95 27.91Q113.99 28.21 114.02 28.55L114.03 28.56L114.04 28.57Q114.11 32.02 110.18 32.17L110.29 32.28L110.30 32.29Q109.08 32.25 107.78 31.87L107.84 31.92L107.78 31.86Q107.43 31.02 107.43 30.29L107.49 30.35L107.52 30.39Q107.57 30.17 107.61 29.90L107.49 29.78L107.57 29.86Q107.14 30.08 106.34 30.57L106.40 30.63L106.33 30.57Q105.82 29.45 105.98 28.08L105.94 28.04L106.06 28.16Q103.91 29.29 102.31 30.69L102.22 30.60L102.36 30.74Q102.40 31.55 102.47 32.57L102.41 32.51L102.37 32.47Q102.69 34.19 103.98 34.95L103.93 34.91L104.07 35.04Q105.15 36.74 107.70 37.12L107.85 37.26L107.84 37.26Q109.39 37.47 112.32 37.66Z"/><path d="M16 14 C84 15,111 25,193 34" stroke="#444" fill="none"/><path fill="#111" d="M134.51 27.87L134.55 27.91L134.59 27.95Q137.72 27.61 140.92 27.73L140.80 27.61L140.88 27.69Q140.82 25.12 140.82 22.72L140.85 22.75L140.84 22.75Q140.75 20.18 140.94 17.63L141.01 17.70L140.97 17.66Q139.81 19.43 134.60 27.96ZM144.40 35.21L144.47 35.28L144.44 35.25Q142.74 34.92 140.95 34.84L140.95 34.84L141.03 34.92Q140.82 32.55 140.71 30.07L140.63 29.99L140.73 30.09Q135.31 29.82 130.59 31.23L130.58 31.21L130.70 31.33Q130.78 30.81 130.97 29.82L130.96 29.80L130.92 29.76Q132.74 26.64 136.32 20.36L136.44 20.47L136.36 20.39Q139.19 15.46 142.62 11.58L142.60 11.56L142.61 11.57Q143.63 11.53 145.31 11.26L145.18 11.13L145.27 11.23Q143.41 17.70 143.41 24.74L143.35 24.68L143.22 24.55Q143.29 26.10 143.36 27.59L143.29 27.51L144.67 27.72L144.71 27.75Q145.26 27.74 145.87 27.85L145.81 27.79L145.86 27.83Q146.04 28.90 146.31 30.84L146.24 30.77L146.37 30.90Q145.00 30.48 143.51 30.29L143.59 30.37L143.51 30.29Q143.81 32.38 144.50 35.31ZM146.23 27.56L146.16 27.49L146.21 27.54Q145.95 27.40 145.76 27.40L145.74 27.38L145.39 27.41L145.44 27.46Q145.39 26.03 145.39 24.63L145.32 24.55L145.36 24.60Q145.37 18.21 147.42 12.19L147.32 12.10L147.38 12.15Q146.56 12.35 145.11 12.74L145.20 12.83L145.21 12.83Q145.42 12.06 145.88 10.65L145.89 10.66L145.75 10.52Q144.53 10.98 142.47 11.20L142.46 11.19L142.56 11.29Q138.57 15.56 133.35 24.92L133.42 24.99L135.53 21.35L135.37 21.19Q135.08 22.35 134.82 22.92L134.67 22.78L130.33 31.91L130.34 31.93Q130.87 31.65 132.01 31.27L132.04 31.31L131.90 31.54L131.90 31.55Q131.76 32.20 131.46 33.46L131.56 33.57L131.42 33.42Q135.63 32.19 140.46 32.38L140.44 32.36L140.56 32.47Q140.58 33.41 140.77 35.39L140.78 35.40L140.62 35.24Q141.74 35.29 142.81 35.41L142.85 35.45L142.84 35.44Q143.04 36.17 143.31 37.54L143.18 37.41L143.15 37.38Q145.08 37.64 148.08 38.55L148.06 38.53L148.05 38.52Q147.13 36.45 146.21 33.18L146.18 33.15L147.64 33.62L147.71 33.68Q148.34 33.86 149.03 34.20L149.15 34.33L149.08 34.26Q148.27 31.74 148.12 30.06L148.15 30.09L148.09 30.03Q147.63 29.98 146.48 29.76L146.44 29.71L146.32 29.60Q146.27 28.47 146.27 27.60ZM138.12 27.30L138.20 27.37L138.25 27.42Q138.94 26.06 140.50 23.51L140.59 23.59L140.43 23.44Q140.51 24.47 140.47 25.42L140.43 25.37L140.53 25.48Q140.48 26.42 140.52 27.37L140.55 27.40L140.50 27.35Q139.92 27.31 139.35 27.31L139.42 27.37L139.43 27.38Q138.82 27.39 138.21 27.39Z"/><path fill="#222" d="M23.40 21.93L23.32 21.85L23.30 21.83Q25.12 22.02 26.95 22.02L26.85 21.92L26.98 22.04Q28.74 22.01 30.56 21.86L30.56 21.86L30.55 21.85Q30.48 22.53 30.48 23.26L30.52 23.30L30.43 24.54L30.51 24.63Q28.11 24.58 23.35 24.70L23.20 24.55L23.32 24.67Q23.34 30.63 22.20 35.62L22.17 35.58L22.14 35.56Q19.91 36.22 18.43 37.02L18.48 37.08L18.40 36.99Q20.81 30.27 20.54 23.15L20.54 23.14L20.60 23.21Q20.32 16.03 17.65 9.37L17.55 9.26L17.67 9.38Q21.24 11.81 26.00 12.04L26.00 12.04L26.02 12.06Q30.69 12.24 34.84 10.49L34.83 10.48L34.92 10.57Q34.57 11.32 34.34 12.12L34.32 12.10L33.81 13.68L33.74 13.62Q31.07 14.75 28.10 14.90L28.21 15.01L28.17 14.97Q25.17 15.06 22.32 14.33L22.47 14.49L22.29 14.31Q23.15 17.87 23.34 21.87ZM35.51 9.83L35.53 9.84L35.47 9.79Q30.95 12.01 26.08 11.70L25.94 11.56L25.95 11.57Q20.58 11.23 16.85 8.37L16.96 8.48L16.89 8.42Q19.80 15.40 20.11 23.01L20.08 22.99L20.16 23.06Q20.56 31.08 18.04 37.85L18.02 37.83L17.90 37.71Q18.58 37.33 19.95 36.68L20.09 36.81L19.97 36.70Q19.75 37.43 19.18 38.95L19.21 38.98L19.27 39.04Q21.53 37.92 24.43 37.42L24.38 37.38L24.34 37.34Q25.09 32.60 25.28 26.89L25.32 26.94L25.24 26.85Q27.10 26.89 28.93 26.89L28.92 26.88L28.79 26.75Q30.55 26.72 32.38 26.91L32.53 27.06L32.52 27.05Q32.44 26.14 32.44 25.22L32.32 25.10L32.29 23.16L32.35 23.23Q31.68 23.43 30.85 23.43L30.77 23.36L30.75 23.34Q30.76 22.48 30.84 21.45L30.77 21.38L30.86 21.47Q29.49 21.66 28.08 21.66L28.10 21.68L28.02 21.60Q26.67 21.66 25.30 21.62L25.18 21.50L25.16 19.35L25.14 19.32Q25.13 18.26 25.02 17.19L25.05 17.22L25.01 17.18Q26.07 17.32 27.06 17.32L26.94 17.20L27.05 17.32Q31.79 17.30 35.41 15.40L35.32 15.31L35.43 15.42Q35.86 13.53 36.78 10.90L36.75 10.88L36.87 10.99Q35.53 11.79 34.73 12.13L34.64 12.04L34.72 12.12Q34.90 11.27 35.39 9.71Z"/><path fill="#222" d="M88.57 23.69L88.64 23.76L82.61 23.71L82.59 23.69Q79.66 23.73 76.73 23.66L76.86 23.78L76.87 23.80Q76.94 30.45 74.88 35.97L74.88 35.97L74.80 35.89Q73.10 36.51 71.35 37.19L71.27 37.11L71.27 37.11Q74.14 31.49 74.14 24.83L74.04 24.73L74.04 24.73Q74.15 16.36 70.04 9.31L69.90 9.17L69.91 9.18Q71.50 10.05 73.97 10.85L73.88 10.75L74.02 10.89Q76.16 15.96 76.69 20.84L76.63 20.78L76.64 20.78Q79.78 21.15 82.64 21.11L82.73 21.20L82.73 21.20Q85.27 21.08 88.58 20.81L88.60 20.83L88.60 20.83Q89.04 16.39 90.79 11.29L90.92 11.43L90.85 11.35Q92.82 10.96 95.06 10.12L95.01 10.07L94.96 10.02Q91.33 16.74 91.33 24.70L91.43 24.80L91.44 24.81Q91.36 30.93 93.72 36.26L93.71 36.25L93.73 36.27Q92.28 35.82 90.23 35.52L90.11 35.40L90.11 35.40Q88.48 30.42 88.59 23.72ZM89.86 35.76L89.77 35.67L89.76 35.66Q90.97 36.00 92.08 36.26L91.94 36.13L91.93 36.11Q92.38 36.95 93.03 38.43L92.99 38.39L93.03 38.43Q96.43 39.43 98.22 40.35L98.16 40.29L98.07 40.20Q93.58 33.99 93.27 25.73L93.34 25.80L93.40 25.86Q93.03 17.76 96.69 10.95L96.71 10.97L95.70 11.48L95.59 11.37Q95.08 11.59 94.48 11.75L94.59 11.86L94.63 11.90Q95.00 11.05 95.84 9.49L95.81 9.46L95.79 9.44Q93.12 10.47 90.50 10.96L90.51 10.97L90.56 11.03Q88.75 15.73 88.29 20.41L88.33 20.45L88.32 20.44Q85.86 20.68 83.42 20.68L83.52 20.78L83.56 20.82Q81.07 20.72 78.56 20.57L78.49 20.51L78.65 20.67Q78.27 17.24 77.17 13.17L77.32 13.32L77.25 13.25Q76.46 13.03 75.01 12.65L75.07 12.71L75.11 12.75Q74.63 11.42 74.17 10.40L74.31 10.53L74.30 10.52Q71.59 9.80 69.31 8.54L69.23 8.46L69.23 8.46Q73.81 15.90 73.81 24.69L73.76 24.64L73.70 24.59Q73.78 31.63 70.66 37.76L70.75 37.86L70.76 37.86Q71.36 37.47 72.69 36.90L72.81 37.02L72.64 36.85Q72.48 37.87 71.68 39.39L71.57 39.28L71.59 39.30Q74.50 38.41 76.75 37.99L76.72 37.96L76.74 37.98Q78.54 32.35 78.73 26.19L78.61 26.07L78.79 26.25Q80.24 26.03 83.44 25.99L83.49 26.04L83.53 26.08Q86.36 26.02 88.27 26.09L88.20 26.02L88.26 26.09Q88.56 31.87 89.89 35.79Z"/><path fill="#444" d="M53.68 24.21L53.54 24.07L53.48 24.01Q51.84 24.08 50.60 25.51L50.59 25.50L50.59 25.50Q49.24 26.81 49.05 28.71L49.09 28.76L49.07 28.74Q48.95 30.90 50.03 31.87L50.03 31.87L50.01 31.84Q51.00 32.72 53.09 32.61L53.08 32.59L53.09 32.60Q55.15 32.42 56.25 31.73L56.26 31.74L56.37 31.84Q57.41 30.64 57.41 29.08L57.54 29.21L57.41 29.08Q57.41 28.70 57.34 28.32L57.38 28.36L57.43 28.41Q57.47 26.71 56.37 25.36L56.29 25.28L56.38 25.37Q55.24 23.97 53.56 24.09ZM53.22 35.28L53.21 35.28L53.10 35.16Q48.77 35.21 47.36 34.45L47.28 34.37L47.47 34.56Q46.30 33.65 46.11 31.94L46.19 32.03L46.12 31.95Q46.09 31.27 46.13 30.55L46.14 30.56L46.23 30.65Q46.36 29.68 46.36 29.22L46.25 29.11L46.35 29.21Q46.69 26.24 46.85 25.56L46.81 25.52L46.85 25.57Q47.36 23.67 48.20 22.26L48.27 22.34L48.12 22.19Q50.89 17.91 56.82 11.55L56.74 11.47L56.87 11.60Q59.36 11.12 61.57 10.32L61.65 10.40L61.57 10.32Q54.88 17.95 51.68 22.17L51.63 22.12L51.55 22.04Q52.59 21.59 53.88 21.59L53.89 21.60L53.81 21.52Q57.15 21.54 58.67 23.49L58.71 23.53L58.74 23.56Q60.12 25.25 60.47 28.79L60.36 28.68L60.36 28.68Q60.44 29.40 60.44 30.01L60.39 29.97L60.55 30.13Q60.51 33.21 58.30 34.28L58.33 34.30L58.17 34.15Q56.95 34.75 53.07 35.13ZM55.41 37.59L55.47 37.65L55.43 37.60Q56.83 37.67 58.80 37.75L58.81 37.75L58.82 37.76Q60.31 37.69 61.87 36.97L61.90 37.00L61.98 37.08Q63.06 36.26 63.06 34.47L62.99 34.39L63.10 34.51Q63.05 33.96 62.88 32.97L62.83 32.92L62.81 32.90Q62.73 32.00 62.73 31.55L62.64 31.46L62.75 31.56Q61.87 26.84 60.27 24.94L60.26 24.92L60.28 24.94Q60.21 24.84 60.06 24.61L59.89 24.44L59.74 24.37L59.54 24.21L59.64 24.30Q59.35 23.86 58.74 22.91L58.72 22.89L58.66 22.83Q57.69 21.82 55.71 21.36L55.70 21.36L55.78 21.44Q57.02 19.86 59.99 16.16L59.88 16.06L64.16 10.82L64.14 10.80Q62.63 11.72 60.23 12.49L60.23 12.49L60.17 12.42Q61.22 11.57 63.01 9.59L62.82 9.40L62.94 9.53Q60.47 10.51 56.58 11.08L56.59 11.09L56.73 11.23Q50.83 16.94 47.86 21.89L47.94 21.97L47.85 21.88Q46.40 24.47 45.83 30.71L45.77 30.65L45.87 30.75Q45.74 31.26 45.81 32.22L45.76 32.16L45.80 32.20Q45.95 34.03 47.06 34.94L46.99 34.88L46.95 34.84Q47.34 35.00 47.30 35.04L47.35 35.09L47.34 35.08Q47.68 35.95 48.48 36.37L48.47 36.36L48.48 36.37Q50.02 37.14 51.96 37.34L51.91 37.28L51.90 37.28Q51.91 37.28 55.41 37.59ZM55.25 26.43L55.14 26.31L55.29 26.47Q55.78 26.27 56.73 26.77L56.78 26.82L56.67 26.71Q57.14 27.78 57.14 28.43L57.12 28.41L57.01 28.30Q57.22 30.19 56.27 31.18L56.34 31.25L56.32 31.23Q55.34 32.04 53.25 32.34L53.19 32.29L53.20 32.30Q51.81 32.35 51.28 32.08L51.09 31.89L51.24 32.05Q50.99 31.53 50.99 31.23L50.98 31.22L51.08 31.32Q50.77 27.97 53.71 26.67L53.62 26.59L53.65 26.61Q54.47 26.33 55.23 26.41Z"/></svg>