<svg xmlns="http://www.w3.org/2000/svg" width="200" height="40" viewBox="0,0,200,40"><path d="M18 28 C108 2,121 19,184 38" stroke="#222" fill="none"/><path d="M11 20 C81 9,99 17,181 24" stroke="#666" fill="none"/><path fill="#111" d="M23.24 21.77L23.38 21.91L23.20 21.73Q25.15 22.04 26.98 22.04L26.96 22.03L26.99 22.05Q28.74 22.02 30.57 21.87L30.56 21.85L30.57 21.86Q30.48 22.54 30.48 23.26L30.44 23.22L30.51 24.63L30.49 24.60Q28.00 24.47 23.24 24.59L23.35 24.69L23.38 24.72Q23.33 30.61 22.18 35.60L22.23 35.64L22.23 35.64Q19.94 36.25 18.46 37.05L18.41 37.00L18.44 37.04Q20.87 30.32 20.60 23.20L20.57 23.17L20.60 23.20Q20.16 15.87 17.49 9.21L17.52 9.23L17.50 9.21Q21.26 11.83 26.02 12.06L26.09 12.13L25.96 12.00Q30.64 12.19 34.79 10.44L34.82 10.47L34.85 10.50Q34.53 11.28 34.30 12.08L34.27 12.05L33.81 13.69L33.83 13.70Q31.08 14.76 28.11 14.91L28.25 15.05L28.26 15.06Q25.25 15.14 22.40 14.41L22.44 14.46L22.47 14.49Q23.19 17.91 23.38 21.91ZM35.53 9.85L35.45 9.77L35.52 9.84Q30.78 11.83 25.90 11.53L25.97 11.60L26.06 11.69Q20.73 11.38 17.00 8.52L16.87 8.39L17.01 8.53Q19.88 15.48 20.19 23.09L20.20 23.11L20.15 23.05Q20.50 31.02 17.99 37.80L17.87 37.68L18.06 37.87Q18.59 37.33 19.96 36.68L19.89 36.62L20.01 36.73Q19.87 37.55 19.30 39.07L19.28 39.05L19.16 38.93Q21.62 38.00 24.51 37.50L24.44 37.44L24.49 37.49Q25.05 32.56 25.24 26.85L25.25 26.86L25.27 26.88Q27.12 26.91 28.95 26.91L28.86 26.82L28.77 26.72Q30.73 26.90 32.56 27.09L32.39 26.92L32.42 26.95Q32.30 25.99 32.30 25.08L32.30 25.08L32.34 23.21L32.35 23.23Q31.59 23.34 30.75 23.34L30.78 23.37L30.80 23.39Q30.85 22.57 30.93 21.54L30.77 21.38L30.92 21.53Q29.37 21.54 27.96 21.54L28.05 21.63L28.05 21.63Q26.73 21.72 25.36 21.68L25.22 21.54L25.24 19.43L25.24 19.42Q25.19 18.32 25.08 17.25L24.97 17.14L25.11 17.28Q26.10 17.36 27.09 17.36L27.00 17.27L27.04 17.31Q31.87 17.38 35.49 15.47L35.40 15.39L35.47 15.45Q35.93 13.60 36.85 10.97L36.84 10.97L36.77 10.89Q35.48 11.74 34.68 12.08L34.78 12.18L34.76 12.16Q35.05 11.42 35.54 9.86Z"/><path fill="#333" d="M57.45 22.13L57.54 22.23L57.58 22.27Q58.22 22.10 59.62 21.95L59.67 22.00L59.64 21.97Q59.60 22.61 59.60 23.25L59.56 23.21L59.65 24.56L59.65 24.57Q58.76 24.51 57.92 24.58L57.99 24.65L57.88 24.55Q57.12 24.66 56.29 24.63L56.33 24.67L56.32 24.66Q53.39 30.75 49.96 35.35L50.07 35.46L50.03 35.42Q47.58 36.14 46.29 36.75L46.31 36.77L46.14 36.60Q50.28 30.92 53.33 24.64L53.40 24.71L50.78 24.72L50.71 24.65Q50.84 23.45 50.73 22.11L50.57 21.96L50.70 22.08Q52.44 22.07 54.50 22.07L54.57 22.15L56.40 18.38L56.53 18.52Q57.44 16.53 58.66 14.93L58.76 15.03L58.65 14.93Q57.18 15.17 55.59 15.17L55.64 15.22L55.54 15.13Q49.41 15.08 45.64 12.87L45.70 12.93L45.05 11.22L44.94 11.11Q44.71 10.38 44.33 9.51L44.39 9.57L44.34 9.52Q48.61 12.08 54.32 12.30L54.39 12.38L54.42 12.40Q59.59 12.67 64.73 10.69L64.72 10.67L64.57 10.53Q64.55 11.11 64.05 11.99L64.00 11.94L63.88 11.82Q60.42 16.73 57.56 22.25ZM65.57 13.27L65.65 13.36L66.53 11.23L66.62 11.32Q65.53 11.67 63.85 12.40L63.96 12.50L64.16 12.21L64.08 12.13Q64.22 12.00 64.33 11.89L64.43 11.99L64.25 11.81Q64.63 11.12 65.35 9.78L65.42 9.85L65.48 9.91Q60.19 12.23 54.44 12.00L54.46 12.03L54.30 11.87Q48.45 11.76 43.69 8.79L43.59 8.70L43.58 8.68Q44.67 10.61 45.51 13.28L45.40 13.17L45.47 13.24Q46.51 13.82 47.31 14.13L47.42 14.23L47.32 14.13Q47.57 14.58 48.03 16.44L48.03 16.44L47.88 16.29Q51.20 17.71 56.72 17.56L56.70 17.54L56.64 17.48Q56.33 18.04 54.35 21.81L54.38 21.85L54.28 21.75Q52.23 21.75 50.25 21.56L50.26 21.57L50.41 21.72Q50.39 22.46 50.39 23.33L50.44 23.38L50.40 25.06L52.05 25.03L52.17 26.57L52.06 26.45Q48.09 33.79 45.31 37.36L45.30 37.36L45.35 37.40Q46.99 36.69 48.63 36.19L48.63 36.20L48.66 36.23Q47.98 37.14 46.61 38.86L46.63 38.88L46.53 38.78Q49.76 37.74 52.19 37.51L52.21 37.52L52.08 37.40Q55.00 33.61 58.12 26.84L58.18 26.90L61.63 27.11L61.70 27.18Q61.63 26.28 61.63 25.36L61.64 25.38L61.60 23.54L61.55 23.49Q61.24 23.45 60.69 23.49L60.69 23.49L60.77 23.57Q60.28 23.67 60.01 23.67L59.85 23.51L59.88 23.53Q59.83 23.37 59.87 23.22L60.00 23.35L60.00 23.09L59.88 22.96Q62.38 17.81 65.46 13.17Z"/><path fill="#333" d="M173.48 23.75L173.44 23.71L167.48 23.73L167.56 23.80Q164.50 23.71 161.57 23.64L161.69 23.76L161.64 23.71Q161.81 30.46 159.75 35.98L159.65 35.88L159.81 36.04Q157.81 36.36 156.06 37.04L156.07 37.06L156.06 37.05Q158.96 31.45 158.96 24.79L158.99 24.82L158.90 24.74Q158.92 16.27 154.81 9.23L154.90 9.32L154.82 9.23Q156.30 9.99 158.77 10.79L158.77 10.79L158.83 10.84Q161.01 15.96 161.54 20.83L161.57 20.86L161.39 20.68Q164.63 21.14 167.48 21.10L167.53 21.15L167.45 21.07Q170.21 21.16 173.52 20.90L173.54 20.91L173.51 20.89Q173.92 16.42 175.67 11.32L175.67 11.31L175.80 11.45Q177.57 10.86 179.82 10.02L179.96 10.17L179.81 10.01Q176.26 16.82 176.26 24.78L176.22 24.74L176.35 24.87Q176.26 30.99 178.63 36.32L178.61 36.30L178.67 36.36Q177.08 35.76 175.03 35.46L175.05 35.48L174.94 35.37Q173.24 30.32 173.35 23.62ZM174.69 35.73L174.76 35.80L174.65 35.69Q175.68 35.84 176.78 36.11L176.92 36.25L176.89 36.22Q177.21 36.92 177.86 38.40L177.75 38.30L177.81 38.36Q181.10 39.25 182.89 40.16L183.06 40.33L182.88 40.15Q178.54 34.10 178.23 25.84L178.29 25.89L178.22 25.82Q177.84 17.71 181.50 10.90L181.59 10.99L180.45 11.38L180.47 11.40Q180.04 11.70 179.44 11.85L179.42 11.83L179.44 11.86Q179.88 11.07 180.71 9.51L180.70 9.49L180.75 9.54Q177.91 10.40 175.29 10.90L175.32 10.93L175.45 11.06Q173.63 15.75 173.17 20.43L173.22 20.48L173.22 20.48Q170.69 20.66 168.26 20.66L168.32 20.72L168.30 20.69Q165.93 20.73 163.42 20.58L163.43 20.59L163.48 20.64Q163.09 17.20 161.99 13.13L162.17 13.31L162.10 13.24Q161.35 13.06 159.90 12.68L159.93 12.71L159.86 12.64Q159.61 11.55 159.15 10.52L159.05 10.43L159.13 10.50Q156.31 9.66 154.02 8.40L154.02 8.39L154.07 8.45Q158.58 15.81 158.58 24.60L158.59 24.62L158.71 24.74Q158.60 31.60 155.48 37.73L155.56 37.81L155.53 37.77Q156.26 37.51 157.59 36.94L157.56 36.91L157.61 36.96Q157.20 37.73 156.40 39.25L156.53 39.38L156.49 39.34Q159.30 38.35 161.55 37.93L161.52 37.91L161.57 37.95Q163.29 32.25 163.48 26.09L163.47 26.07L163.64 26.24Q165.21 26.14 168.41 26.10L168.38 26.07L168.33 26.02Q171.23 26.02 173.13 26.10L173.10 26.06L173.17 26.14Q173.34 31.80 174.68 35.72Z"/><path fill="#333" d="M80.97 35.02L80.97 35.01L80.82 34.86Q76.79 34.45 74.96 33.00L74.85 32.89L74.81 32.85Q72.99 31.41 72.57 28.41L72.67 28.51L72.64 28.47Q72.62 28.11 72.28 23.35L72.21 23.29L72.27 23.34Q72.28 22.13 72.20 20.88L72.27 20.95L72.33 21.01Q72.09 15.89 74.30 14.14L74.35 14.20L74.18 14.02Q76.94 12.02 84.70 11.34L84.73 11.36L84.68 11.31Q86.10 11.25 87.74 11.29L87.72 11.27L87.56 11.11Q87.61 11.16 90.58 11.16L90.53 11.12L90.58 11.16Q91.44 11.18 93.15 11.33L93.18 11.36L93.13 11.32Q92.68 12.31 91.65 15.39L91.75 15.49L91.63 15.37Q89.64 14.26 86.64 14.26L86.59 14.22L86.65 14.28Q85.88 14.26 85.08 14.34L84.95 14.22L84.97 14.23Q79.84 14.66 77.33 16.64L77.29 16.61L77.46 16.77Q75.39 18.32 75.24 21.67L75.23 21.66L75.18 21.61Q75.11 22.19 75.15 23.44L75.27 23.56L75.24 23.53Q75.38 28.40 77.78 30.49L77.72 30.43L77.65 30.36Q79.95 32.44 84.94 32.74L84.92 32.72L84.79 32.59Q88.00 32.83 91.01 31.04L91.07 31.11L91.05 31.08Q91.64 33.81 92.25 35.18L92.22 35.14L92.16 35.09Q90.05 35.34 88.41 35.30L88.48 35.37L88.47 35.36Q83.91 35.21 80.79 34.83ZM95.99 38.65L96.02 38.68L96.09 38.75Q94.14 35.58 93.45 32.99L93.52 33.06L93.53 33.07Q93.03 33.25 92.04 33.63L92.05 33.65L92.19 33.78Q91.70 32.84 91.51 32.00L91.61 32.10L91.12 30.28L91.24 30.40Q87.96 32.45 84.84 32.33L84.76 32.26L84.79 32.28Q80.53 32.10 78.21 30.35L78.19 30.33L78.26 30.40Q77.05 28.50 77.12 25.57L77.14 25.59L77.24 25.69Q77.22 21.02 79.70 18.89L79.73 18.93L79.80 19.00Q81.83 16.99 86.51 16.38L86.61 16.48L86.62 16.49Q87.32 16.28 88.04 16.28L88.19 16.42L88.06 16.30Q90.93 16.39 93.03 17.91L92.92 17.80L93.07 17.95Q93.43 15.68 94.65 12.45L94.70 12.50L94.74 12.54Q94.33 12.40 93.78 12.34L93.78 12.34L93.95 12.52Q93.36 12.41 93.09 12.41L93.05 12.38L92.97 12.30Q93.23 11.83 93.68 10.84L93.73 10.89L93.68 10.84Q93.42 10.81 90.93 10.73L90.97 10.78L91.05 10.85Q88.43 10.64 87.78 10.68L87.78 10.68L87.92 10.82Q77.28 11.03 73.82 13.62L73.89 13.69L73.96 13.77Q71.82 15.47 71.82 19.39L71.94 19.52L71.83 19.40Q71.88 20.56 72.00 23.26L71.99 23.26L71.88 23.15Q72.05 26.74 72.28 28.45L72.22 28.39L72.26 28.43Q72.73 31.65 74.33 33.17L74.23 33.08L74.25 33.09Q74.75 33.78 76.01 34.93L75.96 34.88L76.14 35.06Q79.24 36.67 84.49 37.43L84.53 37.47L84.54 37.48Q90.97 38.43 95.96 38.62Z"/><path fill="#444" d="M110.31 14.65L110.31 14.66L108.64 14.66L108.82 14.84Q106.54 14.92 106.31 16.93L106.28 16.90L106.30 16.92Q106.09 17.52 106.13 18.51L106.13 18.51L106.31 18.69Q106.29 20.57 107.55 21.91L107.51 21.87L107.56 21.92Q108.72 23.15 110.62 23.00L110.72 23.10L110.57 22.95Q112.76 22.93 113.52 22.01L113.43 21.92L113.57 22.07Q114.59 21.11 114.86 18.86L114.75 18.76L114.85 18.85Q115.02 16.51 113.77 15.67L113.88 15.79L113.91 15.82Q113.00 14.99 110.34 14.68ZM116.30 23.85L116.41 23.95L115.01 26.13L115.10 26.22Q112.43 31.05 108.66 35.12L108.61 35.08L108.51 34.97Q106.96 35.21 104.25 36.01L104.30 36.06L104.15 35.90Q109.64 29.79 112.80 24.99L112.70 24.89L112.64 24.82Q111.66 25.52 110.02 25.59L110.13 25.71L109.99 25.56Q107.04 25.77 105.52 23.79L105.58 23.86L105.63 23.91Q104.24 22.13 103.13 17.57L103.23 17.66L103.15 17.58Q103.22 17.20 103.07 16.27L103.08 16.27L103.09 16.28Q102.87 15.29 102.87 14.83L102.91 14.87L102.81 14.76Q102.87 13.04 103.93 12.43L104.00 12.49L103.94 12.43Q105.28 11.79 107.14 11.79L107.08 11.73L106.97 11.62Q110.25 11.70 110.25 11.70L110.24 11.69L110.35 11.80Q112.45 11.77 113.71 11.96L113.72 11.97L113.70 11.95Q115.73 12.12 116.65 12.62L116.70 12.67L116.68 12.65Q118.10 13.46 118.29 15.22L118.26 15.18L118.30 15.22Q118.35 15.50 118.16 18.17L118.12 18.13L118.14 18.14Q117.74 20.26 117.52 21.10L117.55 21.14L117.41 21.00Q117.02 22.39 116.26 23.80ZM118.26 26.30L118.31 26.35L118.31 26.35Q119.15 23.99 119.69 19.69L119.74 19.74L119.86 19.86Q119.99 17.52 119.96 16.65L120.08 16.77L120.02 16.72Q120.02 14.89 118.84 13.98L118.84 13.97L118.53 13.85L118.39 13.71Q118.15 12.97 117.23 12.33L117.34 12.44L117.31 12.41Q115.09 11.48 110.30 11.33L110.29 11.32L110.30 11.33Q109.20 11.18 106.76 11.18L106.73 11.15L106.73 11.15Q105.02 11.19 103.54 11.88L103.51 11.85L103.53 11.87Q102.39 12.68 102.47 14.50L102.51 14.55L102.59 14.62Q102.70 15.45 102.89 17.47L102.91 17.50L102.82 17.40Q103.54 20.14 103.81 20.98L103.82 20.99L103.83 21.01Q104.30 22.77 105.25 24.06L105.23 24.04L105.34 24.15Q105.67 24.55 106.05 24.93L105.99 24.88L105.90 24.78Q106.19 25.26 106.83 26.18L106.84 26.18L106.82 26.16Q108.39 27.62 110.33 27.81L110.34 27.82L110.34 27.82Q108.31 30.35 106.75 32.26L106.91 32.42L103.25 36.76L103.25 36.75Q105.49 35.99 107.13 35.65L107.00 35.52L107.03 35.54Q106.28 36.43 104.72 38.14L104.80 38.23L104.74 38.16Q107.83 37.26 110.95 37.22L110.93 37.20L111.02 37.29Q113.34 34.70 117.68 27.46L117.56 27.34L117.70 27.57L117.54 27.41Q117.91 26.78 118.25 26.29ZM112.25 17.05L112.28 17.08L112.25 17.05Q112.75 16.83 113.21 16.95L113.29 17.03L113.31 17.05Q113.87 17.07 114.25 17.19L114.39 17.32L114.30 17.24Q114.45 17.65 114.53 18.07L114.44 17.99L114.53 18.07Q114.67 18.56 114.55 18.94L114.39 18.77L114.54 18.92Q114.50 20.63 113.32 21.74L113.17 21.58L113.20 21.62Q112.29 22.69 110.66 22.65L110.60 22.60L110.73 22.73Q110.26 22.68 108.74 22.37L108.66 22.29L108.75 22.39Q108.55 21.54 108.55 20.81L108.43 20.69L108.55 20.81Q108.41 20.49 108.41 20.26L108.43 20.27L108.33 20.17Q108.36 17.99 110.64 17.19L110.79 17.34L110.63 17.19Q111.35 16.99 112.19 16.99Z"/><path fill="#111" d="M138.74 14.68L138.80 14.74L138.71 14.65Q136.68 14.71 135.72 14.87L135.82 14.96L135.86 15.00Q134.17 15.18 132.95 15.71L133.02 15.78L132.89 15.64Q129.42 17.12 129.30 21.81L129.36 21.87L129.37 21.88Q129.25 24.49 129.90 27.43L129.90 27.43L129.93 27.46Q130.84 31.53 134.46 32.71L134.41 32.66L134.48 32.74Q136.30 33.22 137.75 33.07L137.64 32.96L138.18 33.04L138.20 33.06Q138.39 33.06 138.58 33.10L138.63 33.15L138.44 32.96Q138.63 33.00 138.78 32.96L138.80 32.98L138.78 32.96Q141.56 32.85 142.93 32.28L142.77 32.12L139.21 28.59L139.17 28.55Q139.54 28.28 140.15 27.67L140.30 27.82L141.18 26.87L141.20 26.89Q142.96 28.88 144.94 30.94L144.88 30.88L144.93 30.92Q147.22 29.06 147.49 23.70L147.51 23.73L147.42 23.63Q147.65 22.87 147.65 21.96L147.58 21.89L147.63 21.93Q147.67 16.30 142.60 15.20L142.63 15.22L142.52 15.11Q141.27 14.85 138.75 14.70ZM151.39 36.62L151.56 36.79L151.58 36.81Q150.97 37.23 149.79 38.11L149.75 38.06L145.25 34.29L145.24 34.28Q142.86 35.60 138.60 35.64L138.53 35.57L138.67 35.70Q132.12 35.81 129.30 33.57L129.12 33.39L129.18 33.45Q127.37 31.64 126.91 28.67L126.94 28.70L126.89 28.65Q126.78 26.94 126.40 23.36L126.37 23.33L126.44 23.40Q126.48 22.72 126.37 20.97L126.19 20.79L126.30 20.90Q126.21 19.40 126.25 18.52L126.22 18.49L126.24 18.51Q126.31 15.43 128.06 13.87L127.97 13.77L128.08 13.89Q129.51 12.46 132.71 11.97L132.81 12.07L132.83 12.09Q135.27 11.67 138.16 11.75L138.09 11.68L138.12 11.70Q145.58 11.78 148.70 14.14L148.78 14.22L148.67 14.11Q150.86 16.26 150.59 21.17L150.58 21.15L150.71 21.29Q150.39 24.81 150.20 26.15L150.17 26.12L150.28 26.23Q149.52 30.61 147.20 32.93L147.29 33.02L147.21 32.94Q148.81 34.31 151.55 36.79ZM146.56 12.38L146.68 12.49L146.64 12.46Q144.65 11.76 138.14 11.27L138.04 11.17L138.17 11.30Q136.81 11.35 134.03 11.46L133.96 11.39L133.95 11.38Q129.81 11.70 127.57 13.68L127.59 13.69L127.58 13.68Q125.92 15.15 125.92 18.31L125.83 18.23L125.74 18.13Q125.84 19.07 126.00 20.78L126.00 20.79L125.92 20.71Q126.22 22.57 126.22 23.45L126.20 23.42L126.19 23.42Q126.19 25.01 126.57 28.59L126.72 28.74L126.57 28.60Q126.94 31.47 128.54 33.53L128.63 33.62L128.69 33.68Q128.85 34.34 130.07 35.48L130.07 35.48L130.14 35.55Q132.85 37.54 138.03 37.81L138.10 37.88L138.05 37.82Q138.41 37.85 140.81 37.96L140.73 37.88L140.77 37.92Q145.70 38.20 147.98 37.14L147.97 37.13L147.83 36.99Q148.70 37.66 153.42 41.24L153.43 41.25L153.50 41.32Q154.11 40.79 155.40 39.80L155.47 39.87L155.49 39.89Q154.54 39.12 153.74 38.44L153.67 38.37L152.05 36.94L152.08 36.82L152.24 36.98Q151.50 36.35 150.28 35.32L150.35 35.39L150.42 35.46Q152.29 32.91 152.29 28.38L152.22 28.32L152.31 28.41Q152.21 27.89 152.25 27.05L152.22 27.02L152.39 27.20Q152.36 26.29 152.36 25.87L152.33 25.84L152.35 25.86Q152.27 20.26 151.55 17.90L151.56 17.91L151.61 17.96Q151.30 16.74 150.43 15.67L150.47 15.71L150.45 15.70Q149.55 13.46 146.62 12.44ZM140.63 17.03L140.63 17.03L140.61 17.01Q144.65 16.91 146.48 18.50L146.44 18.47L146.52 18.54Q147.03 19.70 147.15 21.03L147.20 21.09L147.19 21.08Q147.26 22.33 147.19 23.70L147.20 23.72L147.31 23.82Q146.78 28.59 144.84 30.30L144.93 30.39L144.99 30.45Q143.59 29.05 141.08 26.31L141.22 26.46L141.03 26.27Q140.25 27.01 138.69 28.57L138.83 28.71L138.67 28.54Q139.32 29.23 140.46 30.41L140.51 30.46L140.50 30.57L140.45 30.52Q141.04 31.07 142.07 32.13L142.06 32.13L141.91 31.98Q141.05 32.37 138.73 32.68L138.59 32.54L138.10 32.59L137.84 32.74L137.64 32.58L137.66 32.60Q134.33 32.73 132.35 31.10L132.20 30.94L132.26 31.00Q131.18 28.87 131.22 25.75L131.32 25.85L131.23 25.75Q131.39 17.04 140.56 16.96Z"/></svg>