<svg xmlns="http://www.w3.org/2000/svg" width="200" height="40" viewBox="0,0,200,40"><path fill="#222" d="M82.04 24.28L81.91 24.15L82.04 24.29Q80.08 24.19 78.86 25.52L78.91 25.57L78.77 25.43Q77.66 26.87 77.51 28.78L77.44 28.71L77.55 28.81Q77.39 30.98 78.61 31.99L78.49 31.87L78.57 31.95Q79.76 32.93 81.89 32.85L81.96 32.92L81.84 32.80Q84.19 32.67 85.14 31.72L85.15 31.73L85.21 31.79Q86.19 30.29 86.07 28.47L85.98 28.37L86.08 28.47Q85.89 26.53 84.80 25.33L84.82 25.35L84.92 25.45Q83.77 24.18 81.94 24.18ZM81.98 14.82L81.90 14.74L81.99 14.83Q80.51 14.65 79.18 15.14L79.21 15.17L79.23 15.19Q77.79 15.85 78.02 17.71L78.09 17.78L78.06 17.75Q78.67 21.60 82.02 21.60L81.98 21.55L81.93 21.51Q83.59 21.79 84.57 20.65L84.40 20.48L84.56 20.63Q85.46 19.40 85.49 17.84L85.54 17.88L85.56 17.91Q85.70 16.21 84.97 15.61L84.79 15.42L84.81 15.44Q83.13 14.60 81.83 14.67ZM81.73 35.39L81.72 35.39L78.60 35.30L78.51 35.21Q77.13 35.37 75.80 34.49L75.78 34.47L75.66 34.35Q74.29 33.21 74.44 30.35L74.61 30.52L74.54 30.45Q75.06 23.66 78.68 22.67L78.68 22.67L78.68 22.67Q76.31 21.67 74.98 16.31L74.88 16.21L75.07 16.40Q74.73 15.00 74.81 14.20L74.77 14.16L74.63 14.02Q75.04 11.99 78.73 11.95L78.73 11.95L78.65 11.87Q82.86 11.78 84.31 11.97L84.42 12.08L84.38 12.04Q88.23 12.58 88.68 14.59L88.63 14.54L88.78 14.69Q88.73 15.14 88.73 15.52L88.85 15.64L88.78 15.57Q88.88 16.35 88.69 16.96L88.63 16.90L88.65 16.92Q87.94 21.05 85.01 22.57L85.05 22.61L85.07 22.63Q88.50 23.36 89.00 28.65L89.11 28.76L89.10 28.75Q89.03 28.83 89.06 30.13L89.16 30.22L89.16 30.22Q89.27 33.00 87.67 34.06L87.65 34.04L87.60 33.99Q86.27 34.91 81.70 35.36ZM83.99 37.69L83.95 37.65L87.23 37.65L87.31 37.74Q88.89 37.68 90.41 36.96L90.55 37.09L90.60 37.14Q91.56 36.24 91.64 34.38L91.74 34.48L91.82 34.55Q91.71 33.31 91.33 31.37L91.41 31.44L91.45 31.48Q90.53 26.84 88.44 24.97L88.44 24.97L88.15 24.49L87.92 24.18L87.79 23.94L87.75 23.90Q89.54 22.68 90.45 18.53L90.36 18.44L90.33 18.41Q90.37 18.08 90.45 17.24L90.54 17.33L90.39 17.17Q90.46 16.48 90.38 15.87L90.41 15.90L90.51 16.00Q90.40 14.60 89.22 14.10L89.04 13.93L89.27 14.12L89.02 13.94L88.95 13.87Q88.82 13.28 87.64 12.48L87.51 12.36L87.55 12.36L87.65 12.46Q85.69 11.79 81.62 11.60L81.48 11.47L81.60 11.59Q79.88 11.31 78.51 11.43L78.63 11.55L78.63 11.55Q77.71 11.46 76.42 11.62L76.52 11.72L76.45 11.65Q74.58 12.11 74.36 13.74L74.30 13.69L74.27 13.66Q74.32 14.24 74.35 15.04L74.26 14.94L74.30 14.98Q74.44 15.54 75.01 17.90L75.05 17.94L75.03 17.92Q75.78 21.11 77.53 22.44L77.56 22.47L77.67 22.58L77.60 22.51Q74.81 23.79 74.28 28.97L74.43 29.12L74.33 29.02Q74.18 31.27 74.18 32.18L74.16 32.16L74.10 32.10Q74.19 33.91 75.37 34.82L75.41 34.86L75.43 34.88Q75.43 34.84 75.70 35.03L75.87 35.21L75.84 35.17Q76.77 37.36 83.89 37.59ZM83.55 26.51L83.50 26.47L83.60 26.57Q84.42 26.39 85.29 26.85L85.46 27.02L85.44 27.00Q85.81 27.98 85.77 28.51L85.75 28.49L85.62 28.36Q85.68 28.68 85.68 28.99L85.72 29.03L85.78 29.09Q85.74 31.41 83.46 32.25L83.43 32.22L83.55 32.34Q82.69 32.59 81.90 32.48L81.89 32.47L81.96 32.54Q80.72 32.52 79.57 32.06L79.69 32.17L79.66 32.15Q79.39 31.49 79.47 30.50L79.53 30.57L79.39 30.43Q79.53 28.82 80.73 27.60L80.88 27.75L80.68 27.55Q81.89 26.34 83.49 26.46ZM83.76 17.02L83.86 17.12L83.88 17.14Q84.52 16.87 85.06 17.02L85.06 17.03L85.23 18.00L85.23 17.99Q85.20 19.37 84.29 20.38L84.31 20.41L84.20 20.30Q83.41 21.43 82.04 21.24L81.93 21.13L81.91 21.11Q80.95 21.14 80.54 20.91L80.61 20.99L80.45 20.82Q80.57 20.72 80.46 20.04L80.45 20.02L80.39 19.96Q80.19 18.63 81.41 17.79L81.40 17.78L81.31 17.69Q82.34 16.97 83.75 17.01Z"/><path fill="#111" d="M166.95 14.72L166.77 14.54L165.37 14.81L165.37 14.82Q163.02 14.82 162.79 16.84L162.84 16.89L162.83 16.88Q162.69 17.54 162.73 18.53L162.70 18.51L162.81 18.62Q162.74 20.45 163.99 21.78L164.00 21.78L164.05 21.84Q165.42 23.28 167.32 23.13L167.22 23.03L167.19 23.00Q169.21 22.81 169.98 21.90L170.07 21.99L170.02 21.94Q171.12 21.06 171.38 18.82L171.43 18.86L171.39 18.82Q171.75 16.67 170.49 15.83L170.50 15.83L170.41 15.75Q169.62 15.03 166.96 14.73ZM172.87 23.84L172.97 23.94L171.54 26.09L171.62 26.17Q168.85 30.90 165.08 34.97L165.20 35.09L165.22 35.11Q163.48 35.16 160.77 35.96L160.88 36.06L160.82 36.00Q166.17 29.74 169.33 24.94L169.29 24.91L169.35 24.96Q168.21 25.50 166.57 25.58L166.73 25.73L166.54 25.54Q163.69 25.85 162.17 23.87L162.02 23.72L162.19 23.90Q160.82 22.14 159.71 17.57L159.83 17.69L159.70 17.56Q159.78 17.19 159.63 16.26L159.67 16.30L159.62 16.24Q159.50 15.34 159.50 14.89L159.55 14.94L159.42 14.81Q159.50 13.10 160.57 12.49L160.45 12.37L160.47 12.39Q161.77 11.71 163.64 11.71L163.69 11.77L163.61 11.69Q166.89 11.77 166.89 11.77L166.81 11.69L166.73 11.61Q168.96 11.70 170.21 11.89L170.20 11.88L170.17 11.86Q172.31 12.13 173.22 12.62L173.35 12.74L173.21 12.61Q174.74 13.53 174.93 15.28L174.82 15.17L174.78 15.13Q174.80 15.38 174.61 18.04L174.75 18.19L174.74 18.17Q174.32 20.27 174.09 21.10L174.04 21.05L174.08 21.09Q173.62 22.42 172.86 23.83ZM174.75 26.22L174.82 26.29L174.80 26.27Q175.80 24.07 176.34 19.77L176.33 19.76L176.43 19.86Q176.60 17.56 176.56 16.68L176.64 16.76L176.51 16.64Q176.59 14.88 175.41 13.97L175.26 13.82L174.96 13.71L174.96 13.71Q174.77 13.03 173.86 12.38L173.77 12.29L173.83 12.36Q171.60 11.42 166.81 11.27L166.86 11.32L166.85 11.31Q165.75 11.17 163.32 11.17L163.31 11.16L163.31 11.16Q161.55 11.15 160.06 11.83L160.07 11.84L160.18 11.95Q159.06 12.77 159.14 14.60L159.13 14.59L159.03 14.50Q159.32 15.51 159.51 17.53L159.47 17.48L159.46 17.47Q160.12 20.15 160.39 20.99L160.29 20.89L160.38 20.99Q160.86 22.76 161.81 24.05L161.79 24.03L161.82 24.06Q162.13 24.45 162.52 24.83L162.53 24.85L162.43 24.75Q162.84 25.35 163.49 26.26L163.46 26.23L163.38 26.15Q164.99 27.65 166.93 27.84L166.84 27.75L166.95 27.86Q165.00 30.48 163.44 32.38L163.33 32.27L159.85 36.78L159.77 36.70Q162.08 36.01 163.72 35.67L163.63 35.57L163.60 35.55Q162.84 36.42 161.28 38.13L161.38 38.24L161.28 38.14Q164.49 37.35 167.61 37.31L167.62 37.32L167.58 37.28Q169.92 34.71 174.26 27.47L174.13 27.35L174.14 27.44L174.15 27.45Q174.52 26.83 174.86 26.33ZM168.78 17.01L168.86 17.09L168.75 16.98Q169.49 16.99 169.94 17.11L169.93 17.10L169.87 17.03Q170.48 17.11 170.86 17.23L170.81 17.17L170.82 17.18Q171.00 17.63 171.08 18.05L171.11 18.09L171.16 18.13Q171.17 18.48 171.05 18.86L171.14 18.96L171.09 18.90Q171.10 20.66 169.92 21.76L169.76 21.61L169.91 21.76Q168.97 22.80 167.33 22.76L167.30 22.73L167.27 22.70Q166.73 22.57 165.21 22.27L165.26 22.32L165.25 22.31Q165.01 21.42 165.01 20.70L165.07 20.76L165.05 20.74Q165.05 20.55 165.05 20.32L165.09 20.36L165.03 20.31Q165.09 18.15 167.37 17.35L167.31 17.29L167.28 17.26Q167.88 16.94 168.71 16.94Z"/><path fill="#444" d="M130.35 33.97L130.29 33.91L130.42 34.05Q132.27 31.62 137.03 24.35L136.86 24.18L136.97 24.30Q140.91 18.00 143.77 14.72L143.83 14.79L143.87 14.83Q141.73 15.08 139.63 15.08L139.71 15.16L139.71 15.16Q134.44 15.14 130.44 13.35L130.38 13.29L130.41 13.32Q129.67 11.32 128.98 9.76L128.98 9.76L129.02 9.80Q133.67 12.05 139.35 12.17L139.27 12.10L139.21 12.03Q144.40 12.16 149.58 10.26L149.61 10.29L149.58 10.26Q149.22 11.11 148.91 11.91L148.90 11.90L148.45 13.63L148.34 13.51Q145.28 17.15 141.29 22.98L141.26 22.95L137.90 27.74L138.05 27.89Q136.21 30.17 134.39 32.45L134.53 32.59L134.43 32.49Q137.73 31.87 141.04 31.95L141.14 32.04L141.01 31.91Q144.52 32.19 147.68 33.10L147.69 33.12L148.09 34.62L148.07 34.60Q148.42 35.52 148.76 36.35L148.75 36.34L148.58 36.18Q143.88 34.56 138.74 34.75L138.75 34.76L138.77 34.78Q133.69 35.02 129.20 37.04L129.17 37.02L129.16 37.01Q129.63 36.03 130.35 33.98ZM128.71 37.85L128.54 37.69L128.67 37.81Q129.91 37.23 130.71 36.96L130.74 36.99L130.69 36.93Q130.41 37.69 129.73 39.21L129.74 39.22L129.78 39.26Q135.45 37.09 141.43 37.32L141.42 37.31L141.35 37.24Q147.67 37.47 152.69 40.25L152.75 40.31L152.69 40.24Q151.24 37.81 150.44 35.64L150.43 35.63L150.58 35.77Q150.02 35.48 148.49 34.91L148.53 34.94L148.46 34.88Q148.36 34.20 147.94 32.72L147.97 32.75L147.95 32.73Q143.85 31.60 138.75 31.79L138.59 31.63L138.55 31.59Q140.83 28.99 144.37 23.43L144.30 23.36L144.42 23.48Q147.98 17.68 149.89 15.13L149.82 15.07L149.90 15.14Q150.36 13.70 151.39 11.00L151.31 10.92L151.32 10.94Q150.72 11.36 149.28 11.97L149.22 11.91L149.31 12.00Q149.53 11.08 150.25 9.56L150.32 9.63L150.29 9.60Q145.07 11.84 139.36 11.77L139.30 11.71L139.28 11.68Q133.34 11.60 128.39 9.09L128.44 9.14L128.45 9.16Q129.43 11.35 130.15 13.59L130.18 13.63L130.31 13.75Q131.39 14.26 132.19 14.49L132.13 14.43L132.19 14.49Q132.42 15.14 132.69 16.59L132.59 16.49L132.77 16.67Q136.47 17.71 141.34 17.52L141.29 17.46L141.23 17.41Q138.80 20.57 135.49 25.56L135.47 25.54L130.15 34.07L130.14 34.06Q129.71 35.28 128.69 37.83Z"/><path fill="#333" d="M54.67 25.52L54.63 25.49L54.56 25.41Q51.05 31.72 47.62 35.68L47.61 35.67L47.65 35.71Q45.86 36.21 43.43 37.08L43.43 37.08L43.38 37.04Q48.29 31.44 53.05 23.03L53.00 22.97L53.11 23.09Q48.47 16.09 42.50 9.69L42.46 9.66L42.49 9.69Q45.42 10.91 47.71 11.40L47.60 11.29L47.73 11.43Q52.23 16.50 54.67 20.46L54.70 20.48L54.72 20.51Q57.17 16.03 61.10 11.62L61.11 11.63L61.27 11.80Q62.86 11.48 66.06 10.72L65.89 10.55L65.97 10.63Q59.91 17.09 56.44 23.03L56.50 23.08L56.50 23.09Q61.65 31.74 66.03 36.31L65.99 36.27L65.97 36.25Q63.30 35.37 61.21 35.14L61.26 35.19L61.21 35.14Q58.48 32.23 54.56 25.41ZM61.24 35.59L61.16 35.52L61.28 35.64Q61.45 35.54 61.91 35.66L61.94 35.68L62.00 35.74Q62.76 36.46 64.28 38.06L64.29 38.07L64.34 38.13Q67.62 38.86 70.67 40.23L70.70 40.26L70.73 40.29Q63.63 33.72 58.53 24.96L58.36 24.79L58.42 24.85Q62.12 18.17 68.03 11.31L68.11 11.40L68.17 11.46Q66.72 12.11 64.55 12.64L64.48 12.57L64.51 12.59Q65.45 11.74 67.20 9.95L67.03 9.79L67.15 9.91Q64.80 10.83 61.11 11.40L60.96 11.25L60.98 11.27Q57.54 15.07 54.95 19.37L54.96 19.37L54.95 19.37Q54.18 17.91 53.00 16.43L52.98 16.41L50.63 13.41L50.27 13.44L50.18 13.34Q50.08 13.39 49.85 13.32L49.85 13.32L49.91 13.38Q49.26 12.57 47.77 11.01L47.72 10.95L47.67 10.91Q43.88 10.05 41.29 8.68L41.28 8.66L41.35 8.73Q48.12 16.04 52.69 23.08L52.59 22.98L52.66 23.06Q48.18 31.25 42.43 37.83L42.41 37.82L42.41 37.82Q43.79 37.21 45.92 36.64L45.90 36.63L44.51 37.98L44.55 38.01Q44.61 38.07 43.28 39.41L43.15 39.28L43.30 39.43Q46.13 38.19 49.29 37.69L49.45 37.85L49.38 37.78Q53.44 33.32 56.03 28.56L56.04 28.57L55.94 28.47Q58.60 32.80 61.30 35.66Z"/><path fill="#333" d="M23.27 21.80L23.23 21.76L23.34 21.87Q25.03 21.92 26.86 21.92L26.89 21.95L26.92 21.98Q28.77 22.04 30.60 21.89L30.45 21.74L30.57 21.87Q30.47 22.53 30.47 23.25L30.34 23.12L30.52 24.63L30.43 24.54Q28.04 24.52 23.28 24.63L23.34 24.69L23.27 24.61Q23.34 30.63 22.20 35.61L22.09 35.50L22.11 35.52Q20.00 36.30 18.51 37.10L18.54 37.13L18.55 37.14Q20.75 30.20 20.48 23.08L20.60 23.20L20.46 23.06Q20.24 15.95 17.58 9.29L17.57 9.28L17.63 9.34Q21.37 11.95 26.13 12.17L26.02 12.06L25.95 11.99Q30.72 12.27 34.87 10.52L34.78 10.43L34.78 10.43Q34.50 11.25 34.27 12.05L34.32 12.10L33.86 13.73L33.79 13.66Q31.09 14.77 28.12 14.92L28.11 14.91L28.24 15.04Q25.23 15.12 22.37 14.39L22.37 14.38L22.30 14.31Q23.07 17.79 23.26 21.79ZM35.42 9.74L35.44 9.76L35.57 9.88Q30.92 11.97 26.04 11.67L26.10 11.72L25.98 11.60Q20.61 11.26 16.88 8.40L17.02 8.54L16.92 8.44Q19.76 15.35 20.06 22.97L20.05 22.95L20.24 23.14Q20.41 30.93 17.90 37.71L18.04 37.85L17.94 37.75Q18.61 37.35 19.98 36.70L19.95 36.67L20.07 36.80Q19.83 37.50 19.26 39.03L19.27 39.04L19.25 39.03Q21.64 38.03 24.54 37.53L24.54 37.53L24.47 37.47Q25.01 32.52 25.20 26.81L25.15 26.76L25.27 26.88Q26.94 26.72 28.76 26.72L28.90 26.86L28.76 26.72Q30.64 26.81 32.47 27.00L32.48 27.01L32.53 27.07Q32.37 26.06 32.37 25.15L32.38 25.16L32.43 23.31L32.46 23.34Q31.60 23.36 30.77 23.36L30.78 23.37L30.85 23.44Q30.82 22.53 30.90 21.51L30.92 21.53L30.93 21.54Q29.39 21.56 27.98 21.56L27.97 21.55L28.04 21.62Q26.67 21.65 25.29 21.62L25.35 21.67L25.22 19.41L25.29 19.48Q25.12 18.24 25.01 17.18L25.03 17.21L24.97 17.14Q26.03 17.29 27.02 17.29L26.98 17.24L26.97 17.24Q31.79 17.30 35.40 15.39L35.46 15.45L35.46 15.45Q35.80 13.47 36.72 10.84L36.75 10.88L36.82 10.95Q35.54 11.79 34.74 12.14L34.64 12.04L34.80 12.20Q35.08 11.45 35.57 9.89Z"/><path d="M6 5 C100 9,97 38,196 21" stroke="#111" fill="none"/><path d="M8 4 C107 5,102 7,186 30" stroke="#666" fill="none"/><path fill="#222" d="M118.85 35.37L118.76 35.29L118.85 35.37Q115.93 31.55 113.31 22.91L113.28 22.88L113.17 22.76Q112.49 20.60 111.69 18.47L111.84 18.62L108.92 27.35L108.83 27.26Q107.02 32.19 104.62 35.42L104.66 35.46L104.63 35.43Q103.78 35.49 102.14 35.64L102.16 35.67L102.14 35.65Q102.43 34.64 102.43 33.38L102.29 33.24L102.36 33.32Q102.25 27.19 99.51 21.06L99.61 21.16L99.68 21.23Q96.52 14.30 90.65 9.31L90.70 9.36L90.70 9.35Q92.72 9.93 95.08 10.47L95.10 10.48L95.12 10.51Q103.81 18.96 105.10 29.93L105.00 29.82L105.02 29.85Q106.79 26.67 108.24 21.30L108.21 21.27L108.06 21.12Q110.07 13.65 110.56 12.24L110.66 12.34L112.87 12.30L112.82 12.26Q113.51 14.27 114.15 16.60L114.29 16.73L115.46 21.10L115.49 21.12Q117.05 26.58 118.46 29.81L118.48 29.83L118.53 29.88Q120.16 18.23 128.08 10.88L128.12 10.92L128.03 10.82Q129.54 10.47 132.51 9.83L132.60 9.92L132.54 9.85Q127.25 14.19 124.20 20.32L124.17 20.30L124.07 20.19Q121.15 26.60 121.15 33.38L121.11 33.34L121.04 33.26Q121.00 34.33 121.08 35.48L121.04 35.44L119.95 35.37L120.07 35.49Q119.43 35.39 118.86 35.39ZM125.06 38.23L125.18 38.36L125.15 38.32Q123.91 34.77 124.03 30.88L123.92 30.77L123.91 30.77Q124.25 19.23 133.61 10.97L133.75 11.11L133.74 11.10Q132.65 11.19 130.71 11.72L130.80 11.80L130.81 11.82Q131.74 10.96 133.65 9.17L133.57 9.09L133.59 9.12Q130.97 9.93 128.04 10.42L128.08 10.45L127.97 10.35Q120.44 17.44 118.54 26.92L118.72 27.10L118.58 26.96Q117.96 25.28 115.11 13.82L115.19 13.90L115.26 13.97Q114.74 13.94 113.79 13.94L113.80 13.96L113.47 12.86L113.56 12.95Q113.49 12.46 113.26 11.97L113.19 11.90L110.38 11.98L110.37 11.97Q109.51 14.38 108.23 19.50L108.12 19.40L108.15 19.43Q106.90 24.56 105.91 27.04L105.82 26.95L105.97 27.10Q104.34 19.15 98.78 12.83L98.88 12.94L98.83 12.89Q98.39 12.87 97.44 12.68L97.32 12.55L97.36 12.59Q96.59 11.71 95.03 10.07L95.11 10.15L94.99 10.03Q91.65 9.28 89.48 8.48L89.41 8.41L89.59 8.59Q95.19 13.20 98.46 19.41L98.47 19.41L98.36 19.30Q101.97 26.08 101.97 33.08L101.83 32.94L101.99 33.10Q101.89 34.56 101.70 36.16L101.74 36.20L101.79 36.24Q101.90 36.13 102.36 36.03L102.42 36.09L102.37 36.05Q102.96 36.09 103.19 36.09L103.12 36.02L103.15 37.08L103.16 37.08Q103.02 37.40 103.09 37.93L103.14 37.97L103.08 37.91Q104.35 37.97 106.63 37.81L106.66 37.84L106.54 37.72Q110.18 32.35 112.93 22.94L112.95 22.96L112.90 22.92Q115.72 31.76 118.69 35.72L118.69 35.71L118.72 35.75Q119.21 35.78 120.05 35.89L120.11 35.95L120.07 35.91Q120.82 36.85 121.89 37.92L122.00 38.03L121.96 37.99Q122.67 37.98 125.07 38.25Z"/></svg>