<svg xmlns="http://www.w3.org/2000/svg" width="200" height="40" viewBox="0,0,200,40"><path fill="#333" d="M109.07 34.83L109.12 34.88L109.08 34.84Q105.00 34.37 103.17 32.92L103.15 32.90L103.09 32.84Q101.30 31.44 100.89 28.43L100.93 28.47L100.89 28.44Q100.89 28.10 100.55 23.34L100.44 23.22L100.47 23.26Q100.62 22.19 100.54 20.94L100.58 20.97L100.56 20.95Q100.33 15.84 102.53 14.09L102.44 14.00L102.46 14.02Q105.30 12.10 113.07 11.42L112.88 11.22L112.97 11.32Q114.29 11.16 115.93 11.20L115.99 11.25L115.92 11.19Q116.04 11.30 119.01 11.30L119.00 11.29L118.90 11.19Q119.68 11.14 121.39 11.29L121.55 11.45L121.52 11.42Q121.04 12.39 120.02 15.47L119.86 15.32L120.00 15.45Q117.92 14.25 114.91 14.25L114.82 14.16L114.83 14.16Q113.99 14.09 113.19 14.17L113.22 14.20L113.25 14.22Q108.09 14.63 105.58 16.61L105.60 16.62L105.74 16.77Q103.65 18.29 103.50 21.64L103.55 21.69L103.45 21.60Q103.37 22.16 103.41 23.42L103.46 23.47L103.46 23.47Q103.51 28.24 105.91 30.34L105.94 30.36L105.95 30.38Q108.09 32.29 113.08 32.59L113.25 32.77L113.15 32.66Q116.29 32.84 119.30 31.05L119.31 31.06L119.28 31.03Q119.82 33.70 120.43 35.07L120.58 35.22L120.42 35.06Q118.44 35.45 116.81 35.41L116.76 35.36L116.75 35.35Q112.23 35.25 109.11 34.87ZM124.26 38.63L124.25 38.63L124.33 38.70Q122.41 35.56 121.72 32.97L121.79 33.04L121.88 33.14Q121.37 33.31 120.38 33.69L120.36 33.67L120.43 33.74Q120.02 32.88 119.83 32.04L119.82 32.03L119.41 30.28L119.43 30.30Q116.15 32.36 113.03 32.24L113.17 32.38L113.18 32.39Q108.82 32.11 106.50 30.36L106.50 30.36L106.42 30.27Q105.40 28.57 105.47 25.64L105.53 25.69L105.51 25.67Q105.51 21.02 107.98 18.89L108.13 19.04L108.11 19.02Q110.27 17.14 114.95 16.53L114.84 16.43L114.90 16.49Q115.60 16.27 116.32 16.27L116.44 16.38L116.45 16.40Q119.21 16.38 121.31 17.90L121.23 17.83L121.23 17.83Q121.85 15.82 123.07 12.58L122.96 12.48L122.91 12.42Q122.76 12.54 122.21 12.48L122.25 12.53L122.12 12.40Q121.62 12.39 121.35 12.39L121.41 12.45L121.26 12.30Q121.47 11.79 121.93 10.80L122.02 10.89L121.93 10.80Q121.83 10.93 119.34 10.85L119.34 10.86L119.33 10.84Q116.83 10.76 116.18 10.80L116.13 10.74L116.08 10.70Q105.54 11.00 102.07 13.59L102.19 13.71L102.17 13.69Q100.10 15.46 100.10 19.39L100.13 19.42L100.10 19.39Q100.22 20.61 100.33 23.31L100.33 23.31L100.28 23.26Q100.35 26.76 100.58 28.47L100.61 28.50L100.53 28.42Q100.91 31.54 102.51 33.07L102.65 33.20L102.64 33.19Q103.02 33.76 104.27 34.90L104.23 34.86L104.39 35.02Q107.67 36.82 112.92 37.58L112.92 37.58L112.93 37.58Q119.28 38.45 124.26 38.64Z"/><path fill="#333" d="M78.66 35.35L78.56 35.25L78.55 35.24Q77.19 35.37 75.63 34.95L75.78 35.09L75.77 35.08Q74.50 34.12 74.34 32.48L74.29 32.42L74.28 32.42Q74.32 32.30 74.51 29.68L74.39 29.56L74.56 29.73Q75.46 29.41 77.48 29.03L77.43 28.98L77.35 29.85L77.34 29.84Q77.12 31.64 78.53 32.21L78.49 32.17L78.46 32.14Q79.29 32.51 81.38 32.51L81.36 32.49L81.35 32.49Q82.98 32.37 83.17 32.29L83.08 32.19L83.06 32.17Q83.96 32.01 84.69 31.52L84.71 31.54L84.74 31.57Q86.09 30.56 85.90 28.47L86.09 28.66L86.03 28.59Q85.71 26.03 83.98 24.47L84.16 24.65L84.11 24.60Q82.26 22.92 79.79 22.92L79.86 23.00L79.79 22.70L79.80 22.71Q80.27 22.76 81.15 22.69L81.05 22.59L81.05 22.59Q83.11 22.63 84.48 21.40L84.31 21.22L84.32 21.23Q85.70 20.00 85.85 18.14L85.83 18.11L85.94 18.23Q85.93 17.80 85.93 17.46L85.95 17.47L86.01 17.54Q86.09 16.09 84.71 15.17L84.62 15.08L84.55 15.01Q83.48 14.36 81.89 14.48L81.72 14.31L81.72 14.31Q80.46 14.20 79.25 14.62L79.37 14.74L79.39 14.77Q77.83 15.18 77.52 16.32L77.49 16.28L77.56 16.36Q77.27 17.01 77.34 17.78L77.45 17.88L77.41 17.84Q76.46 17.69 74.40 16.97L74.44 17.00L74.30 16.86Q74.13 15.25 74.17 14.41L74.18 14.43L74.17 14.41Q74.21 12.82 75.28 12.13L75.38 12.24L75.41 12.26Q76.81 11.65 78.41 11.65L78.40 11.64L78.32 11.56Q81.41 11.45 84.57 11.72L84.58 11.73L84.63 11.78Q89.68 12.19 89.38 15.96L89.39 15.97L89.47 16.04Q89.28 17.41 88.78 18.98L88.88 19.07L88.88 19.07Q87.91 22.10 85.55 23.02L85.62 23.09L85.61 23.08Q88.28 23.65 88.89 27.00L88.83 26.94L88.73 26.85Q89.09 28.12 89.17 30.14L89.11 30.07L89.10 30.07Q89.20 34.47 84.60 34.93L84.71 35.04L84.70 35.03Q84.03 35.16 78.74 35.43ZM83.81 37.53L83.78 37.50L83.82 37.54Q84.53 37.68 87.39 37.76L87.34 37.71L87.43 37.80Q88.99 37.69 90.63 37.04L90.82 37.23L90.81 37.22Q91.82 36.10 91.63 34.35L91.62 34.34L91.66 34.38Q91.50 33.00 91.20 31.25L91.22 31.27L91.37 31.42Q90.57 26.86 88.63 25.22L88.69 25.28L88.38 24.78L88.38 24.74L88.45 24.81Q90.23 23.39 90.99 19.01L91.00 19.03L90.97 18.99Q90.98 18.51 91.09 17.56L91.06 17.52L91.13 17.60Q91.07 16.69 90.99 16.01L90.98 16.00L91.06 16.08Q90.85 14.35 89.56 13.66L89.54 13.64L89.51 13.69L89.64 13.82Q89.21 12.70 88.06 12.17L88.19 12.29L88.05 12.15Q86.55 11.49 81.41 11.19L81.38 11.15L81.34 11.12Q79.67 11.05 78.07 11.05L78.15 11.12L78.19 11.16Q76.60 11.17 75.07 11.82L75.13 11.87L75.07 11.82Q73.75 12.47 73.75 14.22L73.74 14.21L73.73 14.20Q73.85 13.91 74.12 17.26L74.03 17.16L74.04 17.18Q74.42 17.33 76.05 17.94L76.05 17.93L75.93 17.81Q76.07 18.48 76.03 18.98L76.03 18.98L76.08 19.03Q75.96 19.40 76.00 19.93L76.10 20.03L76.00 19.93Q77.89 20.42 79.91 20.54L79.91 20.53L79.73 20.36Q79.67 18.36 80.78 17.52L80.83 17.57L80.96 17.70Q81.62 16.88 83.64 16.65L83.69 16.70L83.70 16.71Q84.85 16.72 85.43 16.91L85.49 16.98L85.47 16.96Q85.39 16.95 85.42 17.06L85.52 17.16L85.43 17.26L85.64 17.93L85.53 17.82Q85.53 18.01 85.49 18.16L85.55 18.22L85.59 18.26Q85.53 19.98 84.00 21.16L83.94 21.10L83.96 21.12Q83.08 22.07 81.07 22.26L81.13 22.32L81.13 22.33Q80.40 22.48 79.53 22.48L79.50 22.45L79.48 22.43Q79.58 22.83 79.73 23.52L79.60 23.39L79.55 23.34Q81.33 23.37 82.78 24.09L82.77 24.08L82.77 24.19L81.21 24.39L81.23 24.40Q81.17 24.65 81.29 25.26L81.26 25.23L81.39 25.37Q83.49 25.25 85.20 26.58L85.20 26.58L85.22 26.61Q85.42 26.96 85.73 28.60L85.72 28.59L85.73 28.60Q85.91 31.52 82.98 31.94L83.03 32.00L83.04 32.00Q80.94 32.27 80.37 32.23L80.37 32.23L80.39 32.24Q79.78 31.98 79.24 31.90L79.30 31.96L79.40 31.59L79.35 30.97L79.48 30.69L79.53 30.39L79.47 30.34Q78.44 30.34 77.64 30.53L77.80 30.68L77.71 30.59Q77.74 30.43 77.74 30.24L77.78 30.28L77.79 30.30Q77.70 29.98 77.70 29.75L77.75 29.79L77.82 29.87Q77.70 29.29 77.85 28.56L78.00 28.71L77.87 28.58Q75.98 28.79 74.11 29.13L74.14 29.16L74.21 29.22Q74.24 29.75 74.12 30.87L74.12 30.87L73.99 30.74Q74.01 31.99 74.01 32.60L74.02 32.62L74.05 32.65Q74.10 34.67 75.47 35.44L75.51 35.47L75.39 35.35Q76.90 37.66 81.62 37.47L81.67 37.52L81.64 37.49Q82.42 37.52 83.95 37.67Z"/><path d="M18 18 C99 10,89 16,191 25" stroke="#555" fill="none"/><path fill="#333" d="M135.81 25.73L135.78 25.70L135.67 25.58Q135.74 25.65 139.13 25.62L139.03 25.52L139.11 25.60Q141.44 25.65 142.51 25.69L142.47 25.65L142.47 25.65Q141.31 22.66 138.87 17.02L138.86 17.01L139.05 17.20Q138.41 18.54 137.36 21.40L137.29 21.32L137.39 21.42Q136.31 24.25 135.74 25.66ZM143.48 28.03L143.51 28.05L143.51 28.06Q141.22 28.02 139.02 28.06L138.99 28.03L139.09 28.13Q136.87 28.20 134.59 28.39L134.49 28.29L134.59 28.38Q133.11 31.86 129.87 36.05L129.83 36.00L129.70 35.87Q127.16 36.53 125.79 37.03L125.91 37.15L125.89 37.13Q130.98 31.44 135.66 18.08L135.70 18.12L135.71 18.12Q136.91 14.64 138.28 11.41L138.30 11.43L138.17 11.30Q138.58 11.41 138.93 11.41L138.84 11.32L139.71 11.47L139.59 11.35Q140.41 12.78 145.25 24.43L145.13 24.31L145.15 24.33Q148.41 32.16 152.41 36.31L152.41 36.31L152.43 36.34Q151.92 36.20 148.03 35.32L148.09 35.38L148.09 35.38Q145.45 32.17 143.47 28.02ZM148.02 35.73L147.97 35.68L148.53 35.74L148.51 35.73Q148.76 35.74 149.06 35.86L149.12 35.92L149.23 36.02Q149.42 36.25 151.25 38.27L151.40 38.42L151.31 38.33Q154.88 39.16 157.28 40.19L157.28 40.19L157.34 40.25Q151.86 35.72 147.86 27.73L147.93 27.80L147.85 27.72Q146.21 24.40 144.76 20.44L144.83 20.50L141.96 12.88L142.01 12.93Q141.70 12.96 141.47 12.96L141.56 13.05L140.96 12.99L140.91 12.94Q140.66 12.38 139.93 11.01L139.96 11.04L139.81 10.88Q139.39 10.99 138.93 10.95L138.89 10.91L138.97 11.00Q138.57 11.02 138.04 11.02L137.90 10.87L137.88 10.86Q136.63 14.94 132.75 25.10L132.70 25.06L132.62 24.98Q129.62 33.05 124.98 37.85L124.99 37.87L124.91 37.78Q125.90 37.33 127.92 36.72L127.92 36.72L128.02 36.82Q127.17 37.60 125.61 39.39L125.65 39.44L125.58 39.37Q127.39 38.81 131.31 38.05L131.32 38.07L131.17 37.91Q134.69 33.67 136.25 30.43L136.19 30.37L136.26 30.44Q138.09 30.41 140.41 30.44L140.30 30.33L140.40 30.43Q143.03 30.36 144.40 30.43L144.35 30.38L144.47 30.50Q145.62 32.76 147.98 35.69ZM140.29 21.03L140.21 20.95L140.34 21.08Q141.09 23.05 141.85 25.14L142.00 25.29L138.61 25.21L138.61 25.21Q139.23 23.82 140.30 21.04Z"/><path fill="#333" d="M53.69 24.22L53.58 24.11L53.57 24.10Q51.87 24.27 50.65 25.60L50.59 25.53L50.67 25.61Q49.37 26.87 49.22 28.77L49.24 28.79L49.22 28.77Q48.94 30.81 50.16 31.82L50.21 31.87L50.28 31.94Q51.35 32.81 53.49 32.73L53.60 32.85L53.55 32.79Q55.99 32.77 56.95 31.81L56.95 31.82L56.92 31.79Q57.94 30.34 57.83 28.51L57.78 28.46L57.76 28.44Q57.74 26.67 56.65 25.47L56.64 25.45L56.62 25.44Q55.50 24.20 53.67 24.20ZM53.69 14.82L53.53 14.65L53.70 14.82Q52.19 14.61 50.85 15.10L50.95 15.20L50.82 15.06Q49.64 15.98 49.87 17.84L49.84 17.82L49.86 17.84Q50.40 21.62 53.75 21.62L53.64 21.50L53.72 21.58Q55.23 21.73 56.22 20.58L56.19 20.55L56.20 20.56Q57.18 19.41 57.22 17.85L57.23 17.86L57.27 17.90Q57.29 16.09 56.57 15.48L56.64 15.56L56.66 15.58Q54.83 14.58 53.53 14.66ZM53.29 35.24L53.27 35.22L50.40 35.40L50.21 35.21Q48.88 35.40 47.54 34.52L47.50 34.47L47.41 34.39Q46.13 33.34 46.28 30.48L46.32 30.51L46.30 30.49Q46.71 23.59 50.32 22.60L50.29 22.57L50.40 22.68Q48.05 21.70 46.72 16.34L46.68 16.29L46.65 16.27Q46.31 14.85 46.38 14.05L46.39 14.07L46.40 14.07Q46.74 11.97 50.43 11.93L50.33 11.84L50.47 11.97Q54.67 11.88 56.12 12.07L56.01 11.96L56.16 12.10Q59.87 12.51 60.33 14.53L60.49 14.69L60.48 14.67Q60.41 15.10 60.41 15.49L60.43 15.50L60.57 15.64Q60.49 16.25 60.30 16.86L60.31 16.87L60.39 16.95Q59.68 21.07 56.75 22.59L56.79 22.64L56.73 22.58Q60.30 23.45 60.80 28.74L60.84 28.78L60.70 28.64Q60.75 28.84 60.79 30.14L60.81 30.16L60.91 30.26Q60.94 32.95 59.34 34.02L59.22 33.90L59.30 33.98Q57.86 34.79 53.30 35.24ZM55.72 37.71L55.73 37.71L59.05 37.76L58.89 37.61Q60.77 37.85 62.30 37.13L62.24 37.07L62.26 37.09Q63.43 36.39 63.50 34.52L63.40 34.42L63.36 34.38Q63.52 33.40 63.14 31.46L63.15 31.47L63.09 31.41Q62.27 26.86 60.18 25.00L60.17 24.98L59.94 24.56L59.76 24.31L59.50 23.94L59.57 24.01Q61.13 22.56 62.05 18.41L62.06 18.43L62.04 18.41Q62.10 18.08 62.17 17.24L62.12 17.20L62.11 17.18Q62.20 16.51 62.12 15.90L62.25 16.03L62.20 15.98Q61.94 14.42 60.76 13.93L60.90 14.07L60.99 14.12L60.72 13.93L60.67 13.88Q60.48 13.23 59.30 12.43L59.18 12.31L59.23 12.32L59.38 12.47Q57.30 11.68 53.22 11.49L53.33 11.60L53.27 11.54Q51.64 11.35 50.27 11.47L50.33 11.53L50.25 11.45Q49.57 11.60 48.27 11.76L48.30 11.78L48.20 11.69Q46.31 12.12 46.08 13.76L46.04 13.71L46.00 13.67Q46.06 14.27 46.10 15.07L46.12 15.09L46.06 15.03Q46.23 15.62 46.81 17.98L46.72 17.90L46.77 17.95Q47.50 21.11 49.25 22.44L49.34 22.53L49.44 22.63L49.31 22.50Q46.57 23.84 46.04 29.01L45.95 28.93L46.00 28.97Q45.88 31.25 45.88 32.17L45.81 32.10L45.90 32.18Q45.87 33.87 47.05 34.79L47.02 34.75L47.19 34.93Q47.15 34.85 47.42 35.04L47.51 35.13L47.51 35.13Q48.61 37.49 55.73 37.72ZM55.37 26.62L55.24 26.49L55.39 26.64Q56.30 26.56 57.18 27.02L57.13 26.97L56.99 26.83Q57.49 27.95 57.46 28.48L57.47 28.50L57.44 28.46Q57.41 28.70 57.41 29.00L57.49 29.08L57.43 29.02Q57.37 31.32 55.08 32.16L55.21 32.28L55.19 32.27Q54.31 32.49 53.51 32.37L53.52 32.38L53.61 32.47Q52.53 32.61 51.39 32.16L51.36 32.13L51.33 32.10Q51.14 31.53 51.22 30.54L51.09 30.42L51.14 30.46Q51.35 28.92 52.55 27.70L52.46 27.61L52.51 27.66Q53.69 26.43 55.29 26.55ZM55.45 17.00L55.56 17.11L55.58 17.13Q56.30 16.93 56.83 17.08L56.88 17.13L56.80 17.85L56.82 17.87Q56.85 19.31 55.94 20.32L55.91 20.29L56.00 20.38Q55.12 21.42 53.75 21.23L53.66 21.15L53.64 21.12Q52.75 21.22 52.33 21.00L52.33 20.99L52.22 20.88Q52.27 20.71 52.16 20.02L52.10 19.96L52.03 19.90Q51.80 18.52 53.02 17.69L53.11 17.77L53.13 17.79Q54.07 16.99 55.48 17.02Z"/><path d="M15 18 C116 30,105 12,187 23" stroke="#555" fill="none"/><path fill="#444" d="M34.30 18.34L34.24 18.28L34.33 18.37Q32.58 14.27 26.38 14.46L26.38 14.46L26.23 14.31Q21.87 14.47 19.89 15.92L19.95 15.98L20.03 16.06Q17.51 17.69 17.51 21.81L17.53 21.83L17.59 23.75L17.57 23.74Q17.50 32.50 26.53 32.50L26.48 32.45L26.57 32.54Q28.58 32.50 30.07 31.70L30.02 31.65L30.18 31.81Q31.91 30.68 31.75 28.82L31.75 28.81L31.83 28.89Q31.67 26.83 27.98 25.92L27.98 25.92L25.85 25.73L25.97 25.85Q25.05 25.88 24.10 25.92L24.07 25.89L24.12 25.94Q24.03 24.90 24.00 23.00L23.91 22.92L24.05 23.05Q31.64 22.99 35.83 22.65L35.86 22.68L35.89 22.71Q35.90 23.60 35.90 24.39L35.87 24.37L35.75 24.24Q35.73 25.03 35.77 25.83L35.88 25.94L35.84 25.90Q34.78 25.94 34.78 25.94L34.80 25.96L34.76 25.92Q33.30 25.83 33.68 25.83L33.66 25.81L33.69 25.85Q34.72 27.41 35.10 29.39L35.12 29.40L35.23 29.52Q35.22 30.12 35.22 30.57L35.36 30.71L35.22 30.57Q35.39 35.38 26.59 35.38L26.51 35.30L26.47 35.26Q19.48 35.38 16.89 33.29L16.72 33.12L16.85 33.26Q14.89 30.91 14.89 25.85L14.79 25.75L14.90 25.86Q14.85 24.74 14.69 22.04L14.75 22.09L14.69 22.03Q14.56 19.69 14.60 18.32L14.65 18.38L14.64 18.37Q14.59 15.34 15.96 13.74L16.05 13.84L15.95 13.74Q18.62 11.80 23.50 11.61L23.38 11.49L26.13 11.51L26.06 11.43Q29.26 11.44 32.68 11.85L32.61 11.78L32.57 11.74Q36.44 12.34 37.39 15.57L37.40 15.58L37.31 15.49Q36.34 16.46 34.25 18.29ZM35.58 20.42L35.69 20.42L35.79 20.52Q37.01 19.45 38.87 17.47L38.77 17.37L38.84 17.44Q38.42 16.38 37.43 14.66L37.43 14.66L37.42 14.65Q36.31 12.05 32.50 11.40L32.46 11.36L32.45 11.35Q30.43 11.35 26.13 11.05L26.04 10.96L23.53 11.26L23.36 11.10Q18.18 11.28 15.59 13.26L15.67 13.34L15.70 13.37Q14.27 14.95 14.15 18.03L14.25 18.13L14.23 18.11Q14.15 17.57 14.38 23.05L14.49 23.16L14.53 23.20Q14.51 24.51 14.58 27.25L14.60 27.27L14.45 27.12Q14.75 31.68 16.50 33.62L16.55 33.68L16.43 33.56Q16.93 34.52 17.81 35.39L17.80 35.39L17.77 35.35Q20.71 37.26 26.23 37.60L26.13 37.51L29.12 37.80L28.95 37.63Q30.59 37.77 32.60 37.66L32.59 37.65L32.59 37.65Q34.03 37.56 36.12 37.03L36.21 37.12L36.21 37.12Q38.10 36.57 38.06 34.25L38.10 34.28L38.06 34.25Q38.04 32.97 36.97 30.19L37.09 30.31L36.96 30.17Q36.81 29.42 36.28 28.62L36.10 28.45L36.18 28.52Q36.85 28.62 38.03 28.81L37.94 28.72L37.94 28.72Q37.69 25.16 37.73 24.48L37.72 24.47L37.66 24.41Q37.36 24.49 36.94 24.45L37.01 24.51L36.85 24.35Q36.54 24.39 36.16 24.46L36.20 24.51L36.21 24.52Q36.09 23.30 36.17 22.23L36.22 22.28L36.26 22.32Q29.85 22.69 23.57 22.57L23.61 22.62L23.73 22.73Q23.67 23.55 23.67 24.46L23.72 24.52L23.73 26.28L23.65 26.20Q24.13 26.30 24.55 26.26L24.56 26.27L24.48 26.18Q24.95 26.24 25.41 26.24L25.43 26.26L25.34 26.18Q25.46 26.74 25.49 27.24L25.39 27.13L25.35 27.09Q25.42 27.62 25.38 28.12L25.45 28.18L25.37 28.10Q26.34 28.01 27.37 27.97L27.41 28.02L27.39 27.99Q28.43 28.01 29.46 28.05L29.43 28.02L29.49 28.08Q30.62 28.41 31.49 28.79L31.38 28.67L31.44 28.77L31.40 28.73Q31.58 30.28 29.91 31.19L29.89 31.17L29.95 31.24Q28.28 32.16 26.57 32.16L26.58 32.17L26.56 32.15Q22.77 32.21 20.33 30.45L20.21 30.33L20.22 30.34Q19.35 28.41 19.50 25.86L19.44 25.79L19.46 25.81Q19.84 21.09 21.68 19.09L21.67 19.07L21.65 19.05Q23.42 16.98 28.10 16.67L28.11 16.68L28.20 16.77Q31.89 16.58 33.83 18.37L33.80 18.34L33.82 18.36Q33.75 18.32 33.86 18.51L33.99 18.64L34.08 18.62L34.07 18.61Q34.78 19.43 35.35 20.54L35.22 20.40L35.65 20.49Z"/><path fill="#111" d="M167.76 25.47L167.67 25.38L167.82 25.53Q164.33 31.86 160.90 35.82L160.74 35.65L160.90 35.82Q158.99 36.19 156.56 37.07L156.49 37.00L156.52 37.03Q161.35 31.36 166.11 22.94L166.17 23.00L166.21 23.05Q161.47 15.94 155.49 9.55L155.51 9.57L155.58 9.63Q158.47 10.81 160.76 11.31L160.82 11.37L160.76 11.31Q165.45 16.58 167.89 20.54L167.88 20.53L167.89 20.54Q170.40 16.12 174.32 11.70L174.33 11.71L174.30 11.68Q175.89 11.37 179.09 10.60L179.06 10.58L179.11 10.63Q173.02 17.06 169.56 23.00L169.58 23.03L169.50 22.95Q174.82 31.77 179.20 36.34L179.02 36.16L179.10 36.24Q176.53 35.46 174.43 35.23L174.39 35.18L174.34 35.13Q171.63 32.24 167.71 25.42ZM174.34 35.55L174.33 35.55L174.43 35.64Q174.75 35.69 175.20 35.80L175.17 35.78L175.16 35.76Q175.88 36.44 177.40 38.04L177.49 38.13L177.50 38.14Q180.80 38.89 183.85 40.26L183.83 40.25L183.81 40.22Q176.77 33.72 171.67 24.96L171.50 24.79L171.61 24.91Q175.43 18.33 181.33 11.48L181.30 11.45L181.24 11.38Q179.75 11.99 177.58 12.52L177.71 12.65L177.63 12.58Q178.59 11.75 180.34 9.96L180.21 9.82L180.31 9.93Q177.77 10.66 174.08 11.23L174.25 11.41L174.10 11.25Q170.83 15.21 168.24 19.52L168.10 19.37L168.11 19.38Q167.22 17.81 166.04 16.33L166.10 16.39L163.81 13.45L163.46 13.48L163.46 13.48Q163.22 13.39 162.99 13.31L163.08 13.40L163.11 13.43Q162.29 12.47 160.81 10.90L160.79 10.89L160.82 10.92Q157.00 10.02 154.41 8.65L154.43 8.68L154.52 8.77Q161.12 15.90 165.69 22.94L165.75 23.00L165.74 22.99Q161.22 31.15 155.48 37.74L155.61 37.88L155.49 37.75Q156.83 37.12 158.97 36.55L159.03 36.62L157.59 37.91L157.65 37.97Q157.60 37.93 156.27 39.26L156.26 39.25L156.28 39.27Q159.31 38.23 162.47 37.73L162.46 37.72L162.48 37.74Q166.45 33.18 169.04 28.43L169.07 28.46L169.04 28.42Q171.63 32.69 174.33 35.54Z"/></svg>