<svg xmlns="http://www.w3.org/2000/svg" width="200" height="40" viewBox="0,0,200,40"><path fill="#333" d="M34.15 18.19L34.16 18.20L34.32 18.36Q32.44 14.12 26.23 14.31L26.35 14.43L26.27 14.35Q21.95 14.56 19.97 16.00L19.87 15.91L20.03 16.06Q17.63 17.81 17.63 21.92L17.57 21.87L17.53 23.69L17.49 23.65Q17.54 32.54 26.56 32.54L26.48 32.45L26.57 32.54Q28.70 32.61 30.18 31.81L30.16 31.79L30.15 31.78Q31.92 30.70 31.77 28.83L31.85 28.91L31.68 28.75Q31.64 26.80 27.95 25.89L27.98 25.92L25.91 25.79L25.93 25.81Q24.96 25.79 24.01 25.83L23.97 25.79L23.99 25.81Q24.00 24.87 23.96 22.97L24.09 23.09L24.04 23.04Q31.62 22.97 35.81 22.63L35.83 22.65L35.84 22.67Q35.78 23.48 35.78 24.28L35.81 24.31L35.78 24.28Q35.89 25.19 35.93 25.99L35.88 25.94L35.79 25.85Q34.64 25.80 34.64 25.80L34.83 25.99L34.67 25.83Q33.26 25.80 33.64 25.80L33.74 25.89L33.64 25.79Q34.73 27.42 35.11 29.40L35.19 29.47L35.19 29.47Q35.32 30.21 35.32 30.67L35.38 30.73L35.34 30.69Q35.22 35.21 26.43 35.21L26.52 35.31L26.47 35.25Q19.40 35.31 16.81 33.21L16.83 33.23L16.78 33.18Q14.83 30.85 14.83 25.79L14.83 25.79L14.82 25.78Q14.86 24.75 14.71 22.05L14.66 22.01L14.68 22.02Q14.59 19.72 14.63 18.35L14.54 18.27L14.52 18.25Q14.76 15.52 16.13 13.92L16.13 13.91L16.08 13.87Q18.62 11.80 23.50 11.61L23.46 11.58L26.16 11.54L26.13 11.51Q29.27 11.45 32.70 11.87L32.72 11.89L32.55 11.72Q36.36 12.25 37.31 15.49L37.45 15.64L37.30 15.48Q36.30 16.42 34.21 18.25ZM35.66 20.50L35.83 20.56L35.75 20.48Q36.98 19.43 38.85 17.45L38.88 17.48L38.86 17.46Q38.56 16.51 37.57 14.80L37.57 14.80L37.52 14.75Q36.40 12.15 32.60 11.50L32.56 11.47L32.57 11.48Q30.50 11.42 26.20 11.12L26.23 11.15L23.45 11.19L23.43 11.16Q18.23 11.34 15.64 13.31L15.58 13.25L15.65 13.32Q14.21 14.89 14.10 17.98L14.28 18.16L14.28 18.16Q14.31 17.73 14.54 23.21L14.44 23.12L14.48 23.16Q14.53 24.53 14.60 27.28L14.57 27.24L14.52 27.19Q14.69 31.62 16.44 33.56L16.52 33.65L16.55 33.68Q16.76 34.34 17.63 35.21L17.70 35.29L17.76 35.34Q20.53 37.09 26.05 37.43L26.22 37.60L29.02 37.70L29.06 37.74Q30.72 37.91 32.73 37.79L32.71 37.76L32.64 37.70Q34.10 37.63 36.19 37.10L36.09 37.00L36.10 37.00Q38.08 36.56 38.05 34.23L38.14 34.33L38.12 34.30Q38.14 33.08 37.08 30.30L37.10 30.32L37.01 30.22Q36.81 29.42 36.28 28.62L36.10 28.44L36.21 28.56Q36.70 28.48 37.88 28.67L38.06 28.84L37.99 28.77Q37.75 25.22 37.79 24.54L37.78 24.53L37.76 24.51Q37.37 24.50 36.95 24.46L36.94 24.45L36.97 24.48Q36.61 24.46 36.23 24.54L36.09 24.39L36.23 24.54Q36.17 23.37 36.25 22.31L36.15 22.21L36.17 22.23Q29.94 22.78 23.66 22.67L23.68 22.69L23.69 22.70Q23.72 23.60 23.72 24.51L23.65 24.45L23.66 26.20L23.72 26.26Q24.05 26.22 24.47 26.18L24.55 26.26L24.60 26.31Q24.83 26.12 25.29 26.12L25.43 26.26L25.42 26.25Q25.37 26.66 25.41 27.16L25.37 27.11L25.37 27.12Q25.39 27.60 25.36 28.09L25.37 28.10L25.35 28.09Q26.40 28.07 27.43 28.03L27.52 28.12L27.48 28.08Q28.41 27.98 29.43 28.02L29.61 28.19L29.47 28.05Q30.63 28.41 31.50 28.79L31.48 28.77L31.38 28.71L31.46 28.79Q31.66 30.36 29.98 31.27L29.86 31.14L29.87 31.16Q28.22 32.09 26.50 32.09L26.49 32.08L26.55 32.14Q22.79 32.23 20.35 30.48L20.20 30.32L20.31 30.43Q19.41 28.47 19.56 25.92L19.42 25.77L19.46 25.82Q19.73 20.98 21.57 18.98L21.62 19.03L21.55 18.95Q23.46 17.02 28.14 16.71L28.16 16.73L28.15 16.72Q31.73 16.43 33.68 18.21L33.77 18.31L33.78 18.32Q33.91 18.48 34.02 18.67L34.02 18.67L34.09 18.63L34.15 18.69Q34.66 19.31 35.23 20.41L35.23 20.41L35.52 20.36Z"/><path fill="#333" d="M109.11 34.87L109.21 34.97L109.16 34.92Q105.00 34.37 103.17 32.93L103.24 33.00L103.10 32.85Q101.26 31.39 100.84 28.38L101.00 28.54L100.97 28.52Q100.86 28.07 100.52 23.31L100.58 23.37L100.60 23.39Q100.53 22.10 100.45 20.84L100.56 20.95L100.55 20.94Q100.42 15.94 102.63 14.18L102.61 14.17L102.53 14.09Q105.15 11.95 112.92 11.26L113.00 11.35L112.94 11.29Q114.22 11.09 115.86 11.12L116.00 11.26L116.01 11.28Q115.95 11.22 118.92 11.22L118.88 11.18L118.93 11.23Q119.70 11.16 121.41 11.31L121.46 11.36L121.43 11.33Q120.94 12.29 119.92 15.37L119.92 15.38L119.87 15.33Q117.83 14.16 114.82 14.16L114.83 14.17L114.74 14.08Q114.02 14.12 113.23 14.20L113.31 14.28L113.31 14.28Q108.25 14.79 105.74 16.77L105.73 16.75L105.68 16.71Q103.74 18.38 103.59 21.73L103.49 21.64L103.46 21.60Q103.36 22.15 103.40 23.41L103.48 23.49L103.47 23.48Q103.59 28.32 105.99 30.42L106.01 30.44L105.91 30.33Q108.09 32.29 113.08 32.60L113.06 32.58L113.09 32.61Q116.34 32.89 119.35 31.10L119.28 31.03L119.25 31.00Q119.90 33.78 120.51 35.15L120.50 35.15L120.60 35.24Q118.51 35.51 116.88 35.48L116.85 35.45L116.72 35.32Q112.38 35.40 109.26 35.02ZM124.28 38.66L124.18 38.56L124.23 38.61Q122.49 35.65 121.81 33.06L121.79 33.05L121.72 32.98Q121.37 33.31 120.38 33.69L120.39 33.70L120.38 33.69Q120.07 32.92 119.88 32.08L119.84 32.05L119.53 30.41L119.49 30.36Q116.16 32.37 113.04 32.25L112.99 32.20L113.17 32.38Q108.73 32.02 106.41 30.27L106.52 30.37L106.48 30.34Q105.41 28.58 105.49 25.65L105.43 25.60L105.38 25.55Q105.64 21.16 108.12 19.03L108.00 18.91L108.11 19.02Q110.25 17.13 114.94 16.52L114.90 16.48L114.87 16.46Q115.58 16.25 116.30 16.25L116.47 16.41L116.40 16.35Q119.20 16.37 121.29 17.89L121.20 17.80L121.18 17.77Q121.69 15.66 122.90 12.42L123.06 12.58L123.02 12.54Q122.68 12.46 122.13 12.41L122.23 12.51L122.19 12.47Q121.71 12.48 121.44 12.48L121.41 12.45L121.44 12.48Q121.46 11.77 121.91 10.78L122.01 10.88L121.95 10.82Q121.73 10.83 119.23 10.75L119.36 10.87L119.37 10.89Q116.69 10.63 116.05 10.66L116.06 10.68L116.16 10.78Q105.66 11.12 102.19 13.71L102.14 13.66L102.22 13.74Q100.05 15.41 100.05 19.33L100.17 19.45L100.22 19.51Q100.05 20.44 100.17 23.15L100.32 23.30L100.29 23.27Q100.39 26.79 100.62 28.51L100.67 28.56L100.51 28.40Q101.08 31.71 102.67 33.23L102.62 33.17L102.67 33.23Q103.02 33.77 104.28 34.91L104.41 35.05L104.40 35.03Q107.70 36.85 112.96 37.61L112.76 37.41L112.78 37.43Q119.23 38.40 124.22 38.59Z"/><path fill="#222" d="M50.77 25.55L50.86 25.63L50.78 25.55Q50.95 25.72 54.34 25.69L54.21 25.56L54.25 25.60Q56.42 25.49 57.49 25.52L57.64 25.67L57.55 25.58Q56.56 22.77 54.13 17.13L54.09 17.10L54.00 17.01Q53.62 18.61 52.57 21.46L52.45 21.34L52.42 21.31Q51.39 24.18 50.82 25.59ZM58.64 28.05L58.63 28.04L58.60 28.01Q56.45 28.10 54.24 28.14L54.23 28.13L54.15 28.04Q52.00 28.18 49.71 28.37L49.65 28.31L49.61 28.27Q48.07 31.67 44.83 35.86L44.98 36.01L44.91 35.94Q42.39 36.62 41.02 37.11L41.06 37.15L40.91 37.00Q46.12 31.44 50.80 18.08L50.77 18.04L50.80 18.07Q51.95 14.54 53.32 11.30L53.35 11.34L53.40 11.38Q53.75 11.43 54.09 11.43L54.12 11.46L54.71 11.33L54.70 11.31Q55.60 12.83 60.44 24.47L60.31 24.35L60.32 24.36Q63.69 32.29 67.68 36.44L67.63 36.39L67.56 36.32Q67.18 36.32 63.30 35.45L63.19 35.34L63.17 35.31Q60.73 32.31 58.75 28.16ZM63.18 35.74L63.11 35.68L63.81 35.88L63.78 35.85Q64.09 35.93 64.39 36.04L64.22 35.87L64.35 36.01Q64.58 36.27 66.41 38.29L66.46 38.34L66.53 38.41Q70.13 39.27 72.53 40.30L72.48 40.25L72.51 40.28Q67.06 35.78 63.06 27.78L62.99 27.71L63.08 27.81Q61.35 24.40 59.91 20.44L59.89 20.42L57.16 12.94L57.25 13.03Q56.90 13.02 56.67 13.02L56.61 12.96L56.14 13.02L56.16 13.04Q55.76 12.33 55.04 10.96L54.99 10.92L54.96 10.89Q54.63 11.09 54.17 11.05L54.16 11.04L54.11 10.99Q53.60 10.90 53.06 10.90L53.20 11.04L53.17 11.00Q51.79 14.95 47.90 25.11L47.79 25.00L47.74 24.95Q44.75 33.04 40.11 37.84L40.11 37.84L40.09 37.82Q41.00 37.28 43.01 36.67L43.12 36.78L43.00 36.66Q42.24 37.54 40.68 39.33L40.73 39.37L40.79 39.43Q42.51 38.79 46.43 38.03L46.48 38.08L46.33 37.93Q49.80 33.63 51.36 30.40L51.32 30.36L51.41 30.45Q53.10 30.27 55.42 30.31L55.50 30.39L55.37 30.26Q58.11 30.29 59.48 30.37L59.55 30.44L59.44 30.33Q60.73 32.73 63.09 35.66ZM55.40 21.00L55.46 21.06L55.33 20.93Q56.35 23.17 57.11 25.26L56.98 25.13L53.68 25.14L53.68 25.15Q54.43 23.88 55.50 21.10Z"/><path d="M13 8 C90 17,80 9,184 23" stroke="#444" fill="none"/><path fill="#444" d="M164.66 21.76L164.68 21.78L164.68 21.78Q166.43 21.89 168.26 21.89L168.25 21.89L168.32 21.96Q170.06 21.91 171.89 21.75L172.01 21.87L171.94 21.81Q171.81 22.43 171.81 23.16L171.92 23.27L171.83 24.51L171.83 24.52Q169.49 24.53 164.73 24.65L164.66 24.57L164.79 24.71Q164.73 30.58 163.59 35.57L163.63 35.61L163.65 35.64Q161.36 36.24 159.87 37.04L159.91 37.07L159.81 36.97Q162.27 30.30 162.00 23.18L162.01 23.18L162.02 23.19Q161.75 16.03 159.08 9.37L158.98 9.27L159.08 9.37Q162.72 11.86 167.48 12.09L167.42 12.03L167.57 12.18Q172.20 12.32 176.35 10.57L176.33 10.55L176.16 10.38Q175.96 11.28 175.73 12.08L175.67 12.02L175.21 13.66L175.36 13.80Q172.48 14.74 169.51 14.89L169.53 14.90L169.68 15.06Q166.62 15.08 163.77 14.36L163.86 14.45L163.77 14.36Q164.61 17.90 164.80 21.90ZM176.85 9.74L176.88 9.76L176.85 9.74Q172.29 11.91 167.41 11.61L167.38 11.58L167.42 11.62Q162.10 11.32 158.37 8.47L158.47 8.56L158.42 8.52Q161.20 15.37 161.51 22.99L161.58 23.06L161.57 23.05Q161.81 30.90 159.30 37.68L159.38 37.76L159.41 37.79Q159.95 37.26 161.32 36.62L161.46 36.76L161.39 36.68Q161.30 37.55 160.73 39.07L160.62 38.96L160.60 38.94Q162.88 37.83 165.77 37.34L165.77 37.34L165.90 37.47Q166.46 32.55 166.65 26.84L166.60 26.79L166.76 26.95Q168.51 26.87 170.34 26.87L170.30 26.83L170.30 26.83Q172.00 26.74 173.83 26.93L173.81 26.92L173.82 26.92Q173.70 25.97 173.70 25.05L173.88 25.23L173.74 23.19L173.75 23.20Q173.01 23.34 172.17 23.34L172.18 23.34L172.25 23.41Q172.22 22.51 172.30 21.48L172.21 21.39L172.35 21.54Q170.96 21.70 169.55 21.70L169.49 21.64L169.48 21.64Q168.10 21.66 166.73 21.63L166.72 21.61L166.68 19.44L166.66 19.42Q166.55 18.24 166.43 17.17L166.38 17.12L166.53 17.27Q167.44 17.27 168.43 17.27L168.50 17.34L168.46 17.30Q173.25 17.33 176.87 15.43L176.90 15.46L176.91 15.47Q177.24 13.48 178.15 10.85L178.18 10.88L178.28 10.98Q177.03 11.86 176.24 12.21L176.11 12.08L176.25 12.22Q176.35 11.30 176.85 9.74Z"/><path fill="#444" d="M138.80 14.74L138.81 14.75L138.70 14.65Q136.74 14.78 135.79 14.93L135.70 14.84L135.82 14.96Q134.07 15.08 132.85 15.61L132.86 15.62L133.01 15.77Q129.46 17.17 129.35 21.85L129.35 21.86L129.37 21.87Q129.29 24.54 129.94 27.47L129.84 27.37L129.92 27.45Q130.73 31.42 134.35 32.60L134.47 32.72L134.32 32.57Q136.30 33.22 137.75 33.07L137.72 33.05L138.21 33.07L138.24 33.11Q138.26 32.93 138.45 32.97L138.62 33.14L138.56 33.08Q138.59 32.96 138.75 32.93L138.89 33.07L138.89 33.07Q141.53 32.82 142.90 32.25L142.88 32.22L139.26 28.64L139.27 28.65Q139.63 28.37 140.24 27.76L140.23 27.75L141.10 26.79L141.11 26.80Q143.04 28.96 145.02 31.02L144.89 30.89L145.00 30.99Q147.27 29.11 147.54 23.75L147.62 23.83L147.56 23.77Q147.54 22.76 147.54 21.85L147.58 21.89L147.67 21.98Q147.65 16.28 142.58 15.18L142.49 15.09L142.55 15.15Q141.32 14.90 138.80 14.75ZM151.38 36.62L151.46 36.69L151.46 36.70Q150.82 37.08 149.64 37.96L149.75 38.07L145.37 34.41L145.38 34.42Q142.93 35.66 138.67 35.70L138.61 35.65L138.54 35.57Q132.01 35.70 129.19 33.46L129.18 33.45L129.13 33.40Q127.42 31.68 126.96 28.71L127.01 28.76L126.96 28.71Q126.70 26.85 126.31 23.27L126.32 23.28L126.44 23.39Q126.36 22.60 126.25 20.85L126.23 20.83L126.28 20.88Q126.08 19.27 126.12 18.39L126.20 18.48L126.10 18.37Q126.31 15.43 128.07 13.87L128.02 13.82L128.05 13.86Q129.54 12.49 132.74 11.99L132.75 12.00L132.77 12.03Q135.13 11.53 138.02 11.61L138.17 11.76L138.09 11.67Q145.66 11.86 148.79 14.22L148.77 14.21L148.82 14.26Q150.92 16.32 150.65 21.23L150.58 21.15L150.62 21.20Q150.43 24.85 150.24 26.18L150.26 26.21L150.30 26.24Q149.54 30.62 147.21 32.94L147.20 32.93L147.29 33.02Q148.71 34.21 151.45 36.68ZM146.73 12.55L146.66 12.48L146.56 12.38Q144.64 11.75 138.13 11.25L138.16 11.29L138.09 11.21Q136.72 11.26 133.94 11.37L134.02 11.45L134.06 11.49Q129.79 11.67 127.54 13.65L127.45 13.56L127.53 13.64Q125.75 14.98 125.75 18.14L125.76 18.15L125.84 18.23Q125.83 19.06 125.98 20.77L125.98 20.77L126.05 20.84Q126.18 22.53 126.18 23.41L126.15 23.38L126.07 23.29Q126.25 25.07 126.63 28.65L126.73 28.75L126.71 28.73Q127.08 31.62 128.68 33.67L128.58 33.58L128.64 33.63Q128.95 34.43 130.17 35.58L130.19 35.60L130.20 35.61Q132.82 37.51 138.00 37.77L138.05 37.83L138.05 37.82Q138.44 37.87 140.83 37.98L140.87 38.02L140.89 38.04Q145.68 38.19 147.97 37.12L147.90 37.05L147.91 37.07Q148.78 37.74 153.50 41.32L153.41 41.23L153.44 41.27Q154.03 40.71 155.33 39.72L155.46 39.85L155.38 39.77Q154.44 39.03 153.64 38.34L153.67 38.37L152.10 36.99L152.13 36.86L152.22 36.96Q151.65 36.51 150.43 35.48L150.41 35.45L150.37 35.41Q152.27 32.89 152.27 28.36L152.29 28.39L152.32 28.42Q152.31 27.98 152.34 27.15L152.25 27.05L152.23 27.04Q152.27 26.19 152.27 25.77L152.39 25.89L152.32 25.83Q152.44 20.43 151.72 18.07L151.71 18.06L151.72 18.07Q151.16 16.60 150.28 15.53L150.31 15.55L150.41 15.65Q149.49 13.40 146.56 12.38ZM140.66 17.06L140.72 17.12L140.57 16.97Q144.67 16.92 146.50 18.52L146.54 18.57L146.57 18.59Q147.10 19.77 147.21 21.10L147.23 21.12L147.19 21.08Q147.28 22.34 147.20 23.71L147.30 23.82L147.29 23.80Q146.84 28.65 144.90 30.36L144.88 30.35L145.03 30.49Q143.55 29.01 141.04 26.27L141.12 26.35L141.14 26.37Q140.27 27.02 138.71 28.58L138.82 28.70L138.84 28.72Q139.43 29.35 140.57 30.53L140.54 30.50L140.41 30.47L140.44 30.51Q141.07 31.10 142.10 32.16L142.02 32.09L142.01 32.08Q141.03 32.36 138.71 32.66L138.67 32.62L138.10 32.59L137.68 32.58L137.66 32.60L137.81 32.75Q134.22 32.62 132.24 30.99L132.33 31.08L132.37 31.12Q131.25 28.94 131.29 25.81L131.22 25.74L131.31 25.83Q131.51 17.16 140.68 17.08Z"/><path fill="#444" d="M82.97 25.54L82.93 25.50L82.90 25.46Q79.32 31.71 75.89 35.67L75.96 35.74L75.99 35.76Q74.01 36.07 71.58 36.95L71.70 37.07L71.63 37.00Q76.51 31.37 81.27 22.96L81.32 23.01L81.32 23.01Q76.76 16.09 70.78 9.69L70.82 9.73L70.69 9.60Q73.59 10.78 75.87 11.28L75.92 11.33L75.97 11.38Q80.60 16.58 83.03 20.54L82.95 20.45L82.99 20.49Q85.57 16.14 89.49 11.72L89.40 11.63L89.46 11.70Q91.04 11.38 94.24 10.62L94.31 10.69L94.25 10.63Q88.18 17.08 84.72 23.02L84.73 23.04L84.74 23.04Q89.95 31.75 94.33 36.32L94.33 36.33L94.27 36.26Q91.69 35.47 89.60 35.25L89.59 35.24L89.66 35.31Q86.71 32.17 82.79 25.36ZM89.42 35.49L89.46 35.53L89.48 35.55Q89.88 35.68 90.33 35.79L90.30 35.76L90.30 35.76Q91.10 36.52 92.62 38.12L92.65 38.15L92.51 38.01Q96.02 38.97 99.07 40.34L99.07 40.34L99.01 40.28Q91.81 33.61 86.71 24.86L86.74 24.89L86.82 24.97Q90.51 18.27 96.41 11.42L96.30 11.30L96.33 11.33Q94.88 11.97 92.71 12.51L92.69 12.49L92.80 12.61Q93.73 11.75 95.48 9.96L95.48 9.95L95.38 9.86Q92.96 10.70 89.26 11.27L89.39 11.40L89.33 11.34Q85.87 15.11 83.28 19.41L83.24 19.37L83.29 19.43Q82.42 17.87 81.24 16.39L81.29 16.43L78.97 13.46L78.47 13.35L78.50 13.38Q78.34 13.37 78.12 13.30L78.06 13.24L78.23 13.41Q77.41 12.44 75.93 10.88L76.05 11.00L76.07 11.02Q72.26 10.14 69.67 8.77L69.54 8.65L69.66 8.76Q76.37 16.01 80.94 23.05L80.98 23.09L80.90 23.01Q76.48 31.27 70.74 37.86L70.73 37.85L70.63 37.75Q71.95 37.10 74.09 36.52L74.16 36.60L72.73 37.91L72.84 38.02Q72.80 37.98 71.47 39.31L71.57 39.41L71.48 39.33Q74.41 38.18 77.57 37.68L77.68 37.79L77.65 37.77Q81.62 33.21 84.20 28.45L84.33 28.58L84.27 28.51Q86.71 32.62 89.41 35.48Z"/><path d="M16 11 C113 19,100 37,186 34" stroke="#222" fill="none"/></svg>