<svg xmlns="http://www.w3.org/2000/svg" width="200" height="40" viewBox="0,0,200,40"><path fill="#333" d="M113.33 34.78L113.34 34.80L111.51 34.91L111.45 34.85Q110.49 34.84 109.53 34.95L109.64 35.06L109.63 35.05Q110.16 28.80 110.16 24.80L110.07 24.71L110.12 24.77Q106.07 18.01 98.42 9.33L98.48 9.39L98.47 9.38Q100.38 10.49 103.73 11.29L103.56 11.12L103.69 11.25Q108.79 16.88 111.80 22.10L111.67 21.98L111.62 21.93Q114.68 16.41 119.05 11.39L119.02 11.36L119.04 11.37Q121.43 10.95 123.94 10.15L124.01 10.21L124.06 10.27Q117.89 16.23 113.01 24.65L113.18 24.82L113.02 24.65Q113.01 31.69 113.31 34.77ZM122.49 12.27L125.21 9.43L125.14 9.37Q122.18 10.67 119.06 11.13L118.92 10.99L118.90 10.96Q114.78 15.79 111.96 20.89L111.85 20.78L111.96 20.89Q109.80 17.20 106.60 13.32L106.59 13.31L106.59 13.31Q106.39 13.38 105.90 13.31L105.90 13.31L105.85 13.26Q105.16 12.46 103.64 10.78L103.71 10.85L103.65 10.79Q100.20 9.97 97.23 8.41L97.33 8.51L97.30 8.48Q105.08 17.02 109.84 24.94L109.76 24.86L109.85 24.95Q109.73 31.26 109.12 35.41L109.07 35.36L109.05 35.34Q109.87 35.40 111.31 35.28L111.31 35.28L111.16 36.16L111.17 36.17Q111.27 36.73 111.20 37.26L111.09 37.15L111.13 37.20Q114.76 37.28 116.51 37.47L116.55 37.51L116.49 37.45Q115.25 32.79 115.14 26.81L115.03 26.70L115.06 26.74Q119.49 18.33 126.04 10.99L126.10 11.05L122.57 12.36Z"/><path fill="#444" d="M146.39 32.86L146.46 32.93L146.44 32.91Q146.80 33.96 147.34 35.98L147.36 36.00L147.25 35.89Q143.07 34.60 138.46 34.87L138.47 34.88L138.43 34.84Q133.86 35.10 129.86 37.08L129.86 37.08L129.81 37.03Q130.20 36.51 130.24 36.58L130.08 36.42L130.15 36.50Q133.87 32.52 137.79 28.10L137.80 28.11L137.77 28.09Q142.22 23.14 143.40 18.45L143.35 18.40L143.41 18.46Q143.92 16.76 142.64 15.58L142.56 15.50L142.60 15.54Q141.26 14.30 139.48 14.45L139.59 14.57L139.41 14.39Q139.25 14.53 138.91 14.53L138.86 14.48L138.90 14.53Q137.31 14.45 136.05 15.37L136.12 15.44L136.04 15.35Q134.81 16.79 135.04 19.45L135.05 19.46L135.05 19.47Q133.22 19.08 132.00 18.62L132.04 18.66L132.01 18.63Q131.83 17.23 131.75 15.79L131.61 15.65L131.66 15.69Q131.64 14.11 132.25 12.97L132.23 12.95L132.24 12.96Q133.93 11.49 137.28 11.49L137.41 11.62L139.13 11.59L139.17 11.63Q141.39 11.61 142.34 11.72L142.45 11.83L142.45 11.83Q146.76 12.22 147.03 14.66L146.94 14.56L146.95 14.57Q147.12 15.25 147.05 16.04L146.89 15.89L146.89 15.89Q146.99 16.68 146.84 17.36L146.76 17.28L146.75 17.27Q145.10 25.37 137.53 32.22L137.48 32.17L137.52 32.22Q139.02 32.15 140.39 32.15L140.36 32.13L140.35 32.11Q143.68 32.21 146.53 33.00ZM145.86 12.08L145.96 12.18L145.90 12.12Q144.35 11.52 142.64 11.45L142.50 11.31L139.05 11.09L139.18 11.22Q134.66 10.89 132.46 12.00L132.37 11.91L132.50 12.04Q131.43 13.40 131.43 15.46L131.37 15.41L131.42 15.45Q131.44 16.16 131.75 18.98L131.67 18.91L131.82 19.05Q132.20 19.13 133.38 19.43L133.44 19.50L133.45 20.53L133.40 20.48Q133.50 21.08 133.58 21.61L133.47 21.50L133.55 21.58Q134.83 21.72 137.31 21.95L137.25 21.89L137.17 21.81Q137.09 21.39 137.09 21.05L137.16 21.12L137.25 21.21Q137.15 19.28 138.37 17.93L138.44 18.00L138.31 17.87Q139.56 16.55 141.35 16.66L141.38 16.70L141.35 16.66Q142.27 16.86 143.03 17.02L143.03 17.02L142.94 16.92Q143.06 17.31 143.14 17.73L143.10 17.70L143.19 17.78Q143.24 18.21 143.16 18.55L142.99 18.38L142.99 18.38Q141.90 23.31 137.49 28.15L137.47 28.12L137.37 28.03Q135.19 30.23 129.75 36.28L129.83 36.36L129.90 36.44Q129.57 37.13 129.23 37.70L129.21 37.69L129.27 37.74Q130.96 36.96 132.48 36.42L132.43 36.38L132.40 36.34Q131.78 37.02 130.83 38.50L130.83 38.50L130.79 38.47Q130.63 38.76 130.52 39.11L130.54 39.13L130.49 39.08Q135.35 37.01 140.83 37.20L140.91 37.28L140.81 37.18Q146.56 37.41 151.13 39.77L151.07 39.71L150.12 37.61L150.11 37.61Q149.49 36.31 149.23 35.51L149.26 35.54L149.23 35.51Q148.43 35.01 147.21 34.59L147.28 34.67L147.25 34.63Q147.04 33.85 146.66 32.48L146.77 32.59L146.64 32.47Q144.45 31.91 142.17 31.72L142.30 31.85L142.27 31.82Q146.87 27.17 148.39 18.91L148.54 19.06L148.60 16.03L148.55 15.98Q148.62 14.35 147.41 13.66L147.34 13.59L147.26 13.55L147.41 13.70Q147.28 13.54 147.20 13.54L147.17 13.50L147.12 13.45Q147.04 12.77 145.94 12.16Z"/><path fill="#333" d="M34.30 18.34L34.25 18.30L34.34 18.38Q32.55 14.23 26.34 14.42L26.34 14.42L26.27 14.35Q21.92 14.53 19.94 15.97L19.90 15.94L19.84 15.88Q17.54 17.73 17.54 21.84L17.59 21.88L17.63 23.79L17.49 23.65Q17.48 32.47 26.50 32.47L26.60 32.57L26.45 32.43Q28.68 32.60 30.17 31.80L30.06 31.69L29.99 31.63Q31.91 30.69 31.76 28.82L31.76 28.82L31.68 28.74Q31.65 26.81 27.96 25.90L27.89 25.82L26.01 25.89L26.00 25.88Q25.02 25.85 24.07 25.89L24.06 25.89L24.13 25.95Q24.04 24.91 24.00 23.01L23.95 22.95L23.91 22.91Q31.72 23.08 35.91 22.73L35.80 22.62L35.78 22.60Q35.77 23.46 35.77 24.26L35.71 24.21L35.87 24.37Q35.89 25.19 35.93 25.99L35.75 25.81L35.76 25.81Q34.72 25.88 34.72 25.88L34.80 25.96L34.77 25.93Q33.39 25.92 33.77 25.92L33.81 25.96L33.64 25.80Q34.84 27.52 35.22 29.50L35.25 29.54L35.10 29.38Q35.35 30.25 35.35 30.70L35.23 30.58L35.41 30.76Q35.39 35.39 26.60 35.39L26.52 35.31L26.60 35.39Q19.49 35.39 16.90 33.30L16.89 33.29L16.88 33.28Q14.87 30.89 14.87 25.83L14.75 25.70L14.89 25.85Q14.92 24.82 14.77 22.11L14.73 22.07L14.58 21.92Q14.43 19.56 14.47 18.19L14.53 18.26L14.66 18.38Q14.61 15.36 15.98 13.76L15.99 13.78L15.96 13.74Q18.65 11.83 23.53 11.64L23.37 11.49L26.23 11.61L26.15 11.53Q29.17 11.35 32.60 11.77L32.63 11.80L32.69 11.86Q36.43 12.33 37.39 15.57L37.36 15.54L37.41 15.60Q36.36 16.48 34.27 18.31ZM35.70 20.54L35.70 20.43L35.72 20.45Q36.86 19.31 38.73 17.33L38.80 17.40L38.89 17.49Q38.56 16.51 37.57 14.80L37.46 14.69L37.50 14.73Q36.34 12.09 32.54 11.44L32.53 11.43L32.49 11.40Q30.44 11.36 26.14 11.06L26.13 11.05L23.49 11.22L23.48 11.22Q18.16 11.27 15.57 13.24L15.69 13.36L15.58 13.25Q14.27 14.95 14.16 18.04L14.18 18.05L14.12 18.00Q14.26 17.68 14.49 23.16L14.36 23.04L14.38 23.05Q14.49 24.50 14.57 27.24L14.53 27.20L14.55 27.22Q14.69 31.62 16.44 33.57L16.51 33.63L16.45 33.58Q16.83 34.41 17.70 35.28L17.79 35.37L17.63 35.21Q20.71 37.27 26.23 37.61L26.13 37.51L29.03 37.70L29.08 37.76Q30.57 37.76 32.59 37.64L32.55 37.61L32.71 37.77Q34.15 37.69 36.25 37.15L36.14 37.04L36.27 37.17Q38.03 36.50 37.99 34.18L38.01 34.20L38.19 34.37Q38.19 33.12 37.12 30.34L36.97 30.19L36.94 30.16Q36.65 29.26 36.12 28.46L36.11 28.45L36.27 28.62Q36.82 28.59 38.00 28.78L38.01 28.80L38.06 28.84Q37.62 25.09 37.66 24.40L37.69 24.43L37.73 24.48Q37.39 24.52 36.97 24.48L36.84 24.35L36.89 24.40Q36.48 24.33 36.10 24.41L36.08 24.39L36.08 24.39Q36.13 23.33 36.20 22.26L36.31 22.38L36.14 22.20Q29.94 22.77 23.66 22.66L23.63 22.64L23.60 22.60Q23.66 23.54 23.66 24.45L23.72 24.52L23.63 26.18L23.66 26.21Q24.21 26.38 24.63 26.34L24.51 26.22L24.47 26.17Q24.99 26.28 25.45 26.28L25.41 26.25L25.37 26.20Q25.42 26.71 25.46 27.21L25.35 27.10L25.40 27.15Q25.36 27.56 25.32 28.06L25.30 28.03L25.41 28.14Q26.53 28.20 27.55 28.16L27.41 28.02L27.43 28.03Q28.56 28.14 29.59 28.18L29.52 28.11L29.57 28.16Q30.46 28.25 31.34 28.63L31.45 28.74L31.42 28.75L31.47 28.80Q31.59 30.29 29.91 31.20L30.02 31.30L30.03 31.32Q28.18 32.06 26.47 32.06L26.54 32.13L26.60 32.20Q22.78 32.21 20.34 30.46L20.24 30.36L20.35 30.47Q19.27 28.32 19.42 25.77L19.40 25.75L19.43 25.78Q19.81 21.06 21.66 19.06L21.66 19.06L21.53 18.93Q23.44 17.00 28.12 16.70L28.14 16.71L28.13 16.70Q31.76 16.46 33.71 18.24L33.65 18.19L33.81 18.34Q33.83 18.40 33.94 18.59L33.85 18.51L33.95 18.49L34.02 18.56Q34.65 19.31 35.22 20.41L35.35 20.53L35.67 20.51Z"/><path fill="#333" d="M78.04 27.97L78.12 28.05L78.00 27.93Q81.20 27.67 84.40 27.79L84.36 27.75L84.22 27.61Q84.34 25.21 84.34 22.82L84.25 22.72L84.20 22.67Q84.35 20.35 84.54 17.80L84.50 17.76L84.41 17.67Q83.23 19.42 78.01 27.95ZM87.93 35.32L87.83 35.21L87.84 35.22Q86.30 35.05 84.51 34.98L84.51 34.98L84.39 34.85Q84.22 32.51 84.10 30.04L84.24 30.18L84.16 30.10Q78.87 29.94 74.15 31.35L74.19 31.40L74.13 31.34Q74.20 30.79 74.39 29.81L74.33 29.75L74.49 29.90Q76.19 26.66 79.77 20.38L79.75 20.36L79.73 20.34Q82.57 15.41 86.00 11.53L86.13 11.66L86.19 11.72Q87.06 11.53 88.74 11.26L88.58 11.10L88.71 11.23Q86.79 17.65 86.79 24.69L86.72 24.62L86.70 24.61Q86.68 26.07 86.76 27.56L86.80 27.60L88.15 27.77L88.19 27.81Q88.71 27.75 89.32 27.87L89.39 27.94L89.38 27.93Q89.51 28.93 89.77 30.87L89.74 30.84L89.63 30.73Q88.57 30.62 87.09 30.43L86.97 30.31L87.02 30.37Q87.22 32.36 87.91 35.29ZM89.53 27.43L89.63 27.54L89.51 27.41Q89.44 27.45 89.25 27.45L89.14 27.35L88.91 27.50L88.85 27.43Q88.77 25.99 88.77 24.58L88.73 24.54L88.64 24.45Q88.63 18.05 90.69 12.03L90.71 12.06L90.86 12.21Q90.05 12.42 88.60 12.80L88.67 12.87L88.50 12.70Q88.75 11.96 89.21 10.55L89.29 10.63L89.19 10.53Q87.95 10.97 85.90 11.20L85.92 11.22L85.91 11.21Q81.91 15.47 76.69 24.84L76.84 24.98L78.86 21.26L78.87 21.26Q78.46 22.31 78.20 22.88L78.08 22.76L73.74 31.89L73.77 31.93Q74.38 31.74 75.53 31.36L75.52 31.36L75.35 31.57L75.32 31.53Q75.34 32.35 75.03 33.61L74.91 33.49L74.95 33.52Q79.07 32.20 83.90 32.39L83.89 32.37L83.85 32.34Q83.86 33.26 84.05 35.24L84.05 35.24L84.02 35.21Q85.13 35.25 86.19 35.36L86.34 35.51L86.19 35.36Q86.39 36.09 86.65 37.46L86.65 37.45L86.61 37.42Q88.62 37.76 91.63 38.67L91.66 38.70L91.55 38.59Q90.53 36.43 89.61 33.15L89.63 33.16L91.15 33.69L91.10 33.64Q91.81 33.91 92.50 34.25L92.41 34.16L92.54 34.29Q91.63 31.66 91.47 29.98L91.60 30.11L91.46 29.97Q90.88 29.81 89.74 29.59L89.79 29.63L89.92 29.76Q89.62 28.40 89.62 27.52ZM81.54 27.29L81.67 27.41L81.59 27.34Q82.44 26.13 84.00 23.58L83.93 23.51L84.02 23.60Q83.99 24.52 83.95 25.47L83.83 25.35L83.89 25.41Q83.80 26.31 83.84 27.26L84.01 27.44L83.89 27.31Q83.34 27.30 82.77 27.30L82.69 27.21L82.82 27.35Q82.26 27.40 81.65 27.40Z"/><path d="M1 9 C91 30,100 15,185 19" stroke="#555" fill="none"/><path fill="#444" d="M164.14 24.55L164.23 24.64L164.29 24.70Q164.30 28.97 163.57 33.12L163.58 33.12L163.47 33.02Q165.80 32.54 168.89 32.42L168.86 32.39L168.82 32.35Q170.26 32.65 171.32 31.64L171.29 31.60L171.27 31.59Q172.29 30.53 172.29 29.20L172.24 29.15L172.23 29.14Q172.28 28.88 172.24 28.62L172.18 28.56L172.17 28.55Q172.14 25.74 169.90 24.90L169.87 24.88L169.78 24.79Q169.15 24.61 168.46 24.69L168.37 24.59L168.33 24.56Q167.44 24.65 166.41 24.69L166.34 24.62L166.32 24.60Q165.18 24.57 164.15 24.57ZM163.04 14.24L162.97 14.17L163.06 14.26Q163.87 17.51 164.14 21.88L164.26 22.00L164.24 21.98Q165.70 22.12 168.37 22.15L168.35 22.14L168.33 22.12Q171.14 22.03 171.48 18.49L171.55 18.56L171.51 18.53Q171.64 16.52 170.23 15.68L170.32 15.77L170.28 15.73Q169.41 15.25 165.00 14.60L164.93 14.53L165.04 14.64Q164.01 14.52 163.09 14.29ZM159.29 37.03L159.40 37.13L159.38 37.11Q161.85 30.45 161.58 23.06L161.58 23.05L161.55 23.03Q161.24 15.72 158.31 9.25L158.33 9.26L158.28 9.21Q162.11 11.78 168.33 12.03L168.44 12.14L168.27 11.97Q174.49 12.21 174.83 15.11L174.97 15.24L175.01 15.29Q175.23 17.94 173.83 20.61L173.84 20.63L173.88 20.66Q173.03 22.06 171.43 22.75L171.55 22.87L171.56 22.88Q175.16 23.50 175.39 28.87L175.46 28.94L175.32 28.81Q175.42 29.93 175.34 31.34L175.33 31.33L175.35 31.34Q175.30 32.66 174.36 33.59L174.48 33.71L174.50 33.74Q173.43 34.53 172.10 34.68L172.23 34.81L172.17 34.75Q170.63 34.77 169.56 34.77L169.71 34.92L169.55 34.75Q163.91 34.83 159.38 37.12ZM172.09 37.33L172.18 37.43L172.17 37.42Q173.15 37.52 175.01 37.63L175.06 37.68L175.03 37.65Q176.41 37.66 177.51 36.78L177.48 36.75L177.54 36.81Q178.28 35.84 178.17 34.28L178.08 34.19L178.12 34.23Q178.07 33.30 177.34 29.84L177.32 29.81L177.42 29.91Q176.73 26.67 174.86 25.19L174.72 25.05L174.45 24.36L174.37 24.27Q176.00 22.82 176.57 19.05L176.73 19.21L176.64 19.12Q176.75 17.94 176.68 16.53L176.64 16.50L176.77 16.62Q176.70 15.30 175.59 14.46L175.59 14.46L175.58 14.44Q175.27 14.25 175.15 14.21L175.02 14.08L175.04 14.10Q174.93 13.72 174.09 12.92L174.11 12.93L173.96 12.79Q172.46 11.75 168.24 11.55L168.34 11.66L168.31 11.63Q161.63 11.31 157.63 8.41L157.59 8.37L157.60 8.38Q161.06 15.57 161.36 23.11L161.17 22.92L161.21 22.96Q161.52 30.76 158.70 37.69L158.85 37.84L160.91 36.90L160.84 36.82Q160.56 38.07 160.07 39.21L160.04 39.18L159.99 39.13Q164.33 37.31 169.36 37.31L169.28 37.23L169.26 37.21Q170.80 37.34 172.25 37.49ZM170.03 26.86L170.01 26.85L170.00 26.83Q170.70 26.73 171.61 27.19L171.56 27.14L171.74 27.32Q171.77 27.58 171.93 28.64L171.98 28.70L171.96 28.68Q172.20 30.10 171.26 31.14L171.21 31.09L171.13 31.01Q170.17 32.03 168.77 31.92L168.84 32.00L167.28 32.03L167.37 32.12Q166.52 32.07 165.79 32.18L165.79 32.18L165.84 32.23Q166.10 30.36 166.18 26.89L166.29 27.01L166.24 26.96Q166.82 26.81 168.07 26.77L168.11 26.81L168.24 26.94Q169.40 26.80 170.01 26.84ZM169.00 17.26L168.91 17.18L169.37 17.26L169.41 17.29Q169.63 17.29 169.82 17.33L169.87 17.38L170.24 17.37L170.51 17.44L171.03 17.43L171.21 17.62Q171.20 17.75 171.20 18.06L171.19 18.05L171.29 18.68L171.26 18.65Q171.10 19.75 170.22 20.68L170.26 20.72L170.36 20.81Q169.38 21.65 168.17 21.65L168.25 21.73L168.19 21.67Q167.22 21.74 167.22 21.74L167.14 21.65L167.24 21.75Q165.94 21.75 166.28 21.75L166.12 21.58L166.31 21.77Q166.26 20.24 165.95 17.19L165.79 17.03L165.96 17.20Q167.46 17.25 168.98 17.25Z"/><path fill="#222" d="M51.18 24.74L51.18 24.73L51.09 24.65Q51.14 28.96 50.42 33.11L50.29 32.98L50.34 33.03Q52.65 32.52 55.73 32.41L55.72 32.39L55.68 32.36Q57.08 32.61 58.14 31.60L58.04 31.50L58.14 31.60Q59.23 30.61 59.23 29.28L59.24 29.30L59.11 29.16Q59.10 28.85 59.07 28.58L59.06 28.58L59.06 28.58Q59.02 25.76 56.77 24.92L56.78 24.93L56.71 24.85Q56.04 24.64 55.35 24.72L55.35 24.72L55.26 24.63Q54.23 24.59 53.20 24.62L53.22 24.64L53.19 24.61Q52.10 24.62 51.07 24.62ZM49.87 14.22L49.82 14.16L49.97 14.31Q50.73 17.51 51.00 21.89L51.06 21.95L50.93 21.82Q52.39 21.95 55.05 21.98L55.07 22.00L55.08 22.02Q57.97 22.01 58.32 18.47L58.34 18.49L58.36 18.51Q58.63 16.66 57.23 15.82L57.09 15.69L57.20 15.79Q56.24 15.22 51.82 14.57L51.94 14.68L51.94 14.68Q50.83 14.49 49.92 14.26ZM46.17 37.05L46.16 37.03L46.14 37.02Q48.68 30.42 48.41 23.03L48.49 23.11L48.44 23.06Q48.16 15.77 45.23 9.30L45.12 9.20L45.23 9.31Q48.94 11.76 55.16 12.01L55.15 11.99L55.26 12.11Q61.45 12.31 61.79 15.21L61.70 15.11L61.81 15.23Q62.20 18.05 60.79 20.71L60.72 20.65L60.71 20.64Q60.06 22.23 58.46 22.91L58.45 22.90L58.39 22.85Q62.03 23.51 62.25 28.88L62.28 28.90L62.31 28.93Q62.39 30.04 62.31 31.45L62.15 31.28L62.19 31.33Q62.13 32.64 61.19 33.57L61.37 33.75L61.21 33.59Q60.26 34.50 58.92 34.65L59.08 34.81L59.07 34.79Q57.66 34.94 56.59 34.94L56.49 34.85L56.53 34.88Q50.78 34.84 46.25 37.13ZM59.04 37.43L59.04 37.43L59.05 37.44Q59.86 37.38 61.73 37.49L61.79 37.56L61.92 37.68Q63.25 37.64 64.35 36.77L64.35 36.76L64.24 36.65Q65.13 35.83 65.01 34.27L65.11 34.37L65.02 34.28Q64.99 33.37 64.27 29.90L64.20 29.84L64.29 29.92Q63.53 26.62 61.66 25.13L61.74 25.21L61.28 24.33L61.32 24.37Q62.91 22.87 63.48 19.10L63.51 19.14L63.44 19.07Q63.75 18.08 63.67 16.67L63.59 16.58L63.58 16.58Q63.63 15.37 62.52 14.53L62.53 14.54L62.49 14.50Q62.01 14.13 61.89 14.09L62.04 14.23L62.05 14.25Q61.78 13.71 60.94 12.91L60.91 12.88L60.96 12.93Q59.43 11.86 55.21 11.67L55.24 11.71L55.15 11.61Q48.46 11.27 44.46 8.38L44.58 8.50L44.47 8.39Q47.78 15.43 48.08 22.97L48.14 23.03L48.21 23.10Q48.46 30.85 45.64 37.78L45.74 37.87L47.70 36.83L47.71 36.83Q47.31 37.96 46.82 39.10L46.83 39.12L46.88 39.17Q51.18 37.30 56.21 37.30L56.22 37.32L56.12 37.21Q57.63 37.31 59.08 37.47ZM56.88 26.86L56.91 26.89L56.95 26.93Q57.69 26.87 58.61 27.33L58.49 27.21L58.45 27.17Q58.66 27.61 58.81 28.68L58.88 28.74L58.72 28.59Q58.98 30.02 58.05 31.07L57.94 30.96L58.13 31.15Q57.13 32.13 55.72 32.02L55.64 31.93L54.14 32.04L54.22 32.11Q53.50 32.20 52.78 32.31L52.71 32.24L52.69 32.22Q53.04 30.44 53.11 26.97L53.09 26.95L53.04 26.90Q53.73 26.87 54.99 26.83L55.02 26.87L54.95 26.79Q56.30 26.85 56.91 26.89ZM55.78 17.19L55.77 17.18L56.17 17.20L56.28 17.31Q56.52 17.32 56.71 17.36L56.55 17.20L57.08 17.35L57.43 17.51L58.03 17.57L57.94 17.49Q58.13 17.83 58.13 18.13L58.14 18.14L58.12 18.65L58.09 18.62Q58.02 19.81 57.15 20.75L57.20 20.80L57.09 20.69Q56.35 21.75 55.13 21.75L55.03 21.65L55.01 21.64Q54.14 21.80 54.14 21.80L54.00 21.65L54.02 21.68Q52.70 21.65 53.05 21.65L53.02 21.62L53.15 21.76Q52.95 20.07 52.64 17.02L52.75 17.13L52.72 17.10Q54.35 17.28 55.87 17.28Z"/><path d="M7 6 C90 34,109 17,186 23" stroke="#333" fill="none"/></svg>