<svg xmlns="http://www.w3.org/2000/svg" width="200" height="40" viewBox="0,0,200,40"><path fill="#222" d="M138.58 14.64L138.67 14.73L136.93 14.67L137.02 14.76Q134.85 14.94 134.62 16.96L134.45 16.79L134.44 16.78Q134.45 17.59 134.49 18.58L134.50 18.59L134.56 18.65Q134.51 20.50 135.76 21.83L135.84 21.91L135.82 21.89Q137.02 23.16 138.92 23.01L139.01 23.10L138.88 22.97Q140.96 22.84 141.72 21.93L141.86 22.07L141.84 22.05Q142.85 21.08 143.12 18.84L143.11 18.83L143.05 18.77Q143.35 16.55 142.09 15.72L142.06 15.69L142.21 15.83Q141.19 14.88 138.52 14.58ZM144.58 23.84L144.57 23.82L143.24 26.07L143.42 26.25Q140.65 30.99 136.88 35.06L136.85 35.03L136.95 35.13Q135.28 35.25 132.58 36.05L132.43 35.89L132.59 36.06Q137.86 29.72 141.02 24.92L141.02 24.92L141.10 25.00Q139.89 25.46 138.25 25.54L138.34 25.63L138.43 25.72Q135.29 25.74 133.77 23.76L133.72 23.71L133.77 23.76Q132.67 22.28 131.57 17.71L131.56 17.71L131.53 17.68Q131.40 17.09 131.25 16.16L131.43 16.34L131.36 16.27Q131.28 15.41 131.28 14.95L131.16 14.83L131.12 14.79Q131.21 13.09 132.27 12.48L132.22 12.43L132.31 12.52Q133.48 11.71 135.34 11.71L135.24 11.60L135.43 11.80Q138.48 11.65 138.48 11.65L138.50 11.67L138.48 11.65Q140.67 11.71 141.93 11.90L142.05 12.02L141.89 11.86Q144.04 12.14 144.95 12.64L145.00 12.68L145.10 12.78Q146.34 13.41 146.53 15.16L146.47 15.11L146.57 15.20Q146.60 15.46 146.41 18.13L146.46 18.18L146.32 18.04Q146.06 20.30 145.84 21.13L145.78 21.07L145.86 21.16Q145.31 22.40 144.55 23.81ZM146.48 26.23L146.60 26.35L146.49 26.24Q147.49 24.04 148.02 19.74L147.98 19.70L147.99 19.70Q148.27 17.51 148.23 16.63L148.29 16.70L148.30 16.70Q148.18 14.76 147.00 13.85L147.09 13.93L146.83 13.87L146.83 13.86Q146.58 13.13 145.67 12.48L145.55 12.36L145.49 12.30Q143.36 11.46 138.56 11.31L138.45 11.20L138.47 11.21Q137.55 11.25 135.12 11.25L135.15 11.29L135.13 11.27Q133.37 11.26 131.89 11.94L131.96 12.02L131.94 12.00Q130.66 12.65 130.73 14.48L130.88 14.63L130.71 14.46Q131.01 15.48 131.20 17.50L131.11 17.41L131.18 17.48Q131.87 20.18 132.13 21.02L132.00 20.89L132.12 21.01Q132.65 22.83 133.60 24.12L133.58 24.10L133.51 24.04Q133.81 24.41 134.19 24.79L134.18 24.78L134.26 24.86Q134.50 25.29 135.14 26.20L135.14 26.20L135.05 26.11Q136.54 27.48 138.48 27.67L138.64 27.83L138.51 27.70Q136.58 30.34 135.02 32.24L135.18 32.40L131.58 36.80L131.47 36.69Q133.68 35.89 135.31 35.55L135.32 35.56L135.36 35.60Q134.52 36.39 132.95 38.10L133.02 38.17L133.01 38.15Q136.15 37.29 139.27 37.25L139.30 37.29L139.33 37.31Q141.66 34.74 146.00 27.50L145.90 27.40L145.89 27.46L145.86 27.44Q146.14 26.73 146.48 26.23ZM140.60 17.11L140.47 16.98L140.56 17.08Q141.04 16.83 141.50 16.95L141.54 16.99L141.62 17.07Q142.23 17.14 142.61 17.26L142.67 17.32L142.55 17.20Q142.77 17.69 142.84 18.10L142.71 17.96L142.89 18.15Q142.79 18.39 142.68 18.77L142.79 18.88L142.80 18.89Q142.77 20.62 141.59 21.72L141.62 21.75L141.48 21.61Q140.51 22.63 138.88 22.59L139.03 22.74L139.02 22.73Q138.56 22.69 137.03 22.38L137.02 22.37L137.11 22.46Q136.71 21.41 136.71 20.69L136.72 20.69L136.69 20.67Q136.80 20.59 136.80 20.36L136.66 20.21L136.75 20.31Q136.68 18.03 138.96 17.23L138.96 17.22L138.93 17.19Q139.67 17.02 140.50 17.02Z"/><path fill="#444" d="M53.94 14.74L53.79 14.59L53.83 14.63Q51.92 14.81 50.97 14.96L51.00 15.00L51.01 15.01Q49.27 15.13 48.05 15.67L48.11 15.73L48.00 15.62Q44.68 17.24 44.56 21.93L44.41 21.77L44.45 21.81Q44.37 24.47 45.02 27.40L45.05 27.44L45.08 27.47Q45.99 31.54 49.61 32.72L49.44 32.55L49.46 32.57Q51.47 33.24 52.91 33.09L52.84 33.02L53.34 33.06L53.26 32.99Q53.50 33.03 53.69 33.06L53.67 33.05L53.73 33.11Q53.88 33.11 54.03 33.07L53.98 33.01L54.04 33.08Q56.56 32.71 57.93 32.14L58.00 32.20L54.32 28.56L54.50 28.74Q54.68 28.27 55.29 27.66L55.34 27.71L56.28 26.83L56.31 26.86Q58.00 28.78 59.98 30.83L59.98 30.83L60.03 30.88Q62.39 29.09 62.66 23.73L62.63 23.70L62.63 23.69Q62.71 22.79 62.71 21.87L62.70 21.86L62.64 21.80Q62.67 16.16 57.61 15.06L57.74 15.19L57.71 15.17Q56.37 14.81 53.85 14.65ZM66.66 36.75L66.55 36.64L66.56 36.65Q66.06 37.18 64.88 38.05L64.95 38.12L60.55 34.44L60.51 34.41Q58.02 35.61 53.76 35.65L53.77 35.66L53.68 35.57Q47.14 35.69 44.32 33.45L44.37 33.50L44.37 33.49Q42.48 31.61 42.03 28.64L42.13 28.74L42.02 28.64Q41.83 26.85 41.45 23.27L41.51 23.32L41.60 23.42Q41.53 22.63 41.42 20.87L41.48 20.94L41.34 20.80Q41.33 19.38 41.37 18.50L41.25 18.38L41.22 18.36Q41.48 15.45 43.23 13.89L43.09 13.75L43.25 13.92Q44.73 12.54 47.93 12.04L47.90 12.01L47.93 12.05Q50.36 11.62 53.25 11.69L53.27 11.71L53.24 11.68Q60.85 11.91 63.97 14.27L63.85 14.14L63.79 14.08Q66.00 16.26 65.74 21.17L65.78 21.22L65.76 21.20Q65.51 24.79 65.32 26.13L65.49 26.29L65.31 26.11Q64.76 30.70 62.44 33.03L62.43 33.02L62.44 33.02Q63.82 34.18 66.56 36.65ZM61.85 12.52L61.76 12.44L61.72 12.40Q59.76 11.73 53.25 11.23L53.23 11.21L53.32 11.30Q51.84 11.24 49.06 11.35L49.07 11.35L49.15 11.43Q44.94 11.68 42.70 13.66L42.73 13.70L42.60 13.57Q41.04 15.13 41.04 18.29L41.05 18.30L40.90 18.15Q40.92 19.01 41.07 20.72L41.06 20.71L41.10 20.75Q41.30 22.50 41.30 23.38L41.25 23.33L41.35 23.44Q41.42 25.11 41.81 28.68L41.90 28.78L41.79 28.67Q42.15 31.54 43.75 33.60L43.69 33.54L43.67 33.52Q44.07 34.42 45.29 35.56L45.30 35.56L45.32 35.59Q48.09 37.64 53.27 37.90L53.28 37.92L53.18 37.81Q53.49 37.78 55.89 37.89L55.95 37.96L56.04 38.05Q60.83 38.19 63.11 37.12L63.05 37.06L63.05 37.06Q63.94 37.76 68.66 41.34L68.65 41.33L68.66 41.34Q69.33 40.86 70.62 39.87L70.53 39.78L70.49 39.74Q69.76 39.20 68.96 38.51L68.85 38.41L67.23 36.97L67.34 36.93L67.29 36.89Q66.82 36.53 65.60 35.50L65.60 35.50L65.50 35.40Q67.43 32.92 67.43 28.39L67.38 28.34L67.37 28.32Q67.46 27.99 67.50 27.16L67.39 27.05L67.48 27.14Q67.55 26.34 67.55 25.92L67.55 25.91L67.53 25.89Q67.44 20.29 66.72 17.92L66.73 17.93L66.72 17.93Q66.40 16.69 65.52 15.63L65.43 15.54L65.48 15.59Q64.65 13.42 61.72 12.39ZM55.71 16.97L55.86 17.12L55.72 16.98Q59.81 16.92 61.64 18.52L61.65 18.53L61.74 18.62Q62.32 19.84 62.43 21.18L62.43 21.18L62.45 21.19Q62.43 22.35 62.35 23.73L62.42 23.79L62.37 23.75Q61.95 28.62 60.01 30.33L60.14 30.46L59.99 30.31Q58.77 29.09 56.26 26.35L56.29 26.38L56.33 26.42Q55.55 27.17 53.99 28.73L53.87 28.60L53.89 28.63Q54.56 29.33 55.70 30.51L55.59 30.40L55.46 30.39L55.62 30.54Q56.17 31.05 57.19 32.12L57.05 31.97L57.20 32.13Q56.10 32.28 53.78 32.59L53.80 32.61L53.30 32.64L53.01 32.77L52.79 32.58L52.83 32.63Q49.32 32.58 47.34 30.94L47.52 31.13L47.47 31.08Q46.48 29.02 46.52 25.90L46.52 25.90L46.51 25.89Q46.63 17.14 55.81 17.07Z"/><path fill="#444" d="M166.71 24.10L166.78 24.16L166.76 24.14Q164.91 24.01 163.67 25.44L163.56 25.33L163.76 25.52Q162.39 26.82 162.20 28.72L162.33 28.85L162.25 28.77Q162.07 30.88 163.16 31.85L163.14 31.83L163.01 31.70Q164.19 32.77 166.28 32.65L166.22 32.59L166.32 32.69Q168.30 32.42 169.40 31.74L169.49 31.83L169.37 31.71Q170.53 30.62 170.53 29.06L170.67 29.20L170.58 29.10Q170.52 28.67 170.44 28.29L170.54 28.38L170.49 28.34Q170.53 26.62 169.43 25.27L169.41 25.25L169.43 25.27Q168.42 24.02 166.75 24.13ZM166.25 35.17L166.23 35.15L166.24 35.16Q161.92 35.22 160.51 34.45L160.50 34.45L160.57 34.52Q159.49 33.70 159.30 31.99L159.26 31.95L159.24 31.93Q159.24 31.28 159.27 30.55L159.21 30.49L159.29 30.58Q159.42 29.60 159.42 29.14L159.39 29.11L159.42 29.14Q159.96 26.37 160.11 25.68L160.00 25.57L160.01 25.58Q160.49 23.66 161.33 22.26L161.40 22.33L161.29 22.21Q163.90 17.79 169.84 11.43L169.93 11.52L170.02 11.60Q172.57 11.18 174.77 10.38L174.75 10.36L174.72 10.33Q167.89 17.82 164.69 22.04L164.73 22.08L164.77 22.12Q165.76 21.63 167.06 21.63L167.04 21.61L167.12 21.69Q170.41 21.67 171.93 23.61L171.79 23.46L171.91 23.59Q173.27 25.25 173.61 28.79L173.62 28.79L173.63 28.81Q173.63 29.46 173.63 30.07L173.67 30.10L173.62 30.06Q173.71 33.27 171.50 34.33L171.41 34.24L171.40 34.23Q170.20 34.86 166.32 35.24ZM168.56 37.59L168.54 37.58L168.53 37.56Q169.95 37.65 171.93 37.73L171.94 37.74L171.89 37.69Q173.58 37.82 175.14 37.10L175.09 37.04L175.08 37.03Q176.25 36.30 176.25 34.51L176.20 34.46L176.22 34.49Q176.11 33.87 175.94 32.88L176.00 32.95L175.99 32.94Q175.89 32.02 175.89 31.56L175.81 31.49L175.74 31.42Q174.96 26.78 173.36 24.88L173.34 24.87L173.42 24.94Q173.33 24.82 173.18 24.59L173.18 24.59L172.73 24.21L172.70 24.23L172.68 24.21Q172.47 23.84 171.86 22.89L171.75 22.78L171.72 22.74Q170.91 21.90 168.94 21.45L168.80 21.32L168.98 21.49Q170.03 19.73 173.00 16.03L173.07 16.10L177.37 10.89L177.23 10.75Q175.70 11.65 173.30 12.41L173.29 12.40L173.33 12.44Q174.22 11.43 176.01 9.45L176.06 9.50L176.08 9.52Q173.65 10.55 169.77 11.12L169.76 11.12L169.74 11.10Q164.02 16.99 161.05 21.94L161.05 21.93L161.03 21.91Q159.54 24.46 158.97 30.71L158.94 30.68L158.98 30.72Q158.83 31.21 158.91 32.17L158.99 32.25L158.96 32.22Q159.07 34.01 160.18 34.92L160.10 34.85L160.27 35.01Q160.57 35.08 160.53 35.12L160.58 35.17L160.53 35.12Q160.94 36.06 161.74 36.48L161.79 36.54L161.61 36.35Q163.16 37.14 165.10 37.33L165.13 37.37L165.07 37.30Q165.06 37.30 168.57 37.60ZM168.32 26.35L168.46 26.49L168.32 26.35Q168.92 26.27 169.87 26.76L169.96 26.85L169.82 26.72Q170.15 27.65 170.15 28.30L170.19 28.33L170.17 28.32Q170.48 30.30 169.52 31.29L169.47 31.23L169.42 31.18Q168.39 31.94 166.30 32.25L166.24 32.20L166.27 32.23Q164.93 32.33 164.40 32.06L164.25 31.91L164.42 32.08Q164.15 31.55 164.15 31.24L164.05 31.14L164.17 31.26Q163.85 27.90 166.79 26.61L166.84 26.66L166.80 26.62Q167.64 26.36 168.40 26.43Z"/><path fill="#444" d="M34.18 18.22L34.32 18.36L34.19 18.23Q32.59 14.27 26.39 14.46L26.33 14.41L26.28 14.36Q22.01 14.62 20.03 16.06L19.86 15.89L19.84 15.88Q17.49 17.67 17.49 21.79L17.59 21.89L17.62 23.78L17.45 23.61Q17.59 32.58 26.61 32.58L26.64 32.61L26.51 32.48Q28.69 32.60 30.17 31.80L30.19 31.82L30.09 31.72Q31.92 30.69 31.76 28.83L31.80 28.86L31.81 28.87Q31.65 26.81 27.95 25.89L27.97 25.91L25.91 25.79L25.86 25.74Q24.98 25.81 24.03 25.85L23.99 25.81L24.00 25.83Q24.05 24.92 24.01 23.02L23.93 22.94L24.06 23.06Q31.75 23.10 35.94 22.76L35.87 22.69L35.93 22.76Q35.71 23.40 35.71 24.20L35.73 24.23L35.74 24.24Q35.76 25.06 35.80 25.85L35.83 25.89L35.86 25.92Q34.68 25.85 34.68 25.85L34.70 25.86L34.76 25.92Q33.42 25.95 33.80 25.95L33.69 25.84L33.66 25.81Q34.88 27.57 35.26 29.55L35.28 29.57L35.10 29.38Q35.37 30.26 35.37 30.72L35.41 30.76L35.32 30.67Q35.30 35.30 26.51 35.30L26.47 35.26L26.57 35.36Q19.37 35.27 16.78 33.18L16.80 33.21L16.74 33.14Q14.91 30.93 14.91 25.87L14.90 25.86L14.73 25.69Q14.86 24.75 14.70 22.05L14.64 21.98L14.69 22.03Q14.59 19.72 14.63 18.35L14.56 18.28L14.48 18.20Q14.66 15.41 16.03 13.81L16.13 13.92L15.99 13.77Q18.57 11.75 23.45 11.56L23.47 11.59L26.21 11.58L26.09 11.46Q29.20 11.38 32.62 11.80L32.58 11.75L32.59 11.76Q36.40 12.30 37.35 15.53L37.40 15.58L37.34 15.52Q36.43 16.55 34.33 18.38ZM35.57 20.41L35.69 20.42L35.77 20.50Q37.03 19.48 38.90 17.50L38.84 17.44L38.90 17.50Q38.58 16.54 37.59 14.82L37.45 14.68L37.44 14.67Q36.41 12.15 32.60 11.51L32.49 11.40L32.56 11.46Q30.44 11.36 26.14 11.06L26.18 11.10L23.41 11.15L23.50 11.23Q18.29 11.39 15.70 13.37L15.69 13.36L15.60 13.27Q14.26 14.94 14.15 18.02L14.17 18.05L14.22 18.10Q14.22 17.64 14.45 23.12L14.47 23.14L14.45 23.13Q14.52 24.53 14.60 27.27L14.61 27.28L14.60 27.27Q14.65 31.59 16.40 33.53L16.45 33.57L16.39 33.51Q16.87 34.45 17.75 35.33L17.81 35.39L17.81 35.40Q20.63 37.19 26.15 37.53L26.18 37.56L29.06 37.73L28.98 37.65Q30.71 37.90 32.73 37.78L32.63 37.69L32.55 37.60Q34.13 37.66 36.22 37.13L36.09 37.00L36.19 37.10Q38.18 36.65 38.14 34.33L38.02 34.21L38.06 34.25Q38.10 33.03 37.03 30.25L36.93 30.15L36.96 30.18Q36.63 29.24 36.10 28.44L36.09 28.43L36.22 28.56Q36.82 28.59 38.00 28.78L38.06 28.84L37.96 28.74Q37.61 25.08 37.65 24.39L37.74 24.49L37.68 24.42Q37.25 24.38 36.83 24.34L37.01 24.51L36.82 24.33Q36.46 24.31 36.08 24.38L36.15 24.46L36.11 24.42Q36.21 23.41 36.28 22.34L36.20 22.26L36.22 22.28Q29.85 22.69 23.57 22.58L23.57 22.57L23.73 22.73Q23.71 23.59 23.71 24.50L23.64 24.44L23.62 26.17L23.67 26.21Q24.02 26.18 24.44 26.15L24.56 26.27L24.61 26.31Q24.93 26.22 25.39 26.22L25.40 26.23L25.35 26.18Q25.41 26.70 25.45 27.19L25.51 27.25L25.50 27.24Q25.32 27.52 25.28 28.01L25.42 28.15L25.27 28.01Q26.40 28.07 27.43 28.03L27.51 28.12L27.48 28.09Q28.45 28.03 29.48 28.07L29.55 28.13L29.57 28.15Q30.57 28.36 31.45 28.74L31.45 28.74L31.38 28.71L31.39 28.72Q31.69 30.39 30.02 31.31L29.94 31.23L29.89 31.18Q28.31 32.19 26.60 32.19L26.59 32.18L26.64 32.23Q22.77 32.20 20.33 30.45L20.37 30.49L20.36 30.48Q19.27 28.32 19.42 25.77L19.42 25.77L19.55 25.90Q19.77 21.02 21.61 19.02L21.68 19.09L21.60 19.00Q23.54 17.10 28.23 16.80L28.21 16.78L28.24 16.82Q31.78 16.47 33.72 18.26L33.83 18.37L33.85 18.39Q33.86 18.43 33.97 18.62L34.01 18.66L34.10 18.64L34.02 18.55Q34.78 19.43 35.35 20.53L35.23 20.41L35.65 20.49Z"/><path fill="#333" d="M79.87 21.83L79.82 21.77L79.79 21.74Q81.64 21.96 83.47 21.96L83.45 21.94L83.56 22.05Q85.35 22.06 87.18 21.91L87.05 21.78L87.20 21.92Q87.08 22.57 87.08 23.29L86.90 23.10L87.01 24.55L87.08 24.62Q84.55 24.45 79.79 24.57L79.95 24.72L79.91 24.68Q79.87 30.59 78.73 35.57L78.72 35.56L78.80 35.64Q76.46 36.19 74.97 36.99L75.06 37.08L75.06 37.08Q77.36 30.24 77.09 23.12L77.17 23.20L77.07 23.10Q76.89 16.03 74.23 9.37L74.20 9.34L74.06 9.21Q77.87 11.87 82.63 12.10L82.60 12.07L82.65 12.12Q87.17 12.15 91.32 10.39L91.34 10.42L91.32 10.40Q91.13 11.31 90.90 12.11L90.86 12.07L90.42 13.72L90.48 13.78Q87.65 14.76 84.68 14.91L84.77 15.00L84.68 14.91Q81.82 15.13 78.96 14.41L79.05 14.50L78.97 14.41Q79.66 17.81 79.85 21.81ZM91.96 9.71L91.96 9.71L91.96 9.70Q87.37 11.86 82.50 11.55L82.65 11.70L82.67 11.72Q77.19 11.27 73.46 8.41L73.47 8.42L73.54 8.49Q76.35 15.37 76.65 22.99L76.65 22.99L76.67 23.01Q77.12 31.07 74.60 37.84L74.49 37.73L74.52 37.76Q75.20 37.38 76.57 36.73L76.57 36.72L76.54 36.70Q76.27 37.38 75.70 38.90L75.79 38.99L75.70 38.90Q78.08 37.90 80.98 37.40L80.95 37.37L81.05 37.48Q81.72 32.66 81.91 26.95L81.72 26.76L81.74 26.78Q83.67 26.88 85.49 26.88L85.50 26.88L85.37 26.76Q87.32 26.91 89.14 27.10L89.07 27.03L89.04 27.00Q88.91 26.03 88.91 25.11L88.91 25.12L88.89 23.19L88.85 23.16Q88.12 23.30 87.28 23.30L87.29 23.31L87.28 23.29Q87.42 22.57 87.50 21.54L87.49 21.53L87.35 21.39Q86.09 21.69 84.68 21.69L84.65 21.66L84.53 21.54Q83.27 21.69 81.90 21.65L81.76 21.51L81.80 19.42L81.85 19.47Q81.70 18.25 81.59 17.19L81.58 17.18L81.55 17.15Q82.71 17.39 83.70 17.39L83.66 17.36L83.63 17.33Q88.36 17.30 91.98 15.40L91.90 15.32L92.04 15.46Q92.54 13.63 93.45 11.01L93.40 10.95L93.39 10.94Q92.02 11.71 91.23 12.05L91.33 12.16L91.35 12.17Q91.51 11.31 92.00 9.75Z"/><path fill="#111" d="M110.47 14.70L110.53 14.76L110.35 14.58Q108.46 14.78 107.51 14.94L107.43 14.85L107.44 14.87Q105.93 15.22 104.71 15.76L104.65 15.69L104.72 15.76Q101.06 17.06 100.95 21.74L101.12 21.91L101.08 21.87Q101.00 24.53 101.64 27.46L101.56 27.37L101.56 27.38Q102.47 31.44 106.09 32.63L106.04 32.58L106.01 32.55Q108.03 33.24 109.48 33.09L109.50 33.11L109.93 33.08L109.90 33.05Q110.07 33.03 110.26 33.07L110.35 33.16L110.22 33.03Q110.31 32.97 110.46 32.93L110.46 32.92L110.61 33.07Q113.16 32.73 114.53 32.16L114.62 32.26L110.90 28.56L110.93 28.60Q111.26 28.29 111.87 27.68L111.92 27.72L112.81 26.79L112.90 26.88Q114.76 28.97 116.74 31.02L116.61 30.89L116.59 30.88Q118.91 29.04 119.17 23.67L119.33 23.82L119.32 23.82Q119.37 22.88 119.37 21.96L119.22 21.82L119.36 21.95Q119.37 16.29 114.30 15.18L114.20 15.08L114.28 15.16Q113.01 14.88 110.49 14.72ZM123.29 36.81L123.14 36.66L123.15 36.67Q122.55 37.09 121.37 37.97L121.35 37.96L117.12 34.45L116.95 34.28Q114.52 35.54 110.25 35.57L110.35 35.67L110.25 35.57Q103.66 35.64 100.84 33.40L100.85 33.41L100.97 33.53Q99.10 31.65 98.64 28.68L98.66 28.70L98.77 28.81Q98.48 26.92 98.10 23.34L98.15 23.39L98.11 23.36Q98.14 22.66 98.03 20.91L97.99 20.87L98.00 20.88Q97.78 19.25 97.82 18.38L97.79 18.35L97.87 18.43Q97.91 15.31 99.66 13.75L99.70 13.79L99.73 13.82Q101.27 12.50 104.47 12.01L104.54 12.08L104.50 12.04Q107.00 11.69 109.90 11.77L109.86 11.73L109.79 11.66Q117.37 11.86 120.50 14.22L120.46 14.18L120.43 14.16Q122.58 16.26 122.31 21.17L122.30 21.17L122.31 21.17Q122.18 24.89 121.99 26.22L121.97 26.20L121.92 26.15Q121.32 30.69 119.00 33.01L118.94 32.95L119.05 33.07Q120.55 34.33 123.29 36.81ZM118.45 12.55L118.46 12.56L118.33 12.43Q116.27 11.66 109.76 11.17L109.79 11.20L109.89 11.31Q108.54 11.37 105.77 11.48L105.60 11.32L105.61 11.33Q101.49 11.66 99.24 13.64L99.21 13.60L99.25 13.65Q97.45 14.96 97.45 18.12L97.44 18.12L97.51 18.18Q97.62 19.13 97.77 20.84L97.60 20.68L97.71 20.79Q97.79 22.43 97.79 23.30L97.77 23.28L97.93 23.44Q98.06 25.17 98.44 28.75L98.34 28.65L98.31 28.62Q98.62 31.44 100.22 33.50L100.40 33.68L100.41 33.69Q100.74 34.52 101.96 35.66L101.95 35.65L101.95 35.65Q104.71 37.68 109.88 37.95L109.74 37.80L109.76 37.82Q110.11 37.83 112.51 37.94L112.47 37.91L112.46 37.89Q117.39 38.18 119.67 37.11L119.52 36.96L119.63 37.07Q120.55 37.80 125.27 41.38L125.13 41.24L125.26 41.37Q125.87 40.84 127.17 39.85L127.12 39.80L127.07 39.75Q126.33 39.20 125.53 38.52L125.40 38.39L123.76 36.94L123.80 36.82L123.89 36.91Q123.38 36.52 122.17 35.49L122.04 35.37L122.08 35.41Q123.91 32.83 123.91 28.30L124.05 28.44L123.99 28.37Q123.99 27.95 124.03 27.11L124.12 27.21L124.10 27.19Q124.10 26.31 124.10 25.89L124.16 25.96L124.12 25.91Q124.06 20.34 123.34 17.98L123.33 17.97L123.41 18.04Q122.98 16.70 122.11 15.64L122.04 15.57L122.02 15.56Q121.27 13.47 118.34 12.44ZM112.30 16.99L112.35 17.03L112.36 17.04Q116.35 16.89 118.18 18.49L118.15 18.45L118.16 18.47Q118.83 19.78 118.94 21.12L118.83 21.01L118.96 21.14Q118.97 22.32 118.89 23.70L118.92 23.72L118.84 23.64Q118.52 28.61 116.58 30.33L116.65 30.40L116.55 30.29Q115.30 29.05 112.79 26.30L112.85 26.37L112.90 26.42Q112.00 27.04 110.44 28.60L110.53 28.70L110.44 28.61Q111.08 29.29 112.23 30.47L112.26 30.50L112.08 30.43L112.10 30.45Q112.74 31.06 113.77 32.13L113.79 32.14L113.79 32.14Q112.77 32.38 110.45 32.68L110.35 32.59L109.78 32.55L109.53 32.72L109.50 32.72L109.38 32.60Q105.95 32.65 103.98 31.01L103.99 31.02L104.04 31.08Q102.96 28.93 103.00 25.81L102.93 25.74L102.95 25.76Q103.27 17.21 112.44 17.13Z"/><path d="M13 12 C118 11,102 17,180 19" stroke="#666" fill="none"/><path d="M17 36 C87 36,97 39,197 26" stroke="#222" fill="none"/></svg>