<svg xmlns="http://www.w3.org/2000/svg" width="200" height="40" viewBox="0,0,200,40"><path d="M2 13 C82 31,105 15,180 8" stroke="#555" fill="none"/><path d="M14 10 C114 20,105 13,180 23" stroke="#222" fill="none"/><path fill="#222" d="M114.12 22.23L114.00 22.11L114.15 22.26Q114.91 22.23 116.32 22.07L116.25 22.01L116.25 22.00Q116.30 22.74 116.30 23.39L116.27 23.36L116.19 24.53L116.31 24.66Q115.46 24.64 114.62 24.71L114.65 24.74L114.64 24.74Q113.62 24.59 112.79 24.55L112.97 24.74L112.83 24.60Q109.96 30.75 106.53 35.36L106.62 35.44L106.68 35.50Q104.05 36.03 102.75 36.64L102.74 36.63L102.81 36.69Q106.86 30.93 109.91 24.65L109.93 24.66L107.36 24.73L107.33 24.70Q107.41 23.44 107.29 22.11L107.23 22.04L107.15 21.96Q109.13 22.19 111.18 22.19L111.20 22.21L113.09 18.50L112.98 18.39Q114.15 16.67 115.37 15.07L115.31 15.01L115.22 14.92Q113.63 15.04 112.03 15.04L112.08 15.10L112.02 15.04Q105.98 15.09 102.22 12.88L102.29 12.95L101.52 11.12L101.55 11.15Q101.27 10.38 100.89 9.50L100.98 9.58L100.91 9.51Q105.22 12.12 110.93 12.35L110.84 12.26L110.90 12.31Q116.05 12.55 121.19 10.57L121.12 10.50L121.22 10.61Q120.94 10.93 120.44 11.81L120.56 11.92L120.52 11.88Q116.95 16.69 114.10 22.21ZM122.19 13.33L122.21 13.34L123.12 11.25L123.12 11.24Q122.27 11.84 120.59 12.56L120.42 12.40L120.72 12.20L120.62 12.10Q120.81 12.02 120.92 11.90L120.83 11.82L120.86 11.84Q121.20 11.11 121.92 9.78L122.06 9.92L121.96 9.82Q116.78 12.25 111.03 12.03L110.99 11.98L110.88 11.87Q104.93 11.68 100.18 8.71L100.25 8.78L100.20 8.74Q101.21 10.58 102.05 13.25L102.03 13.23L101.98 13.18Q103.23 13.97 104.03 14.27L103.88 14.12L103.88 14.12Q104.17 14.61 104.63 16.47L104.58 16.43L104.49 16.34Q107.75 17.69 113.27 17.54L113.30 17.57L113.27 17.54Q113.00 18.14 111.02 21.91L110.90 21.79L111.02 21.91Q108.79 21.74 106.81 21.54L106.88 21.62L106.92 21.66Q106.88 22.38 106.88 23.26L106.97 23.34L107.02 25.11L108.57 24.98L108.60 26.42L108.61 26.43Q104.80 33.93 102.02 37.51L102.04 37.52L101.95 37.44Q103.62 36.75 105.26 36.25L105.10 36.09L105.19 36.18Q104.41 37.00 103.04 38.72L103.20 38.87L103.20 38.88Q106.34 37.75 108.77 37.52L108.72 37.47L108.77 37.52Q111.71 33.76 114.84 26.98L114.81 26.96L118.22 27.13L118.26 27.17Q118.16 26.23 118.16 25.32L118.06 25.22L118.19 23.56L118.04 23.42Q117.90 23.54 117.35 23.58L117.31 23.54L117.41 23.63Q116.73 23.55 116.47 23.55L116.49 23.58L116.46 23.55Q116.56 23.53 116.60 23.38L116.48 23.26L116.58 23.09L116.50 23.02Q119.00 17.86 122.08 13.22Z"/><path fill="#333" d="M166.90 24.28L166.81 24.19L166.81 24.20Q164.84 24.09 163.62 25.42L163.74 25.54L163.65 25.45Q162.47 26.83 162.32 28.73L162.44 28.85L162.43 28.84Q162.08 30.81 163.30 31.82L163.42 31.95L163.34 31.86Q164.61 32.92 166.74 32.84L166.81 32.91L166.69 32.79Q168.97 32.60 169.92 31.65L170.06 31.79L169.95 31.67Q171.06 30.32 170.95 28.49L170.97 28.50L170.97 28.51Q170.85 26.64 169.77 25.44L169.65 25.32L169.62 25.30Q168.61 24.17 166.78 24.17ZM166.66 14.65L166.69 14.68L166.76 14.74Q165.37 14.65 164.04 15.15L163.99 15.09L163.95 15.06Q162.77 15.97 163.00 17.84L163.04 17.87L162.98 17.81Q163.46 21.53 166.81 21.53L166.82 21.54L166.75 21.47Q168.30 21.65 169.29 20.51L169.36 20.58L169.43 20.65Q170.27 19.36 170.31 17.79L170.31 17.80L170.41 17.90Q170.39 16.05 169.67 15.44L169.71 15.48L169.67 15.44Q168.06 14.67 166.76 14.75ZM166.53 35.34L166.47 35.28L163.37 35.22L163.48 35.33Q161.86 35.24 160.53 34.36L160.70 34.53L160.66 34.49Q159.27 33.33 159.42 30.47L159.46 30.51L159.47 30.52Q159.79 23.54 163.41 22.55L163.53 22.67L163.38 22.51Q161.11 21.62 159.78 16.25L159.90 16.37L159.89 16.36Q159.55 14.96 159.63 14.16L159.51 14.04L159.53 14.06Q159.84 11.94 163.54 11.90L163.67 12.03L163.65 12.02Q167.84 11.90 169.28 12.09L169.31 12.12L169.33 12.13Q173.15 12.65 173.61 14.66L173.56 14.61L173.59 14.65Q173.66 15.21 173.66 15.59L173.64 15.57L173.67 15.60Q173.59 16.20 173.40 16.81L173.40 16.81L173.55 16.96Q172.84 21.09 169.91 22.61L170.01 22.71L169.88 22.58Q173.43 23.43 173.92 28.72L173.90 28.69L173.84 28.64Q173.90 28.85 173.94 30.15L173.87 30.07L173.90 30.11Q174.10 32.97 172.50 34.04L172.41 33.95L172.52 34.05Q171.11 34.89 166.54 35.35ZM168.79 37.63L168.72 37.57L172.05 37.62L172.05 37.62Q173.89 37.83 175.42 37.10L175.29 36.98L175.33 37.02Q176.43 36.25 176.50 34.39L176.52 34.40L176.50 34.38Q176.65 33.39 176.27 31.45L176.25 31.42L176.34 31.52Q175.25 26.69 173.15 24.83L173.17 24.84L172.97 24.45L172.93 24.34L172.79 24.08L172.80 24.09Q174.41 22.70 175.32 18.55L175.30 18.53L175.19 18.42Q175.20 18.04 175.27 17.20L175.40 17.33L175.37 17.29Q175.48 16.65 175.40 16.04L175.29 15.92L175.33 15.97Q175.26 14.60 174.08 14.10L173.97 14.00L174.09 14.07L173.89 13.96L173.89 13.96Q173.63 13.24 172.45 12.44L172.44 12.42L172.40 12.35L172.48 12.43Q170.42 11.67 166.35 11.48L166.32 11.45L166.29 11.42Q164.75 11.33 163.38 11.44L163.45 11.51L163.40 11.45Q162.73 11.62 161.43 11.77L161.40 11.74L161.45 11.79Q159.33 11.99 159.10 13.63L159.23 13.77L159.19 13.72Q159.16 14.22 159.20 15.02L159.09 14.92L159.29 15.11Q159.33 15.57 159.90 17.93L159.81 17.84L159.79 17.82Q160.68 21.15 162.43 22.49L162.33 22.38L162.55 22.60L162.55 22.60Q159.78 23.91 159.25 29.08L159.20 29.03L159.26 29.10Q159.09 31.32 159.09 32.24L159.09 32.24L158.99 32.14Q159.06 33.92 160.24 34.84L160.34 34.93L160.21 34.80Q160.33 34.89 160.60 35.08L160.61 35.09L160.63 35.11Q161.75 37.48 168.86 37.71ZM168.48 26.59L168.53 26.64L168.40 26.51Q169.30 26.42 170.18 26.88L170.18 26.88L170.16 26.87Q170.58 27.89 170.55 28.43L170.50 28.38L170.67 28.55Q170.61 28.75 170.61 29.06L170.56 29.01L170.55 29.00Q170.65 31.46 168.37 32.30L168.23 32.17L168.26 32.19Q167.54 32.57 166.74 32.46L166.79 32.51L166.66 32.38Q165.58 32.52 164.44 32.07L164.52 32.14L164.43 32.06Q164.29 31.54 164.37 30.55L164.36 30.54L164.32 30.50Q164.41 28.84 165.61 27.62L165.69 27.70L165.55 27.56Q166.85 26.45 168.45 26.56ZM168.65 17.05L168.71 17.11L168.76 17.16Q169.43 16.91 169.96 17.07L170.05 17.15L169.99 17.89L169.94 17.85Q169.93 19.25 169.02 20.26L169.02 20.25L169.03 20.27Q168.08 21.24 166.71 21.05L166.71 21.05L166.85 21.19Q165.76 21.09 165.34 20.86L165.48 21.00L165.42 20.94Q165.42 20.71 165.31 20.03L165.14 19.86L165.27 19.99Q165.03 18.61 166.24 17.77L166.21 17.74L166.28 17.81Q167.26 17.03 168.67 17.07Z"/><path fill="#333" d="M84.09 15.05L84.27 15.22L84.22 15.18Q79.90 15.16 76.21 14.17L76.20 14.16L76.22 14.18Q77.75 18.76 77.94 23.59L77.92 23.57L77.92 23.57Q78.11 28.36 76.89 32.97L76.91 32.99L76.82 32.90Q79.66 32.31 83.16 32.16L83.21 32.21L83.04 32.04Q87.11 32.00 88.90 29.57L88.89 29.56L88.93 29.59Q90.29 27.37 90.48 23.26L90.63 23.41L90.47 23.25Q90.71 21.66 90.25 19.95L90.26 19.95L90.13 19.83Q88.88 15.11 84.16 15.11ZM72.27 37.15L72.27 37.14L72.22 37.10Q75.20 31.51 75.20 24.81L75.09 24.70L75.14 24.75Q75.22 16.30 70.92 9.30L70.86 9.24L70.75 9.13Q76.12 11.91 84.38 12.10L84.38 12.10L84.44 12.16Q93.25 12.29 93.59 19.44L93.51 19.36L93.57 19.43Q93.61 22.05 93.57 23.50L93.74 23.67L93.58 23.50Q93.48 28.17 92.65 30.34L92.81 30.51L92.78 30.47Q92.25 31.46 91.48 32.30L91.51 32.33L91.49 32.30Q90.27 33.98 87.65 34.48L87.62 34.45L87.52 34.35Q86.08 34.77 83.07 35.00L83.08 35.02L82.95 34.88Q76.93 35.45 72.33 37.20ZM90.21 37.04L90.23 37.06L90.26 37.09Q92.96 36.71 94.60 35.22L94.54 35.17L94.52 35.14Q95.65 33.30 95.61 30.56L95.71 30.66L95.79 30.74Q95.78 29.36 95.62 25.86L95.58 25.81L95.21 21.26L95.25 21.30Q95.12 19.07 94.17 16.98L94.12 16.92L94.00 16.81Q93.48 15.87 92.80 15.22L92.85 15.28L92.89 15.16L92.88 15.16Q91.13 12.15 86.72 11.77L86.68 11.74L86.67 11.72Q84.06 11.67 77.06 10.94L77.07 10.96L77.02 10.91Q73.71 10.42 70.02 8.40L70.17 8.55L70.00 8.38Q75.02 15.95 75.02 24.71L75.02 24.70L74.89 24.57Q74.95 31.64 71.60 37.81L71.48 37.69L71.60 37.80Q72.34 37.60 73.67 37.10L73.49 36.92L73.66 37.09Q73.26 37.87 72.39 39.36L72.45 39.42L72.45 39.41Q75.48 38.34 78.83 37.84L78.74 37.75L78.86 37.88Q80.76 37.38 84.42 37.26L84.41 37.25L84.45 37.30Q88.41 37.26 90.24 37.07ZM90.16 23.33L90.32 23.48L90.24 23.40Q89.88 31.42 83.18 31.80L83.20 31.82L83.18 31.80Q81.28 31.96 79.22 32.22L79.06 32.06L79.11 32.11Q79.81 28.24 79.81 24.58L79.97 24.74L79.81 24.58Q79.77 20.85 79.04 17.00L79.14 17.10L79.11 17.07Q81.40 17.46 86.08 17.46L86.13 17.51L86.09 17.46Q87.49 17.34 89.13 18.29L89.06 18.23L89.06 18.22Q90.39 20.55 90.24 23.40Z"/><path fill="#444" d="M32.06 23.75L31.98 23.68L26.16 23.84L26.10 23.77Q23.19 23.83 20.26 23.76L20.33 23.83L20.16 23.66Q20.41 30.49 18.35 36.01L18.34 36.00L18.29 35.95Q16.51 36.49 14.76 37.18L14.78 37.19L14.69 37.11Q17.54 31.47 17.54 24.81L17.40 24.66L17.55 24.82Q17.54 16.32 13.43 9.28L13.33 9.18L13.46 9.30Q14.94 10.06 17.41 10.86L17.38 10.83L17.33 10.77Q19.44 15.82 19.97 20.69L19.96 20.68L19.94 20.66Q23.23 21.17 26.09 21.13L26.16 21.21L26.05 21.09Q28.67 21.05 31.99 20.79L32.01 20.82L32.02 20.82Q32.49 16.42 34.24 11.32L34.35 11.43L34.27 11.35Q36.25 10.96 38.49 10.13L38.42 10.05L38.50 10.14Q34.88 16.87 34.88 24.83L34.80 24.74L34.95 24.89Q34.83 30.98 37.19 36.31L37.21 36.32L37.28 36.39Q35.56 35.67 33.51 35.37L33.54 35.40L33.51 35.37Q31.91 30.42 32.03 23.72ZM33.31 35.78L33.35 35.82L33.25 35.71Q34.37 35.97 35.48 36.23L35.46 36.21L35.39 36.14Q35.68 36.82 36.33 38.30L36.42 38.39L36.45 38.43Q39.79 39.37 41.58 40.28L41.50 40.20L41.51 40.21Q37.10 34.09 36.80 25.83L36.82 25.85L36.89 25.92Q36.44 17.74 40.10 10.93L40.15 10.98L39.15 11.51L39.06 11.42Q38.58 11.65 37.97 11.81L37.88 11.72L37.97 11.81Q38.36 10.99 39.20 9.43L39.15 9.38L39.25 9.47Q36.55 10.47 33.93 10.96L33.91 10.95L33.90 10.93Q32.23 15.78 31.78 20.47L31.87 20.56L31.80 20.49Q29.40 20.79 26.97 20.79L26.87 20.70L26.85 20.67Q24.43 20.65 21.91 20.50L21.95 20.54L22.02 20.61Q21.66 17.20 20.55 13.12L20.61 13.18L20.70 13.27Q20.06 13.20 18.61 12.82L18.45 12.65L18.55 12.76Q18.09 11.46 17.63 10.43L17.59 10.39L17.67 10.47Q14.89 9.67 12.61 8.41L12.58 8.38L12.60 8.41Q17.32 15.98 17.32 24.78L17.27 24.73L17.16 24.61Q17.31 31.73 14.19 37.86L14.14 37.81L14.15 37.83Q14.79 37.48 16.12 36.91L16.18 36.96L16.08 36.86Q15.72 37.68 14.92 39.20L14.98 39.27L15.01 39.30Q17.77 38.25 20.02 37.83L20.12 37.93L20.17 37.98Q21.94 32.33 22.13 26.16L22.05 26.08L22.17 26.20Q23.64 26.00 26.84 25.96L26.99 26.11L26.85 25.97Q29.72 25.95 31.63 26.03L31.68 26.07L31.76 26.16Q31.90 31.78 33.23 35.70Z"/><path fill="#222" d="M149.19 18.10L149.12 18.03L149.15 18.05Q147.29 20.72 144.62 26.35L144.73 26.46L142.60 30.58L142.75 30.72Q141.71 32.47 140.38 34.71L140.53 34.86L140.41 34.74Q140.98 34.86 139.31 34.89L139.31 34.90L139.30 34.89Q139.18 34.77 137.92 34.77L138.03 34.88L138.03 34.88Q137.29 33.37 134.36 26.22L134.39 26.24L134.27 26.12Q132.26 20.92 130.17 17.91L130.10 17.84L130.04 17.79Q130.86 20.93 130.86 24.09L130.94 24.17L130.90 24.13Q130.89 30.62 127.92 36.18L127.94 36.20L127.89 36.16Q126.52 36.46 124.16 37.19L124.23 37.25L124.17 37.19Q127.79 31.45 127.79 24.22L127.97 24.40L127.85 24.27Q127.89 15.37 122.48 8.40L122.52 8.44L122.40 8.31Q124.06 9.07 126.42 9.75L126.55 9.88L126.40 9.73Q133.50 16.53 139.59 29.85L139.67 29.93L139.70 29.96Q143.01 22.76 145.22 19.26L145.30 19.34L145.36 19.40Q148.81 13.49 152.77 10.02L152.83 10.08L152.80 10.05Q154.15 9.92 156.51 9.16L156.45 9.10L156.49 9.13Q151.56 15.82 151.56 24.42L151.40 24.26L151.53 24.39Q151.40 30.92 154.82 36.44L154.99 36.61L154.92 36.54Q153.64 36.28 150.90 35.68L150.90 35.68L150.85 35.63Q148.46 30.80 148.46 24.82L148.37 24.74L148.45 24.81Q148.54 21.47 149.22 18.12ZM150.62 35.96L150.73 36.08L150.61 35.96Q151.36 36.14 152.81 36.40L152.81 36.41L152.68 36.28Q153.14 37.04 154.09 38.52L154.08 38.52L154.18 38.61Q156.25 38.97 159.72 40.19L159.70 40.18L159.73 40.20Q153.42 33.82 153.42 23.99L153.56 24.14L153.42 24.00Q153.41 16.26 157.79 10.13L157.92 10.26L155.80 11.04L155.67 10.91Q156.73 9.41 157.37 8.54L157.28 8.44L157.29 8.45Q155.49 9.17 152.87 9.70L152.87 9.70L152.87 9.71Q145.98 15.68 139.93 28.29L140.11 28.47L140.09 28.45Q134.91 17.47 129.96 12.22L129.86 12.12L129.81 12.08Q129.49 12.06 128.92 11.94L128.94 11.97L127.71 10.66L127.76 10.71Q127.08 9.96 126.40 9.35L126.47 9.42L126.37 9.32Q123.39 8.40 121.60 7.67L121.60 7.67L121.72 7.80Q127.53 14.82 127.53 24.22L127.63 24.32L127.64 24.33Q127.66 31.97 123.51 37.83L123.51 37.83L123.38 37.70Q124.15 37.56 125.44 37.14L125.37 37.06L125.45 37.14Q125.29 37.36 123.88 39.46L123.96 39.53L123.87 39.44Q125.77 39.06 129.28 38.30L129.12 38.15L129.21 38.23Q132.94 31.19 132.75 23.42L132.71 23.39L132.81 23.49Q134.27 27.42 137.73 35.30L137.77 35.34L137.80 35.37Q137.99 35.25 138.22 35.25L138.26 35.29L138.82 35.33L138.77 35.27Q139.10 35.83 139.90 37.13L139.94 37.16L140.08 37.30Q141.58 37.17 141.58 37.17L141.55 37.14L141.60 37.19Q142.53 37.09 143.18 37.17L143.18 37.17L143.33 37.32Q144.90 33.30 148.25 25.30L148.19 25.24L148.11 25.15Q147.96 30.57 150.55 35.90Z"/><path fill="#444" d="M51.14 24.70L51.18 24.73L51.05 24.60Q51.15 28.97 50.43 33.12L50.29 32.98L50.40 33.09Q52.56 32.43 55.64 32.32L55.68 32.36L55.79 32.47Q57.06 32.59 58.12 31.58L58.06 31.52L58.14 31.60Q59.25 30.63 59.25 29.30L59.08 29.13L59.08 29.13Q59.20 28.95 59.16 28.68L59.13 28.65L59.11 28.63Q59.07 25.81 56.82 24.97L56.63 24.78L56.80 24.95Q55.98 24.59 55.29 24.66L55.24 24.61L55.29 24.66Q54.12 24.48 53.10 24.52L53.23 24.65L53.24 24.66Q52.07 24.60 51.04 24.60ZM49.93 14.27L49.92 14.26L49.80 14.14Q50.77 17.55 51.04 21.93L50.96 21.85L50.93 21.82Q52.41 21.97 55.07 22.01L55.19 22.12L55.11 22.04Q58.10 22.14 58.45 18.60L58.34 18.49L58.37 18.53Q58.54 16.56 57.13 15.72L57.23 15.82L57.12 15.72Q56.28 15.26 51.87 14.61L51.81 14.56L51.95 14.69Q50.82 14.47 49.90 14.24ZM46.18 37.06L46.32 37.19L46.13 37.00Q48.63 30.37 48.36 22.98L48.47 23.09L48.39 23.01Q48.16 15.77 45.23 9.30L45.11 9.19L45.15 9.23Q48.96 11.78 55.19 12.03L55.27 12.11L55.32 12.16Q61.50 12.37 61.84 15.26L61.77 15.19L61.85 15.27Q62.13 17.98 60.72 20.65L60.72 20.65L60.71 20.64Q59.90 22.07 58.30 22.76L58.36 22.81L58.37 22.83Q62.00 23.49 62.23 28.86L62.18 28.81L62.15 28.78Q62.25 29.90 62.17 31.31L62.22 31.36L62.29 31.43Q62.22 32.73 61.29 33.66L61.19 33.57L61.29 33.67Q60.30 34.54 58.97 34.69L58.94 34.66L59.10 34.83Q57.57 34.86 56.50 34.86L56.41 34.76L56.46 34.82Q50.81 34.88 46.28 37.16ZM58.97 37.36L59.06 37.45L58.97 37.36Q59.98 37.49 61.84 37.61L61.82 37.58L61.79 37.55Q63.25 37.64 64.36 36.77L64.34 36.75L64.40 36.82Q65.12 35.82 65.01 34.26L65.02 34.27L65.11 34.37Q64.98 33.35 64.25 29.89L64.30 29.94L64.22 29.85Q63.56 26.64 61.69 25.16L61.63 25.09L61.24 24.29L61.18 24.23Q62.84 22.80 63.41 19.03L63.60 19.22L63.57 19.20Q63.58 17.91 63.50 16.50L63.67 16.66L63.55 16.55Q63.49 15.24 62.39 14.40L62.41 14.42L62.46 14.47Q62.12 14.25 62.01 14.21L61.97 14.17L61.96 14.16Q61.79 13.73 60.96 12.93L60.94 12.91L60.83 12.80Q59.37 11.80 55.15 11.61L55.21 11.67L55.18 11.64Q48.60 11.42 44.61 8.53L44.60 8.53L44.62 8.55Q47.82 15.47 48.12 23.01L48.12 23.00L48.21 23.09Q48.47 30.86 45.65 37.79L45.64 37.77L47.79 36.92L47.78 36.91Q47.41 38.06 46.92 39.21L46.88 39.17L46.74 39.03Q51.13 37.24 56.15 37.24L56.13 37.22L56.16 37.25Q57.59 37.28 59.04 37.43ZM56.85 26.82L56.82 26.80L56.88 26.86Q57.68 26.85 58.59 27.31L58.46 27.18L58.51 27.23Q58.70 27.65 58.85 28.72L58.83 28.70L58.82 28.68Q59.05 30.09 58.11 31.13L58.02 31.05L58.07 31.10Q57.18 32.18 55.77 32.06L55.61 31.91L54.23 32.13L54.28 32.17Q53.38 32.08 52.66 32.19L52.81 32.34L52.79 32.32Q52.94 30.34 53.01 26.87L53.12 26.98L53.09 26.94Q53.85 26.99 55.11 26.95L55.04 26.88L55.08 26.92Q56.27 26.82 56.88 26.86ZM55.75 17.16L55.77 17.18L56.32 17.35L56.28 17.31Q56.37 17.18 56.56 17.21L56.67 17.32L56.98 17.25L57.44 17.51L57.92 17.47L58.05 17.60Q58.13 17.83 58.13 18.13L58.15 18.15L58.03 18.57L58.14 18.68Q58.02 19.81 57.14 20.74L57.17 20.77L57.26 20.86Q56.35 21.76 55.13 21.76L55.01 21.63L55.15 21.78Q54.07 21.72 54.07 21.72L54.14 21.80L54.02 21.67Q52.77 21.72 53.12 21.72L53.14 21.74L52.98 21.58Q52.94 20.06 52.64 17.02L52.66 17.04L52.82 17.20Q54.35 17.28 55.87 17.28Z"/></svg>