<svg xmlns="http://www.w3.org/2000/svg" width="200" height="40" viewBox="0,0,200,40"><path d="M15 12 C106 8,107 9,188 22" stroke="#444" fill="none"/><path d="M19 6 C92 31,86 24,196 37" stroke="#888" fill="none"/><path fill="#222" d="M109.25 35.01L109.08 34.84L109.21 34.96Q104.97 34.34 103.14 32.89L103.14 32.90L103.10 32.85Q101.25 31.39 100.84 28.38L100.92 28.46L100.82 28.37Q100.92 28.13 100.58 23.37L100.55 23.33L100.52 23.31Q100.65 22.22 100.57 20.96L100.52 20.91L100.50 20.89Q100.35 15.87 102.56 14.12L102.56 14.11L102.63 14.18Q105.20 12.00 112.96 11.31L112.90 11.24L113.01 11.36Q114.33 11.19 115.96 11.23L115.95 11.21L115.94 11.20Q115.97 11.23 118.94 11.23L118.84 11.13L118.90 11.19Q119.70 11.16 121.41 11.31L121.50 11.40L121.50 11.40Q121.03 12.37 120.00 15.45L119.97 15.43L119.88 15.34Q117.82 14.15 114.81 14.15L114.85 14.19L114.90 14.24Q113.99 14.09 113.20 14.17L113.37 14.35L113.34 14.32Q108.09 14.62 105.58 16.60L105.60 16.62L105.70 16.72Q103.65 18.29 103.50 21.64L103.56 21.71L103.44 21.59Q103.52 22.31 103.56 23.57L103.56 23.57L103.59 23.60Q103.57 28.30 105.97 30.39L105.96 30.39L106.04 30.47Q108.08 32.28 113.07 32.58L113.18 32.69L113.08 32.59Q116.18 32.73 119.19 30.94L119.19 30.94L119.36 31.11Q119.97 33.85 120.57 35.22L120.57 35.21L120.47 35.11Q118.49 35.49 116.85 35.45L116.82 35.42L116.80 35.40Q112.36 35.38 109.24 35.00ZM124.21 38.58L124.28 38.66L124.23 38.61Q122.47 35.63 121.79 33.04L121.78 33.03L121.85 33.10Q121.43 33.37 120.44 33.75L120.49 33.79L120.48 33.79Q120.02 32.87 119.83 32.03L119.82 32.02L119.39 30.26L119.41 30.28Q116.16 32.37 113.04 32.25L113.01 32.23L113.12 32.33Q108.86 32.14 106.54 30.39L106.56 30.41L106.54 30.40Q105.38 28.55 105.45 25.62L105.42 25.58L105.52 25.68Q105.60 21.12 108.08 18.99L108.15 19.06L108.11 19.02Q110.22 17.10 114.91 16.49L114.84 16.42L114.81 16.40Q115.69 16.36 116.42 16.36L116.30 16.25L116.37 16.32Q119.09 16.26 121.18 17.78L121.22 17.81L121.20 17.80Q121.70 15.67 122.91 12.43L123.01 12.53L122.90 12.42Q122.75 12.54 122.20 12.48L122.23 12.51L122.17 12.45Q121.57 12.34 121.30 12.34L121.34 12.38L121.41 12.45Q121.45 11.77 121.91 10.78L121.93 10.80L121.99 10.86Q121.77 10.87 119.28 10.79L119.28 10.80L119.33 10.84Q116.77 10.71 116.13 10.74L116.21 10.83L116.19 10.81Q105.55 11.01 102.08 13.60L102.18 13.70L102.20 13.72Q100.05 15.41 100.05 19.33L100.09 19.38L100.19 19.47Q100.07 20.46 100.18 23.16L100.28 23.26L100.19 23.17Q100.37 26.78 100.60 28.49L100.62 28.51L100.53 28.42Q100.90 31.53 102.50 33.05L102.49 33.04L102.60 33.16Q103.15 33.90 104.41 35.04L104.33 34.96L104.39 35.02Q107.68 36.83 112.93 37.59L112.89 37.54L112.82 37.47Q119.39 38.56 124.37 38.75Z"/><path fill="#222" d="M169.67 34.78L169.71 34.83L169.76 34.87Q167.72 34.74 165.70 34.93L165.79 35.02L165.70 34.92Q166.43 29.76 166.43 24.92L166.40 24.89L166.50 24.99Q166.38 19.95 165.73 14.74L165.86 14.87L165.84 14.85Q161.14 14.34 157.94 12.66L158.04 12.76L157.26 10.96L157.29 10.99Q157.18 10.56 156.57 9.35L156.48 9.26L156.42 9.20Q161.48 11.86 167.49 12.05L167.58 12.14L167.62 12.18Q173.37 12.21 178.81 10.16L178.82 10.16L178.97 10.31Q178.28 11.75 177.63 13.58L177.52 13.48L177.63 13.58Q173.96 14.82 169.69 15.01L169.72 15.04L169.66 14.98Q169.49 20.02 169.49 24.97L169.42 24.90L169.45 24.93Q169.37 29.81 169.68 34.79ZM179.62 9.60L179.59 9.57L179.60 9.58Q173.65 11.73 167.44 11.54L167.58 11.68L167.52 11.62Q160.82 11.40 155.72 8.43L155.72 8.42L155.80 8.50Q156.59 9.83 157.89 13.10L157.76 12.97L157.87 13.09Q158.50 13.37 159.76 13.94L159.76 13.95L159.73 13.92Q160.07 14.72 160.42 16.24L160.29 16.11L160.24 16.07Q162.70 17.07 165.74 17.30L165.65 17.21L165.57 17.13Q165.98 20.86 165.98 24.63L165.94 24.58L166.00 24.64Q166.13 30.14 165.33 35.51L165.32 35.49L165.16 35.33Q166.84 35.23 167.38 35.23L167.41 35.26L167.45 35.30Q167.49 35.65 167.43 36.32L167.48 36.36L167.44 36.32Q167.29 36.90 167.29 37.24L167.42 37.37L167.39 37.34Q168.57 37.26 170.09 37.34L169.97 37.21L169.98 37.23Q170.88 37.25 172.71 37.40L172.78 37.48L172.75 37.45Q171.64 32.64 171.53 27.46L171.38 27.32L171.39 27.33Q171.32 22.08 171.85 17.17L171.89 17.20L171.77 17.09Q175.83 16.65 178.99 15.43L178.86 15.31L178.89 15.34Q179.56 12.93 180.59 10.87L180.59 10.87L180.59 10.87Q179.40 11.69 178.60 12.00L178.55 11.95L178.56 11.96Q178.89 10.58 179.46 9.44Z"/><path fill="#222" d="M141.02 27.23L131.67 17.11L131.61 17.05Q132.49 20.79 132.49 24.52L132.47 24.50L132.57 24.60Q132.62 30.62 130.56 36.18L130.46 36.08L130.53 36.15Q129.42 36.37 127.17 37.13L127.23 37.19L127.18 37.14Q130.07 31.43 130.07 24.73L130.06 24.72L130.05 24.71Q129.95 15.96 125.46 8.54L125.57 8.66L125.54 8.62Q125.91 8.73 126.60 9.15L126.66 9.21L126.56 9.11Q138.71 20.39 146.56 29.64L146.54 29.62L146.57 29.65Q146.19 27.14 146.19 24.71L146.27 24.79L146.25 24.76Q146.23 17.51 148.74 11.31L148.70 11.27L148.71 11.27Q151.16 10.87 152.76 10.18L152.72 10.15L152.76 10.19Q149.44 16.35 149.14 23.50L149.03 23.39L148.99 23.36Q148.86 30.87 151.83 37.04L151.74 36.96L151.68 36.90Q151.11 36.82 150.69 36.63L150.82 36.76L150.77 36.71Q146.08 32.62 140.86 27.07L140.94 27.14ZM154.37 40.15L154.30 40.08L154.32 40.10Q154.73 40.21 155.15 40.40L155.23 40.48L156.17 40.93L156.11 40.86Q150.90 33.87 150.90 24.50L150.84 24.45L150.84 24.45Q150.98 17.35 154.30 11.11L154.23 11.05L154.15 10.96Q153.62 11.31 152.21 11.92L152.28 11.99L152.10 11.81Q152.55 11.04 153.39 9.48L153.41 9.51L153.31 9.40Q150.91 10.36 148.48 10.93L148.56 11.01L148.53 10.98Q145.96 17.51 145.96 24.93L145.90 24.87L145.90 24.87Q145.79 26.63 145.98 28.61L146.12 28.74L146.06 28.68Q141.35 22.95 136.59 18.34L136.58 18.33L126.51 8.64L126.65 8.78Q126.04 8.44 124.82 7.87L124.69 7.73L124.82 7.86Q129.72 15.62 129.72 24.72L129.67 24.67L129.57 24.57Q129.61 31.73 126.53 37.74L126.49 37.70L126.62 37.84Q126.91 37.71 128.55 37.10L128.47 37.02L128.56 37.11Q128.13 37.79 127.30 39.27L127.31 39.28L127.36 39.33Q128.62 38.74 132.09 37.94L132.21 38.06L132.14 37.99Q134.41 31.81 134.41 24.61L134.58 24.78L134.44 24.65Q134.48 22.58 134.25 20.45L134.26 20.47L134.17 20.37Q145.72 33.26 154.32 40.11Z"/><path fill="#333" d="M82.13 35.24L81.98 35.09L79.74 28.40L79.58 28.24Q75.20 15.64 69.26 9.24L69.41 9.39L69.27 9.24Q71.36 10.38 73.95 10.99L74.06 11.10L73.91 10.95Q79.01 17.20 83.35 29.95L83.40 30.00L83.53 30.13Q86.42 21.86 87.10 20.26L87.09 20.26L87.18 20.34Q89.50 14.67 92.32 11.36L92.35 11.39L92.30 11.34Q94.44 11.04 97.07 10.17L97.04 10.14L97.11 10.21Q92.43 14.70 89.38 21.94L89.42 21.97L89.38 21.94Q88.12 25.74 84.43 35.26L84.30 35.13L84.38 35.21Q83.75 35.15 83.18 35.11L83.13 35.07L83.20 35.13Q82.61 35.11 82.04 35.15ZM87.15 37.68L87.20 37.72L87.09 37.61Q89.89 27.62 91.45 23.59L91.36 23.49L91.53 23.66Q94.46 15.90 98.88 11.03L98.91 11.06L98.83 10.98Q97.89 11.45 95.80 12.17L95.70 12.07L96.87 10.77L96.91 10.81Q97.44 10.08 98.05 9.43L98.02 9.41L98.14 9.52Q95.33 10.53 92.33 11.10L92.16 10.93L92.29 11.07Q87.79 16.27 83.91 27.73L83.90 27.72L84.05 27.87Q80.25 17.60 77.05 13.22L77.09 13.26L77.04 13.21Q76.74 13.22 75.87 13.07L75.89 13.09L75.95 13.15Q75.64 12.69 74.04 10.63L74.08 10.67L73.99 10.58Q71.06 9.90 68.36 8.49L68.35 8.48L68.40 8.53Q74.97 15.56 79.35 28.35L79.45 28.45L79.40 28.40Q80.65 32.09 81.83 35.67L81.79 35.63L81.71 35.54Q82.06 35.59 82.90 35.47L83.08 35.66L83.09 35.67Q83.27 36.19 83.96 37.52L84.06 37.63L84.00 37.57Q84.82 37.48 85.55 37.55L85.55 37.56L85.66 37.67Q86.38 37.66 87.14 37.66Z"/><path fill="#333" d="M56.09 27.15L46.88 17.18L46.86 17.16Q47.77 20.92 47.77 24.65L47.61 24.50L47.59 24.48Q47.71 30.58 45.66 36.13L45.67 36.14L45.68 36.15Q44.47 36.28 42.22 37.04L42.35 37.17L42.35 37.17Q45.10 31.32 45.10 24.62L45.06 24.57L45.05 24.57Q45.20 16.07 40.71 8.65L40.68 8.62L40.73 8.66Q41.02 8.69 41.71 9.11L41.77 9.18L41.72 9.13Q53.89 20.42 61.73 29.67L61.59 29.53L61.60 29.54Q61.41 27.21 61.41 24.78L61.33 24.71L61.36 24.74Q61.47 17.61 63.98 11.40L63.94 11.36L63.81 11.24Q66.19 10.76 67.79 10.07L67.84 10.12L67.86 10.14Q64.51 16.27 64.21 23.43L64.15 23.37L64.26 23.48Q63.87 30.74 66.84 36.91L66.82 36.90L66.84 36.91Q66.25 36.82 65.83 36.62L65.94 36.73L65.88 36.67Q61.36 32.76 56.14 27.20L56.12 27.18ZM69.42 40.07L69.57 40.21L69.51 40.15Q69.91 40.25 70.33 40.44L70.44 40.55L71.31 40.93L71.32 40.94Q66.16 33.98 66.16 24.62L66.01 24.47L66.07 24.53Q65.98 17.20 69.29 10.96L69.43 11.11L69.45 11.12Q68.72 11.27 67.31 11.88L67.29 11.85L67.32 11.89Q67.78 11.13 68.62 9.56L68.58 9.53L68.56 9.51Q66.14 10.44 63.70 11.01L63.59 10.90L63.64 10.94Q61.07 17.48 61.07 24.90L61.03 24.86L61.11 24.93Q61.00 26.69 61.19 28.67L61.16 28.65L61.17 28.65Q56.60 23.06 51.85 18.45L51.89 18.50L41.72 8.70L41.61 8.60Q41.05 8.31 39.83 7.73L39.85 7.75L39.94 7.84Q44.89 15.65 44.89 24.74L44.88 24.73L44.72 24.58Q44.74 31.72 41.66 37.73L41.74 37.81L41.61 37.68Q42.03 37.68 43.66 37.07L43.74 37.15L43.58 36.99Q43.28 37.80 42.45 39.28L42.47 39.31L42.60 39.43Q43.79 38.76 47.25 37.96L47.29 38.00L47.31 38.01Q49.69 31.94 49.69 24.74L49.53 24.59L49.68 24.74Q49.70 22.66 49.47 20.53L49.42 20.48L49.40 20.46Q60.89 33.28 69.49 40.13Z"/><path fill="#333" d="M31.91 23.61L32.04 23.73L26.03 23.70L26.19 23.86Q23.11 23.76 20.18 23.68L20.27 23.77L20.17 23.67Q20.43 30.52 18.38 36.04L18.28 35.94L18.33 35.99Q16.50 36.48 14.75 37.17L14.65 37.07L14.66 37.07Q17.53 31.46 17.53 24.80L17.43 24.70L17.56 24.82Q17.44 16.21 13.32 9.17L13.36 9.20L13.46 9.31Q14.95 10.07 17.43 10.87L17.37 10.81L17.33 10.77Q19.48 15.86 20.01 20.73L20.05 20.76L20.06 20.78Q23.15 21.09 26.01 21.05L26.03 21.08L26.16 21.20Q28.77 21.15 32.08 20.88L32.12 20.92L32.07 20.87Q32.50 16.43 34.25 11.33L34.33 11.41L34.38 11.45Q36.24 10.96 38.49 10.12L38.44 10.07L38.51 10.14Q34.78 16.77 34.78 24.72L34.76 24.71L34.79 24.73Q34.80 30.95 37.16 36.28L37.27 36.39L37.31 36.43Q35.62 35.73 33.57 35.43L33.48 35.34L33.50 35.36Q31.79 30.30 31.90 23.60ZM33.37 35.84L33.20 35.67L33.32 35.78Q34.28 35.87 35.38 36.14L35.38 36.13L35.35 36.10Q35.68 36.81 36.32 38.30L36.51 38.48L36.43 38.40Q39.73 39.31 41.52 40.22L41.52 40.22L41.53 40.23Q37.05 34.03 36.74 25.77L36.87 25.90L36.78 25.81Q36.43 17.73 40.08 10.91L40.13 10.96L39.00 11.35L39.12 11.48Q38.68 11.76 38.07 11.91L37.90 11.74L37.89 11.74Q38.36 10.99 39.20 9.43L39.19 9.41L39.26 9.49Q36.57 10.48 33.94 10.98L33.89 10.93L34.00 11.03Q32.22 15.77 31.77 20.45L31.73 20.42L31.89 20.58Q29.39 20.78 26.96 20.78L26.91 20.74L26.97 20.80Q24.54 20.77 22.03 20.62L21.94 20.52L21.92 20.50Q21.80 17.34 20.70 13.27L20.60 13.17L20.69 13.26Q19.90 13.04 18.46 12.66L18.43 12.64L18.53 12.74Q18.05 11.42 17.60 10.40L17.59 10.39L17.64 10.44Q14.95 9.73 12.66 8.47L12.68 8.49L12.75 8.56Q17.18 15.84 17.18 24.64L17.13 24.58L17.15 24.61Q17.13 31.56 14.01 37.69L14.13 37.80L14.15 37.82Q14.85 37.54 16.19 36.97L16.10 36.88L16.13 36.91Q15.90 37.86 15.10 39.38L15.09 39.37L15.04 39.32Q17.85 38.32 20.09 37.90L20.12 37.93L20.18 37.99Q21.93 32.32 22.12 26.15L22.07 26.10L22.04 26.07Q23.65 26.01 26.85 25.97L26.85 25.96L27.01 26.13Q29.87 26.09 31.77 26.17L31.78 26.17L31.65 26.05Q32.00 31.88 33.33 35.80Z"/></svg>