<svg xmlns="http://www.w3.org/2000/svg" width="200" height="40" viewBox="0,0,200,40"><path d="M19 33 C98 4,105 4,184 37" stroke="#444" fill="none"/><path d="M21 5 C108 14,80 31,198 9" stroke="#444" fill="none"/><path fill="#333" d="M170.00 34.88L169.93 34.81L167.98 34.80L168.08 34.91Q166.99 34.77 166.04 34.89L166.18 35.02L166.18 35.02Q166.72 28.79 166.72 24.79L166.71 24.78L166.75 24.82Q162.64 18.00 154.98 9.32L155.04 9.38L155.12 9.46Q156.93 10.47 160.28 11.27L160.19 11.18L160.31 11.30Q165.32 16.84 168.33 22.06L168.31 22.04L168.27 22.00Q171.35 16.51 175.72 11.49L175.62 11.39L175.59 11.35Q178.08 11.03 180.59 10.23L180.55 10.19L180.52 10.15Q174.53 16.31 169.66 24.72L169.70 24.76L169.57 24.63Q169.73 31.84 170.04 34.92ZM179.01 12.22L181.70 9.36L181.66 9.32Q178.67 10.59 175.55 11.05L175.46 10.96L175.53 11.02Q171.27 15.71 168.45 20.81L168.52 20.88L168.51 20.87Q166.41 17.25 163.21 13.36L163.11 13.26L163.25 13.40Q162.90 13.32 162.41 13.24L162.40 13.24L162.43 13.27Q161.81 12.53 160.29 10.86L160.22 10.79L160.22 10.79Q156.76 9.96 153.79 8.40L153.82 8.43L153.88 8.49Q161.67 17.04 166.43 24.96L166.39 24.92L166.25 24.78Q166.14 31.10 165.53 35.25L165.68 35.40L165.60 35.32Q166.33 35.29 167.78 35.18L167.73 35.13L167.81 36.23L167.92 36.35Q167.74 36.62 167.66 37.16L167.67 37.16L167.74 37.23Q171.23 37.18 172.98 37.37L173.00 37.39L173.05 37.44Q171.81 32.77 171.69 26.80L171.60 26.70L171.77 26.87Q175.97 18.24 182.52 10.89L182.51 10.89L178.97 12.18Z"/><path fill="#333" d="M107.00 35.40L106.86 35.27L107.03 35.44Q105.49 35.38 103.93 34.96L104.05 35.08L104.04 35.07Q102.66 34.00 102.51 32.36L102.63 32.49L102.63 32.49Q102.46 32.16 102.65 29.53L102.80 29.68L102.75 29.63Q103.72 29.39 105.74 29.01L105.74 29.01L105.63 29.85L105.59 29.80Q105.33 31.56 106.73 32.13L106.78 32.18L106.70 32.10Q107.54 32.48 109.63 32.48L109.62 32.47L109.58 32.43Q111.31 32.41 111.50 32.33L111.51 32.34L111.42 32.25Q112.36 32.12 113.08 31.62L113.03 31.57L113.13 31.67Q114.40 30.59 114.21 28.49L114.26 28.54L114.24 28.52Q114.17 26.21 112.44 24.65L112.29 24.50L112.34 24.54Q110.59 22.97 108.12 22.97L108.08 22.93L108.13 22.75L108.24 22.86Q108.58 22.78 109.45 22.71L109.34 22.60L109.35 22.61Q111.36 22.59 112.73 21.36L112.59 21.22L112.67 21.30Q114.08 20.10 114.23 18.23L114.21 18.21L114.14 18.14Q114.22 17.80 114.22 17.46L114.30 17.54L114.34 17.58Q114.27 15.99 112.90 15.07L112.88 15.05L112.85 15.03Q111.78 14.37 110.18 14.49L110.05 14.36L110.13 14.43Q108.86 14.30 107.64 14.72L107.51 14.59L107.67 14.76Q106.19 15.25 105.88 16.40L105.78 16.29L105.82 16.33Q105.66 17.13 105.74 17.89L105.63 17.78L105.73 17.88Q104.64 17.59 102.59 16.87L102.56 16.84L102.71 16.99Q102.36 15.20 102.40 14.36L102.48 14.44L102.42 14.38Q102.53 12.85 103.59 12.16L103.56 12.13L103.63 12.20Q104.97 11.53 106.57 11.53L106.56 11.51L106.57 11.52Q109.78 11.53 112.94 11.80L112.90 11.76L112.96 11.82Q118.00 12.21 117.69 15.98L117.68 15.97L117.71 16.00Q117.71 17.56 117.21 19.12L117.14 19.05L117.23 19.13Q116.24 22.14 113.88 23.06L113.87 23.05L113.90 23.07Q116.43 23.51 117.04 26.86L117.18 27.01L117.09 26.92Q117.41 28.15 117.48 30.16L117.49 30.17L117.33 30.01Q117.61 34.60 113.01 35.05L112.89 34.94L112.89 34.94Q112.28 35.12 106.99 35.39ZM112.20 37.64L112.13 37.57L112.08 37.52Q112.75 37.62 115.61 37.69L115.69 37.77L115.55 37.63Q117.32 37.73 118.96 37.08L118.97 37.09L118.92 37.05Q120.13 36.12 119.94 34.37L119.91 34.34L120.02 34.45Q119.86 33.07 119.55 31.32L119.51 31.27L119.48 31.25Q118.94 26.94 117.00 25.31L116.95 25.25L116.76 24.87L116.62 24.69L116.67 24.75Q118.44 23.32 119.20 18.94L119.22 18.95L119.18 18.92Q119.17 18.41 119.29 17.46L119.40 17.58L119.38 17.56Q119.36 16.70 119.29 16.02L119.39 16.12L119.33 16.06Q119.16 14.37 117.87 13.69L117.81 13.62L117.73 13.62L117.83 13.73Q117.49 12.69 116.34 12.16L116.34 12.16L116.35 12.17Q114.78 11.43 109.64 11.13L109.76 11.24L109.72 11.21Q107.96 11.05 106.37 11.05L106.35 11.04L106.43 11.12Q104.78 11.07 103.26 11.72L103.27 11.72L103.39 11.85Q102.11 12.55 102.11 14.30L102.11 14.30L102.15 14.34Q102.04 13.81 102.31 17.16L102.36 17.21L102.45 17.30Q102.76 17.38 104.40 17.99L104.41 18.00L104.34 17.94Q104.32 18.45 104.29 18.95L104.33 18.99L104.20 18.86Q104.30 19.46 104.34 19.99L104.35 20.00L104.23 19.88Q106.02 20.26 108.03 20.37L108.10 20.44L108.06 20.40Q107.96 18.35 109.06 17.52L109.10 17.55L109.19 17.65Q110.04 17.01 112.06 16.78L112.03 16.75L112.10 16.82Q113.23 16.81 113.80 17.00L113.67 16.87L113.73 16.93Q113.85 17.13 113.89 17.24L113.86 17.22L113.82 17.36L114.00 18.00L113.85 17.85Q113.94 18.13 113.90 18.28L113.77 18.15L113.94 18.33Q113.85 20.02 112.33 21.20L112.32 21.19L112.31 21.18Q111.25 21.96 109.24 22.15L109.39 22.30L109.30 22.21Q108.53 22.32 107.66 22.32L107.81 22.47L107.75 22.41Q107.80 22.77 107.96 23.46L107.94 23.43L107.96 23.46Q109.64 23.39 111.09 24.11L111.11 24.14L111.08 24.21L109.55 24.44L109.53 24.42Q109.41 24.60 109.52 25.21L109.65 25.34L109.51 25.20Q111.70 25.19 113.42 26.52L113.38 26.48L113.46 26.56Q113.76 27.01 114.06 28.65L113.97 28.55L113.92 28.51Q114.11 31.43 111.17 31.85L111.29 31.97L111.15 31.83Q109.19 32.23 108.62 32.19L108.60 32.17L108.67 32.24Q108.02 31.93 107.49 31.86L107.64 32.01L107.53 31.44L107.65 30.99L107.74 30.66L107.82 30.40L107.76 30.34Q106.82 30.42 106.02 30.61L105.93 30.53L106.10 30.70Q105.96 30.36 105.96 30.17L106.08 30.30L105.99 30.21Q106.00 29.99 106.00 29.76L105.93 29.69L105.98 29.74Q106.05 29.36 106.21 28.63L106.15 28.57L106.12 28.55Q104.32 28.85 102.46 29.19L102.54 29.27L102.57 29.30Q102.50 29.72 102.39 30.85L102.44 30.90L102.30 30.76Q102.23 31.93 102.23 32.54L102.31 32.62L102.31 32.62Q102.38 34.67 103.75 35.43L103.62 35.30L103.63 35.31Q105.24 37.71 109.96 37.52L109.87 37.44L109.99 37.55Q110.60 37.40 112.12 37.55Z"/><path fill="#333" d="M62.36 35.45L62.33 35.43L62.23 35.33Q59.32 31.50 56.69 22.86L56.61 22.78L56.66 22.83Q56.01 20.70 55.21 18.57L55.14 18.49L52.33 27.33L52.31 27.31Q50.60 32.34 48.20 35.58L48.04 35.42L48.07 35.44Q47.29 35.57 45.65 35.73L45.72 35.80L45.71 35.78Q45.67 34.45 45.67 33.19L45.77 33.30L45.79 33.31Q45.71 27.22 42.97 21.09L43.07 21.20L42.92 21.04Q39.99 14.35 34.13 9.36L34.09 9.32L34.04 9.27Q36.15 9.93 38.51 10.47L38.47 10.43L38.55 10.50Q47.15 18.88 48.44 29.84L48.49 29.89L48.42 29.82Q50.12 26.56 51.56 21.20L51.58 21.22L51.50 21.14Q53.61 13.76 54.10 12.35L54.01 12.26L56.32 12.32L56.26 12.27Q57.03 14.36 57.67 16.69L57.67 16.68L58.85 21.06L58.81 21.02Q60.41 26.50 61.82 29.74L61.84 29.76L61.92 29.84Q63.58 18.21 71.50 10.86L71.48 10.84L71.43 10.80Q73.03 10.53 76.00 9.88L75.87 9.76L76.04 9.93Q70.59 14.11 67.55 20.24L67.64 20.33L67.55 20.25Q64.45 26.47 64.45 33.25L64.44 33.24L64.43 33.23Q64.57 34.47 64.65 35.62L64.59 35.56L63.43 35.42L63.43 35.43Q62.79 35.32 62.22 35.32ZM68.45 38.20L68.53 38.28L68.55 38.30Q67.25 34.68 67.37 30.80L67.32 30.75L67.30 30.73Q67.70 19.25 77.06 10.99L77.03 10.95L77.15 11.08Q76.19 11.30 74.25 11.83L74.11 11.69L74.12 11.69Q75.15 10.94 77.06 9.15L76.95 9.05L76.96 9.05Q74.29 9.82 71.36 10.31L71.51 10.46L71.46 10.41Q64.02 17.59 62.11 27.06L62.12 27.07L62.10 27.05Q61.49 25.38 58.64 13.92L58.70 13.98L58.57 13.86Q58.12 13.89 57.17 13.89L57.28 14.01L56.90 12.87L56.86 12.83Q56.81 12.35 56.58 11.86L56.64 11.92L53.67 11.84L53.64 11.82Q52.97 14.42 51.69 19.54L51.53 19.37L51.59 19.43Q50.32 24.56 49.33 27.03L49.41 27.12L49.28 26.98Q47.71 19.09 42.15 12.77L42.24 12.87L42.25 12.88Q41.80 12.84 40.85 12.65L40.68 12.49L40.81 12.61Q40.15 11.84 38.59 10.20L38.45 10.06L38.54 10.15Q35.09 9.29 32.92 8.49L32.87 8.44L32.84 8.41Q38.68 13.26 41.95 19.47L41.93 19.45L41.84 19.36Q45.38 26.06 45.38 33.06L45.31 32.99L45.28 32.95Q45.37 34.61 45.18 36.21L45.10 36.13L45.10 36.13Q45.46 36.26 45.92 36.17L45.85 36.10L45.80 36.05Q46.39 36.08 46.61 36.08L46.52 35.98L46.45 36.95L46.61 37.10Q46.62 37.57 46.70 38.11L46.56 37.97L46.60 38.01Q47.80 37.99 50.08 37.84L49.95 37.71L50.04 37.79Q53.64 32.37 56.38 22.97L56.38 22.97L56.35 22.94Q59.23 31.84 62.20 35.80L62.21 35.80L62.12 35.71Q62.53 35.67 63.37 35.78L63.42 35.84L63.37 35.78Q64.30 36.90 65.36 37.97L65.41 38.01L65.35 37.96Q66.07 37.95 68.47 38.21Z"/><path fill="#333" d="M32.00 23.69L31.90 23.60L26.10 23.77L26.13 23.80Q23.08 23.72 20.15 23.65L20.27 23.77L20.30 23.79Q20.44 30.52 18.39 36.04L18.32 35.98L18.30 35.96Q16.56 36.54 14.81 37.23L14.68 37.09L14.72 37.13Q17.50 31.42 17.50 24.76L17.47 24.74L17.49 24.75Q17.54 16.32 13.43 9.28L13.47 9.31L13.29 9.13Q14.93 10.05 17.41 10.85L17.37 10.82L17.31 10.75Q19.49 15.86 20.02 20.74L20.11 20.83L20.00 20.72Q23.19 21.12 26.04 21.09L26.10 21.15L26.01 21.05Q28.84 21.22 32.15 20.95L32.04 20.84L32.11 20.91Q32.48 16.41 34.23 11.31L34.29 11.37L34.30 11.38Q36.29 11.01 38.54 10.17L38.40 10.03L38.38 10.01Q34.84 16.82 34.84 24.78L34.95 24.89L34.89 24.84Q34.92 31.07 37.28 36.40L37.24 36.35L37.21 36.33Q35.52 35.63 33.46 35.32L33.48 35.34L33.52 35.38Q31.97 30.48 32.08 23.78ZM33.28 35.75L33.19 35.66L33.21 35.68Q34.30 35.89 35.40 36.16L35.50 36.25L35.52 36.28Q35.79 36.92 36.43 38.41L36.44 38.42L36.46 38.44Q39.78 39.35 41.57 40.27L41.56 40.26L41.63 40.33Q37.07 34.06 36.77 25.80L36.75 25.78L36.78 25.81Q36.56 17.86 40.21 11.05L40.19 11.02L39.12 11.48L39.04 11.40Q38.50 11.58 37.89 11.73L38.07 11.91L38.01 11.85Q38.38 11.01 39.22 9.44L39.17 9.40L39.21 9.43Q36.53 10.45 33.90 10.94L34.02 11.06L34.01 11.05Q32.25 15.79 31.79 20.48L31.74 20.43L31.83 20.52Q29.37 20.76 26.93 20.76L26.83 20.66L26.83 20.66Q24.47 20.70 21.96 20.55L21.97 20.56L22.08 20.66Q21.76 17.30 20.65 13.22L20.71 13.28L20.75 13.32Q19.95 13.09 18.50 12.71L18.51 12.72L18.58 12.79Q18.22 11.59 17.76 10.56L17.78 10.58L17.59 10.39Q14.97 9.75 12.68 8.49L12.73 8.53L12.60 8.41Q17.32 15.98 17.32 24.77L17.25 24.71L17.13 24.59Q17.25 31.68 14.13 37.81L14.14 37.81L14.20 37.87Q14.77 37.45 16.10 36.88L16.10 36.88L16.17 36.95Q15.85 37.81 15.05 39.33L14.93 39.22L15.09 39.37Q17.78 38.25 20.02 37.84L20.16 37.97L20.02 37.83Q21.89 32.27 22.08 26.11L22.09 26.12L22.11 26.14Q23.79 26.15 26.99 26.11L27.02 26.14L26.94 26.06Q29.72 25.95 31.63 26.02L31.68 26.08L31.64 26.04Q31.96 31.84 33.30 35.76Z"/><path fill="#444" d="M85.10 34.85L85.16 34.90L83.26 34.94L83.14 34.83Q82.22 34.86 81.27 34.97L81.23 34.93L81.21 34.91Q81.81 28.73 81.81 24.74L81.82 24.75L81.84 24.77Q77.83 18.06 70.18 9.38L70.16 9.35L70.25 9.45Q71.96 10.35 75.31 11.15L75.38 11.23L75.39 11.24Q80.44 16.82 83.44 22.03L83.51 22.10L83.35 21.93Q86.52 16.54 90.90 11.52L90.74 11.35L90.78 11.40Q93.18 10.98 95.69 10.18L95.74 10.23L95.67 10.16Q89.60 16.23 84.72 24.64L84.83 24.75L84.86 24.78Q84.76 31.72 85.06 34.80ZM94.21 12.28L96.94 9.45L96.95 9.46Q93.79 10.57 90.67 11.02L90.71 11.07L90.74 11.09Q86.52 15.82 83.70 20.92L83.74 20.95L83.73 20.94Q81.55 17.25 78.35 13.36L78.24 13.25L78.35 13.36Q78.13 13.40 77.63 13.33L77.63 13.33L77.64 13.34Q76.78 12.36 75.26 10.69L75.37 10.80L75.27 10.69Q71.99 10.04 69.02 8.48L69.07 8.53L69.10 8.56Q76.82 17.04 81.58 24.96L81.49 24.88L81.53 24.92Q81.34 31.16 80.73 35.31L80.78 35.35L80.71 35.29Q81.60 35.42 83.05 35.30L83.06 35.31L82.98 36.26L83.01 36.29Q82.90 36.64 82.82 37.17L82.98 37.33L82.81 37.16Q86.43 37.24 88.18 37.43L88.16 37.40L88.24 37.49Q86.99 32.81 86.87 26.83L86.86 26.82L86.89 26.85Q91.26 18.39 97.81 11.04L97.82 11.05L94.14 12.21Z"/><path fill="#444" d="M138.28 35.26L138.33 35.31L138.23 35.21Q134.78 35.34 133.14 34.80L133.17 34.83L133.10 34.76Q131.13 34.12 130.82 30.73L130.94 30.85L132.37 29.77L132.37 29.77Q132.97 29.12 133.74 28.62L133.81 28.70L133.77 28.65Q133.45 30.50 135.05 31.72L135.15 31.83L135.16 31.83Q136.36 32.77 138.49 32.58L138.58 32.66L138.46 32.54Q142.98 32.27 142.79 28.73L142.81 28.74L142.65 28.59Q142.59 26.43 139.96 25.22L139.87 25.12L139.92 25.17Q137.13 24.17 134.77 22.95L134.71 22.89L134.83 23.01Q132.18 21.58 131.19 16.89L131.17 16.88L131.13 16.84Q131.15 16.52 131.03 15.75L130.91 15.63L131.01 15.73Q130.98 15.01 131.05 14.44L131.02 14.40L131.03 14.42Q131.11 12.75 132.37 12.29L132.41 12.33L132.39 12.31Q134.69 11.34 138.69 11.53L138.86 11.70L138.87 11.72Q140.65 11.77 141.45 11.85L141.33 11.73L141.38 11.79Q142.85 11.96 143.92 12.42L143.93 12.44L143.97 12.47Q146.09 12.95 146.32 15.43L146.20 15.31L146.34 15.45Q145.25 16.12 143.04 17.45L143.14 17.55L143.09 17.49Q142.55 14.36 138.17 14.36L138.21 14.40L138.25 14.44Q136.33 14.43 135.34 15.11L135.31 15.08L135.44 15.21Q134.16 15.60 134.38 17.39L134.35 17.36L134.34 17.35Q134.72 19.67 137.69 21.19L137.71 21.21L137.61 21.11Q138.13 21.33 142.63 22.97L142.74 23.08L142.63 22.97Q145.37 24.57 145.79 28.95L145.74 28.90L145.67 28.83Q145.80 29.11 145.88 30.37L145.72 30.21L145.76 30.25Q145.90 33.09 144.34 34.20L144.23 34.09L144.23 34.09Q142.47 35.15 138.29 35.26ZM140.55 37.61L140.51 37.56L140.51 37.56Q141.97 37.66 143.95 37.66L144.09 37.80L144.06 37.76Q146.16 37.77 147.42 37.35L147.29 37.23L147.42 37.35Q148.52 36.40 148.44 34.61L148.53 34.70L148.51 34.68Q148.46 33.67 148.08 31.62L148.02 31.56L148.02 31.56Q147.19 26.97 145.10 25.10L145.05 25.05L145.01 25.01Q144.32 23.52 142.99 22.80L142.97 22.78L137.66 20.70L137.60 20.64Q137.43 20.62 136.97 20.40L136.85 20.28L136.86 20.02L136.74 19.56L136.70 19.52Q136.59 18.15 137.73 17.54L137.72 17.53L137.68 17.49Q138.43 16.91 140.14 16.72L140.12 16.69L140.18 16.75Q141.41 16.73 142.56 17.19L142.43 17.06L142.48 17.11Q142.51 17.18 142.70 18.02L142.69 18.00L142.68 18.00Q142.85 17.83 143.35 17.60L143.45 17.70L143.35 17.60Q144.12 18.56 144.23 19.70L144.19 19.66L144.34 19.80Q144.34 19.69 147.99 17.11L148.06 17.17L148.08 17.19Q147.71 14.46 146.26 13.78L146.31 13.83L146.31 13.82Q145.62 12.45 144.18 11.92L144.17 11.91L144.24 11.98Q141.91 11.13 138.71 11.13L138.83 11.26L138.88 11.30Q133.80 11.13 131.93 11.82L132.08 11.97L131.99 11.88Q130.63 12.30 130.51 13.98L130.54 14.01L130.62 14.08Q130.48 14.51 130.90 16.72L130.87 16.69L131.03 16.86Q131.65 20.56 133.82 22.81L133.75 22.73L133.87 22.85Q134.63 24.53 136.14 25.21L136.15 25.23L136.00 25.08Q137.51 25.77 141.43 27.33L141.60 27.50L141.44 27.38L142.13 27.77L142.13 27.80L142.26 27.93Q142.27 28.21 142.31 28.55L142.44 28.69L142.44 28.68Q142.44 32.07 138.52 32.22L138.56 32.26L138.62 32.32Q137.28 32.16 135.98 31.78L136.14 31.94L135.99 31.79Q135.84 31.14 135.84 30.42L135.72 30.30L135.72 30.30Q135.82 30.13 135.86 29.87L135.91 29.92L135.77 29.78Q135.41 30.07 134.61 30.56L134.56 30.51L134.58 30.53Q134.17 29.51 134.32 28.14L134.22 28.04L134.28 28.10Q132.10 29.19 130.50 30.60L130.59 30.69L130.56 30.66Q130.62 31.48 130.70 32.51L130.65 32.46L130.72 32.53Q131.06 34.28 132.35 35.04L132.33 35.02L132.30 34.99Q133.62 36.92 136.17 37.30L136.03 37.16L136.02 37.14Q137.65 37.44 140.58 37.63Z"/></svg>