<svg xmlns="http://www.w3.org/2000/svg" width="200" height="40" viewBox="0,0,200,40"><path d="M20 24 C89 36,85 31,195 36" stroke="#888" fill="none"/><path d="M10 15 C115 31,85 32,192 7" stroke="#444" fill="none"/><path fill="#333" d="M107.61 35.41L107.62 35.41L107.56 35.36Q103.61 35.71 102.62 33.38L102.49 33.26L102.43 33.19Q103.22 32.27 104.78 30.48L104.81 30.51L104.81 30.51Q105.28 32.51 108.29 32.62L108.44 32.77L108.44 32.77Q111.67 32.69 113.31 31.36L113.35 31.40L113.44 31.49Q114.84 29.88 114.76 27.18L114.60 27.02L114.79 27.20Q114.56 22.06 109.76 22.29L109.85 22.38L109.75 22.28Q106.99 22.49 105.24 23.74L105.12 23.63L104.91 23.57L104.59 23.33L104.67 23.41Q104.91 20.14 104.79 17.40L104.92 17.53L104.88 17.49Q104.68 14.78 104.34 11.46L104.49 11.61L104.42 11.54Q108.05 12.47 111.86 12.36L111.89 12.39L111.89 12.39Q115.75 12.36 119.33 11.11L119.18 10.96L118.62 12.50L118.65 12.52Q118.43 13.37 118.24 14.21L118.16 14.13L118.17 14.14Q115.14 15.26 111.26 15.26L111.10 15.11L111.21 15.21Q109.80 15.25 108.31 15.09L108.27 15.05L108.21 14.99Q108.15 15.69 107.80 20.14L107.75 20.09L107.79 20.13Q108.76 19.80 110.81 19.65L110.68 19.52L110.82 19.65Q114.51 19.84 115.96 21.52L115.98 21.54L115.94 21.51Q117.21 22.92 117.47 26.77L117.49 26.78L117.47 26.77Q117.91 31.13 116.70 33.15L116.65 33.10L116.51 32.96Q114.51 34.88 111.20 35.11L111.38 35.29L111.28 35.19Q110.33 35.31 107.67 35.47ZM113.72 37.75L113.61 37.64L113.73 37.75Q117.14 37.82 119.04 36.71L118.99 36.66L118.89 36.55Q119.86 35.02 119.86 32.93L119.94 33.00L119.89 32.95Q119.88 29.86 118.92 25.74L119.01 25.83L118.92 25.74Q118.57 24.01 117.35 22.61L117.44 22.69L117.41 22.71L117.29 22.51L116.86 22.23L116.88 22.25Q116.53 21.49 115.88 20.80L116.02 20.93L115.94 20.90L115.87 20.83Q114.31 19.11 110.61 19.11L110.76 19.25L110.44 19.20L110.41 19.17Q110.51 18.62 110.70 17.52L110.77 17.59L110.79 17.61Q115.71 17.66 119.74 16.02L119.82 16.10L119.67 15.94Q120.07 14.52 121.03 11.70L121.02 11.69L118.92 12.64L119.06 12.79Q119.42 11.62 119.91 10.48L119.97 10.53L119.88 10.44Q115.98 11.83 111.87 11.91L111.98 12.02L112.02 12.06Q107.76 12.03 103.80 10.93L103.79 10.91L103.76 10.88Q104.52 15.38 104.52 19.79L104.46 19.73L104.63 19.90Q104.45 21.62 104.33 23.52L104.52 23.71L104.49 23.68Q104.60 23.71 105.17 24.02L105.20 24.05L105.29 24.14Q105.68 23.95 106.32 23.61L106.19 23.48L106.27 23.56Q106.13 24.22 105.90 25.74L106.04 25.88L106.03 25.87Q106.39 26.00 106.80 26.22L106.82 26.24L106.83 26.25Q109.62 24.51 111.48 24.51L111.55 24.57L111.41 24.43Q112.80 24.49 113.98 25.14L114.04 25.20L114.06 25.22Q114.28 26.13 114.32 27.08L114.41 27.17L114.41 27.17Q114.38 29.65 113.35 30.76L113.35 30.75L113.32 30.72Q111.98 31.97 109.73 32.20L109.87 32.34L109.84 32.30Q108.91 32.41 108.23 32.33L108.25 32.35L108.06 32.16Q107.30 32.13 106.54 31.79L106.47 31.72L106.57 31.62L106.36 31.64L106.32 31.60Q105.70 31.28 105.16 29.95L105.17 29.96L105.09 29.88Q103.64 31.17 101.97 33.30L102.03 33.36L102.06 33.39Q102.44 34.12 103.28 35.07L103.16 34.95L103.11 34.91Q104.25 36.81 107.07 37.30L107.11 37.34L107.16 37.39Q108.26 37.54 113.63 37.66Z"/><path fill="#222" d="M51.15 24.71L51.14 24.70L51.05 24.60Q51.00 28.81 50.27 32.96L50.40 33.09L50.42 33.11Q52.63 32.50 55.71 32.39L55.69 32.37L55.63 32.31Q57.00 32.53 58.06 31.52L58.05 31.51L58.12 31.58Q59.16 30.55 59.16 29.22L59.25 29.30L59.23 29.28Q59.26 29.01 59.22 28.74L59.19 28.71L59.04 28.56Q59.01 25.75 56.77 24.92L56.73 24.88L56.70 24.85Q56.02 24.62 55.33 24.70L55.31 24.67L55.34 24.71Q54.21 24.57 53.18 24.60L53.15 24.57L53.27 24.69Q52.06 24.59 51.03 24.59ZM49.80 14.14L49.96 14.30L49.90 14.25Q50.82 17.60 51.09 21.98L50.99 21.88L51.08 21.97Q52.50 22.06 55.16 22.10L55.13 22.06L55.20 22.13Q58.10 22.13 58.44 18.59L58.43 18.59L58.49 18.64Q58.64 16.66 57.23 15.82L57.26 15.85L57.25 15.84Q56.27 15.25 51.85 14.60L51.84 14.58L51.83 14.58Q50.71 14.37 49.80 14.14ZM46.21 37.08L46.27 37.15L46.21 37.08Q48.60 30.34 48.33 22.95L48.46 23.08L48.35 22.97Q48.21 15.82 45.28 9.35L45.23 9.30L45.23 9.30Q49.06 11.88 55.28 12.13L55.18 12.02L55.15 11.99Q61.45 12.32 61.79 15.21L61.71 15.13L61.71 15.13Q62.08 17.93 60.67 20.59L60.75 20.67L60.77 20.70Q59.96 22.13 58.36 22.82L58.43 22.88L58.45 22.90Q62.01 23.50 62.24 28.87L62.21 28.84L62.32 28.95Q62.26 29.92 62.19 31.33L62.18 31.31L62.25 31.39Q62.11 32.62 61.18 33.56L61.32 33.70L61.32 33.70Q60.41 34.65 59.08 34.81L59.04 34.77L58.98 34.70Q57.54 34.82 56.47 34.82L56.48 34.83L56.55 34.90Q50.76 34.82 46.23 37.10ZM58.97 37.36L59.10 37.49L58.96 37.35Q60.04 37.56 61.91 37.67L61.79 37.55L61.85 37.61Q63.26 37.66 64.37 36.78L64.35 36.76L64.27 36.68Q65.05 35.75 64.93 34.19L64.97 34.22L64.98 34.24Q65.00 33.38 64.28 29.91L64.31 29.94L64.19 29.83Q63.49 26.57 61.62 25.09L61.67 25.14L61.23 24.28L61.33 24.38Q62.97 22.93 63.54 19.16L63.55 19.18L63.55 19.17Q63.60 17.93 63.52 16.52L63.54 16.54L63.57 16.57Q63.52 15.26 62.41 14.42L62.36 14.36L62.36 14.37Q62.01 14.14 61.90 14.10L61.91 14.10L62.01 14.21Q61.82 13.76 60.99 12.96L60.89 12.86L60.99 12.96Q59.43 11.85 55.20 11.66L55.15 11.61L55.10 11.57Q48.60 11.42 44.60 8.53L44.59 8.51L44.53 8.45Q47.77 15.42 48.07 22.96L48.16 23.05L48.22 23.11Q48.53 30.91 45.71 37.84L45.72 37.85L47.79 36.92L47.64 36.77Q47.24 37.89 46.74 39.03L46.88 39.16L46.81 39.09Q51.12 37.23 56.14 37.23L56.20 37.29L56.16 37.25Q57.49 37.17 58.93 37.32ZM56.79 26.77L56.83 26.80L56.79 26.76Q57.52 26.70 58.44 27.16L58.55 27.27L58.49 27.21Q58.72 27.67 58.87 28.73L58.80 28.66L58.83 28.69Q58.93 29.97 58.00 31.02L58.00 31.02L58.00 31.02Q57.17 32.17 55.76 32.06L55.64 31.94L54.19 32.08L54.26 32.16Q53.45 32.14 52.72 32.26L52.65 32.18L52.76 32.29Q53.11 30.51 53.19 27.05L53.04 26.90L53.11 26.97Q53.79 26.92 55.04 26.89L54.96 26.81L55.06 26.90Q56.19 26.73 56.80 26.77ZM55.77 17.18L55.86 17.27L56.15 17.18L56.18 17.21Q56.43 17.23 56.62 17.27L56.67 17.32L57.09 17.36L57.37 17.45L58.08 17.62L58.01 17.55Q58.06 17.76 58.06 18.06L57.96 17.96L58.00 18.53L58.00 18.54Q58.05 19.84 57.17 20.77L57.21 20.81L57.16 20.76Q56.24 21.65 55.02 21.65L55.06 21.69L55.17 21.80Q53.98 21.63 53.98 21.63L54.08 21.73L54.12 21.78Q52.67 21.62 53.02 21.62L52.98 21.58L53.04 21.65Q52.93 20.05 52.63 17.01L52.81 17.19L52.78 17.16Q54.37 17.30 55.89 17.30Z"/><path fill="#222" d="M135.25 35.37L135.24 35.36L135.24 35.36Q133.89 35.50 132.33 35.08L132.18 34.93L132.25 35.00Q131.12 34.17 130.96 32.53L130.84 32.41L130.88 32.44Q130.87 32.29 131.06 29.66L131.06 29.66L131.01 29.60Q132.14 29.52 134.16 29.14L134.18 29.16L133.98 29.91L133.84 29.77Q133.64 31.59 135.05 32.16L134.98 32.09L135.12 32.23Q135.81 32.47 137.91 32.47L137.96 32.52L137.85 32.41Q139.45 32.26 139.64 32.18L139.79 32.34L139.62 32.16Q140.57 32.04 141.29 31.55L141.38 31.64L141.35 31.61Q142.76 30.66 142.57 28.57L142.63 28.62L142.63 28.63Q142.30 26.05 140.57 24.49L140.58 24.50L140.58 24.50Q138.90 23.00 136.43 23.00L136.49 23.06L136.41 22.75L136.47 22.81Q136.73 22.65 137.61 22.57L137.67 22.63L137.67 22.64Q139.52 22.47 140.89 21.23L140.92 21.26L141.07 21.41Q142.38 20.11 142.53 18.24L142.57 18.29L142.57 18.29Q142.50 17.80 142.50 17.45L142.57 17.52L142.53 17.48Q142.58 16.02 141.21 15.10L141.25 15.14L141.19 15.08Q139.91 14.22 138.31 14.33L138.48 14.50L138.29 14.31Q137.03 14.19 135.81 14.61L135.97 14.77L135.93 14.73Q134.35 15.13 134.05 16.28L134.14 16.37L134.07 16.30Q133.99 17.17 134.07 17.93L133.93 17.79L134.09 17.96Q133.04 17.70 130.98 16.98L130.88 16.87L130.97 16.97Q130.78 15.33 130.82 14.49L130.79 14.47L130.66 14.33Q130.86 12.89 131.92 12.21L131.86 12.14L131.82 12.10Q133.38 11.64 134.98 11.64L134.89 11.56L134.98 11.64Q138.15 11.62 141.31 11.89L141.25 11.83L141.33 11.91Q146.30 12.23 145.99 16.00L145.90 15.91L146.02 16.03Q145.95 17.51 145.45 19.07L145.45 19.07L145.50 19.12Q144.55 22.17 142.19 23.08L142.25 23.15L142.18 23.07Q144.78 23.58 145.39 26.93L145.48 27.02L145.44 26.98Q145.71 28.17 145.79 30.19L145.71 30.11L145.67 30.07Q145.93 34.63 141.32 35.08L141.20 34.96L141.28 35.04Q140.50 35.07 135.21 35.33ZM140.41 37.56L140.46 37.61L140.49 37.64Q141.04 37.62 143.90 37.70L143.93 37.73L143.84 37.64Q145.66 37.78 147.30 37.14L147.32 37.16L147.38 37.22Q148.40 36.11 148.21 34.36L148.36 34.50L148.36 34.51Q148.23 33.16 147.93 31.41L147.96 31.44L147.95 31.43Q147.15 26.86 145.21 25.23L145.13 25.15L145.06 24.88L145.01 24.80L145.01 24.80Q146.81 23.41 147.58 19.03L147.42 18.88L147.39 18.84Q147.52 18.48 147.63 17.53L147.66 17.56L147.61 17.50Q147.63 16.68 147.55 16.00L147.64 16.08L147.62 16.06Q147.57 14.49 146.28 13.81L146.20 13.73L146.11 13.72L146.21 13.82Q145.77 12.69 144.63 12.16L144.73 12.27L144.57 12.10Q143.10 11.47 137.96 11.17L137.91 11.12L138.04 11.25Q136.39 11.19 134.79 11.19L134.71 11.11L134.79 11.20Q133.10 11.10 131.58 11.75L131.70 11.87L131.52 11.69Q130.43 12.58 130.43 14.33L130.37 14.27L130.42 14.32Q130.40 13.89 130.67 17.24L130.73 17.29L130.63 17.20Q131.01 17.35 132.65 17.96L132.67 17.98L132.62 17.93Q132.63 18.47 132.59 18.97L132.52 18.90L132.63 19.01Q132.65 19.52 132.69 20.06L132.55 19.91L132.62 19.98Q134.29 20.25 136.31 20.36L136.37 20.43L136.42 20.47Q136.39 18.50 137.49 17.66L137.36 17.53L137.49 17.66Q138.25 16.94 140.27 16.71L140.29 16.73L140.34 16.78Q141.35 16.65 141.92 16.84L142.10 17.01L141.92 16.83Q142.11 17.10 142.15 17.22L142.10 17.17L142.14 17.40L142.21 17.93L142.17 17.89Q142.22 18.13 142.18 18.28L142.10 18.20L142.22 18.32Q142.03 19.92 140.51 21.10L140.53 21.12L140.55 21.13Q139.67 22.09 137.66 22.28L137.71 22.34L137.54 22.17Q136.90 22.40 136.03 22.40L135.97 22.35L135.95 22.33Q136.04 22.72 136.19 23.41L136.24 23.45L136.12 23.33Q137.91 23.37 139.36 24.10L139.32 24.06L139.26 24.11L137.82 24.42L137.75 24.36Q137.83 24.74 137.95 25.35L137.86 25.26L137.91 25.32Q140.07 25.26 141.78 26.60L141.75 26.57L141.80 26.62Q141.99 26.96 142.30 28.60L142.20 28.50L142.31 28.61Q142.55 31.59 139.62 32.01L139.47 31.86L139.46 31.85Q137.51 32.26 136.94 32.22L136.95 32.24L136.91 32.19Q136.49 32.12 135.96 32.04L135.95 32.04L135.84 31.46L135.94 31.00L136.10 30.73L136.14 30.44L136.04 30.34Q135.19 30.51 134.39 30.70L134.38 30.70L134.31 30.62Q134.26 30.38 134.26 30.19L134.21 30.14L134.32 30.26Q134.34 30.05 134.34 29.82L134.22 29.69L134.24 29.72Q134.43 29.45 134.59 28.73L134.55 28.69L134.59 28.73Q132.62 28.85 130.75 29.19L130.71 29.15L130.73 29.18Q130.83 29.77 130.71 30.89L130.66 30.84L130.62 30.80Q130.51 31.93 130.51 32.54L130.62 32.65L130.63 32.65Q130.71 34.71 132.08 35.47L132.05 35.44L132.08 35.47Q133.41 37.60 138.13 37.41L138.13 37.41L138.22 37.50Q138.91 37.43 140.43 37.58Z"/><path fill="#333" d="M78.65 35.34L78.65 35.34L78.62 35.31Q77.33 35.50 75.77 35.08L75.68 35.00L75.61 34.93Q74.47 34.09 74.31 32.45L74.22 32.36L74.34 32.47Q74.19 32.18 74.38 29.55L74.51 29.67L74.52 29.69Q75.56 29.51 77.57 29.12L77.49 29.04L77.35 29.85L77.24 29.74Q76.96 31.49 78.37 32.06L78.50 32.18L78.47 32.15Q79.27 32.49 81.36 32.49L81.30 32.43L81.34 32.47Q82.95 32.33 83.14 32.25L83.08 32.19L83.22 32.33Q84.13 32.18 84.85 31.68L84.69 31.52L84.79 31.62Q86.27 30.74 86.08 28.65L86.06 28.63L86.04 28.61Q85.91 26.23 84.18 24.67L84.07 24.56L84.12 24.61Q82.31 22.98 79.84 22.98L79.78 22.92L79.83 22.74L79.81 22.72Q80.27 22.76 81.14 22.68L81.09 22.63L81.09 22.63Q83.13 22.65 84.50 21.41L84.42 21.33L84.30 21.22Q85.82 20.13 85.97 18.26L85.93 18.22L85.98 18.27Q85.95 17.82 85.95 17.47L85.93 17.46L86.01 17.54Q86.09 16.10 84.72 15.18L84.58 15.04L84.72 15.18Q83.34 14.22 81.75 14.34L81.84 14.43L81.75 14.35Q80.51 14.25 79.30 14.67L79.37 14.74L79.40 14.77Q77.77 15.12 77.47 16.26L77.56 16.36L77.50 16.29Q77.38 17.13 77.46 17.89L77.44 17.87L77.46 17.90Q76.46 17.69 74.40 16.97L74.40 16.97L74.45 17.01Q74.06 15.18 74.10 14.34L74.21 14.45L74.14 14.39Q74.18 12.79 75.25 12.11L75.39 12.25L75.36 12.22Q76.78 11.61 78.37 11.61L78.34 11.58L78.43 11.67Q81.57 11.62 84.73 11.88L84.63 11.78L84.62 11.77Q89.72 12.22 89.41 15.99L89.36 15.93L89.39 15.97Q89.38 17.52 88.89 19.08L88.93 19.12L88.80 18.99Q87.89 22.08 85.53 23.00L85.49 22.96L85.60 23.07Q88.27 23.64 88.88 26.99L88.89 27.00L88.82 26.94Q89.12 28.15 89.20 30.17L89.03 29.99L89.14 30.11Q89.28 34.55 84.68 35.01L84.59 34.92L84.65 34.98Q83.93 35.06 78.63 35.32ZM83.86 37.58L83.80 37.52L83.77 37.49Q84.40 37.55 87.25 37.62L87.23 37.60L87.31 37.68Q89.05 37.75 90.69 37.10L90.74 37.15L90.77 37.18Q91.96 36.24 91.77 34.49L91.80 34.51L91.61 34.33Q91.53 33.03 91.23 31.28L91.36 31.41L91.25 31.30Q90.53 26.81 88.59 25.17L88.64 25.23L88.36 24.75L88.34 24.71L88.48 24.84Q90.11 23.27 90.87 18.89L90.86 18.88L91.00 19.02Q91.04 18.57 91.16 17.62L91.11 17.57L91.03 17.49Q91.09 16.71 91.01 16.03L91.04 16.05L90.99 16.00Q90.83 14.33 89.54 13.64L89.70 13.80L89.53 13.71L89.51 13.69Q89.24 12.73 88.10 12.20L88.02 12.12L88.15 12.26Q86.54 11.48 81.41 11.18L81.51 11.29L81.50 11.28Q79.69 11.06 78.09 11.06L78.08 11.05L78.07 11.04Q76.54 11.11 75.02 11.76L75.05 11.79L75.11 11.86Q73.72 12.44 73.72 14.19L73.83 14.30L73.81 14.28Q73.82 13.87 74.09 17.22L74.08 17.22L74.03 17.16Q74.32 17.23 75.96 17.84L76.09 17.97L75.99 17.88Q75.95 18.37 75.92 18.86L76.03 18.97L75.96 18.91Q75.98 19.42 76.02 19.96L76.09 20.02L76.06 19.99Q77.87 20.40 79.89 20.51L79.91 20.53L79.78 20.41Q79.81 18.50 80.92 17.66L80.92 17.67L80.86 17.60Q81.66 16.91 83.67 16.68L83.64 16.65L83.65 16.66Q84.96 16.82 85.53 17.02L85.40 16.89L85.41 16.90Q85.42 16.98 85.46 17.10L85.47 17.11L85.41 17.24L85.57 17.86L85.54 17.83Q85.58 18.06 85.54 18.21L85.49 18.16L85.55 18.22Q85.47 19.92 83.94 21.10L83.99 21.15L83.96 21.12Q82.98 21.96 80.96 22.15L80.98 22.18L81.06 22.25Q80.42 22.49 79.54 22.49L79.43 22.38L79.53 22.47Q79.57 22.82 79.72 23.50L79.56 23.34L79.72 23.50Q81.49 23.52 82.94 24.25L82.91 24.22L82.65 24.07L81.14 24.32L81.14 24.31Q81.21 24.69 81.32 25.30L81.30 25.28L81.37 25.35Q83.52 25.28 85.23 26.62L85.22 26.60L85.26 26.64Q85.41 26.95 85.72 28.59L85.74 28.61L85.71 28.58Q85.93 31.54 83.00 31.96L82.99 31.95L82.96 31.92Q80.93 32.25 80.36 32.22L80.26 32.12L80.22 32.07Q79.84 32.04 79.31 31.96L79.24 31.89L79.29 31.49L79.41 31.04L79.36 30.57L79.54 30.41L79.48 30.35Q78.45 30.34 77.65 30.53L77.76 30.64L77.73 30.61Q77.63 30.33 77.63 30.14L77.77 30.27L77.63 30.14Q77.70 29.98 77.70 29.75L77.72 29.77L77.71 29.76Q77.73 29.31 77.88 28.59L77.84 28.56L78.01 28.72Q75.98 28.78 74.11 29.13L74.11 29.13L74.19 29.21Q74.30 29.80 74.18 30.93L74.10 30.85L74.15 30.89Q73.97 31.95 73.97 32.56L73.95 32.55L74.06 32.66Q74.10 34.67 75.47 35.43L75.37 35.34L75.40 35.36Q76.99 37.75 81.71 37.56L81.71 37.57L81.65 37.50Q82.44 37.54 83.97 37.69Z"/><path fill="#444" d="M167.76 25.47L167.78 25.49L167.64 25.35Q164.19 31.72 160.77 35.68L160.78 35.69L160.73 35.64Q158.96 36.16 156.53 37.04L156.48 36.99L156.55 37.07Q161.51 31.52 166.27 23.11L166.09 22.92L166.18 23.01Q161.61 16.08 155.63 9.69L155.58 9.64L155.58 9.64Q158.55 10.89 160.84 11.39L160.87 11.42L160.74 11.29Q165.44 16.56 167.88 20.52L167.94 20.59L167.80 20.45Q170.39 16.10 174.31 11.69L174.29 11.67L174.25 11.63Q175.97 11.44 179.16 10.68L179.05 10.57L179.17 10.69Q172.93 16.98 169.47 22.91L169.61 23.06L169.59 23.04Q174.70 31.64 179.07 36.21L179.18 36.32L179.02 36.16Q176.60 35.53 174.51 35.30L174.46 35.26L174.41 35.21Q171.63 32.23 167.71 25.41ZM174.35 35.56L174.26 35.48L174.41 35.63Q174.75 35.70 175.21 35.81L175.17 35.77L175.16 35.76Q175.93 36.50 177.45 38.09L177.44 38.08L177.44 38.09Q180.78 38.87 183.83 40.24L183.81 40.23L183.74 40.16Q176.67 33.61 171.56 24.86L171.54 24.83L171.61 24.90Q175.27 18.17 181.17 11.32L181.28 11.42L181.19 11.34Q179.85 12.09 177.68 12.63L177.65 12.59L177.57 12.51Q178.51 11.66 180.26 9.87L180.29 9.91L180.34 9.95Q177.95 10.83 174.25 11.41L174.12 11.27L174.20 11.35Q170.84 15.23 168.25 19.53L168.16 19.44L168.24 19.52Q167.23 17.82 166.05 16.33L166.13 16.42L163.86 13.50L163.41 13.43L163.41 13.43Q163.32 13.49 163.09 13.41L163.11 13.44L163.11 13.43Q162.31 12.48 160.83 10.92L160.94 11.03L160.90 11.00Q156.96 9.99 154.37 8.62L154.51 8.76L154.53 8.78Q161.21 15.99 165.78 23.03L165.69 22.94L165.77 23.02Q161.23 31.16 155.49 37.75L155.49 37.76L155.61 37.88Q156.82 37.11 158.96 36.54L158.88 36.46L157.74 38.06L157.72 38.04Q157.74 38.06 156.41 39.40L156.26 39.24L156.41 39.40Q159.27 38.19 162.43 37.69L162.62 37.88L162.61 37.87Q166.47 33.20 169.06 28.44L169.11 28.49L169.01 28.39Q171.62 32.68 174.32 35.54Z"/><path fill="#333" d="M27.01 35.13L26.91 35.03L24.86 35.26L24.97 35.38Q24.49 35.36 23.52 35.41L23.50 35.40L23.45 35.34Q22.47 35.39 21.98 35.39L22.05 35.46L21.91 35.32Q20.27 35.32 19.24 34.48L19.30 34.54L19.42 34.66Q20.05 33.38 21.68 31.25L21.78 31.34L21.74 31.31Q23.12 32.99 25.33 32.76L25.32 32.75L25.30 32.74Q26.25 32.66 26.90 32.01L26.77 31.88L26.88 32.00Q27.51 31.33 27.40 30.46L27.32 30.38L27.42 30.48Q27.21 25.78 27.29 21.21L27.30 21.22L27.28 21.21Q27.38 16.66 27.91 12.05L27.81 11.95L27.77 11.91Q29.77 11.77 31.90 10.75L31.89 10.74L31.92 10.77Q30.08 17.53 30.08 24.76L30.02 24.71L30.16 24.84Q30.01 28.23 30.46 31.73L30.53 31.80L30.44 31.71Q30.51 32.05 30.51 32.39L30.53 32.41L30.58 32.46Q30.67 33.12 30.45 33.66L30.35 33.56L30.31 33.52Q29.78 34.82 26.97 35.09ZM31.98 38.01L31.90 37.93L32.26 37.95L32.48 37.75L32.86 37.75L32.83 37.72Q33.14 37.45 33.21 37.34L33.14 37.26L33.11 37.24Q33.37 36.12 33.10 35.13L33.15 35.18L33.13 35.16Q31.78 29.36 32.05 23.00L32.10 23.05L31.97 22.92Q32.34 16.93 34.13 11.03L34.15 11.05L34.03 10.94Q33.29 11.71 32.03 12.44L32.00 12.41L32.00 12.41Q32.18 11.64 32.60 10.12L32.46 9.97L32.47 9.99Q29.98 11.34 27.32 11.65L27.28 11.61L27.28 11.61Q27.00 16.09 26.93 21.04L26.89 21.00L27.02 21.13Q26.81 26.90 26.89 30.33L26.94 30.38L27.00 30.44Q26.93 32.08 25.18 32.24L25.23 32.28L25.31 32.37Q23.53 32.41 21.85 30.77L21.79 30.71L21.91 30.83Q19.79 33.28 18.84 34.85L18.93 34.93L18.82 34.82Q19.50 35.50 20.53 35.73L20.58 35.78L20.61 35.81Q20.35 35.78 20.08 36.01L20.13 36.06L20.13 36.06Q21.56 37.00 23.54 37.26L23.59 37.31L23.58 37.30Q24.00 37.38 27.30 37.68L27.34 37.72L27.25 37.64Q30.58 37.97 31.95 37.97Z"/></svg>