<svg xmlns="http://www.w3.org/2000/svg" width="200" height="40" viewBox="0,0,200,40"><path fill="#111" d="M106.84 35.24L106.85 35.26L107.03 35.43Q105.43 35.32 103.87 34.90L104.02 35.05L103.95 34.98Q102.77 34.10 102.61 32.47L102.69 32.55L102.61 32.46Q102.56 32.26 102.75 29.63L102.77 29.65L102.85 29.73Q103.87 29.53 105.88 29.15L105.75 29.02L105.61 29.83L105.67 29.89Q105.25 31.48 106.66 32.05L106.78 32.18L106.76 32.16Q107.51 32.45 109.60 32.45L109.66 32.51L109.67 32.52Q111.28 32.38 111.48 32.30L111.40 32.23L111.40 32.22Q112.28 32.05 113.01 31.55L113.02 31.57L113.07 31.61Q114.55 30.73 114.36 28.64L114.22 28.50L114.27 28.55Q114.17 26.21 112.44 24.65L112.34 24.55L112.41 24.61Q110.57 22.94 108.09 22.94L108.18 23.04L108.24 22.86L108.22 22.85Q108.44 22.65 109.32 22.57L109.36 22.62L109.38 22.63Q111.40 22.64 112.77 21.40L112.63 21.26L112.75 21.37Q114.16 20.18 114.31 18.31L114.20 18.20L114.28 18.28Q114.21 17.79 114.21 17.45L114.23 17.47L114.23 17.47Q114.28 16.00 112.91 15.09L112.97 15.14L112.88 15.05Q111.71 14.31 110.11 14.42L110.03 14.33L110.18 14.49Q108.82 14.26 107.60 14.68L107.54 14.63L107.55 14.63Q106.05 15.12 105.75 16.26L105.91 16.42L105.81 16.32Q105.59 17.05 105.66 17.81L105.65 17.80L105.81 17.96Q104.70 17.65 102.64 16.93L102.74 17.02L102.57 16.86Q102.33 15.16 102.37 14.32L102.47 14.43L102.37 14.32Q102.51 12.83 103.58 12.15L103.59 12.17L103.69 12.26Q105.04 11.59 106.64 11.59L106.71 11.66L106.57 11.52Q109.73 11.49 112.89 11.75L113.04 11.90L112.87 11.74Q117.99 12.21 117.69 15.98L117.76 16.05L117.75 16.04Q117.67 17.52 117.17 19.08L117.08 18.99L117.17 19.08Q116.15 22.05 113.79 22.97L113.85 23.03L113.82 23.00Q116.49 23.57 117.10 26.92L117.12 26.95L117.15 26.98Q117.30 28.04 117.37 30.06L117.49 30.18L117.31 29.99Q117.51 34.49 112.90 34.95L113.03 35.08L112.90 34.95Q112.13 34.98 106.84 35.24ZM112.06 37.49L112.21 37.65L112.07 37.51Q112.69 37.55 115.54 37.63L115.67 37.75L115.61 37.69Q117.46 37.87 119.10 37.22L119.05 37.18L119.04 37.17Q120.15 36.15 119.96 34.40L120.07 34.51L119.96 34.40Q119.82 33.04 119.52 31.29L119.59 31.35L119.61 31.38Q118.78 26.78 116.84 25.15L116.83 25.14L116.74 24.86L116.74 24.81L116.61 24.68Q118.53 23.41 119.29 19.03L119.17 18.91L119.19 18.93Q119.20 18.44 119.31 17.49L119.26 17.44L119.44 17.61Q119.49 16.83 119.41 16.14L119.35 16.08L119.25 15.98Q119.17 14.38 117.88 13.69L117.85 13.67L117.81 13.70L117.74 13.63Q117.61 12.82 116.47 12.29L116.37 12.18L116.39 12.21Q114.82 11.48 109.68 11.17L109.67 11.16L109.68 11.17Q108.10 11.19 106.50 11.19L106.44 11.13L106.43 11.12Q104.94 11.23 103.42 11.87L103.39 11.84L103.23 11.68Q102.03 12.47 102.03 14.22L102.05 14.23L102.03 14.22Q102.07 13.84 102.34 17.19L102.39 17.24L102.36 17.21Q102.62 17.24 104.25 17.85L104.37 17.96L104.29 17.88Q104.37 18.50 104.33 18.99L104.18 18.84L104.20 18.86Q104.25 19.41 104.29 19.94L104.32 19.97L104.32 19.97Q106.01 20.25 108.03 20.37L108.17 20.51L108.05 20.39Q108.14 18.53 109.24 17.70L109.16 17.62L109.16 17.62Q109.89 16.86 111.91 16.63L112.04 16.77L112.00 16.73Q113.23 16.81 113.80 17.00L113.80 17.01L113.62 16.82Q113.74 17.02 113.78 17.13L113.84 17.19L113.76 17.31L113.83 17.83L113.90 17.90Q113.82 18.01 113.78 18.16L113.84 18.22L113.91 18.30Q113.81 19.98 112.29 21.16L112.24 21.11L112.19 21.07Q111.31 22.01 109.29 22.20L109.29 22.20L109.30 22.21Q108.63 22.41 107.75 22.41L107.83 22.49L107.83 22.49Q107.69 22.65 107.84 23.34L107.90 23.40L108.02 23.52Q109.76 23.51 111.21 24.23L111.20 24.22L110.94 24.08L109.52 24.41L109.55 24.44Q109.49 24.68 109.60 25.29L109.69 25.38L109.70 25.39Q111.70 25.18 113.41 26.51L113.42 26.52L113.46 26.56Q113.63 26.89 113.94 28.52L113.98 28.56L113.89 28.47Q114.24 31.56 111.30 31.98L111.19 31.87L111.21 31.88Q109.08 32.12 108.51 32.08L108.54 32.11L108.51 32.08Q108.05 31.96 107.52 31.89L107.57 31.94L107.51 31.43L107.67 31.01L107.82 30.74L107.77 30.35L107.83 30.41Q106.77 30.38 105.98 30.57L106.08 30.68L106.05 30.64Q105.96 30.37 105.96 30.18L106.00 30.22L105.98 30.20Q105.96 29.95 105.96 29.72L106.00 29.76L105.97 29.73Q106.10 29.40 106.25 28.68L106.25 28.68L106.13 28.56Q104.39 28.92 102.53 29.26L102.46 29.19L102.52 29.25Q102.42 29.64 102.30 30.77L102.43 30.89L102.35 30.81Q102.26 31.96 102.26 32.57L102.17 32.48L102.22 32.53Q102.33 34.62 103.70 35.38L103.72 35.40L103.63 35.31Q105.28 37.76 110.00 37.56L109.86 37.43L109.95 37.52Q110.64 37.45 112.16 37.60Z"/><path fill="#222" d="M142.42 22.24L142.27 22.10L142.41 22.24Q143.20 22.23 144.61 22.08L144.61 22.08L144.57 22.04Q144.45 22.60 144.45 23.25L144.58 23.38L144.56 24.61L144.51 24.57Q143.67 24.56 142.83 24.64L142.93 24.74L142.84 24.65Q141.92 24.60 141.08 24.56L141.10 24.59L141.22 24.70Q138.22 30.72 134.79 35.33L134.82 35.35L134.87 35.41Q132.35 36.05 131.06 36.66L131.15 36.75L131.02 36.62Q135.13 30.91 138.18 24.63L138.15 24.60L135.61 24.69L135.55 24.63Q135.70 23.45 135.59 22.12L135.50 22.02L135.47 22.00Q137.47 22.25 139.53 22.25L139.46 22.18L141.42 18.55L141.43 18.55Q142.26 16.49 143.48 14.89L143.65 15.06L143.48 14.89Q141.99 15.12 140.39 15.12L140.32 15.05L140.31 15.04Q134.23 15.05 130.46 12.84L130.50 12.88L129.85 11.16L129.96 11.28Q129.54 10.36 129.16 9.48L129.24 9.57L129.07 9.39Q133.60 12.21 139.31 12.44L139.28 12.40L139.29 12.42Q144.28 12.49 149.41 10.51L149.57 10.66L149.55 10.65Q149.37 11.08 148.88 11.95L148.82 11.89L148.72 11.79Q145.13 16.58 142.27 22.10ZM150.35 13.20L150.51 13.36L151.31 11.16L151.34 11.18Q150.37 11.66 148.70 12.38L148.77 12.46L149.05 12.24L148.97 12.17Q149.06 11.99 149.18 11.87L149.16 11.86L149.12 11.82Q149.58 11.21 150.31 9.88L150.28 9.85L150.36 9.94Q144.89 12.08 139.14 11.85L139.16 11.87L139.15 11.86Q133.17 11.63 128.41 8.66L128.53 8.78L128.45 8.69Q129.51 10.59 130.35 13.26L130.31 13.23L130.32 13.23Q131.37 13.82 132.17 14.13L132.12 14.08L132.22 14.18Q132.40 14.55 132.86 16.41L132.80 16.36L132.76 16.32Q136.07 17.72 141.59 17.57L141.59 17.58L141.56 17.54Q141.17 18.03 139.19 21.80L139.20 21.80L139.22 21.83Q137.15 21.82 135.17 21.63L135.28 21.73L135.22 21.68Q135.25 22.46 135.25 23.34L135.26 23.35L135.27 25.07L136.89 25.01L136.90 26.44L136.87 26.41Q132.97 33.81 130.19 37.39L130.27 37.47L130.28 37.48Q131.81 36.65 133.45 36.16L133.39 36.09L133.44 36.14Q132.73 37.03 131.35 38.74L131.33 38.72L131.47 38.86Q134.58 37.71 137.02 37.48L137.06 37.52L136.95 37.41Q139.94 33.70 143.06 26.92L143.12 26.98L146.44 27.06L146.54 27.16Q146.44 26.23 146.44 25.32L146.40 25.27L146.47 23.56L146.41 23.50Q146.21 23.56 145.66 23.60L145.65 23.59L145.53 23.48Q145.02 23.56 144.76 23.56L144.84 23.64L144.68 23.48Q144.75 23.43 144.79 23.28L144.85 23.35L144.75 22.98L144.73 22.95Q147.33 17.90 150.41 13.26Z"/><path fill="#222" d="M163.97 25.60L163.94 25.57L163.98 25.61Q163.96 25.59 167.35 25.55L167.36 25.56L167.37 25.57Q169.72 25.64 170.79 25.68L170.64 25.53L170.80 25.69Q169.77 22.84 167.33 17.20L167.19 17.05L167.15 17.02Q166.65 18.50 165.61 21.36L165.66 21.41L165.62 21.37Q164.56 24.21 163.99 25.62ZM171.81 28.07L171.79 28.06L171.76 28.02Q169.61 28.12 167.40 28.15L167.45 28.20L167.35 28.10Q165.05 28.09 162.77 28.28L162.90 28.41L162.92 28.43Q161.31 31.78 158.08 35.96L158.00 35.88L158.11 35.99Q155.54 36.62 154.17 37.12L154.03 36.98L154.05 37.00Q159.23 31.41 163.92 18.05L163.95 18.08L163.83 17.96Q165.13 14.58 166.50 11.34L166.61 11.45L166.52 11.36Q166.91 11.45 167.26 11.45L167.13 11.32L168.02 11.49L167.97 11.44Q168.69 12.77 173.53 24.42L173.44 24.34L173.40 24.29Q176.73 32.20 180.73 36.35L180.70 36.31L180.79 36.40Q180.30 36.30 176.42 35.42L176.41 35.41L176.40 35.40Q173.83 32.26 171.85 28.12ZM176.24 35.67L176.39 35.81L176.91 35.84L176.94 35.86Q177.05 35.75 177.36 35.87L177.50 36.00L177.38 35.89Q177.85 36.40 179.68 38.42L179.58 38.32L179.55 38.29Q183.18 39.18 185.58 40.21L185.67 40.30L185.63 40.26Q180.20 35.78 176.20 27.78L176.10 27.68L176.19 27.77Q174.50 24.41 173.05 20.45L173.09 20.48L170.42 13.05L170.28 12.91Q170.13 13.11 169.91 13.11L169.79 12.99L169.37 13.10L169.38 13.12Q168.90 12.34 168.18 10.97L168.18 10.96L168.14 10.92Q167.74 11.06 167.28 11.02L167.20 10.94L167.28 11.02Q166.79 10.94 166.25 10.94L166.32 11.01L166.29 10.98Q164.92 14.94 161.04 25.11L161.02 25.09L160.89 24.96Q157.82 32.96 153.17 37.76L153.16 37.74L153.18 37.77Q154.14 37.27 156.15 36.67L156.33 36.85L156.32 36.83Q155.52 37.67 153.96 39.46L154.00 39.50L153.82 39.32Q155.71 38.85 159.63 38.09L159.47 37.92L159.46 37.92Q163.07 33.76 164.63 30.52L164.56 30.46L164.58 30.47Q166.32 30.35 168.64 30.38L168.68 30.43L168.70 30.45Q171.41 30.45 172.78 30.53L172.78 30.52L172.68 30.43Q174.00 32.85 176.36 35.78ZM168.61 21.06L168.63 21.09L168.61 21.07Q169.45 23.12 170.21 25.22L170.24 25.25L166.95 25.27L166.87 25.19Q167.52 23.82 168.59 21.04Z"/><path fill="#333" d="M79.24 14.40L79.26 14.43L79.25 14.41Q80.11 18.66 80.26 22.23L80.20 22.18L80.13 22.11Q81.20 22.15 82.27 22.15L82.30 22.19L84.52 22.19L84.66 22.34Q85.50 22.11 86.38 20.70L86.48 20.80L86.54 20.87Q87.23 19.65 87.35 18.47L87.29 18.41L87.23 18.35Q87.65 15.39 83.42 14.89L83.43 14.90L83.48 14.95Q81.89 14.99 79.26 14.42ZM80.17 24.89L80.31 25.02L80.17 24.89Q80.25 31.25 79.11 35.66L79.10 35.65L79.00 35.56Q77.58 36.00 75.26 37.07L75.30 37.11L75.28 37.09Q77.51 30.30 77.24 23.03L77.32 23.11L77.42 23.20Q77.04 15.74 74.26 9.31L74.28 9.33L74.19 9.24Q78.50 12.18 84.74 12.18L84.70 12.14L84.65 12.09Q90.64 12.02 90.79 15.48L90.84 15.53L90.77 15.46Q90.94 17.99 89.95 20.65L90.01 20.72L89.87 20.58Q89.52 21.75 88.57 22.97L88.47 22.87L88.54 22.94Q87.27 24.60 84.72 24.87L84.68 24.83L84.81 24.96Q82.46 24.89 80.21 24.93ZM86.34 27.17L86.30 27.13L86.41 27.24Q90.50 27.41 91.76 22.62L91.72 22.58L91.78 22.64Q92.65 18.91 92.50 16.89L92.49 16.88L92.61 17.00Q92.50 15.48 91.74 14.49L91.75 14.50L91.68 14.43Q91.43 14.19 90.94 13.96L90.76 13.78L90.92 13.94Q90.75 13.62 90.15 12.86L90.23 12.94L90.24 12.96Q88.70 11.65 84.75 11.65L84.76 11.66L84.70 11.60Q77.86 11.65 73.63 8.49L73.61 8.47L73.65 8.51Q76.75 15.53 77.02 22.99L76.98 22.95L77.02 23.00Q77.42 30.78 74.75 37.86L74.60 37.71L74.73 37.84Q75.72 37.11 76.71 36.73L76.66 36.68L76.36 37.91L76.42 37.96Q76.23 38.53 75.96 39.11L75.88 39.03L75.98 39.12Q78.33 38.01 81.22 37.47L81.24 37.50L81.19 37.44Q82.05 31.94 82.12 27.22L82.16 27.25L82.19 27.29Q83.14 27.06 84.13 27.06L84.24 27.17L84.27 27.20Q85.59 27.18 86.39 27.22ZM85.37 17.22L85.46 17.31L85.42 17.27Q85.82 17.17 86.81 17.40L86.97 17.56L86.82 17.41Q87.10 17.81 87.14 18.12L87.11 18.09L87.11 18.08Q87.12 18.32 87.04 18.59L87.07 18.62L86.99 18.54Q86.99 19.87 86.27 20.74L86.12 20.60L86.07 20.55Q85.56 21.67 84.53 21.87L84.53 21.86L84.59 21.92Q83.89 21.95 82.25 21.95L82.08 21.78L82.25 21.94Q82.09 19.53 81.86 17.17L82.00 17.31L83.57 17.21L83.59 17.23Q84.52 17.32 85.40 17.24Z"/><path fill="#222" d="M62.52 18.28L62.61 18.37L62.60 18.36Q60.80 14.19 54.59 14.38L54.70 14.50L54.69 14.48Q50.20 14.52 48.22 15.97L48.18 15.93L48.23 15.98Q45.74 17.64 45.74 21.75L45.88 21.89L45.75 23.62L45.85 23.72Q45.90 32.61 54.93 32.61L54.78 32.47L54.83 32.52Q56.89 32.52 58.37 31.72L58.36 31.71L58.42 31.76Q60.17 30.66 60.01 28.79L60.14 28.92L59.99 28.77Q59.86 26.74 56.17 25.82L56.18 25.83L54.27 25.87L54.18 25.77Q53.26 25.81 52.31 25.84L52.38 25.92L52.34 25.87Q52.37 24.95 52.33 23.05L52.26 22.98L52.37 23.08Q59.87 22.93 64.05 22.59L64.10 22.64L64.12 22.66Q64.11 23.52 64.11 24.32L64.14 24.35L64.11 24.32Q64.16 25.17 64.20 25.97L64.18 25.95L64.03 25.80Q62.96 25.84 62.96 25.84L63.06 25.93L63.11 25.99Q61.56 25.81 61.94 25.81L61.98 25.84L62.02 25.89Q63.17 27.57 63.56 29.55L63.57 29.57L63.53 29.53Q63.60 30.21 63.60 30.66L63.59 30.66L63.69 30.76Q63.67 35.38 54.88 35.38L54.90 35.40L54.77 35.27Q47.67 35.29 45.08 33.20L45.04 33.16L45.08 33.20Q43.16 30.90 43.16 25.83L43.03 25.70L43.19 25.86Q43.21 24.81 43.05 22.11L42.94 22.00L42.92 21.98Q42.80 19.65 42.84 18.28L42.83 18.27L42.88 18.32Q42.91 15.38 44.28 13.78L44.33 13.83L44.30 13.80Q46.97 11.86 51.84 11.67L51.84 11.67L54.48 11.57L54.42 11.51Q57.44 11.33 60.86 11.75L60.91 11.79L61.02 11.91Q64.60 12.21 65.55 15.45L65.67 15.57L65.56 15.46Q64.55 16.39 62.46 18.22ZM63.87 20.43L63.96 20.40L64.04 20.49Q65.14 19.29 67.00 17.31L67.11 17.43L67.08 17.39Q66.71 16.38 65.72 14.66L65.90 14.84L65.74 14.69Q64.70 12.16 60.90 11.52L60.81 11.43L60.79 11.40Q58.71 11.34 54.40 11.04L54.44 11.07L51.69 11.14L51.65 11.10Q46.61 11.42 44.02 13.40L43.89 13.27L43.87 13.25Q42.65 15.05 42.54 18.13L42.37 17.96L42.39 17.99Q42.46 17.60 42.69 23.08L42.74 23.13L42.75 23.13Q42.70 24.42 42.77 27.16L42.87 27.25L42.89 27.28Q43.03 31.68 44.78 33.62L44.79 33.63L44.69 33.53Q45.16 34.46 46.04 35.33L45.92 35.22L45.91 35.20Q48.95 37.22 54.47 37.56L54.46 37.55L57.24 37.63L57.32 37.71Q58.86 37.76 60.87 37.64L60.89 37.67L60.91 37.69Q62.31 37.56 64.40 37.02L64.45 37.07L64.56 37.18Q66.39 36.58 66.35 34.26L66.38 34.28L66.30 34.20Q66.44 33.08 65.37 30.30L65.41 30.34L65.24 30.17Q64.91 29.23 64.37 28.43L64.47 28.53L64.41 28.47Q65.13 28.61 66.31 28.80L66.17 28.67L66.16 28.66Q65.86 25.05 65.90 24.36L66.02 24.48L65.94 24.40Q65.66 24.50 65.24 24.46L65.11 24.33L65.18 24.40Q64.72 24.29 64.34 24.37L64.47 24.49L64.42 24.44Q64.40 23.31 64.47 22.25L64.57 22.35L64.44 22.22Q58.21 22.77 51.93 22.65L51.97 22.69L51.86 22.58Q52.01 23.61 52.01 24.52L52.01 24.52L52.08 26.34L52.02 26.28Q52.31 26.19 52.73 26.15L52.77 26.19L52.88 26.31Q53.18 26.18 53.63 26.18L53.74 26.29L53.66 26.20Q53.57 26.58 53.61 27.07L53.60 27.06L53.72 27.18Q53.79 27.71 53.75 28.20L53.57 28.02L53.62 28.07Q54.72 28.11 55.75 28.07L55.78 28.10L55.65 27.97Q56.73 28.02 57.75 28.05L57.84 28.14L57.90 28.20Q58.83 28.33 59.70 28.71L59.76 28.77L59.65 28.70L59.63 28.67Q59.82 30.23 58.14 31.15L58.17 31.17L58.26 31.27Q56.63 32.22 54.92 32.22L54.80 32.10L54.92 32.22Q50.93 32.08 48.49 30.32L48.66 30.49L48.65 30.48Q47.63 28.40 47.79 25.85L47.85 25.91L47.73 25.80Q47.98 20.94 49.82 18.94L49.82 18.94L49.93 19.05Q51.85 17.13 56.53 16.82L56.47 16.76L56.52 16.81Q60.19 16.60 62.13 18.38L61.97 18.22L62.09 18.34Q62.02 18.31 62.13 18.50L62.15 18.51L62.43 18.69L62.29 18.54Q63.00 19.36 63.57 20.47L63.51 20.41L63.99 20.54Z"/><path fill="#444" d="M27.08 35.21L26.90 35.02L24.92 35.33L24.87 35.27Q24.53 35.39 23.56 35.45L23.52 35.41L23.50 35.39Q22.48 35.40 21.98 35.40L21.94 35.35L21.91 35.33Q20.47 35.52 19.44 34.68L19.27 34.51L19.25 34.49Q20.17 33.50 21.80 31.37L21.75 31.32L21.76 31.32Q23.04 32.91 25.24 32.68L25.19 32.63L25.17 32.60Q26.19 32.60 26.84 31.95L26.75 31.86L26.83 31.94Q27.47 31.29 27.36 30.42L27.35 30.41L27.39 30.45Q27.19 25.76 27.27 21.19L27.37 21.29L27.27 21.20Q27.37 16.65 27.90 12.04L27.93 12.07L27.80 11.94Q29.73 11.73 31.86 10.70L31.92 10.76L31.93 10.78Q30.06 17.51 30.06 24.74L29.98 24.66L30.02 24.71Q30.07 28.29 30.53 31.80L30.44 31.70L30.58 31.84Q30.66 32.19 30.66 32.53L30.59 32.47L30.58 32.46Q30.66 33.11 30.43 33.64L30.44 33.65L30.29 33.50Q29.72 34.76 26.90 35.02ZM31.94 37.97L31.88 37.91L32.35 38.03L32.54 37.80L32.75 37.64L32.76 37.65Q33.20 37.51 33.27 37.40L33.11 37.23L33.18 37.31Q33.45 36.21 33.19 35.22L33.21 35.24L33.12 35.15Q31.80 29.38 32.07 23.02L32.09 23.04L32.00 22.95Q32.19 16.79 33.98 10.89L34.12 11.02L34.07 10.98Q33.11 11.54 31.85 12.26L31.96 12.37L31.95 12.35Q32.11 11.56 32.53 10.04L32.62 10.13L32.57 10.08Q30.13 11.49 27.47 11.80L27.32 11.65L27.29 11.62Q26.95 16.04 26.87 20.99L26.98 21.09L26.90 21.01Q26.89 26.98 26.97 30.41L26.97 30.41L27.01 30.45Q27.00 32.15 25.25 32.30L25.23 32.29L25.22 32.28Q23.62 32.50 21.94 30.86L21.84 30.76L21.86 30.78Q19.73 33.22 18.77 34.78L18.89 34.89L18.78 34.78Q19.41 35.41 20.43 35.64L20.44 35.64L20.44 35.65Q20.35 35.78 20.08 36.01L20.08 36.01L20.15 36.08Q21.70 37.13 23.68 37.40L23.66 37.38L23.66 37.38Q23.90 37.27 27.19 37.58L27.27 37.66L27.34 37.72Q30.63 38.02 32.00 38.02Z"/><path d="M10 4 C97 19,83 19,195 11" stroke="#888" fill="none"/><path d="M8 15 C121 31,79 2,181 23" stroke="#888" fill="none"/></svg>