<svg xmlns="http://www.w3.org/2000/svg" width="200" height="40" viewBox="0,0,200,40"><path fill="#222" d="M141.59 34.76L141.65 34.83L139.64 34.76L139.73 34.84Q138.86 34.93 137.91 35.04L137.93 35.06L137.85 34.98Q138.44 28.80 138.44 24.80L138.45 24.80L138.35 24.71Q134.35 18.00 126.69 9.32L126.77 9.39L126.86 9.48Q128.56 10.39 131.92 11.19L131.99 11.26L131.96 11.24Q137.06 16.87 140.07 22.09L140.03 22.05L140.01 22.03Q143.09 16.54 147.46 11.51L147.47 11.52L147.31 11.35Q149.76 11.00 152.28 10.20L152.27 10.19L152.22 10.13Q146.23 16.29 141.36 24.71L141.39 24.74L141.33 24.68Q141.35 31.74 141.66 34.83ZM150.87 12.37L153.56 9.50L153.48 9.42Q150.33 10.53 147.21 10.99L147.36 11.15L147.18 10.97Q142.99 15.71 140.17 20.82L140.18 20.83L140.30 20.95Q138.14 17.27 134.94 13.38L134.87 13.31L134.93 13.37Q134.71 13.42 134.22 13.34L134.19 13.31L134.22 13.34Q133.48 12.48 131.95 10.81L131.94 10.80L131.89 10.75Q128.49 9.97 125.52 8.41L125.66 8.55L125.65 8.54Q133.27 16.93 138.03 24.85L138.08 24.90L138.02 24.84Q137.87 31.12 137.27 35.27L137.39 35.40L137.32 35.32Q138.19 35.44 139.64 35.32L139.46 35.14L139.54 36.25L139.49 36.20Q139.60 36.77 139.52 37.30L139.42 37.20L139.49 37.26Q143.06 37.30 144.81 37.49L144.86 37.54L144.86 37.53Q143.59 32.84 143.47 26.86L143.38 26.77L143.47 26.86Q147.79 18.35 154.34 11.00L154.38 11.04L150.70 12.20Z"/><path d="M15 20 C97 26,112 34,184 2" stroke="#888" fill="none"/><path d="M2 4 C80 32,99 23,180 37" stroke="#666" fill="none"/><path fill="#444" d="M85.07 34.81L85.03 34.77L83.19 34.87L83.23 34.92Q82.15 34.79 81.20 34.90L81.27 34.97L81.19 34.90Q81.88 28.80 81.88 24.81L81.77 24.70L81.90 24.83Q77.83 18.05 70.17 9.37L70.26 9.46L70.30 9.50Q72.07 10.47 75.43 11.27L75.27 11.12L75.35 11.19Q80.38 16.76 83.38 21.97L83.43 22.02L83.36 21.95Q86.39 16.41 90.77 11.39L90.77 11.39L90.82 11.44Q93.26 11.07 95.78 10.27L95.73 10.22L95.75 10.24Q89.75 16.39 84.88 24.80L84.79 24.71L84.80 24.72Q84.85 31.82 85.16 34.90ZM94.29 12.36L96.90 9.41L96.82 9.34Q93.76 10.54 90.64 10.99L90.77 11.12L90.75 11.10Q86.46 15.76 83.65 20.86L83.74 20.96L83.62 20.84Q81.53 17.23 78.34 13.35L78.32 13.33L78.42 13.43Q78.07 13.34 77.57 13.27L77.51 13.21L77.65 13.34Q76.78 12.36 75.26 10.69L75.29 10.72L75.34 10.77Q72.06 10.11 69.09 8.55L69.04 8.51L69.01 8.48Q76.74 16.97 81.50 24.89L81.47 24.86L81.40 24.78Q81.31 31.13 80.70 35.28L80.81 35.39L80.86 35.44Q81.59 35.41 83.04 35.30L82.94 35.20L82.98 36.27L82.91 36.19Q83.00 36.74 82.92 37.27L82.90 37.24L82.95 37.30Q86.45 37.26 88.20 37.45L88.24 37.49L88.22 37.47Q86.96 32.78 86.85 26.81L86.81 26.76L86.85 26.81Q91.20 18.33 97.75 10.98L97.70 10.93L94.12 12.19Z"/><path fill="#222" d="M27.06 35.18L26.92 35.04L24.81 35.21L24.86 35.27Q24.51 35.38 23.54 35.44L23.53 35.42L23.55 35.44Q22.54 35.46 22.05 35.46L21.96 35.37L22.00 35.42Q20.45 35.50 19.42 34.66L19.25 34.49L19.26 34.50Q20.14 33.48 21.78 31.35L21.80 31.37L21.69 31.25Q23.11 32.98 25.32 32.75L25.25 32.69L25.30 32.74Q26.23 32.64 26.88 31.99L26.76 31.87L26.76 31.88Q27.35 31.18 27.24 30.30L27.26 30.32L27.40 30.46Q27.15 25.72 27.23 21.15L27.21 21.13L27.27 21.19Q27.31 16.59 27.85 11.98L27.80 11.94L27.85 11.99Q29.83 11.84 31.96 10.81L31.99 10.83L31.93 10.77Q30.14 17.59 30.14 24.82L30.15 24.83L30.03 24.71Q30.01 28.23 30.46 31.73L30.54 31.81L30.44 31.71Q30.66 32.20 30.66 32.54L30.59 32.47L30.64 32.52Q30.53 32.98 30.30 33.51L30.42 33.63L30.47 33.68Q29.80 34.83 26.98 35.10ZM31.87 37.90L31.99 38.02L32.22 37.90L32.50 37.77L32.86 37.75L32.74 37.62Q33.05 37.36 33.13 37.25L33.10 37.23L33.16 37.29Q33.48 36.23 33.21 35.24L33.03 35.06L33.20 35.23Q31.71 29.29 31.98 22.93L32.06 23.01L32.10 23.06Q32.31 16.90 34.09 11.00L34.03 10.94L34.16 11.07Q33.29 11.72 32.03 12.44L31.93 12.34L32.03 12.44Q32.15 11.61 32.57 10.09L32.56 10.07L32.52 10.03Q30.12 11.48 27.46 11.78L27.38 11.71L27.42 11.75Q27.06 16.15 26.98 21.10L26.97 21.08L26.99 21.11Q26.95 27.04 27.03 30.47L26.88 30.32L27.02 30.46Q27.09 32.24 25.34 32.39L25.18 32.24L25.25 32.31Q23.45 32.33 21.77 30.69L21.80 30.72L21.85 30.77Q19.78 33.27 18.83 34.83L18.83 34.83L18.79 34.79Q19.47 35.47 20.50 35.70L20.61 35.81L20.51 35.71Q20.44 35.88 20.18 36.10L20.09 36.01L20.13 36.06Q21.56 36.99 23.54 37.26L23.65 37.36L23.62 37.34Q24.00 37.37 27.29 37.68L27.23 37.62L27.23 37.62Q30.56 37.96 31.93 37.96Z"/><path fill="#333" d="M53.39 35.23L53.41 35.25L53.33 35.16Q49.84 35.26 48.21 34.72L48.28 34.80L48.23 34.75Q46.30 34.15 46.00 30.76L46.02 30.78L47.46 29.71L47.50 29.75Q48.08 29.08 48.84 28.58L48.99 28.73L48.98 28.72Q48.62 30.53 50.22 31.75L50.26 31.79L50.30 31.83Q51.57 32.83 53.70 32.64L53.78 32.72L53.78 32.72Q58.14 32.28 57.95 28.74L57.96 28.75L57.89 28.69Q57.77 26.47 55.14 25.25L55.14 25.25L55.03 25.14Q52.21 24.11 49.85 22.90L49.86 22.90L49.88 22.92Q47.39 21.65 46.41 16.97L46.27 16.84L46.34 16.91Q46.25 16.48 46.14 15.72L46.15 15.72L46.15 15.73Q46.02 14.91 46.09 14.34L46.08 14.33L46.15 14.39Q46.18 12.67 47.43 12.21L47.48 12.26L47.62 12.40Q49.96 11.47 53.96 11.66L53.98 11.68L53.94 11.64Q55.71 11.70 56.51 11.78L56.46 11.72L56.55 11.81Q57.96 11.93 59.02 12.38L59.01 12.37L59.05 12.41Q61.28 13.01 61.51 15.48L61.43 15.40L61.33 15.30Q60.36 16.08 58.15 17.41L58.13 17.39L58.28 17.54Q57.70 14.37 53.32 14.37L53.46 14.51L53.42 14.47Q51.58 14.53 50.59 15.21L50.41 15.04L50.57 15.20Q49.40 15.70 49.63 17.49L49.52 17.39L49.47 17.33Q49.76 19.56 52.73 21.08L52.86 21.22L52.73 21.09Q53.27 21.32 57.76 22.96L57.74 22.94L57.79 22.99Q60.51 24.56 60.93 28.94L60.95 28.96L60.95 28.97Q60.89 29.06 60.97 30.31L61.03 30.38L60.84 30.18Q60.92 32.97 59.36 34.07L59.53 34.25L59.38 34.10Q57.52 35.05 53.33 35.17ZM55.78 37.69L55.62 37.54L55.77 37.69Q57.14 37.68 59.12 37.68L59.16 37.72L59.08 37.65Q61.24 37.70 62.49 37.28L62.46 37.25L62.54 37.33Q63.71 36.45 63.63 34.66L63.72 34.74L63.60 34.63Q63.69 33.76 63.31 31.70L63.15 31.55L63.23 31.63Q62.36 26.98 60.26 25.12L60.17 25.03L60.18 25.03Q59.49 23.55 58.16 22.83L58.09 22.76L52.76 20.66L52.77 20.68Q52.52 20.58 52.07 20.35L52.02 20.31L51.86 19.87L51.87 19.54L51.94 19.61Q51.74 18.16 52.88 17.55L52.82 17.48L52.82 17.49Q53.63 16.97 55.35 16.78L55.28 16.70L55.33 16.76Q56.57 16.74 57.71 17.20L57.66 17.15L57.57 17.06Q57.60 17.13 57.79 17.97L57.95 18.13L57.80 17.98Q58.07 17.90 58.56 17.67L58.59 17.70L58.56 17.67Q59.24 18.53 59.35 19.68L59.41 19.73L59.47 19.80Q59.54 19.75 63.19 17.16L63.19 17.16L63.13 17.10Q62.87 14.48 61.42 13.79L61.37 13.74L61.41 13.78Q60.81 12.50 59.37 11.97L59.41 12.00L59.44 12.04Q57.08 11.16 53.88 11.16L53.96 11.24L53.86 11.14Q49.00 11.19 47.14 11.88L47.05 11.79L47.23 11.97Q45.81 12.34 45.69 14.01L45.64 13.96L45.64 13.96Q45.66 14.55 46.08 16.76L46.09 16.77L46.17 16.85Q46.72 20.49 48.89 22.73L48.97 22.81L48.86 22.70Q49.80 24.56 51.31 25.24L51.20 25.13L51.20 25.13Q52.69 25.81 56.61 27.37L56.64 27.39L56.65 27.44L57.29 27.78L57.41 27.94L57.25 27.78Q57.59 28.38 57.63 28.73L57.59 28.69L57.53 28.63Q57.52 32.01 53.60 32.16L53.74 32.30L53.69 32.25Q52.45 32.19 51.15 31.81L51.21 31.87L51.31 31.97Q50.83 30.99 50.83 30.27L50.99 30.42L50.92 30.36Q50.83 30.00 50.87 29.74L50.96 29.83L50.89 29.76Q50.53 30.04 49.73 30.54L49.84 30.64L49.74 30.55Q49.30 29.49 49.45 28.12L49.30 27.97L49.45 28.13Q47.22 29.17 45.62 30.58L45.77 30.73L45.63 30.59Q45.66 31.38 45.74 32.41L45.82 32.49L45.73 32.40Q46.25 34.33 47.54 35.09L47.42 34.97L47.51 35.05Q48.72 36.87 51.27 37.26L51.28 37.27L51.22 37.20Q52.85 37.50 55.78 37.70Z"/><path fill="#333" d="M110.03 35.29L109.95 35.22L110.06 35.33Q106.55 35.40 104.92 34.86L104.82 34.77L104.82 34.76Q102.90 34.18 102.60 30.79L102.51 30.71L104.03 29.71L104.00 29.68Q104.66 29.09 105.42 28.59L105.57 28.74L105.48 28.65Q105.16 30.50 106.76 31.72L106.81 31.77L106.82 31.78Q108.15 32.84 110.28 32.65L110.35 32.72L110.26 32.63Q114.71 32.28 114.52 28.74L114.48 28.70L114.41 28.63Q114.39 26.52 111.76 25.30L111.59 25.13L111.76 25.30Q108.86 24.19 106.50 22.97L106.49 22.96L106.47 22.94Q103.89 21.58 102.90 16.89L102.83 16.82L102.99 16.98Q102.87 16.52 102.75 15.76L102.77 15.78L102.61 15.61Q102.67 14.99 102.75 14.42L102.65 14.32L102.78 14.45Q102.77 12.69 104.03 12.24L104.04 12.25L104.16 12.37Q106.51 11.45 110.51 11.64L110.49 11.62L110.50 11.63Q112.32 11.74 113.12 11.81L113.13 11.82L113.20 11.89Q114.67 12.06 115.73 12.52L115.65 12.43L115.76 12.55Q117.83 12.98 118.06 15.46L118.02 15.42L117.94 15.33Q116.96 16.11 114.75 17.44L114.79 17.47L114.78 17.47Q114.40 14.50 110.02 14.50L109.89 14.36L109.89 14.36Q107.97 14.35 106.98 15.03L107.16 15.22L107.09 15.15Q105.92 15.65 106.15 17.44L106.16 17.45L106.17 17.46Q106.48 19.71 109.45 21.24L109.39 21.17L109.28 21.07Q109.95 21.43 114.44 23.07L114.36 22.99L114.42 23.04Q117.10 24.58 117.51 28.96L117.47 28.92L117.46 28.90Q117.46 29.06 117.54 30.32L117.55 30.33L117.42 30.19Q117.48 32.96 115.92 34.06L116.09 34.23L116.00 34.14Q114.14 35.10 109.95 35.21ZM112.26 37.60L112.21 37.55L112.29 37.63Q113.71 37.68 115.69 37.68L115.67 37.65L115.80 37.79Q117.73 37.63 118.99 37.21L119.01 37.23L119.16 37.38Q120.19 36.36 120.12 34.57L120.28 34.73L120.22 34.67Q120.25 33.75 119.87 31.70L119.70 31.52L119.79 31.62Q118.78 26.83 116.68 24.97L116.79 25.08L116.69 24.98Q116.00 23.48 114.66 22.76L114.62 22.72L109.38 20.71L109.37 20.70Q108.95 20.43 108.50 20.21L108.52 20.23L108.41 19.85L108.47 19.57L108.45 19.55Q108.36 18.21 109.50 17.60L109.45 17.55L109.39 17.48Q110.10 16.87 111.82 16.68L111.86 16.72L111.85 16.71Q113.00 16.60 114.14 17.06L114.12 17.03L114.23 17.15Q114.24 17.19 114.43 18.03L114.48 18.08L114.44 18.04Q114.69 17.95 115.19 17.73L115.05 17.58L115.21 17.75Q115.79 18.52 115.90 19.66L116.00 19.75L115.92 19.68Q116.01 19.65 119.66 17.06L119.70 17.10L119.76 17.16Q119.41 14.45 117.96 13.76L118.05 13.85L118.06 13.86Q117.38 12.49 115.93 11.96L116.04 12.07L116.00 12.03Q113.77 11.28 110.57 11.28L110.48 11.19L110.59 11.30Q105.52 11.14 103.66 11.83L103.75 11.92L103.73 11.90Q102.35 12.31 102.23 13.98L102.27 14.02L102.21 13.96Q102.28 14.60 102.70 16.81L102.69 16.80L102.61 16.72Q103.38 20.57 105.55 22.82L105.49 22.76L105.51 22.78Q106.40 24.58 107.90 25.27L107.88 25.25L107.73 25.09Q109.36 25.91 113.28 27.47L113.28 27.46L113.16 27.38L113.93 27.85L113.97 27.93L113.95 27.90Q114.17 28.40 114.21 28.74L114.09 28.62L114.09 28.61Q114.22 32.14 110.30 32.29L110.20 32.19L110.22 32.21Q109.04 32.21 107.74 31.83L107.77 31.85L107.82 31.90Q107.49 31.08 107.49 30.35L107.55 30.42L107.52 30.38Q107.47 30.07 107.51 29.81L107.50 29.79L107.60 29.89Q107.11 30.05 106.31 30.54L106.31 30.55L106.41 30.64Q105.77 29.40 105.92 28.03L105.95 28.06L105.95 28.05Q103.96 29.33 102.36 30.74L102.26 30.65L102.18 30.56Q102.31 31.45 102.38 32.48L102.32 32.42L102.41 32.51Q102.80 34.31 104.10 35.07L104.12 35.10L104.09 35.06Q105.20 36.78 107.75 37.16L107.76 37.17L107.74 37.15Q109.44 37.52 112.37 37.71Z"/><path fill="#333" d="M177.54 18.15L177.44 18.06L177.49 18.10Q175.67 20.81 173.00 26.45L172.93 26.37L171.00 30.69L170.96 30.65Q170.13 32.60 168.80 34.84L168.85 34.89L168.74 34.79Q169.18 34.77 167.51 34.81L167.45 34.75L167.61 34.91Q167.61 34.92 166.36 34.92L166.19 34.75L166.34 34.90Q165.52 33.32 162.59 26.16L162.71 26.28L162.55 26.12Q160.50 20.87 158.41 17.87L158.43 17.89L158.43 17.89Q159.08 20.87 159.08 24.03L159.06 24.00L159.13 24.07Q159.20 30.65 156.23 36.21L156.20 36.18L156.23 36.21Q154.88 36.53 152.52 37.26L152.43 37.17L152.39 37.13Q156.06 31.44 156.06 24.21L156.20 24.34L156.12 24.26Q156.12 15.31 150.71 8.35L150.78 8.41L150.83 8.47Q152.43 9.15 154.79 9.84L154.76 9.80L154.70 9.74Q161.74 16.48 167.83 29.80L167.85 29.82L167.94 29.91Q171.42 22.88 173.63 19.38L173.56 19.31L173.61 19.37Q177.26 13.65 181.22 10.19L181.12 10.08L181.06 10.03Q182.43 9.91 184.79 9.15L184.78 9.14L184.77 9.13Q179.69 15.67 179.69 24.27L179.70 24.27L179.70 24.28Q179.76 30.99 183.18 36.51L183.15 36.48L183.18 36.52Q181.86 36.22 179.12 35.61L179.15 35.64L179.13 35.63Q176.75 30.80 176.75 24.83L176.84 24.91L176.75 24.83Q176.67 21.32 177.36 17.97ZM178.88 35.95L179.01 36.07L178.95 36.01Q179.59 36.08 181.04 36.35L181.10 36.41L181.02 36.33Q181.45 37.06 182.40 38.55L182.53 38.68L182.43 38.58Q184.51 38.94 187.97 40.16L187.97 40.16L188.05 40.24Q181.75 33.86 181.75 24.04L181.70 23.99L181.70 23.99Q181.79 16.36 186.17 10.23L186.19 10.24L184.07 11.02L184.00 10.95Q185.04 9.44 185.69 8.56L185.72 8.60L185.59 8.46Q183.83 9.22 181.20 9.75L181.08 9.62L181.12 9.67Q174.44 15.85 168.38 28.45L168.39 28.46L168.31 28.38Q163.09 17.37 158.14 12.12L158.27 12.25L158.25 12.22Q157.79 12.08 157.22 11.96L157.27 12.01L156.09 10.75L155.99 10.65Q155.35 9.94 154.67 9.33L154.79 9.46L154.83 9.49Q151.74 8.46 149.95 7.73L149.96 7.75L149.97 7.76Q155.85 14.86 155.85 24.26L155.95 24.36L155.80 24.21Q155.99 32.01 151.84 37.88L151.67 37.71L151.77 37.80Q152.45 37.57 153.74 37.15L153.69 37.10L153.64 37.04Q153.56 37.35 152.16 39.45L152.10 39.39L152.16 39.44Q154.08 39.09 157.58 38.33L157.57 38.31L157.54 38.28Q161.24 31.21 161.05 23.44L161.13 23.52L161.08 23.48Q162.48 27.35 165.94 35.23L166.02 35.30L166.04 35.32Q166.23 35.20 166.45 35.20L166.44 35.19L167.09 35.30L166.99 35.21Q167.56 36.01 168.36 37.30L168.25 37.19L168.20 37.14Q169.84 37.15 169.84 37.15L169.83 37.13L169.82 37.12Q170.94 37.22 171.59 37.29L171.46 37.17L171.57 37.27Q173.18 33.29 176.53 25.29L176.46 25.22L176.46 25.22Q176.25 30.58 178.84 35.91Z"/></svg>