<svg xmlns="http://www.w3.org/2000/svg" width="200" height="40" viewBox="0,0,200,40"><path fill="#333" d="M53.68 24.21L53.66 24.19L53.66 24.19Q51.74 23.98 50.50 25.40L50.53 25.43L50.49 25.39Q49.29 26.86 49.10 28.77L49.04 28.70L49.14 28.80Q48.77 30.72 49.85 31.69L49.88 31.72L49.90 31.74Q50.96 32.68 53.05 32.56L53.12 32.63L53.14 32.65Q55.28 32.54 56.38 31.86L56.27 31.74L56.24 31.72Q57.38 30.61 57.38 29.05L57.44 29.11L57.52 29.19Q57.45 28.74 57.37 28.36L57.35 28.34L57.44 28.43Q57.40 26.63 56.30 25.28L56.45 25.44L56.42 25.41Q55.23 23.97 53.56 24.09ZM53.23 35.29L53.24 35.31L53.26 35.32Q48.85 35.29 47.44 34.53L47.38 34.47L47.33 34.42Q46.36 33.72 46.17 32.00L46.07 31.90L46.23 32.06Q46.09 31.27 46.12 30.55L46.12 30.54L46.20 30.63Q46.21 29.53 46.21 29.07L46.28 29.15L46.36 29.22Q46.64 26.19 46.79 25.51L46.95 25.66L46.91 25.63Q47.36 23.68 48.20 22.27L48.16 22.23L48.16 22.22Q50.77 17.80 56.71 11.44L56.68 11.41L56.73 11.46Q59.53 11.29 61.74 10.49L61.59 10.34L61.73 10.49Q54.88 17.95 51.69 22.18L51.60 22.09L51.52 22.01Q52.66 21.67 53.96 21.67L53.94 21.65L53.79 21.50Q57.27 21.67 58.79 23.61L58.67 23.49L58.82 23.64Q60.02 25.14 60.36 28.68L60.36 28.68L60.49 28.81Q60.43 29.40 60.43 30.01L60.47 30.05L60.40 29.97Q60.53 33.23 58.33 34.30L58.32 34.29L58.23 34.20Q57.10 34.90 53.22 35.28ZM55.41 37.59L55.46 37.64L55.44 37.62Q56.73 37.58 58.71 37.66L58.73 37.67L58.81 37.75Q60.31 37.69 61.87 36.97L61.85 36.95L62.02 37.11Q62.99 36.19 62.99 34.40L62.95 34.36L63.04 34.44Q63.05 33.96 62.88 32.97L62.83 32.93L62.86 32.95Q62.76 32.03 62.76 31.57L62.59 31.40L62.70 31.52Q61.89 26.86 60.29 24.95L60.14 24.80L60.30 24.96Q60.15 24.78 60.00 24.55L59.94 24.49L59.73 24.36L59.56 24.23L59.58 24.25Q59.23 23.74 58.62 22.79L58.64 22.81L58.62 22.79Q57.72 21.86 55.74 21.40L55.82 21.48L55.67 21.32Q56.95 19.79 59.92 16.09L59.84 16.02L64.26 10.92L64.22 10.88Q62.53 11.62 60.13 12.38L60.19 12.45L60.16 12.41Q61.02 11.37 62.81 9.39L62.94 9.53L62.95 9.53Q60.51 10.55 56.62 11.12L56.58 11.08L56.57 11.07Q50.95 17.07 47.99 22.02L47.86 21.89L48.03 22.07Q46.51 24.58 45.94 30.82L45.88 30.76L45.78 30.67Q45.71 31.24 45.79 32.19L45.85 32.26L45.81 32.21Q45.85 33.93 46.96 34.84L46.98 34.86L47.09 34.98Q47.36 35.02 47.32 35.06L47.39 35.13L47.44 35.18Q47.79 36.06 48.59 36.48L48.58 36.46L48.50 36.39Q50.09 37.22 52.03 37.41L51.95 37.33L51.86 37.23Q51.92 37.29 55.42 37.60ZM55.30 26.48L55.27 26.44L55.12 26.30Q55.77 26.26 56.73 26.76L56.69 26.72L56.78 26.82Q57.00 27.64 57.00 28.29L57.15 28.44L57.14 28.43Q57.31 30.27 56.36 31.26L56.31 31.22L56.24 31.14Q55.29 31.99 53.20 32.29L53.19 32.28L53.11 32.20Q51.77 32.31 51.24 32.05L51.23 32.04L51.23 32.04Q51.00 31.54 51.00 31.24L50.96 31.20L51.06 31.29Q50.72 27.91 53.65 26.62L53.76 26.72L53.63 26.60Q54.51 26.37 55.27 26.44Z"/><path fill="#333" d="M92.52 17.99L92.55 18.03L92.57 18.04Q90.79 20.80 88.13 26.43L88.04 26.35L86.21 30.75L86.10 30.65Q85.23 32.55 83.90 34.80L83.83 34.74L83.88 34.78Q84.42 34.86 82.74 34.90L82.60 34.76L82.66 34.82Q82.62 34.78 81.37 34.78L81.52 34.94L81.37 34.78Q80.62 33.27 77.69 26.12L77.79 26.22L77.75 26.18Q75.58 20.81 73.48 17.80L73.49 17.81L73.56 17.88Q74.23 20.87 74.23 24.03L74.20 24.00L74.33 24.13Q74.35 30.66 71.38 36.22L71.26 36.10L71.28 36.11Q69.97 36.48 67.61 37.20L67.62 37.22L67.66 37.26Q71.30 31.53 71.30 24.30L71.23 24.23L71.26 24.25Q71.32 15.37 65.91 8.40L65.85 8.34L65.97 8.46Q67.57 9.15 69.93 9.83L69.93 9.83L69.90 9.80Q77.03 16.63 83.12 29.95L83.05 29.88L83.05 29.88Q86.46 22.78 88.67 19.28L88.77 19.38L88.70 19.31Q92.42 13.67 96.38 10.20L96.34 10.16L96.23 10.06Q97.48 9.82 99.84 9.05L99.91 9.13L99.95 9.16Q94.90 15.73 94.90 24.34L94.85 24.28L94.97 24.40Q94.85 30.94 98.27 36.46L98.36 36.55L98.40 36.59Q97.05 36.27 94.31 35.66L94.20 35.55L94.32 35.66Q91.96 30.87 91.96 24.90L91.95 24.89L91.99 24.93Q91.90 21.41 92.59 18.06ZM93.97 35.89L94.08 36.00L94.17 36.09Q94.74 36.09 96.19 36.36L96.29 36.45L96.26 36.42Q96.64 37.11 97.59 38.60L97.64 38.64L97.68 38.69Q99.79 39.08 103.25 40.30L103.25 40.30L103.14 40.19Q96.96 33.93 96.96 24.11L96.97 24.11L96.85 23.99Q96.91 16.33 101.29 10.20L101.25 10.16L99.13 10.94L99.05 10.86Q100.20 9.45 100.85 8.58L100.77 8.50L100.78 8.51Q98.86 9.11 96.24 9.64L96.24 9.65L96.19 9.59Q89.60 15.87 83.54 28.47L83.46 28.38L83.49 28.42Q78.27 17.41 73.33 12.16L73.39 12.23L73.36 12.20Q72.89 12.03 72.32 11.92L72.45 12.05L71.16 10.68L71.12 10.64Q70.68 10.12 69.99 9.51L69.81 9.33L69.89 9.41Q66.92 8.50 65.13 7.77L64.98 7.62L64.98 7.62Q71.03 14.89 71.03 24.30L71.02 24.28L71.13 24.40Q71.07 31.95 66.92 37.81L66.98 37.87L66.89 37.78Q67.60 37.58 68.90 37.16L68.82 37.09L68.81 37.07Q68.77 37.41 67.36 39.51L67.31 39.46L67.33 39.47Q69.14 39.00 72.64 38.24L72.67 38.27L72.71 38.30Q76.37 31.20 76.18 23.43L76.23 23.48L76.26 23.51Q77.63 27.36 81.10 35.24L81.26 35.40L81.20 35.34Q81.31 35.15 81.54 35.15L81.69 35.29L82.25 35.32L82.06 35.13Q82.53 35.84 83.33 37.13L83.44 37.24L83.37 37.16Q85.02 37.18 85.02 37.18L85.11 37.27L85.11 37.27Q86.08 37.21 86.73 37.29L86.63 37.20L86.60 37.16Q88.29 33.26 91.64 25.26L91.64 25.26L91.50 25.12Q91.44 30.62 94.03 35.95Z"/><path fill="#333" d="M110.15 24.11L110.06 24.01L110.07 24.03Q108.29 23.96 107.05 25.39L107.15 25.49L107.19 25.52Q105.87 26.87 105.68 28.78L105.75 28.84L105.64 28.73Q105.43 30.81 106.52 31.78L106.56 31.82L106.49 31.75Q107.70 32.85 109.80 32.74L109.77 32.71L109.66 32.60Q111.74 32.43 112.84 31.75L112.96 31.87L112.80 31.70Q113.94 30.60 113.94 29.04L114.04 29.14L114.07 29.17Q113.98 28.69 113.90 28.31L113.98 28.40L113.96 28.37Q113.99 26.65 112.88 25.30L112.96 25.38L113.01 25.43Q111.74 23.91 110.06 24.02ZM109.75 35.24L109.72 35.21L109.78 35.27Q105.34 35.21 103.93 34.45L103.94 34.45L103.88 34.40Q102.84 33.62 102.64 31.91L102.69 31.95L102.82 32.08Q102.60 31.21 102.64 30.49L102.66 30.51L102.71 30.56Q102.75 29.49 102.75 29.04L102.91 29.20L102.79 29.08Q103.29 26.27 103.44 25.58L103.49 25.64L103.45 25.59Q103.99 23.74 104.83 22.33L104.75 22.25L104.82 22.31Q107.46 17.92 113.40 11.56L113.28 11.44L113.30 11.45Q116.04 11.23 118.24 10.43L118.32 10.50L118.30 10.49Q111.47 17.97 108.27 22.19L108.24 22.16L108.22 22.13Q109.25 21.69 110.55 21.69L110.51 21.65L110.43 21.57Q113.71 21.54 115.23 23.48L115.33 23.58L115.33 23.58Q116.68 25.23 117.02 28.77L117.06 28.81L116.99 28.74Q116.98 29.38 116.98 29.98L117.11 30.11L116.98 29.98Q117.03 33.15 114.82 34.22L114.74 34.14L114.78 34.18Q113.60 34.83 109.72 35.21ZM112.10 37.71L111.92 37.53L112.03 37.64Q113.22 37.49 115.20 37.57L115.39 37.76L115.23 37.60Q116.97 37.78 118.53 37.05L118.54 37.06L118.56 37.09Q119.54 36.16 119.54 34.37L119.52 34.35L119.57 34.40Q119.64 33.97 119.46 32.98L119.49 33.01L119.41 32.92Q119.24 31.94 119.24 31.49L119.25 31.49L119.19 31.43Q118.35 26.75 116.75 24.85L116.72 24.81L116.81 24.91Q116.62 24.68 116.47 24.45L116.63 24.61L116.22 24.27L116.19 24.29L116.21 24.31Q115.93 23.87 115.32 22.92L115.29 22.89L115.15 22.75Q114.34 21.90 112.36 21.44L112.31 21.39L112.33 21.41Q113.57 19.84 116.54 16.15L116.47 16.07L120.83 10.92L120.71 10.80Q119.23 11.76 116.83 12.52L116.70 12.38L116.81 12.49Q117.60 11.38 119.39 9.40L119.49 9.50L119.41 9.42Q117.11 10.59 113.23 11.16L113.19 11.12L113.16 11.09Q107.42 16.96 104.45 21.91L104.51 21.97L104.60 22.06Q103.08 24.57 102.51 30.82L102.40 30.71L102.33 30.64Q102.39 31.34 102.46 32.29L102.40 32.23L102.39 32.22Q102.44 33.95 103.55 34.86L103.52 34.84L103.56 34.87Q103.91 35.00 103.88 35.04L103.96 35.12L103.85 35.02Q104.40 36.10 105.20 36.52L105.14 36.46L105.17 36.49Q106.58 37.13 108.52 37.32L108.48 37.29L108.46 37.26Q108.49 37.30 111.99 37.60ZM111.76 26.36L111.84 26.44L111.84 26.45Q112.32 26.24 113.28 26.74L113.38 26.84L113.25 26.71Q113.66 27.73 113.66 28.37L113.71 28.43L113.66 28.38Q113.86 30.26 112.91 31.25L112.90 31.23L112.89 31.22Q111.84 31.96 109.75 32.27L109.78 32.30L109.77 32.29Q108.27 32.24 107.74 31.98L107.66 31.89L107.74 31.97Q107.60 31.57 107.60 31.26L107.57 31.24L107.63 31.30Q107.26 27.88 110.20 26.59L110.31 26.71L110.31 26.70Q111.10 26.38 111.86 26.46Z"/><path fill="#222" d="M130.38 9.27L130.41 9.31L130.33 9.22Q134.29 11.93 139.05 12.16L138.90 12.01L138.88 11.99Q143.58 12.23 147.84 10.48L147.87 10.51L147.86 10.50Q147.68 11.12 146.92 13.90L146.83 13.81L146.89 13.86Q144.18 14.93 141.21 15.08L141.24 15.11L141.15 15.02Q138.19 15.18 135.30 14.46L135.25 14.42L135.35 14.51Q135.89 17.98 136.08 21.64L136.25 21.81L136.16 21.71Q138.13 21.90 139.73 21.86L139.83 21.96L139.71 21.84Q141.05 21.96 143.45 21.85L143.42 21.82L143.40 21.80Q143.43 22.51 143.43 23.20L143.30 23.07L143.35 24.46L143.31 24.41Q140.88 24.38 136.08 24.46L136.20 24.58L136.22 24.59Q136.25 28.74 135.68 32.74L135.67 32.72L135.49 32.54Q138.22 32.00 140.96 32.11L140.97 32.12L140.93 32.09Q143.56 32.09 146.15 32.93L146.17 32.95L146.21 32.99Q146.30 33.80 146.57 34.56L146.55 34.55L147.04 36.10L147.13 36.19Q143.76 34.72 140.33 34.72L140.52 34.91L140.48 34.87Q135.54 34.80 131.28 37.05L131.26 37.04L131.19 36.97Q133.51 30.15 133.25 23.03L133.42 23.21L133.43 23.21Q133.02 15.91 130.35 9.25ZM130.69 37.68L130.79 37.78L130.77 37.76Q132.13 37.15 132.90 36.80L132.78 36.69L132.84 36.75Q132.71 37.57 132.14 39.09L132.03 38.98L132.00 38.96Q136.58 37.02 141.64 37.29L141.59 37.23L141.69 37.34Q146.83 37.60 150.82 40.30L150.72 40.20L150.73 40.21Q149.61 37.72 148.92 35.78L148.91 35.77L148.98 35.83Q147.91 35.15 146.92 34.80L147.00 34.88L147.02 34.90Q146.54 33.43 146.39 32.63L146.35 32.59L146.41 32.65Q143.38 31.71 140.22 31.71L140.22 31.72L140.24 31.74Q139.07 31.71 137.93 31.83L137.94 31.84L137.81 31.71Q138.02 30.54 138.05 29.32L138.14 29.40L138.16 26.84L138.14 26.82Q139.96 26.74 141.75 26.77L141.74 26.77L141.70 26.72Q143.58 26.82 145.37 26.97L145.41 27.01L145.42 27.02Q145.32 26.04 145.32 25.09L145.29 25.06L145.22 23.08L144.56 23.30L144.42 23.16Q144.01 23.25 143.55 23.25L143.59 23.29L143.56 23.26Q143.60 22.61 143.75 21.31L143.72 21.29L143.76 21.32Q142.19 21.58 141.01 21.61L141.04 21.65L140.92 21.53Q140.06 21.62 138.23 21.54L138.20 21.51L138.26 21.57Q138.09 20.06 137.90 17.25L137.95 17.30L137.96 17.31Q138.99 17.43 139.98 17.43L139.91 17.35L139.95 17.40Q144.65 17.37 148.34 15.47L148.37 15.50L148.43 15.56Q148.97 13.17 149.84 10.96L149.82 10.94L149.77 10.88Q148.53 11.82 147.70 12.16L147.60 12.07L147.59 12.06Q148.05 11.45 148.50 9.89L148.35 9.73L148.42 9.80Q143.72 11.88 138.84 11.57L138.88 11.61L138.81 11.54Q133.66 11.37 129.81 8.52L129.67 8.38L129.69 8.39Q132.62 15.40 132.92 23.01L132.97 23.06L132.96 23.04Q133.30 31.00 130.79 37.78Z"/><path fill="#333" d="M18.70 10.83L18.80 10.93L18.82 10.96Q20.71 15.81 21.28 20.99L21.29 21.00L21.14 20.85Q24.85 16.72 30.76 11.89L30.71 11.84L30.72 11.85Q33.96 11.59 36.59 10.79L36.60 10.81L30.08 16.46L30.10 16.48Q26.66 19.41 23.81 22.26L23.70 22.15L23.76 22.21Q31.69 31.32 36.75 36.04L36.91 36.20L36.79 36.08Q33.69 35.15 31.37 35.00L31.45 35.08L31.39 35.02Q25.65 29.66 21.35 23.83L21.42 23.91L21.39 23.87Q21.38 30.38 19.52 35.71L19.60 35.80L19.58 35.78Q19.29 35.75 18.79 35.94L18.86 36.00L18.83 36.16L18.89 36.22Q18.57 36.13 16.02 37.05L15.98 37.01L16.04 37.07Q19.08 30.59 18.74 23.13L18.61 23.00L18.69 23.08Q18.39 15.77 14.85 9.26L14.72 9.14L15.33 9.48L15.70 9.74L15.88 9.88L15.72 9.72Q16.57 10.23 18.78 10.91ZM18.95 10.51L19.03 10.59L19.07 10.63Q16.78 10.06 14.16 8.54L14.10 8.48L14.04 8.41Q18.46 15.85 18.46 24.79L18.39 24.73L18.33 24.66Q18.43 31.77 15.47 37.83L15.50 37.86L17.50 36.96L17.36 36.83Q17.15 38.03 16.46 39.32L16.34 39.20L16.34 39.19Q18.57 38.38 20.51 37.96L20.48 37.93L20.71 37.93L20.65 37.87Q20.81 37.72 21.38 37.57L21.55 37.74L21.38 37.57Q23.17 31.79 23.28 26.99L23.28 26.98L23.26 26.97Q25.22 29.35 27.05 31.21L27.13 31.29L27.05 31.22Q28.32 32.40 31.33 35.37L31.36 35.41L31.42 35.47L31.45 35.50Q32.37 36.23 34.24 37.83L34.30 37.90L34.17 37.76Q38.10 38.53 41.56 40.24L41.53 40.22L41.63 40.31Q32.31 31.72 26.07 24.29L26.08 24.31L26.10 24.32Q30.51 20.06 39.27 11.45L39.31 11.49L39.29 11.47Q36.63 12.51 34.61 12.89L34.63 12.91L34.60 12.88Q35.84 11.91 38.16 9.89L38.17 9.90L38.23 9.96Q34.08 11.33 30.73 11.52L30.74 11.53L30.64 11.43Q27.77 13.70 22.90 18.38L22.91 18.39L22.88 18.36Q22.63 15.90 22.06 13.35L21.95 13.25L21.97 13.27Q20.86 13.19 19.87 12.84L19.79 12.76L19.74 12.71Q19.61 12.04 19.04 10.60Z"/><path fill="#222" d="M167.00 35.26L167.02 35.27L164.60 28.40L164.56 28.36Q160.11 15.68 154.17 9.29L154.24 9.36L154.30 9.42Q156.32 10.49 158.91 11.09L158.74 10.93L158.78 10.97Q164.03 17.36 168.37 30.12L168.40 30.14L168.28 30.02Q171.38 21.97 172.07 20.37L172.12 20.42L171.96 20.26Q174.45 14.76 177.27 11.45L177.23 11.41L177.21 11.39Q179.37 11.11 181.99 10.24L181.94 10.18L182.02 10.26Q177.28 14.70 174.24 21.94L174.30 22.00L174.41 22.11Q172.92 25.68 169.23 35.20L169.32 35.29L169.26 35.23Q168.60 35.14 168.03 35.11L168.02 35.10L168.14 35.22Q167.50 35.14 166.93 35.18ZM171.97 37.64L172.00 37.66L171.91 37.57Q174.73 27.60 176.29 23.57L176.39 23.67L176.24 23.51Q179.29 15.87 183.71 11.00L183.69 10.98L183.73 11.02Q182.64 11.34 180.54 12.06L180.70 12.22L181.80 10.85L181.70 10.74Q182.38 10.17 182.99 9.52L182.96 9.49L182.86 9.39Q180.05 10.39 177.04 10.96L177.02 10.93L177.05 10.97Q172.81 16.43 168.93 27.89L168.82 27.79L168.91 27.87Q165.09 17.58 161.89 13.20L162.00 13.32L161.95 13.26Q161.52 13.14 160.64 12.99L160.82 13.16L160.79 13.13Q160.49 12.68 158.90 10.63L158.98 10.71L158.87 10.60Q156.03 10.00 153.32 8.60L153.25 8.52L153.21 8.48Q159.94 15.66 164.31 28.46L164.20 28.34L164.26 28.41Q165.53 32.11 166.71 35.69L166.71 35.69L166.67 35.64Q167.00 35.68 167.84 35.56L167.85 35.57L167.79 35.51Q168.26 36.32 168.95 37.66L168.96 37.67L168.86 37.57Q169.64 37.44 170.37 37.52L170.41 37.56L170.52 37.68Q171.23 37.66 171.99 37.66Z"/><path d="M17 15 C102 36,100 2,179 39" stroke="#777" fill="none"/><path d="M3 38 C81 21,118 34,194 18" stroke="#999" fill="none"/></svg>