<svg xmlns="http://www.w3.org/2000/svg" width="200" height="40" viewBox="0,0,200,40"><path fill="#222" d="M73.86 9.32L73.88 9.35L73.77 9.24Q77.65 11.86 82.40 12.08L82.47 12.15L82.48 12.16Q86.94 12.16 91.20 10.41L91.28 10.50L91.33 10.54Q91.05 11.06 90.29 13.84L90.22 13.77L90.21 13.76Q87.46 14.78 84.49 14.94L84.54 14.98L84.65 15.09Q81.66 15.22 78.76 14.50L78.74 14.47L78.72 14.45Q79.45 18.11 79.64 21.76L79.63 21.76L79.51 21.64Q81.51 21.84 83.10 21.81L83.27 21.98L83.29 21.99Q84.37 21.86 86.77 21.74L86.72 21.69L86.91 21.88Q86.83 22.49 86.83 23.17L86.83 23.18L86.68 24.36L86.74 24.42Q84.43 24.51 79.64 24.58L79.57 24.52L79.49 24.44Q79.64 28.69 79.07 32.69L78.94 32.56L78.94 32.56Q81.59 31.94 84.33 32.05L84.36 32.09L84.38 32.11Q87.05 32.15 89.64 32.99L89.73 33.07L89.71 33.06Q89.84 33.91 90.11 34.67L90.04 34.60L90.54 36.17L90.54 36.17Q87.34 34.88 83.92 34.88L83.80 34.76L83.79 34.75Q78.98 34.82 74.72 37.06L74.69 37.04L74.74 37.08Q77.02 30.22 76.75 23.10L76.81 23.16L76.72 23.07Q76.51 15.97 73.85 9.31ZM74.21 37.77L74.13 37.70L74.28 37.84Q75.56 37.14 76.32 36.80L76.22 36.69L76.30 36.78Q76.08 37.50 75.50 39.03L75.54 39.06L75.46 38.99Q80.01 37.03 85.08 37.29L85.07 37.29L84.99 37.20Q90.29 37.63 94.29 40.34L94.27 40.32L94.27 40.32Q93.11 37.79 92.43 35.85L92.36 35.78L92.34 35.76Q91.46 35.26 90.47 34.92L90.32 34.77L90.32 34.77Q89.99 33.46 89.84 32.66L89.95 32.77L89.89 32.70Q86.74 31.65 83.58 31.65L83.67 31.74L83.71 31.78Q82.46 31.67 81.32 31.79L81.40 31.86L81.41 31.87Q81.35 30.45 81.39 29.23L81.46 29.30L81.55 26.80L81.51 26.76Q83.39 26.74 85.18 26.77L85.12 26.71L85.26 26.85Q86.99 26.79 88.78 26.95L88.79 26.96L88.85 27.02Q88.66 25.95 88.66 25.00L88.62 24.97L88.78 23.22L87.84 23.16L87.93 23.25Q87.59 23.40 87.14 23.40L87.13 23.40L87.04 23.31Q87.14 22.72 87.30 21.43L87.13 21.26L87.25 21.38Q85.67 21.64 84.49 21.67L84.41 21.59L84.41 21.59Q83.40 21.53 81.57 21.45L81.54 21.43L81.68 21.56Q81.49 20.04 81.30 17.23L81.31 17.23L81.30 17.23Q82.33 17.34 83.32 17.34L83.35 17.37L83.31 17.33Q88.20 17.50 91.89 15.59L91.71 15.41L91.90 15.60Q92.35 13.13 93.23 10.92L93.34 11.03L93.34 11.02Q92.01 11.87 91.17 12.21L91.16 12.19L91.11 12.15Q91.33 11.30 91.79 9.74L91.78 9.74L91.91 9.87Q87.18 11.91 82.31 11.61L82.28 11.57L82.26 11.56Q77.11 11.39 73.26 8.54L73.22 8.50L73.24 8.51Q76.16 15.51 76.47 23.13L76.35 23.01L76.48 23.14Q76.82 31.09 74.31 37.87Z"/><path fill="#333" d="M53.57 24.10L53.64 24.17L53.58 24.11Q51.70 24.10 50.48 25.43L50.63 25.58L50.64 25.58Q49.38 26.87 49.22 28.78L49.28 28.83L49.23 28.78Q48.99 30.86 50.21 31.87L50.23 31.89L50.26 31.93Q51.46 32.92 53.59 32.84L53.67 32.92L53.63 32.87Q55.95 32.72 56.90 31.77L56.93 31.80L56.82 31.69Q57.97 30.36 57.85 28.53L57.73 28.41L57.75 28.43Q57.71 26.64 56.63 25.44L56.55 25.36L56.57 25.39Q55.46 24.16 53.63 24.16ZM53.54 14.66L53.58 14.70L53.71 14.84Q52.29 14.71 50.95 15.20L50.89 15.13L50.89 15.14Q49.67 16.01 49.89 17.87L49.83 17.81L49.77 17.75Q50.28 21.49 53.63 21.49L53.69 21.55L53.60 21.46Q55.28 21.77 56.27 20.63L56.29 20.65L56.16 20.52Q57.27 19.50 57.31 17.94L57.26 17.89L57.27 17.90Q57.37 16.17 56.65 15.56L56.52 15.44L56.53 15.45Q54.98 14.73 53.69 14.81ZM53.45 35.40L53.40 35.35L50.23 35.23L50.32 35.32Q48.84 35.35 47.50 34.48L47.36 34.34L47.43 34.40Q45.99 33.19 46.14 30.34L46.33 30.53L46.28 30.48Q46.63 23.52 50.25 22.53L50.36 22.64L50.37 22.65Q48.11 21.76 46.78 16.39L46.60 16.21L46.62 16.23Q46.32 14.87 46.40 14.07L46.43 14.10L46.48 14.15Q46.80 12.03 50.49 12.00L50.48 11.98L50.47 11.97Q54.73 11.94 56.18 12.13L56.12 12.07L56.09 12.04Q59.91 12.55 60.37 14.57L60.49 14.69L60.47 14.67Q60.57 15.27 60.57 15.65L60.54 15.61L60.49 15.56Q60.50 16.26 60.31 16.87L60.23 16.79L60.31 16.87Q59.80 21.20 56.87 22.72L56.76 22.60L56.76 22.61Q60.19 23.34 60.69 28.63L60.74 28.68L60.77 28.71Q60.70 28.79 60.74 30.09L60.90 30.25L60.73 30.08Q60.92 32.93 59.32 34.00L59.30 33.98L59.30 33.97Q57.89 34.81 53.32 35.27ZM55.73 37.71L55.71 37.69L58.96 37.67L59.08 37.79Q60.74 37.81 62.26 37.09L62.14 36.97L62.15 36.98Q63.42 36.38 63.49 34.52L63.47 34.49L63.39 34.41Q63.40 33.28 63.01 31.34L63.09 31.41L63.01 31.33Q62.14 26.72 60.04 24.86L60.09 24.90L60.00 24.63L59.66 24.21L59.61 24.05L59.51 23.95Q61.25 22.68 62.16 18.53L62.18 18.54L62.02 18.39Q62.15 18.14 62.23 17.30L62.25 17.32L62.25 17.32Q62.32 16.63 62.24 16.02L62.14 15.92L62.25 16.03Q62.03 14.52 60.85 14.02L60.90 14.07L60.80 13.94L60.67 13.88L60.64 13.84Q60.50 13.25 59.32 12.45L59.22 12.35L59.20 12.29L59.37 12.46Q57.41 11.80 53.34 11.61L53.24 11.51L53.22 11.49Q51.74 11.45 50.37 11.57L50.23 11.43L50.21 11.42Q49.44 11.47 48.14 11.63L48.12 11.61L48.25 11.73Q46.26 12.07 46.03 13.70L46.06 13.74L46.09 13.76Q45.93 14.14 45.97 14.94L46.02 14.99L46.05 15.02Q46.13 15.52 46.70 17.88L46.83 18.00L46.64 17.82Q47.52 21.14 49.28 22.47L49.23 22.42L49.44 22.63L49.26 22.46Q46.65 23.91 46.11 29.09L46.09 29.07L46.11 29.09Q45.89 31.26 45.89 32.18L45.79 32.07L45.84 32.13Q46.02 34.02 47.20 34.94L47.13 34.86L47.05 34.79Q47.30 35.00 47.57 35.19L47.43 35.05L47.43 35.05Q48.58 37.46 55.70 37.69ZM55.21 26.46L55.31 26.56L55.37 26.62Q56.30 26.56 57.18 27.02L57.01 26.85L57.13 26.97Q57.40 27.85 57.36 28.38L57.44 28.46L57.46 28.48Q57.56 28.85 57.56 29.15L57.51 29.11L57.50 29.09Q57.49 31.44 55.20 32.28L55.28 32.36L55.14 32.22Q54.34 32.52 53.54 32.40L53.66 32.52L53.52 32.39Q52.47 32.56 51.33 32.10L51.38 32.15L51.35 32.12Q51.08 31.47 51.16 30.48L51.08 30.41L51.07 30.40Q51.31 28.89 52.51 27.67L52.60 27.75L52.52 27.68Q53.63 26.37 55.23 26.48ZM55.43 16.98L55.48 17.03L55.52 17.06Q56.23 16.86 56.76 17.01L56.80 17.05L56.89 17.94L56.92 17.97Q56.77 19.23 55.86 20.24L55.98 20.36L55.93 20.31Q55.08 21.38 53.71 21.19L53.63 21.11L53.74 21.22Q52.69 21.16 52.27 20.93L52.23 20.89L52.22 20.88Q52.20 20.63 52.08 19.95L52.12 19.99L52.19 20.06Q51.92 18.65 53.14 17.81L53.05 17.71L53.12 17.79Q54.13 17.04 55.54 17.08Z"/><path fill="#333" d="M18.82 10.95L18.72 10.85L18.74 10.88Q20.62 15.72 21.19 20.90L21.23 20.94L21.27 20.98Q24.81 16.68 30.71 11.84L30.80 11.93L30.70 11.83Q34.04 11.67 36.67 10.87L36.72 10.92L30.13 16.51L30.02 16.41Q26.65 19.40 23.80 22.25L23.72 22.17L23.82 22.27Q31.79 31.42 36.85 36.14L36.89 36.18L36.88 36.17Q33.72 35.18 31.40 35.03L31.40 35.03L31.51 35.14Q25.57 29.58 21.27 23.76L21.32 23.81L21.39 23.88Q21.47 30.46 19.60 35.79L19.61 35.80L19.63 35.82Q19.36 35.82 18.86 36.01L18.92 36.06L18.74 36.07L18.83 36.17Q18.58 36.14 16.03 37.05L16.03 37.05L16.03 37.06Q19.01 30.52 18.67 23.06L18.66 23.05L18.75 23.14Q18.38 15.76 14.84 9.26L14.90 9.32L15.29 9.44L15.79 9.83L15.76 9.75L15.84 9.84Q16.49 10.15 18.70 10.83ZM18.98 10.54L19.07 10.64L18.94 10.50Q16.63 9.90 14.00 8.38L14.15 8.53L14.07 8.45Q18.42 15.80 18.42 24.75L18.38 24.71L18.44 24.77Q18.36 31.69 15.39 37.75L15.47 37.83L17.34 36.81L17.35 36.82Q17.05 37.93 16.37 39.22L16.28 39.14L16.35 39.21Q18.53 38.34 20.47 37.92L20.54 37.99L20.68 37.90L20.56 37.78Q20.81 37.73 21.38 37.58L21.38 37.57L21.55 37.75Q23.08 31.70 23.20 26.90L23.31 27.02L23.18 26.89Q25.37 29.49 27.20 31.36L27.09 31.26L27.17 31.33Q28.29 32.38 31.30 35.35L31.41 35.46L31.32 35.37L31.35 35.40Q32.37 36.23 34.23 37.82L34.28 37.88L34.26 37.85Q38.21 38.64 41.67 40.35L41.66 40.34L41.66 40.34Q32.22 31.62 25.98 24.20L26.01 24.23L26.06 24.28Q30.55 20.10 39.31 11.49L39.26 11.44L39.21 11.40Q36.63 12.51 34.61 12.89L34.60 12.87L34.70 12.97Q35.85 11.92 38.17 9.90L38.26 9.99L38.20 9.93Q34.14 11.39 30.79 11.58L30.75 11.54L30.65 11.44Q27.73 13.65 22.85 18.34L22.90 18.38L22.84 18.33Q22.58 15.86 22.01 13.31L21.90 13.20L21.87 13.17Q20.82 13.14 19.83 12.80L19.72 12.69L19.74 12.71Q19.60 12.04 19.03 10.59Z"/><path fill="#222" d="M163.58 35.41L163.49 35.32L163.46 35.29Q162.01 35.33 160.45 34.91L160.48 34.94L160.56 35.02Q159.28 34.05 159.13 32.41L159.26 32.54L159.13 32.41Q159.19 32.31 159.38 29.69L159.25 29.56L159.35 29.66Q160.30 29.39 162.32 29.01L162.39 29.08L162.26 29.91L162.16 29.81Q161.89 31.55 163.30 32.13L163.34 32.17L163.24 32.06Q164.13 32.49 166.22 32.49L166.18 32.46L166.14 32.41Q167.86 32.38 168.05 32.31L167.95 32.21L168.05 32.30Q168.87 32.06 169.59 31.56L169.60 31.57L169.62 31.59Q171.12 30.73 170.93 28.64L170.84 28.55L170.93 28.64Q170.59 26.05 168.86 24.49L168.88 24.52L168.95 24.59Q167.15 22.96 164.68 22.96L164.70 22.98L164.76 22.81L164.65 22.71Q165.04 22.67 165.92 22.60L166.07 22.76L165.95 22.63Q167.81 22.48 169.19 21.24L169.30 21.35L169.30 21.35Q170.54 19.99 170.69 18.12L170.72 18.15L170.70 18.13Q170.83 17.85 170.83 17.50L170.92 17.59L170.83 17.50Q170.87 16.01 169.50 15.10L169.53 15.13L169.57 15.17Q168.34 14.36 166.74 14.48L166.76 14.49L166.67 14.40Q165.37 14.24 164.15 14.66L164.09 14.61L164.14 14.65Q162.78 15.28 162.48 16.42L162.33 16.27L162.38 16.32Q162.31 17.20 162.38 17.96L162.32 17.90L162.27 17.84Q161.34 17.72 159.29 17.00L159.17 16.88L159.30 17.01Q158.99 15.25 159.03 14.41L158.98 14.36L158.97 14.36Q159.19 12.94 160.26 12.26L160.28 12.28L160.25 12.25Q161.51 11.49 163.11 11.49L163.24 11.62L163.19 11.57Q166.42 11.60 169.58 11.87L169.56 11.85L169.51 11.81Q174.60 12.25 174.29 16.01L174.37 16.09L174.26 15.98Q174.14 17.42 173.64 18.98L173.79 19.13L173.64 18.97Q172.72 22.06 170.36 22.97L170.52 23.13L170.53 23.14Q173.05 23.57 173.66 26.92L173.63 26.89L173.71 26.96Q173.88 28.05 173.96 30.07L173.92 30.03L173.98 30.09Q174.16 34.57 169.55 35.03L169.61 35.09L169.54 35.02Q168.72 35.00 163.43 35.27ZM168.82 37.68L168.69 37.55L168.66 37.53Q169.30 37.59 172.16 37.67L172.17 37.69L172.11 37.62Q174.02 37.85 175.65 37.21L175.55 37.11L175.65 37.21Q176.77 36.19 176.58 34.44L176.54 34.40L176.58 34.44Q176.41 33.05 176.10 31.30L176.18 31.38L176.18 31.38Q175.39 26.81 173.44 25.18L173.53 25.27L173.26 24.80L173.19 24.70L173.16 24.66Q174.96 23.27 175.72 18.89L175.74 18.91L175.72 18.89Q175.73 18.40 175.84 17.45L175.93 17.54L175.93 17.53Q176.06 16.82 175.98 16.14L175.93 16.09L175.92 16.08Q175.69 14.32 174.39 13.64L174.41 13.65L174.43 13.76L174.39 13.72Q174.06 12.70 172.92 12.16L173.03 12.28L172.98 12.23Q171.42 11.50 166.28 11.20L166.35 11.27L166.26 11.18Q164.54 11.06 162.94 11.06L162.96 11.08L163.00 11.12Q161.37 11.08 159.84 11.73L159.88 11.76L159.80 11.68Q158.65 12.51 158.65 14.26L158.70 14.32L158.58 14.19Q158.76 13.96 159.03 17.31L159.04 17.32L159.01 17.29Q159.34 17.39 160.98 18.00L160.95 17.98L160.78 17.81Q160.96 18.52 160.92 19.01L160.86 18.95L160.80 18.89Q160.78 19.37 160.82 19.90L160.84 19.92L160.93 20.01Q162.75 20.42 164.77 20.54L164.76 20.53L164.68 20.45Q164.65 18.48 165.76 17.64L165.74 17.62L165.82 17.70Q166.58 16.98 168.60 16.75L168.50 16.65L168.54 16.69Q169.70 16.71 170.27 16.90L170.24 16.87L170.20 16.83Q170.39 17.10 170.43 17.21L170.34 17.12L170.40 17.37L170.49 17.92L170.41 17.84Q170.49 18.11 170.45 18.26L170.39 18.20L170.43 18.24Q170.30 19.90 168.78 21.09L168.92 21.22L168.92 21.22Q167.99 22.12 165.97 22.31L165.86 22.20L165.83 22.17Q165.28 22.50 164.41 22.50L164.39 22.48L164.22 22.31Q164.39 22.79 164.55 23.47L164.49 23.42L164.41 23.33Q166.21 23.39 167.66 24.11L167.72 24.17L167.49 24.05L166.01 24.33L165.95 24.26Q166.10 24.72 166.22 25.33L166.18 25.29L166.26 25.38Q168.26 25.17 169.97 26.50L170.11 26.64L170.06 26.59Q170.26 26.94 170.56 28.58L170.61 28.62L170.56 28.58Q170.76 31.52 167.83 31.93L167.72 31.82L167.89 32.00Q165.74 32.21 165.17 32.17L165.20 32.20L165.10 32.10Q164.63 31.97 164.10 31.89L164.20 32.00L164.07 31.41L164.21 30.98L164.35 30.70L164.25 30.26L164.40 30.41Q163.30 30.34 162.50 30.53L162.61 30.63L162.52 30.54Q162.47 30.31 162.47 30.12L162.48 30.13L162.50 30.15Q162.51 29.92 162.51 29.69L162.61 29.80L162.60 29.79Q162.60 29.34 162.76 28.61L162.86 28.71L162.69 28.55Q160.98 28.93 159.11 29.27L159.06 29.22L159.10 29.26Q159.14 29.80 159.03 30.92L158.94 30.83L158.92 30.81Q158.75 31.88 158.75 32.49L158.76 32.50L158.87 32.61Q158.95 34.67 160.32 35.43L160.32 35.43L160.29 35.40Q161.68 37.58 166.40 37.39L166.54 37.53L166.40 37.39Q167.20 37.43 168.72 37.59Z"/><path fill="#333" d="M137.52 35.00L137.43 34.90L137.47 34.94Q133.35 34.44 131.52 33.00L131.37 32.84L131.44 32.91Q129.62 31.47 129.20 28.46L129.12 28.38L129.10 28.37Q129.23 28.15 128.89 23.39L128.77 23.27L128.71 23.21Q128.98 22.26 128.90 21.01L128.87 20.98L128.76 20.86Q128.64 15.87 130.85 14.12L130.87 14.14L130.91 14.18Q133.53 12.04 141.29 11.35L141.18 11.25L141.33 11.39Q142.65 11.23 144.28 11.26L144.14 11.12L144.27 11.25Q144.13 11.11 147.10 11.11L147.21 11.22L147.13 11.14Q148.10 11.28 149.82 11.43L149.79 11.41L149.77 11.39Q149.26 12.31 148.23 15.40L148.27 15.44L148.19 15.36Q146.14 14.19 143.14 14.19L143.07 14.12L143.06 14.11Q142.31 14.12 141.51 14.20L141.63 14.32L141.61 14.30Q136.50 14.75 133.99 16.73L133.85 16.59L133.87 16.61Q131.92 18.27 131.77 21.62L131.76 21.62L131.74 21.60Q131.73 22.23 131.76 23.49L131.72 23.45L131.73 23.45Q131.91 28.36 134.31 30.45L134.25 30.39L134.30 30.45Q136.53 32.44 141.51 32.74L141.35 32.58L141.41 32.64Q144.51 32.77 147.52 30.98L147.60 31.06L147.55 31.01Q148.15 33.74 148.75 35.11L148.86 35.21L148.76 35.12Q146.70 35.42 145.06 35.38L145.14 35.46L145.00 35.32Q140.64 35.37 137.52 34.99ZM152.55 38.64L152.54 38.63L152.53 38.62Q150.70 35.57 150.01 32.98L150.02 32.99L150.15 33.12Q149.62 33.27 148.63 33.65L148.58 33.61L148.69 33.72Q148.33 32.90 148.14 32.06L148.20 32.12L147.81 30.40L147.75 30.34Q144.50 32.42 141.38 32.30L141.44 32.37L141.37 32.30Q137.09 32.09 134.77 30.34L134.75 30.32L134.72 30.29Q133.68 28.56 133.75 25.63L133.69 25.56L133.66 25.53Q133.93 21.16 136.41 19.03L136.32 18.94L136.42 19.04Q138.50 17.09 143.19 16.49L143.16 16.46L143.09 16.39Q143.87 16.25 144.59 16.25L144.64 16.30L144.73 16.39Q147.53 16.42 149.63 17.94L149.60 17.92L149.52 17.83Q150.00 15.69 151.22 12.45L151.28 12.51L151.29 12.52Q150.90 12.40 150.35 12.34L150.44 12.43L150.36 12.35Q149.88 12.36 149.61 12.36L149.59 12.34L149.59 12.35Q149.79 11.82 150.24 10.83L150.34 10.92L150.32 10.91Q149.96 10.77 147.46 10.69L147.49 10.72L147.53 10.76Q145.03 10.68 144.39 10.72L144.43 10.76L144.37 10.70Q133.83 11.02 130.37 13.61L130.43 13.67L130.45 13.68Q128.42 15.50 128.42 19.42L128.47 19.47L128.46 19.46Q128.41 20.51 128.52 23.22L128.48 23.18L128.45 23.14Q128.70 26.82 128.93 28.53L128.93 28.53L128.91 28.51Q129.32 31.67 130.92 33.19L130.91 33.18L130.96 33.23Q131.32 33.78 132.58 34.93L132.64 34.98L132.52 34.87Q135.99 36.85 141.24 37.61L141.04 37.41L141.15 37.52Q147.57 38.46 152.56 38.65Z"/><path d="M15 20 C113 26,117 10,187 17" stroke="#777" fill="none"/><path d="M9 16 C94 35,105 35,186 14" stroke="#111" fill="none"/><path fill="#222" d="M107.68 24.66L107.64 24.62L107.57 24.55Q107.58 28.83 106.86 32.98L106.96 33.08L106.85 32.97Q109.09 32.39 112.17 32.28L112.34 32.45L112.36 32.47Q113.60 32.57 114.67 31.56L114.67 31.56L114.68 31.57Q115.83 30.64 115.83 29.31L115.71 29.20L115.72 29.20Q115.73 28.90 115.69 28.64L115.77 28.72L115.68 28.63Q115.64 25.80 113.39 24.97L113.21 24.79L113.33 24.91Q112.62 24.66 111.94 24.73L111.83 24.63L111.91 24.70Q110.76 24.55 109.73 24.58L109.71 24.56L109.74 24.59Q108.79 24.74 107.76 24.74ZM106.37 14.14L106.48 14.25L106.39 14.16Q107.38 17.59 107.65 21.97L107.67 21.99L107.54 21.86Q108.99 21.97 111.65 22.01L111.75 22.11L111.72 22.08Q114.70 22.16 115.04 18.62L115.00 18.59L114.89 18.47Q115.10 16.56 113.70 15.72L113.82 15.84L113.76 15.78Q112.81 15.22 108.40 14.57L108.45 14.62L108.40 14.57Q107.41 14.49 106.50 14.27ZM102.84 37.14L102.86 37.17L102.84 37.14Q105.34 30.51 105.08 23.13L104.98 23.03L104.92 22.97Q104.65 15.70 101.72 9.22L101.84 9.35L101.79 9.30Q105.66 11.91 111.89 12.16L111.69 11.96L111.77 12.04Q117.96 12.26 118.30 15.15L118.42 15.26L118.42 15.26Q118.64 17.92 117.23 20.58L117.30 20.65L117.39 20.74Q116.56 22.16 114.96 22.85L114.88 22.76L114.90 22.79Q118.61 23.53 118.84 28.90L118.87 28.93L118.75 28.80Q118.96 30.04 118.88 31.45L118.81 31.38L118.73 31.29Q118.77 32.71 117.84 33.64L117.86 33.67L117.92 33.72Q116.86 34.53 115.53 34.68L115.53 34.68L115.50 34.66Q114.23 34.94 113.16 34.94L113.08 34.86L113.01 34.79Q107.41 34.90 102.88 37.19ZM115.66 37.48L115.56 37.38L115.49 37.31Q116.44 37.38 118.31 37.50L118.33 37.52L118.47 37.66Q119.90 37.72 121.01 36.85L120.85 36.69L120.81 36.65Q121.69 35.82 121.57 34.25L121.68 34.36L121.65 34.33Q121.59 33.40 120.87 29.93L120.80 29.87L120.72 29.78Q120.15 26.67 118.29 25.18L118.25 25.14L117.87 24.35L117.77 24.25Q119.42 22.81 119.99 19.04L120.13 19.18L120.10 19.15Q120.30 18.06 120.22 16.65L120.21 16.63L120.16 16.59Q120.17 15.34 119.06 14.50L119.01 14.45L119.01 14.44Q118.66 14.21 118.54 14.17L118.59 14.21L118.52 14.14Q118.41 13.77 117.57 12.97L117.40 12.80L117.55 12.95Q116.04 11.89 111.81 11.70L111.72 11.61L111.68 11.57Q105.15 11.40 101.15 8.50L101.21 8.56L101.02 8.37Q104.29 15.38 104.60 22.91L104.78 23.10L104.70 23.01Q105.05 30.86 102.23 37.79L102.29 37.86L104.21 36.77L104.24 36.80Q103.94 38.01 103.44 39.15L103.36 39.07L103.41 39.12Q107.72 37.27 112.75 37.27L112.78 37.30L112.79 37.31Q114.04 37.16 115.49 37.31ZM113.53 26.93L113.52 26.93L113.52 26.93Q114.22 26.82 115.13 27.28L115.09 27.24L115.13 27.28Q115.13 27.50 115.28 28.57L115.29 28.58L115.31 28.60Q115.49 29.96 114.56 31.01L114.55 31.00L114.64 31.09Q113.69 32.12 112.28 32.00L112.36 32.09L110.81 32.13L110.82 32.14Q110.09 32.21 109.37 32.33L109.36 32.32L109.21 32.17Q109.55 30.38 109.63 26.91L109.76 27.05L109.58 26.87Q110.24 26.80 111.50 26.77L111.50 26.77L111.66 26.93Q112.78 26.75 113.39 26.79ZM112.45 17.29L112.36 17.20L112.77 17.23L112.84 17.30Q112.97 17.20 113.16 17.24L113.24 17.32L113.62 17.32L113.91 17.42L114.62 17.60L114.55 17.52Q114.62 17.74 114.62 18.05L114.72 18.15L114.70 18.66L114.65 18.61Q114.58 19.80 113.70 20.73L113.74 20.77L113.73 20.76Q112.93 21.77 111.71 21.77L111.64 21.70L111.58 21.64Q110.57 21.65 110.57 21.65L110.56 21.65L110.68 21.77Q109.21 21.59 109.56 21.59L109.60 21.64L109.61 21.64Q109.58 20.13 109.28 17.08L109.37 17.18L109.32 17.13Q110.91 17.27 112.43 17.27Z"/></svg>