<svg xmlns="http://www.w3.org/2000/svg" width="200" height="40" viewBox="0,0,200,40"><path fill="#333" d="M158.73 34.06L158.59 33.92L158.65 33.98Q160.36 31.44 165.12 24.16L165.22 24.26L165.14 24.18Q169.32 18.12 172.17 14.84L172.08 14.75L172.09 14.76Q170.15 15.22 168.06 15.22L167.97 15.13L167.96 15.12Q162.67 15.09 158.67 13.30L158.72 13.35L158.64 13.27Q158.05 11.42 157.36 9.85L157.43 9.92L157.37 9.86Q161.91 12.01 167.59 12.12L167.52 12.06L167.59 12.12Q172.74 12.21 177.92 10.31L177.94 10.34L177.97 10.36Q177.54 11.15 177.24 11.95L177.19 11.90L176.59 13.48L176.62 13.50Q173.52 17.11 169.53 22.93L169.65 23.05L166.30 27.86L166.29 27.84Q164.51 30.18 162.69 32.46L162.79 32.56L162.66 32.43Q166.09 31.95 169.40 32.02L169.31 31.93L169.32 31.94Q172.67 32.05 175.83 32.97L175.87 33.01L176.34 34.58L176.28 34.53Q176.62 35.44 176.97 36.27L176.88 36.18L176.87 36.18Q172.30 34.69 167.16 34.88L167.21 34.94L167.11 34.83Q162.09 35.14 157.60 37.16L157.55 37.11L157.59 37.15Q157.82 35.94 158.55 33.88ZM156.95 37.81L157.00 37.85L156.89 37.75Q158.16 37.19 158.96 36.92L158.95 36.91L158.97 36.93Q158.74 37.73 158.06 39.25L158.07 39.27L158.06 39.26Q163.68 37.04 169.66 37.26L169.67 37.27L169.66 37.27Q175.92 37.43 180.94 40.21L180.95 40.22L181.01 40.28Q179.60 37.88 178.80 35.71L178.90 35.81L178.75 35.66Q178.22 35.40 176.70 34.83L176.75 34.88L176.85 34.98Q176.57 34.13 176.16 32.65L176.15 32.64L176.11 32.60Q171.94 31.40 166.84 31.59L166.97 31.72L166.84 31.59Q169.08 28.96 172.62 23.40L172.58 23.36L172.54 23.32Q176.18 17.59 178.08 15.04L178.26 15.22L178.18 15.14Q178.71 13.77 179.74 11.07L179.59 10.92L179.63 10.96Q178.98 11.33 177.53 11.94L177.55 11.96L177.46 11.87Q177.96 11.23 178.68 9.71L178.67 9.69L178.54 9.56Q173.37 11.86 167.66 11.78L167.68 11.80L167.52 11.64Q161.53 11.51 156.58 9.00L156.69 9.11L156.57 8.98Q157.86 11.50 158.59 13.74L158.56 13.72L158.46 13.62Q159.60 14.19 160.40 14.42L160.39 14.41L160.50 14.52Q160.75 15.18 161.01 16.63L160.97 16.59L160.91 16.53Q164.69 17.64 169.57 17.45L169.62 17.51L169.49 17.37Q167.08 20.56 163.77 25.55L163.85 25.63L158.33 33.97L158.27 33.91Q158.02 35.30 156.99 37.85Z"/><path fill="#222" d="M112.70 27.19L103.45 17.17L103.49 17.21Q104.16 20.74 104.16 24.47L104.29 24.61L104.26 24.57Q104.29 30.58 102.23 36.14L102.27 36.17L102.20 36.11Q101.09 36.32 98.84 37.08L98.91 37.15L98.84 37.08Q101.67 31.31 101.67 24.61L101.64 24.58L101.66 24.60Q101.63 15.93 97.14 8.51L97.26 8.63L97.21 8.57Q97.54 8.64 98.22 9.06L98.26 9.09L98.38 9.22Q110.47 20.43 118.31 29.68L118.35 29.72L118.32 29.68Q118.04 27.28 118.04 24.84L117.99 24.79L118.02 24.82Q117.89 17.45 120.40 11.25L120.56 11.41L120.56 11.41Q122.84 10.83 124.44 10.15L124.44 10.15L124.35 10.06Q121.09 16.28 120.79 23.44L120.77 23.42L120.81 23.46Q120.51 30.82 123.48 36.98L123.42 36.92L123.38 36.88Q122.85 36.84 122.43 36.65L122.40 36.63L122.40 36.62Q117.87 32.70 112.66 27.15L112.73 27.22ZM126.00 40.07L126.14 40.21L126.15 40.22Q126.61 40.37 127.02 40.56L127.00 40.54L127.86 40.90L127.88 40.92Q122.70 33.95 122.70 24.59L122.74 24.63L122.69 24.58Q122.61 17.27 125.93 11.03L126.01 11.11L126.03 11.14Q125.29 11.27 123.88 11.88L123.92 11.91L123.99 11.98Q124.26 11.04 125.10 9.48L125.16 9.54L125.11 9.49Q122.73 10.46 120.30 11.03L120.14 10.88L120.19 10.92Q117.62 17.45 117.62 24.88L117.60 24.86L117.63 24.88Q117.48 26.61 117.68 28.59L117.69 28.60L117.74 28.65Q113.07 22.95 108.31 18.35L108.37 18.40L98.32 8.74L98.22 8.64Q97.75 8.43 96.53 7.86L96.52 7.86L96.47 7.80Q101.27 15.46 101.27 24.56L101.44 24.72L101.38 24.67Q101.36 31.76 98.27 37.78L98.25 37.75L98.37 37.88Q98.66 37.75 100.30 37.14L100.14 36.98L100.14 36.98Q99.94 37.88 99.10 39.36L99.12 39.39L99.16 39.42Q100.42 38.81 103.88 38.02L103.85 37.98L103.90 38.03Q106.21 31.89 106.21 24.70L106.14 24.63L106.20 24.68Q106.21 22.61 105.99 20.48L105.89 20.38L105.97 20.46Q117.54 33.36 126.14 40.22Z"/><path d="M14 24 C88 18,98 11,198 37" stroke="#333" fill="none"/><path fill="#333" d="M55.93 15.17L55.98 15.22L55.91 15.15Q51.51 15.06 47.82 14.07L47.90 14.14L47.76 14.01Q49.43 18.72 49.62 23.56L49.60 23.54L49.63 23.57Q49.67 28.22 48.46 32.82L48.54 32.91L48.53 32.90Q51.38 32.32 54.88 32.16L54.87 32.15L54.84 32.13Q58.72 31.90 60.51 29.46L60.54 29.49L60.51 29.46Q62.00 27.37 62.19 23.26L62.31 23.38L62.36 23.43Q62.31 21.55 61.86 19.84L61.84 19.82L61.99 19.97Q60.54 15.06 55.82 15.06ZM43.88 37.04L43.88 37.04L44.04 37.21Q46.90 31.49 46.90 24.79L46.95 24.85L46.86 24.75Q46.91 16.28 42.61 9.28L42.53 9.19L42.55 9.22Q47.73 11.80 55.99 11.99L56.16 12.16L56.05 12.06Q64.93 12.25 65.27 19.41L65.20 19.34L65.26 19.40Q65.49 22.22 65.45 23.66L65.36 23.57L65.32 23.53Q65.30 28.27 64.46 30.44L64.45 30.43L64.52 30.50Q64.11 31.61 63.35 32.45L63.24 32.34L63.35 32.45Q61.84 33.83 59.21 34.33L59.21 34.33L59.36 34.47Q57.79 34.77 54.78 35.00L54.73 34.95L54.75 34.97Q48.58 35.38 43.97 37.13ZM61.97 37.08L61.96 37.07L61.86 36.98Q64.73 36.77 66.37 35.28L66.21 35.12L66.33 35.24Q67.51 33.45 67.47 30.71L67.38 30.62L67.34 30.58Q67.45 29.32 67.30 25.82L67.33 25.85L66.88 21.21L66.88 21.21Q66.79 19.03 65.84 16.93L65.77 16.86L65.69 16.78Q65.28 15.96 64.59 15.31L64.58 15.29L64.57 15.13L64.51 15.07Q62.84 12.15 58.43 11.77L58.44 11.78L58.50 11.84Q55.74 11.63 48.74 10.91L48.73 10.91L48.86 11.04Q45.41 10.40 41.72 8.38L41.83 8.50L41.81 8.48Q46.70 15.91 46.70 24.67L46.59 24.56L46.73 24.71Q46.73 31.70 43.38 37.87L43.37 37.86L43.38 37.87Q43.95 37.50 45.29 37.00L45.27 36.98L45.34 37.05Q45.01 37.91 44.14 39.39L44.13 39.39L44.05 39.30Q47.14 38.28 50.49 37.79L50.42 37.72L50.41 37.71Q52.50 37.40 56.15 37.28L56.20 37.33L56.15 37.29Q60.00 37.14 61.83 36.95ZM61.92 23.37L62.00 23.45L61.93 23.38Q61.52 31.34 54.82 31.72L54.94 31.84L54.76 31.66Q53.01 31.98 50.96 32.24L50.90 32.19L50.96 32.24Q51.64 28.35 51.64 24.70L51.60 24.66L51.54 24.60Q51.57 20.94 50.85 17.09L50.85 17.10L50.83 17.07Q53.13 17.47 57.81 17.47L57.79 17.45L57.74 17.40Q59.06 17.20 60.70 18.15L60.82 18.27L60.80 18.25Q62.13 20.57 61.97 23.42Z"/><path d="M12 19 C89 36,121 37,188 20" stroke="#777" fill="none"/><path fill="#222" d="M18.72 10.86L18.64 10.78L18.77 10.91Q20.55 15.65 21.12 20.83L21.30 21.01L21.25 20.96Q24.84 16.71 30.74 11.87L30.74 11.87L30.86 11.99Q34.03 11.66 36.66 10.86L36.64 10.84L30.11 16.50L30.08 16.46Q26.55 19.29 23.70 22.15L23.85 22.31L23.75 22.20Q31.82 31.45 36.88 36.17L36.91 36.20L36.84 36.13Q33.67 35.13 31.35 34.98L31.48 35.11L31.48 35.11Q25.71 29.72 21.41 23.89L21.35 23.84L21.31 23.80Q21.47 30.47 19.61 35.80L19.65 35.84L19.64 35.83Q19.35 35.81 18.86 36.00L18.86 36.01L18.87 36.20L18.72 36.06Q18.71 36.27 16.15 37.18L16.07 37.10L15.98 37.01Q19.07 30.58 18.73 23.12L18.70 23.09L18.56 22.95Q18.40 15.78 14.86 9.27L14.91 9.33L15.25 9.40L15.68 9.72L15.78 9.78L15.79 9.79Q16.55 10.20 18.75 10.89ZM18.92 10.48L19.04 10.60L19.02 10.58Q16.75 10.03 14.13 8.50L14.07 8.45L14.03 8.41Q18.39 15.78 18.39 24.72L18.44 24.77L18.46 24.80Q18.46 31.79 15.49 37.85L15.45 37.81L17.35 36.82L17.52 36.99Q17.02 37.90 16.33 39.19L16.38 39.24L16.42 39.27Q18.54 38.35 20.48 37.93L20.49 37.94L20.59 37.81L20.57 37.79Q20.90 37.81 21.47 37.66L21.41 37.60L21.48 37.67Q23.06 31.68 23.18 26.88L23.18 26.89L23.22 26.93Q25.42 29.54 27.24 31.41L27.08 31.24L27.08 31.25Q28.37 32.46 31.38 35.43L31.35 35.39L31.35 35.40L31.46 35.51Q32.30 36.16 34.17 37.76L34.27 37.86L34.26 37.85Q38.06 38.49 41.52 40.20L41.51 40.19L41.58 40.26Q32.29 31.69 26.05 24.27L25.97 24.19L26.05 24.28Q30.41 19.95 39.16 11.35L39.25 11.43L39.27 11.45Q36.56 12.44 34.55 12.82L34.60 12.88L34.71 12.99Q35.88 11.95 38.21 9.93L38.17 9.90L38.13 9.86Q33.99 11.24 30.64 11.43L30.74 11.52L30.76 11.55Q27.82 13.75 22.95 18.43L23.00 18.48L22.83 18.31Q22.54 15.82 21.97 13.26L21.99 13.28L21.91 13.21Q20.87 13.19 19.88 12.85L19.71 12.68L19.89 12.86Q19.64 12.08 19.07 10.63Z"/><path fill="#222" d="M77.18 14.17L77.25 14.24L77.27 14.26Q78.23 18.57 78.39 21.77L78.51 21.89L78.47 21.86Q79.01 21.94 83.39 22.06L83.41 22.07L83.31 21.97Q85.88 22.03 86.26 18.57L86.34 18.65L86.34 18.64Q86.44 16.81 85.53 15.89L85.52 15.88L85.56 15.93Q84.34 15.09 82.36 14.94L82.31 14.88L82.23 14.80Q79.06 14.64 77.20 14.19ZM78.56 23.77L78.55 23.76L78.61 23.82Q78.82 29.86 77.03 35.80L76.97 35.73L77.01 35.78Q75.78 36.11 73.19 37.13L73.15 37.09L73.23 37.17Q75.93 30.54 75.59 23.08L75.64 23.14L75.57 23.07Q75.24 15.69 71.93 9.18L72.01 9.26L71.94 9.20Q76.80 12.00 83.76 12.00L83.85 12.09L83.90 12.14Q89.55 12.15 89.81 15.69L89.81 15.68L89.75 15.62Q89.84 16.25 89.77 16.86L89.75 16.84L89.66 17.97L89.75 18.06Q88.75 21.82 86.62 23.53L86.71 23.63L86.78 23.69Q85.97 24.37 84.94 24.37L84.81 24.23L82.34 24.36L82.24 24.26Q87.89 31.54 92.42 36.11L92.36 36.05L92.35 36.04Q90.27 35.41 87.34 35.07L87.26 34.98L87.28 35.00Q83.49 31.03 78.58 23.79ZM87.06 35.28L87.14 35.36L87.41 35.32L88.78 36.69L88.64 36.56Q89.33 37.20 89.98 37.81L89.89 37.72L89.86 37.70Q93.41 38.32 96.99 40.18L97.04 40.23L97.05 40.24Q90.17 33.56 84.77 26.63L84.82 26.68L86.41 26.53L86.54 26.65Q89.47 26.50 90.80 21.97L90.90 22.06L90.90 22.06Q91.64 19.91 91.64 17.21L91.54 17.11L91.62 17.19Q91.65 14.93 89.93 14.28L89.96 14.31L89.94 14.29Q89.75 13.83 89.18 13.15L89.16 13.13L89.19 13.16Q87.52 11.71 83.86 11.64L83.85 11.62L83.94 11.72Q76.05 11.56 71.37 8.55L71.22 8.40L71.26 8.44Q74.93 15.19 75.27 22.88L75.39 23.00L75.39 23.00Q75.77 30.99 72.65 37.84L72.54 37.74L72.52 37.71Q73.74 37.12 74.54 36.81L74.73 37.00L73.73 39.27L73.68 39.23Q76.42 38.19 79.08 37.70L79.02 37.64L79.08 37.69Q80.21 32.43 80.40 27.21L80.46 27.28L80.43 27.25Q83.91 32.17 87.07 35.29ZM85.90 17.44L85.87 17.42L85.98 17.52Q85.98 17.76 85.98 18.10L86.02 18.13L85.92 18.60L85.95 18.64Q85.95 19.74 85.26 20.69L85.25 20.68L85.33 20.76Q84.74 21.54 83.83 21.73L83.77 21.68L83.80 21.70Q83.44 21.61 81.84 21.65L81.86 21.66L81.87 21.67Q81.27 21.68 80.43 21.57L80.55 21.69L80.56 21.70Q80.41 20.14 80.06 17.09L80.13 17.16L80.13 17.16Q81.43 17.23 82.11 17.23L82.19 17.31L82.14 17.27Q83.91 17.20 85.85 17.39Z"/><path fill="#333" d="M145.06 23.61L145.08 23.63L139.18 23.71L139.31 23.84Q136.33 23.83 133.40 23.75L133.45 23.81L133.31 23.66Q133.57 30.51 131.52 36.03L131.37 35.89L131.41 35.92Q129.58 36.42 127.83 37.10L127.85 37.13L127.91 37.18Q130.72 31.50 130.72 24.84L130.59 24.71L130.70 24.83Q130.59 16.22 126.48 9.18L126.52 9.22L126.51 9.22Q128.04 10.02 130.51 10.82L130.55 10.85L130.62 10.92Q132.56 15.79 133.09 20.67L133.28 20.86L133.24 20.81Q136.47 21.27 139.33 21.23L139.34 21.24L139.20 21.11Q141.86 21.10 145.17 20.83L145.24 20.90L145.31 20.97Q145.69 16.47 147.44 11.37L147.33 11.26L147.50 11.43Q149.45 11.02 151.69 10.18L151.61 10.10L151.65 10.14Q147.95 16.80 147.95 24.75L147.95 24.75L147.96 24.76Q148.08 31.08 150.44 36.41L150.42 36.40L150.38 36.36Q148.72 35.69 146.67 35.38L146.68 35.39L146.69 35.41Q145.04 30.41 145.16 23.71ZM146.49 35.82L146.38 35.71L146.37 35.69Q147.37 35.82 148.47 36.09L148.49 36.10L148.57 36.19Q148.99 36.98 149.63 38.46L149.60 38.44L149.57 38.40Q152.98 39.41 154.77 40.33L154.75 40.31L154.76 40.32Q150.16 34.00 149.86 25.74L149.96 25.85L149.92 25.81Q149.57 17.72 153.22 10.91L153.37 11.06L152.22 11.43L152.27 11.49Q151.80 11.74 151.19 11.89L151.10 11.80L151.09 11.79Q151.47 10.95 152.31 9.39L152.39 9.47L152.33 9.41Q149.62 10.39 146.99 10.89L146.99 10.89L147.14 11.04Q145.41 15.82 144.96 20.50L144.94 20.48L144.90 20.45Q142.44 20.69 140.00 20.69L140.08 20.77L140.00 20.68Q137.62 20.71 135.11 20.55L135.15 20.59L135.04 20.49Q134.91 17.30 133.80 13.23L133.79 13.22L133.79 13.22Q133.13 13.13 131.69 12.75L131.64 12.70L131.73 12.79Q131.24 11.46 130.78 10.44L130.86 10.51L130.90 10.56Q128.04 9.68 125.76 8.42L125.78 8.44L125.85 8.52Q130.46 15.98 130.46 24.77L130.41 24.72L130.42 24.73Q130.43 31.71 127.31 37.84L127.19 37.73L127.17 37.70Q127.91 37.45 129.24 36.88L129.26 36.90L129.28 36.92Q129.00 37.82 128.20 39.34L128.16 39.30L128.11 39.25Q130.89 38.22 133.14 37.80L133.22 37.89L133.29 37.96Q135.05 32.30 135.24 26.13L135.25 26.14L135.26 26.15Q136.97 26.19 140.17 26.15L140.08 26.06L140.00 25.98Q142.93 26.01 144.84 26.09L144.77 26.02L144.80 26.05Q145.06 31.79 146.39 35.72Z"/></svg>