<svg xmlns="http://www.w3.org/2000/svg" width="200" height="40" viewBox="0,0,200,40"><path d="M2 30 C97 13,88 18,182 36" stroke="#777" fill="none"/><path fill="#333" d="M47.05 10.89L47.00 10.85L47.06 10.91Q48.95 15.77 49.53 20.95L49.48 20.90L49.41 20.84Q53.11 16.69 59.01 11.86L59.13 11.97L59.13 11.98Q62.31 11.66 64.94 10.86L64.93 10.85L58.43 16.53L58.37 16.47Q54.86 19.32 52.01 22.17L52.13 22.30L52.18 22.34Q60.03 31.38 65.09 36.10L65.04 36.04L65.10 36.11Q62.03 35.21 59.71 35.05L59.67 35.01L59.71 35.06Q53.82 29.55 49.52 23.72L49.57 23.78L49.69 23.89Q49.68 30.39 47.81 35.72L47.76 35.66L47.86 35.76Q47.66 35.83 47.16 36.02L47.16 36.01L47.15 36.20L47.16 36.21Q46.89 36.17 44.34 37.08L44.27 37.01L44.38 37.12Q47.32 30.55 46.98 23.09L46.85 22.96L47.03 23.14Q46.57 15.67 43.03 9.16L43.17 9.30L43.58 9.45L44.01 9.76L43.99 9.70L44.12 9.83Q44.79 10.16 47.00 10.85ZM47.32 10.60L47.27 10.54L47.25 10.53Q45.04 10.03 42.42 8.51L42.36 8.45L42.40 8.49Q46.60 15.70 46.60 24.65L46.75 24.79L46.65 24.70Q46.60 31.65 43.63 37.70L43.76 37.84L45.78 36.96L45.81 36.99Q45.39 37.98 44.71 39.27L44.69 39.26L44.73 39.30Q46.85 38.37 48.79 37.95L48.94 38.10L48.85 37.79L49.00 37.93Q49.22 37.85 49.79 37.69L49.68 37.59L49.77 37.68Q51.31 31.64 51.43 26.85L51.56 26.98L51.44 26.86Q53.67 29.51 55.50 31.38L55.47 31.35L55.51 31.39Q56.62 32.42 59.62 35.39L59.59 35.35L59.69 35.46L59.60 35.37Q60.74 36.31 62.61 37.91L62.45 37.75L62.46 37.76Q66.49 38.64 69.96 40.35L69.76 40.16L69.93 40.33Q60.64 31.76 54.40 24.34L54.27 24.21L54.30 24.24Q58.83 20.09 67.59 11.48L67.50 11.40L67.51 11.41Q64.86 12.45 62.84 12.83L62.87 12.86L62.96 12.95Q64.16 11.95 66.49 9.93L66.53 9.97L66.54 9.99Q62.37 11.33 59.02 11.52L58.93 11.43L58.93 11.43Q56.11 13.75 51.24 18.44L51.30 18.49L51.22 18.42Q50.89 15.88 50.32 13.33L50.18 13.19L50.20 13.21Q49.05 13.09 48.06 12.75L48.05 12.73L48.17 12.86Q47.93 12.09 47.36 10.64Z"/><path fill="#111" d="M82.92 25.49L82.96 25.53L82.81 25.37Q79.37 31.76 75.94 35.71L75.90 35.67L76.03 35.80Q74.17 36.23 71.73 37.10L71.70 37.07L71.69 37.06Q76.64 31.51 81.40 23.09L81.23 22.92L81.22 22.91Q76.66 15.99 70.68 9.59L70.78 9.69L70.83 9.74Q73.61 10.81 75.90 11.30L76.03 11.44L75.85 11.26Q80.50 16.48 82.94 20.44L83.10 20.60L83.11 20.62Q85.56 16.14 89.49 11.72L89.55 11.79L89.46 11.69Q91.09 11.43 94.29 10.66L94.20 10.58L94.18 10.56Q88.12 17.02 84.66 22.96L84.64 22.94L84.79 23.09Q89.93 31.74 94.31 36.31L94.19 36.19L94.20 36.19Q91.74 35.52 89.64 35.29L89.59 35.24L89.63 35.28Q86.76 32.22 82.84 25.41ZM89.44 35.51L89.53 35.60L89.46 35.53Q89.72 35.52 90.18 35.64L90.26 35.72L90.27 35.73Q91.02 36.44 92.54 38.04L92.66 38.15L92.58 38.07Q95.96 38.91 99.01 40.28L99.03 40.30L99.06 40.33Q91.73 33.54 86.63 24.78L86.63 24.78L86.72 24.87Q90.59 18.34 96.49 11.49L96.38 11.39L96.34 11.35Q95.04 12.14 92.87 12.67L92.73 12.53L92.84 12.65Q93.58 11.60 95.33 9.81L95.45 9.92L95.42 9.90Q93.07 10.81 89.38 11.38L89.27 11.28L89.37 11.38Q85.94 15.18 83.35 19.49L83.34 19.47L83.22 19.35Q82.32 17.77 81.14 16.28L81.30 16.44L78.96 13.46L78.58 13.45L78.60 13.47Q78.40 13.43 78.18 13.36L78.19 13.37L78.21 13.39Q77.40 12.43 75.91 10.87L76.01 10.96L76.02 10.98Q72.24 10.13 69.66 8.76L69.64 8.74L69.60 8.70Q76.32 15.96 80.89 23.00L80.99 23.10L80.96 23.07Q76.50 31.29 70.75 37.87L70.56 37.68L70.71 37.83Q72.04 37.18 74.17 36.61L74.17 36.61L72.85 38.03L72.89 38.07Q72.76 37.94 71.43 39.27L71.53 39.37L71.52 39.36Q74.55 38.32 77.71 37.82L77.56 37.68L77.69 37.81Q81.59 33.18 84.18 28.42L84.30 28.54L84.17 28.42Q86.73 32.64 89.43 35.50Z"/><path fill="#111" d="M165.76 34.94L165.71 34.90L165.81 34.99Q161.61 34.41 159.78 32.96L159.77 32.95L159.65 32.83Q157.95 31.52 157.54 28.51L157.39 28.37L157.44 28.42Q157.35 27.98 157.00 23.22L157.04 23.26L157.16 23.37Q157.16 22.16 157.09 20.91L157.03 20.85L157.14 20.96Q156.83 15.78 159.04 14.03L159.02 14.00L159.20 14.18Q161.80 12.03 169.57 11.35L169.54 11.32L169.62 11.39Q170.79 11.08 172.43 11.12L172.59 11.28L172.46 11.15Q172.54 11.24 175.51 11.24L175.54 11.26L175.45 11.17Q176.40 11.29 178.12 11.44L178.00 11.33L177.94 11.27Q177.47 12.24 176.44 15.33L176.59 15.48L176.45 15.34Q174.38 14.14 171.37 14.14L171.45 14.22L171.40 14.17Q170.58 14.11 169.78 14.19L169.86 14.27L169.88 14.29Q164.85 14.81 162.33 16.79L162.14 16.59L162.25 16.70Q160.28 18.35 160.12 21.70L160.03 21.61L160.16 21.73Q160.11 22.33 160.14 23.58L159.99 23.43L160.02 23.46Q160.19 28.35 162.59 30.45L162.52 30.37L162.67 30.52Q164.68 32.31 169.67 32.61L169.76 32.70L169.77 32.72Q172.85 32.82 175.85 31.03L175.90 31.08L175.87 31.04Q176.48 33.79 177.09 35.16L177.09 35.16L177.06 35.13Q175.06 35.49 173.42 35.45L173.29 35.32L173.27 35.30Q168.83 35.28 165.71 34.90ZM180.84 38.64L180.76 38.57L180.77 38.58Q179.12 35.71 178.43 33.12L178.39 33.07L178.40 33.08Q177.91 33.27 176.92 33.65L176.90 33.64L176.92 33.65Q176.69 32.98 176.50 32.14L176.41 32.05L175.97 30.27L176.13 30.44Q172.73 32.36 169.61 32.25L169.71 32.35L169.57 32.21Q165.48 32.20 163.16 30.45L163.02 30.31L163.06 30.35Q161.90 28.50 161.98 25.57L162.04 25.64L161.98 25.57Q162.16 21.11 164.63 18.97L164.57 18.91L164.65 18.99Q166.74 17.05 171.42 16.44L171.52 16.53L171.51 16.52Q172.21 16.31 172.94 16.31L172.96 16.34L172.98 16.36Q175.67 16.26 177.76 17.79L177.86 17.89L177.88 17.91Q178.24 15.64 179.46 12.40L179.48 12.43L179.60 12.55Q179.38 12.59 178.82 12.53L178.68 12.39L178.79 12.50Q178.13 12.34 177.87 12.34L177.86 12.32L177.88 12.34Q178.19 11.94 178.65 10.95L178.54 10.83L178.65 10.95Q178.31 10.83 175.81 10.76L175.91 10.86L175.80 10.74Q173.29 10.66 172.65 10.69L172.79 10.83L172.77 10.81Q162.12 11.02 158.66 13.61L158.75 13.70L158.67 13.62Q156.75 15.55 156.75 19.47L156.73 19.45L156.63 19.34Q156.70 20.52 156.81 23.22L156.90 23.31L156.93 23.33Q157.01 26.84 157.24 28.56L157.23 28.54L157.19 28.51Q157.64 31.70 159.24 33.22L159.10 33.08L159.23 33.22Q159.70 33.87 160.95 35.01L160.85 34.91L160.88 34.94Q164.10 36.68 169.35 37.44L169.53 37.61L169.53 37.61Q175.83 38.43 180.82 38.62Z"/><path fill="#444" d="M141.70 34.87L141.75 34.92L139.77 34.89L139.66 34.77Q138.74 34.81 137.79 34.92L137.87 35.00L137.89 35.02Q138.37 28.73 138.37 24.73L138.38 24.73L138.44 24.80Q134.40 18.05 126.75 9.37L126.78 9.41L126.88 9.50Q128.49 10.32 131.84 11.12L132.00 11.27L131.85 11.13Q136.91 16.72 139.91 21.93L139.96 21.98L140.06 22.08Q142.92 16.37 147.29 11.34L147.31 11.36L147.42 11.46Q149.76 10.99 152.28 10.19L152.34 10.26L152.29 10.21Q146.15 16.21 141.27 24.62L141.32 24.67L141.43 24.78Q141.45 31.84 141.75 34.93ZM150.68 12.18L153.52 9.46L153.38 9.32Q150.45 10.66 147.33 11.11L147.28 11.07L147.33 11.11Q143.02 15.75 140.21 20.85L140.16 20.81L140.31 20.96Q138.15 17.27 134.95 13.39L135.00 13.44L134.94 13.38Q134.70 13.41 134.21 13.33L134.11 13.24L134.17 13.30Q133.50 12.51 131.97 10.83L132.01 10.87L131.91 10.77Q128.55 10.04 125.58 8.48L125.59 8.48L125.48 8.38Q133.31 16.97 138.07 24.89L138.06 24.88L138.03 24.85Q137.97 31.22 137.36 35.37L137.37 35.38L137.41 35.42Q138.18 35.42 139.63 35.31L139.55 35.23L139.62 36.34L139.47 36.18Q139.61 36.78 139.53 37.31L139.44 37.22L139.41 37.19Q143.04 37.28 144.80 37.47L144.77 37.45L144.72 37.40Q143.54 32.79 143.42 26.81L143.47 26.85L143.47 26.86Q147.83 18.39 154.38 11.04L154.25 10.92L150.70 12.19Z"/><path d="M19 4 C101 24,98 19,183 34" stroke="#222" fill="none"/><path fill="#222" d="M26.28 25.41L26.37 25.51L26.22 25.36Q22.82 31.78 19.39 35.74L19.38 35.72L19.47 35.81Q17.44 36.07 15.00 36.94L15.16 37.10L15.05 36.99Q19.99 31.42 24.75 23.01L24.68 22.94L24.76 23.02Q20.14 16.05 14.17 9.65L14.12 9.61L14.09 9.57Q17.14 10.91 19.42 11.40L19.39 11.37L19.34 11.32Q23.93 16.48 26.37 20.44L26.40 20.47L26.46 20.53Q28.92 16.06 32.84 11.65L32.93 11.74L32.98 11.78Q34.46 11.36 37.65 10.60L37.77 10.71L37.66 10.60Q31.62 17.09 28.15 23.03L28.13 23.01L28.20 23.07Q33.35 31.73 37.73 36.30L37.63 36.19L37.73 36.29Q35.15 35.51 33.06 35.28L33.06 35.28L33.08 35.30Q30.18 32.21 26.26 25.40ZM32.97 35.61L32.99 35.63L32.83 35.47Q33.16 35.54 33.62 35.65L33.60 35.63L33.72 35.75Q34.44 36.44 35.97 38.04L36.01 38.08L36.09 38.16Q39.33 38.85 42.37 40.22L42.35 40.19L42.36 40.20Q35.20 33.58 30.10 24.82L30.22 24.94L30.07 24.79Q33.93 18.26 39.83 11.41L39.88 11.45L39.78 11.35Q38.29 11.96 36.12 12.49L36.28 12.66L36.19 12.56Q37.06 11.64 38.81 9.85L38.76 9.80L38.89 9.93Q36.37 10.68 32.67 11.26L32.84 11.42L32.73 11.31Q29.38 15.19 26.79 19.50L26.77 19.47L26.78 19.48Q25.72 17.74 24.54 16.26L24.61 16.33L22.43 13.50L22.05 13.50L22.07 13.51Q21.91 13.51 21.68 13.43L21.54 13.29L21.55 13.31Q20.93 12.53 19.44 10.97L19.37 10.89L19.36 10.89Q15.62 10.07 13.03 8.70L13.03 8.70L12.94 8.61Q19.76 15.97 24.33 23.01L24.36 23.04L24.42 23.10Q19.78 31.14 14.04 37.73L14.12 37.81L14.07 37.76Q15.33 37.04 17.46 36.47L17.56 36.57L16.27 38.02L16.21 37.97Q16.21 37.96 14.88 39.30L14.88 39.29L14.86 39.27Q17.88 38.22 21.04 37.73L21.10 37.79L21.14 37.83Q25.16 33.32 27.75 28.56L27.73 28.54L27.72 28.53Q30.26 32.75 32.96 35.60Z"/><path fill="#111" d="M113.16 34.85L113.25 34.94L113.23 34.92Q111.22 34.81 109.20 35.00L109.20 34.99L109.22 35.01Q109.87 29.77 109.87 24.93L109.92 24.98L109.90 24.96Q109.97 20.12 109.33 14.91L109.31 14.89L109.30 14.88Q104.69 14.46 101.49 12.78L101.48 12.77L100.67 10.94L100.74 11.00Q100.51 10.47 99.90 9.25L99.99 9.34L99.86 9.21Q104.92 11.88 110.94 12.07L111.00 12.13L111.07 12.20Q116.78 12.20 122.23 10.14L122.40 10.31L122.37 10.29Q121.58 11.63 120.94 13.46L120.99 13.52L121.05 13.57Q117.40 14.84 113.14 15.03L113.12 15.01L113.00 14.89Q112.91 20.01 112.91 24.96L112.88 24.94L112.86 24.92Q112.95 29.96 113.26 34.94ZM123.08 9.62L122.89 9.43L122.98 9.52Q117.26 11.91 111.05 11.72L111.00 11.68L110.87 11.54Q104.34 11.48 99.24 8.51L99.24 8.52L99.22 8.49Q100.01 9.82 101.31 13.09L101.24 13.03L101.15 12.94Q101.82 13.26 103.07 13.83L103.22 13.98L103.20 13.96Q103.36 14.58 103.71 16.10L103.83 16.22L103.82 16.21Q105.99 16.94 109.04 17.17L109.03 17.16L109.13 17.26Q109.39 20.83 109.39 24.60L109.54 24.75L109.53 24.75Q109.47 30.05 108.67 35.42L108.63 35.37L108.68 35.43Q110.35 35.31 110.88 35.31L110.90 35.33L110.78 35.21Q110.88 35.61 110.82 36.27L110.91 36.37L110.85 36.31Q110.76 36.93 110.76 37.28L110.84 37.36L110.79 37.31Q111.90 37.16 113.42 37.24L113.53 37.34L113.47 37.29Q114.48 37.42 116.31 37.57L116.26 37.52L116.25 37.52Q114.89 32.47 114.78 27.29L114.95 27.46L114.96 27.47Q114.68 22.01 115.21 17.10L115.18 17.07L115.26 17.15Q119.29 16.69 122.45 15.47L122.45 15.47L122.36 15.38Q122.97 12.90 123.99 10.84L124.18 11.03L124.07 10.92Q122.68 11.55 121.89 11.86L122.03 12.01L121.90 11.87Q122.45 10.71 123.02 9.57Z"/></svg>