<svg xmlns="http://www.w3.org/2000/svg" width="200" height="40" viewBox="0,0,200,40"><path d="M11 6 C111 14,92 25,196 38" stroke="#555" fill="none"/><path d="M15 35 C82 34,119 13,188 14" stroke="#555" fill="none"/><path fill="#222" d="M111.11 25.39L111.12 25.40L111.08 25.36Q107.69 31.80 104.27 35.76L104.15 35.64L104.19 35.68Q102.43 36.20 99.99 37.08L99.96 37.04L99.95 37.04Q104.81 31.39 109.57 22.98L109.53 22.93L109.57 22.97Q105.06 16.10 99.08 9.70L99.04 9.67L99.00 9.63Q101.86 10.77 104.15 11.27L104.21 11.33L104.19 11.32Q108.82 16.52 111.26 20.48L111.38 20.59L111.38 20.60Q113.82 16.10 117.74 11.69L117.74 11.70L117.72 11.68Q119.45 11.49 122.64 10.73L122.48 10.57L122.55 10.64Q116.46 17.07 112.99 23.01L112.91 22.93L112.91 22.92Q118.20 31.72 122.58 36.29L122.58 36.29L122.61 36.32Q119.89 35.39 117.80 35.16L117.82 35.18L117.82 35.18Q115.15 32.32 111.23 25.51ZM117.70 35.48L117.80 35.58L117.71 35.49Q118.18 35.70 118.64 35.81L118.50 35.67L118.50 35.68Q119.45 36.58 120.97 38.18L120.89 38.10L120.96 38.18Q124.24 38.91 127.29 40.28L127.32 40.31L127.28 40.26Q120.17 33.69 115.06 24.93L115.00 24.86L114.92 24.79Q118.76 18.23 124.66 11.38L124.76 11.48L124.68 11.40Q123.32 12.13 121.15 12.66L121.12 12.63L121.06 12.57Q121.88 11.61 123.63 9.82L123.64 9.82L123.63 9.81Q121.20 10.66 117.50 11.23L117.52 11.24L117.62 11.35Q114.20 15.15 111.61 19.45L111.59 19.44L111.64 19.49Q110.68 17.84 109.50 16.36L109.40 16.26L107.21 13.42L106.92 13.51L106.76 13.35Q106.70 13.44 106.47 13.36L106.53 13.43L106.38 13.27Q105.77 12.52 104.29 10.96L104.18 10.84L104.35 11.02Q100.51 10.11 97.92 8.74L97.83 8.65L97.84 8.66Q104.64 15.99 109.21 23.03L109.11 22.93L109.08 22.91Q104.67 31.17 98.92 37.75L98.87 37.70L98.90 37.73Q100.26 37.12 102.39 36.54L102.34 36.49L101.18 38.08L101.13 38.02Q101.09 37.98 99.76 39.32L99.84 39.40L99.74 39.30Q102.88 38.37 106.04 37.87L105.99 37.82L106.01 37.84Q109.93 33.24 112.52 28.48L112.56 28.52L112.56 28.52Q115.02 32.65 117.72 35.51Z"/><path fill="#333" d="M169.77 34.89L169.65 34.77L169.76 34.88Q167.75 34.77 165.73 34.96L165.74 34.97L165.68 34.90Q166.39 29.71 166.39 24.88L166.52 25.01L166.38 24.87Q166.48 20.06 165.83 14.84L165.73 14.74L165.83 14.84Q161.13 14.33 157.93 12.66L158.08 12.81L157.32 11.01L157.36 11.05Q157.01 10.40 156.40 9.18L156.44 9.22L156.41 9.19Q161.53 11.91 167.54 12.10L167.54 12.09L167.53 12.09Q173.43 12.27 178.87 10.22L178.93 10.28L178.88 10.23Q178.15 11.63 177.50 13.45L177.44 13.39L177.52 13.47Q173.88 14.74 169.61 14.93L169.62 14.94L169.73 15.05Q169.41 19.94 169.41 24.89L169.36 24.84L169.34 24.82Q169.43 29.86 169.73 34.84ZM179.51 9.48L179.50 9.48L179.58 9.56Q173.65 11.74 167.45 11.55L167.59 11.69L167.56 11.66Q160.89 11.46 155.79 8.49L155.83 8.53L155.76 8.47Q156.51 9.75 157.80 13.02L157.78 13.00L157.87 13.08Q158.51 13.38 159.76 13.95L159.68 13.87L159.80 13.99Q160.04 14.69 160.38 16.21L160.39 16.22L160.34 16.17Q162.70 17.08 165.75 17.31L165.64 17.20L165.61 17.17Q166.05 20.92 166.05 24.69L166.07 24.71L165.97 24.62Q165.99 30.00 165.19 35.37L165.25 35.43L165.30 35.48Q166.86 35.25 167.39 35.25L167.45 35.30L167.37 35.23Q167.41 35.57 167.35 36.23L167.48 36.36L167.47 36.35Q167.28 36.88 167.28 37.22L167.25 37.20L167.30 37.25Q168.47 37.16 169.99 37.24L169.99 37.24L170.07 37.31Q170.87 37.24 172.70 37.40L172.69 37.38L172.72 37.42Q171.47 32.47 171.36 27.30L171.39 27.32L171.37 27.31Q171.24 22.00 171.77 17.09L171.91 17.23L171.81 17.13Q175.83 16.65 178.99 15.44L178.86 15.30L179.02 15.46Q179.62 12.98 180.65 10.93L180.58 10.86L180.66 10.94Q179.40 11.70 178.60 12.00L178.44 11.85L178.61 12.01Q178.93 10.62 179.50 9.47Z"/><path fill="#222" d="M18.72 10.85L18.80 10.93L18.77 10.90Q20.61 15.71 21.18 20.89L21.29 21.00L21.17 20.88Q24.97 16.83 30.87 12.00L30.74 11.87L30.86 11.99Q33.97 11.60 36.60 10.80L36.62 10.82L30.14 16.52L30.01 16.40Q26.68 19.42 23.83 22.28L23.70 22.15L23.81 22.27Q31.80 31.43 36.86 36.15L36.76 36.05L36.77 36.06Q33.72 35.18 31.39 35.02L31.38 35.01L31.50 35.13Q25.60 29.61 21.30 23.79L21.36 23.84L21.38 23.86Q21.44 30.44 19.58 35.77L19.53 35.72L19.56 35.75Q19.28 35.74 18.79 35.93L18.79 35.93L18.85 36.19L18.89 36.22Q18.58 36.14 16.03 37.06L15.99 37.02L16.10 37.12Q18.99 30.50 18.65 23.04L18.69 23.09L18.67 23.06Q18.44 15.83 14.90 9.32L14.75 9.17L15.28 9.43L15.78 9.81L15.82 9.82L15.71 9.71Q16.56 10.22 18.77 10.91ZM18.91 10.47L19.04 10.61L18.94 10.51Q16.69 9.97 14.07 8.45L14.02 8.40L14.17 8.55Q18.41 15.80 18.41 24.75L18.38 24.71L18.49 24.82Q18.47 31.81 15.50 37.86L15.47 37.83L17.35 36.82L17.37 36.84Q17.09 37.97 16.41 39.26L16.41 39.26L16.36 39.22Q18.64 38.45 20.58 38.03L20.60 38.05L20.58 37.81L20.64 37.86Q20.90 37.82 21.47 37.66L21.45 37.64L21.47 37.66Q23.17 31.78 23.28 26.99L23.18 26.88L23.22 26.92Q25.38 29.51 27.21 31.37L27.13 31.30L27.13 31.29Q28.27 32.36 31.28 35.33L31.31 35.35L31.39 35.44L31.43 35.48Q32.42 36.28 34.28 37.88L34.13 37.72L34.18 37.77Q38.16 38.59 41.63 40.31L41.50 40.18L41.63 40.31Q32.20 31.60 25.96 24.18L26.10 24.32L25.99 24.21Q30.42 19.97 39.18 11.36L39.20 11.39L39.15 11.33Q36.68 12.56 34.66 12.94L34.68 12.95L34.55 12.82Q35.90 11.97 38.22 9.95L38.09 9.82L38.19 9.92Q34.07 11.32 30.72 11.51L30.77 11.56L30.71 11.50Q27.85 13.78 22.98 18.46L22.85 18.33L22.91 18.39Q22.50 15.77 21.93 13.22L22.01 13.31L22.05 13.35Q20.87 13.19 19.88 12.85L19.88 12.85L19.77 12.74Q19.48 11.91 18.91 10.47Z"/><path fill="#333" d="M53.76 35.16L53.82 35.22L51.30 28.24L51.40 28.35Q46.96 15.68 41.02 9.29L41.12 9.38L41.08 9.34Q43.05 10.36 45.64 10.97L45.63 10.96L45.68 11.01Q50.84 17.32 55.18 30.07L55.26 30.14L55.20 30.09Q58.12 21.85 58.80 20.25L58.98 20.43L58.86 20.31Q61.23 14.68 64.04 11.37L64.13 11.45L64.13 11.46Q66.14 11.03 68.77 10.16L68.85 10.23L68.77 10.16Q64.21 14.77 61.17 22.01L61.19 22.03L61.13 21.97Q59.68 25.59 55.99 35.10L56.04 35.15L56.12 35.24Q55.59 35.28 55.02 35.24L54.85 35.07L54.84 35.05Q54.30 35.08 53.73 35.12ZM58.83 37.64L58.91 37.72L58.87 37.68Q61.57 27.59 63.13 23.56L63.25 23.68L63.14 23.56Q66.23 15.95 70.64 11.08L70.60 11.04L70.57 11.00Q69.52 11.37 67.43 12.09L67.43 12.09L68.52 10.71L68.56 10.75Q69.20 10.13 69.81 9.48L69.87 9.54L69.81 9.48Q67.03 10.51 64.03 11.08L63.92 10.98L64.03 11.09Q59.68 16.44 55.79 27.90L55.74 27.85L55.68 27.79Q52.02 17.65 48.82 13.27L48.77 13.22L48.82 13.28Q48.43 13.19 47.56 13.04L47.63 13.11L47.62 13.11Q47.42 12.76 45.83 10.70L45.80 10.67L45.68 10.55Q42.78 9.90 40.08 8.50L40.14 8.56L40.08 8.50Q46.66 15.53 51.04 28.32L51.12 28.40L51.09 28.37Q52.40 32.12 53.58 35.70L53.43 35.55L53.45 35.57Q53.83 35.64 54.67 35.53L54.78 35.65L54.76 35.62Q55.03 36.24 55.72 37.57L55.66 37.51L55.75 37.60Q56.56 37.50 57.29 37.58L57.31 37.60L57.28 37.57Q57.96 37.53 58.72 37.53Z"/><path fill="#222" d="M80.93 34.98L80.86 34.91L80.81 34.85Q76.64 34.30 74.81 32.85L74.88 32.92L74.80 32.84Q73.05 31.48 72.63 28.47L72.65 28.48L72.57 28.40Q72.68 28.17 72.33 23.41L72.28 23.35L72.28 23.36Q72.29 22.15 72.21 20.89L72.18 20.86L72.20 20.88Q72.00 15.81 74.21 14.06L74.26 14.11L74.30 14.14Q76.95 12.03 84.71 11.35L84.66 11.29L84.75 11.38Q86.02 11.17 87.66 11.21L87.58 11.13L87.59 11.15Q87.72 11.27 90.69 11.27L90.57 11.15L90.65 11.23Q91.43 11.17 93.14 11.32L93.25 11.44L93.19 11.37Q92.73 12.36 91.70 15.44L91.67 15.42L91.69 15.43Q89.47 14.08 86.46 14.08L86.56 14.18L86.56 14.19Q85.88 14.26 85.08 14.34L84.92 14.18L85.03 14.29Q79.84 14.66 77.33 16.64L77.39 16.70L77.29 16.60Q75.45 18.38 75.30 21.73L75.17 21.60L75.23 21.66Q75.16 22.24 75.20 23.49L75.14 23.44L75.11 23.41Q75.41 28.43 77.81 30.52L77.66 30.38L77.79 30.50Q79.98 32.46 84.96 32.77L84.84 32.64L84.87 32.68Q87.92 32.75 90.93 30.96L90.96 30.99L90.94 30.98Q91.69 33.85 92.30 35.22L92.27 35.20L92.23 35.16Q90.05 35.34 88.41 35.30L88.55 35.44L88.44 35.33Q84.01 35.32 80.89 34.93ZM96.05 38.71L95.94 38.61L95.94 38.60Q94.27 35.71 93.58 33.12L93.52 33.06L93.56 33.10Q93.16 33.39 92.17 33.77L92.06 33.65L92.10 33.70Q91.68 32.81 91.49 31.98L91.53 32.02L91.18 30.34L91.28 30.44Q88.00 32.48 84.87 32.37L84.72 32.22L84.74 32.23Q80.44 32.01 78.11 30.26L78.16 30.30L78.22 30.36Q77.03 28.48 77.11 25.55L77.12 25.56L77.09 25.54Q77.30 21.10 79.77 18.97L79.81 19.00L79.87 19.07Q81.89 17.05 86.57 16.44L86.51 16.38L86.52 16.39Q87.46 16.41 88.18 16.41L88.06 16.30L88.05 16.28Q90.92 16.37 93.01 17.89L92.89 17.77L93.01 17.89Q93.56 15.81 94.77 12.58L94.62 12.43L94.62 12.42Q94.39 12.46 93.84 12.40L93.88 12.44L93.96 12.52Q93.25 12.31 92.99 12.31L93.09 12.42L93.03 12.35Q93.17 11.77 93.63 10.79L93.74 10.89L93.66 10.82Q93.44 10.83 90.95 10.75L91.06 10.86L91.03 10.83Q88.53 10.75 87.89 10.79L87.80 10.70L87.87 10.77Q77.42 11.17 73.95 13.76L73.79 13.60L73.86 13.66Q71.85 15.51 71.85 19.43L71.84 19.41L71.79 19.36Q71.85 20.52 71.96 23.23L72.07 23.33L71.98 23.25Q72.06 26.75 72.29 28.46L72.23 28.41L72.26 28.44Q72.66 31.57 74.25 33.10L74.34 33.19L74.23 33.07Q74.76 33.79 76.01 34.93L76.09 35.01L76.02 34.93Q79.36 36.80 84.62 37.56L84.52 37.46L84.63 37.57Q90.94 38.40 95.93 38.59Z"/><path fill="#444" d="M141.71 34.88L141.76 34.93L139.69 34.81L139.77 34.89Q138.72 34.79 137.77 34.90L137.76 34.89L137.90 35.03Q138.39 28.75 138.39 24.75L138.47 24.82L138.33 24.69Q134.37 18.03 126.72 9.35L126.70 9.32L126.87 9.50Q128.57 10.39 131.92 11.19L131.87 11.14L131.88 11.15Q136.98 16.78 139.98 22.00L140.01 22.03L139.99 22.01Q143.10 16.56 147.48 11.53L147.45 11.50L147.30 11.34Q149.75 10.98 152.26 10.18L152.37 10.29L152.24 10.16Q146.18 16.24 141.31 24.66L141.43 24.78L141.39 24.74Q141.42 31.81 141.73 34.90ZM150.85 12.35L153.46 9.40L153.57 9.51Q150.47 10.67 147.35 11.13L147.19 10.97L147.26 11.04Q143.03 15.76 140.22 20.86L140.30 20.94L140.22 20.87Q138.10 17.23 134.91 13.34L134.99 13.43L134.81 13.25Q134.61 13.31 134.11 13.23L134.16 13.28L134.08 13.21Q133.37 12.38 131.84 10.70L131.86 10.71L131.91 10.77Q128.58 10.06 125.61 8.50L125.53 8.42L125.53 8.42Q133.25 16.91 138.01 24.83L138.07 24.88L137.98 24.79Q137.85 31.10 137.24 35.25L137.25 35.26L137.43 35.44Q138.08 35.32 139.53 35.21L139.62 35.30L139.59 36.30L139.62 36.33Q139.51 36.68 139.43 37.21L139.42 37.20L139.49 37.27Q142.95 37.19 144.70 37.38L144.78 37.46L144.80 37.48Q143.58 32.83 143.46 26.85L143.35 26.74L143.42 26.81Q147.81 18.37 154.36 11.02L154.31 10.97L150.83 12.33Z"/></svg>