<svg xmlns="http://www.w3.org/2000/svg" width="200" height="40" viewBox="0,0,200,40"><path fill="#111" d="M142.28 22.11L142.40 22.23L142.33 22.15Q143.20 22.23 144.61 22.08L144.48 21.95L144.59 22.06Q144.54 22.70 144.54 23.34L144.51 23.31L144.46 24.52L144.47 24.53Q143.74 24.63 142.90 24.71L142.76 24.57L142.76 24.57Q142.00 24.68 141.16 24.65L141.11 24.60L141.09 24.58Q138.28 30.79 134.86 35.39L134.83 35.36L134.83 35.36Q132.34 36.04 131.05 36.65L131.15 36.75L131.03 36.63Q135.14 30.92 138.18 24.64L138.17 24.62L135.60 24.68L135.60 24.68Q135.58 23.33 135.47 21.99L135.52 22.05L135.52 22.05Q137.45 22.23 139.51 22.23L139.47 22.19L141.36 18.48L141.31 18.44Q142.28 16.51 143.50 14.91L143.50 14.91L143.59 15.01Q142.06 15.19 140.46 15.19L140.48 15.20L140.31 15.04Q134.28 15.10 130.51 12.89L130.62 13.00L129.96 11.27L129.87 11.18Q129.52 10.34 129.14 9.46L129.17 9.49L129.21 9.53Q133.42 12.03 139.13 12.26L139.26 12.39L139.22 12.35Q144.33 12.55 149.47 10.57L149.46 10.55L149.47 10.57Q149.25 10.96 148.76 11.84L148.72 11.80L148.77 11.84Q145.11 16.56 142.25 22.08ZM150.34 13.19L150.45 13.30L151.46 11.30L151.44 11.28Q150.47 11.76 148.80 12.48L148.75 12.44L148.93 12.12L148.93 12.13Q149.15 12.07 149.26 11.96L149.14 11.84L149.12 11.82Q149.62 11.25 150.34 9.92L150.21 9.79L150.21 9.79Q144.91 12.10 139.16 11.87L139.15 11.86L139.14 11.85Q133.23 11.69 128.47 8.72L128.48 8.73L128.42 8.67Q129.55 10.64 130.39 13.30L130.31 13.22L130.39 13.30Q131.35 13.80 132.15 14.11L132.18 14.14L132.18 14.14Q132.34 14.49 132.79 16.35L132.84 16.40L132.82 16.38Q135.94 17.59 141.46 17.44L141.44 17.42L141.54 17.53Q141.30 18.15 139.32 21.92L139.29 21.90L139.13 21.74Q137.21 21.87 135.23 21.68L135.11 21.56L135.14 21.59Q135.26 22.48 135.26 23.35L135.22 23.31L135.35 25.15L136.91 25.04L136.91 26.44L136.84 26.38Q132.94 33.79 130.17 37.37L130.20 37.40L130.28 37.48Q131.93 36.77 133.57 36.28L133.42 36.13L133.55 36.26Q132.86 37.17 131.49 38.88L131.43 38.82L131.48 38.87Q134.51 37.64 136.95 37.41L137.11 37.57L137.08 37.54Q139.92 33.68 143.04 26.90L142.98 26.85L146.46 27.09L146.50 27.13Q146.32 26.11 146.32 25.19L146.42 25.30L146.34 23.43L146.40 23.49Q146.07 23.43 145.52 23.46L145.53 23.47L145.61 23.55Q145.03 23.56 144.76 23.56L144.74 23.54L144.69 23.49Q144.82 23.51 144.86 23.36L144.89 23.38L144.75 22.98L144.78 23.01Q147.31 17.89 150.40 13.25Z"/><path fill="#333" d="M103.67 10.95L103.63 10.90L103.53 10.80Q105.56 15.80 106.13 20.98L106.02 20.87L106.03 20.88Q109.74 16.75 115.64 11.92L115.73 12.00L115.75 12.03Q118.90 11.67 121.53 10.87L121.51 10.85L114.95 16.48L114.85 16.38Q111.55 19.43 108.69 22.29L108.67 22.27L108.57 22.17Q116.64 31.41 121.70 36.13L121.59 36.03L121.75 36.18Q118.53 35.14 116.21 34.98L116.17 34.94L116.21 34.98Q110.47 29.62 106.16 23.80L106.13 23.76L106.28 23.91Q106.19 30.33 104.33 35.66L104.43 35.77L104.50 35.83Q104.18 35.78 103.68 35.97L103.66 35.95L103.62 36.10L103.71 36.19Q103.51 36.22 100.96 37.13L100.92 37.09L100.93 37.11Q103.80 30.45 103.45 22.99L103.41 22.95L103.45 22.98Q103.24 15.77 99.70 9.26L99.73 9.29L100.29 9.59L100.62 9.80L100.59 9.73L100.73 9.87Q101.33 10.13 103.54 10.81ZM103.90 10.60L103.93 10.64L103.81 10.52Q101.60 10.02 98.98 8.50L98.88 8.40L98.90 8.43Q103.18 15.71 103.18 24.66L103.16 24.63L103.16 24.63Q103.21 31.69 100.24 37.75L100.36 37.86L102.23 36.84L102.27 36.88Q101.86 37.88 101.18 39.17L101.28 39.28L101.30 39.30Q103.48 38.43 105.42 38.01L105.49 38.08L105.48 37.85L105.40 37.76Q105.69 37.75 106.26 37.60L106.42 37.76L106.33 37.67Q107.93 31.69 108.04 26.89L108.00 26.85L108.15 27.00Q110.09 29.35 111.91 31.22L111.96 31.27L111.96 31.26Q113.27 32.50 116.28 35.47L116.23 35.42L116.26 35.45L116.31 35.50Q117.28 36.28 119.14 37.88L119.09 37.83L119.02 37.76Q122.94 38.51 126.40 40.23L126.47 40.29L126.50 40.32Q117.09 31.64 110.85 24.21L110.82 24.19L110.81 24.18Q115.40 20.09 124.16 11.49L124.11 11.43L123.99 11.31Q121.45 12.47 119.43 12.85L119.53 12.94L119.44 12.86Q120.82 12.03 123.14 10.01L123.04 9.91L123.02 9.90Q118.85 11.25 115.50 11.44L115.51 11.44L115.67 11.60Q112.71 13.78 107.84 18.46L107.69 18.32L107.81 18.44Q107.43 15.85 106.86 13.30L106.82 13.26L106.74 13.18Q105.58 13.05 104.59 12.71L104.67 12.79L104.57 12.69Q104.33 11.91 103.76 10.46Z"/><path fill="#333" d="M36.04 18.08L35.96 18.00L36.05 18.10Q34.21 20.78 31.54 26.42L31.53 26.40L29.63 30.75L29.46 30.58Q28.74 32.64 27.41 34.89L27.40 34.87L27.31 34.78Q27.76 34.78 26.09 34.82L26.15 34.88L26.13 34.86Q26.14 34.87 24.89 34.87L24.85 34.84L24.86 34.85Q24.07 33.30 21.14 26.14L21.14 26.14L21.28 26.28Q18.95 20.76 16.86 17.75L16.99 17.88L17.03 17.92Q17.62 20.83 17.62 23.99L17.73 24.10L17.78 24.15Q17.68 30.56 14.71 36.12L14.74 36.15L14.82 36.23Q13.30 36.38 10.94 37.11L11.09 37.26L11.14 37.30Q14.71 31.51 14.71 24.28L14.81 24.37L14.74 24.31Q14.75 15.37 9.34 8.40L9.38 8.44L9.36 8.42Q10.93 9.08 13.29 9.77L13.29 9.76L13.41 9.88Q20.31 16.47 26.40 29.80L26.54 29.94L26.52 29.92Q30.04 22.94 32.25 19.43L32.12 19.30L32.14 19.32Q35.80 13.62 39.76 10.16L39.71 10.10L39.79 10.19Q40.93 9.84 43.29 9.08L43.25 9.04L43.25 9.04Q38.29 15.69 38.29 24.29L38.27 24.27L38.31 24.32Q38.33 30.99 41.75 36.51L41.84 36.60L41.83 36.59Q40.50 36.29 37.76 35.68L37.75 35.67L37.60 35.52Q35.39 30.87 35.39 24.90L35.32 24.83L35.40 24.91Q35.28 21.36 35.96 18.01ZM37.55 36.04L37.54 36.03L37.45 35.94Q38.23 36.15 39.68 36.42L39.58 36.32L39.64 36.38Q40.02 37.07 40.97 38.55L41.07 38.64L40.99 38.57Q43.14 39.01 46.61 40.23L46.64 40.26L46.68 40.30Q40.37 33.91 40.37 24.09L40.35 24.07L40.30 24.01Q40.41 16.40 44.79 10.27L44.64 10.13L42.48 10.86L42.52 10.90Q43.58 9.41 44.23 8.53L44.14 8.44L44.27 8.58Q42.31 9.13 39.69 9.66L39.62 9.60L39.71 9.68Q32.86 15.70 26.81 28.30L26.86 28.36L26.86 28.36Q21.73 17.44 16.78 12.19L16.79 12.19L16.71 12.11Q16.47 12.18 15.90 12.07L15.83 12.00L14.60 10.69L14.65 10.74Q13.93 9.94 13.24 9.33L13.36 9.45L13.32 9.41Q10.27 8.42 8.48 7.69L8.53 7.75L8.45 7.66Q14.49 14.92 14.49 24.33L14.53 24.37L14.43 24.27Q14.37 31.82 10.22 37.68L10.41 37.87L10.26 37.72Q11.02 37.57 12.32 37.15L12.31 37.14L12.39 37.22Q12.09 37.31 10.68 39.40L10.78 39.50L10.77 39.49Q12.56 39.00 16.07 38.24L16.11 38.28L16.14 38.31Q19.86 31.25 19.67 23.49L19.52 23.34L19.69 23.51Q21.09 27.38 24.55 35.26L24.59 35.31L24.64 35.36Q24.84 35.25 25.07 35.25L25.01 35.19L25.68 35.33L25.50 35.14Q26.09 35.96 26.89 37.26L26.81 37.18L26.84 37.21Q28.51 37.24 28.51 37.24L28.57 37.30L28.38 37.11Q29.50 37.21 30.15 37.28L30.21 37.34L30.13 37.26Q31.75 33.29 35.10 25.29L34.96 25.15L35.02 25.21Q34.98 30.73 37.57 36.06Z"/><path fill="#444" d="M53.66 24.19L53.56 24.09L53.65 24.18Q51.77 24.01 50.53 25.44L50.42 25.33L50.43 25.34Q49.32 26.89 49.13 28.80L49.15 28.81L49.18 28.84Q48.93 30.88 50.02 31.85L50.02 31.85L49.89 31.72Q50.96 32.68 53.06 32.57L53.21 32.72L53.08 32.59Q55.16 32.43 56.26 31.74L56.32 31.79L56.25 31.72Q57.41 30.64 57.41 29.08L57.44 29.11L57.48 29.15Q57.38 28.67 57.31 28.29L57.30 28.29L57.30 28.29Q57.50 26.73 56.39 25.38L56.37 25.36L56.46 25.45Q55.34 24.08 53.66 24.19ZM53.14 35.20L53.14 35.21L53.23 35.29Q48.70 35.14 47.29 34.38L47.39 34.48L47.40 34.49Q46.33 33.69 46.14 31.97L46.17 32.00L46.11 31.94Q46.15 31.34 46.19 30.61L46.18 30.60L46.25 30.68Q46.30 29.62 46.30 29.16L46.35 29.21L46.21 29.07Q46.81 26.36 46.96 25.67L46.98 25.69L46.89 25.61Q47.26 23.58 48.10 22.17L48.19 22.26L48.12 22.19Q50.78 17.81 56.72 11.45L56.69 11.42L56.72 11.45Q59.36 11.12 61.56 10.32L61.63 10.38L61.69 10.44Q54.85 17.91 51.65 22.14L51.68 22.17L51.63 22.12Q52.59 21.60 53.88 21.60L53.96 21.67L53.79 21.50Q57.26 21.66 58.78 23.60L58.71 23.53L58.64 23.46Q60.08 25.21 60.43 28.75L60.36 28.68L60.35 28.67Q60.49 29.46 60.49 30.07L60.44 30.02L60.42 30.00Q60.52 33.21 58.31 34.28L58.24 34.21L58.21 34.19Q56.96 34.76 53.07 35.14ZM55.54 37.72L55.39 37.57L55.43 37.61Q56.84 37.68 58.82 37.76L58.80 37.74L58.81 37.76Q60.33 37.71 61.89 36.99L61.94 37.03L61.82 36.92Q62.94 36.13 62.94 34.35L63.10 34.51L63.04 34.44Q63.11 34.02 62.94 33.03L62.82 32.91L62.91 33.00Q62.76 32.04 62.76 31.58L62.74 31.55L62.63 31.45Q61.89 26.86 60.29 24.96L60.27 24.94L60.29 24.96Q60.15 24.78 60.00 24.55L59.97 24.52L59.61 24.24L59.65 24.32L59.68 24.35Q59.21 23.73 58.60 22.77L58.62 22.79L58.74 22.91Q57.81 21.94 55.83 21.48L55.80 21.46L55.75 21.41Q56.94 19.78 59.91 16.09L59.88 16.05L64.23 10.89L64.24 10.90Q62.69 11.78 60.29 12.54L60.22 12.47L60.19 12.44Q61.10 11.45 62.89 9.47L62.96 9.54L62.91 9.49Q60.47 10.51 56.58 11.08L56.62 11.12L56.72 11.22Q50.84 16.95 47.87 21.90L47.97 22.00L47.96 21.99Q46.47 24.54 45.90 30.78L45.82 30.70L45.93 30.81Q45.72 31.25 45.79 32.20L45.87 32.28L45.77 32.18Q45.87 33.95 46.97 34.86L47.10 34.99L46.94 34.82Q47.35 35.01 47.31 35.05L47.37 35.10L47.29 35.03Q47.71 35.98 48.51 36.40L48.53 36.42L48.54 36.43Q50.05 37.17 51.99 37.36L51.88 37.26L52.03 37.41Q51.87 37.25 55.37 37.55ZM55.29 26.47L55.12 26.30L55.21 26.39Q55.88 26.37 56.83 26.86L56.73 26.77L56.73 26.77Q57.16 27.81 57.16 28.45L57.07 28.36L57.14 28.43Q57.34 30.30 56.39 31.29L56.34 31.24L56.36 31.26Q55.35 32.05 53.26 32.35L53.18 32.27L53.19 32.29Q51.65 32.19 51.11 31.92L51.12 31.93L51.16 31.96Q50.98 31.52 50.98 31.22L50.93 31.16L50.95 31.18Q50.72 27.91 53.65 26.62L53.73 26.70L53.75 26.72Q54.54 26.40 55.30 26.47Z"/><path fill="#111" d="M162.85 27.92L162.85 27.93L162.90 27.97Q166.06 27.67 169.26 27.79L169.22 27.75L169.07 27.59Q169.10 25.11 169.10 22.72L169.17 22.79L169.09 22.70Q169.08 20.22 169.27 17.67L169.28 17.68L169.36 17.76Q168.02 19.35 162.80 27.88ZM172.81 35.34L172.85 35.38L172.79 35.31Q171.08 34.98 169.29 34.90L169.29 34.90L169.25 34.86Q169.10 32.54 168.99 30.07L168.99 30.07L169.10 30.18Q163.67 29.89 158.95 31.30L159.04 31.39L159.00 31.35Q159.01 30.75 159.20 29.76L159.34 29.90L159.25 29.80Q161.14 26.75 164.72 20.46L164.57 20.32L164.73 20.48Q167.56 15.54 170.99 11.66L170.93 11.60L171.00 11.68Q171.83 11.43 173.50 11.17L173.52 11.19L173.55 11.21Q171.62 17.62 171.62 24.67L171.60 24.65L171.59 24.64Q171.59 26.12 171.67 27.61L171.71 27.65L173.06 27.82L172.90 27.66Q173.57 27.76 174.18 27.87L174.20 27.89L174.14 27.83Q174.36 28.93 174.63 30.87L174.55 30.79L174.56 30.81Q173.33 30.52 171.84 30.33L171.85 30.34L171.77 30.26Q172.10 32.38 172.79 35.31ZM174.55 27.60L174.50 27.55L174.52 27.57Q174.20 27.36 174.01 27.36L174.03 27.38L173.71 27.44L173.74 27.47Q173.63 25.99 173.63 24.58L173.68 24.63L173.56 24.52Q173.55 18.11 175.61 12.10L175.73 12.22L175.69 12.17Q174.91 12.42 173.46 12.80L173.42 12.76L173.46 12.80Q173.75 12.10 174.20 10.69L174.13 10.62L174.21 10.69Q172.72 10.88 170.67 11.11L170.81 11.25L170.86 11.30Q166.78 15.48 161.56 24.85L161.63 24.92L163.70 21.24L163.64 21.18Q163.29 22.28 163.02 22.85L163.01 22.83L158.67 31.97L158.57 31.87Q159.32 31.81 160.46 31.43L160.33 31.31L160.25 31.61L160.21 31.57Q160.19 32.35 159.89 33.61L159.86 33.58L159.88 33.60Q163.86 32.14 168.70 32.33L168.66 32.29L168.66 32.29Q168.85 33.39 169.04 35.37L168.99 35.32L169.00 35.34Q170.10 35.37 171.17 35.48L171.15 35.47L171.05 35.37Q171.16 36.01 171.43 37.38L171.61 37.56L171.56 37.51Q173.42 37.70 176.43 38.61L176.38 38.56L176.48 38.66Q175.48 36.52 174.56 33.24L174.57 33.25L176.03 33.72L176.05 33.74Q176.65 33.89 177.34 34.23L177.39 34.28L177.44 34.33Q176.59 31.77 176.44 30.09L176.41 30.07L176.35 30.00Q175.79 29.86 174.65 29.64L174.59 29.58L174.68 29.67Q174.40 28.32 174.40 27.44ZM166.41 27.30L166.53 27.42L166.44 27.33Q167.32 26.15 168.88 23.60L168.77 23.49L168.79 23.51Q168.72 24.39 168.68 25.34L168.81 25.48L168.75 25.41Q168.80 26.45 168.83 27.40L168.79 27.36L168.75 27.31Q168.11 27.21 167.54 27.21L167.62 27.29L167.60 27.27Q167.01 27.29 166.40 27.29Z"/><path fill="#222" d="M90.61 35.43L90.53 35.35L90.56 35.37Q87.60 31.50 84.97 22.86L84.98 22.86L84.99 22.87Q84.35 20.75 83.55 18.61L83.44 18.50L80.69 27.41L80.57 27.29Q78.76 32.21 76.36 35.45L76.47 35.56L76.44 35.53Q75.53 35.53 73.89 35.68L74.00 35.79L73.90 35.69Q74.07 34.57 74.07 33.31L74.09 33.33L74.09 33.33Q74.00 27.22 71.25 21.09L71.27 21.10L71.26 21.10Q68.15 14.22 62.29 9.23L62.33 9.28L62.23 9.18Q64.54 10.04 66.90 10.57L66.74 10.41L66.74 10.41Q75.52 18.96 76.82 29.93L76.75 29.86L76.80 29.91Q78.36 26.52 79.81 21.16L79.96 21.31L79.85 21.20Q81.92 13.79 82.41 12.38L82.26 12.23L84.62 12.34L84.53 12.25Q85.40 14.45 86.05 16.78L85.92 16.64L87.20 21.12L87.14 21.07Q88.84 26.64 90.25 29.88L90.14 29.78L90.21 29.84Q91.85 18.20 99.77 10.85L99.72 10.80L99.67 10.75Q101.35 10.57 104.32 9.92L104.21 9.81L104.20 9.80Q98.91 14.14 95.87 20.27L95.96 20.36L95.89 20.30Q92.72 26.45 92.72 33.23L92.83 33.34L92.85 33.36Q92.86 34.47 92.93 35.61L92.80 35.48L91.76 35.47L91.61 35.32Q91.12 35.36 90.55 35.36ZM96.71 38.17L96.72 38.18L96.80 38.26Q95.59 34.73 95.70 30.84L95.74 30.88L95.65 30.79Q96.03 19.29 105.39 11.03L105.43 11.07L105.38 11.02Q104.51 11.33 102.57 11.86L102.44 11.73L102.48 11.78Q103.50 11.00 105.40 9.21L105.42 9.23L105.28 9.09Q102.71 9.95 99.78 10.44L99.64 10.31L99.66 10.32Q92.14 17.43 90.24 26.91L90.37 27.03L90.31 26.97Q89.81 25.41 86.95 13.95L86.90 13.90L86.85 13.85Q86.56 14.05 85.60 14.05L85.54 13.98L85.24 12.92L85.16 12.84Q85.16 12.42 84.93 11.93L84.83 11.83L81.94 11.83L81.99 11.88Q81.26 14.43 79.99 19.55L79.94 19.50L79.82 19.38Q78.63 24.58 77.64 27.06L77.55 26.97L77.62 27.04Q76.13 19.23 70.57 12.91L70.42 12.75L70.50 12.84Q69.96 12.72 69.01 12.53L69.15 12.66L69.14 12.65Q68.39 11.79 66.83 10.15L66.77 10.10L66.73 10.06Q63.48 9.39 61.31 8.59L61.22 8.51L61.25 8.53Q66.93 13.23 70.21 19.43L70.12 19.35L70.19 19.41Q73.72 26.10 73.72 33.11L73.60 33.00L73.59 32.99Q73.67 34.62 73.48 36.22L73.38 36.12L73.49 36.24Q73.61 36.13 74.07 36.03L74.06 36.02L74.16 36.12Q74.56 35.97 74.79 35.97L74.86 36.04L74.83 37.04L74.76 36.97Q74.81 37.48 74.88 38.01L74.98 38.10L74.94 38.06Q76.05 37.96 78.34 37.81L78.31 37.78L78.25 37.72Q81.98 32.43 84.72 23.03L84.69 22.99L84.61 22.91Q87.41 31.73 90.38 35.69L90.50 35.80L90.44 35.75Q90.98 35.83 91.82 35.95L91.84 35.97L91.69 35.82Q92.53 36.84 93.59 37.91L93.74 38.06L93.75 38.06Q94.35 37.95 96.75 38.21Z"/><path d="M5 14 C120 17,111 23,188 27" stroke="#777" fill="none"/><path d="M18 20 C92 6,87 7,194 23" stroke="#888" fill="none"/></svg>