<svg xmlns="http://www.w3.org/2000/svg" width="200" height="40" viewBox="0,0,200,40"><path fill="#222" d="M57.56 22.24L57.39 22.08L57.50 22.19Q58.28 22.17 59.69 22.01L59.74 22.07L59.78 22.10Q59.72 22.72 59.72 23.37L59.73 23.39L59.60 24.52L59.62 24.54Q58.91 24.66 58.07 24.74L57.93 24.59L58.01 24.67Q57.19 24.73 56.35 24.69L56.39 24.73L56.33 24.67Q53.40 30.76 49.97 35.36L50.08 35.47L49.97 35.36Q47.42 35.97 46.12 36.58L46.16 36.61L46.15 36.61Q50.37 31.01 53.42 24.73L53.31 24.62L50.73 24.66L50.75 24.68Q50.66 23.26 50.55 21.93L50.57 21.96L50.57 21.96Q52.49 22.12 54.54 22.12L54.53 22.11L56.43 18.42L56.41 18.40Q57.55 16.64 58.77 15.04L58.80 15.07L58.67 14.94Q57.22 15.21 55.62 15.21L55.63 15.21L55.49 15.08Q49.50 15.17 45.73 12.97L45.77 13.01L45.00 11.17L45.01 11.18Q44.76 10.43 44.38 9.56L44.40 9.58L44.23 9.41Q48.61 12.08 54.32 12.31L54.45 12.43L54.31 12.29Q59.57 12.64 64.71 10.66L64.66 10.61L64.74 10.70Q64.36 10.92 63.87 11.80L64.04 11.98L64.01 11.95Q60.26 16.57 57.40 22.09ZM65.61 13.32L65.57 13.27L66.45 11.15L66.58 11.28Q65.58 11.73 63.91 12.45L63.84 12.38L64.18 12.23L64.05 12.10Q64.22 12.00 64.33 11.89L64.32 11.88L64.27 11.82Q64.72 11.21 65.45 9.88L65.40 9.83L65.43 9.86Q60.18 12.23 54.44 12.00L54.43 12.00L54.34 11.91Q48.41 11.73 43.65 8.76L43.63 8.74L43.65 8.75Q44.62 10.57 45.46 13.23L45.41 13.18L45.52 13.29Q46.64 13.95 47.44 14.26L47.33 14.15L47.45 14.27Q47.47 14.48 47.93 16.34L47.96 16.37L48.00 16.42Q51.20 17.71 56.72 17.56L56.55 17.39L56.60 17.44Q56.29 18.00 54.31 21.77L54.39 21.86L54.35 21.82Q52.32 21.84 50.34 21.65L50.40 21.71L50.34 21.65Q50.47 22.54 50.47 23.42L50.46 23.41L50.39 25.04L52.02 25.01L52.08 26.47L52.11 26.50Q48.23 33.93 45.45 37.51L45.40 37.46L45.28 37.34Q47.08 36.77 48.71 36.28L48.61 36.17L48.71 36.27Q47.84 37.00 46.47 38.71L46.63 38.88L46.52 38.76Q49.81 37.79 52.24 37.56L52.19 37.50L52.21 37.53Q55.05 33.67 58.17 26.89L58.11 26.83L61.61 27.09L61.69 27.18Q61.54 26.19 61.54 25.28L61.55 25.28L61.59 23.53L61.54 23.49Q61.24 23.45 60.68 23.49L60.70 23.50L60.83 23.63Q60.19 23.58 59.92 23.58L60.01 23.67L59.83 23.48Q59.83 23.37 59.86 23.22L60.05 23.40L59.98 23.06L60.03 23.11Q62.54 17.97 65.62 13.33Z"/><path d="M12 18 C108 5,84 32,193 26" stroke="#222" fill="none"/><path d="M19 38 C100 31,86 14,187 13" stroke="#888" fill="none"/><path fill="#333" d="M120.78 17.97L120.97 18.15L120.79 17.98Q119.13 20.85 116.47 26.49L116.47 26.49L114.49 30.75L114.46 30.72Q113.56 32.60 112.23 34.85L112.14 34.76L112.11 34.73Q112.63 34.79 110.95 34.82L110.91 34.78L110.96 34.84Q111.04 34.91 109.78 34.91L109.75 34.88L109.68 34.81Q109.09 33.46 106.16 26.30L106.12 26.27L106.11 26.26Q103.95 20.89 101.85 17.89L101.77 17.80L101.77 17.80Q102.52 20.87 102.52 24.03L102.48 23.99L102.62 24.13Q102.66 30.68 99.69 36.24L99.68 36.23L99.51 36.06Q98.18 36.41 95.82 37.13L95.88 37.19L95.86 37.17Q99.50 31.44 99.50 24.21L99.66 24.37L99.60 24.31Q99.53 15.30 94.13 8.33L94.15 8.36L94.17 8.37Q95.75 9.04 98.11 9.72L98.23 9.85L98.15 9.77Q105.16 16.47 111.25 29.79L111.41 29.96L111.40 29.95Q114.80 22.83 117.00 19.33L117.01 19.34L117.02 19.34Q120.51 13.47 124.47 10.00L124.58 10.12L124.50 10.04Q125.87 9.92 128.23 9.16L128.20 9.14L128.09 9.02Q123.27 15.81 123.27 24.42L123.22 24.37L123.26 24.41Q123.16 30.97 126.59 36.49L126.68 36.58L126.64 36.55Q125.25 36.18 122.51 35.57L122.58 35.65L122.49 35.56Q120.09 30.72 120.09 24.74L120.20 24.85L120.22 24.86Q120.24 21.46 120.92 18.11ZM122.33 35.96L122.40 36.03L122.32 35.95Q123.09 36.15 124.54 36.42L124.54 36.43L124.53 36.41Q124.92 37.11 125.87 38.59L125.96 38.68L125.91 38.63Q128.12 39.12 131.58 40.34L131.53 40.29L131.56 40.32Q125.22 33.91 125.22 24.08L125.24 24.10L125.20 24.06Q125.21 16.34 129.58 10.21L129.52 10.15L127.36 10.88L127.47 10.99Q128.37 9.34 129.02 8.47L129.14 8.59L129.07 8.51Q127.14 9.10 124.51 9.63L124.62 9.74L124.66 9.78Q117.81 15.79 111.75 28.39L111.80 28.44L111.81 28.46Q106.51 17.36 101.56 12.11L101.56 12.11L101.59 12.14Q101.20 12.05 100.63 11.94L100.65 11.96L99.53 10.77L99.51 10.75Q98.90 10.06 98.22 9.45L98.11 9.34L98.28 9.51Q95.23 8.52 93.44 7.80L93.26 7.61L93.36 7.72Q99.28 14.86 99.28 24.26L99.25 24.23L99.38 24.35Q99.38 31.97 95.23 37.83L95.25 37.85L95.26 37.86Q95.86 37.55 97.15 37.13L97.07 37.05L97.16 37.14Q97.01 37.37 95.60 39.46L95.64 39.50L95.70 39.56Q97.35 38.93 100.85 38.16L101.00 38.31L100.98 38.29Q104.70 31.24 104.51 23.47L104.48 23.45L104.53 23.49Q106.07 27.51 109.53 35.39L109.39 35.24L109.54 35.40Q109.77 35.32 109.99 35.32L109.85 35.17L110.45 35.24L110.38 35.17Q110.87 35.88 111.67 37.18L111.67 37.18L111.63 37.14Q113.31 37.19 113.31 37.19L113.24 37.11L113.40 37.27Q114.29 37.14 114.94 37.21L114.94 37.21L114.91 37.19Q116.53 33.21 119.88 25.22L119.94 25.28L119.91 25.24Q119.70 30.59 122.29 35.92Z"/><path fill="#111" d="M36.00 18.04L36.07 18.11L35.92 17.96Q34.23 20.80 31.56 26.44L31.57 26.45L29.64 30.76L29.46 30.58Q28.72 32.61 27.38 34.86L27.24 34.71L27.34 34.82Q27.85 34.87 26.18 34.91L26.16 34.89L26.04 34.77Q26.20 34.93 24.94 34.93L24.88 34.87L24.80 34.79Q24.13 33.36 21.20 26.20L21.18 26.18L21.17 26.17Q19.13 20.93 17.04 17.93L17.00 17.89L17.00 17.89Q17.68 20.89 17.68 24.05L17.64 24.01L17.76 24.13Q17.64 30.52 14.67 36.08L14.64 36.05L14.74 36.15Q13.48 36.56 11.12 37.29L11.07 37.24L11.06 37.22Q14.76 31.57 14.76 24.33L14.79 24.35L14.74 24.31Q14.72 15.34 9.31 8.37L9.24 8.31L9.37 8.43Q10.88 9.03 13.24 9.71L13.33 9.80L13.42 9.89Q20.40 16.57 26.49 29.89L26.40 29.80L26.38 29.78Q30.01 22.91 32.22 19.40L32.23 19.41L32.12 19.30Q35.75 13.57 39.71 10.11L39.73 10.13L39.68 10.08Q40.92 9.83 43.28 9.07L43.33 9.12L43.38 9.17Q38.35 15.75 38.35 24.35L38.40 24.40L38.39 24.40Q38.30 30.96 41.72 36.48L41.72 36.48L41.85 36.61Q40.37 36.16 37.63 35.55L37.73 35.65L37.70 35.62Q35.27 30.76 35.27 24.78L35.29 24.80L35.31 24.81Q35.39 21.47 36.07 18.12ZM37.42 35.91L37.50 35.99L37.44 35.93Q38.25 36.17 39.70 36.44L39.64 36.38L39.68 36.42Q40.13 37.17 41.08 38.66L41.04 38.61L40.96 38.54Q43.20 39.06 46.66 40.28L46.57 40.19L46.54 40.16Q40.41 33.95 40.41 24.13L40.31 24.03L40.36 24.08Q40.29 16.28 44.67 10.15L44.69 10.18L42.57 10.95L42.66 11.04Q43.62 9.45 44.27 8.58L44.15 8.46L44.11 8.42Q42.30 9.12 39.67 9.65L39.64 9.61L39.63 9.60Q33.02 15.86 26.97 28.47L26.92 28.42L26.97 28.47Q21.66 17.37 16.71 12.11L16.84 12.25L16.82 12.22Q16.34 12.05 15.77 11.94L15.75 11.92L14.64 10.74L14.51 10.60Q13.92 9.93 13.23 9.32L13.32 9.41L13.37 9.46Q10.25 8.40 8.46 7.68L8.46 7.68L8.56 7.77Q14.52 14.95 14.52 24.35L14.44 24.28L14.39 24.23Q14.50 31.95 10.35 37.81L10.31 37.77L10.39 37.85Q10.95 37.50 12.24 37.08L12.21 37.05L12.21 37.05Q12.26 37.47 10.85 39.57L10.86 39.57L10.70 39.42Q12.62 39.05 16.12 38.29L15.98 38.15L16.07 38.24Q19.89 31.29 19.70 23.52L19.65 23.47L19.53 23.35Q21.14 27.43 24.60 35.31L24.51 35.22L24.66 35.37Q24.77 35.18 25.00 35.18L25.09 35.27L25.57 35.21L25.50 35.14Q25.99 35.86 26.79 37.15L26.89 37.26L26.90 37.27Q28.49 37.22 28.49 37.22L28.38 37.11L28.47 37.20Q29.39 37.09 30.03 37.17L30.08 37.21L30.21 37.34Q31.71 33.24 35.06 25.25L35.08 25.27L34.93 25.12Q34.85 30.60 37.43 35.93Z"/><path fill="#222" d="M84.17 15.12L84.26 15.22L84.10 15.06Q79.85 15.11 76.16 14.12L76.05 14.01L76.12 14.08Q77.74 18.75 77.93 23.58L77.88 23.53L77.85 23.50Q77.95 28.20 76.73 32.81L76.91 33.00L76.87 32.95Q79.68 32.33 83.18 32.18L83.12 32.12L83.12 32.12Q87.11 31.99 88.89 29.56L88.94 29.60L88.78 29.44Q90.33 27.42 90.52 23.31L90.61 23.39L90.56 23.34Q90.66 21.61 90.20 19.90L90.26 19.95L90.24 19.94Q88.93 15.17 84.21 15.17ZM72.32 37.20L72.23 37.10L72.34 37.22Q75.11 31.42 75.11 24.72L75.25 24.86L75.14 24.74Q75.20 16.28 70.90 9.27L70.78 9.16L70.79 9.17Q76.18 11.97 84.44 12.16L84.38 12.10L84.46 12.18Q93.21 12.25 93.55 19.41L93.58 19.43L93.55 19.41Q93.64 22.09 93.61 23.53L93.60 23.53L93.74 23.67Q93.59 28.27 92.75 30.44L92.79 30.48L92.69 30.39Q92.22 31.44 91.46 32.28L91.62 32.43L91.50 32.31Q90.18 33.89 87.56 34.39L87.48 34.31L87.50 34.33Q85.94 34.63 82.93 34.86L82.92 34.85L82.97 34.90Q76.91 35.43 72.30 37.18ZM90.10 36.93L90.14 36.97L90.15 36.98Q92.87 36.62 94.51 35.13L94.65 35.28L94.60 35.23Q95.75 33.41 95.71 30.67L95.76 30.71L95.72 30.67Q95.82 29.40 95.67 25.90L95.67 25.90L95.22 21.27L95.25 21.30Q95.08 19.03 94.13 16.94L94.10 16.91L94.14 16.95Q93.51 15.90 92.83 15.25L92.93 15.36L92.76 15.04L92.79 15.07Q91.17 12.19 86.75 11.81L86.81 11.86L86.83 11.89Q84.12 11.72 77.11 11.00L77.15 11.03L77.13 11.01Q73.74 10.44 70.04 8.42L70.13 8.51L70.03 8.41Q74.82 15.75 74.82 24.51L74.83 24.51L74.94 24.63Q74.90 31.59 71.55 37.76L71.49 37.70L71.48 37.68Q72.26 37.51 73.59 37.02L73.58 37.01L73.61 37.04Q73.22 37.83 72.34 39.31L72.29 39.26L72.41 39.38Q75.39 38.24 78.74 37.75L78.81 37.83L78.78 37.79Q80.84 37.45 84.49 37.34L84.57 37.42L84.41 37.25Q88.34 37.19 90.17 37.00ZM90.25 23.42L90.25 23.41L90.25 23.41Q89.82 31.36 83.12 31.74L83.19 31.81L83.06 31.68Q81.13 31.80 79.07 32.07L79.23 32.22L79.06 32.05Q79.83 28.26 79.83 24.61L79.93 24.71L79.92 24.69Q79.78 20.86 79.06 17.02L79.07 17.03L79.08 17.04Q81.34 17.39 86.02 17.39L86.01 17.38L86.09 17.47Q87.39 17.24 89.03 18.20L89.02 18.19L89.06 18.23Q90.34 20.49 90.19 23.35Z"/><path fill="#111" d="M166.74 24.13L166.82 24.20L166.73 24.12Q165.01 24.26 163.79 25.59L163.65 25.45L163.78 25.58Q162.41 26.76 162.25 28.66L162.44 28.85L162.32 28.73Q162.09 30.82 163.31 31.83L163.43 31.95L163.33 31.85Q164.54 32.85 166.67 32.77L166.64 32.74L166.72 32.82Q169.10 32.73 170.05 31.78L170.01 31.73L169.96 31.68Q171.05 30.30 170.93 28.47L170.83 28.37L170.96 28.50Q170.79 26.58 169.71 25.38L169.79 25.47L169.64 25.32Q168.67 24.22 166.84 24.22ZM166.75 14.73L166.75 14.74L166.74 14.72Q165.34 14.61 164.01 15.11L164.04 15.14L164.04 15.14Q162.77 15.97 163.00 17.83L163.02 17.85L162.95 17.79Q163.40 21.47 166.75 21.47L166.80 21.52L166.86 21.58Q168.27 21.62 169.26 20.48L169.41 20.63L169.42 20.64Q170.33 19.42 170.37 17.86L170.30 17.79L170.39 17.88Q170.46 16.12 169.74 15.52L169.78 15.55L169.78 15.56Q167.99 14.60 166.69 14.68ZM166.52 35.33L166.46 35.27L163.44 35.29L163.54 35.40Q161.86 35.23 160.53 34.36L160.64 34.48L160.55 34.38Q159.26 33.32 159.41 30.46L159.48 30.53L159.32 30.37Q159.80 23.54 163.42 22.55L163.37 22.51L163.42 22.56Q161.25 21.75 159.92 16.39L159.78 16.25L159.82 16.30Q159.55 14.95 159.62 14.15L159.50 14.03L159.49 14.02Q159.89 11.99 163.59 11.95L163.49 11.85L163.61 11.98Q167.78 11.84 169.22 12.03L169.18 11.99L169.28 12.08Q173.03 12.53 173.49 14.54L173.55 14.61L173.46 14.52Q173.65 15.20 173.65 15.58L173.68 15.61L173.74 15.67Q173.71 16.32 173.52 16.93L173.53 16.94L173.46 16.87Q172.78 21.03 169.85 22.55L169.94 22.65L170.02 22.72Q173.43 23.43 173.93 28.72L173.88 28.67L173.98 28.77Q173.94 28.89 173.98 30.18L174.02 30.23L173.97 30.18Q174.06 32.93 172.46 33.99L172.41 33.94L172.47 34.01Q171.03 34.81 166.46 35.27ZM168.74 37.58L168.88 37.72L172.06 37.63L172.23 37.80Q173.86 37.80 175.39 37.07L175.32 37.00L175.41 37.09Q176.50 36.32 176.58 34.46L176.51 34.39L176.53 34.42Q176.58 33.32 176.20 31.38L176.16 31.34L176.34 31.52Q175.31 26.75 173.21 24.89L173.30 24.98L173.01 24.49L172.92 24.32L172.65 23.94L172.64 23.93Q174.40 22.69 175.31 18.54L175.21 18.43L175.32 18.55Q175.28 18.12 175.36 17.29L175.42 17.35L175.26 17.19Q175.48 16.65 175.40 16.04L175.26 15.90L175.37 16.01Q175.20 14.54 174.02 14.04L173.90 13.93L174.00 13.99L173.91 13.98L173.78 13.84Q173.67 13.28 172.49 12.48L172.32 12.31L172.44 12.39L172.40 12.35Q170.36 11.61 166.29 11.42L166.39 11.52L166.48 11.61Q164.87 11.44 163.50 11.56L163.55 11.61L163.36 11.42Q162.66 11.56 161.37 11.71L161.27 11.61L161.43 11.77Q159.39 12.05 159.16 13.69L159.24 13.77L159.22 13.75Q159.21 14.28 159.25 15.08L159.25 15.07L159.16 14.99Q159.21 15.46 159.78 17.82L159.81 17.85L159.90 17.93Q160.57 21.04 162.33 22.38L162.35 22.40L162.57 22.62L162.52 22.57Q159.73 23.85 159.19 29.03L159.10 28.93L159.28 29.12Q159.06 31.29 159.06 32.21L158.97 32.12L158.92 32.06Q159.05 33.91 160.23 34.82L160.31 34.90L160.30 34.90Q160.35 34.91 160.62 35.10L160.72 35.20L160.73 35.21Q161.60 37.34 168.72 37.56ZM168.38 26.49L168.34 26.45L168.39 26.49Q169.32 26.44 170.20 26.90L170.22 26.92L170.31 27.01Q170.56 27.87 170.52 28.40L170.50 28.38L170.62 28.50Q170.66 28.80 170.66 29.11L170.55 29.00L170.60 29.05Q170.64 31.45 168.36 32.29L168.42 32.35L168.28 32.22Q167.53 32.57 166.73 32.45L166.82 32.54L166.73 32.45Q165.61 32.55 164.47 32.10L164.52 32.14L164.42 32.05Q164.27 31.52 164.35 30.53L164.21 30.39L164.30 30.47Q164.43 28.86 165.63 27.64L165.67 27.68L165.73 27.74Q166.84 26.44 168.44 26.55ZM168.63 17.04L168.59 16.99L168.65 17.05Q169.54 17.03 170.07 17.18L170.02 17.13L169.96 17.86L170.07 17.97Q170.02 19.34 169.11 20.34L169.14 20.37L169.16 20.40Q168.24 21.40 166.87 21.21L166.83 21.17L166.73 21.07Q165.89 21.22 165.47 20.99L165.39 20.91L165.32 20.84Q165.33 20.62 165.21 19.93L165.22 19.94L165.16 19.88Q164.96 18.53 166.17 17.70L166.17 17.69L166.17 17.69Q167.22 16.99 168.63 17.03Z"/><path fill="#222" d="M135.92 24.62L136.04 24.74L135.85 24.55Q135.86 28.82 135.13 32.97L135.23 33.06L135.32 33.16Q137.53 32.54 140.61 32.43L140.59 32.41L140.49 32.31Q141.92 32.60 142.98 31.59L142.88 31.48L142.91 31.52Q143.93 30.46 143.93 29.13L143.97 29.17L144.10 29.29Q144.12 29.01 144.08 28.74L143.90 28.57L144.07 28.73Q143.77 25.65 141.52 24.81L141.58 24.87L141.68 24.97Q140.79 24.54 140.11 24.62L140.05 24.56L140.17 24.68Q139.04 24.54 138.02 24.58L138.01 24.57L138.05 24.61Q137.01 24.68 135.98 24.68ZM134.72 14.21L134.75 14.24L134.77 14.25Q135.60 17.52 135.87 21.90L135.77 21.80L135.79 21.82Q137.27 21.97 139.94 22.01L139.89 21.97L139.92 21.99Q142.94 22.12 143.28 18.58L143.16 18.46L143.26 18.56Q143.47 16.64 142.06 15.80L141.97 15.71L142.02 15.76Q141.21 15.33 136.79 14.68L136.62 14.50L136.70 14.59Q135.66 14.46 134.75 14.23ZM131.14 37.16L131.07 37.09L130.98 37.00Q133.56 30.44 133.29 23.05L133.32 23.08L133.35 23.11Q133.00 15.76 130.07 9.29L130.10 9.32L129.95 9.17Q133.94 11.90 140.16 12.15L140.16 12.15L140.00 11.99Q146.39 12.40 146.73 15.29L146.66 15.22L146.62 15.18Q147.05 18.05 145.64 20.71L145.49 20.56L145.67 20.74Q144.90 22.22 143.30 22.90L143.23 22.83L143.19 22.79Q146.90 23.53 147.13 28.90L147.19 28.96L147.03 28.80Q147.27 30.07 147.19 31.47L147.18 31.46L147.07 31.35Q147.02 32.67 146.09 33.60L146.05 33.56L146.06 33.58Q145.10 34.48 143.77 34.64L143.85 34.72L143.89 34.76Q142.37 34.80 141.31 34.80L141.40 34.90L141.28 34.77Q135.69 34.90 131.16 37.18ZM143.83 37.37L143.93 37.46L143.93 37.46Q144.85 37.51 146.71 37.62L146.63 37.54L146.65 37.56Q148.10 37.63 149.20 36.76L149.14 36.69L149.23 36.78Q150.02 35.86 149.91 34.30L149.81 34.21L149.80 34.20Q149.81 33.33 149.09 29.86L149.17 29.95L149.16 29.94Q148.45 26.68 146.59 25.20L146.51 25.12L146.06 24.25L146.10 24.29Q147.84 22.95 148.42 19.18L148.28 19.05L148.40 19.17Q148.60 18.08 148.53 16.67L148.53 16.67L148.34 16.48Q148.40 15.28 147.29 14.44L147.32 14.47L147.38 14.53Q146.93 14.19 146.81 14.16L146.88 14.22L146.78 14.12Q146.66 13.73 145.82 12.94L145.71 12.83L145.70 12.82Q144.30 11.87 140.07 11.68L139.98 11.58L139.95 11.55Q133.39 11.35 129.39 8.46L129.47 8.54L129.48 8.55Q132.68 15.47 132.98 23.01L133.01 23.04L132.93 22.96Q133.37 30.90 130.56 37.83L130.57 37.84L132.61 36.88L132.65 36.91Q132.22 38.01 131.73 39.15L131.76 39.19L131.73 39.16Q135.99 37.25 141.01 37.25L140.95 37.19L140.98 37.21Q142.50 37.33 143.95 37.48ZM141.75 26.87L141.76 26.88L141.77 26.89Q142.38 26.70 143.30 27.16L143.28 27.14L143.35 27.21Q143.43 27.52 143.58 28.59L143.64 28.64L143.71 28.72Q143.79 29.97 142.85 31.02L142.92 31.09L142.80 30.96Q142.01 32.15 140.60 32.04L140.64 32.08L139.02 32.06L139.16 32.19Q138.30 32.14 137.58 32.26L137.49 32.16L137.56 32.23Q137.84 30.38 137.91 26.92L137.92 26.93L137.96 26.97Q138.55 26.83 139.81 26.79L139.94 26.92L139.87 26.86Q141.20 26.89 141.81 26.93ZM140.67 17.22L140.78 17.34L141.05 17.22L141.09 17.27Q141.41 17.35 141.60 17.39L141.55 17.35L141.84 17.25L142.14 17.36L142.94 17.62L142.93 17.62Q142.96 17.80 142.96 18.11L142.91 18.06L142.91 18.59L142.92 18.60Q142.88 19.82 142.01 20.75L142.06 20.80L142.04 20.78Q141.17 21.72 139.95 21.72L139.88 21.65L140.02 21.79Q138.86 21.66 138.86 21.66L138.95 21.75L138.96 21.76Q137.55 21.65 137.90 21.65L137.99 21.74L137.84 21.59Q137.85 20.12 137.55 17.07L137.63 17.15L137.55 17.07Q139.11 17.19 140.64 17.19Z"/></svg>