<svg xmlns="http://www.w3.org/2000/svg" width="200" height="40" viewBox="0,0,200,40"><path fill="#222" d="M36.01 18.06L35.97 18.01L35.94 17.99Q34.17 20.74 31.50 26.38L31.44 26.32L29.49 30.60L29.47 30.59Q28.73 32.62 27.39 34.87L27.30 34.77L27.29 34.76Q27.81 34.83 26.14 34.87L26.20 34.93L26.18 34.92Q26.13 34.86 24.88 34.86L24.82 34.80L24.78 34.77Q24.05 33.28 21.12 26.12L21.18 26.18L21.14 26.14Q19.12 20.92 17.03 17.92L17.01 17.90L16.95 17.84Q17.75 20.96 17.75 24.12L17.70 24.07L17.67 24.04Q17.68 30.56 14.71 36.12L14.73 36.14L14.83 36.24Q13.47 36.55 11.11 37.27L11.04 37.21L11.08 37.25Q14.81 31.62 14.81 24.38L14.67 24.24L14.67 24.24Q14.78 15.41 9.38 8.44L9.32 8.38L9.30 8.36Q10.94 9.09 13.30 9.78L13.24 9.71L13.24 9.71Q20.46 16.63 26.55 29.95L26.48 29.88L26.50 29.90Q29.93 22.83 32.14 19.32L32.13 19.32L32.16 19.34Q35.81 13.63 39.77 10.17L39.65 10.05L39.62 10.02Q40.89 9.80 43.25 9.04L43.28 9.07L43.27 9.06Q38.25 15.65 38.25 24.25L38.27 24.27L38.40 24.41Q38.31 30.98 41.74 36.50L41.69 36.45L41.81 36.57Q40.39 36.18 37.65 35.57L37.75 35.67L37.70 35.62Q35.33 30.81 35.33 24.83L35.23 24.74L35.28 24.78Q35.39 21.47 36.07 18.12ZM37.55 36.04L37.48 35.97L37.59 36.08Q38.21 36.13 39.66 36.40L39.71 36.45L39.57 36.31Q40.15 37.19 41.10 38.68L41.05 38.62L41.12 38.70Q43.24 39.10 46.70 40.32L46.68 40.30L46.72 40.34Q40.42 33.96 40.42 24.14L40.31 24.03L40.36 24.08Q40.35 16.34 44.73 10.21L44.72 10.20L42.56 10.94L42.64 11.02Q43.48 9.31 44.13 8.43L44.23 8.53L44.12 8.42Q42.35 9.17 39.72 9.70L39.67 9.65L39.67 9.65Q32.84 15.69 26.79 28.29L26.87 28.36L26.95 28.45Q21.67 17.39 16.72 12.13L16.83 12.24L16.76 12.16Q16.36 12.07 15.78 11.95L15.75 11.92L14.52 10.61L14.59 10.68Q14.07 10.08 13.38 9.47L13.28 9.37L13.34 9.43Q10.38 8.53 8.59 7.80L8.44 7.66L8.59 7.80Q14.45 14.88 14.45 24.28L14.47 24.31L14.41 24.25Q14.50 31.95 10.35 37.82L10.32 37.78L10.42 37.88Q10.97 37.52 12.26 37.10L12.21 37.04L12.24 37.07Q12.19 37.41 10.79 39.50L10.85 39.57L10.72 39.44Q12.60 39.03 16.10 38.27L16.11 38.28L16.03 38.20Q19.81 31.20 19.62 23.44L19.57 23.39L19.59 23.41Q21.11 27.40 24.57 35.29L24.50 35.21L24.61 35.32Q24.74 35.14 24.97 35.14L25.11 35.29L25.57 35.21L25.58 35.23Q26.02 35.89 26.82 37.18L26.76 37.13L26.86 37.23Q28.46 37.19 28.46 37.19L28.48 37.21L28.44 37.17Q29.39 37.10 30.04 37.17L30.18 37.31L30.02 37.16Q31.74 33.28 35.09 25.28L34.97 25.16L35.01 25.20Q34.86 30.61 37.45 35.94Z"/><path fill="#111" d="M167.04 14.70L167.04 14.70L166.97 14.63Q165.08 14.84 164.13 14.99L164.07 14.93L164.13 14.99Q162.40 15.12 161.18 15.65L161.30 15.77L161.27 15.74Q157.65 17.07 157.54 21.76L157.69 21.91L157.59 21.81Q157.46 24.42 158.10 27.35L158.13 27.37L158.16 27.41Q159.00 31.40 162.62 32.58L162.66 32.63L162.70 32.67Q164.49 33.12 165.93 32.97L165.97 33.01L166.53 33.11L166.43 33.01Q166.61 33.00 166.80 33.03L166.80 33.03L166.92 33.15Q167.06 33.14 167.21 33.10L167.22 33.11L167.08 32.98Q169.69 32.69 171.06 32.12L171.05 32.11L167.48 28.57L167.60 28.69Q167.81 28.26 168.42 27.65L168.57 27.80L169.38 26.78L169.33 26.74Q171.28 28.91 173.26 30.97L173.14 30.85L173.17 30.88Q175.63 29.19 175.90 23.82L175.85 23.77L175.89 23.82Q175.84 22.77 175.84 21.86L175.98 22.00L175.93 21.95Q175.92 16.27 170.86 15.16L170.75 15.05L170.82 15.13Q169.58 14.88 167.07 14.73ZM179.81 36.76L179.79 36.74L179.77 36.72Q179.22 37.19 178.04 38.07L178.02 38.05L173.67 34.42L173.66 34.42Q171.22 35.66 166.95 35.70L166.93 35.68L166.77 35.52Q160.36 35.77 157.54 33.53L157.53 33.51L157.47 33.45Q155.79 31.77 155.33 28.80L155.26 28.73L155.30 28.77Q155.14 27.01 154.76 23.43L154.67 23.35L154.73 23.40Q154.75 22.70 154.64 20.95L154.48 20.80L154.52 20.83Q154.35 19.26 154.39 18.38L154.50 18.49L154.51 18.51Q154.47 15.30 156.22 13.74L156.26 13.78L156.41 13.93Q157.82 12.49 161.02 11.99L160.96 11.93L161.01 11.99Q163.43 11.54 166.32 11.62L166.31 11.61L166.41 11.70Q173.83 11.74 176.95 14.10L177.08 14.23L176.98 14.13Q179.25 16.36 178.98 21.27L178.95 21.24L178.90 21.19Q178.76 24.90 178.57 26.23L178.59 26.25L178.55 26.21Q177.89 30.68 175.56 33.01L175.52 32.96L175.49 32.93Q176.98 34.19 179.72 36.67ZM174.92 12.45L174.86 12.40L174.92 12.45Q172.93 11.76 166.42 11.27L166.41 11.25L166.42 11.26Q165.01 11.26 162.23 11.37L162.26 11.40L162.18 11.32Q157.95 11.54 155.70 13.52L155.74 13.56L155.76 13.58Q154.03 14.97 154.03 18.13L154.08 18.18L154.15 18.25Q154.06 19.00 154.21 20.72L154.20 20.70L154.16 20.67Q154.32 22.38 154.32 23.26L154.47 23.41L154.41 23.35Q154.66 25.20 155.04 28.78L154.95 28.68L154.95 28.69Q155.21 31.46 156.81 33.51L156.92 33.62L156.81 33.52Q157.15 34.35 158.36 35.49L158.43 35.55L158.48 35.60Q161.24 37.64 166.42 37.91L166.41 37.90L166.35 37.84Q166.68 37.83 169.08 37.94L169.08 37.94L169.08 37.95Q173.94 38.16 176.23 37.10L176.20 37.07L176.24 37.11Q177.02 37.70 181.74 41.28L181.79 41.33L181.83 41.36Q182.36 40.76 183.66 39.77L183.74 39.85L183.68 39.79Q182.81 39.11 182.01 38.42L182.09 38.50L180.41 37.02L180.40 36.85L180.37 36.83Q179.92 36.48 178.70 35.46L178.67 35.43L178.57 35.33Q180.57 32.92 180.57 28.39L180.49 28.30L180.64 28.46Q180.64 28.03 180.68 27.19L180.53 27.04L180.59 27.11Q180.71 26.35 180.71 25.93L180.62 25.85L180.61 25.83Q180.69 20.39 179.96 18.03L179.89 17.95L179.91 17.98Q179.48 16.63 178.61 15.57L178.65 15.61L178.73 15.69Q177.78 13.40 174.84 12.38ZM168.85 16.96L168.98 17.10L168.87 16.98Q173.03 17.00 174.86 18.60L174.81 18.55L174.77 18.51Q175.39 19.77 175.50 21.10L175.58 21.19L175.60 21.20Q175.48 22.26 175.40 23.63L175.49 23.72L175.57 23.80Q175.16 28.68 173.22 30.39L173.26 30.43L173.18 30.35Q171.86 29.03 169.34 26.29L169.35 26.30L169.38 26.33Q168.59 27.06 167.03 28.62L167.04 28.63L167.00 28.60Q167.63 29.27 168.78 30.45L168.86 30.53L168.65 30.43L168.66 30.45Q169.22 30.96 170.24 32.03L170.19 31.97L170.25 32.03Q169.26 32.30 166.94 32.61L167.00 32.66L166.37 32.57L166.06 32.68L166.06 32.72L166.02 32.67Q162.63 32.75 160.65 31.11L160.56 31.02L160.61 31.07Q159.58 28.98 159.62 25.86L159.63 25.86L159.62 25.86Q159.69 17.06 168.87 16.98Z"/><path fill="#333" d="M85.14 34.88L85.09 34.83L83.14 34.82L83.17 34.85Q82.14 34.78 81.19 34.89L81.25 34.95L81.18 34.88Q81.77 28.70 81.77 24.70L81.89 24.82L81.77 24.70Q77.81 18.03 70.15 9.35L70.30 9.50L70.18 9.37Q72.05 10.44 75.40 11.24L75.46 11.30L75.40 11.25Q80.48 16.86 83.48 22.07L83.48 22.07L83.40 21.99Q86.46 16.49 90.84 11.46L90.81 11.43L90.86 11.48Q93.29 11.09 95.80 10.29L95.78 10.27L95.77 10.26Q89.61 16.24 84.74 24.66L84.80 24.72L84.85 24.77Q84.70 31.67 85.01 34.75ZM94.25 12.32L96.83 9.34L96.92 9.43Q93.85 10.62 90.73 11.08L90.69 11.04L90.68 11.03Q86.57 15.87 83.75 20.97L83.67 20.89L83.60 20.82Q81.43 17.13 78.23 13.24L78.27 13.28L78.25 13.26Q78.13 13.40 77.63 13.33L77.65 13.35L77.53 13.22Q76.87 12.45 75.35 10.78L75.28 10.71L75.26 10.69Q71.89 9.94 68.92 8.38L68.92 8.38L68.91 8.37Q76.79 17.01 81.55 24.93L81.54 24.93L81.42 24.80Q81.42 31.23 80.81 35.38L80.77 35.34L80.78 35.35Q81.54 35.36 82.99 35.25L83.06 35.31L83.05 36.33L82.93 36.21Q82.96 36.70 82.88 37.23L82.94 37.29L82.86 37.20Q86.48 37.29 88.23 37.48L88.15 37.40L88.17 37.42Q86.84 32.67 86.73 26.69L86.84 26.80L86.79 26.75Q91.18 18.31 97.73 10.96L97.79 11.02L94.17 12.24Z"/><path d="M17 32 C99 31,114 9,191 26" stroke="#555" fill="none"/><path fill="#111" d="M62.58 18.34L62.61 18.37L62.57 18.32Q60.85 14.25 54.64 14.44L54.58 14.37L54.53 14.32Q50.13 14.45 48.15 15.90L48.29 16.04L48.18 15.93Q45.90 17.80 45.90 21.91L45.88 21.89L45.91 23.79L45.91 23.79Q45.79 32.50 54.81 32.50L54.84 32.52L54.83 32.52Q56.96 32.59 58.45 31.79L58.48 31.82L58.32 31.66Q60.26 30.75 60.10 28.88L60.00 28.77L60.12 28.89Q59.78 26.66 56.09 25.74L56.09 25.74L54.26 25.86L54.30 25.90Q53.35 25.90 52.40 25.94L52.29 25.83L52.28 25.82Q52.35 24.93 52.31 23.03L52.30 23.02L52.28 23.00Q59.91 22.97 64.09 22.63L64.05 22.59L64.14 22.67Q64.07 23.48 64.07 24.28L64.11 24.32L64.02 24.23Q64.07 25.08 64.11 25.88L64.04 25.81L64.06 25.83Q63.00 25.88 63.00 25.88L63.02 25.90L63.03 25.90Q61.69 25.94 62.07 25.94L62.04 25.91L62.09 25.95Q63.15 27.55 63.53 29.52L63.48 29.48L63.41 29.41Q63.65 30.26 63.65 30.72L63.50 30.57L63.64 30.71Q63.50 35.21 54.71 35.21L54.71 35.21L54.85 35.36Q47.59 35.21 45.00 33.12L45.04 33.16L45.17 33.29Q43.04 30.77 43.04 25.71L43.04 25.71L43.14 25.82Q43.03 24.64 42.88 21.94L42.91 21.96L42.99 22.04Q42.87 19.71 42.90 18.34L42.82 18.26L42.81 18.25Q43.02 15.49 44.39 13.89L44.41 13.91L44.43 13.93Q46.81 11.71 51.68 11.52L51.66 11.49L54.46 11.55L54.35 11.44Q57.47 11.37 60.90 11.78L60.89 11.78L61.03 11.91Q64.74 12.35 65.69 15.59L65.69 15.58L65.56 15.45Q64.52 16.36 62.43 18.19ZM63.86 20.42L64.03 20.47L64.12 20.56Q65.31 19.47 67.18 17.49L67.11 17.43L67.17 17.48Q66.70 16.37 65.71 14.66L65.77 14.71L65.75 14.70Q64.65 12.11 60.84 11.46L60.81 11.43L60.81 11.42Q58.77 11.40 54.46 11.10L54.50 11.13L51.73 11.18L51.71 11.16Q46.49 11.31 43.91 13.29L44.00 13.38L43.91 13.29Q42.53 14.92 42.41 18.00L42.41 18.00L42.43 18.02Q42.50 17.63 42.73 23.12L42.75 23.14L42.73 23.12Q42.69 24.41 42.77 27.15L42.80 27.19L42.74 27.12Q43.07 31.72 44.82 33.66L44.66 33.50L44.73 33.57Q45.07 34.37 45.95 35.24L45.92 35.22L45.97 35.26Q48.98 37.25 54.50 37.60L54.42 37.51L57.33 37.72L57.33 37.72Q58.88 37.78 60.89 37.66L60.97 37.74L60.85 37.62Q62.41 37.66 64.50 37.12L64.39 37.01L64.53 37.15Q66.38 36.57 66.34 34.25L66.46 34.36L66.31 34.21Q66.45 33.10 65.39 30.32L65.27 30.20L65.27 30.21Q65.10 29.42 64.56 28.62L64.49 28.54L64.54 28.60Q65.17 28.66 66.35 28.85L66.24 28.74L66.18 28.68Q65.98 25.17 66.02 24.48L66.05 24.51L65.94 24.41Q65.68 24.53 65.27 24.49L65.16 24.38L65.29 24.51Q64.76 24.33 64.38 24.40L64.43 24.45L64.45 24.47Q64.37 23.29 64.44 22.22L64.42 22.19L64.49 22.27Q58.24 22.79 51.96 22.68L51.93 22.65L51.96 22.68Q52.05 23.64 52.05 24.55L52.06 24.57L52.03 26.29L51.90 26.16Q52.49 26.37 52.91 26.33L52.81 26.24L52.91 26.33Q53.11 26.11 53.57 26.11L53.71 26.26L53.72 26.26Q53.66 26.67 53.70 27.16L53.60 27.06L53.68 27.14Q53.72 27.64 53.68 28.13L53.74 28.19L53.60 28.04Q54.75 28.14 55.78 28.10L55.66 27.98L55.78 28.10Q56.81 28.10 57.84 28.14L57.75 28.05L57.80 28.10Q58.80 28.30 59.67 28.68L59.64 28.65L59.71 28.75L59.80 28.84Q59.85 30.26 58.17 31.17L58.14 31.14L58.21 31.22Q56.46 32.05 54.75 32.05L54.77 32.08L54.85 32.16Q50.94 32.09 48.50 30.34L48.63 30.46L48.55 30.38Q47.59 28.36 47.74 25.81L47.68 25.74L47.81 25.88Q48.09 21.06 49.94 19.06L49.97 19.09L49.91 19.03Q51.78 17.05 56.46 16.75L56.41 16.69L56.35 16.64Q60.09 16.49 62.03 18.28L62.03 18.29L61.98 18.24Q62.08 18.37 62.20 18.56L62.24 18.61L62.27 18.52L62.28 18.54Q63.06 19.43 63.63 20.53L63.61 20.51L63.80 20.36Z"/><path fill="#333" d="M146.41 32.88L146.52 32.99L146.39 32.86Q146.68 33.84 147.21 35.85L147.21 35.85L147.35 35.99Q142.96 34.49 138.35 34.76L138.45 34.86L138.52 34.93Q133.89 35.13 129.90 37.11L129.78 37.00L129.90 37.11Q130.05 36.35 130.09 36.43L130.10 36.44L130.23 36.57Q133.78 32.43 137.70 28.02L137.88 28.20L137.85 28.17Q142.11 23.02 143.29 18.34L143.45 18.50L143.47 18.52Q143.87 16.72 142.60 15.54L142.57 15.51L142.55 15.49Q141.37 14.40 139.58 14.56L139.56 14.53L139.50 14.48Q139.25 14.53 138.91 14.53L138.78 14.40L138.84 14.46Q137.25 14.39 135.99 15.30L136.00 15.31L136.13 15.44Q134.69 16.67 134.92 19.33L135.06 19.47L135.08 19.49Q133.17 19.03 131.95 18.58L131.95 18.58L131.96 18.58Q131.68 17.09 131.61 15.64L131.72 15.76L131.77 15.81Q131.57 14.05 132.18 12.90L132.26 12.98L132.14 12.86Q134.02 11.58 137.37 11.58L137.31 11.52L139.20 11.66L139.20 11.67Q141.48 11.69 142.43 11.81L142.46 11.84L142.26 11.64Q146.78 12.23 147.04 14.67L146.98 14.61L146.94 14.57Q146.96 15.08 146.88 15.88L147.00 16.00L147.05 16.04Q147.02 16.70 146.87 17.39L146.82 17.34L146.80 17.32Q145.19 25.45 137.61 32.30L137.66 32.36L137.62 32.31Q138.96 32.09 140.33 32.09L140.36 32.12L140.41 32.17Q143.66 32.18 146.51 32.98ZM145.77 11.99L145.79 12.01L145.85 12.07Q144.25 11.41 142.53 11.34L142.50 11.31L139.12 11.16L139.16 11.20Q134.76 10.99 132.55 12.09L132.40 11.94L132.40 11.94Q131.40 13.38 131.40 15.43L131.32 15.35L131.32 15.35Q131.37 16.09 131.68 18.91L131.72 18.95L131.65 18.89Q132.36 19.29 133.54 19.59L133.53 19.58L133.51 20.59L133.38 20.46Q133.33 20.90 133.41 21.44L133.50 21.54L133.54 21.58Q134.72 21.61 137.19 21.83L137.12 21.77L137.24 21.88Q137.19 21.49 137.19 21.15L137.09 21.05L137.19 21.15Q137.23 19.36 138.45 18.01L138.32 17.89L138.40 17.96Q139.62 16.61 141.40 16.72L141.47 16.79L141.33 16.65Q142.17 16.76 142.93 16.91L142.97 16.95L143.02 17.01Q143.10 17.35 143.17 17.77L143.12 17.72L143.08 17.67Q143.11 18.08 143.03 18.43L143.02 18.41L143.02 18.41Q141.76 23.17 137.35 28.00L137.34 28.00L137.42 28.08Q135.36 30.40 129.92 36.45L129.80 36.34L129.77 36.30Q129.62 37.18 129.28 37.75L129.39 37.87L129.35 37.83Q130.97 36.97 132.50 36.44L132.36 36.30L132.52 36.46Q131.70 36.94 130.75 38.43L130.81 38.48L130.74 38.42Q130.56 38.69 130.45 39.04L130.55 39.14L130.60 39.18Q135.48 37.14 140.96 37.33L140.95 37.32L140.97 37.34Q146.63 37.48 151.20 39.84L151.09 39.73L150.22 37.72L150.03 37.53Q149.47 36.29 149.21 35.49L149.18 35.46L149.14 35.42Q148.54 35.13 147.32 34.71L147.31 34.70L147.37 34.75Q147.08 33.89 146.70 32.52L146.83 32.66L146.78 32.60Q144.49 31.95 142.20 31.76L142.23 31.79L142.15 31.71Q146.92 27.22 148.44 18.96L148.39 18.91L148.61 16.04L148.63 16.07Q148.60 14.32 147.38 13.64L147.43 13.69L147.24 13.53L147.30 13.59Q147.23 13.49 147.15 13.49L147.24 13.58L147.12 13.45Q146.97 12.69 145.87 12.09Z"/><path fill="#444" d="M109.26 35.02L109.23 34.99L109.10 34.86Q104.92 34.30 103.10 32.85L103.07 32.82L103.08 32.84Q101.25 31.39 100.83 28.38L100.86 28.41L100.81 28.35Q100.81 28.02 100.47 23.26L100.52 23.31L100.56 23.35Q100.60 22.17 100.53 20.92L100.49 20.88L100.48 20.87Q100.26 15.77 102.46 14.02L102.47 14.02L102.50 14.06Q105.26 12.06 113.03 11.37L112.94 11.29L112.91 11.26Q114.26 11.12 115.89 11.16L115.88 11.15L116.02 11.29Q115.85 11.11 118.82 11.11L118.91 11.20L118.90 11.19Q119.76 11.22 121.47 11.37L121.39 11.29L121.51 11.40Q120.98 12.32 119.95 15.40L119.98 15.43L119.89 15.35Q117.94 14.27 114.94 14.27L114.86 14.20L114.75 14.09Q114.14 14.24 113.34 14.31L113.36 14.34L113.22 14.20Q108.10 14.63 105.59 16.61L105.64 16.67L105.73 16.76Q103.74 18.38 103.59 21.73L103.58 21.73L103.49 21.64Q103.53 22.32 103.57 23.58L103.55 23.56L103.54 23.55Q103.55 28.28 105.95 30.38L106.08 30.50L105.93 30.35Q108.16 32.36 113.15 32.66L113.14 32.66L113.19 32.70Q116.25 32.79 119.25 31.00L119.39 31.14L119.25 31.00Q119.85 33.73 120.46 35.10L120.56 35.20L120.49 35.13Q118.34 35.34 116.70 35.30L116.76 35.36L116.70 35.30Q112.25 35.26 109.12 34.88ZM124.19 38.57L124.24 38.62L124.26 38.64Q122.59 35.74 121.90 33.15L121.87 33.12L121.83 33.08Q121.39 33.32 120.40 33.71L120.49 33.80L120.38 33.69Q120.07 32.92 119.88 32.08L119.84 32.05L119.57 30.44L119.47 30.34Q116.23 32.44 113.11 32.32L113.04 32.25L113.17 32.38Q108.85 32.13 106.53 30.38L106.54 30.40L106.52 30.38Q105.39 28.56 105.47 25.63L105.46 25.62L105.47 25.63Q105.58 21.10 108.05 18.97L108.06 18.97L108.10 19.01Q110.26 17.14 114.95 16.53L114.90 16.48L114.81 16.39Q115.58 16.25 116.30 16.25L116.39 16.33L116.41 16.36Q119.11 16.28 121.20 17.80L121.35 17.95L121.19 17.79Q121.71 15.68 122.93 12.44L123.08 12.59L123.02 12.53Q122.76 12.54 122.20 12.48L122.13 12.41L122.17 12.44Q121.51 12.29 121.25 12.29L121.44 12.48L121.26 12.30Q121.47 11.79 121.93 10.80L122.05 10.92L121.93 10.80Q121.82 10.92 119.33 10.84L119.33 10.84L119.36 10.88Q116.75 10.68 116.10 10.72L116.08 10.69L116.06 10.67Q105.61 11.07 102.14 13.66L102.20 13.72L102.13 13.65Q100.07 15.44 100.07 19.36L100.24 19.52L100.07 19.36Q100.18 20.58 100.30 23.28L100.16 23.14L100.19 23.17Q100.42 26.82 100.65 28.54L100.63 28.52L100.58 28.47Q100.89 31.52 102.49 33.05L102.52 33.07L102.62 33.17Q103.06 33.81 104.32 34.95L104.36 34.99L104.36 35.00Q107.65 36.80 112.90 37.56L112.92 37.58L112.76 37.42Q119.25 38.43 124.24 38.62Z"/><path d="M5 31 C84 23,100 11,185 23" stroke="#555" fill="none"/></svg>