<svg xmlns="http://www.w3.org/2000/svg" width="200" height="40" viewBox="0,0,200,40"><path fill="#222" d="M147.05 35.29L147.20 35.44L147.24 35.48Q144.22 31.55 141.59 22.91L141.50 22.81L141.58 22.89Q140.91 20.74 140.11 18.61L140.03 18.53L137.22 27.36L137.15 27.30Q135.36 32.24 132.96 35.47L133.00 35.52L133.06 35.58Q132.10 35.53 130.46 35.68L130.55 35.77L130.47 35.69Q130.63 34.55 130.63 33.30L130.52 33.19L130.54 33.21Q130.57 27.22 127.83 21.09L127.81 21.08L127.85 21.12Q124.74 14.23 118.87 9.25L118.82 9.19L118.89 9.26Q121.02 9.95 123.38 10.48L123.36 10.45L123.32 10.42Q132.08 18.95 133.37 29.91L133.34 29.88L133.27 29.81Q135.08 26.67 136.53 21.30L136.51 21.28L136.45 21.22Q138.38 13.68 138.87 12.27L138.95 12.34L141.22 12.37L141.13 12.28Q141.96 14.45 142.61 16.77L142.54 16.69L143.74 21.10L143.68 21.03Q145.35 26.59 146.76 29.83L146.78 29.85L146.79 29.85Q148.38 18.16 156.30 10.81L156.37 10.88L156.36 10.87Q157.77 10.42 160.74 9.77L160.79 9.82L160.81 9.84Q155.52 14.18 152.48 20.31L152.52 20.36L152.40 20.24Q149.30 26.47 149.30 33.24L149.38 33.32L149.38 33.31Q149.44 34.48 149.51 35.62L149.40 35.51L148.31 35.44L148.24 35.38Q147.61 35.28 147.04 35.28ZM153.36 38.25L153.39 38.28L153.43 38.32Q152.04 34.61 152.15 30.72L152.17 30.74L152.16 30.73Q152.58 19.27 161.94 11.01L162.01 11.08L161.99 11.06Q161.00 11.25 159.06 11.78L159.10 11.82L159.05 11.77Q160.04 10.97 161.94 9.18L161.98 9.22L161.97 9.21Q159.32 9.98 156.39 10.48L156.22 10.31L156.38 10.47Q148.89 17.60 146.99 27.08L146.87 26.97L146.93 27.03Q146.27 25.30 143.42 13.84L143.46 13.88L143.46 13.89Q143.16 14.08 142.21 14.08L142.05 13.92L141.86 12.97L141.86 12.97Q141.78 12.47 141.55 11.97L141.51 11.93L138.64 11.96L138.63 11.95Q137.76 14.35 136.48 19.47L136.44 19.43L136.54 19.53Q135.17 24.56 134.18 27.03L134.17 27.02L134.28 27.12Q132.58 19.11 127.03 12.79L127.04 12.80L126.99 12.75Q126.58 12.77 125.63 12.58L125.65 12.59L125.69 12.64Q124.85 11.68 123.29 10.04L123.35 10.10L123.44 10.20Q120.06 9.40 117.89 8.60L117.73 8.44L117.71 8.43Q123.42 13.15 126.69 19.35L126.82 19.47L126.69 19.35Q130.17 25.98 130.17 32.99L130.11 32.93L130.13 32.96Q130.17 34.56 129.98 36.16L130.08 36.25L130.11 36.28Q130.26 36.20 130.71 36.10L130.59 35.99L130.70 36.09Q131.18 36.02 131.40 36.02L131.41 36.02L131.41 37.05L131.37 37.01Q131.35 37.44 131.42 37.97L131.50 38.06L131.41 37.97Q132.60 37.93 134.88 37.78L134.91 37.81L134.94 37.84Q138.55 32.42 141.29 23.02L141.15 22.88L141.15 22.88Q144.03 31.77 147.00 35.73L147.08 35.82L147.05 35.78Q147.45 35.73 148.29 35.84L148.24 35.80L148.39 35.94Q149.25 37.00 150.32 38.06L150.15 37.90L150.31 38.06Q150.93 37.95 153.33 38.22Z"/><path d="M7 26 C92 26,90 3,195 22" stroke="#999" fill="none"/><path fill="#222" d="M118.86 35.39L118.76 35.28L118.88 35.41Q115.95 31.57 113.33 22.93L113.25 22.85L113.31 22.91Q112.55 20.67 111.75 18.54L111.79 18.57L108.89 27.32L108.92 27.35Q107.06 32.23 104.66 35.46L104.78 35.58L104.62 35.42Q103.79 35.51 102.16 35.66L102.18 35.68L102.14 35.64Q102.29 34.50 102.29 33.24L102.30 33.26L102.27 33.22Q102.28 27.22 99.54 21.09L99.53 21.08L99.65 21.21Q96.55 14.33 90.69 9.35L90.68 9.34L90.58 9.23Q92.74 9.95 95.10 10.48L95.08 10.46L95.03 10.41Q103.72 18.87 105.01 29.84L105.07 29.89L105.01 29.84Q106.76 26.64 108.21 21.27L108.06 21.12L108.08 21.14Q110.16 13.75 110.66 12.34L110.66 12.34L112.96 12.39L112.93 12.36Q113.69 14.46 114.34 16.78L114.30 16.74L115.43 21.07L115.37 21.00Q116.95 26.47 118.36 29.71L118.49 29.84L118.40 29.75Q120.03 18.09 127.95 10.74L128.03 10.82L128.11 10.91Q129.65 10.58 132.62 9.93L132.45 9.77L132.51 9.83Q127.23 14.18 124.18 20.30L124.14 20.26L124.16 20.28Q121.02 26.47 121.02 33.25L121.10 33.32L121.02 33.25Q121.02 34.35 121.09 35.49L121.08 35.48L120.03 35.46L120.06 35.49Q119.33 35.28 118.76 35.28ZM125.16 38.34L125.07 38.24L125.09 38.26Q123.84 34.69 123.95 30.81L123.91 30.76L124.00 30.85Q124.33 19.31 133.70 11.05L133.57 10.92L133.73 11.09Q132.71 11.24 130.77 11.77L130.82 11.83L130.86 11.87Q131.82 11.03 133.72 9.25L133.69 9.21L133.53 9.06Q130.87 9.83 127.94 10.32L128.04 10.42L127.93 10.31Q120.56 17.56 118.66 27.04L118.54 26.92L118.53 26.91Q118.14 25.45 115.28 13.99L115.12 13.83L115.12 13.83Q114.77 13.97 113.81 13.97L113.91 14.07L113.50 12.90L113.51 12.90Q113.49 12.47 113.26 11.97L113.24 11.95L110.32 11.93L110.32 11.93Q109.49 14.37 108.21 19.49L108.13 19.41L108.11 19.38Q106.88 24.55 105.89 27.02L105.95 27.08L105.87 27.00Q104.38 19.20 98.83 12.88L98.70 12.75L98.78 12.84Q98.32 12.79 97.37 12.60L97.27 12.51L97.26 12.49Q96.64 11.76 95.08 10.12L95.02 10.07L95.00 10.04Q91.72 9.35 89.55 8.55L89.44 8.44L89.57 8.57Q95.15 13.16 98.42 19.36L98.45 19.40L98.37 19.31Q101.89 25.99 101.89 33.00L101.92 33.03L101.96 33.07Q101.83 34.50 101.64 36.10L101.79 36.25L101.77 36.22Q101.93 36.16 102.39 36.07L102.45 36.13L102.40 36.07Q102.89 36.02 103.12 36.02L103.03 35.93L103.16 37.09L103.17 37.10Q103.12 37.50 103.19 38.03L103.27 38.11L103.09 37.93Q104.25 37.87 106.53 37.71L106.69 37.87L106.58 37.76Q110.22 32.38 112.96 22.98L112.92 22.94L112.92 22.94Q115.72 31.76 118.69 35.72L118.75 35.77L118.74 35.76Q119.20 35.77 120.04 35.88L120.02 35.86L120.08 35.92Q120.91 36.94 121.97 38.00L121.88 37.91L121.96 37.99Q122.70 38.01 125.10 38.27Z"/><path d="M10 10 C116 6,119 23,195 25" stroke="#999" fill="none"/><path fill="#222" d="M82.07 14.58L82.14 14.66L82.25 14.77Q80.23 14.84 79.28 15.00L79.24 14.96L79.15 14.86Q77.54 15.12 76.33 15.66L76.43 15.76L76.36 15.69Q72.88 17.16 72.77 21.85L72.82 21.90L72.67 21.75Q72.69 24.51 73.34 27.44L73.42 27.52L73.40 27.50Q74.18 31.44 77.80 32.62L77.80 32.63L77.74 32.57Q79.68 33.18 81.13 33.02L81.13 33.02L81.49 32.93L81.58 33.02Q81.84 33.09 82.03 33.13L81.93 33.02L82.01 33.10Q82.11 33.05 82.26 33.01L82.22 32.97L82.29 33.04Q84.86 32.72 86.23 32.15L86.31 32.22L82.76 28.71L82.59 28.54Q83.02 28.33 83.63 27.72L83.62 27.71L84.59 26.85L84.58 26.84Q86.31 28.80 88.29 30.85L88.34 30.91L88.32 30.88Q90.66 29.07 90.92 23.71L91.04 23.82L90.86 23.64Q90.97 22.77 90.97 21.85L90.99 21.87L90.93 21.80Q90.95 16.15 85.88 15.05L85.98 15.15L85.96 15.13Q84.62 14.78 82.11 14.63ZM94.88 36.68L94.86 36.67L94.81 36.62Q94.30 37.13 93.12 38.01L93.20 38.09L88.72 34.33L88.67 34.29Q86.33 35.63 82.06 35.67L82.09 35.69L82.00 35.61Q75.42 35.69 72.61 33.45L72.64 33.48L72.58 33.42Q70.77 31.61 70.31 28.64L70.36 28.69L70.30 28.63Q70.24 26.96 69.86 23.39L69.77 23.30L69.77 23.30Q69.79 22.59 69.67 20.84L69.77 20.94L69.79 20.96Q69.51 19.27 69.54 18.39L69.49 18.34L69.58 18.43Q69.70 15.39 71.45 13.83L71.37 13.75L71.53 13.91Q72.88 12.40 76.08 11.91L76.27 12.10L76.28 12.10Q78.72 11.69 81.61 11.77L81.45 11.60L81.57 11.72Q89.10 11.87 92.23 14.24L92.12 14.13L92.17 14.18Q94.25 16.22 93.98 21.13L94.02 21.17L93.99 21.14Q93.96 24.95 93.77 26.28L93.65 26.17L93.61 26.12Q93.13 30.79 90.81 33.11L90.63 32.93L90.69 32.99Q92.10 34.17 94.84 36.65ZM89.99 12.38L90.05 12.44L90.05 12.44Q88.12 11.80 81.61 11.31L81.57 11.27L81.51 11.21Q80.25 11.36 77.47 11.47L77.40 11.40L77.46 11.46Q73.14 11.59 70.89 13.57L70.98 13.66L70.87 13.55Q69.35 15.15 69.35 18.31L69.35 18.31L69.21 18.17Q69.18 18.97 69.33 20.69L69.31 20.67L69.33 20.69Q69.51 22.43 69.51 23.31L69.47 23.27L69.60 23.40Q69.76 25.16 70.14 28.73L70.17 28.76L70.15 28.75Q70.47 31.58 72.07 33.64L71.97 33.54L71.97 33.54Q72.45 34.51 73.67 35.65L73.53 35.51L73.57 35.55Q76.33 37.59 81.51 37.86L81.58 37.93L81.56 37.91Q81.77 37.77 84.16 37.88L84.29 38.01L84.28 38.00Q88.97 38.04 91.25 36.98L91.40 37.13L91.23 36.96Q92.13 37.67 96.85 41.25L96.86 41.26L96.96 41.35Q97.45 40.71 98.75 39.72L98.82 39.79L98.81 39.78Q97.89 39.05 97.09 38.36L97.21 38.48L95.43 36.89L95.67 36.98L95.57 36.88Q95.12 36.54 93.90 35.51L93.90 35.52L93.88 35.50Q95.80 33.00 95.80 28.47L95.80 28.47L95.75 28.42Q95.71 27.96 95.75 27.12L95.65 27.02L95.76 27.13Q95.86 26.36 95.86 25.94L95.76 25.84L95.71 25.79Q95.77 20.33 95.05 17.97L95.09 18.01L95.14 18.06Q94.75 16.76 93.88 15.70L93.74 15.56L93.77 15.59Q92.97 13.46 90.04 12.43ZM84.14 17.12L83.98 16.95L84.02 16.99Q88.08 16.91 89.91 18.51L89.99 18.58L89.87 18.46Q90.46 19.70 90.57 21.03L90.74 21.20L90.57 21.03Q90.80 22.44 90.73 23.81L90.69 23.78L90.62 23.71Q90.39 28.77 88.45 30.48L88.40 30.43L88.29 30.32Q87.10 29.14 84.59 26.40L84.61 26.41L84.49 26.29Q83.75 27.08 82.19 28.64L82.15 28.60L82.19 28.64Q82.86 29.35 84.00 30.53L83.89 30.41L83.88 30.52L83.88 30.52Q84.46 31.06 85.49 32.13L85.45 32.09L85.45 32.09Q84.36 32.26 82.04 32.56L82.11 32.63L81.65 32.71L81.24 32.71L81.25 32.76L81.09 32.60Q77.64 32.62 75.66 30.98L75.81 31.13L75.76 31.08Q74.62 28.87 74.66 25.75L74.72 25.82L74.83 25.92Q74.88 17.11 84.06 17.03Z"/><path fill="#333" d="M35.98 18.02L36.05 18.09L36.10 18.15Q34.25 20.83 31.59 26.46L31.60 26.47L29.59 30.71L29.60 30.72Q28.75 32.65 27.42 34.89L27.40 34.87L27.25 34.72Q27.71 34.72 26.03 34.76L26.16 34.89L26.02 34.75Q26.02 34.75 24.77 34.75L24.80 34.78L24.80 34.78Q24.14 33.37 21.21 26.21L21.17 26.17L21.23 26.23Q18.97 20.77 16.87 17.76L16.98 17.87L16.97 17.85Q17.64 20.85 17.64 24.01L17.75 24.12L17.78 24.15Q17.73 30.61 14.76 36.16L14.69 36.10L14.83 36.24Q13.33 36.42 10.97 37.14L11.13 37.30L11.08 37.24Q14.78 31.58 14.78 24.35L14.83 24.40L14.70 24.27Q14.78 15.40 9.37 8.44L9.32 8.38L9.32 8.38Q11.03 9.17 13.39 9.86L13.39 9.86L13.35 9.82Q20.33 16.50 26.42 29.82L26.47 29.88L26.42 29.82Q30.05 22.94 32.26 19.44L32.22 19.41L32.25 19.44Q35.78 13.60 39.74 10.13L39.68 10.08L39.64 10.04Q41.03 9.94 43.39 9.17L43.34 9.12L43.33 9.12Q38.32 15.72 38.32 24.32L38.28 24.29L38.28 24.29Q38.37 31.03 41.79 36.55L41.82 36.58L41.69 36.45Q40.41 36.19 37.67 35.59L37.62 35.54L37.63 35.55Q35.32 30.81 35.32 24.83L35.28 24.79L35.42 24.92Q35.26 21.34 35.94 17.99ZM37.59 36.08L37.54 36.03L37.51 36.00Q38.24 36.16 39.69 36.43L39.55 36.29L39.64 36.38Q40.14 37.19 41.09 38.67L41.03 38.60L41.06 38.63Q43.16 39.02 46.62 40.24L46.71 40.33L46.66 40.28Q40.42 33.96 40.42 24.14L40.26 23.98L40.36 24.08Q40.44 16.43 44.81 10.30L44.65 10.14L42.66 11.04L42.54 10.92Q43.57 9.40 44.22 8.52L44.13 8.43L44.25 8.55Q42.35 9.17 39.73 9.70L39.64 9.62L39.74 9.72Q33.02 15.86 26.97 28.47L26.96 28.45L26.81 28.31Q21.71 17.42 16.76 12.17L16.69 12.10L16.72 12.13Q16.33 12.04 15.75 11.92L15.87 12.04L14.60 10.69L14.55 10.64Q14.00 10.02 13.32 9.41L13.40 9.49L13.24 9.33Q10.25 8.40 8.46 7.67L8.56 7.77L8.58 7.80Q14.45 14.88 14.45 24.28L14.46 24.30L14.44 24.27Q14.52 31.96 10.37 37.83L10.37 37.84L10.31 37.77Q11.09 37.64 12.38 37.22L12.27 37.11L12.22 37.06Q12.12 37.34 10.71 39.43L10.68 39.40L10.68 39.40Q12.61 39.05 16.12 38.29L16.12 38.29L16.09 38.25Q19.80 31.20 19.61 23.43L19.68 23.50L19.69 23.51Q21.19 27.48 24.65 35.36L24.58 35.30L24.58 35.29Q24.81 35.22 25.04 35.22L25.12 35.30L25.56 35.20L25.58 35.22Q25.97 35.84 26.76 37.13L26.92 37.29L26.94 37.31Q28.43 37.16 28.43 37.16L28.48 37.22L28.52 37.25Q29.56 37.26 30.21 37.34L30.11 37.24L30.06 37.19Q31.58 33.12 34.93 25.12L34.93 25.12L35.07 25.26Q34.86 30.61 37.45 35.94Z"/><path fill="#333" d="M46.97 10.82L47.11 10.96L46.97 10.82Q48.82 15.64 49.39 20.82L49.57 20.99L49.57 21.00Q53.26 16.84 59.16 12.01L59.00 11.84L59.06 11.91Q62.27 11.62 64.90 10.82L64.92 10.84L58.43 16.52L58.33 16.43Q54.96 19.41 52.10 22.27L52.02 22.18L52.04 22.20Q60.09 31.44 65.15 36.16L65.02 36.02L65.20 36.20Q62.11 35.28 59.79 35.13L59.79 35.13L59.67 35.01Q53.90 29.63 49.60 23.80L49.66 23.86L49.56 23.76Q49.68 30.39 47.81 35.72L47.84 35.74L47.89 35.79Q47.63 35.80 47.13 35.99L47.22 36.08L47.08 36.13L47.12 36.17Q47.00 36.28 44.45 37.19L44.39 37.13L44.44 37.19Q47.24 30.46 46.90 23.00L46.90 23.00L46.92 23.02Q46.61 15.71 43.07 9.20L43.04 9.17L43.62 9.48L44.03 9.79L44.01 9.72L44.15 9.86Q44.79 10.16 47.00 10.85ZM47.25 10.53L47.22 10.50L47.32 10.60Q44.91 9.90 42.28 8.38L42.32 8.42L42.32 8.41Q46.63 15.73 46.63 24.68L46.64 24.69L46.64 24.69Q46.68 31.73 43.71 37.78L43.76 37.83L45.68 36.86L45.72 36.90Q45.30 37.89 44.61 39.18L44.72 39.29L44.74 39.31Q46.87 38.39 48.81 37.97L48.80 37.96L48.95 37.88L48.99 37.93Q49.26 37.89 49.83 37.73L49.74 37.64L49.79 37.69Q51.30 31.63 51.41 26.83L51.51 26.93L51.42 26.84Q53.67 29.51 55.49 31.37L55.43 31.31L55.52 31.40Q56.58 32.38 59.59 35.35L59.52 35.29L59.63 35.39L59.60 35.36Q60.55 36.12 62.42 37.72L62.57 37.88L62.60 37.91Q66.36 38.50 69.82 40.22L69.87 40.27L69.94 40.33Q60.59 31.71 54.34 24.28L54.23 24.17L54.33 24.27Q58.75 20.01 67.50 11.40L67.59 11.49L67.56 11.46Q64.95 12.54 62.93 12.92L62.97 12.96L62.88 12.87Q64.11 11.89 66.43 9.88L66.53 9.97L66.43 9.87Q62.26 11.22 58.91 11.41L59.06 11.56L58.91 11.41Q55.99 13.64 51.12 18.32L51.22 18.42L51.17 18.37Q50.74 15.73 50.17 13.18L50.22 13.23L50.18 13.19Q49.05 13.08 48.06 12.74L48.10 12.79L48.08 12.77Q47.89 12.04 47.31 10.59Z"/><path fill="#444" d="M161.94 14.08L162.05 14.18L162.06 14.19Q163.11 18.59 163.26 21.79L163.28 21.81L163.36 21.88Q163.79 21.86 168.16 21.97L168.13 21.94L168.17 21.98Q170.76 22.06 171.14 18.59L171.07 18.51L171.20 18.65Q171.35 16.86 170.43 15.94L170.42 15.93L170.43 15.94Q169.10 14.99 167.13 14.84L167.10 14.82L167.05 14.76Q163.98 14.70 162.11 14.24ZM163.50 23.86L163.42 23.77L163.50 23.85Q163.73 29.91 161.95 35.85L161.83 35.73L161.95 35.86Q160.65 36.11 158.06 37.14L157.92 37.00L158.08 37.17Q160.81 30.56 160.46 23.10L160.55 23.19L160.45 23.09Q160.21 15.81 156.90 9.30L156.88 9.28L156.79 9.19Q161.70 12.05 168.67 12.05L168.66 12.04L168.67 12.05Q174.41 12.15 174.68 15.69L174.66 15.68L174.53 15.54Q174.65 16.20 174.57 16.80L174.59 16.83L174.52 17.97L174.45 17.90Q173.75 21.96 171.61 23.67L171.46 23.52L171.49 23.54Q170.74 24.28 169.71 24.28L169.67 24.24L167.12 24.28L167.05 24.21Q172.65 31.44 177.18 36.01L177.20 36.03L177.35 36.18Q175.11 35.39 172.18 35.04L172.11 34.98L172.20 35.06Q168.32 31.00 163.41 23.77ZM171.99 35.35L172.04 35.40L172.30 35.36L173.52 36.57L173.54 36.60Q174.23 37.25 174.88 37.86L174.79 37.78L174.86 37.84Q178.35 38.40 181.93 40.27L181.89 40.23L181.85 40.19Q174.93 33.45 169.52 26.53L169.51 26.52L171.42 26.68L171.24 26.50Q174.42 26.59 175.76 22.06L175.82 22.13L175.75 22.06Q176.40 19.81 176.40 17.11L176.41 17.12L176.44 17.15Q176.34 14.77 174.63 14.12L174.79 14.29L174.65 14.14Q174.51 13.74 173.94 13.06L174.07 13.18L174.06 13.17Q172.30 11.64 168.64 11.56L168.73 11.65L168.77 11.69Q160.74 11.39 156.06 8.38L156.06 8.38L156.19 8.52Q159.93 15.33 160.27 23.02L160.24 22.99L160.16 22.91Q160.47 30.84 157.35 37.69L157.52 37.87L157.50 37.84Q158.76 37.27 159.56 36.97L159.55 36.96L158.48 39.17L158.57 39.26Q161.24 38.15 163.90 37.66L163.98 37.73L163.96 37.72Q165.22 32.58 165.41 27.36L165.29 27.25L165.42 27.37Q168.91 32.31 172.07 35.44ZM170.70 17.39L170.70 17.39L170.69 17.37Q170.78 17.70 170.78 18.04L170.74 18.00L170.72 18.55L170.70 18.53Q170.74 19.67 170.05 20.62L170.15 20.72L170.16 20.73Q169.60 21.54 168.69 21.73L168.69 21.73L168.60 21.65Q168.45 21.76 166.85 21.80L166.70 21.65L166.83 21.77Q166.19 21.75 165.35 21.63L165.43 21.72L165.36 21.64Q165.29 20.17 164.95 17.12L164.97 17.14L164.95 17.12Q166.30 17.25 166.98 17.25L166.95 17.22L166.98 17.24Q168.79 17.23 170.73 17.42Z"/></svg>