<svg xmlns="http://www.w3.org/2000/svg" width="200" height="40" viewBox="0,0,200,40"><path d="M19 3 C103 33,100 10,185 22" stroke="#555" fill="none"/><path fill="#222" d="M106.85 35.25L106.99 35.40L106.91 35.31Q105.43 35.32 103.87 34.90L103.97 35.00L103.88 34.91Q102.74 34.07 102.59 32.44L102.68 32.53L102.65 32.50Q102.58 32.28 102.77 29.65L102.75 29.63L102.75 29.63Q103.77 29.43 105.79 29.05L105.83 29.09L105.60 29.81L105.59 29.81Q105.25 31.48 106.66 32.06L106.75 32.15L106.72 32.11Q107.65 32.59 109.74 32.59L109.70 32.54L109.74 32.58Q111.23 32.33 111.42 32.25L111.40 32.23L111.52 32.34Q112.28 32.04 113.00 31.55L112.97 31.52L112.97 31.52Q114.46 30.65 114.27 28.55L114.35 28.63L114.32 28.60Q114.12 26.16 112.39 24.60L112.42 24.63L112.43 24.64Q110.53 22.91 108.06 22.91L108.24 23.10L108.22 22.84L108.18 22.80Q108.61 22.81 109.48 22.74L109.46 22.71L109.34 22.60Q111.41 22.65 112.78 21.41L112.76 21.39L112.77 21.39Q114.13 20.15 114.28 18.28L114.29 18.29L114.26 18.27Q114.33 17.91 114.33 17.57L114.26 17.50L114.23 17.47Q114.30 16.02 112.93 15.10L112.90 15.08L112.83 15.01Q111.62 14.21 110.02 14.32L110.02 14.33L110.13 14.44Q108.72 14.17 107.51 14.59L107.50 14.59L107.64 14.73Q106.13 15.19 105.82 16.33L105.91 16.42L105.90 16.42Q105.59 17.05 105.66 17.81L105.62 17.77L105.75 17.90Q104.70 17.65 102.64 16.92L102.68 16.96L102.54 16.82Q102.33 15.17 102.37 14.33L102.45 14.41L102.39 14.35Q102.50 12.82 103.56 12.13L103.71 12.28L103.65 12.22Q105.05 11.60 106.65 11.60L106.64 11.59L106.67 11.63Q109.71 11.47 112.87 11.74L113.05 11.91L112.98 11.84Q118.11 12.32 117.80 16.09L117.74 16.03L117.72 16.01Q117.73 17.59 117.24 19.15L117.24 19.14L117.08 18.99Q116.23 22.14 113.87 23.05L113.88 23.06L113.85 23.03Q116.46 23.55 117.07 26.90L117.11 26.94L117.04 26.86Q117.31 28.05 117.39 30.07L117.46 30.14L117.32 30.00Q117.61 34.59 113.00 35.05L112.86 34.90L112.89 34.94Q112.27 35.12 106.98 35.38ZM112.19 37.62L112.25 37.68L112.08 37.51Q112.69 37.55 115.54 37.63L115.56 37.65L115.56 37.65Q117.32 37.73 118.96 37.08L119.07 37.20L118.96 37.08Q120.14 36.13 119.95 34.38L120.08 34.51L120.04 34.47Q119.96 33.18 119.66 31.43L119.67 31.43L119.57 31.34Q118.78 26.78 116.84 25.15L116.92 25.22L116.80 24.92L116.75 24.83L116.59 24.66Q118.39 23.26 119.15 18.89L119.17 18.90L119.20 18.94Q119.21 18.46 119.33 17.50L119.39 17.57L119.42 17.60Q119.47 16.81 119.40 16.13L119.39 16.12L119.41 16.15Q119.29 14.50 118.00 13.82L117.86 13.67L117.89 13.78L117.80 13.69Q117.46 12.67 116.32 12.14L116.33 12.14L116.44 12.26Q114.86 11.51 109.72 11.21L109.66 11.15L109.81 11.30Q108.05 11.14 106.45 11.14L106.39 11.08L106.48 11.16Q104.83 11.11 103.30 11.76L103.42 11.87L103.25 11.71Q102.04 12.47 102.04 14.22L102.05 14.23L102.10 14.29Q102.16 13.93 102.43 17.28L102.30 17.15L102.43 17.28Q102.66 17.29 104.30 17.90L104.33 17.93L104.28 17.87Q104.35 18.48 104.32 18.98L104.35 19.01L104.36 19.02Q104.27 19.43 104.31 19.96L104.40 20.05L104.32 19.97Q106.19 20.43 108.20 20.54L108.08 20.42L108.03 20.37Q107.95 18.35 109.05 17.51L109.23 17.69L109.18 17.64Q109.91 16.88 111.92 16.65L111.99 16.72L111.93 16.66Q113.11 16.70 113.69 16.89L113.65 16.85L113.70 16.90Q113.67 16.95 113.71 17.07L113.79 17.14L113.87 17.41L113.85 17.85L113.88 17.88Q113.97 18.17 113.94 18.32L113.94 18.32L113.87 18.25Q113.86 20.03 112.34 21.21L112.24 21.12L112.25 21.12Q111.44 22.14 109.42 22.33L109.39 22.30L109.39 22.30Q108.53 22.32 107.66 22.32L107.66 22.32L107.75 22.41Q107.80 22.76 107.95 23.45L107.97 23.47L107.95 23.45Q109.66 23.41 111.11 24.13L111.14 24.16L110.94 24.07L109.50 24.39L109.51 24.40Q109.43 24.63 109.55 25.23L109.53 25.22L109.66 25.35Q111.83 25.31 113.54 26.64L113.52 26.62L113.53 26.63Q113.67 26.93 113.98 28.56L113.93 28.51L113.98 28.57Q114.17 31.50 111.24 31.92L111.19 31.87L111.34 32.01Q109.20 32.24 108.63 32.20L108.67 32.24L108.51 32.08Q108.16 32.07 107.63 32.00L107.64 32.01L107.49 31.40L107.61 30.95L107.82 30.75L107.68 30.26L107.79 30.37Q106.76 30.37 105.96 30.56L106.07 30.67L106.00 30.59Q105.99 30.39 105.99 30.20L105.94 30.16L105.90 30.12Q106.12 30.11 106.12 29.88L105.98 29.74L106.10 29.86Q106.08 29.38 106.23 28.66L106.31 28.73L106.22 28.65Q104.43 28.95 102.57 29.30L102.41 29.14L102.47 29.20Q102.57 29.80 102.46 30.92L102.36 30.82L102.42 30.88Q102.23 31.93 102.23 32.54L102.32 32.63L102.17 32.48Q102.30 34.59 103.67 35.35L103.69 35.37L103.72 35.40Q105.18 37.66 109.90 37.47L109.81 37.38L109.93 37.49Q110.58 37.38 112.10 37.53Z"/><path fill="#333" d="M64.20 17.96L64.29 18.05L64.20 17.96Q62.43 20.72 59.76 26.35L59.87 26.46L57.81 30.64L57.78 30.61Q57.00 32.61 55.67 34.86L55.61 34.80L55.53 34.72Q56.11 34.84 54.44 34.88L54.37 34.82L54.48 34.92Q54.43 34.88 53.17 34.88L53.19 34.89L53.18 34.88Q52.41 33.35 49.48 26.19L49.58 26.29L49.52 26.23Q47.36 20.87 45.26 17.87L45.27 17.88L45.20 17.80Q46.06 20.98 46.06 24.14L45.97 24.05L45.93 24.01Q46.08 30.68 43.11 36.23L42.96 36.09L43.09 36.21Q41.74 36.53 39.38 37.26L39.40 37.28L39.28 37.16Q43.05 31.57 43.05 24.34L43.01 24.30L43.06 24.34Q43.11 15.44 37.70 8.48L37.64 8.41L37.54 8.31Q39.31 9.17 41.67 9.86L41.55 9.74L41.64 9.83Q48.73 16.61 54.82 29.94L54.74 29.86L54.83 29.94Q58.18 22.79 60.39 19.29L60.55 19.45L60.39 19.29Q64.12 13.65 68.08 10.19L68.08 10.19L67.90 10.01Q69.21 9.83 71.57 9.07L71.68 9.19L71.65 9.16Q66.66 15.78 66.66 24.38L66.71 24.43L66.69 24.41Q66.54 30.92 69.96 36.44L70.09 36.56L70.06 36.53Q68.78 36.29 66.04 35.68L65.98 35.62L65.88 35.52Q63.56 30.76 63.56 24.78L63.56 24.79L63.55 24.77Q63.70 21.49 64.38 18.14ZM65.87 36.08L65.75 35.96L65.81 36.01Q66.41 36.04 67.85 36.31L67.93 36.38L67.87 36.33Q68.30 37.06 69.25 38.54L69.24 38.53L69.25 38.54Q71.38 38.96 74.84 40.17L74.86 40.19L74.92 40.25Q68.62 33.87 68.62 24.05L68.65 24.08L68.54 23.98Q68.70 16.41 73.08 10.28L72.99 10.19L70.78 10.87L70.89 10.99Q71.90 9.44 72.55 8.56L72.47 8.48L72.52 8.53Q70.62 9.15 67.99 9.68L68.07 9.76L67.96 9.65Q61.18 15.74 55.13 28.34L55.13 28.35L55.24 28.46Q49.91 17.33 44.96 12.08L45.03 12.15L45.00 12.12Q44.73 12.15 44.16 12.04L44.14 12.03L42.86 10.66L42.85 10.65Q42.25 9.98 41.56 9.37L41.70 9.50L41.57 9.38Q38.66 8.52 36.87 7.80L36.81 7.74L36.71 7.64Q42.75 14.89 42.75 24.30L42.70 24.25L42.77 24.32Q42.68 31.84 38.53 37.70L38.60 37.77L38.54 37.71Q39.25 37.51 40.54 37.09L40.66 37.21L40.63 37.17Q40.47 37.40 39.06 39.49L39.11 39.54L39.10 39.53Q40.89 39.04 44.40 38.28L44.29 38.17L44.42 38.30Q48.13 31.24 47.94 23.47L47.94 23.48L47.84 23.38Q49.50 27.51 52.96 35.39L52.93 35.36L52.83 35.26Q53.02 35.14 53.24 35.14L53.42 35.31L53.86 35.22L53.82 35.18Q54.28 35.87 55.08 37.17L55.11 37.19L55.18 37.26Q56.75 37.20 56.75 37.20L56.84 37.29L56.68 37.13Q57.85 37.27 58.50 37.34L58.37 37.22L58.35 37.20Q59.96 33.21 63.31 25.21L63.38 25.28L63.23 25.14Q63.21 30.68 65.80 36.01Z"/><path fill="#222" d="M84.18 15.14L84.21 15.17L84.11 15.07Q79.87 15.12 76.17 14.13L76.11 14.07L76.20 14.16Q77.62 18.62 77.81 23.46L77.80 23.45L77.77 23.42Q78.07 28.32 76.85 32.93L76.85 32.93L76.74 32.82Q79.71 32.36 83.21 32.21L83.11 32.11L83.13 32.13Q87.07 31.96 88.86 29.52L88.78 29.44L88.81 29.47Q90.46 27.54 90.65 23.43L90.58 23.37L90.64 23.42Q90.55 21.51 90.09 19.79L90.14 19.84L90.16 19.86Q88.85 15.09 84.13 15.09ZM72.18 37.05L72.27 37.15L72.26 37.13Q75.09 31.40 75.09 24.70L75.20 24.81L75.06 24.67Q75.17 16.25 70.86 9.24L70.79 9.17L70.87 9.25Q76.15 11.94 84.42 12.13L84.45 12.17L84.41 12.13Q93.13 12.17 93.48 19.33L93.65 19.51L93.60 19.46Q93.59 22.04 93.56 23.48L93.55 23.48L93.71 23.63Q93.61 28.30 92.78 30.47L92.72 30.41L92.81 30.50Q92.25 31.46 91.48 32.30L91.51 32.32L91.61 32.42Q90.14 33.85 87.51 34.34L87.65 34.48L87.50 34.33Q85.99 34.69 82.98 34.91L83.04 34.97L82.97 34.90Q76.83 35.34 72.22 37.10ZM90.19 37.02L90.18 37.01L90.14 36.97Q92.92 36.67 94.56 35.19L94.61 35.23L94.64 35.26Q95.68 33.34 95.65 30.60L95.68 30.64L95.63 30.58Q95.77 29.36 95.62 25.85L95.54 25.77L95.21 21.25L95.17 21.21Q95.07 19.02 94.11 16.92L93.99 16.80L94.06 16.87Q93.61 16.00 92.93 15.35L92.85 15.28L92.78 15.05L92.78 15.06Q91.20 12.22 86.78 11.84L86.83 11.88L86.68 11.73Q84.00 11.60 76.99 10.88L77.12 11.01L77.06 10.95Q73.81 10.51 70.12 8.50L70.00 8.37L70.02 8.40Q75.00 15.93 75.00 24.69L74.99 24.67L75.01 24.70Q74.88 31.57 71.53 37.74L71.61 37.82L71.56 37.76Q72.27 37.53 73.61 37.03L73.50 36.93L73.67 37.10Q73.22 37.83 72.35 39.31L72.47 39.44L72.46 39.43Q75.33 38.19 78.68 37.69L78.79 37.81L78.85 37.86Q80.82 37.43 84.47 37.32L84.46 37.31L84.42 37.26Q88.32 37.17 90.15 36.98ZM90.28 23.44L90.28 23.44L90.20 23.36Q89.82 31.36 83.12 31.74L83.22 31.84L83.14 31.76Q81.16 31.83 79.10 32.10L79.18 32.17L79.23 32.23Q79.93 28.36 79.93 24.71L79.93 24.70L79.88 24.65Q79.84 20.92 79.11 17.07L79.02 16.98L79.20 17.16Q81.46 17.51 86.14 17.51L86.10 17.47L86.17 17.55Q87.43 17.29 89.07 18.24L89.06 18.22L89.00 18.17Q90.39 20.55 90.24 23.40Z"/><path fill="#333" d="M164.68 21.78L164.81 21.91L164.68 21.78Q166.49 21.96 168.32 21.96L168.27 21.90L168.35 21.99Q170.12 21.96 171.94 21.81L171.95 21.82L172.03 21.90Q171.78 22.40 171.78 23.13L171.81 23.16L171.85 24.53L171.79 24.48Q169.54 24.58 164.78 24.69L164.64 24.56L164.83 24.74Q164.78 30.63 163.63 35.62L163.60 35.59L163.59 35.58Q161.42 36.30 159.93 37.10L159.93 37.10L159.97 37.14Q162.25 30.28 161.99 23.16L161.86 23.04L161.98 23.15Q161.67 15.95 159.00 9.29L159.11 9.39L158.99 9.27Q162.65 11.80 167.41 12.03L167.55 12.16L167.54 12.15Q172.02 12.14 176.17 10.39L176.22 10.44L176.28 10.50Q176.01 11.34 175.79 12.14L175.77 12.13L175.27 13.72L175.25 13.69Q172.52 14.78 169.55 14.93L169.67 15.04L169.61 14.99Q166.65 15.11 163.80 14.39L163.87 14.46L163.91 14.50Q164.53 17.82 164.72 21.82ZM176.97 9.86L176.97 9.86L176.96 9.85Q172.37 12.00 167.50 11.70L167.36 11.56L167.44 11.64Q162.17 11.39 158.44 8.54L158.39 8.49L158.42 8.51Q161.34 15.51 161.64 23.12L161.50 22.97L161.52 22.99Q161.90 30.99 159.39 37.77L159.45 37.84L159.33 37.71Q160.09 37.40 161.46 36.76L161.48 36.78L161.34 36.64Q161.16 37.41 160.59 38.93L160.64 38.98L160.62 38.96Q162.92 37.87 165.81 37.38L165.79 37.36L165.93 37.50Q166.40 32.49 166.59 26.77L166.75 26.93L166.69 26.88Q168.55 26.91 170.38 26.91L170.33 26.86L170.37 26.90Q172.05 26.79 173.88 26.98L173.90 27.00L173.87 26.97Q173.81 26.08 173.81 25.17L173.81 25.16L173.75 23.20L173.83 23.28Q172.98 23.31 172.15 23.31L172.21 23.37L172.17 23.33Q172.17 22.46 172.25 21.43L172.33 21.51L172.17 21.35Q170.85 21.59 169.44 21.59L169.46 21.61L169.49 21.64Q168.06 21.62 166.69 21.58L166.78 21.68L166.68 19.44L166.58 19.34Q166.64 18.33 166.52 17.26L166.44 17.18L166.57 17.31Q167.41 17.24 168.40 17.24L168.37 17.21L168.41 17.25Q173.18 17.26 176.80 15.36L176.79 15.35L176.82 15.38Q177.39 13.63 178.30 11.00L178.17 10.87L178.32 11.02Q176.89 11.72 176.09 12.06L176.11 12.08L176.06 12.03Q176.37 11.32 176.87 9.75Z"/><path fill="#333" d="M136.41 21.79L136.53 21.92L136.38 21.76Q138.22 21.97 140.05 21.97L140.09 22.01L140.14 22.06Q141.76 21.89 143.59 21.74L143.65 21.80L143.72 21.87Q143.50 22.41 143.50 23.14L143.53 23.17L143.57 24.54L143.50 24.47Q141.11 24.44 136.35 24.56L136.46 24.66L136.50 24.71Q136.43 30.57 135.29 35.56L135.32 35.59L135.39 35.66Q133.11 36.27 131.62 37.07L131.54 36.99L131.53 36.97Q133.88 30.19 133.61 23.07L133.61 23.07L133.71 23.17Q133.36 15.93 130.70 9.27L130.71 9.28L130.68 9.25Q134.49 11.92 139.25 12.15L139.23 12.13L139.28 12.18Q143.74 12.15 147.89 10.40L147.89 10.40L148.04 10.55Q147.66 11.27 147.43 12.07L147.49 12.12L147.08 13.81L146.99 13.72Q144.35 14.89 141.38 15.04L141.37 15.03L141.25 14.91Q138.31 15.05 135.45 14.33L135.49 14.36L135.59 14.47Q136.30 17.88 136.49 21.88ZM148.61 9.78L148.72 9.89L148.54 9.71Q144.08 11.99 139.21 11.69L139.23 11.71L139.13 11.61Q133.78 11.29 130.05 8.43L130.03 8.41L130.17 8.55Q132.91 15.37 133.22 22.98L133.26 23.03L133.25 23.01Q133.60 30.98 131.09 37.76L131.05 37.71L131.14 37.81Q131.83 37.43 133.20 36.78L133.22 36.80L133.12 36.70Q132.94 37.47 132.36 38.99L132.42 39.05L132.36 38.99Q134.69 37.93 137.58 37.43L137.66 37.52L137.66 37.51Q138.28 32.65 138.47 26.94L138.47 26.94L138.45 26.92Q140.26 26.91 142.09 26.91L142.08 26.89L141.95 26.77Q143.86 26.88 145.68 27.07L145.56 26.95L145.55 26.93Q145.43 25.99 145.43 25.07L145.58 25.22L145.48 23.22L145.43 23.17Q144.67 23.28 143.83 23.28L143.96 23.41L143.93 23.38Q143.86 22.43 143.93 21.40L143.98 21.45L143.95 21.41Q142.55 21.58 141.14 21.58L141.27 21.71L141.24 21.67Q139.79 21.64 138.42 21.60L138.48 21.66L138.37 19.42L138.32 19.36Q138.31 18.29 138.20 17.23L138.13 17.16L138.24 17.26Q139.24 17.35 140.23 17.35L140.11 17.24L140.24 17.37Q144.86 17.23 148.48 15.33L148.61 15.45L148.57 15.42Q149.13 13.65 150.04 11.02L149.96 10.95L149.93 10.91Q148.75 11.87 147.96 12.21L147.96 12.22L147.91 12.17Q148.07 11.30 148.56 9.74Z"/><path fill="#222" d="M35.93 17.97L36.05 18.09L36.08 18.12Q34.15 20.72 31.48 26.36L31.44 26.31L29.47 30.59L29.54 30.65Q28.57 32.46 27.24 34.71L27.41 34.88L27.26 34.74Q27.85 34.87 26.17 34.90L26.12 34.85L26.12 34.85Q26.11 34.85 24.86 34.85L24.87 34.86L24.87 34.86Q24.09 33.31 21.16 26.16L21.22 26.22L21.30 26.30Q19.00 20.81 16.91 17.80L16.94 17.83L16.88 17.77Q17.65 20.86 17.65 24.02L17.72 24.09L17.77 24.14Q17.61 30.49 14.64 36.05L14.78 36.18L14.82 36.23Q13.35 36.44 10.99 37.16L11.01 37.18L11.09 37.26Q14.75 31.55 14.75 24.32L14.71 24.28L14.77 24.33Q14.71 15.33 9.30 8.36L9.27 8.33L9.26 8.33Q11.04 9.18 13.40 9.87L13.25 9.72L13.39 9.86Q20.28 16.45 26.37 29.77L26.46 29.86L26.38 29.79Q30.00 22.89 32.21 19.39L32.14 19.32L32.16 19.34Q35.79 13.61 39.75 10.15L39.67 10.07L39.63 10.02Q40.93 9.85 43.29 9.08L43.33 9.12L43.37 9.16Q38.34 15.74 38.34 24.35L38.31 24.32L38.32 24.32Q38.28 30.95 41.71 36.47L41.68 36.44L41.69 36.45Q40.39 36.17 37.65 35.57L37.64 35.56L37.62 35.54Q35.31 30.80 35.31 24.82L35.36 24.86L35.28 24.79Q35.37 21.45 36.06 18.10ZM37.54 36.03L37.46 35.95L37.51 36.00Q38.09 36.01 39.53 36.27L39.67 36.41L39.61 36.35Q40.02 37.06 40.97 38.54L41.03 38.61L40.96 38.53Q43.10 38.97 46.57 40.19L46.63 40.25L46.70 40.32Q40.30 33.84 40.30 24.02L40.42 24.14L40.26 23.98Q40.39 16.38 44.77 10.25L44.74 10.23L42.60 10.97L42.52 10.90Q43.58 9.41 44.23 8.53L44.28 8.58L44.25 8.56Q42.32 9.13 39.69 9.67L39.61 9.58L39.74 9.72Q32.96 15.80 26.91 28.40L26.81 28.30L26.82 28.32Q21.77 17.48 16.82 12.23L16.73 12.14L16.78 12.18Q16.37 12.08 15.80 11.97L15.86 12.03L14.67 10.76L14.50 10.60Q14.01 10.03 13.33 9.42L13.35 9.44L13.32 9.41Q10.21 8.36 8.42 7.64L8.43 7.65L8.43 7.64Q14.45 14.88 14.45 24.28L14.40 24.24L14.42 24.26Q14.41 31.86 10.26 37.72L10.39 37.85L10.31 37.78Q10.94 37.48 12.23 37.07L12.25 37.08L12.34 37.17Q12.26 37.48 10.85 39.57L10.71 39.42L10.73 39.44Q12.49 38.92 15.99 38.16L16.10 38.27L16.00 38.17Q19.76 31.15 19.57 23.39L19.54 23.36L19.69 23.51Q21.05 27.34 24.51 35.22L24.52 35.23L24.64 35.35Q24.90 35.31 25.13 35.31L25.08 35.26L25.55 35.20L25.49 35.13Q26.12 35.99 26.92 37.28L26.86 37.23L26.94 37.31Q28.57 37.30 28.57 37.30L28.57 37.30L28.38 37.11Q29.44 37.15 30.09 37.22L30.09 37.22L30.02 37.16Q31.71 33.25 35.06 25.25L34.95 25.15L35.03 25.22Q34.84 30.59 37.43 35.92Z"/><path d="M6 2 C106 34,98 17,196 38" stroke="#999" fill="none"/></svg>