<svg xmlns="http://www.w3.org/2000/svg" width="200" height="40" viewBox="0,0,200,40"><path fill="#222" d="M114.12 22.23L114.07 22.18L114.02 22.13Q114.84 22.16 116.25 22.00L116.24 22.00L116.36 22.12Q116.26 22.70 116.26 23.35L116.19 23.27L116.27 24.61L116.20 24.54Q115.46 24.64 114.62 24.71L114.56 24.65L114.52 24.61Q113.81 24.78 112.97 24.74L112.89 24.65L112.93 24.70Q110.12 30.91 106.69 35.51L106.66 35.48L106.61 35.43Q104.04 36.02 102.74 36.63L102.88 36.77L102.84 36.73Q106.92 30.98 109.96 24.70L109.91 24.65L107.28 24.65L107.35 24.71Q107.34 23.37 107.22 22.04L107.19 22.00L107.12 21.93Q109.05 22.11 111.11 22.11L111.24 22.24L113.05 18.46L113.16 18.57Q114.12 16.64 115.34 15.04L115.25 14.95L115.19 14.89Q113.71 15.13 112.12 15.13L112.10 15.11L112.21 15.22Q105.97 15.07 102.20 12.86L102.29 12.95L101.54 11.13L101.66 11.26Q101.35 10.46 100.97 9.58L100.92 9.53L100.92 9.53Q105.13 12.03 110.85 12.26L110.98 12.39L110.89 12.30Q116.00 12.50 121.14 10.52L121.31 10.69L121.15 10.54Q120.99 10.98 120.49 11.86L120.48 11.85L120.45 11.81Q116.83 16.57 113.97 22.09ZM122.07 13.20L122.22 13.35L123.19 11.32L123.19 11.32Q122.14 11.72 120.47 12.44L120.40 12.37L120.71 12.19L120.75 12.23Q120.75 11.96 120.87 11.85L120.98 11.96L120.99 11.97Q121.28 11.20 122.01 9.87L122.07 9.93L122.07 9.93Q116.60 12.07 110.85 11.84L111.02 12.02L110.98 11.97Q104.99 11.74 100.23 8.77L100.12 8.65L100.14 8.67Q101.22 10.59 102.05 13.25L102.12 13.32L102.06 13.26Q103.16 13.90 103.96 14.20L104.00 14.25L103.84 14.09Q104.12 14.56 104.58 16.42L104.61 16.45L104.54 16.38Q107.64 17.58 113.16 17.43L113.12 17.39L113.31 17.58Q112.90 18.04 110.92 21.81L111.00 21.89L110.88 21.78Q108.79 21.74 106.81 21.55L106.88 21.61L106.94 21.68Q107.01 22.51 107.01 23.38L107.03 23.41L107.06 25.15L108.67 25.08L108.60 26.42L108.69 26.52Q104.73 33.86 101.95 37.44L101.89 37.38L101.98 37.46Q103.60 36.72 105.24 36.23L105.16 36.15L105.16 36.16Q104.48 37.07 103.11 38.79L103.06 38.73L103.19 38.87Q106.38 37.79 108.82 37.56L108.74 37.49L108.71 37.46Q111.57 33.62 114.69 26.84L114.73 26.88L118.12 27.03L118.26 27.17Q118.03 26.11 118.03 25.20L118.22 25.38L118.15 23.53L118.21 23.58Q117.88 23.52 117.33 23.56L117.32 23.55L117.37 23.60Q116.74 23.55 116.47 23.55L116.50 23.58L116.40 23.49Q116.47 23.45 116.51 23.29L116.45 23.24L116.46 22.98L116.57 23.08Q118.97 17.83 122.05 13.18Z"/><path fill="#222" d="M35.98 18.03L36.00 18.04L36.07 18.12Q34.23 20.81 31.57 26.44L31.48 26.35L29.54 30.66L29.63 30.75Q28.67 32.56 27.33 34.81L27.36 34.84L27.34 34.82Q27.82 34.84 26.15 34.88L26.21 34.94L26.16 34.89Q26.19 34.92 24.94 34.92L24.87 34.85L24.80 34.79Q24.06 33.29 21.13 26.13L21.13 26.14L21.28 26.28Q18.95 20.75 16.85 17.74L16.90 17.78L17.01 17.90Q17.67 20.89 17.67 24.04L17.73 24.10L17.70 24.07Q17.67 30.55 14.70 36.11L14.78 36.19L14.70 36.11Q13.39 36.47 11.03 37.19L10.95 37.12L11.14 37.31Q14.75 31.55 14.75 24.32L14.78 24.35L14.73 24.30Q14.83 15.45 9.43 8.49L9.27 8.34L9.27 8.33Q10.91 9.06 13.27 9.75L13.37 9.84L13.25 9.72Q20.29 16.46 26.38 29.78L26.43 29.83L26.43 29.83Q30.04 22.93 32.24 19.43L32.23 19.41L32.15 19.33Q35.66 13.48 39.62 10.02L39.72 10.12L39.77 10.16Q40.96 9.88 43.32 9.11L43.26 9.05L43.37 9.16Q38.31 15.71 38.31 24.31L38.40 24.41L38.39 24.40Q38.34 31.01 41.77 36.53L41.72 36.47L41.78 36.54Q40.45 36.24 37.71 35.63L37.66 35.58L37.68 35.59Q35.26 30.74 35.26 24.76L35.36 24.86L35.25 24.75Q35.25 21.33 35.93 17.98ZM37.57 36.06L37.48 35.97L37.51 36.00Q38.22 36.14 39.66 36.40L39.70 36.44L39.55 36.29Q40.17 37.21 41.12 38.70L41.11 38.69L41.03 38.61Q43.21 39.07 46.67 40.29L46.65 40.27L46.55 40.17Q40.35 33.90 40.35 24.07L40.44 24.16L40.33 24.05Q40.26 16.25 44.63 10.12L44.72 10.20L42.60 10.98L42.51 10.89Q43.56 9.39 44.21 8.51L44.13 8.44L44.20 8.50Q42.39 9.21 39.76 9.74L39.71 9.68L39.65 9.63Q32.89 15.73 26.84 28.33L26.94 28.44L26.83 28.33Q21.74 17.45 16.79 12.20L16.73 12.14L16.70 12.11Q16.38 12.09 15.81 11.98L15.77 11.94L14.60 10.69L14.64 10.74Q14.09 10.11 13.41 9.50L13.35 9.44L13.28 9.38Q10.24 8.39 8.45 7.66L8.45 7.66L8.46 7.67Q14.53 14.96 14.53 24.37L14.48 24.32L14.56 24.39Q14.51 31.96 10.36 37.82L10.33 37.79L10.28 37.74Q11.05 37.60 12.35 37.18L12.35 37.19L12.25 37.08Q12.18 37.40 10.78 39.49L10.80 39.52L10.72 39.44Q12.63 39.06 16.13 38.30L15.99 38.16L16.05 38.22Q19.79 31.19 19.60 23.42L19.63 23.45L19.56 23.38Q21.17 27.47 24.64 35.35L24.66 35.37L24.65 35.36Q24.76 35.16 24.99 35.16L25.02 35.20L25.62 35.27L25.56 35.21Q26.13 36.01 26.93 37.30L26.79 37.16L26.80 37.16Q28.50 37.23 28.50 37.23L28.43 37.16L28.49 37.22Q29.44 37.14 30.08 37.22L30.05 37.18L30.06 37.20Q31.58 33.12 34.93 25.13L35.10 25.29L34.97 25.16Q34.98 30.73 37.57 36.06Z"/><path d="M7 10 C92 26,118 17,182 30" stroke="#222" fill="none"/><path fill="#111" d="M90.57 35.38L90.67 35.48L90.62 35.43Q87.70 31.60 85.07 22.95L84.96 22.84L84.96 22.84Q84.23 20.63 83.43 18.50L83.54 18.61L80.67 27.39L80.59 27.31Q78.87 32.32 76.47 35.56L76.38 35.47L76.46 35.55Q75.65 35.65 74.02 35.81L73.87 35.67L73.92 35.71Q74.08 34.58 74.08 33.32L74.03 33.27L73.99 33.23Q74.13 27.36 71.39 21.23L71.21 21.05L71.29 21.13Q68.19 14.26 62.33 9.28L62.40 9.35L62.25 9.20Q64.40 9.90 66.76 10.43L66.80 10.47L66.87 10.54Q75.57 19.01 76.87 29.98L76.86 29.97L76.69 29.80Q78.44 26.61 79.89 21.24L79.85 21.20L79.81 21.16Q81.94 13.81 82.44 12.40L82.32 12.28L84.68 12.40L84.56 12.28Q85.25 14.30 85.90 16.63L85.99 16.71L87.20 21.13L87.27 21.19Q88.69 26.50 90.10 29.73L90.19 29.83L90.20 29.84Q91.90 18.25 99.82 10.90L99.74 10.82L99.66 10.74Q101.32 10.54 104.29 9.90L104.15 9.75L104.32 9.92Q99.00 14.23 95.95 20.36L95.88 20.29L95.88 20.28Q92.83 26.56 92.83 33.34L92.80 33.31L92.83 33.34Q92.79 34.40 92.86 35.54L92.85 35.53L91.70 35.41L91.62 35.33Q91.13 35.37 90.56 35.37ZM96.87 38.33L96.76 38.22L96.82 38.28Q95.50 34.64 95.62 30.76L95.63 30.77L95.68 30.82Q96.08 19.35 105.45 11.09L105.33 10.97L105.33 10.97Q104.52 11.34 102.58 11.87L102.52 11.82L102.47 11.76Q103.47 10.97 105.37 9.18L105.35 9.16L105.35 9.17Q102.73 9.97 99.80 10.46L99.82 10.48L99.79 10.46Q92.24 17.52 90.34 27.00L90.32 26.98L90.43 27.09Q89.75 25.35 86.89 13.89L86.95 13.94L86.82 13.82Q86.44 13.94 85.49 13.94L85.57 14.01L85.18 12.86L85.27 12.95Q85.18 12.44 84.95 11.94L84.82 11.82L81.96 11.85L82.00 11.89Q81.07 14.23 79.79 19.35L79.89 19.45L79.90 19.46Q78.54 24.50 77.55 26.97L77.56 26.98L77.71 27.13Q76.07 19.16 70.51 12.85L70.60 12.94L70.55 12.89Q70.09 12.84 69.13 12.65L69.09 12.60L68.97 12.49Q68.41 11.82 66.85 10.18L66.84 10.16L66.80 10.12Q63.47 9.39 61.30 8.59L61.30 8.59L61.25 8.54Q66.84 13.14 70.11 19.34L70.19 19.42L70.11 19.33Q73.72 26.11 73.72 33.11L73.60 32.99L73.61 33.01Q73.70 34.65 73.51 36.25L73.39 36.14L73.49 36.24Q73.71 36.22 74.16 36.12L74.11 36.08L74.16 36.12Q74.51 35.92 74.74 35.92L74.87 36.05L74.82 37.03L74.86 37.07Q74.79 37.45 74.86 37.99L74.79 37.92L74.90 38.02Q75.98 37.89 78.27 37.73L78.33 37.80L78.40 37.87Q81.94 32.39 84.68 22.98L84.68 22.98L84.59 22.89Q87.38 31.70 90.35 35.66L90.44 35.74L90.32 35.63Q90.99 35.84 91.83 35.96L91.70 35.82L91.76 35.89Q92.65 36.97 93.72 38.04L93.74 38.06L93.69 38.00Q94.37 37.97 96.77 38.23Z"/><path fill="#222" d="M64.28 18.04L64.39 18.15L64.34 18.10Q62.46 20.75 59.80 26.39L59.85 26.44L57.78 30.61L57.78 30.61Q56.93 32.54 55.59 34.78L55.66 34.85L55.68 34.87Q56.14 34.87 54.46 34.91L54.38 34.83L54.49 34.94Q54.35 34.80 53.10 34.80L53.12 34.82L53.08 34.78Q52.50 33.44 49.57 26.28L49.51 26.22L49.53 26.24Q47.25 20.77 45.16 17.76L45.30 17.90L45.30 17.90Q45.89 20.82 45.89 23.98L45.99 24.08L45.89 23.98Q46.08 30.67 43.11 36.23L43.02 36.14L43.10 36.22Q41.70 36.50 39.34 37.22L39.26 37.14L39.29 37.17Q42.92 31.44 42.92 24.20L42.96 24.24L43.05 24.33Q43.06 15.40 37.66 8.43L37.52 8.30L37.55 8.33Q39.29 9.15 41.65 9.84L41.57 9.76L41.65 9.84Q48.62 16.50 54.71 29.83L54.80 29.91L54.77 29.88Q58.30 22.91 60.51 19.41L60.48 19.37L60.38 19.28Q64.00 13.53 67.96 10.07L68.02 10.13L68.06 10.17Q69.17 9.79 71.53 9.03L71.62 9.13L71.68 9.19Q66.57 15.69 66.57 24.29L66.62 24.34L66.64 24.36Q66.69 31.07 70.12 36.59L70.09 36.56L69.97 36.45Q68.73 36.23 65.99 35.62L65.92 35.55L65.93 35.56Q63.71 30.90 63.71 24.93L63.59 24.81L63.56 24.78Q63.65 21.44 64.33 18.09ZM65.70 35.90L65.88 36.08L65.74 35.95Q66.39 36.03 67.84 36.29L67.94 36.40L67.96 36.41Q68.45 37.21 69.40 38.69L69.27 38.56L69.39 38.69Q71.42 39.00 74.89 40.22L74.92 40.26L74.96 40.29Q68.66 33.92 68.66 24.10L68.58 24.02L68.62 24.05Q68.58 16.29 72.96 10.16L73.08 10.27L70.79 10.88L70.85 10.94Q71.83 9.37 72.48 8.50L72.41 8.43L72.50 8.52Q70.65 9.18 68.02 9.71L67.93 9.62L68.07 9.76Q61.21 15.76 55.15 28.36L55.16 28.37L55.12 28.33Q49.96 17.39 45.01 12.14L44.94 12.06L44.96 12.08Q44.70 12.13 44.13 12.01L44.16 12.04L42.93 10.74L42.92 10.73Q42.31 10.04 41.62 9.43L41.57 9.38L41.70 9.50Q38.50 8.36 36.71 7.64L36.73 7.66L36.74 7.67Q42.73 14.88 42.73 24.28L42.70 24.25L42.74 24.29Q42.72 31.88 38.57 37.74L38.63 37.80L38.55 37.72Q39.26 37.52 40.55 37.10L40.52 37.07L40.57 37.12Q40.50 37.43 39.09 39.52L39.14 39.58L39.08 39.51Q40.84 38.99 44.35 38.23L44.26 38.15L44.42 38.30Q48.00 31.11 47.81 23.34L47.88 23.42L47.90 23.43Q49.39 27.40 52.86 35.28L52.96 35.39L52.87 35.30Q53.15 35.27 53.37 35.27L53.25 35.14L53.85 35.21L53.79 35.15Q54.33 35.92 55.13 37.21L55.19 37.27L55.20 37.28Q56.80 37.24 56.80 37.24L56.74 37.18L56.68 37.13Q57.70 37.11 58.34 37.19L58.33 37.18L58.42 37.27Q60.03 33.28 63.38 25.28L63.35 25.25L63.41 25.31Q63.12 30.58 65.71 35.91Z"/><path d="M6 39 C110 38,118 35,198 36" stroke="#888" fill="none"/><path fill="#333" d="M137.50 34.97L137.47 34.94L137.37 34.85Q133.18 34.27 131.35 32.82L131.40 32.87L131.36 32.83Q129.65 31.50 129.23 28.49L129.16 28.43L129.27 28.53Q129.07 27.99 128.73 23.23L128.76 23.26L128.77 23.27Q128.95 22.23 128.87 20.97L128.77 20.87L128.82 20.93Q128.64 15.88 130.85 14.12L130.88 14.16L130.91 14.18Q133.40 11.92 141.17 11.23L141.24 11.30L141.19 11.25Q142.53 11.10 144.16 11.14L144.26 11.24L144.23 11.21Q144.29 11.27 147.26 11.27L147.11 11.12L147.12 11.13Q147.95 11.12 149.66 11.27L149.76 11.37L149.67 11.28Q149.16 12.22 148.13 15.30L148.27 15.44L148.19 15.36Q146.18 14.23 143.18 14.23L143.13 14.18L143.13 14.18Q142.39 14.21 141.59 14.28L141.60 14.29L141.62 14.31Q136.37 14.62 133.86 16.60L133.88 16.62L134.02 16.76Q132.00 18.35 131.84 21.70L131.82 21.68L131.76 21.61Q131.79 22.30 131.83 23.55L131.75 23.48L131.81 23.53Q131.90 28.35 134.30 30.44L134.30 30.44L134.36 30.50Q136.55 32.46 141.54 32.76L141.37 32.60L141.45 32.68Q144.56 32.82 147.57 31.03L147.61 31.07L147.66 31.12Q148.17 33.76 148.77 35.13L148.82 35.18L148.79 35.14Q146.61 35.33 144.98 35.29L145.14 35.46L145.12 35.44Q140.60 35.34 137.48 34.96ZM152.62 38.71L152.50 38.59L152.62 38.71Q150.85 35.72 150.17 33.14L150.16 33.12L150.13 33.10Q149.67 33.33 148.68 33.71L148.64 33.66L148.69 33.71Q148.42 32.99 148.23 32.15L148.11 32.03L147.76 30.35L147.67 30.26Q144.45 32.37 141.33 32.25L141.40 32.32L141.29 32.22Q137.15 32.14 134.82 30.39L134.83 30.40L134.88 30.45Q133.58 28.46 133.65 25.53L133.72 25.60L133.66 25.54Q133.92 21.15 136.39 19.02L136.26 18.89L136.27 18.90Q138.46 17.05 143.14 16.44L143.25 16.55L143.18 16.48Q143.98 16.36 144.70 16.36L144.63 16.29L144.62 16.28Q147.38 16.26 149.47 17.78L149.62 17.93L149.58 17.89Q150.14 15.82 151.36 12.59L151.20 12.44L151.29 12.52Q150.98 12.47 150.42 12.42L150.39 12.39L150.38 12.37Q149.99 12.48 149.72 12.48L149.72 12.48L149.66 12.42Q149.85 11.88 150.30 10.89L150.26 10.84L150.36 10.94Q150.13 10.95 147.64 10.87L147.63 10.86L147.47 10.70Q145.02 10.66 144.37 10.70L144.39 10.72L144.33 10.66Q133.85 11.03 130.38 13.62L130.38 13.61L130.35 13.58Q128.46 15.54 128.46 19.46L128.44 19.44L128.52 19.52Q128.51 20.61 128.62 23.32L128.47 23.16L128.58 23.27Q128.72 26.84 128.94 28.55L128.91 28.52L128.85 28.46Q129.36 31.71 130.96 33.23L130.80 33.07L130.90 33.17Q131.27 33.73 132.53 34.87L132.71 35.05L132.59 34.93Q135.95 36.81 141.21 37.57L141.04 37.41L141.19 37.56Q147.67 38.55 152.65 38.74Z"/><path fill="#222" d="M170.01 34.89L170.06 34.94L168.10 34.93L167.99 34.81Q167.09 34.87 166.14 34.98L166.08 34.92L166.20 35.05Q166.62 28.69 166.62 24.69L166.78 24.85L166.64 24.71Q162.76 18.12 155.10 9.44L155.06 9.40L155.06 9.40Q156.96 10.50 160.31 11.30L160.13 11.12L160.18 11.17Q165.25 16.77 168.25 21.98L168.23 21.96L168.25 21.98Q171.23 16.39 175.60 11.37L175.72 11.48L175.71 11.47Q178.08 11.02 180.59 10.22L180.62 10.26L180.53 10.17Q174.60 16.38 169.73 24.79L169.68 24.75L169.62 24.68Q169.64 31.75 169.95 34.83ZM179.10 12.31L181.82 9.47L181.68 9.33Q178.59 10.51 175.47 10.97L175.59 11.09L175.51 11.00Q171.30 15.74 168.48 20.84L168.56 20.92L168.59 20.95Q166.32 17.16 163.12 13.28L163.15 13.30L163.13 13.28Q162.96 13.38 162.46 13.30L162.48 13.32L162.38 13.22Q161.81 12.54 160.29 10.86L160.31 10.88L160.30 10.87Q156.89 10.09 153.93 8.53L153.81 8.41L153.85 8.46Q161.54 16.90 166.30 24.82L166.33 24.86L166.34 24.86Q166.33 31.29 165.72 35.44L165.66 35.38L165.71 35.43Q166.43 35.39 167.87 35.27L167.75 35.15L167.87 36.30L167.84 36.27Q167.89 36.77 167.81 37.30L167.66 37.15L167.75 37.24Q171.38 37.33 173.13 37.52L173.12 37.51L173.12 37.51Q171.82 32.79 171.71 26.81L171.60 26.70L171.76 26.86Q175.99 18.26 182.53 10.91L182.54 10.92L179.14 12.35Z"/></svg>