<svg xmlns="http://www.w3.org/2000/svg" width="200" height="40" viewBox="0,0,200,40"><path d="M18 18 C93 2,113 18,190 1" stroke="#222" fill="none"/><path fill="#333" d="M131.78 10.77L131.81 10.80L131.80 10.79Q133.86 15.82 134.43 20.99L134.37 20.94L134.26 20.82Q138.00 16.72 143.90 11.89L143.94 11.93L143.85 11.84Q147.22 11.71 149.85 10.91L149.83 10.89L143.17 16.41L143.18 16.42Q139.75 19.35 136.90 22.21L136.93 22.24L136.89 22.20Q144.92 31.41 149.99 36.13L149.90 36.04L149.97 36.11Q146.91 35.23 144.59 35.08L144.56 35.05L144.60 35.09Q138.85 29.72 134.55 23.90L134.45 23.80L134.41 23.75Q134.48 30.33 132.61 35.66L132.68 35.73L132.62 35.67Q132.56 35.88 132.07 36.07L131.96 35.96L132.04 36.24L131.88 36.07Q131.69 36.11 129.14 37.03L129.15 37.03L129.26 37.14Q132.13 30.49 131.78 23.03L131.81 23.06L131.81 23.06Q131.40 15.64 127.86 9.13L128.01 9.29L128.47 9.48L128.96 9.86L128.92 9.77L129.00 9.85Q129.58 10.09 131.78 10.77ZM132.19 10.61L132.13 10.55L132.14 10.56Q129.95 10.08 127.32 8.56L127.22 8.45L127.17 8.40Q131.56 15.80 131.56 24.75L131.46 24.65L131.50 24.69Q131.58 31.78 128.61 37.83L128.62 37.84L130.58 36.90L130.58 36.90Q130.17 37.90 129.48 39.20L129.54 39.26L129.61 39.32Q131.81 38.48 133.75 38.06L133.75 38.06L133.85 37.93L133.83 37.91Q134.06 37.83 134.63 37.68L134.59 37.64L134.57 37.62Q136.23 31.70 136.34 26.91L136.46 27.03L136.28 26.84Q138.43 29.41 140.26 31.28L140.23 31.25L140.19 31.22Q141.48 32.43 144.49 35.40L144.57 35.47L144.47 35.37L144.58 35.49Q145.43 36.15 147.30 37.75L147.29 37.73L147.41 37.86Q151.17 38.46 154.64 40.17L154.73 40.27L154.63 40.17Q145.50 31.77 139.26 24.34L139.09 24.18L139.14 24.22Q143.68 20.08 152.44 11.48L152.32 11.36L152.38 11.42Q149.88 12.61 147.86 12.99L147.74 12.87L147.89 13.02Q148.97 11.89 151.29 9.87L151.31 9.90L151.37 9.95Q147.22 11.32 143.87 11.52L143.93 11.58L143.85 11.49Q141.03 13.81 136.16 18.50L136.01 18.35L136.06 18.41Q135.69 15.82 135.12 13.27L135.19 13.34L135.13 13.29Q133.90 13.08 132.91 12.73L132.85 12.68L132.89 12.71Q132.66 11.95 132.09 10.51Z"/><path fill="#444" d="M64.23 17.99L64.33 18.09L64.26 18.02Q62.48 20.77 59.82 26.41L59.74 26.33L57.87 30.70L57.73 30.57Q57.05 32.66 55.72 34.91L55.61 34.80L55.67 34.86Q56.09 34.82 54.42 34.86L54.50 34.94L54.47 34.92Q54.34 34.79 53.08 34.79L53.06 34.76L53.05 34.75Q52.41 33.35 49.48 26.20L49.43 26.15L49.52 26.24Q47.37 20.89 45.28 17.88L45.28 17.88L45.15 17.76Q45.99 20.91 45.99 24.07L45.89 23.97L46.00 24.09Q45.92 30.51 42.95 36.07L42.97 36.10L43.07 36.20Q41.64 36.43 39.28 37.16L39.32 37.20L39.32 37.20Q42.96 31.48 42.96 24.24L42.94 24.22L42.94 24.23Q42.95 15.29 37.55 8.32L37.59 8.37L37.66 8.44Q39.31 9.17 41.67 9.85L41.52 9.71L41.65 9.84Q48.70 16.58 54.79 29.91L54.73 29.85L54.81 29.93Q58.30 22.91 60.51 19.41L60.36 19.26L60.46 19.35Q63.94 13.47 67.89 10.00L67.98 10.09L68.08 10.19Q69.27 9.89 71.63 9.13L71.68 9.18L71.53 9.03Q66.66 15.77 66.66 24.37L66.70 24.42L66.69 24.41Q66.52 30.90 69.95 36.42L70.03 36.50L69.97 36.44Q68.62 36.12 65.88 35.51L65.96 35.60L65.99 35.62Q63.53 30.73 63.53 24.75L63.52 24.74L63.63 24.85Q63.65 21.45 64.34 18.10ZM65.76 35.97L65.86 36.07L65.81 36.02Q66.37 36.01 67.82 36.27L67.96 36.42L67.86 36.31Q68.39 37.14 69.34 38.63L69.30 38.59L69.42 38.71Q71.51 39.09 74.97 40.30L74.94 40.27L74.93 40.26Q68.74 33.99 68.74 24.17L68.54 23.98L68.66 24.09Q68.62 16.32 73.00 10.20L73.11 10.30L70.80 10.89L70.88 10.97Q71.89 9.43 72.54 8.56L72.45 8.47L72.49 8.51Q70.60 9.13 67.97 9.66L68.02 9.71L68.04 9.73Q61.29 15.85 55.24 28.45L55.10 28.31L55.19 28.40Q50.01 17.44 45.06 12.18L45.13 12.25L45.11 12.23Q44.64 12.06 44.07 11.95L44.15 12.03L42.85 10.66L42.92 10.73Q42.27 10.00 41.59 9.39L41.59 9.39L41.58 9.38Q38.66 8.52 36.87 7.80L36.81 7.74L36.80 7.72Q42.79 14.94 42.79 24.34L42.79 24.34L42.76 24.31Q42.69 31.86 38.54 37.72L38.62 37.80L38.59 37.76Q39.37 37.63 40.66 37.21L40.58 37.13L40.51 37.06Q40.40 37.33 38.99 39.42L38.99 39.42L39.01 39.45Q40.83 38.98 44.34 38.22L44.28 38.16L44.45 38.33Q48.16 31.27 47.97 23.50L47.83 23.37L47.87 23.40Q49.49 27.50 52.95 35.38L52.80 35.22L52.78 35.20Q53.02 35.14 53.24 35.14L53.37 35.26L53.81 35.17L53.94 35.29Q54.38 35.97 55.18 37.26L55.05 37.13L55.16 37.24Q56.86 37.30 56.86 37.30L56.84 37.28L56.76 37.20Q57.66 37.08 58.31 37.16L58.35 37.19L58.31 37.16Q60.04 33.29 63.39 25.30L63.34 25.25L63.32 25.22Q63.25 30.72 65.84 36.05Z"/><path d="M1 11 C95 18,100 7,193 35" stroke="#222" fill="none"/><path fill="#222" d="M36.10 18.14L36.05 18.09L36.05 18.10Q34.21 20.78 31.54 26.42L31.57 26.44L29.63 30.74L29.47 30.59Q28.75 32.65 27.42 34.89L27.31 34.78L27.42 34.90Q27.72 34.74 26.04 34.77L26.15 34.88L26.16 34.89Q26.04 34.77 24.78 34.77L24.76 34.75L24.78 34.76Q24.10 33.32 21.17 26.17L21.19 26.19L21.26 26.26Q19.06 20.86 16.96 17.85L16.87 17.76L16.89 17.78Q17.77 20.98 17.77 24.14L17.71 24.08L17.61 23.98Q17.70 30.58 14.73 36.13L14.82 36.22L14.82 36.23Q13.47 36.56 11.11 37.28L10.98 37.14L11.13 37.30Q14.77 31.57 14.77 24.34L14.79 24.36L14.65 24.22Q14.66 15.28 9.25 8.31L9.32 8.38L9.23 8.30Q11.05 9.20 13.41 9.89L13.32 9.79L13.42 9.89Q20.45 16.62 26.54 29.94L26.44 29.84L26.55 29.95Q30.06 22.95 32.26 19.45L32.13 19.31L32.21 19.40Q35.66 13.48 39.62 10.02L39.78 10.18L39.70 10.10Q40.98 9.89 43.34 9.13L43.32 9.10L43.27 9.06Q38.29 15.69 38.29 24.30L38.40 24.40L38.40 24.41Q38.40 31.06 41.82 36.58L41.85 36.61L41.66 36.42Q40.46 36.24 37.72 35.64L37.78 35.70L37.68 35.60Q35.24 30.72 35.24 24.74L35.25 24.76L35.26 24.76Q35.34 21.42 36.03 18.07ZM37.52 36.01L37.54 36.04L37.60 36.09Q38.09 36.01 39.54 36.28L39.64 36.38L39.64 36.38Q40.01 37.05 40.96 38.54L41.07 38.65L40.97 38.55Q43.14 39.01 46.61 40.22L46.67 40.29L46.60 40.22Q40.43 33.98 40.43 24.15L40.34 24.06L40.32 24.04Q40.43 16.42 44.81 10.29L44.76 10.24L42.65 11.02L42.60 10.97Q43.59 9.42 44.24 8.54L44.29 8.59L44.15 8.45Q42.38 9.20 39.75 9.73L39.72 9.70L39.68 9.66Q32.87 15.71 26.81 28.31L26.91 28.41L26.84 28.34Q21.66 17.37 16.71 12.12L16.71 12.12L16.73 12.14Q16.36 12.08 15.79 11.96L15.82 11.99L14.57 10.66L14.59 10.68Q13.95 9.96 13.26 9.35L13.24 9.34L13.36 9.45Q10.37 8.52 8.58 7.80L8.59 7.80L8.40 7.61Q14.42 14.85 14.42 24.26L14.42 24.25L14.49 24.33Q14.49 31.94 10.34 37.80L10.31 37.77L10.37 37.83Q11.05 37.59 12.34 37.17L12.39 37.22L12.31 37.14Q12.16 37.38 10.75 39.47L10.85 39.57L10.85 39.57Q12.53 38.96 16.03 38.20L16.02 38.19L16.06 38.23Q19.77 31.16 19.58 23.40L19.66 23.48L19.60 23.42Q21.05 27.34 24.51 35.22L24.54 35.25L24.64 35.35Q24.84 35.24 25.07 35.24L25.05 35.23L25.52 35.17L25.50 35.14Q26.13 36.00 26.93 37.30L26.83 37.20L26.91 37.28Q28.52 37.25 28.52 37.25L28.55 37.28L28.46 37.19Q29.49 37.19 30.14 37.27L30.03 37.16L30.03 37.16Q31.63 33.17 34.98 25.17L35.09 25.29L34.97 25.16Q34.85 30.60 37.44 35.93Z"/><path fill="#333" d="M177.38 18.00L177.50 18.12L177.52 18.14Q175.58 20.72 172.91 26.36L172.98 26.43L170.96 30.65L170.98 30.66Q170.12 32.59 168.79 34.84L168.86 34.91L168.76 34.81Q169.30 34.89 167.63 34.93L167.50 34.81L167.61 34.91Q167.46 34.76 166.21 34.76L166.23 34.79L166.38 34.94Q165.56 33.36 162.63 26.20L162.68 26.25L162.66 26.23Q160.36 20.74 158.27 17.73L158.30 17.76L158.40 17.86Q159.23 21.01 159.23 24.17L159.07 24.01L159.15 24.09Q159.05 30.50 156.08 36.06L156.14 36.12L156.11 36.09Q154.77 36.42 152.41 37.14L152.53 37.27L152.53 37.27Q156.18 31.56 156.18 24.32L156.23 24.37L156.11 24.25Q156.12 15.31 150.71 8.35L150.81 8.44L150.73 8.36Q152.41 9.13 154.77 9.81L154.85 9.89L154.74 9.79Q161.70 16.44 167.79 29.76L167.95 29.92L167.87 29.84Q171.31 22.78 173.52 19.27L173.54 19.30L173.56 19.32Q177.12 13.51 181.08 10.04L181.21 10.17L181.14 10.11Q182.40 9.89 184.76 9.12L184.78 9.14L184.80 9.17Q179.85 15.83 179.85 24.43L179.72 24.30L179.79 24.37Q179.82 31.06 183.25 36.58L183.11 36.45L183.24 36.57Q181.94 36.30 179.20 35.69L179.06 35.55L179.13 35.62Q176.81 30.87 176.81 24.89L176.70 24.77L176.85 24.93Q176.69 21.34 177.38 17.99ZM178.93 35.99L178.86 35.93L178.90 35.96Q179.70 36.19 181.14 36.45L181.08 36.39L181.12 36.43Q181.57 37.19 182.53 38.67L182.48 38.63L182.48 38.63Q184.56 38.99 188.02 40.21L187.98 40.17L188.01 40.19Q181.68 33.80 181.68 23.98L181.78 24.07L181.88 24.17Q181.72 16.28 186.10 10.15L186.21 10.27L183.89 10.84L183.98 10.93Q184.97 9.37 185.62 8.49L185.63 8.51L185.60 8.48Q183.72 9.11 181.09 9.64L181.16 9.71L181.23 9.78Q174.42 15.84 168.37 28.44L168.26 28.33L168.39 28.46Q163.11 17.40 158.16 12.14L158.16 12.14L158.27 12.24Q157.81 12.09 157.24 11.98L157.30 12.04L155.95 10.61L156.10 10.77Q155.40 9.98 154.71 9.38L154.82 9.48L154.72 9.38Q151.74 8.46 149.95 7.73L149.87 7.65L149.84 7.63Q155.93 14.93 155.93 24.34L155.90 24.30L155.86 24.27Q155.99 32.01 151.84 37.87L151.81 37.84L151.70 37.73Q152.33 37.45 153.63 37.03L153.77 37.18L153.77 37.18Q153.61 37.39 152.20 39.49L152.28 39.57L152.14 39.43Q153.99 39.00 157.49 38.24L157.46 38.20L157.41 38.15Q161.27 31.24 161.08 23.47L161.02 23.42L161.01 23.40Q162.52 27.39 165.98 35.27L166.00 35.29L166.01 35.30Q166.34 35.31 166.57 35.31L166.44 35.19L167.04 35.26L167.07 35.28Q167.53 35.97 168.33 37.27L168.36 37.30L168.22 37.16Q169.91 37.22 169.91 37.22L169.81 37.12L169.93 37.24Q170.92 37.19 171.57 37.27L171.59 37.30L171.55 37.25Q173.15 33.26 176.50 25.26L176.44 25.20L176.50 25.26Q176.33 30.65 178.92 35.98Z"/><path fill="#333" d="M90.66 35.47L90.63 35.44L90.47 35.28Q87.61 31.50 84.98 22.86L85.04 22.92L84.89 22.77Q84.32 20.72 83.52 18.59L83.53 18.60L80.57 27.29L80.56 27.27Q78.73 32.19 76.33 35.42L76.47 35.56L76.43 35.52Q75.48 35.48 73.85 35.64L74.00 35.79L73.89 35.69Q74.08 34.57 74.08 33.32L74.06 33.30L74.12 33.36Q74.06 27.29 71.32 21.16L71.38 21.22L71.24 21.07Q68.21 14.28 62.35 9.29L62.32 9.27L62.27 9.21Q64.36 9.86 66.72 10.39L66.89 10.56L66.78 10.45Q75.56 19.00 76.85 29.96L76.75 29.86L76.74 29.85Q78.35 26.52 79.80 21.15L79.90 21.25L79.78 21.13Q81.94 13.81 82.44 12.40L82.29 12.25L84.68 12.40L84.59 12.31Q85.32 14.37 85.97 16.70L85.94 16.67L87.16 21.09L87.11 21.04Q88.83 26.64 90.24 29.87L90.14 29.77L90.23 29.86Q91.92 18.27 99.84 10.92L99.69 10.77L99.68 10.76Q101.31 10.52 104.28 9.88L104.19 9.79L104.22 9.82Q98.86 14.09 95.81 20.22L95.86 20.27L95.90 20.31Q92.78 26.51 92.78 33.29L92.74 33.25L92.82 33.33Q92.77 34.38 92.85 35.53L92.93 35.61L91.76 35.47L91.80 35.51Q91.11 35.35 90.54 35.35ZM96.85 38.31L96.87 38.33L96.91 38.37Q95.49 34.63 95.60 30.75L95.76 30.90L95.67 30.81Q95.94 19.20 105.30 10.94L105.36 11.00L105.28 10.92Q104.33 11.15 102.39 11.68L102.52 11.81L102.48 11.78Q103.42 10.93 105.33 9.14L105.37 9.19L105.28 9.09Q102.64 9.88 99.71 10.37L99.68 10.35L99.79 10.46Q92.24 17.53 90.34 27.01L90.44 27.10L90.31 26.97Q89.79 25.39 86.94 13.94L86.94 13.93L86.86 13.86Q86.46 13.96 85.51 13.96L85.48 13.92L85.23 12.91L85.30 12.98Q85.18 12.44 84.95 11.94L84.82 11.82L82.05 11.94L81.99 11.88Q81.16 14.32 79.88 19.44L79.83 19.38L79.90 19.46Q78.64 24.59 77.65 27.07L77.52 26.94L77.66 27.08Q75.99 19.09 70.43 12.77L70.41 12.75L70.59 12.93Q69.98 12.74 69.03 12.55L69.05 12.56L69.15 12.66Q68.39 11.80 66.83 10.16L66.87 10.20L66.76 10.08Q63.46 9.38 61.29 8.58L61.19 8.48L61.22 8.50Q66.83 13.13 70.11 19.34L70.10 19.33L70.17 19.40Q73.57 25.96 73.57 32.96L73.66 33.06L73.64 33.03Q73.59 34.55 73.40 36.15L73.38 36.12L73.45 36.19Q73.74 36.26 74.20 36.16L74.14 36.10L74.06 36.02Q74.48 35.89 74.71 35.89L74.73 35.91L74.88 37.09L74.89 37.10Q74.72 37.39 74.79 37.92L74.83 37.96L74.91 38.03Q76.05 37.95 78.33 37.80L78.34 37.80L78.28 37.75Q81.92 32.37 84.66 22.96L84.64 22.94L84.59 22.89Q87.41 31.73 90.38 35.69L90.48 35.79L90.50 35.80Q90.97 35.82 91.80 35.93L91.76 35.89L91.82 35.95Q92.64 36.96 93.71 38.03L93.74 38.05L93.67 37.99Q94.47 38.07 96.87 38.33Z"/><path fill="#333" d="M113.31 34.76L113.39 34.85L111.45 34.85L111.41 34.80Q110.45 34.80 109.50 34.91L109.46 34.88L109.61 35.02Q110.14 28.78 110.14 24.78L110.10 24.74L110.09 24.73Q106.12 18.05 98.46 9.38L98.58 9.49L98.44 9.35Q100.33 10.44 103.68 11.24L103.64 11.20L103.65 11.21Q108.73 16.82 111.74 22.04L111.68 21.98L111.63 21.93Q114.81 16.54 119.18 11.52L119.02 11.35L119.19 11.52Q121.49 11.00 124.00 10.21L124.11 10.31L123.96 10.16Q117.88 16.23 113.01 24.64L113.08 24.72L113.12 24.76Q113.05 31.73 113.36 34.81ZM122.56 12.34L125.19 9.41L125.28 9.50Q122.07 10.56 118.95 11.02L119.06 11.13L118.92 10.99Q114.69 15.70 111.87 20.80L111.89 20.82L111.91 20.84Q109.88 17.29 106.69 13.41L106.53 13.25L106.70 13.43Q106.29 13.28 105.80 13.20L105.93 13.34L105.84 13.25Q105.23 12.53 103.71 10.85L103.57 10.71L103.60 10.75Q100.23 10.00 97.26 8.44L97.27 8.45L97.28 8.46Q104.94 16.88 109.70 24.80L109.82 24.92L109.74 24.84Q109.60 31.13 108.99 35.28L108.96 35.25L108.99 35.28Q109.74 35.27 111.18 35.15L111.22 35.19L111.18 36.18L111.32 36.31Q111.34 36.79 111.26 37.33L111.13 37.19L111.12 37.18Q114.67 37.19 116.42 37.38L116.51 37.47L116.41 37.37Q115.16 32.69 115.04 26.72L115.18 26.85L115.05 26.73Q119.44 18.29 125.99 10.94L126.09 11.04L122.41 12.19Z"/></svg>