<svg xmlns="http://www.w3.org/2000/svg" width="200" height="40" viewBox="0,0,200,40"><path fill="#333" d="M90.81 18.28L90.75 18.22L90.72 18.19Q89.13 14.24 82.92 14.43L82.90 14.41L82.98 14.49Q78.42 14.46 76.45 15.91L76.58 16.04L76.49 15.95Q74.13 17.74 74.13 21.85L74.06 21.78L74.18 23.77L74.17 23.76Q74.10 32.53 83.13 32.53L83.07 32.47L83.17 32.57Q85.15 32.49 86.63 31.69L86.59 31.65L86.62 31.68Q88.45 30.65 88.29 28.79L88.42 28.91L88.28 28.78Q88.10 26.69 84.41 25.78L84.40 25.77L82.48 25.79L82.59 25.90Q81.65 25.91 80.70 25.95L80.61 25.86L80.57 25.82Q80.61 24.91 80.57 23.01L80.48 22.92L80.57 23.01Q88.32 23.10 92.51 22.76L92.43 22.68L92.45 22.70Q92.35 23.47 92.35 24.27L92.44 24.37L92.40 24.32Q92.38 25.10 92.41 25.90L92.34 25.83L92.33 25.81Q91.26 25.85 91.26 25.85L91.28 25.87L91.35 25.94Q89.85 25.82 90.24 25.82L90.36 25.94L90.31 25.89Q91.48 27.60 91.87 29.58L91.72 29.43L91.82 29.53Q91.81 30.14 91.81 30.59L91.95 30.72L91.97 30.75Q91.92 35.34 83.13 35.34L83.06 35.28L83.12 35.33Q76.01 35.35 73.42 33.25L73.35 33.18L73.40 33.23Q71.45 30.90 71.45 25.83L71.37 25.75L71.34 25.73Q71.44 24.76 71.29 22.06L71.31 22.08L71.19 21.96Q71.13 19.69 71.17 18.32L71.10 18.25L71.07 18.22Q71.20 15.38 72.57 13.78L72.66 13.87L72.67 13.88Q75.08 11.68 79.95 11.49L80.10 11.65L82.70 11.51L82.74 11.54Q85.73 11.34 89.16 11.76L89.16 11.76L89.19 11.79Q93.04 12.36 93.99 15.60L93.99 15.60L94.01 15.62Q92.94 16.49 90.85 18.32ZM92.24 20.51L92.25 20.41L92.29 20.44Q93.62 19.49 95.48 17.51L95.39 17.42L95.37 17.40Q95.09 16.47 94.10 14.76L94.11 14.76L94.17 14.83Q92.85 12.03 89.05 11.38L89.02 11.36L89.03 11.36Q86.93 11.28 82.63 10.97L82.72 11.07L79.95 11.12L80.08 11.24Q74.91 11.44 72.32 13.42L72.14 13.24L72.15 13.25Q70.90 15.01 70.78 18.09L70.83 18.14L70.79 18.10Q70.86 17.71 71.08 23.19L70.93 23.03L71.11 23.21Q71.05 24.48 71.12 27.22L71.08 27.18L71.07 27.17Q71.34 31.70 73.09 33.65L73.03 33.58L72.96 33.52Q73.35 34.36 74.22 35.24L74.29 35.30L74.20 35.21Q77.18 37.17 82.70 37.51L82.80 37.61L85.66 37.76L85.54 37.64Q87.21 37.83 89.23 37.72L89.31 37.79L89.17 37.66Q90.67 37.64 92.77 37.10L92.85 37.19L92.78 37.12Q94.70 36.60 94.67 34.28L94.75 34.36L94.73 34.35Q94.63 32.99 93.56 30.21L93.55 30.20L93.51 30.16Q93.28 29.31 92.74 28.52L92.70 28.47L92.79 28.57Q93.42 28.62 94.60 28.81L94.55 28.76L94.63 28.84Q94.23 25.13 94.27 24.44L94.29 24.47L94.34 24.51Q93.95 24.51 93.53 24.47L93.56 24.50L93.45 24.39Q93.09 24.37 92.71 24.45L92.80 24.54L92.72 24.45Q92.74 23.38 92.82 22.31L92.78 22.27L92.85 22.34Q86.43 22.69 80.14 22.58L80.31 22.74L80.17 22.61Q80.25 23.56 80.25 24.48L80.36 24.58L80.18 26.15L80.30 26.27Q80.72 26.31 81.14 26.27L81.01 26.15L81.09 26.22Q81.41 26.13 81.87 26.13L81.91 26.17L81.94 26.20Q82.02 26.74 82.06 27.24L81.97 27.15L81.99 27.16Q81.96 27.59 81.92 28.08L81.85 28.01L81.99 28.15Q82.97 28.07 84.00 28.03L84.08 28.11L84.04 28.07Q85.08 28.09 86.11 28.13L86.06 28.08L86.06 28.07Q87.17 28.39 88.05 28.77L88.01 28.73L87.90 28.66L88.09 28.84Q88.24 30.37 86.56 31.28L86.61 31.33L86.56 31.28Q84.86 32.17 83.15 32.17L83.11 32.13L83.09 32.11Q79.30 32.16 76.86 30.41L76.85 30.40L76.80 30.35Q75.85 28.33 76.00 25.78L76.07 25.85L76.03 25.81Q76.35 21.03 78.20 19.03L78.27 19.11L78.16 18.99Q79.99 16.98 84.68 16.68L84.66 16.66L84.71 16.71Q88.41 16.53 90.35 18.32L90.36 18.32L90.28 18.25Q90.40 18.40 90.51 18.59L90.42 18.50L90.69 18.65L90.63 18.60Q91.19 19.27 91.76 20.37L91.79 20.41L92.14 20.41Z"/><path fill="#444" d="M164.13 35.35L164.11 35.33L164.07 35.29Q160.14 35.67 159.15 33.35L159.15 33.34L159.18 33.38Q159.86 32.34 161.42 30.55L161.34 30.47L161.40 30.53Q161.83 32.49 164.84 32.60L164.84 32.60L165.00 32.76Q168.36 32.81 170.00 31.48L169.92 31.39L169.97 31.45Q171.31 29.78 171.23 27.07L171.30 27.14L171.28 27.13Q171.19 22.12 166.39 22.35L166.41 22.37L166.23 22.19Q163.51 22.44 161.76 23.69L161.84 23.77L161.36 23.45L161.30 23.46L161.19 23.36Q161.56 20.22 161.44 17.48L161.42 17.45L161.46 17.49Q161.34 14.87 161.00 11.55L161.09 11.64L161.08 11.63Q164.67 12.52 168.47 12.40L168.51 12.44L168.42 12.34Q172.31 12.35 175.88 11.10L175.88 11.09L175.31 12.61L175.34 12.65Q174.89 13.26 174.70 14.10L174.84 14.24L174.84 14.24Q171.59 15.14 167.71 15.14L167.83 15.26L167.79 15.22Q166.24 15.11 164.75 14.96L164.89 15.10L164.85 15.06Q164.75 15.73 164.41 20.18L164.49 20.26L164.33 20.10Q165.22 19.70 167.28 19.54L167.25 19.51L167.29 19.55Q170.97 19.73 172.41 21.41L172.47 21.46L172.53 21.52Q173.93 23.07 174.20 26.92L174.22 26.94L174.04 26.76Q174.44 31.09 173.23 33.10L173.17 33.05L173.18 33.06Q171.08 34.88 167.77 35.11L167.84 35.18L167.83 35.17Q166.78 35.18 164.11 35.33ZM170.30 37.76L170.13 37.59L170.21 37.67Q173.64 37.74 175.54 36.64L175.58 36.68L175.50 36.60Q176.50 35.08 176.50 32.99L176.57 33.06L176.46 32.95Q176.51 29.92 175.56 25.80L175.49 25.73L175.62 25.87Q175.27 24.15 174.06 22.74L174.06 22.75L173.98 22.70L173.81 22.46L173.47 22.27L173.46 22.26Q173.19 21.57 172.54 20.89L172.58 20.93L172.59 20.97L172.46 20.85Q171.06 19.29 167.37 19.29L167.25 19.18L167.00 19.19L166.97 19.16Q167.15 18.69 167.34 17.59L167.26 17.51L167.26 17.51Q172.20 17.58 176.24 15.94L176.23 15.93L176.39 16.09Q176.65 14.52 177.60 11.71L177.66 11.77L175.59 12.74L175.50 12.66Q175.88 11.50 176.37 10.36L176.49 10.48L176.42 10.41Q172.69 11.97 168.58 12.05L168.45 11.92L168.41 11.88Q164.37 12.07 160.41 10.96L160.40 10.95L160.49 11.04Q161.13 15.42 161.13 19.83L161.20 19.90L161.12 19.81Q161.09 21.70 160.98 23.60L160.94 23.56L161.05 23.67Q161.28 23.83 161.85 24.13L161.82 24.10L161.93 24.21Q162.22 23.93 162.87 23.58L162.92 23.63L162.79 23.51Q162.79 24.31 162.56 25.83L162.51 25.77L162.49 25.75Q162.99 26.03 163.41 26.26L163.42 26.26L163.48 26.32Q166.10 24.42 167.97 24.42L168.07 24.52L167.94 24.39Q169.42 24.54 170.60 25.19L170.60 25.19L170.64 25.23Q170.80 26.07 170.84 27.02L171.00 27.19L170.83 27.02Q170.91 29.61 169.89 30.72L170.03 30.86L169.99 30.82Q168.70 32.12 166.45 32.35L166.33 32.22L166.29 32.18Q165.35 32.27 164.66 32.19L164.66 32.19L164.67 32.20Q163.98 32.24 163.22 31.90L163.13 31.80L163.10 31.58L163.01 31.72L163.00 31.71Q162.16 31.17 161.62 29.84L161.59 29.80L161.68 29.90Q160.40 31.36 158.73 33.49L158.55 33.31L158.54 33.30Q158.87 33.98 159.71 34.93L159.87 35.10L159.78 35.00Q160.89 36.88 163.71 37.37L163.59 37.25L163.56 37.22Q164.77 37.47 170.13 37.59Z"/><path fill="#222" d="M56.64 34.89L56.53 34.79L56.52 34.78Q54.71 34.87 52.70 35.07L52.67 35.04L52.57 34.94Q53.28 29.75 53.28 24.91L53.19 24.82L53.24 24.88Q53.33 20.05 52.68 14.83L52.69 14.84L52.74 14.89Q48.05 14.39 44.86 12.72L44.90 12.77L44.20 11.04L44.23 11.07Q43.98 10.51 43.37 9.29L43.33 9.25L43.37 9.29Q48.42 11.95 54.44 12.14L54.46 12.16L54.49 12.19Q60.37 12.36 65.82 10.31L65.80 10.29L65.66 10.15Q64.94 11.56 64.30 13.39L64.31 13.41L64.43 13.53Q60.74 14.75 56.48 14.94L56.55 15.02L56.52 14.98Q56.24 19.91 56.24 24.86L56.37 25.00L56.30 24.92Q56.19 29.76 56.49 34.75ZM66.44 9.56L66.32 9.44L66.44 9.56Q60.69 11.91 54.48 11.72L54.43 11.67L54.41 11.65Q47.78 11.49 42.68 8.53L42.64 8.48L42.72 8.56Q43.32 9.70 44.62 12.98L44.75 13.11L44.60 12.96Q45.39 13.40 46.64 13.97L46.63 13.96L46.57 13.90Q46.84 14.63 47.18 16.15L47.23 16.20L47.25 16.22Q49.54 17.06 52.59 17.29L52.50 17.20L52.45 17.15Q52.90 20.92 52.90 24.69L52.94 24.72L52.97 24.76Q52.95 30.10 52.15 35.47L52.15 35.47L52.03 35.35Q53.86 35.39 54.39 35.39L54.29 35.28L54.24 35.24Q54.28 35.58 54.22 36.24L54.21 36.24L54.28 36.31Q54.24 36.99 54.24 37.33L54.24 37.33L54.26 37.36Q55.39 37.22 56.91 37.30L56.89 37.28L56.92 37.30Q57.78 37.29 59.61 37.44L59.55 37.38L59.69 37.53Q58.43 32.58 58.32 27.40L58.24 27.32L58.25 27.33Q58.15 22.05 58.68 17.14L58.64 17.10L58.61 17.07Q62.72 16.69 65.88 15.47L65.76 15.35L65.71 15.30Q66.42 12.93 67.45 10.87L67.47 10.89L67.42 10.84Q66.22 11.66 65.42 11.96L65.47 12.01L65.34 11.88Q65.85 10.69 66.43 9.54Z"/><path fill="#333" d="M36.07 18.12L36.09 18.13L36.11 18.15Q34.25 20.83 31.59 26.46L31.55 26.43L29.46 30.57L29.54 30.66Q28.65 32.55 27.32 34.79L27.43 34.90L27.39 34.87Q27.83 34.85 26.15 34.89L26.19 34.92L26.21 34.94Q26.18 34.91 24.92 34.91L24.79 34.77L24.87 34.86Q24.08 33.31 21.15 26.15L21.24 26.24L21.27 26.27Q19.02 20.82 16.93 17.82L16.98 17.87L16.88 17.77Q17.66 20.87 17.66 24.03L17.72 24.09L17.61 23.99Q17.61 30.49 14.64 36.04L14.70 36.11L14.68 36.09Q13.34 36.42 10.98 37.14L11.00 37.17L10.95 37.11Q14.64 31.44 14.64 24.20L14.68 24.25L14.81 24.37Q14.69 15.31 9.28 8.34L9.27 8.33L9.23 8.29Q10.92 9.07 13.29 9.76L13.42 9.89L13.35 9.82Q20.44 16.61 26.53 29.93L26.39 29.79L26.40 29.80Q30.00 22.90 32.21 19.39L32.21 19.40L32.24 19.43Q35.70 13.52 39.66 10.05L39.63 10.03L39.75 10.15Q41.06 9.97 43.42 9.21L43.33 9.12L43.40 9.18Q38.34 15.74 38.34 24.34L38.42 24.43L38.41 24.42Q38.41 31.08 41.84 36.60L41.79 36.55L41.83 36.59Q40.49 36.28 37.75 35.67L37.65 35.57L37.78 35.70Q35.31 30.79 35.31 24.82L35.31 24.81L35.33 24.83Q35.36 21.44 36.05 18.09ZM37.58 36.07L37.53 36.02L37.53 36.02Q38.11 36.03 39.56 36.29L39.55 36.29L39.56 36.30Q40.04 37.09 40.99 38.57L41.02 38.60L40.99 38.57Q43.20 39.06 46.66 40.28L46.63 40.25L46.65 40.26Q40.36 33.90 40.36 24.08L40.28 24.00L40.33 24.05Q40.34 16.33 44.72 10.20L44.75 10.24L42.62 11.00L42.50 10.87Q43.53 9.35 44.17 8.48L44.28 8.58L44.14 8.44Q42.28 9.10 39.65 9.63L39.78 9.76L39.74 9.72Q32.88 15.72 26.82 28.32L26.97 28.47L26.89 28.38Q21.64 17.35 16.69 12.09L16.71 12.11L16.84 12.25Q16.29 12.00 15.72 11.88L15.84 12.01L14.60 10.70L14.65 10.74Q13.94 9.96 13.25 9.35L13.23 9.32L13.36 9.45Q10.33 8.48 8.54 7.76L8.40 7.62L8.48 7.69Q14.53 14.96 14.53 24.36L14.52 24.36L14.49 24.33Q14.39 31.84 10.24 37.70L10.37 37.84L10.28 37.74Q10.95 37.49 12.24 37.08L12.37 37.21L12.24 37.07Q12.14 37.36 10.73 39.45L10.73 39.45L10.77 39.49Q12.47 38.90 15.97 38.14L16.12 38.29L16.15 38.32Q19.83 31.23 19.64 23.46L19.69 23.51L19.51 23.33Q21.17 27.46 24.63 35.34L24.60 35.31L24.50 35.22Q24.83 35.24 25.06 35.24L25.09 35.27L25.50 35.15L25.61 35.25Q26.07 35.94 26.87 37.24L26.93 37.30L26.89 37.26Q28.56 37.29 28.56 37.29L28.41 37.14L28.49 37.22Q29.48 37.19 30.13 37.26L30.19 37.32L30.14 37.27Q31.77 33.30 35.12 25.31L34.93 25.13L35.09 25.28Q34.94 30.69 37.53 36.02Z"/><path fill="#111" d="M135.77 25.68L135.68 25.59L135.74 25.65Q135.71 25.62 139.10 25.59L139.10 25.59L139.12 25.61Q141.44 25.65 142.51 25.69L142.42 25.60L142.49 25.67Q141.37 22.72 138.94 17.09L138.98 17.13L139.02 17.17Q138.34 18.48 137.30 21.33L137.25 21.29L137.35 21.39Q136.34 24.27 135.77 25.68ZM143.54 28.09L143.59 28.14L143.56 28.11Q141.25 28.04 139.04 28.08L139.10 28.14L139.03 28.07Q136.73 28.06 134.45 28.25L134.48 28.28L134.60 28.40Q133.10 31.85 129.87 36.04L129.84 36.01L129.72 35.90Q127.24 36.61 125.87 37.11L125.73 36.97L125.89 37.13Q130.91 31.37 135.59 18.01L135.70 18.11L135.54 17.96Q136.87 14.60 138.24 11.37L138.33 11.46L138.17 11.30Q138.64 11.46 138.98 11.46L139.00 11.48L139.71 11.46L139.57 11.33Q140.42 12.79 145.26 24.44L145.22 24.40L145.23 24.41Q148.55 32.29 152.54 36.44L152.41 36.31L152.48 36.38Q152.04 36.32 148.15 35.44L148.00 35.29L148.11 35.40Q145.46 32.18 143.48 28.03ZM148.00 35.71L147.96 35.67L148.49 35.71L148.60 35.82Q148.80 35.79 149.11 35.90L149.15 35.94L149.09 35.89Q149.54 36.37 151.37 38.39L151.39 38.41L151.29 38.31Q154.97 39.25 157.37 40.28L157.35 40.27L157.25 40.16Q151.78 35.64 147.78 27.65L147.87 27.73L147.85 27.71Q146.26 24.45 144.82 20.49L144.74 20.41L142.12 13.04L142.14 13.06Q141.82 13.09 141.59 13.09L141.54 13.03L141.02 13.04L141.09 13.11Q140.68 12.40 139.96 11.03L139.90 10.97L139.81 10.88Q139.51 11.11 139.05 11.08L138.86 10.89L138.88 10.91Q138.51 10.95 137.97 10.95L138.00 10.98L138.00 10.98Q136.50 14.80 132.62 24.97L132.68 25.03L132.74 25.09Q129.58 33.01 124.93 37.80L124.83 37.70L124.82 37.70Q125.92 37.34 127.93 36.73L127.90 36.70L127.87 36.67Q127.20 37.63 125.64 39.42L125.53 39.32L125.53 39.32Q127.30 38.72 131.22 37.96L131.27 38.01L131.36 38.10Q134.70 33.67 136.26 30.44L136.27 30.45L136.18 30.36Q138.02 30.34 140.34 30.37L140.39 30.42L140.39 30.42Q143.03 30.36 144.40 30.44L144.36 30.40L144.40 30.44Q145.73 32.87 148.09 35.80ZM140.29 21.03L140.35 21.10L140.29 21.03Q141.07 23.03 141.84 25.13L141.99 25.28L138.54 25.14L138.71 25.31Q139.13 23.71 140.19 20.93Z"/><path d="M20 3 C92 10,95 25,192 20" stroke="#111" fill="none"/><path fill="#222" d="M102.15 34.06L102.06 33.97L101.99 33.90Q103.97 31.61 108.72 24.34L108.63 24.24L108.71 24.32Q112.75 18.12 115.60 14.85L115.62 14.86L115.49 14.73Q113.54 15.18 111.45 15.18L111.42 15.16L111.39 15.12Q106.21 15.20 102.21 13.41L102.20 13.40L102.12 13.31Q101.36 11.30 100.67 9.74L100.81 9.88L100.75 9.81Q105.40 12.07 111.08 12.19L111.03 12.14L111.04 12.15Q116.15 12.19 121.33 10.29L121.33 10.30L121.32 10.28Q120.87 11.05 120.57 11.85L120.66 11.95L120.01 13.47L120.16 13.62Q116.97 17.13 112.98 22.96L113.02 23.00L109.76 27.88L109.77 27.90Q108.07 30.30 106.24 32.59L106.15 32.49L106.24 32.59Q109.44 31.87 112.76 31.95L112.85 32.04L112.72 31.92Q116.23 32.18 119.39 33.10L119.33 33.04L119.78 34.60L119.81 34.62Q120.06 35.44 120.40 36.28L120.32 36.20L120.36 36.24Q115.78 34.75 110.64 34.94L110.63 34.93L110.60 34.89Q105.37 34.99 100.87 37.01L100.97 37.10L100.87 37.00Q101.31 36.00 102.04 33.94ZM100.41 37.83L100.38 37.81L100.41 37.83Q101.55 37.15 102.35 36.89L102.35 36.89L102.40 36.94Q102.19 37.75 101.50 39.27L101.47 39.24L101.34 39.11Q107.21 37.13 113.18 37.36L113.02 37.20L113.03 37.21Q119.52 37.61 124.55 40.39L124.49 40.34L124.50 40.34Q123.14 37.99 122.34 35.82L122.25 35.73L122.23 35.71Q121.71 35.46 120.19 34.89L120.15 34.85L120.16 34.86Q119.94 34.07 119.52 32.59L119.52 32.58L119.59 32.65Q115.45 31.48 110.35 31.67L110.43 31.76L110.37 31.70Q112.52 28.98 116.07 23.42L116.07 23.42L116.00 23.35Q119.66 17.64 121.56 15.09L121.53 15.06L121.66 15.20Q122.08 13.71 123.11 11.01L123.16 11.06L123.09 10.99Q122.39 11.32 120.94 11.93L121.08 12.06L121.08 12.06Q121.32 11.16 122.05 9.64L121.96 9.55L122.07 9.66Q116.64 11.69 110.93 11.62L110.97 11.66L111.04 11.73Q104.99 11.54 100.04 9.03L100.17 9.16L100.18 9.17Q101.18 11.39 101.90 13.63L101.88 13.61L102.03 13.76Q103.12 14.28 103.92 14.51L103.95 14.53L103.77 14.36Q104.21 15.22 104.48 16.67L104.38 16.57L104.39 16.58Q108.15 17.67 113.02 17.48L113.08 17.54L113.02 17.48Q110.52 20.57 107.21 25.56L107.32 25.67L101.69 33.90L101.75 33.96Q101.40 35.25 100.37 37.80Z"/><path d="M10 26 C98 33,104 34,185 11" stroke="#333" fill="none"/></svg>