<svg xmlns="http://www.w3.org/2000/svg" width="200" height="40" viewBox="0,0,200,40"><path d="M3 10 C98 22,92 34,193 1" stroke="#555" fill="none"/><path fill="#222" d="M78.69 35.38L78.60 35.29L78.72 35.41Q77.23 35.41 75.67 34.99L75.75 35.07L75.63 34.95Q74.52 34.14 74.36 32.50L74.31 32.45L74.26 32.40Q74.19 32.17 74.38 29.55L74.47 29.64L74.42 29.59Q75.55 29.50 77.56 29.12L77.51 29.06L77.25 29.75L77.28 29.78Q77.10 31.62 78.51 32.19L78.41 32.09L78.40 32.08Q79.18 32.41 81.28 32.41L81.30 32.43L81.30 32.43Q83.00 32.39 83.19 32.31L83.21 32.32L83.14 32.26Q84.05 32.10 84.78 31.61L84.75 31.58L84.76 31.59Q86.12 30.59 85.93 28.49L85.94 28.51L86.02 28.59Q85.81 26.13 84.07 24.57L84.14 24.63L84.10 24.59Q82.38 23.04 79.90 23.04L79.87 23.00L79.81 22.72L79.77 22.68Q80.19 22.68 81.06 22.60L81.03 22.57L81.11 22.65Q82.99 22.51 84.36 21.28L84.37 21.28L84.40 21.32Q85.69 19.99 85.84 18.13L85.91 18.20L85.99 18.27Q86.08 17.95 86.08 17.61L85.98 17.50L85.91 17.43Q85.98 15.99 84.61 15.07L84.72 15.18L84.65 15.11Q83.38 14.26 81.78 14.37L81.78 14.37L81.80 14.39Q80.58 14.31 79.36 14.73L79.36 14.73L79.33 14.71Q77.95 15.30 77.64 16.44L77.50 16.29L77.61 16.41Q77.34 17.09 77.42 17.85L77.50 17.93L77.53 17.96Q76.32 17.55 74.26 16.83L74.34 16.91L74.29 16.86Q74.06 15.18 74.10 14.34L74.19 14.44L74.22 14.46Q74.36 12.96 75.42 12.28L75.42 12.27L75.43 12.28Q76.83 11.67 78.43 11.67L78.25 11.49L78.26 11.50Q81.55 11.59 84.71 11.86L84.72 11.87L84.70 11.85Q89.75 12.25 89.45 16.02L89.45 16.03L89.39 15.97Q89.34 17.48 88.84 19.04L88.95 19.14L88.82 19.01Q87.93 22.13 85.57 23.04L85.58 23.04L85.60 23.07Q88.23 23.61 88.84 26.96L88.91 27.02L88.76 26.87Q89.09 28.11 89.16 30.13L89.13 30.09L89.14 30.11Q89.29 34.56 84.68 35.01L84.70 35.04L84.64 34.97Q84.01 35.14 78.72 35.41ZM83.84 37.57L83.80 37.52L83.77 37.49Q84.54 37.69 87.39 37.76L87.24 37.62L87.27 37.64Q89.11 37.80 90.74 37.16L90.69 37.10L90.78 37.19Q91.94 36.22 91.75 34.47L91.68 34.40L91.75 34.47Q91.52 33.02 91.21 31.27L91.24 31.29L91.31 31.36Q90.50 26.79 88.56 25.15L88.60 25.19L88.50 24.90L88.30 24.66L88.33 24.69Q90.09 23.25 90.85 18.87L90.86 18.88L90.90 18.92Q90.94 18.47 91.05 17.51L91.00 17.47L90.99 17.45Q91.23 16.86 91.15 16.17L91.09 16.11L91.00 16.02Q90.99 14.48 89.69 13.80L89.58 13.68L89.56 13.74L89.45 13.63Q89.33 12.82 88.19 12.29L88.13 12.23L88.05 12.15Q86.54 11.48 81.41 11.18L81.47 11.25L81.47 11.24Q79.83 11.21 78.24 11.21L78.08 11.05L78.06 11.04Q76.61 11.18 75.09 11.83L75.06 11.80L75.06 11.80Q73.80 12.52 73.80 14.27L73.83 14.31L73.72 14.20Q73.82 13.88 74.09 17.23L74.01 17.15L74.08 17.22Q74.39 17.30 76.03 17.91L76.07 17.96L76.06 17.94Q75.98 18.39 75.94 18.89L75.96 18.90L76.07 19.01Q75.98 19.42 76.02 19.95L76.01 19.95L76.02 19.96Q77.80 20.33 79.82 20.44L79.76 20.39L79.88 20.50Q79.75 18.43 80.85 17.59L80.78 17.52L80.95 17.69Q81.79 17.05 83.81 16.82L83.68 16.70L83.80 16.81Q84.90 16.77 85.48 16.96L85.35 16.84L85.43 16.92Q85.57 17.13 85.60 17.24L85.46 17.10L85.49 17.32L85.61 17.89L85.62 17.91Q85.65 18.13 85.61 18.28L85.66 18.33L85.64 18.31Q85.56 20.02 84.04 21.20L84.02 21.18L84.05 21.21Q83.12 22.11 81.10 22.30L81.09 22.28L81.08 22.27Q80.30 22.37 79.43 22.37L79.47 22.41L79.50 22.45Q79.58 22.83 79.74 23.52L79.61 23.40L79.66 23.44Q81.39 23.43 82.84 24.15L82.88 24.19L82.65 24.08L81.18 24.36L81.11 24.29Q81.21 24.69 81.33 25.30L81.23 25.21L81.29 25.27Q83.47 25.24 85.19 26.57L85.16 26.54L85.26 26.64Q85.44 26.98 85.74 28.62L85.63 28.50L85.70 28.57Q85.85 31.46 82.92 31.88L82.96 31.92L82.85 31.82Q80.91 32.23 80.34 32.20L80.28 32.13L80.29 32.15Q79.75 31.95 79.22 31.87L79.39 32.04L79.38 31.58L79.34 30.97L79.45 30.66L79.40 30.27L79.42 30.29Q78.49 30.38 77.69 30.57L77.78 30.66L77.77 30.66Q77.64 30.34 77.64 30.15L77.73 30.23L77.76 30.26Q77.76 30.03 77.76 29.80L77.77 29.82L77.72 29.76Q77.69 29.28 77.84 28.55L77.96 28.67L78.02 28.74Q76.13 28.94 74.26 29.28L74.21 29.23L74.19 29.21Q74.22 29.73 74.11 30.86L74.18 30.93L74.01 30.76Q74.06 32.05 74.06 32.66L74.05 32.65L73.93 32.52Q74.09 34.66 75.46 35.42L75.49 35.45L75.33 35.30Q76.90 37.66 81.62 37.47L81.57 37.43L81.59 37.44Q82.38 37.47 83.90 37.62Z"/><path d="M16 15 C113 20,88 17,196 3" stroke="#555" fill="none"/><path fill="#111" d="M27.72 27.06L18.50 17.09L18.65 17.24Q19.47 20.91 19.47 24.64L19.36 24.54L19.48 24.65Q19.49 30.63 17.43 36.19L17.26 36.02L17.44 36.20Q16.29 36.38 14.04 37.14L14.00 37.10L14.04 37.15Q16.93 31.43 16.93 24.73L16.91 24.71L16.77 24.57Q16.80 15.96 12.31 8.54L12.42 8.65L12.45 8.68Q12.80 8.76 13.48 9.18L13.48 9.17L13.44 9.13Q25.57 20.39 33.41 29.64L33.45 29.67L33.47 29.69Q33.12 27.21 33.12 24.78L33.02 24.68L33.06 24.72Q33.14 17.56 35.65 11.36L35.68 11.38L35.53 11.23Q37.87 10.72 39.47 10.04L39.57 10.14L39.62 10.19Q36.16 16.21 35.86 23.37L35.87 23.37L35.88 23.39Q35.59 30.75 38.56 36.92L38.62 36.97L38.52 36.88Q38.02 36.87 37.60 36.68L37.57 36.65L37.59 36.67Q32.99 32.68 27.77 27.12L27.91 27.25ZM41.25 40.18L41.26 40.18L41.28 40.21Q41.73 40.35 42.15 40.54L42.09 40.49L42.90 40.80L42.89 40.79Q37.84 33.95 37.84 24.59L37.75 24.50L37.81 24.56Q37.77 17.29 41.09 11.04L41.09 11.05L41.03 10.98Q40.42 11.25 39.01 11.86L39.04 11.89L39.02 11.87Q39.36 11.00 40.20 9.43L40.22 9.45L40.23 9.47Q37.82 10.41 35.39 10.98L35.41 11.00L35.30 10.89Q32.67 17.36 32.67 24.78L32.62 24.74L32.73 24.84Q32.74 26.72 32.93 28.70L33.01 28.77L32.90 28.67Q28.35 23.09 23.59 18.49L23.57 18.47L13.51 8.78L13.50 8.77Q12.93 8.47 11.71 7.90L11.59 7.78L11.71 7.89Q16.53 15.58 16.53 24.67L16.43 24.57L16.50 24.64Q16.50 31.76 13.42 37.77L13.42 37.78L13.38 37.73Q13.80 37.74 15.44 37.13L15.41 37.10L15.41 37.10Q15.09 37.89 14.26 39.38L14.31 39.43L14.20 39.32Q15.59 38.85 19.06 38.05L19.00 37.99L19.09 38.08Q21.29 31.83 21.29 24.63L21.32 24.67L21.34 24.68Q21.35 22.60 21.12 20.46L21.11 20.45L21.16 20.51Q32.61 33.29 41.22 40.14Z"/><path fill="#333" d="M57.45 22.14L57.45 22.14L57.43 22.11Q58.29 22.18 59.70 22.02L59.69 22.02L59.72 22.05Q59.66 22.67 59.66 23.32L59.69 23.34L59.66 24.57L59.61 24.52Q58.87 24.62 58.03 24.70L57.89 24.55L58.08 24.74Q57.22 24.76 56.38 24.72L56.23 24.57L56.29 24.63Q53.52 30.89 50.10 35.49L50.04 35.44L50.11 35.51Q47.58 36.14 46.29 36.75L46.19 36.65L46.24 36.70Q50.30 30.93 53.34 24.65L53.36 24.67L50.75 24.69L50.70 24.63Q50.76 23.36 50.64 22.03L50.63 22.01L50.56 21.95Q52.60 22.23 54.66 22.23L54.56 22.14L56.49 18.47L56.45 18.44Q57.42 16.51 58.64 14.91L58.65 14.92L58.77 15.04Q57.16 15.15 55.57 15.15L55.46 15.05L55.56 15.15Q49.39 15.07 45.62 12.86L45.73 12.97L45.04 11.21L44.96 11.13Q44.77 10.45 44.39 9.57L44.26 9.44L44.24 9.42Q48.61 12.08 54.32 12.31L54.28 12.27L54.29 12.28Q59.59 12.67 64.73 10.69L64.56 10.51L64.57 10.53Q64.42 10.99 63.93 11.86L64.04 11.98L64.00 11.93Q60.36 16.67 57.50 22.19ZM65.64 13.35L65.49 13.19L66.58 11.28L66.51 11.21Q65.64 11.79 63.97 12.51L63.87 12.42L64.05 12.09L64.09 12.13Q64.21 11.99 64.32 11.88L64.40 11.95L64.38 11.93Q64.70 11.19 65.43 9.86L65.38 9.81L65.35 9.78Q60.20 12.24 54.45 12.02L54.39 11.96L54.27 11.84Q48.27 11.58 43.51 8.61L43.68 8.79L43.53 8.63Q44.60 10.55 45.44 13.21L45.37 13.13L45.53 13.30Q46.51 13.82 47.31 14.12L47.30 14.12L47.41 14.23Q47.51 14.52 47.97 16.39L47.89 16.31L48.02 16.44Q51.22 17.73 56.74 17.58L56.73 17.57L56.60 17.44Q56.38 18.09 54.40 21.86L54.33 21.80L54.31 21.77Q52.33 21.85 50.35 21.66L50.33 21.64L50.32 21.63Q50.45 22.52 50.45 23.40L50.43 23.38L50.42 25.08L52.06 25.04L52.04 26.43L52.11 26.50Q48.21 33.91 45.43 37.49L45.37 37.42L45.38 37.44Q47.02 36.72 48.66 36.22L48.52 36.08L48.56 36.12Q47.96 37.12 46.59 38.83L46.47 38.72L46.49 38.73Q49.81 37.80 52.25 37.57L52.19 37.51L52.22 37.53Q55.00 33.62 58.12 26.84L58.19 26.91L61.56 27.04L61.67 27.15Q61.50 26.15 61.50 25.24L61.64 25.37L61.66 23.60L61.54 23.48Q61.25 23.46 60.70 23.50L60.69 23.49L60.66 23.46Q60.23 23.62 59.96 23.62L59.84 23.50L59.85 23.51Q59.98 23.52 60.02 23.37L59.88 23.23L59.95 23.03L60.02 23.10Q62.45 17.88 65.53 13.24Z"/><path fill="#333" d="M169.72 34.84L169.79 34.90L169.75 34.86Q167.89 34.90 165.87 35.09L165.76 34.99L165.76 34.98Q166.40 29.72 166.40 24.89L166.52 25.01L166.47 24.96Q166.49 20.07 165.84 14.85L165.87 14.88L165.80 14.81Q161.26 14.46 158.06 12.78L157.99 12.72L157.36 11.05L157.20 10.89Q157.08 10.47 156.47 9.25L156.55 9.32L156.44 9.22Q161.55 11.93 167.56 12.12L167.56 12.11L167.63 12.18Q173.50 12.35 178.95 10.29L178.94 10.29L178.94 10.29Q178.12 11.60 177.48 13.43L177.59 13.54L177.63 13.58Q173.94 14.81 169.68 15.00L169.62 14.93L169.65 14.96Q169.38 19.92 169.38 24.86L169.47 24.96L169.48 24.97Q169.47 29.90 169.78 34.89ZM179.51 9.49L179.62 9.60L179.55 9.53Q173.75 11.83 167.54 11.64L167.57 11.67L167.62 11.72Q160.79 11.36 155.69 8.39L155.74 8.44L155.75 8.45Q156.54 9.78 157.84 13.05L157.80 13.02L157.76 12.97Q158.50 13.37 159.76 13.95L159.68 13.86L159.71 13.90Q160.04 14.69 160.38 16.21L160.40 16.23L160.39 16.21Q162.70 17.08 165.75 17.31L165.65 17.21L165.71 17.27Q166.01 20.89 166.01 24.66L166.00 24.64L165.98 24.62Q166.04 30.05 165.24 35.42L165.34 35.51L165.33 35.50Q166.85 35.24 167.38 35.24L167.51 35.37L167.46 35.32Q167.44 35.59 167.38 36.26L167.33 36.21L167.39 36.27Q167.26 36.87 167.26 37.21L167.27 37.22L167.40 37.35Q168.54 37.23 170.06 37.30L170.07 37.32L170.07 37.32Q170.87 37.24 172.69 37.39L172.72 37.42L172.77 37.47Q171.46 32.47 171.35 27.29L171.45 27.39L171.42 27.36Q171.21 21.97 171.75 17.06L171.77 17.09L171.83 17.15Q175.78 16.60 178.93 15.38L178.95 15.40L178.92 15.37Q179.55 12.92 180.58 10.86L180.71 10.99L180.61 10.89Q179.34 11.64 178.54 11.94L178.55 11.96L178.59 11.99Q179.07 10.76 179.64 9.61Z"/><path fill="#333" d="M102.15 9.33L102.03 9.21L102.20 9.38Q105.83 11.76 110.59 11.99L110.75 12.14L110.70 12.09Q115.27 12.21 119.53 10.46L119.46 10.38L119.64 10.56Q119.39 11.11 118.63 13.89L118.50 13.77L118.63 13.89Q115.75 14.78 112.78 14.93L112.92 15.07L112.80 14.96Q109.81 15.09 106.91 14.36L106.92 14.36L107.09 14.54Q107.72 18.10 107.91 21.76L107.96 21.81L107.85 21.69Q109.96 22.02 111.56 21.98L111.44 21.86L111.43 21.84Q112.72 21.92 115.12 21.80L115.01 21.69L115.10 21.78Q115.08 22.45 115.08 23.14L115.00 23.06L115.01 24.40L115.16 24.55Q112.62 24.41 107.82 24.48L107.84 24.50L107.78 24.44Q107.90 28.67 107.33 32.67L107.37 32.71L107.25 32.59Q109.90 31.97 112.64 32.08L112.65 32.09L112.71 32.15Q115.33 32.14 117.92 32.98L117.93 32.99L117.98 33.04Q117.98 33.76 118.24 34.52L118.38 34.66L118.78 36.13L118.67 36.01Q115.59 34.84 112.16 34.84L112.16 34.83L112.16 34.84Q107.32 34.86 103.05 37.11L102.92 36.98L103.01 37.07Q105.33 30.25 105.06 23.13L105.14 23.21L105.12 23.19Q104.87 16.05 102.21 9.39ZM102.41 37.69L102.56 37.84L102.41 37.69Q103.71 37.01 104.48 36.67L104.43 36.62L104.57 36.76Q104.24 37.38 103.67 38.90L103.71 38.94L103.72 38.95Q108.25 36.98 113.32 37.25L113.32 37.25L113.43 37.36Q118.54 37.60 122.54 40.31L122.50 40.26L122.52 40.29Q121.25 37.64 120.56 35.70L120.72 35.86L120.72 35.86Q119.72 35.24 118.74 34.90L118.60 34.77L118.74 34.91Q118.27 33.44 118.11 32.64L118.24 32.77L118.11 32.64Q115.05 31.68 111.89 31.68L111.95 31.73L111.92 31.70Q110.86 31.79 109.72 31.90L109.66 31.84L109.69 31.87Q109.81 30.62 109.85 29.41L109.79 29.35L109.92 26.89L109.77 26.73Q111.60 26.66 113.39 26.69L113.54 26.85L113.52 26.83Q115.35 26.87 117.14 27.02L117.02 26.90L117.09 26.97Q117.10 26.11 117.10 25.15L117.06 25.11L116.94 23.09L116.20 23.22L116.15 23.17Q115.82 23.34 115.36 23.34L115.36 23.34L115.34 23.32Q115.39 22.69 115.55 21.40L115.56 21.41L115.45 21.30Q113.94 21.62 112.76 21.65L112.61 21.50L112.72 21.61Q111.75 21.60 109.93 21.52L109.88 21.48L109.85 21.45Q109.88 20.14 109.69 17.32L109.58 17.22L109.56 17.20Q110.72 17.45 111.71 17.45L111.61 17.34L111.59 17.32Q116.36 17.38 120.06 15.47L120.04 15.46L120.12 15.54Q120.58 13.06 121.45 10.85L121.46 10.86L121.58 10.98Q120.12 11.69 119.28 12.04L119.41 12.16L119.41 12.16Q119.63 11.31 120.08 9.75L120.05 9.72L120.14 9.81Q115.47 11.91 110.59 11.61L110.60 11.62L110.59 11.60Q105.33 11.33 101.48 8.47L101.55 8.54L101.47 8.46Q104.40 15.47 104.71 23.08L104.62 23.00L104.72 23.09Q105.02 31.01 102.51 37.78Z"/><path fill="#333" d="M146.34 32.81L146.38 32.85L146.39 32.86Q146.78 33.94 147.31 35.95L147.20 35.85L147.23 35.87Q142.95 34.48 138.34 34.75L138.47 34.88L138.43 34.84Q133.96 35.20 129.96 37.18L129.95 37.16L129.79 37.01Q130.16 36.46 130.19 36.54L130.09 36.43L130.17 36.51Q133.84 32.49 137.76 28.08L137.70 28.02L137.78 28.09Q142.18 23.09 143.36 18.41L143.36 18.41L143.42 18.47Q143.89 16.73 142.61 15.55L142.51 15.45L142.59 15.53Q141.32 14.36 139.53 14.51L139.43 14.41L139.46 14.44Q139.15 14.43 138.81 14.43L138.88 14.50L138.81 14.43Q137.20 14.35 135.95 15.26L136.07 15.38L136.03 15.34Q134.83 16.81 135.06 19.47L134.98 19.40L134.97 19.39Q133.12 18.98 131.90 18.53L131.94 18.57L131.93 18.55Q131.83 17.24 131.75 15.79L131.71 15.74L131.62 15.66Q131.60 14.07 132.21 12.93L132.20 12.92L132.15 12.87Q134.05 11.62 137.40 11.62L137.45 11.66L139.20 11.66L139.07 11.53Q141.32 11.53 142.27 11.65L142.38 11.76L142.38 11.76Q146.76 12.22 147.03 14.65L147.04 14.66L146.90 14.53Q147.14 15.26 147.07 16.06L146.97 15.97L147.02 16.02Q146.89 16.57 146.74 17.26L146.80 17.32L146.86 17.38Q145.18 25.45 137.61 32.30L137.64 32.34L137.64 32.33Q139.05 32.19 140.42 32.19L140.36 32.12L140.32 32.08Q143.55 32.08 146.41 32.88ZM145.88 12.10L145.84 12.06L145.89 12.10Q144.25 11.42 142.54 11.35L142.63 11.43L139.08 11.12L139.12 11.16Q134.61 10.84 132.40 11.94L132.42 11.96L132.50 12.04Q131.36 13.34 131.36 15.39L131.32 15.36L131.46 15.49Q131.53 16.25 131.84 19.07L131.69 18.92L131.73 18.96Q132.36 19.29 133.54 19.59L133.38 19.43L133.36 20.44L133.41 20.49Q133.39 20.96 133.46 21.49L133.54 21.57L133.52 21.55Q134.80 21.69 137.28 21.92L137.27 21.91L137.27 21.91Q137.11 21.41 137.11 21.07L137.09 21.05L137.09 21.05Q137.17 19.30 138.39 17.95L138.35 17.91L138.48 18.04Q139.53 16.52 141.32 16.63L141.45 16.76L141.39 16.71Q142.27 16.86 143.03 17.01L142.95 16.94L142.97 16.96Q143.00 17.25 143.08 17.67L143.17 17.77L143.17 17.76Q143.19 18.17 143.12 18.51L143.08 18.47L143.18 18.58Q141.83 23.23 137.41 28.07L137.48 28.14L137.50 28.15Q135.27 30.31 129.83 36.36L129.87 36.40L129.76 36.30Q129.57 37.13 129.23 37.70L129.21 37.69L129.28 37.75Q130.87 36.87 132.39 36.34L132.49 36.43L132.43 36.37Q131.75 36.98 130.79 38.47L130.67 38.34L130.76 38.43Q130.63 38.76 130.52 39.11L130.47 39.06L130.54 39.12Q135.46 37.12 140.95 37.31L140.92 37.29L140.81 37.18Q146.59 37.44 151.16 39.80L151.15 39.79L150.16 37.65L150.17 37.67Q149.46 36.28 149.20 35.48L149.28 35.56L149.30 35.58Q148.40 34.98 147.18 34.56L147.28 34.66L147.24 34.62Q147.02 33.84 146.64 32.46L146.75 32.57L146.83 32.65Q144.54 32.00 142.25 31.81L142.24 31.79L142.31 31.86Q146.95 27.26 148.48 19.00L148.40 18.92L148.57 16.00L148.70 16.13Q148.57 14.29 147.35 13.60L147.33 13.58L147.40 13.69L147.37 13.66Q147.25 13.51 147.17 13.51L147.16 13.49L147.11 13.44Q147.04 12.76 145.94 12.16Z"/></svg>