<svg xmlns="http://www.w3.org/2000/svg" width="200" height="40" viewBox="0,0,200,40"><path fill="#333" d="M77.25 14.24L77.11 14.10L77.22 14.21Q78.26 18.60 78.41 21.80L78.42 21.80L78.45 21.84Q78.92 21.84 83.29 21.96L83.34 22.00L83.32 21.98Q85.95 22.10 86.33 18.64L86.27 18.58L86.20 18.51Q86.51 16.88 85.60 15.97L85.50 15.87L85.58 15.94Q84.28 15.02 82.30 14.87L82.38 14.95L82.22 14.79Q79.04 14.62 77.17 14.16ZM78.66 23.87L78.66 23.88L78.67 23.89Q78.79 29.82 77.00 35.76L77.09 35.86L76.91 35.67Q75.73 36.06 73.14 37.08L73.12 37.06L73.07 37.01Q76.05 30.67 75.71 23.21L75.61 23.11L75.57 23.06Q75.28 15.73 71.96 9.22L71.92 9.18L72.05 9.31Q76.86 12.06 83.83 12.06L83.82 12.06L83.83 12.07Q89.52 12.12 89.79 15.66L89.71 15.58L89.74 15.61Q89.81 16.21 89.73 16.82L89.78 16.88L89.68 17.99L89.62 17.93Q88.85 21.91 86.71 23.63L86.75 23.67L86.63 23.54Q85.93 24.33 84.91 24.33L84.95 24.37L82.28 24.29L82.29 24.30Q87.81 31.47 92.35 36.03L92.40 36.09L92.38 36.07Q90.22 35.36 87.29 35.02L87.19 34.91L87.23 34.95Q83.45 30.98 78.53 23.75ZM87.24 35.46L87.06 35.28L87.49 35.40L88.70 36.61L88.71 36.63Q89.20 37.08 89.85 37.69L90.03 37.86L89.88 37.72Q93.52 38.43 97.10 40.30L97.08 40.27L97.03 40.22Q90.10 33.49 84.70 26.56L84.72 26.59L86.43 26.54L86.56 26.67Q89.53 26.56 90.86 22.03L90.94 22.11L90.93 22.09Q91.54 19.81 91.54 17.11L91.54 17.11L91.52 17.09Q91.53 14.81 89.82 14.17L89.87 14.22L89.95 14.30Q89.81 13.90 89.24 13.21L89.13 13.10L89.09 13.06Q87.54 11.74 83.89 11.66L83.92 11.69L83.82 11.60Q76.00 11.50 71.31 8.49L71.27 8.45L71.22 8.40Q75.07 15.34 75.42 23.03L75.38 22.99L75.27 22.88Q75.71 30.94 72.59 37.79L72.58 37.78L72.63 37.82Q73.91 37.28 74.71 36.97L74.72 36.99L73.56 39.10L73.68 39.23Q76.41 38.18 79.07 37.68L79.14 37.75L79.06 37.67Q80.25 32.47 80.44 27.25L80.53 27.34L80.48 27.29Q84.03 32.29 87.19 35.41ZM85.83 17.38L85.99 17.53L86.00 17.54Q85.91 17.68 85.91 18.03L86.03 18.15L85.89 18.58L85.87 18.56Q86.01 19.80 85.32 20.75L85.19 20.62L85.30 20.72Q84.56 21.36 83.64 21.55L83.78 21.68L83.68 21.58Q83.43 21.60 81.83 21.64L81.99 21.80L81.90 21.71Q81.26 21.67 80.42 21.56L80.42 21.56L80.49 21.63Q80.38 20.11 80.04 17.07L79.98 17.00L80.04 17.07Q81.40 17.21 82.08 17.21L82.22 17.35L82.15 17.28Q84.03 17.33 85.97 17.52Z"/><path fill="#333" d="M103.61 10.89L103.68 10.96L103.60 10.87Q105.43 15.68 106.00 20.85L106.15 21.00L106.14 20.99Q109.79 16.80 115.69 11.96L115.61 11.88L115.73 12.00Q118.94 11.71 121.57 10.91L121.44 10.78L115.02 16.55L114.98 16.51Q111.52 19.41 108.66 22.26L108.57 22.17L108.56 22.15Q116.56 31.33 121.62 36.05L121.65 36.08L121.74 36.17Q118.59 35.19 116.26 35.04L116.19 34.96L116.19 34.96Q110.51 29.66 106.21 23.84L106.27 23.90L106.15 23.78Q106.22 30.36 104.36 35.69L104.38 35.71L104.44 35.78Q104.22 35.82 103.72 36.01L103.70 35.98L103.72 36.20L103.71 36.19Q103.43 36.14 100.88 37.05L100.97 37.15L100.90 37.07Q103.93 30.58 103.59 23.12L103.53 23.07L103.49 23.02Q103.25 15.78 99.71 9.27L99.72 9.28L100.27 9.56L100.59 9.77L100.61 9.75L100.62 9.76Q101.37 10.17 103.58 10.85ZM103.83 10.53L103.78 10.48L103.93 10.64Q101.47 9.89 98.84 8.37L98.97 8.49L98.90 8.42Q103.21 15.74 103.21 24.69L103.23 24.70L103.27 24.74Q103.25 31.73 100.28 37.78L100.23 37.73L102.28 36.89L102.30 36.91Q101.82 37.84 101.13 39.13L101.31 39.31L101.22 39.22Q103.57 38.52 105.51 38.10L105.47 38.06L105.46 37.83L105.40 37.76Q105.68 37.74 106.25 37.59L106.31 37.64L106.35 37.69Q108.00 31.76 108.11 26.96L108.05 26.90L108.07 26.92Q110.15 29.42 111.97 31.28L111.95 31.25L112.03 31.34Q113.10 32.33 116.11 35.30L116.18 35.37L116.19 35.38L116.28 35.47Q117.15 36.15 119.02 37.75L119.05 37.78L118.98 37.72Q122.97 38.54 126.43 40.25L126.46 40.29L126.39 40.22Q117.19 31.74 110.95 24.32L110.98 24.35L110.97 24.34Q115.23 19.92 123.99 11.31L124.07 11.40L124.04 11.37Q121.50 12.52 119.48 12.90L119.47 12.89L119.59 13.01Q120.71 11.92 123.04 9.91L123.06 9.93L122.96 9.83Q118.84 11.23 115.49 11.42L115.67 11.60L115.63 11.57Q112.67 13.74 107.80 18.43L107.80 18.43L107.79 18.42Q107.41 15.83 106.84 13.28L106.83 13.27L106.82 13.26Q105.57 13.04 104.58 12.70L104.69 12.80L104.74 12.85Q104.49 12.07 103.92 10.62Z"/><path fill="#444" d="M48.87 14.15L48.82 14.09L48.85 14.12Q50.09 18.72 50.24 21.91L50.15 21.82L50.18 21.85Q50.67 21.88 55.05 22.00L55.10 22.05L55.17 22.12Q57.58 22.01 57.96 18.55L58.09 18.68L58.06 18.65Q58.10 16.75 57.19 15.84L57.33 15.98L57.36 16.01Q55.90 14.93 53.92 14.78L54.05 14.90L54.02 14.88Q50.75 14.62 48.89 14.16ZM50.37 23.86L50.36 23.86L50.36 23.85Q50.52 29.84 48.73 35.78L48.78 35.83L48.68 35.73Q47.46 36.07 44.87 37.10L44.78 37.01L44.84 37.07Q47.60 30.50 47.26 23.04L47.39 23.17L47.34 23.12Q47.04 15.78 43.73 9.27L43.67 9.22L43.76 9.30Q48.61 12.10 55.58 12.10L55.63 12.15L55.51 12.02Q61.12 12.00 61.38 15.54L61.37 15.53L61.45 15.61Q61.48 16.17 61.40 16.78L61.40 16.78L61.37 17.97L61.32 17.92Q60.65 22.00 58.51 23.71L58.46 23.66L58.34 23.53Q57.59 24.27 56.56 24.27L56.58 24.29L54.03 24.33L53.91 24.21Q59.61 31.55 64.14 36.12L64.18 36.16L64.18 36.16Q61.96 35.38 59.02 35.03L58.90 34.91L59.01 35.02Q55.21 31.03 50.30 23.80ZM58.84 35.34L58.83 35.34L59.22 35.42L60.40 36.60L60.46 36.66Q60.98 37.14 61.63 37.75L61.69 37.82L61.58 37.71Q65.16 38.36 68.74 40.22L68.68 40.16L68.77 40.25Q61.81 33.48 56.40 26.55L56.38 26.53L58.20 26.60L58.17 26.56Q61.29 26.60 62.62 22.07L62.59 22.04L62.61 22.06Q63.23 19.79 63.23 17.09L63.29 17.15L63.28 17.14Q63.29 14.86 61.58 14.22L61.67 14.31L61.53 14.17Q61.40 13.77 60.83 13.09L60.81 13.06L60.82 13.07Q59.26 11.74 55.60 11.66L55.57 11.63L55.50 11.56Q47.66 11.45 42.98 8.45L42.94 8.41L43.03 8.49Q46.78 15.33 47.12 23.02L47.14 23.03L47.16 23.06Q47.32 30.83 44.20 37.68L44.26 37.74L44.34 37.82Q45.49 37.14 46.29 36.84L46.28 36.83L45.39 39.22L45.29 39.12Q48.11 38.17 50.78 37.68L50.84 37.73L50.75 37.65Q51.98 32.48 52.17 27.26L52.30 27.40L52.27 27.37Q55.79 32.34 58.95 35.46ZM57.62 17.45L57.60 17.44L57.65 17.48Q57.58 17.64 57.58 17.98L57.69 18.10L57.58 18.55L57.71 18.68Q57.62 19.70 56.93 20.65L56.97 20.68L56.99 20.70Q56.38 21.47 55.47 21.66L55.52 21.71L55.46 21.65Q55.28 21.73 53.68 21.77L53.69 21.78L53.61 21.70Q53.02 21.72 52.18 21.61L52.21 21.63L52.13 21.56Q52.04 20.06 51.70 17.01L51.75 17.06L51.69 17.00Q53.07 17.17 53.76 17.17L53.89 17.30L53.79 17.20Q55.77 17.35 57.71 17.54Z"/><path fill="#444" d="M27.72 27.07L18.52 17.11L18.58 17.16Q19.42 20.86 19.42 24.59L19.36 24.53L19.36 24.53Q19.49 30.64 17.43 36.19L17.30 36.07L17.42 36.19Q16.26 36.36 14.02 37.12L14.10 37.20L14.06 37.16Q16.76 31.25 16.76 24.55L16.94 24.74L16.75 24.55Q16.78 15.93 12.28 8.51L12.35 8.57L12.26 8.48Q12.73 8.69 13.41 9.11L13.47 9.17L13.40 9.09Q25.62 20.43 33.46 29.68L33.37 29.59L33.44 29.66Q33.02 27.11 33.02 24.67L33.07 24.72L33.12 24.78Q33.18 17.60 35.69 11.40L35.54 11.24L35.53 11.23Q37.97 10.82 39.57 10.14L39.57 10.14L39.47 10.04Q36.17 16.21 35.86 23.37L35.93 23.44L35.99 23.50Q35.60 30.76 38.57 36.93L38.64 36.99L38.60 36.96Q38.04 36.89 37.62 36.70L37.54 36.62L37.65 36.73Q33.12 32.81 27.91 27.25L27.83 27.18ZM41.17 40.09L41.20 40.13L41.20 40.12Q41.72 40.34 42.14 40.53L42.03 40.43L42.98 40.88L42.87 40.77Q37.83 33.94 37.83 24.57L37.70 24.44L37.78 24.52Q37.76 17.27 41.07 11.03L41.15 11.11L41.13 11.09Q40.41 11.25 39.00 11.85L39.05 11.91L39.04 11.89Q39.44 11.07 40.28 9.51L40.16 9.39L40.23 9.46Q37.87 10.45 35.43 11.02L35.36 10.95L35.43 11.02Q32.67 17.36 32.67 24.78L32.77 24.89L32.73 24.85Q32.77 26.75 32.96 28.73L33.01 28.78L32.93 28.70Q28.35 23.09 23.59 18.48L23.42 18.31L13.52 8.79L13.48 8.75Q12.91 8.45 11.69 7.88L11.62 7.81L11.69 7.87Q16.45 15.49 16.45 24.59L16.47 24.61L16.51 24.65Q16.56 31.82 13.48 37.84L13.46 37.82L13.37 37.72Q13.79 37.73 15.42 37.12L15.37 37.07L15.32 37.01Q15.05 37.85 14.21 39.33L14.14 39.26L14.20 39.32Q15.58 38.83 19.04 38.03L19.01 38.00L19.03 38.02Q21.37 31.91 21.37 24.71L21.26 24.61L21.35 24.69Q21.43 22.68 21.20 20.55L21.20 20.54L21.04 20.39Q32.67 33.35 41.27 40.20Z"/><path fill="#333" d="M158.75 9.36L158.67 9.28L158.73 9.34Q162.48 11.84 167.24 12.06L167.33 12.15L167.21 12.03Q171.86 12.22 176.12 10.47L176.04 10.40L176.18 10.53Q175.81 10.96 175.05 13.74L175.11 13.80L175.19 13.88Q172.49 14.96 169.52 15.11L169.47 15.05L169.34 14.92Q166.36 15.07 163.47 14.34L163.61 14.48L163.56 14.44Q164.24 18.05 164.43 21.71L164.34 21.61L164.38 21.65Q166.42 21.91 168.02 21.87L168.05 21.90L168.10 21.95Q169.32 21.95 171.72 21.84L171.62 21.73L171.71 21.83Q171.72 22.52 171.72 23.21L171.66 23.15L171.58 24.40L171.69 24.50Q169.28 24.50 164.48 24.57L164.43 24.52L164.41 24.50Q164.50 28.70 163.93 32.70L163.95 32.72L163.88 32.64Q166.50 32.00 169.24 32.11L169.19 32.06L169.25 32.11Q171.91 32.15 174.50 32.99L174.51 33.00L174.57 33.06Q174.68 33.89 174.95 34.65L174.82 34.53L175.42 36.20L175.30 36.07Q172.11 34.79 168.69 34.79L168.72 34.82L168.64 34.75Q163.85 34.83 159.59 37.08L159.50 36.98L159.50 36.99Q161.81 30.16 161.54 23.04L161.53 23.03L161.58 23.08Q161.32 15.93 158.66 9.27ZM159.00 37.71L158.98 37.69L158.98 37.68Q160.41 37.13 161.17 36.79L161.07 36.69L160.99 36.61Q160.93 37.50 160.36 39.02L160.24 38.91L160.27 38.94Q164.82 36.98 169.88 37.24L169.91 37.27L169.84 37.20Q175.10 37.58 179.09 40.29L179.02 40.21L179.14 40.33Q177.99 37.81 177.30 35.87L177.16 35.72L177.16 35.73Q176.20 35.15 175.21 34.80L175.17 34.76L175.35 34.94Q174.77 33.38 174.62 32.58L174.77 32.72L174.72 32.68Q171.54 31.59 168.38 31.59L168.41 31.62L168.54 31.75Q167.29 31.64 166.15 31.76L166.20 31.81L166.11 31.72Q166.24 30.48 166.28 29.26L166.26 29.24L166.34 26.73L166.39 26.78Q168.32 26.81 170.11 26.85L169.95 26.69L169.99 26.73Q171.91 26.86 173.70 27.01L173.57 26.88L173.70 27.01Q173.65 26.08 173.65 25.13L173.54 25.02L173.53 23.12L172.71 23.16L172.86 23.32Q172.46 23.41 172.00 23.41L171.98 23.39L171.98 23.38Q171.88 22.60 172.03 21.30L172.07 21.35L172.07 21.34Q170.54 21.65 169.36 21.69L169.34 21.66L169.32 21.65Q168.26 21.53 166.43 21.46L166.40 21.42L166.55 21.58Q166.46 20.15 166.27 17.33L166.16 17.23L166.24 17.30Q167.22 17.38 168.21 17.38L168.26 17.42L168.31 17.48Q173.01 17.45 176.70 15.55L176.61 15.46L176.61 15.46Q177.15 13.06 178.02 10.85L178.08 10.92L178.19 11.02Q176.72 11.72 175.88 12.06L175.98 12.16L176.03 12.21Q176.15 11.27 176.61 9.71L176.75 9.85L176.69 9.79Q172.00 11.87 167.13 11.57L167.24 11.69L167.21 11.65Q161.93 11.36 158.09 8.51L158.04 8.46L157.97 8.39Q160.84 15.33 161.15 22.95L161.32 23.12L161.20 23.01Q161.55 30.96 159.03 37.74Z"/><path fill="#222" d="M136.48 21.87L136.52 21.91L136.44 21.82Q138.22 21.96 140.04 21.96L140.02 21.94L140.15 22.07Q141.85 21.98 143.68 21.83L143.64 21.80L143.66 21.81Q143.62 22.54 143.62 23.26L143.51 23.15L143.63 24.60L143.65 24.62Q141.24 24.57 136.48 24.68L136.42 24.62L136.40 24.61Q136.50 30.64 135.35 35.62L135.34 35.62L135.30 35.57Q133.15 36.32 131.67 37.12L131.63 37.08L131.64 37.08Q134.00 30.31 133.73 23.19L133.56 23.02L133.63 23.09Q133.45 16.02 130.78 9.35L130.74 9.32L130.73 9.30Q134.49 11.92 139.25 12.15L139.27 12.17L139.24 12.14Q143.75 12.15 147.90 10.40L148.05 10.55L147.98 10.49Q147.70 11.31 147.47 12.11L147.47 12.10L146.95 13.69L147.00 13.73Q144.26 14.80 141.29 14.95L141.37 15.04L141.41 15.07Q138.43 15.17 135.57 14.45L135.50 14.37L135.48 14.35Q136.25 17.83 136.44 21.83ZM148.66 9.83L148.53 9.70L148.67 9.84Q144.08 11.99 139.21 11.69L139.21 11.69L139.08 11.56Q133.81 11.32 130.08 8.46L130.06 8.45L130.04 8.42Q133.00 15.46 133.31 23.07L133.36 23.12L133.26 23.02Q133.67 31.05 131.16 37.83L131.03 37.69L131.17 37.84Q131.84 37.44 133.21 36.79L133.15 36.73L133.13 36.71Q132.99 37.53 132.42 39.05L132.42 39.04L132.35 38.98Q134.67 37.91 137.57 37.42L137.65 37.50L137.52 37.37Q138.22 32.59 138.41 26.88L138.42 26.88L138.43 26.90Q140.21 26.85 142.03 26.85L142.04 26.85L141.95 26.76Q143.72 26.75 145.55 26.94L145.66 27.04L145.55 26.94Q145.57 26.12 145.57 25.21L145.51 25.15L145.59 23.32L145.47 23.20Q144.80 23.41 143.96 23.41L143.81 23.26L144.00 23.45Q143.96 22.54 144.04 21.51L144.02 21.48L144.03 21.50Q142.64 21.67 141.23 21.67L141.10 21.54L141.25 21.69Q139.89 21.73 138.52 21.70L138.34 21.52L138.37 19.41L138.27 19.31Q138.21 18.19 138.10 17.12L138.17 17.20L138.22 17.24Q139.17 17.28 140.16 17.28L140.20 17.33L140.26 17.38Q144.86 17.23 148.48 15.32L148.54 15.39L148.48 15.32Q149.13 13.65 150.04 11.02L149.98 10.96L149.97 10.95Q148.63 11.74 147.83 12.09L147.78 12.04L147.77 12.03Q148.16 11.39 148.65 9.83Z"/><path d="M13 4 C99 15,106 12,190 19" stroke="#555" fill="none"/><path d="M15 18 C115 9,90 20,188 29" stroke="#888" fill="none"/></svg>