<svg xmlns="http://www.w3.org/2000/svg" width="200" height="40" viewBox="0,0,200,40"><path fill="#111" d="M53.29 35.13L53.38 35.21L53.41 35.24Q50.01 35.42 48.37 34.89L48.25 34.77L48.34 34.85Q46.23 34.08 45.93 30.69L45.96 30.73L47.43 29.68L47.52 29.77Q48.10 29.09 48.86 28.60L48.88 28.62L48.93 28.67Q48.77 30.68 50.36 31.89L50.25 31.78L50.25 31.78Q51.60 32.86 53.73 32.67L53.61 32.55L53.72 32.66Q58.11 32.25 57.92 28.71L57.95 28.75L57.90 28.69Q57.78 26.48 55.15 25.26L55.08 25.19L55.07 25.18Q52.27 24.17 49.91 22.95L49.85 22.89L49.86 22.90Q47.41 21.67 46.42 16.99L46.34 16.91L46.30 16.87Q46.17 16.39 46.06 15.63L46.05 15.62L46.03 15.61Q45.96 14.85 46.03 14.28L46.19 14.43L46.04 14.28Q46.23 12.72 47.48 12.26L47.53 12.31L47.45 12.23Q49.85 11.35 53.84 11.54L53.88 11.58L53.95 11.65Q55.77 11.76 56.57 11.84L56.57 11.83L56.46 11.72Q57.97 11.94 59.04 12.40L59.12 12.48L59.07 12.43Q61.12 12.84 61.35 15.32L61.40 15.37L61.41 15.38Q60.32 16.04 58.11 17.37L58.26 17.52L58.10 17.36Q57.79 14.46 53.42 14.46L53.33 14.38L53.33 14.38Q51.46 14.42 50.47 15.10L50.50 15.13L50.53 15.15Q49.28 15.58 49.51 17.37L49.52 17.38L49.57 17.43Q49.85 19.66 52.82 21.18L52.83 21.19L52.76 21.12Q53.32 21.38 57.82 23.02L57.90 23.10L57.87 23.06Q60.34 24.39 60.75 28.77L60.93 28.94L60.86 28.88Q60.79 28.96 60.87 30.22L60.99 30.34L60.99 30.34Q61.05 33.10 59.49 34.20L59.37 34.09L59.36 34.08Q57.65 35.18 53.46 35.30ZM55.63 37.54L55.79 37.71L55.68 37.60Q57.13 37.67 59.11 37.67L59.16 37.72L59.24 37.80Q61.14 37.61 62.40 37.19L62.51 37.30L62.46 37.25Q63.70 36.44 63.63 34.65L63.60 34.63L63.73 34.76Q63.58 33.65 63.19 31.59L63.19 31.58L63.25 31.64Q62.30 26.93 60.21 25.06L60.12 24.97L60.26 25.12Q59.40 23.46 58.07 22.73L58.20 22.86L52.85 20.75L52.75 20.66Q52.39 20.44 51.93 20.21L52.03 20.31L51.87 19.88L51.81 19.48L51.96 19.64Q51.67 18.09 52.81 17.48L52.81 17.47L52.88 17.55Q53.63 16.96 55.34 16.77L55.43 16.86L55.34 16.77Q56.39 16.56 57.53 17.02L57.58 17.07L57.72 17.21Q57.72 17.25 57.91 18.09L57.94 18.12L57.92 18.09Q58.00 17.83 58.50 17.60L58.50 17.61L58.67 17.77Q59.36 18.66 59.47 19.80L59.39 19.72L59.33 19.66Q59.47 19.68 63.13 17.09L63.08 17.04L63.17 17.14Q62.80 14.40 61.35 13.72L61.51 13.88L61.41 13.78Q60.95 12.63 59.50 12.10L59.43 12.03L59.42 12.02Q57.03 11.12 53.84 11.12L53.84 11.12L53.91 11.19Q48.93 11.13 47.07 11.81L47.16 11.90L47.24 11.98Q45.91 12.44 45.79 14.11L45.66 13.99L45.73 14.05Q45.71 14.60 46.13 16.81L46.13 16.81L46.01 16.69Q46.69 20.46 48.86 22.70L48.91 22.75L48.90 22.74Q49.72 24.47 51.22 25.15L51.30 25.23L51.33 25.26Q52.81 25.93 56.73 27.49L56.66 27.42L56.61 27.40L57.22 27.71L57.26 27.79L57.26 27.79Q57.48 28.28 57.52 28.62L57.49 28.59L57.45 28.55Q57.67 32.16 53.75 32.31L53.79 32.35L53.75 32.31Q52.56 32.30 51.27 31.92L51.28 31.93L51.30 31.96Q50.97 31.13 50.97 30.40L51.01 30.44L50.88 30.32Q50.99 30.16 51.03 29.90L50.87 29.73L50.91 29.78Q50.60 30.11 49.80 30.61L49.82 30.63L49.76 30.57Q49.18 29.37 49.33 28.00L49.44 28.12L49.45 28.12Q47.30 29.25 45.70 30.66L45.68 30.64L45.78 30.74Q45.79 31.51 45.87 32.54L45.76 32.43L45.84 32.51Q46.23 34.31 47.53 35.07L47.44 34.98L47.36 34.91Q48.68 36.83 51.23 37.21L51.27 37.26L51.31 37.29Q52.82 37.48 55.75 37.67Z"/><path fill="#222" d="M169.08 15.18L169.11 15.20L169.11 15.20Q164.74 15.14 161.05 14.15L160.91 14.01L161.05 14.15Q162.45 18.59 162.64 23.43L162.74 23.54L162.80 23.59Q162.81 28.21 161.60 32.82L161.65 32.88L161.61 32.84Q164.52 32.32 168.03 32.17L167.91 32.05L167.98 32.13Q171.90 31.94 173.69 29.50L173.69 29.49L173.75 29.55Q175.32 27.55 175.51 23.44L175.42 23.34L175.47 23.40Q175.59 21.69 175.13 19.97L175.01 19.85L175.05 19.89Q173.68 15.06 168.96 15.06ZM157.07 37.08L157.12 37.14L157.12 37.14Q160.01 31.46 160.01 24.76L160.02 24.77L160.02 24.77Q160.02 16.24 155.72 9.24L155.76 9.28L155.74 9.26Q161.01 11.94 169.27 12.13L169.18 12.04L169.21 12.07Q178.13 12.31 178.47 19.46L178.53 19.53L178.34 19.33Q178.50 22.09 178.46 23.53L178.60 23.67L178.53 23.60Q178.40 28.23 177.56 30.40L177.55 30.38L177.54 30.38Q177.20 31.56 176.44 32.39L176.43 32.39L176.40 32.35Q175.08 33.94 172.46 34.43L172.49 34.47L172.36 34.33Q170.84 34.68 167.83 34.90L167.81 34.88L167.82 34.89Q161.74 35.40 157.13 37.15ZM174.99 36.96L174.96 36.93L175.02 37.00Q177.88 36.77 179.52 35.29L179.47 35.23L179.35 35.12Q180.70 33.50 180.66 30.76L180.54 30.64L180.56 30.66Q180.51 29.23 180.36 25.73L180.48 25.85L180.14 21.33L180.06 21.25Q179.83 18.93 178.88 16.83L178.84 16.79L178.88 16.83Q178.45 15.98 177.76 15.33L177.79 15.36L177.63 15.05L177.78 15.20Q176.08 12.25 171.67 11.87L171.69 11.88L171.54 11.74Q168.82 11.57 161.82 10.85L161.88 10.91L161.83 10.86Q158.72 10.57 155.03 8.55L154.85 8.37L154.96 8.48Q159.68 15.75 159.68 24.51L159.74 24.57L159.69 24.51Q159.86 31.69 156.51 37.86L156.41 37.76L156.37 37.72Q157.05 37.45 158.39 36.96L158.52 37.09L158.36 36.93Q158.16 37.92 157.29 39.40L157.20 39.31L157.31 39.43Q160.34 38.34 163.69 37.84L163.62 37.78L163.66 37.82Q165.63 37.39 169.28 37.27L169.43 37.42L169.35 37.33Q173.27 37.26 175.10 37.07ZM175.02 23.33L175.15 23.45L175.04 23.34Q174.73 31.41 168.03 31.79L168.07 31.84L167.91 31.67Q165.99 31.81 163.94 32.08L164.05 32.19L163.93 32.07Q164.80 28.37 164.80 24.72L164.71 24.63L164.81 24.73Q164.71 20.94 163.99 17.09L164.03 17.13L164.02 17.13Q166.17 17.37 170.86 17.37L170.87 17.38L170.84 17.36Q172.28 17.27 173.92 18.22L173.90 18.21L173.84 18.15Q175.29 20.59 175.14 23.45Z"/><path d="M1 24 C114 35,89 16,197 25" stroke="#777" fill="none"/><path fill="#333" d="M81.92 14.55L82.03 14.66L80.43 14.73L80.46 14.77Q78.14 14.81 77.92 16.83L77.98 16.89L77.88 16.79Q77.84 17.55 77.88 18.54L77.92 18.58L77.90 18.56Q78.01 20.58 79.27 21.91L79.27 21.91L79.15 21.79Q80.45 23.17 82.36 23.02L82.35 23.01L82.40 23.06Q84.39 22.85 85.15 21.93L85.18 21.96L85.18 21.96Q86.21 21.01 86.47 18.76L86.52 18.81L86.54 18.83Q86.72 16.49 85.46 15.66L85.57 15.76L85.52 15.71Q84.67 14.94 82.01 14.64ZM88.09 23.92L88.10 23.93L86.72 26.13L86.74 26.15Q84.14 31.04 80.37 35.12L80.34 35.08L80.31 35.06Q78.66 35.19 75.95 35.99L75.93 35.97L76.05 36.09Q81.19 29.62 84.35 24.82L84.48 24.95L84.43 24.91Q83.41 25.56 81.77 25.63L81.72 25.58L81.81 25.68Q78.76 25.78 77.24 23.80L77.32 23.88L77.19 23.75Q75.99 22.17 74.88 17.60L74.86 17.58L74.86 17.58Q74.99 17.26 74.84 16.32L74.83 16.31L74.68 16.16Q74.71 15.41 74.71 14.95L74.69 14.93L74.59 14.84Q74.65 13.10 75.72 12.50L75.72 12.50L75.77 12.55Q76.93 11.74 78.80 11.74L78.75 11.68L78.71 11.64Q82.04 11.77 82.04 11.77L81.87 11.61L81.98 11.72Q84.12 11.72 85.37 11.91L85.31 11.85L85.39 11.93Q87.46 12.14 88.38 12.63L88.45 12.70L88.49 12.74Q89.87 13.52 90.06 15.27L89.98 15.19L90.02 15.23Q90.00 15.43 89.80 18.10L89.74 18.03L89.82 18.11Q89.47 20.27 89.24 21.11L89.23 21.10L89.11 20.98Q88.76 22.42 88.00 23.83ZM89.93 26.26L89.98 26.30L90.04 26.37Q91.01 24.14 91.55 19.84L91.50 19.79L91.57 19.86Q91.70 17.52 91.67 16.65L91.79 16.77L91.71 16.69Q91.60 14.75 90.42 13.84L90.41 13.82L90.25 13.86L90.27 13.88Q90.01 13.13 89.10 12.48L88.98 12.36L88.97 12.35Q86.73 11.40 81.93 11.25L81.84 11.16L81.95 11.26Q81.03 11.30 78.60 11.30L78.56 11.27L78.60 11.30Q76.83 11.29 75.35 11.98L75.29 11.92L75.22 11.85Q74.20 12.77 74.28 14.60L74.26 14.58L74.15 14.47Q74.37 15.41 74.56 17.43L74.54 17.41L74.61 17.48Q75.28 20.17 75.54 21.00L75.40 20.86L75.43 20.89Q76.09 22.84 77.04 24.14L76.99 24.09L77.09 24.18Q77.37 24.54 77.75 24.93L77.66 24.83L77.64 24.81Q77.88 25.25 78.53 26.16L78.48 26.11L78.58 26.21Q80.04 27.56 81.98 27.75L81.99 27.76L81.99 27.75Q80.05 30.38 78.48 32.28L78.52 32.32L74.90 36.69L74.99 36.78Q77.15 35.93 78.78 35.59L78.80 35.60L78.75 35.55Q78.04 36.48 76.48 38.19L76.47 38.18L76.52 38.23Q79.62 37.34 82.74 37.30L82.62 37.18L82.61 37.17Q84.99 34.64 89.33 27.41L89.44 27.52L89.35 27.50L89.28 27.43Q89.57 26.73 89.91 26.23ZM83.92 17.00L83.92 17.01L83.94 17.03Q84.53 16.89 84.99 17.01L84.93 16.95L85.05 17.07Q85.61 17.10 86.00 17.22L85.99 17.21L86.02 17.24Q86.19 17.68 86.27 18.10L86.16 17.99L86.29 18.12Q86.24 18.41 86.12 18.79L86.15 18.82L86.13 18.80Q86.20 20.62 85.02 21.72L85.07 21.77L84.88 21.58Q83.99 22.67 82.35 22.63L82.30 22.59L82.29 22.57Q82.00 22.70 80.48 22.40L80.50 22.41L80.48 22.40Q80.22 21.50 80.22 20.77L80.22 20.76L80.14 20.69Q80.05 20.41 80.05 20.18L80.20 20.33L80.06 20.19Q80.12 18.04 82.40 17.24L82.38 17.22L82.42 17.26Q83.15 17.07 83.98 17.07Z"/><path d="M16 6 C85 29,101 35,194 37" stroke="#111" fill="none"/><path fill="#111" d="M138.65 14.60L138.64 14.58L138.78 14.73Q136.72 14.76 135.77 14.91L135.74 14.88L135.84 14.98Q134.11 15.12 132.89 15.65L132.99 15.75L132.96 15.72Q129.40 17.11 129.29 21.79L129.37 21.87L129.24 21.74Q129.34 24.59 129.99 27.52L129.95 27.48L129.87 27.40Q130.86 31.55 134.47 32.73L134.33 32.59L134.47 32.72Q136.28 33.21 137.73 33.05L137.75 33.07L138.15 33.01L138.25 33.11Q138.35 33.03 138.54 33.06L138.58 33.10L138.47 32.99Q138.78 33.15 138.93 33.11L138.76 32.94L138.84 33.02Q141.54 32.83 142.91 32.25L142.89 32.23L139.27 28.66L139.16 28.54Q139.53 28.26 140.14 27.65L140.22 27.73L141.05 26.74L141.16 26.85Q143.04 28.96 145.02 31.02L144.87 30.86L144.96 30.95Q147.18 29.03 147.45 23.66L147.60 23.81L147.53 23.75Q147.60 22.82 147.60 21.91L147.52 21.83L147.62 21.93Q147.51 16.14 142.45 15.04L142.57 15.16L142.52 15.11Q141.29 14.87 138.78 14.72ZM151.48 36.72L151.51 36.75L151.50 36.73Q150.96 37.23 149.78 38.10L149.74 38.06L145.29 34.33L145.37 34.41Q142.78 35.52 138.52 35.56L138.49 35.53L138.61 35.64Q132.12 35.82 129.30 33.57L129.13 33.40L129.26 33.53Q127.42 31.69 126.97 28.72L127.02 28.78L126.88 28.63Q126.73 26.89 126.35 23.31L126.43 23.39L126.32 23.28Q126.32 22.56 126.21 20.81L126.18 20.78L126.24 20.84Q126.13 19.32 126.17 18.44L126.08 18.36L126.11 18.39Q126.38 15.49 128.13 13.93L128.04 13.84L127.94 13.74Q129.49 12.44 132.69 11.95L132.71 11.97L132.81 12.07Q135.20 11.60 138.09 11.68L138.04 11.63L138.04 11.62Q145.56 11.75 148.68 14.11L148.73 14.17L148.77 14.21Q150.93 16.33 150.67 21.24L150.73 21.31L150.56 21.13Q150.38 24.80 150.19 26.14L150.20 26.15L150.34 26.28Q149.64 30.72 147.31 33.04L147.28 33.01L147.19 32.92Q148.81 34.31 151.55 36.78ZM146.74 12.56L146.65 12.46L146.74 12.56Q144.61 11.73 138.11 11.23L138.21 11.34L138.17 11.29Q136.77 11.30 133.99 11.42L134.03 11.46L134.00 11.43Q129.84 11.72 127.59 13.70L127.55 13.66L127.51 13.62Q125.81 15.05 125.81 18.21L125.79 18.18L125.88 18.28Q125.86 19.09 126.01 20.80L125.93 20.72L126.02 20.81Q126.13 22.48 126.13 23.36L126.04 23.27L126.15 23.37Q126.37 25.19 126.75 28.77L126.72 28.75L126.61 28.63Q127.10 31.63 128.70 33.69L128.67 33.66L128.65 33.64Q128.91 34.40 130.13 35.54L130.06 35.47L130.07 35.48Q132.96 37.64 138.13 37.91L138.05 37.83L137.98 37.76Q138.47 37.91 140.87 38.02L140.86 38.01L140.80 37.94Q145.60 38.11 147.89 37.04L147.99 37.15L147.82 36.98Q148.84 37.81 153.57 41.39L153.56 41.38L153.53 41.36Q154.05 40.73 155.34 39.74L155.38 39.78L155.45 39.85Q154.52 39.11 153.72 38.42L153.65 38.36L152.07 36.96L152.19 36.93L152.13 36.87Q151.65 36.50 150.43 35.47L150.34 35.39L150.32 35.37Q152.33 32.96 152.33 28.43L152.33 28.42L152.34 28.44Q152.18 27.86 152.22 27.02L152.36 27.16L152.36 27.16Q152.25 26.18 152.25 25.76L152.27 25.78L152.30 25.81Q152.34 20.33 151.62 17.97L151.65 18.01L151.59 17.94Q151.21 16.65 150.33 15.58L150.39 15.63L150.44 15.69Q149.65 13.56 146.72 12.53ZM140.54 16.94L140.62 17.02L140.67 17.07Q144.73 16.98 146.56 18.58L146.58 18.60L146.60 18.62Q147.15 19.82 147.27 21.16L147.15 21.04L147.18 21.07Q147.34 22.41 147.27 23.78L147.24 23.76L147.26 23.77Q146.93 28.74 144.99 30.45L144.96 30.42L144.96 30.43Q143.57 29.03 141.06 26.29L141.12 26.35L141.10 26.33Q140.31 27.07 138.75 28.63L138.81 28.69L138.75 28.63Q139.43 29.34 140.57 30.52L140.39 30.34L140.34 30.41L140.47 30.53Q140.98 31.01 142.00 32.07L141.91 31.98L142.02 32.09Q141.01 32.33 138.68 32.64L138.64 32.59L138.11 32.59L137.82 32.72L137.71 32.65L137.80 32.74Q134.26 32.67 132.28 31.03L132.28 31.02L132.35 31.10Q131.36 29.04 131.40 25.92L131.40 25.92L131.30 25.82Q131.47 17.13 140.65 17.05Z"/><path fill="#222" d="M103.57 10.84L103.56 10.84L103.49 10.77Q105.56 15.81 106.13 20.98L106.00 20.85L105.97 20.82Q109.81 16.82 115.72 11.99L115.57 11.85L115.71 11.99Q118.85 11.62 121.48 10.82L121.51 10.85L114.87 16.40L114.86 16.39Q111.45 19.33 108.59 22.19L108.72 22.32L108.68 22.28Q116.68 31.46 121.74 36.18L121.65 36.08L121.68 36.11Q118.59 35.19 116.27 35.04L116.27 35.05L116.22 35.00Q110.41 29.57 106.11 23.74L106.19 23.82L106.15 23.78Q106.38 30.52 104.51 35.85L104.41 35.74L104.46 35.79Q104.24 35.85 103.75 36.04L103.71 36.00L103.56 36.04L103.67 36.14Q103.52 36.22 100.97 37.14L100.93 37.10L100.97 37.14Q103.79 30.45 103.45 22.99L103.61 23.14L103.54 23.08Q103.29 15.82 99.75 9.31L99.61 9.17L100.24 9.54L100.61 9.79L100.72 9.86L100.76 9.90Q101.33 10.13 103.54 10.82ZM103.85 10.56L103.91 10.62L103.84 10.54Q101.63 10.04 99.00 8.52L99.02 8.54L98.85 8.37Q103.29 15.82 103.29 24.77L103.31 24.78L103.33 24.81Q103.15 31.63 100.18 37.68L100.26 37.77L102.38 36.99L102.36 36.97Q101.95 37.96 101.26 39.26L101.23 39.23L101.25 39.25Q103.51 38.46 105.45 38.05L105.45 38.04L105.46 37.82L105.45 37.82Q105.74 37.79 106.31 37.64L106.35 37.69L106.26 37.60Q108.01 31.77 108.12 26.97L108.01 26.86L108.01 26.86Q110.26 29.53 112.09 31.40L112.02 31.33L111.94 31.25Q113.28 32.51 116.29 35.48L116.13 35.32L116.24 35.43L116.14 35.33Q117.14 36.15 119.01 37.74L119.07 37.80L119.18 37.91Q122.95 38.53 126.42 40.24L126.42 40.24L126.53 40.35Q117.22 31.77 110.98 24.35L110.91 24.28L110.90 24.27Q115.35 20.04 124.10 11.43L124.02 11.35L124.04 11.37Q121.48 12.50 119.46 12.88L119.43 12.85L119.49 12.91Q120.63 11.84 122.95 9.82L123.09 9.96L123.02 9.89Q119.02 11.41 115.67 11.60L115.62 11.55L115.59 11.52Q112.70 13.77 107.82 18.45L107.80 18.43L107.85 18.48Q107.49 15.90 106.91 13.35L106.82 13.26L106.79 13.23Q105.65 13.12 104.66 12.77L104.56 12.68L104.69 12.80Q104.52 12.10 103.95 10.66Z"/><path fill="#333" d="M27.78 27.13L18.51 17.10L18.54 17.13Q19.33 20.77 19.33 24.50L19.42 24.59L19.31 24.49Q19.33 30.48 17.28 36.04L17.38 36.14L17.33 36.09Q16.34 36.43 14.09 37.20L14.09 37.19L14.02 37.12Q16.92 31.42 16.92 24.72L16.78 24.58L16.93 24.73Q16.89 16.05 12.40 8.62L12.33 8.56L12.26 8.49Q12.82 8.78 13.51 9.20L13.55 9.24L13.48 9.17Q25.47 20.29 33.31 29.54L33.48 29.71L33.38 29.60Q33.02 27.12 33.02 24.68L33.03 24.69L33.17 24.82Q33.18 17.60 35.69 11.40L35.67 11.38L35.65 11.35Q37.98 10.83 39.58 10.15L39.53 10.09L39.50 10.06Q36.32 16.36 36.01 23.52L35.90 23.40L35.89 23.40Q35.56 30.72 38.53 36.89L38.58 36.93L38.56 36.92Q37.93 36.78 37.51 36.59L37.61 36.69L37.59 36.68Q32.96 32.64 27.74 27.09L27.88 27.22ZM41.13 40.06L41.19 40.12L41.24 40.17Q41.61 40.23 42.03 40.42L42.14 40.53L42.91 40.81L42.95 40.85Q37.72 33.83 37.72 24.47L37.74 24.49L37.78 24.53Q37.83 17.34 41.14 11.09L41.17 11.12L41.16 11.11Q40.37 11.20 38.96 11.81L39.03 11.88L39.09 11.94Q39.35 10.98 40.19 9.42L40.30 9.54L40.21 9.44Q37.70 10.28 35.26 10.85L35.36 10.95L35.43 11.02Q32.78 17.47 32.78 24.89L32.63 24.74L32.68 24.80Q32.70 26.68 32.89 28.66L33.00 28.77L33.00 28.76Q28.24 22.98 23.48 18.37L23.53 18.42L13.38 8.66L13.44 8.72Q12.93 8.47 11.71 7.90L11.68 7.86L11.58 7.77Q16.55 15.59 16.55 24.69L16.41 24.55L16.47 24.61Q16.52 31.78 13.43 37.79L13.52 37.88L13.45 37.81Q13.80 37.74 15.43 37.13L15.39 37.08L15.27 36.97Q15.01 37.81 14.18 39.30L14.15 39.27L14.29 39.41Q15.62 38.88 19.09 38.08L19.10 38.09L18.92 37.91Q21.43 31.97 21.43 24.77L21.35 24.70L21.25 24.60Q21.25 22.50 21.02 20.37L21.10 20.45L21.11 20.45Q32.55 33.23 41.15 40.08Z"/></svg>