<svg xmlns="http://www.w3.org/2000/svg" width="200" height="40" viewBox="0,0,200,40"><path fill="#444" d="M164.16 35.38L164.22 35.45L164.06 35.28Q160.00 35.52 159.01 33.20L159.00 33.19L159.14 33.33Q159.81 32.29 161.37 30.50L161.34 30.47L161.34 30.47Q161.94 32.60 164.95 32.71L165.01 32.77L164.85 32.61Q168.29 32.74 169.93 31.41L170.02 31.50L169.85 31.33Q171.35 29.82 171.27 27.11L171.28 27.12L171.35 27.20Q171.05 21.98 166.25 22.21L166.42 22.38L166.40 22.36Q163.47 22.40 161.72 23.66L161.85 23.79L161.39 23.48L161.13 23.29L161.30 23.46Q161.60 20.26 161.48 17.52L161.51 17.55L161.41 17.45Q161.36 14.88 161.01 11.57L160.91 11.46L160.96 11.51Q164.71 12.56 168.51 12.44L168.44 12.37L168.48 12.41Q172.35 12.39 175.92 11.13L175.80 11.01L175.33 12.63L175.21 12.52Q174.89 13.26 174.70 14.10L174.73 14.13L174.70 14.09Q171.65 15.20 167.77 15.20L167.76 15.19L167.68 15.11Q166.24 15.12 164.75 14.96L164.90 15.11L164.77 14.98Q164.72 15.70 164.38 20.15L164.33 20.10L164.37 20.14Q165.20 19.68 167.26 19.52L167.22 19.49L167.35 19.62Q171.14 19.90 172.59 21.58L172.56 21.55L172.54 21.54Q173.96 23.10 174.22 26.94L174.12 26.85L174.08 26.80Q174.42 31.06 173.20 33.08L173.13 33.01L173.26 33.14Q171.09 34.89 167.78 35.12L167.86 35.20L167.89 35.23Q166.76 35.17 164.10 35.32ZM170.29 37.75L170.16 37.62L170.12 37.58Q173.61 37.72 175.52 36.62L175.46 36.56L175.48 36.58Q176.57 35.15 176.57 33.06L176.59 33.08L176.50 32.99Q176.45 29.86 175.50 25.75L175.52 25.77L175.51 25.75Q175.17 24.04 173.95 22.64L173.97 22.66L174.08 22.81L173.86 22.51L173.46 22.26L173.51 22.31Q173.14 21.53 172.50 20.84L172.45 20.79L172.41 20.79L172.45 20.84Q171.00 19.23 167.30 19.23L167.23 19.15L167.00 19.19L166.96 19.15Q167.05 18.59 167.24 17.49L167.26 17.51L167.23 17.47Q172.25 17.62 176.28 15.98L176.38 16.08L176.35 16.05Q176.70 14.58 177.65 11.76L177.63 11.74L175.52 12.67L175.52 12.67Q176.04 11.67 176.54 10.53L176.40 10.39L176.49 10.49Q172.51 11.80 168.40 11.87L168.55 12.02L168.56 12.03Q164.48 12.18 160.52 11.07L160.50 11.05L160.41 10.96Q161.12 15.40 161.12 19.82L161.01 19.71L161.21 19.91Q161.05 21.65 160.93 23.55L161.04 23.66L161.09 23.71Q161.28 23.82 161.85 24.13L161.85 24.12L161.79 24.06Q162.23 23.93 162.87 23.59L162.91 23.63L162.92 23.63Q162.82 24.34 162.60 25.86L162.55 25.82L162.63 25.90Q162.95 25.99 163.37 26.22L163.45 26.30L163.43 26.28Q166.12 24.44 167.99 24.44L167.96 24.42L168.11 24.57Q169.36 24.48 170.54 25.13L170.61 25.20L170.60 25.18Q170.97 26.24 171.01 27.19L170.87 27.06L170.92 27.11Q171.04 29.74 170.01 30.84L170.05 30.88L169.95 30.79Q168.53 31.95 166.28 32.18L166.34 32.23L166.37 32.26Q165.50 32.42 164.81 32.34L164.68 32.21L164.65 32.19Q163.91 32.17 163.15 31.82L163.16 31.83L163.11 31.59L162.92 31.63L162.95 31.67Q162.16 31.18 161.63 29.85L161.72 29.93L161.55 29.77Q160.29 31.24 158.61 33.38L158.56 33.32L158.66 33.42Q159.03 34.13 159.87 35.09L159.70 34.92L159.82 35.04Q160.82 36.81 163.64 37.30L163.66 37.32L163.65 37.31Q164.76 37.47 170.13 37.58Z"/><path fill="#222" d="M73.84 9.31L73.93 9.39L73.93 9.40Q77.64 11.85 82.40 12.08L82.46 12.14L82.39 12.07Q87.05 12.27 91.31 10.52L91.23 10.44L91.19 10.41Q90.97 10.98 90.21 13.76L90.28 13.83L90.38 13.93Q87.57 14.89 84.60 15.04L84.53 14.98L84.64 15.08Q81.61 15.18 78.72 14.45L78.77 14.50L78.66 14.40Q79.35 18.01 79.54 21.67L79.54 21.67L79.66 21.78Q81.64 21.98 83.24 21.94L83.11 21.82L83.23 21.93Q84.48 21.96 86.88 21.85L86.81 21.78L86.79 21.76Q86.79 22.45 86.79 23.13L86.71 23.05L86.88 24.55L86.82 24.50Q84.43 24.50 79.63 24.58L79.59 24.54L79.55 24.50Q79.52 28.57 78.94 32.57L79.02 32.65L78.96 32.59Q81.66 32.01 84.40 32.12L84.31 32.04L84.39 32.12Q87.09 32.19 89.68 33.03L89.63 32.98L89.61 32.95Q89.85 33.92 90.11 34.68L89.99 34.56L90.55 36.18L90.41 36.04Q87.30 34.84 83.88 34.84L83.86 34.82L83.84 34.80Q79.02 34.86 74.76 37.10L74.78 37.12L74.63 36.98Q76.95 30.15 76.68 23.03L76.78 23.13L76.85 23.21Q76.60 16.06 73.93 9.40ZM74.32 37.88L74.25 37.81L74.24 37.80Q75.43 37.01 76.19 36.66L76.19 36.67L76.33 36.80Q75.96 37.39 75.39 38.92L75.38 38.90L75.44 38.96Q80.01 37.03 85.08 37.30L85.12 37.34L85.07 37.29Q90.31 37.65 94.30 40.35L94.25 40.30L94.23 40.28Q93.15 37.83 92.46 35.89L92.40 35.82L92.29 35.71Q91.45 35.25 90.46 34.91L90.39 34.84L90.44 34.89Q89.92 33.38 89.77 32.58L89.96 32.77L89.78 32.59Q86.68 31.59 83.52 31.59L83.57 31.64L83.54 31.60Q82.46 31.67 81.32 31.78L81.31 31.77L81.42 31.89Q81.38 30.47 81.42 29.25L81.42 29.26L81.49 26.74L81.59 26.84Q83.43 26.78 85.22 26.82L85.13 26.73L85.17 26.77Q87.03 26.83 88.81 26.98L88.83 27.00L88.74 26.91Q88.63 25.93 88.63 24.97L88.81 25.15L88.72 23.16L87.85 23.17L87.82 23.14Q87.41 23.21 86.95 23.21L86.98 23.24L86.96 23.22Q87.08 22.66 87.23 21.36L87.22 21.35L87.24 21.37Q85.60 21.56 84.42 21.60L84.51 21.69L84.36 21.54Q83.42 21.55 81.59 21.48L81.71 21.59L81.70 21.58Q81.60 20.15 81.41 17.33L81.42 17.34L81.34 17.26Q82.31 17.32 83.30 17.32L83.40 17.42L83.38 17.40Q88.16 17.46 91.85 15.56L91.75 15.45L91.81 15.51Q92.34 13.11 93.22 10.90L93.24 10.92L93.29 10.98Q91.90 11.76 91.06 12.10L91.17 12.20L91.18 12.22Q91.42 11.39 91.88 9.83L91.85 9.80L91.91 9.87Q87.14 11.87 82.27 11.57L82.40 11.70L82.24 11.53Q77.07 11.36 73.22 8.50L73.20 8.48L73.18 8.46Q76.12 15.47 76.43 23.09L76.45 23.11L76.37 23.03Q76.66 30.93 74.15 37.71Z"/><path fill="#333" d="M22.63 14.36L22.69 14.42L22.65 14.39Q23.45 18.58 23.61 22.16L23.67 22.22L23.71 22.26Q24.64 22.16 25.71 22.16L25.74 22.20L27.94 22.18L28.09 22.34Q28.99 22.17 29.86 20.76L29.85 20.75L29.80 20.70Q30.64 19.63 30.76 18.45L30.81 18.51L30.69 18.39Q31.12 15.43 26.90 14.94L26.94 14.98L26.95 14.99Q25.25 14.93 22.63 14.36ZM23.62 24.91L23.66 24.95L23.60 24.88Q23.49 31.06 22.34 35.47L22.44 35.57L22.54 35.67Q20.90 35.89 18.57 36.96L18.59 36.97L18.65 37.04Q21.00 30.36 20.73 23.09L20.75 23.10L20.81 23.17Q20.54 15.81 17.76 9.38L17.63 9.25L17.62 9.24Q21.87 12.12 28.11 12.12L28.15 12.15L28.05 12.05Q34.23 12.18 34.38 15.65L34.20 15.46L34.31 15.57Q34.43 18.06 33.44 20.72L33.36 20.64L33.47 20.75Q32.97 21.77 32.01 22.99L31.96 22.93L32.05 23.02Q30.72 24.63 28.17 24.89L28.19 24.91L28.18 24.90Q25.89 24.89 23.64 24.93ZM29.76 27.16L29.75 27.16L29.80 27.21Q33.86 27.34 35.12 22.55L35.18 22.61L35.18 22.61Q36.16 18.99 36.01 16.97L35.93 16.89L36.00 16.96Q35.94 15.49 35.18 14.50L35.06 14.38L35.08 14.40Q34.82 14.14 34.32 13.91L34.27 13.86L34.28 13.87Q34.36 13.80 33.75 13.03L33.74 13.03L33.61 12.89Q32.04 11.55 28.08 11.55L28.06 11.53L28.11 11.59Q21.32 11.68 17.10 8.52L16.98 8.40L17.08 8.51Q20.11 15.46 20.38 22.92L20.56 23.10L20.39 22.93Q20.76 30.69 18.10 37.77L18.11 37.79L18.09 37.77Q19.22 37.18 20.21 36.80L20.09 36.69L19.76 37.88L19.76 37.87Q19.49 38.37 19.23 38.94L19.36 39.07L19.25 38.96Q21.83 38.08 24.73 37.55L24.63 37.45L24.61 37.43Q25.55 32.02 25.63 27.29L25.48 27.15L25.59 27.26Q26.71 27.20 27.70 27.20L27.64 27.14L27.69 27.19Q29.00 27.17 29.80 27.20ZM28.86 17.28L28.89 17.31L28.76 17.19Q29.29 17.21 30.28 17.44L30.25 17.42L30.31 17.48Q30.41 17.69 30.45 17.99L30.45 17.99L30.43 17.97Q30.45 18.22 30.37 18.49L30.36 18.48L30.49 18.61Q30.31 19.76 29.58 20.63L29.51 20.55L29.55 20.60Q28.94 21.63 27.91 21.82L28.04 21.94L28.03 21.94Q27.22 21.85 25.58 21.85L25.66 21.92L25.68 21.94Q25.63 19.65 25.40 17.29L25.34 17.23L27.00 17.21L27.02 17.23Q28.06 17.43 28.94 17.36Z"/><path fill="#222" d="M136.43 21.82L136.49 21.88L136.47 21.85Q138.27 22.02 140.10 22.02L139.98 21.90L140.10 22.02Q141.90 22.03 143.73 21.88L143.73 21.89L143.66 21.82Q143.61 22.53 143.61 23.25L143.65 23.29L143.62 24.59L143.51 24.48Q141.20 24.53 136.44 24.64L136.54 24.74L136.35 24.55Q136.49 30.63 135.35 35.62L135.34 35.61L135.36 35.63Q132.99 36.16 131.51 36.96L131.54 36.99L131.70 37.15Q133.85 30.16 133.58 23.04L133.65 23.11L133.68 23.14Q133.35 15.92 130.68 9.25L130.75 9.32L130.75 9.32Q134.42 11.85 139.17 12.07L139.25 12.15L139.17 12.07Q143.80 12.21 147.95 10.46L148.04 10.55L148.00 10.50Q147.67 11.28 147.45 12.08L147.46 12.10L146.90 13.63L146.89 13.62Q144.23 14.77 141.26 14.92L141.38 15.04L141.37 15.03Q138.45 15.20 135.60 14.47L135.45 14.33L135.52 14.40Q136.24 17.82 136.43 21.82ZM148.61 9.79L148.72 9.89L148.57 9.74Q144.05 11.96 139.18 11.66L139.09 11.57L139.14 11.63Q133.78 11.28 130.04 8.43L130.04 8.42L130.03 8.41Q132.89 15.34 133.19 22.95L133.37 23.14L133.22 22.99Q133.53 30.91 131.02 37.69L131.07 37.74L131.14 37.81Q131.73 37.33 133.10 36.68L133.10 36.68L133.16 36.74Q132.96 37.49 132.39 39.02L132.31 38.94L132.31 38.94Q134.62 37.86 137.52 37.37L137.59 37.44L137.67 37.52Q138.26 32.63 138.45 26.92L138.29 26.76L138.43 26.90Q140.17 26.81 141.99 26.81L141.91 26.73L141.98 26.80Q143.89 26.91 145.72 27.10L145.56 26.95L145.58 26.97Q145.49 26.04 145.49 25.13L145.50 25.13L145.55 23.29L145.57 23.31Q144.70 23.31 143.87 23.31L143.95 23.39L143.82 23.27Q143.96 22.54 144.04 21.51L143.94 21.41L144.05 21.52Q142.58 21.60 141.17 21.60L141.26 21.69L141.15 21.59Q139.76 21.60 138.39 21.56L138.40 21.58L138.33 19.38L138.31 19.36Q138.30 18.28 138.19 17.21L138.28 17.31L138.29 17.32Q139.18 17.30 140.17 17.30L140.19 17.31L140.26 17.38Q145.00 17.36 148.61 15.46L148.54 15.38L148.64 15.49Q149.01 13.53 149.92 10.90L149.92 10.90L150.03 11.02Q148.59 11.70 147.79 12.05L147.80 12.06L147.90 12.16Q148.14 11.37 148.63 9.80Z"/><path d="M16 38 C83 16,104 11,185 28" stroke="#888" fill="none"/><path fill="#111" d="M114.14 22.25L114.03 22.14L113.99 22.10Q114.81 22.12 116.22 21.97L116.23 21.98L116.35 22.11Q116.16 22.60 116.16 23.25L116.16 23.24L116.15 24.49L116.29 24.63Q115.36 24.54 114.52 24.62L114.53 24.62L114.61 24.70Q113.73 24.70 112.89 24.66L112.79 24.56L112.95 24.72Q110.01 30.80 106.59 35.41L106.67 35.49L106.67 35.49Q103.99 35.98 102.70 36.59L102.79 36.68L102.86 36.75Q106.94 31.01 109.99 24.73L109.99 24.72L107.39 24.75L107.30 24.67Q107.40 23.43 107.29 22.10L107.26 22.07L107.29 22.11Q109.02 22.08 111.07 22.08L111.24 22.25L113.11 18.52L112.99 18.40Q113.96 16.48 115.18 14.88L115.34 15.04L115.32 15.02Q113.80 15.21 112.20 15.21L112.21 15.22L112.16 15.18Q105.97 15.07 102.20 12.86L102.35 13.02L101.69 11.29L101.51 11.11Q101.36 10.47 100.98 9.59L100.97 9.58L100.81 9.42Q105.21 12.10 110.92 12.33L110.96 12.37L111.03 12.44Q115.98 12.48 121.12 10.50L121.14 10.52L121.19 10.57Q121.10 11.09 120.60 11.97L120.55 11.91L120.58 11.94Q116.87 16.61 114.02 22.13ZM122.05 13.19L122.05 13.19L123.21 11.33L123.18 11.31Q122.12 11.69 120.44 12.41L120.39 12.36L120.69 12.17L120.78 12.25Q120.76 11.97 120.88 11.86L120.98 11.96L120.95 11.93Q121.25 11.17 121.97 9.83L122.11 9.97L122.08 9.94Q116.62 12.09 110.87 11.86L110.91 11.91L110.94 11.93Q104.95 11.70 100.20 8.73L100.06 8.60L100.22 8.75Q101.18 10.55 102.02 13.22L101.97 13.17L102.05 13.24Q103.13 13.87 103.93 14.17L103.86 14.10L103.92 14.17Q104.02 14.45 104.47 16.32L104.60 16.44L104.45 16.29Q107.65 17.59 113.17 17.44L113.26 17.53L113.21 17.48Q112.84 17.99 110.86 21.75L111.00 21.89L110.87 21.76Q108.87 21.82 106.89 21.63L106.84 21.58L106.88 21.62Q106.90 22.40 106.90 23.27L106.92 23.29L107.07 25.16L108.72 25.13L108.69 26.51L108.75 26.57Q104.78 33.91 102.00 37.48L101.90 37.39L102.03 37.51Q103.55 36.68 105.19 36.18L105.16 36.16L105.19 36.18Q104.55 37.14 103.18 38.86L103.16 38.83L103.20 38.87Q106.38 37.80 108.82 37.57L108.73 37.48L108.66 37.41Q111.66 33.70 114.78 26.93L114.77 26.92L118.26 27.17L118.16 27.08Q118.18 26.26 118.18 25.34L118.23 25.39L118.14 23.51L118.22 23.60Q117.95 23.59 117.40 23.62L117.41 23.63L117.34 23.57Q116.82 23.64 116.55 23.64L116.53 23.61L116.43 23.52Q116.50 23.47 116.54 23.32L116.52 23.30L116.62 23.14L116.50 23.02Q119.03 17.89 122.11 13.25Z"/><path d="M20 4 C113 29,99 35,186 24" stroke="#222" fill="none"/><path fill="#444" d="M62.47 18.22L62.57 18.32L62.56 18.32Q60.90 14.30 54.70 14.49L54.52 14.31L54.63 14.42Q50.12 14.45 48.14 15.89L48.29 16.04L48.29 16.04Q45.85 17.75 45.85 21.86L45.90 21.91L45.85 23.73L45.77 23.65Q45.72 32.43 54.75 32.43L54.84 32.52L54.84 32.53Q56.86 32.49 58.34 31.69L58.35 31.69L58.48 31.82Q60.13 30.62 59.98 28.76L60.10 28.88L60.09 28.86Q59.93 26.81 56.24 25.89L56.25 25.90L54.29 25.88L54.16 25.75Q53.22 25.76 52.26 25.80L52.40 25.94L52.26 25.79Q52.39 24.97 52.35 23.07L52.24 22.96L52.35 23.07Q60.02 23.08 64.20 22.74L64.03 22.57L64.16 22.70Q64.14 23.55 64.14 24.35L64.18 24.39L64.00 24.21Q64.07 25.09 64.11 25.88L64.09 25.86L64.22 25.99Q63.07 25.95 63.07 25.95L62.95 25.83L63.12 25.99Q61.52 25.77 61.90 25.77L62.00 25.86L61.97 25.84Q63.15 27.55 63.54 29.53L63.47 29.47L63.41 29.41Q63.56 30.17 63.56 30.62L63.60 30.66L63.59 30.65Q63.66 35.37 54.87 35.37L54.72 35.22L54.71 35.22Q47.63 35.25 45.04 33.16L45.15 33.27L45.14 33.26Q43.20 30.94 43.20 25.87L43.19 25.86L43.07 25.74Q43.08 24.68 42.92 21.98L43.03 22.08L42.91 21.97Q42.74 19.59 42.78 18.22L42.80 18.23L42.95 18.39Q42.99 15.46 44.36 13.86L44.37 13.87L44.27 13.78Q46.84 11.73 51.71 11.54L51.78 11.61L54.40 11.49L54.43 11.52Q57.48 11.37 60.91 11.79L60.88 11.77L60.83 11.72Q64.72 12.33 65.67 15.57L65.72 15.61L65.68 15.57Q64.69 16.52 62.59 18.35ZM63.90 20.46L63.97 20.41L64.09 20.53Q65.28 19.44 67.15 17.46L67.10 17.42L67.13 17.45Q66.71 16.37 65.72 14.66L65.73 14.68L65.77 14.72Q64.66 12.12 60.85 11.47L60.86 11.48L60.87 11.49Q58.77 11.40 54.46 11.10L54.39 11.02L51.70 11.15L51.71 11.16Q46.54 11.36 43.95 13.34L44.04 13.42L43.88 13.26Q42.67 15.06 42.55 18.15L42.47 18.07L42.52 18.11Q42.47 17.60 42.70 23.09L42.72 23.11L42.66 23.04Q42.76 24.48 42.83 27.22L42.87 27.26L42.87 27.26Q43.07 31.72 44.82 33.66L44.68 33.52L44.68 33.52Q45.07 34.36 45.94 35.24L45.91 35.21L46.05 35.35Q48.91 37.18 54.43 37.52L54.47 37.56L57.38 37.77L57.29 37.68Q58.95 37.85 60.96 37.74L60.94 37.71L61.01 37.78Q62.43 37.68 64.52 37.15L64.49 37.11L64.43 37.05Q66.38 36.57 66.34 34.24L66.45 34.35L66.41 34.31Q66.31 32.96 65.24 30.18L65.37 30.30L65.36 30.29Q64.91 29.23 64.38 28.43L64.38 28.44L64.42 28.47Q65.13 28.62 66.31 28.81L66.28 28.78L66.34 28.83Q66.04 25.22 66.07 24.53L65.90 24.36L66.01 24.47Q65.59 24.43 65.17 24.39L65.22 24.45L65.17 24.39Q64.79 24.36 64.41 24.43L64.44 24.46L64.49 24.51Q64.38 23.29 64.45 22.23L64.51 22.28L64.46 22.24Q58.25 22.81 51.97 22.69L51.86 22.58L51.95 22.67Q52.08 23.68 52.08 24.59L52.06 24.57L52.00 26.26L51.90 26.16Q52.49 26.37 52.91 26.33L52.82 26.24L52.88 26.30Q53.18 26.19 53.64 26.19L53.57 26.12L53.57 26.11Q53.60 26.60 53.64 27.10L53.79 27.25L53.77 27.23Q53.77 27.68 53.73 28.18L53.68 28.13L53.60 28.05Q54.73 28.11 55.76 28.07L55.82 28.14L55.82 28.14Q56.75 28.04 57.78 28.08L57.77 28.07L57.88 28.18Q58.83 28.33 59.70 28.71L59.77 28.77L59.74 28.78L59.75 28.79Q59.97 30.39 58.30 31.30L58.25 31.25L58.15 31.16Q56.57 32.16 54.86 32.16L54.81 32.11L54.86 32.16Q50.92 32.07 48.49 30.32L48.59 30.43L48.64 30.48Q47.51 28.28 47.66 25.73L47.66 25.73L47.78 25.84Q48.12 21.09 49.97 19.09L49.93 19.05L49.97 19.09Q51.82 17.10 56.50 16.79L56.36 16.65L56.47 16.76Q60.18 16.58 62.12 18.37L62.09 18.34L62.13 18.38Q62.14 18.43 62.26 18.62L62.20 18.57L62.34 18.59L62.24 18.49Q62.91 19.28 63.48 20.38L63.61 20.51L63.87 20.42Z"/></svg>