<svg xmlns="http://www.w3.org/2000/svg" width="200" height="40" viewBox="0,0,200,40"><path fill="#222" d="M141.03 27.23L131.73 17.17L131.62 17.07Q132.49 20.79 132.49 24.52L132.54 24.57L132.49 24.52Q132.47 30.47 130.41 36.03L130.55 36.17L130.58 36.20Q129.42 36.37 127.17 37.13L127.23 37.19L127.07 37.03Q129.91 31.26 129.91 24.56L129.89 24.55L130.03 24.69Q130.01 16.03 125.52 8.60L125.59 8.67L125.50 8.58Q125.99 8.80 126.67 9.22L126.68 9.23L126.59 9.14Q138.70 20.37 146.54 29.62L146.47 29.55L146.56 29.65Q146.24 27.19 146.24 24.76L146.23 24.74L146.17 24.69Q146.22 17.50 148.73 11.29L148.76 11.32L148.66 11.22Q151.07 10.78 152.67 10.09L152.64 10.06L152.60 10.03Q149.41 16.31 149.10 23.47L149.10 23.47L148.97 23.33Q148.67 30.68 151.64 36.85L151.63 36.84L151.64 36.85Q151.06 36.77 150.64 36.58L150.66 36.60L150.69 36.63Q146.11 32.66 140.90 27.10L140.95 27.15ZM154.34 40.12L154.35 40.14L154.38 40.16Q154.76 40.25 155.18 40.44L155.19 40.44L156.11 40.86L156.07 40.83Q150.98 33.95 150.98 24.59L150.84 24.45L150.95 24.55Q150.91 17.28 154.22 11.04L154.17 10.99L154.22 11.03Q153.67 11.36 152.27 11.97L152.16 11.86L152.27 11.98Q152.60 11.09 153.44 9.53L153.35 9.44L153.47 9.56Q150.88 10.32 148.44 10.89L148.45 10.90L148.53 10.98Q145.94 17.49 145.94 24.91L145.92 24.89L145.79 24.76Q145.87 26.71 146.06 28.68L146.04 28.67L146.14 28.77Q141.39 22.99 136.63 18.38L136.72 18.47L126.62 8.75L126.60 8.73Q125.90 8.30 124.68 7.73L124.82 7.86L124.87 7.91Q129.66 15.56 129.66 24.66L129.63 24.63L129.61 24.60Q129.70 31.82 126.62 37.83L126.53 37.74L126.47 37.68Q126.82 37.62 128.46 37.01L128.53 37.08L128.43 36.98Q128.18 37.83 127.34 39.32L127.44 39.42L127.39 39.37Q128.70 38.82 132.17 38.02L132.15 38.00L132.12 37.96Q134.42 31.82 134.42 24.62L134.43 24.63L134.47 24.67Q134.43 22.53 134.20 20.40L134.32 20.52L134.32 20.52Q145.74 33.28 154.35 40.13Z"/><path d="M14 15 C97 38,120 10,198 29" stroke="#888" fill="none"/><path fill="#333" d="M163.42 35.25L163.44 35.27L163.58 35.41Q162.02 35.34 160.46 34.92L160.59 35.05L160.47 34.93Q159.36 34.12 159.21 32.49L159.17 32.45L159.25 32.53Q159.15 32.28 159.34 29.65L159.36 29.67L159.39 29.70Q160.29 29.38 162.31 29.00L162.38 29.07L162.14 29.79L162.25 29.90Q161.98 31.65 163.39 32.22L163.23 32.06L163.29 32.11Q164.15 32.51 166.24 32.51L166.14 32.41L166.21 32.49Q167.88 32.40 168.07 32.33L167.91 32.16L168.10 32.36Q168.94 32.13 169.67 31.64L169.68 31.66L169.69 31.67Q171.08 30.69 170.89 28.60L170.79 28.50L170.92 28.63Q170.58 26.04 168.84 24.48L168.85 24.48L168.98 24.61Q167.24 23.04 164.76 23.04L164.71 22.99L164.72 22.77L164.71 22.76Q165.21 22.84 166.08 22.76L166.04 22.72L165.98 22.66Q167.85 22.52 169.22 21.28L169.19 21.25L169.24 21.30Q170.55 20.00 170.70 18.13L170.69 18.12L170.81 18.24Q170.87 17.88 170.87 17.54L170.85 17.52L170.84 17.51Q170.84 15.99 169.47 15.07L169.56 15.16L169.54 15.14Q168.18 14.21 166.58 14.32L166.60 14.33L166.64 14.37Q165.30 14.17 164.08 14.59L164.11 14.62L164.22 14.73Q162.77 15.26 162.46 16.40L162.36 16.30L162.50 16.44Q162.12 17.02 162.20 17.78L162.23 17.81L162.20 17.78Q161.25 17.63 159.20 16.91L159.13 16.84L159.20 16.91Q158.95 15.21 158.99 14.38L158.96 14.35L159.12 14.50Q159.06 12.81 160.13 12.13L160.18 12.18L160.25 12.25Q161.66 11.64 163.26 11.64L163.28 11.66L163.24 11.63Q166.43 11.61 169.58 11.88L169.54 11.84L169.46 11.75Q174.61 12.26 174.31 16.03L174.34 16.06L174.22 15.94Q174.27 17.55 173.78 19.11L173.62 18.96L173.80 19.14Q172.83 22.16 170.47 23.08L170.52 23.13L170.35 22.96Q173.06 23.57 173.67 26.92L173.63 26.88L173.76 27.02Q173.85 28.02 173.92 30.03L174.01 30.12L173.90 30.01Q174.07 34.48 169.46 34.94L169.46 34.94L169.46 34.93Q168.78 35.06 163.49 35.32ZM168.82 37.68L168.80 37.67L168.78 37.65Q169.27 37.56 172.12 37.64L172.21 37.72L172.17 37.68Q173.88 37.72 175.52 37.07L175.59 37.15L175.66 37.22Q176.82 36.24 176.63 34.49L176.52 34.38L176.52 34.38Q176.51 33.15 176.20 31.40L176.14 31.34L176.19 31.38Q175.33 26.76 173.39 25.12L173.49 25.22L173.36 24.90L173.20 24.71L173.24 24.74Q175.08 23.39 175.84 19.01L175.71 18.88L175.75 18.92Q175.86 18.53 175.97 17.58L176.01 17.61L175.99 17.60Q175.99 16.75 175.91 16.07L175.94 16.10L175.92 16.08Q175.83 14.46 174.53 13.78L174.56 13.81L174.40 13.72L174.42 13.74Q174.08 12.71 172.93 12.18L172.92 12.16L173.01 12.25Q171.38 11.47 166.24 11.16L166.35 11.26L166.20 11.11Q164.57 11.09 162.97 11.09L163.01 11.12L162.92 11.04Q161.45 11.17 159.93 11.81L159.91 11.80L159.91 11.79Q158.67 12.53 158.67 14.28L158.58 14.20L158.70 14.32Q158.60 13.80 158.87 17.15L158.96 17.24L158.86 17.14Q159.31 17.36 160.95 17.97L160.80 17.83L160.93 17.95Q160.96 18.52 160.92 19.01L160.93 19.02L160.80 18.89Q160.92 19.51 160.96 20.04L160.80 19.88L160.93 20.01Q162.64 20.31 164.66 20.43L164.68 20.44L164.74 20.51Q164.60 18.43 165.71 17.59L165.79 17.68L165.80 17.69Q166.63 17.03 168.65 16.81L168.49 16.64L168.53 16.68Q169.71 16.72 170.28 16.91L170.24 16.87L170.25 16.88Q170.35 17.05 170.39 17.17L170.31 17.09L170.33 17.30L170.48 17.92L170.42 17.85Q170.38 18.00 170.34 18.15L170.53 18.34L170.49 18.30Q170.33 19.93 168.81 21.11L168.84 21.14L168.75 21.05Q167.85 21.99 165.84 22.18L165.99 22.33L165.84 22.17Q165.11 22.33 164.24 22.33L164.28 22.37L164.21 22.30Q164.39 22.78 164.54 23.47L164.46 23.38L164.45 23.38Q166.23 23.40 167.68 24.13L167.70 24.16L167.66 24.23L166.10 24.42L165.95 24.27Q166.08 24.71 166.20 25.31L166.10 25.22L166.23 25.35Q168.35 25.26 170.06 26.59L170.04 26.57L170.10 26.63Q170.33 27.01 170.63 28.65L170.50 28.51L170.53 28.55Q170.65 31.40 167.72 31.82L167.87 31.97L167.81 31.91Q165.77 32.23 165.19 32.19L165.21 32.21L165.16 32.16Q164.67 32.01 164.13 31.93L164.23 32.02L164.09 31.43L164.32 31.09L164.29 30.64L164.44 30.45L164.42 30.43Q163.31 30.34 162.51 30.53L162.66 30.68L162.56 30.58Q162.55 30.39 162.55 30.20L162.55 30.20L162.63 30.28Q162.64 30.05 162.64 29.83L162.53 29.72L162.65 29.84Q162.70 29.44 162.86 28.71L162.76 28.61L162.76 28.61Q160.95 28.90 159.08 29.24L158.98 29.14L159.00 29.16Q159.00 29.65 158.89 30.78L158.98 30.87L158.95 30.84Q158.92 32.04 158.92 32.65L158.87 32.61L158.90 32.64Q158.95 34.67 160.33 35.43L160.19 35.30L160.34 35.45Q161.70 37.61 166.42 37.42L166.45 37.44L166.56 37.55Q167.22 37.46 168.75 37.61Z"/><path fill="#111" d="M20.71 14.27L20.63 14.19L20.52 14.08Q21.76 18.67 21.91 21.87L21.86 21.81L21.97 21.93Q22.44 21.94 26.82 22.06L26.74 21.98L26.79 22.03Q29.30 22.03 29.69 18.56L29.62 18.50L29.67 18.55Q30.00 16.94 29.08 16.02L29.08 16.02L29.05 15.99Q27.77 15.09 25.79 14.94L25.69 14.84L25.62 14.77Q22.43 14.58 20.57 14.13ZM22.05 23.83L21.95 23.73L21.99 23.77Q22.14 29.75 20.35 35.69L20.33 35.67L20.42 35.75Q19.12 36.02 16.53 37.05L16.61 37.12L16.67 37.19Q19.31 30.50 18.97 23.04L19.04 23.11L19.09 23.15Q18.85 15.87 15.53 9.36L15.41 9.24L15.34 9.17Q20.27 12.04 27.24 12.04L27.37 12.17L27.19 12.00Q32.89 12.06 33.16 15.60L33.13 15.57L33.22 15.66Q33.34 16.31 33.26 16.92L33.16 16.83L33.06 17.94L33.14 18.02Q32.17 21.81 30.04 23.53L30.11 23.59L30.13 23.61Q29.34 24.31 28.31 24.31L28.23 24.23L25.65 24.23L25.72 24.31Q31.40 31.62 35.93 36.19L35.79 36.05L35.91 36.17Q33.62 35.32 30.68 34.98L30.80 35.10L30.73 35.03Q26.92 31.02 22.00 23.79ZM30.52 35.31L30.66 35.45L30.84 35.32L32.06 36.54L32.22 36.70Q32.76 37.21 33.41 37.82L33.44 37.85L33.41 37.82Q36.88 38.35 40.45 40.22L40.59 40.35L40.55 40.32Q33.47 33.43 28.07 26.50L28.11 26.55L29.90 26.59L29.82 26.50Q32.94 26.53 34.27 22.00L34.23 21.97L34.40 22.13Q34.95 19.80 34.95 17.09L35.08 17.22L35.07 17.21Q35.06 14.92 33.35 14.27L33.31 14.24L33.37 14.29Q33.25 13.91 32.68 13.22L32.56 13.10L32.65 13.19Q30.96 11.73 27.30 11.65L27.24 11.59L27.26 11.61Q19.39 11.47 14.71 8.46L14.74 8.49L14.75 8.50Q18.42 15.26 18.76 22.95L18.86 23.05L18.73 22.92Q19.05 30.84 15.93 37.70L16.10 37.87L16.07 37.84Q17.22 37.17 18.02 36.86L18.08 36.92L17.13 39.24L17.16 39.27Q19.77 38.11 22.43 37.62L22.39 37.57L22.56 37.74Q23.74 32.53 23.93 27.31L24.01 27.39L23.84 27.22Q27.39 32.21 30.55 35.34ZM29.34 17.45L29.28 17.39L29.24 17.35Q29.36 17.70 29.36 18.04L29.35 18.04L29.42 18.68L29.39 18.65Q29.40 19.76 28.71 20.71L28.66 20.66L28.76 20.76Q28.11 21.48 27.19 21.67L27.10 21.58L27.10 21.57Q26.84 21.58 25.24 21.62L25.28 21.65L25.27 21.65Q24.77 21.76 23.93 21.64L24.00 21.71L23.98 21.69Q23.90 20.20 23.56 17.16L23.39 16.99L23.50 17.10Q24.91 17.29 25.60 17.29L25.64 17.33L25.49 17.19Q27.35 17.21 29.29 17.41Z"/><path d="M14 16 C92 26,120 24,191 21" stroke="#222" fill="none"/><path fill="#222" d="M64.23 17.99L64.35 18.11L64.39 18.15Q62.49 20.78 59.82 26.41L59.75 26.33L57.91 30.74L57.74 30.58Q56.86 32.47 55.52 34.71L55.62 34.81L55.63 34.81Q56.11 34.85 54.44 34.89L54.50 34.94L54.37 34.82Q54.44 34.89 53.18 34.89L53.14 34.84L53.08 34.78Q52.38 33.32 49.44 26.16L49.52 26.23L49.49 26.21Q47.26 20.78 45.17 17.77L45.20 17.80L45.16 17.76Q46.04 20.96 46.04 24.12L46.04 24.12L46.02 24.10Q45.95 30.54 42.98 36.10L43.00 36.12L42.97 36.09Q41.71 36.51 39.35 37.23L39.33 37.21L39.42 37.30Q42.92 31.44 42.92 24.21L42.92 24.20L43.03 24.32Q43.00 15.33 37.59 8.37L37.69 8.47L37.55 8.33Q39.18 9.04 41.54 9.72L41.59 9.78L41.68 9.87Q48.63 16.51 54.72 29.84L54.66 29.77L54.74 29.86Q58.30 22.91 60.51 19.40L60.50 19.40L60.36 19.25Q63.95 13.48 67.91 10.02L67.97 10.08L68.03 10.14Q69.30 9.92 71.66 9.16L71.63 9.13L71.64 9.15Q66.53 15.65 66.53 24.25L66.53 24.25L66.65 24.37Q66.70 31.08 70.13 36.60L70.06 36.54L70.14 36.61Q68.63 36.13 65.89 35.52L66.07 35.70L65.93 35.56Q63.65 30.85 63.65 24.87L63.67 24.89L63.70 24.92Q63.58 21.37 64.26 18.02ZM65.69 35.90L65.88 36.08L65.72 35.93Q66.37 36.00 67.82 36.27L67.91 36.36L67.88 36.33Q68.42 37.18 69.38 38.67L69.30 38.59L69.39 38.69Q71.40 38.98 74.86 40.19L74.86 40.19L74.97 40.30Q68.62 33.88 68.62 24.06L68.64 24.07L68.70 24.13Q68.56 16.27 72.94 10.14L73.05 10.24L70.81 10.90L70.88 10.97Q71.80 9.34 72.45 8.47L72.39 8.41L72.50 8.52Q70.67 9.20 68.04 9.73L67.94 9.63L68.07 9.76Q61.13 15.69 55.08 28.29L55.23 28.44L55.20 28.42Q50.05 17.47 45.10 12.22L44.96 12.08L45.00 12.12Q44.74 12.16 44.17 12.05L44.18 12.06L42.88 10.68L42.88 10.69Q42.37 10.10 41.69 9.49L41.64 9.45L41.67 9.47Q38.54 8.40 36.75 7.67L36.72 7.65L36.69 7.62Q42.77 14.92 42.77 24.32L42.74 24.29L42.78 24.33Q42.71 31.88 38.56 37.74L38.54 37.71L38.57 37.75Q39.37 37.63 40.66 37.21L40.49 37.04L40.67 37.22Q40.50 37.43 39.09 39.53L39.03 39.47L38.99 39.42Q40.75 38.90 44.26 38.14L44.29 38.17L44.29 38.17Q48.05 31.17 47.86 23.40L47.92 23.46L47.95 23.48Q49.37 27.38 52.84 35.26L52.97 35.40L52.79 35.21Q53.19 35.31 53.42 35.31L53.37 35.26L53.86 35.22L53.83 35.18Q54.38 35.96 55.18 37.26L55.22 37.30L55.15 37.24Q56.72 37.16 56.72 37.16L56.75 37.19L56.73 37.17Q57.84 37.26 58.49 37.34L58.35 37.20L58.37 37.22Q59.94 33.19 63.29 25.20L63.32 25.23L63.32 25.22Q63.13 30.59 65.71 35.92Z"/><path fill="#111" d="M119.18 18.36L119.09 18.28L119.15 18.34Q117.34 14.17 111.13 14.36L111.14 14.36L111.25 14.47Q106.83 14.58 104.85 16.03L104.80 15.98L104.87 16.04Q102.35 17.67 102.35 21.78L102.32 21.76L102.43 23.74L102.36 23.67Q102.31 32.45 111.33 32.45L111.41 32.53L111.45 32.56Q113.54 32.60 115.03 31.80L115.00 31.77L115.03 31.81Q116.88 30.80 116.72 28.93L116.72 28.93L116.60 28.81Q116.52 26.82 112.82 25.90L112.68 25.76L110.82 25.84L110.90 25.92Q109.81 25.79 108.86 25.83L108.88 25.84L108.99 25.95Q108.95 24.96 108.91 23.05L108.81 22.95L108.76 22.91Q116.51 23.00 120.70 22.66L120.69 22.66L120.70 22.67Q120.74 23.58 120.74 24.38L120.70 24.34L120.59 24.23Q120.71 25.15 120.75 25.95L120.70 25.90L120.79 25.99Q119.52 25.83 119.52 25.83L119.58 25.89L119.63 25.93Q118.25 25.93 118.63 25.93L118.48 25.77L118.64 25.93Q119.65 27.47 120.03 29.45L120.00 29.43L120.06 29.49Q120.13 30.17 120.13 30.62L120.12 30.62L120.18 30.67Q120.19 35.33 111.40 35.33L111.35 35.28L111.31 35.24Q104.26 35.31 101.67 33.22L101.60 33.15L101.68 33.22Q99.60 30.76 99.60 25.70L99.61 25.71L99.62 25.72Q99.63 24.67 99.48 21.96L99.46 21.94L99.44 21.93Q99.44 19.72 99.48 18.35L99.48 18.34L99.42 18.29Q99.44 15.34 100.81 13.74L100.87 13.80L100.81 13.74Q103.46 11.78 108.33 11.59L108.24 11.50L110.93 11.45L110.90 11.42Q114.04 11.36 117.46 11.78L117.57 11.89L117.45 11.76Q121.33 12.37 122.28 15.60L122.23 15.56L122.13 15.46Q121.24 16.51 119.15 18.34ZM120.47 20.46L120.70 20.57L120.58 20.45Q121.74 19.33 123.61 17.35L123.73 17.47L123.60 17.34Q123.27 16.36 122.28 14.65L122.42 14.80L122.40 14.77Q121.22 12.11 117.41 11.46L117.35 11.40L117.34 11.39Q115.34 11.41 111.04 11.10L110.98 11.04L108.21 11.09L108.29 11.17Q103.14 11.39 100.55 13.37L100.50 13.32L100.57 13.39Q99.16 14.98 99.04 18.06L99.09 18.11L99.10 18.12Q99.00 17.56 99.23 23.04L99.40 23.21L99.33 23.14Q99.24 24.39 99.32 27.13L99.37 27.18L99.47 27.28Q99.64 31.72 101.39 33.66L101.23 33.49L101.27 33.54Q101.80 34.52 102.67 35.40L102.67 35.40L102.55 35.27Q105.57 37.27 111.09 37.61L110.90 37.42L113.85 37.66L113.83 37.65Q115.51 37.85 117.53 37.73L117.43 37.63L117.48 37.68Q118.89 37.57 120.99 37.04L120.96 37.01L120.95 37.00Q122.96 36.57 122.92 34.25L122.92 34.25L122.95 34.28Q122.92 32.99 121.85 30.21L121.96 30.32L121.96 30.33Q121.63 29.38 121.10 28.58L121.05 28.53L121.09 28.58Q121.72 28.63 122.90 28.82L122.74 28.67L122.78 28.70Q122.60 25.21 122.64 24.53L122.51 24.40L122.51 24.40Q122.19 24.46 121.77 24.42L121.72 24.37L121.79 24.44Q121.37 24.36 120.99 24.44L120.99 24.44L121.06 24.51Q121.03 23.37 121.10 22.31L121.04 22.25L121.16 22.36Q114.83 22.81 108.55 22.70L108.56 22.71L108.52 22.67Q108.58 23.61 108.58 24.52L108.51 24.45L108.62 26.31L108.63 26.32Q109.04 26.35 109.46 26.31L109.40 26.25L109.31 26.16Q109.72 26.15 110.18 26.15L110.25 26.22L110.16 26.14Q110.28 26.71 110.31 27.20L110.19 27.08L110.32 27.21Q110.32 27.67 110.28 28.16L110.25 28.13L110.31 28.19Q111.23 28.04 112.26 28.00L112.23 27.98L112.41 28.16Q113.36 28.08 114.39 28.12L114.35 28.08L114.43 28.16Q115.39 28.32 116.26 28.70L116.30 28.74L116.28 28.76L116.20 28.68Q116.42 30.26 114.75 31.18L114.75 31.18L114.80 31.23Q113.15 32.17 111.44 32.17L111.49 32.22L111.38 32.11Q107.57 32.15 105.13 30.40L105.23 30.49L105.06 30.32Q104.10 28.30 104.25 25.75L104.36 25.85L104.24 25.73Q104.62 21.01 106.46 19.01L106.50 19.05L106.52 19.06Q108.25 16.95 112.93 16.65L113.02 16.73L113.10 16.81Q116.76 16.59 118.70 18.38L118.60 18.28L118.54 18.22Q118.78 18.50 118.89 18.69L118.84 18.64L118.98 18.66L118.96 18.65Q119.55 19.35 120.12 20.45L120.17 20.50L120.51 20.49Z"/><path fill="#444" d="M90.51 35.32L90.56 35.37L90.67 35.48Q87.63 31.53 85.00 22.88L84.89 22.77L84.96 22.85Q84.21 20.61 83.41 18.48L83.55 18.61L80.56 27.28L80.59 27.30Q78.85 32.31 76.45 35.54L76.44 35.53L76.45 35.53Q75.65 35.65 74.01 35.80L74.02 35.81L73.86 35.66Q74.14 34.63 74.14 33.38L74.11 33.35L74.09 33.34Q73.98 27.21 71.24 21.08L71.26 21.10L71.31 21.15Q68.17 14.24 62.31 9.26L62.23 9.18L62.35 9.29Q64.45 9.95 66.81 10.48L66.76 10.43L66.77 10.44Q75.56 19.00 76.85 29.97L76.78 29.89L76.72 29.83Q78.38 26.54 79.82 21.17L79.96 21.31L79.78 21.13Q81.92 13.79 82.42 12.38L82.29 12.26L84.54 12.26L84.55 12.27Q85.22 14.27 85.86 16.59L85.99 16.72L87.23 21.16L87.26 21.18Q88.70 26.50 90.11 29.74L90.08 29.72L90.14 29.77Q91.77 18.12 99.69 10.77L99.72 10.80L99.72 10.80Q101.17 10.39 104.14 9.74L104.26 9.86L104.19 9.79Q98.94 14.18 95.90 20.31L95.86 20.27L95.90 20.31Q92.78 26.52 92.78 33.30L92.74 33.25L92.73 33.24Q92.69 34.30 92.77 35.45L92.85 35.53L91.75 35.46L91.73 35.43Q91.17 35.41 90.60 35.41ZM96.85 38.31L96.76 38.22L96.85 38.31Q95.47 34.61 95.58 30.73L95.69 30.84L95.65 30.79Q96.09 19.36 105.46 11.10L105.38 11.02L105.36 11.00Q104.34 11.16 102.40 11.69L102.44 11.73L102.45 11.75Q103.52 11.02 105.42 9.23L105.40 9.21L105.30 9.11Q102.60 9.84 99.67 10.33L99.79 10.45L99.81 10.47Q92.32 17.60 90.41 27.08L90.38 27.04L90.31 26.98Q89.85 25.45 87.00 14.00L86.94 13.94L86.89 13.89Q86.53 14.02 85.57 14.02L85.50 13.94L85.20 12.88L85.27 12.95Q85.19 12.45 84.96 11.96L84.98 11.98L82.02 11.91L82.06 11.95Q81.09 14.25 79.81 19.37L79.94 19.50L79.85 19.41Q78.56 24.51 77.57 26.99L77.67 27.09L77.72 27.14Q76.13 19.23 70.57 12.91L70.54 12.88L70.59 12.93Q69.97 12.73 69.02 12.54L69.11 12.63L69.14 12.66Q68.34 11.74 66.77 10.10L66.80 10.13L66.72 10.05Q63.34 9.25 61.17 8.45L61.31 8.59L61.13 8.42Q66.84 13.13 70.11 19.34L70.22 19.45L70.17 19.40Q73.59 25.98 73.59 32.98L73.61 33.01L73.69 33.08Q73.57 34.53 73.38 36.13L73.41 36.15L73.34 36.08Q73.64 36.16 74.10 36.06L74.20 36.16L74.02 35.99Q74.62 36.03 74.85 36.03L74.75 35.93L74.85 37.06L74.78 36.99Q74.79 37.46 74.87 37.99L74.91 38.03L74.98 38.11Q76.00 37.91 78.29 37.76L78.31 37.78L78.33 37.80Q81.87 32.32 84.61 22.91L84.67 22.97L84.69 22.99Q87.51 31.83 90.48 35.79L90.32 35.63L90.39 35.69Q90.98 35.83 91.82 35.95L91.77 35.90L91.81 35.94Q92.53 36.85 93.60 37.92L93.59 37.91L93.71 38.03Q94.40 38.00 96.80 38.26Z"/></svg>