<svg xmlns="http://www.w3.org/2000/svg" width="200" height="40" viewBox="0,0,200,40"><path d="M7 9 C95 37,92 23,185 18" stroke="#333" fill="none"/><path fill="#333" d="M22.66 14.40L22.54 14.27L22.57 14.30Q23.49 18.62 23.65 22.19L23.53 22.08L23.66 22.21Q24.65 22.17 25.71 22.17L25.74 22.19L28.09 22.34L27.97 22.22Q29.08 22.26 29.96 20.86L29.95 20.85L29.83 20.73Q30.73 19.72 30.84 18.54L30.83 18.52L30.79 18.49Q31.06 15.37 26.84 14.88L26.93 14.98L26.99 15.03Q25.16 14.84 22.53 14.27ZM23.63 24.91L23.69 24.98L23.65 24.94Q23.63 31.20 22.49 35.62L22.54 35.67L22.44 35.57Q21.00 35.99 18.67 37.06L18.68 37.06L18.59 36.97Q21.01 30.37 20.74 23.10L20.81 23.16L20.77 23.13Q20.45 15.72 17.67 9.29L17.59 9.21L17.63 9.25Q21.76 12.01 28.00 12.01L28.07 12.08L28.07 12.08Q34.22 12.17 34.37 15.63L34.24 15.50L34.28 15.54Q34.44 18.07 33.45 20.73L33.46 20.74L33.39 20.67Q32.88 21.68 31.93 22.90L31.96 22.93L31.98 22.95Q30.73 24.63 28.18 24.90L28.17 24.89L28.22 24.95Q25.95 24.96 23.71 24.99ZM29.75 27.15L29.72 27.13L29.86 27.27Q33.98 27.47 35.24 22.67L35.12 22.55L35.26 22.69Q36.22 19.05 36.07 17.03L36.03 16.99L36.04 17.00Q35.79 15.34 35.03 14.35L35.11 14.44L35.11 14.43Q34.86 14.18 34.36 13.95L34.19 13.78L34.18 13.77Q34.27 13.71 33.66 12.94L33.76 13.05L33.74 13.02Q32.16 11.67 28.20 11.67L28.09 11.56L28.09 11.57Q21.28 11.64 17.05 8.48L17.12 8.55L17.03 8.46Q20.13 15.48 20.40 22.94L20.52 23.06L20.50 23.04Q20.80 30.73 18.14 37.81L18.03 37.71L18.09 37.76Q19.17 37.14 20.16 36.75L20.15 36.74L19.86 37.98L19.79 37.90Q19.50 38.37 19.23 38.94L19.25 38.97L19.36 39.07Q21.72 37.97 24.61 37.44L24.68 37.50L24.60 37.43Q25.57 32.04 25.65 27.32L25.65 27.32L25.47 27.14Q26.64 27.13 27.63 27.13L27.61 27.11L27.59 27.09Q29.05 27.21 29.85 27.25ZM28.84 17.26L28.80 17.22L28.84 17.26Q29.29 17.22 30.28 17.45L30.25 17.41L30.40 17.57Q30.48 17.76 30.52 18.06L30.57 18.12L30.52 18.06Q30.53 18.31 30.45 18.57L30.43 18.55L30.42 18.53Q30.32 19.77 29.60 20.65L29.63 20.68L29.69 20.74Q28.98 21.67 27.96 21.86L27.99 21.89L27.98 21.88Q27.23 21.86 25.59 21.86L25.59 21.85L25.53 21.79Q25.49 19.51 25.26 17.15L25.34 17.23L27.09 17.30L27.19 17.40Q27.99 17.37 28.87 17.29Z"/><path fill="#111" d="M119.18 18.37L119.16 18.35L119.03 18.22Q117.40 14.23 111.19 14.42L111.26 14.48L111.15 14.37Q106.70 14.45 104.72 15.90L104.73 15.91L104.85 16.03Q102.44 17.77 102.44 21.88L102.38 21.82L102.46 23.76L102.31 23.61Q102.48 32.61 111.50 32.61L111.42 32.53L111.46 32.57Q113.38 32.44 114.87 31.64L115.05 31.82L114.86 31.63Q116.77 30.69 116.62 28.82L116.61 28.82L116.58 28.78Q116.38 26.69 112.69 25.77L112.74 25.82L110.73 25.76L110.75 25.78Q109.92 25.89 108.96 25.93L108.90 25.87L108.90 25.86Q108.87 24.88 108.83 22.98L108.92 23.06L108.79 22.93Q116.45 22.94 120.64 22.60L120.63 22.59L120.65 22.61Q120.74 23.58 120.74 24.38L120.73 24.37L120.69 24.33Q120.60 25.04 120.63 25.83L120.66 25.87L120.72 25.92Q119.67 25.98 119.67 25.98L119.61 25.92L119.59 25.90Q118.29 25.96 118.67 25.96L118.62 25.91L118.66 25.95Q119.65 27.47 120.03 29.45L120.14 29.56L120.14 29.57Q120.18 30.21 120.18 30.67L120.25 30.75L120.15 30.64Q120.15 35.29 111.36 35.29L111.33 35.26L111.35 35.28Q104.27 35.32 101.68 33.23L101.72 33.27L101.68 33.22Q99.74 30.91 99.74 25.84L99.75 25.85L99.75 25.85Q99.65 24.69 99.50 21.98L99.44 21.93L99.48 21.96Q99.42 19.70 99.46 18.33L99.43 18.30L99.42 18.28Q99.60 15.50 100.97 13.90L100.82 13.75L100.93 13.86Q103.40 11.72 108.27 11.53L108.37 11.63L111.05 11.57L110.96 11.48Q114.09 11.41 117.52 11.83L117.54 11.85L117.45 11.76Q121.29 12.33 122.25 15.57L122.22 15.55L122.24 15.56Q121.19 16.46 119.10 18.28ZM120.50 20.48L120.58 20.45L120.72 20.59Q121.80 19.39 123.66 17.41L123.59 17.33L123.67 17.41Q123.36 16.45 122.37 14.74L122.36 14.73L122.41 14.78Q121.11 11.99 117.30 11.35L117.32 11.36L117.44 11.49Q115.25 11.31 110.95 11.01L110.91 10.97L108.30 11.18L108.36 11.24Q103.19 11.43 100.60 13.41L100.48 13.30L100.44 13.26Q99.23 15.05 99.12 18.14L98.95 17.97L99.12 18.14Q98.99 17.55 99.22 23.04L99.23 23.05L99.29 23.11Q99.40 24.55 99.47 27.29L99.42 27.24L99.35 27.16Q99.54 31.62 101.29 33.56L101.36 33.63L101.41 33.68Q101.73 34.45 102.60 35.33L102.59 35.32L102.49 35.21Q105.37 37.07 110.89 37.41L111.07 37.59L113.79 37.60L113.80 37.61Q115.52 37.85 117.54 37.74L117.46 37.66L117.46 37.66Q119.02 37.70 121.11 37.17L120.97 37.02L121.04 37.09Q122.89 36.50 122.85 34.18L123.03 34.36L122.95 34.28Q123.01 33.09 121.95 30.31L121.93 30.29L121.88 30.24Q121.56 29.31 121.02 28.51L121.12 28.61L121.05 28.54Q121.63 28.54 122.81 28.73L122.81 28.74L122.88 28.80Q122.56 25.17 122.60 24.49L122.51 24.40L122.54 24.43Q122.14 24.41 121.72 24.37L121.82 24.47L121.67 24.32Q121.47 24.46 121.09 24.54L120.97 24.42L121.04 24.49Q120.91 23.26 120.99 22.19L121.09 22.29L121.04 22.24Q114.83 22.81 108.55 22.70L108.44 22.59L108.55 22.69Q108.63 23.65 108.63 24.56L108.48 24.42L108.61 26.30L108.60 26.28Q108.95 26.26 109.37 26.22L109.32 26.17L109.38 26.23Q109.69 26.12 110.14 26.12L110.25 26.23L110.18 26.16Q110.32 26.75 110.36 27.25L110.31 27.20L110.36 27.25Q110.27 27.62 110.23 28.11L110.32 28.20L110.25 28.13Q111.36 28.17 112.39 28.13L112.27 28.01L112.27 28.02Q113.34 28.06 114.36 28.09L114.40 28.13L114.48 28.20Q115.33 28.26 116.21 28.64L116.36 28.79L116.34 28.81L116.26 28.74Q116.53 30.38 114.86 31.29L114.89 31.32L114.85 31.28Q113.17 32.19 111.46 32.19L111.44 32.17L111.41 32.15Q107.48 32.06 105.04 30.31L105.03 30.30L105.14 30.40Q104.27 28.47 104.43 25.92L104.37 25.87L104.29 25.79Q104.62 21.02 106.47 19.02L106.54 19.08L106.43 18.98Q108.23 16.93 112.91 16.63L113.05 16.76L113.08 16.80Q116.64 16.47 118.58 18.26L118.55 18.23L118.62 18.30Q118.67 18.39 118.78 18.58L118.74 18.54L118.97 18.65L118.87 18.56Q119.54 19.34 120.11 20.44L120.18 20.51L120.38 20.37Z"/><path fill="#333" d="M89.89 32.93L89.95 33.00L89.88 32.92Q90.12 33.85 90.66 35.87L90.66 35.87L90.70 35.91Q86.53 34.63 81.92 34.90L81.86 34.84L81.80 34.78Q77.37 35.18 73.37 37.16L73.29 37.08L73.23 37.02Q73.60 36.48 73.64 36.55L73.57 36.49L73.64 36.55Q77.40 32.62 81.32 28.21L81.32 28.21L81.31 28.20Q85.72 23.21 86.90 18.52L86.83 18.45L86.85 18.47Q87.22 16.63 85.94 15.45L85.97 15.48L85.90 15.41Q84.66 14.26 82.87 14.42L83.01 14.55L82.90 14.45Q82.63 14.48 82.29 14.48L82.27 14.46L82.29 14.48Q80.82 14.54 79.56 15.45L79.56 15.44L79.46 15.34Q78.23 16.78 78.46 19.44L78.33 19.32L78.40 19.39Q76.59 19.03 75.37 18.57L75.49 18.69L75.48 18.67Q75.14 17.12 75.06 15.67L75.08 15.69L75.18 15.79Q75.15 14.19 75.76 13.05L75.65 12.94L75.65 12.94Q77.48 11.61 80.83 11.61L80.80 11.58L82.62 11.65L82.49 11.52Q84.79 11.58 85.74 11.69L85.69 11.64L85.78 11.73Q90.20 12.23 90.46 14.66L90.37 14.56L90.35 14.55Q90.45 15.15 90.38 15.94L90.36 15.93L90.31 15.88Q90.33 16.58 90.17 17.27L90.11 17.20L90.12 17.21Q88.59 25.43 81.01 32.28L81.07 32.33L80.97 32.24Q82.34 32.05 83.72 32.05L83.69 32.02L83.68 32.02Q86.95 32.05 89.81 32.85ZM89.30 12.08L89.25 12.04L89.21 12.00Q87.76 11.50 86.04 11.42L86.07 11.45L82.53 11.14L82.55 11.16Q78.01 10.81 75.80 11.92L75.82 11.93L75.82 11.94Q74.87 13.42 74.87 15.48L74.82 15.42L74.79 15.40Q74.96 16.25 75.27 19.07L75.17 18.97L75.22 19.03Q75.76 19.26 76.94 19.56L76.90 19.52L76.91 20.57L76.82 20.47Q76.85 20.99 76.92 21.52L76.97 21.58L76.96 21.56Q78.15 21.61 80.62 21.84L80.68 21.90L80.74 21.96Q80.60 21.47 80.60 21.13L80.69 21.22L80.53 21.06Q80.63 19.34 81.85 17.98L81.92 18.05L81.80 17.93Q82.97 16.53 84.76 16.64L84.80 16.69L84.93 16.81Q85.52 16.69 86.28 16.84L86.34 16.90L86.37 16.92Q86.41 17.23 86.49 17.65L86.47 17.63L86.63 17.79Q86.64 18.19 86.57 18.53L86.48 18.44L86.49 18.45Q85.32 23.29 80.90 28.13L80.89 28.12L80.94 28.16Q78.71 30.32 73.27 36.37L73.31 36.42L73.31 36.42Q73.10 37.23 72.76 37.80L72.76 37.81L72.66 37.70Q74.37 36.94 75.89 36.41L75.83 36.35L75.77 36.29Q75.06 36.87 74.11 38.36L74.10 38.35L74.25 38.50Q74.10 38.80 73.99 39.15L74.02 39.18L73.86 39.02Q78.85 37.08 84.33 37.27L84.21 37.15L84.26 37.20Q90.02 37.44 94.59 39.80L94.62 39.84L93.56 37.63L93.64 37.71Q92.82 36.20 92.55 35.40L92.72 35.57L92.70 35.55Q91.96 35.12 90.74 34.70L90.68 34.64L90.75 34.71Q90.54 33.93 90.16 32.56L90.22 32.62L90.20 32.60Q87.98 32.01 85.70 31.82L85.68 31.81L85.63 31.76Q90.37 27.25 91.89 18.98L91.92 19.01L92.16 16.17L92.15 16.16Q91.97 14.27 90.75 13.58L90.73 13.56L90.64 13.51L90.73 13.60Q90.75 13.57 90.67 13.57L90.72 13.63L90.67 13.57Q90.40 12.70 89.30 12.09Z"/><path fill="#111" d="M53.35 35.18L53.49 35.32L53.40 35.23Q49.98 35.40 48.34 34.86L48.31 34.83L48.21 34.73Q46.22 34.07 45.92 30.69L45.96 30.73L47.48 29.73L47.55 29.80Q48.17 29.16 48.93 28.67L48.85 28.59L48.92 28.66Q48.67 30.58 50.27 31.80L50.33 31.86L50.24 31.77Q51.47 32.74 53.61 32.55L53.64 32.58L53.73 32.67Q58.13 32.28 57.94 28.74L57.94 28.74L57.97 28.77Q57.63 26.34 55.01 25.12L55.20 25.31L55.21 25.31Q52.25 24.15 49.89 22.93L49.93 22.97L49.82 22.86Q47.34 21.60 46.36 16.92L46.32 16.89L46.26 16.83Q46.17 16.39 46.05 15.63L46.04 15.61L46.06 15.64Q46.11 15.01 46.19 14.44L46.13 14.38L46.16 14.40Q46.35 12.85 47.61 12.39L47.58 12.36L47.58 12.37Q49.90 11.41 53.90 11.60L53.85 11.55L53.86 11.56Q55.84 11.82 56.64 11.90L56.55 11.81L56.51 11.77Q58.11 12.08 59.18 12.54L59.02 12.38L59.15 12.51Q61.14 12.86 61.37 15.33L61.36 15.33L61.48 15.45Q60.43 16.15 58.22 17.48L58.11 17.37L58.12 17.38Q57.80 14.47 53.42 14.47L53.32 14.36L53.35 14.40Q51.43 14.39 50.44 15.07L50.49 15.11L50.48 15.11Q49.42 15.72 49.64 17.51L49.58 17.45L49.49 17.36Q49.81 19.61 52.78 21.14L52.88 21.24L52.71 21.07Q53.33 21.39 57.83 23.03L57.77 22.97L57.74 22.93Q60.48 24.53 60.90 28.91L60.78 28.80L60.79 28.80Q60.84 29.01 60.92 30.27L60.88 30.23L60.90 30.25Q60.98 33.03 59.42 34.14L59.46 34.17L59.38 34.09Q57.62 35.15 53.43 35.27ZM55.77 37.68L55.81 37.72L55.66 37.57Q57.17 37.71 59.15 37.71L59.09 37.65L59.16 37.72Q61.29 37.76 62.55 37.34L62.40 37.19L62.51 37.31Q63.65 36.38 63.57 34.59L63.59 34.61L63.62 34.64Q63.57 33.65 63.19 31.59L63.28 31.67L63.20 31.59Q62.29 26.91 60.19 25.05L60.23 25.09L60.23 25.09Q59.54 23.59 58.20 22.87L58.18 22.84L52.86 20.76L52.87 20.77Q52.53 20.58 52.07 20.35L52.00 20.29L51.96 19.98L51.79 19.46L51.86 19.53Q51.76 18.18 52.90 17.57L52.89 17.56L52.80 17.46Q53.54 16.87 55.25 16.68L55.42 16.85L55.42 16.85Q56.52 16.69 57.66 17.15L57.58 17.07L57.66 17.14Q57.74 17.27 57.93 18.10L57.81 17.98L57.79 17.97Q58.12 17.95 58.62 17.73L58.53 17.64L58.64 17.75Q59.37 18.67 59.48 19.81L59.35 19.68L59.36 19.69Q59.51 19.72 63.16 17.13L63.17 17.13L63.20 17.16Q62.80 14.41 61.35 13.72L61.42 13.79L61.36 13.73Q60.85 12.54 59.41 12.00L59.44 12.04L59.49 12.09Q57.07 11.15 53.87 11.15L53.83 11.11L53.86 11.14Q49.09 11.28 47.23 11.97L47.17 11.91L47.22 11.96Q45.79 12.32 45.67 14.00L45.63 13.95L45.67 13.99Q45.64 14.53 46.06 16.74L45.99 16.67L46.16 16.84Q46.86 20.63 49.03 22.87L49.02 22.86L48.92 22.76Q49.68 24.44 51.19 25.12L51.17 25.11L51.30 25.23Q52.75 25.87 56.68 27.43L56.65 27.41L56.57 27.37L57.35 27.84L57.41 27.94L57.31 27.84Q57.55 28.34 57.59 28.68L57.45 28.55L57.56 28.66Q57.61 32.10 53.69 32.25L53.69 32.25L53.76 32.32Q52.42 32.16 51.13 31.78L51.18 31.84L51.31 31.97Q50.87 31.03 50.87 30.31L50.84 30.28L50.97 30.40Q50.93 30.10 50.96 29.83L50.93 29.80L51.01 29.88Q50.52 30.03 49.72 30.53L49.69 30.50L49.70 30.51Q49.22 29.42 49.38 28.05L49.31 27.99L49.41 28.08Q47.27 29.22 45.67 30.63L45.74 30.70L45.70 30.66Q45.82 31.54 45.90 32.57L45.74 32.41L45.80 32.47Q46.08 34.16 47.38 34.92L47.43 34.98L47.37 34.91Q48.62 36.77 51.17 37.15L51.24 37.23L51.20 37.18Q52.83 37.48 55.76 37.67Z"/><path fill="#222" d="M134.61 27.97L134.67 28.03L134.65 28.01Q137.72 27.62 140.92 27.74L140.94 27.75L140.95 27.76Q140.76 25.06 140.76 22.66L140.84 22.74L140.76 22.67Q140.81 20.24 141.00 17.69L141.02 17.70L141.08 17.77Q139.83 19.45 134.62 27.98ZM144.55 35.36L144.46 35.27L144.54 35.35Q142.91 35.10 141.13 35.02L141.08 34.97L140.98 34.87Q140.90 32.62 140.78 30.15L140.75 30.12L140.82 30.18Q135.37 29.88 130.65 31.28L130.61 31.25L130.62 31.25Q130.83 30.85 131.02 29.86L131.04 29.89L131.06 29.91Q132.79 26.69 136.37 20.40L136.41 20.44L136.36 20.39Q139.16 15.43 142.59 11.55L142.74 11.70L142.71 11.67Q143.60 11.49 145.27 11.23L145.16 11.11L145.15 11.10Q143.30 17.58 143.30 24.63L143.31 24.64L143.37 24.70Q143.26 26.08 143.34 27.56L143.37 27.59L144.62 27.66L144.70 27.74Q145.36 27.83 145.97 27.94L145.92 27.89L145.97 27.95Q145.97 28.82 146.23 30.76L146.20 30.73L146.25 30.78Q145.14 30.62 143.65 30.43L143.60 30.37L143.60 30.37Q143.91 32.47 144.59 35.40ZM146.26 27.60L146.14 27.47L146.18 27.51Q145.94 27.38 145.75 27.38L145.75 27.38L145.31 27.33L145.32 27.34Q145.33 25.98 145.33 24.57L145.31 24.55L145.26 24.50Q145.38 18.23 147.44 12.21L147.26 12.03L147.44 12.21Q146.53 12.33 145.08 12.71L145.20 12.82L145.04 12.67Q145.38 12.02 145.84 10.61L145.83 10.60L145.89 10.66Q144.53 10.98 142.47 11.20L142.49 11.22L142.45 11.18Q138.59 15.58 133.37 24.94L133.36 24.93L135.33 21.16L135.45 21.27Q135.07 22.34 134.81 22.91L134.65 22.76L130.35 31.94L130.38 31.96Q131.01 31.79 132.15 31.41L132.03 31.29L131.92 31.56L131.93 31.57Q131.75 32.19 131.44 33.45L131.48 33.48L131.57 33.57Q135.54 32.10 140.37 32.29L140.45 32.37L140.55 32.46Q140.46 33.29 140.65 35.27L140.73 35.35L140.64 35.25Q141.66 35.21 142.73 35.33L142.87 35.47L142.90 35.50Q142.92 36.05 143.18 37.42L143.25 37.48L143.15 37.39Q145.24 37.80 148.24 38.71L148.16 38.62L148.21 38.67Q147.26 36.58 146.34 33.31L146.15 33.11L147.75 33.73L147.67 33.65Q148.41 33.93 149.10 34.28L149.13 34.31L149.11 34.29Q148.18 31.65 148.03 29.97L148.07 30.02L148.19 30.13Q147.54 29.90 146.40 29.67L146.40 29.67L146.47 29.75Q146.22 28.42 146.22 27.55ZM138.26 27.43L138.11 27.29L138.22 27.39Q139.02 26.14 140.58 23.59L140.59 23.60L140.58 23.59Q140.58 24.53 140.54 25.49L140.44 25.39L140.38 25.32Q140.50 26.44 140.54 27.39L140.49 27.34L140.59 27.44Q139.95 27.33 139.37 27.33L139.33 27.28L139.32 27.27Q138.82 27.39 138.21 27.39Z"/><path d="M13 19 C97 23,98 4,180 24" stroke="#777" fill="none"/><path fill="#444" d="M164.77 21.87L164.72 21.82L164.72 21.82Q166.46 21.92 168.29 21.92L168.29 21.93L168.39 22.03Q170.20 22.04 172.02 21.89L171.91 21.78L171.93 21.80Q171.79 22.42 171.79 23.14L171.84 23.19L171.76 24.45L171.77 24.45Q169.43 24.47 164.67 24.59L164.78 24.70L164.77 24.69Q164.69 30.55 163.55 35.53L163.51 35.49L163.58 35.57Q161.44 36.32 159.96 37.12L159.81 36.98L159.99 37.15Q162.19 30.22 161.93 23.10L161.98 23.15L161.98 23.16Q161.77 16.05 159.10 9.39L159.03 9.31L158.96 9.24Q162.79 11.93 167.54 12.16L167.41 12.02L167.47 12.09Q172.02 12.14 176.17 10.39L176.29 10.51L176.24 10.46Q176.02 11.34 175.79 12.14L175.84 12.19L175.34 13.79L175.35 13.80Q172.61 14.86 169.64 15.01L169.58 14.96L169.51 14.89Q166.61 15.07 163.75 14.35L163.89 14.48L163.74 14.33Q164.61 17.90 164.80 21.90ZM176.84 9.73L176.99 9.87L176.91 9.80Q172.25 11.87 167.37 11.57L167.39 11.58L167.45 11.65Q162.02 11.24 158.28 8.38L158.47 8.56L158.38 8.48Q161.24 15.41 161.55 23.03L161.49 22.97L161.60 23.08Q161.90 30.99 159.38 37.76L159.47 37.85L159.35 37.73Q160.04 37.36 161.41 36.71L161.47 36.77L161.51 36.81Q161.24 37.49 160.67 39.01L160.63 38.97L160.65 39.00Q163.06 38.01 165.95 37.52L165.86 37.43L165.82 37.38Q166.48 32.57 166.67 26.86L166.63 26.81L166.71 26.89Q168.45 26.80 170.27 26.80L170.19 26.72L170.19 26.71Q172.14 26.88 173.97 27.07L173.89 26.99L173.82 26.93Q173.85 26.12 173.85 25.20L173.70 25.05L173.76 23.21L173.69 23.14Q172.99 23.31 172.15 23.31L172.15 23.31L172.13 23.29Q172.16 22.44 172.23 21.42L172.24 21.42L172.21 21.39Q170.90 21.64 169.49 21.64L169.47 21.62L169.51 21.66Q168.16 21.72 166.79 21.68L166.74 21.63L166.69 19.45L166.55 19.31Q166.57 18.26 166.45 17.20L166.39 17.14L166.47 17.21Q167.41 17.24 168.40 17.24L168.42 17.26L168.41 17.25Q173.28 17.36 176.90 15.46L176.87 15.43L176.77 15.33Q177.40 13.64 178.32 11.01L178.29 10.99L178.34 11.04Q176.96 11.79 176.16 12.13L176.08 12.06L176.09 12.07Q176.44 11.39 176.94 9.83Z"/></svg>