<svg xmlns="http://www.w3.org/2000/svg" width="200" height="40" viewBox="0,0,200,40"><path fill="#222" d="M175.66 18.27L175.73 18.34L175.67 18.29Q174.00 14.26 167.80 14.45L167.80 14.45L167.68 14.33Q163.26 14.44 161.28 15.88L161.32 15.92L161.32 15.92Q159.01 17.76 159.01 21.88L158.87 21.74L159.01 23.74L158.91 23.64Q159.01 32.58 168.04 32.58L168.08 32.62L167.97 32.51Q170.07 32.56 171.55 31.76L171.54 31.74L171.55 31.75Q173.31 30.66 173.16 28.79L173.23 28.86L173.27 28.90Q173.06 26.79 169.36 25.87L169.22 25.73L167.42 25.87L167.33 25.78Q166.49 25.90 165.54 25.93L165.43 25.82L165.37 25.77Q165.57 25.01 165.53 23.11L165.46 23.04L165.47 23.05Q173.02 22.94 177.20 22.60L177.37 22.76L177.27 22.66Q177.31 23.58 177.31 24.38L177.26 24.33L177.20 24.27Q177.14 25.01 177.18 25.81L177.34 25.97L177.27 25.90Q176.17 25.91 176.17 25.91L176.16 25.89L176.20 25.93Q174.84 25.94 175.22 25.94L175.14 25.86L175.05 25.78Q176.25 27.51 176.63 29.49L176.66 29.52L176.56 29.42Q176.71 30.17 176.71 30.63L176.74 30.67L176.73 30.65Q176.66 35.22 167.86 35.22L167.92 35.28L167.89 35.25Q160.73 35.21 158.14 33.11L158.23 33.21L158.29 33.26Q156.35 30.94 156.35 25.88L156.35 25.88L156.17 25.70Q156.21 24.67 156.06 21.97L156.12 22.04L156.09 22.01Q155.98 19.68 156.02 18.31L155.97 18.26L155.95 18.25Q156.01 15.34 157.38 13.74L157.39 13.74L157.55 13.91Q159.95 11.70 164.82 11.51L164.94 11.63L167.59 11.54L167.53 11.48Q170.56 11.31 173.98 11.73L174.04 11.79L174.00 11.74Q177.86 12.33 178.82 15.57L178.80 15.55L178.70 15.46Q177.70 16.40 175.61 18.22ZM177.06 20.47L177.24 20.54L177.20 20.50Q178.31 19.32 180.17 17.34L180.33 17.50L180.17 17.34Q179.86 16.38 178.87 14.67L179.03 14.83L178.96 14.77Q177.68 12.00 173.87 11.35L173.91 11.38L174.04 11.51Q171.87 11.36 167.57 11.06L167.59 11.08L164.94 11.25L164.89 11.19Q159.69 11.36 157.10 13.34L157.14 13.39L157.01 13.25Q155.76 15.01 155.64 18.09L155.54 17.99L155.60 18.05Q155.60 17.59 155.82 23.07L155.79 23.03L155.79 23.03Q155.88 24.46 155.96 27.20L156.00 27.25L155.91 27.16Q156.09 31.60 157.84 33.54L157.89 33.59L157.96 33.66Q158.25 34.40 159.12 35.28L159.11 35.27L159.16 35.32Q162.05 37.18 167.57 37.52L167.47 37.42L170.36 37.61L170.36 37.60Q172.08 37.85 174.10 37.73L174.05 37.68L174.04 37.67Q175.44 37.55 177.54 37.02L177.61 37.09L177.55 37.03Q179.52 36.56 179.48 34.24L179.44 34.19L179.56 34.32Q179.50 33.00 178.44 30.23L178.46 30.25L178.54 30.33Q178.21 29.39 177.67 28.59L177.68 28.60L177.68 28.59Q178.14 28.49 179.32 28.68L179.42 28.77L179.48 28.84Q179.14 25.18 179.18 24.49L179.23 24.55L179.09 24.41Q178.75 24.45 178.33 24.41L178.29 24.37L178.42 24.50Q178.03 24.45 177.65 24.53L177.51 24.38L177.58 24.46Q177.61 23.39 177.69 22.32L177.56 22.19L177.70 22.34Q171.32 22.73 165.04 22.62L165.07 22.65L165.04 22.62Q165.09 23.54 165.09 24.46L165.22 24.58L165.06 26.17L165.10 26.21Q165.59 26.33 166.01 26.29L165.98 26.26L165.87 26.15Q166.36 26.22 166.82 26.22L166.83 26.23L166.78 26.18Q166.73 26.59 166.77 27.09L166.74 27.06L166.89 27.20Q166.81 27.58 166.77 28.08L166.76 28.06L166.70 28.01Q167.80 28.04 168.83 28.00L168.99 28.17L168.84 28.02Q169.95 28.09 170.97 28.13L170.86 28.01L170.90 28.06Q172.05 28.40 172.92 28.78L172.90 28.77L172.91 28.81L172.85 28.75Q173.03 30.30 171.35 31.21L171.39 31.25L171.40 31.26Q169.68 32.13 167.97 32.13L168.00 32.16L167.98 32.14Q164.23 32.24 161.80 30.49L161.69 30.39L161.77 30.46Q160.68 28.31 160.83 25.76L160.96 25.88L161.00 25.92Q161.12 20.94 162.97 18.94L163.03 19.01L163.10 19.08Q164.98 17.11 169.66 16.81L169.64 16.79L169.68 16.82Q173.18 16.45 175.13 18.24L175.15 18.26L175.24 18.35Q175.34 18.48 175.45 18.67L175.33 18.56L175.53 18.64L175.52 18.63Q176.18 19.41 176.75 20.51L176.78 20.54L177.10 20.51Z"/><path fill="#333" d="M110.17 24.13L110.29 24.25L110.14 24.09Q108.43 24.25 107.21 25.59L107.17 25.55L107.18 25.55Q106.01 26.93 105.85 28.83L105.84 28.82L105.81 28.79Q105.56 30.87 106.78 31.87L106.77 31.86L106.72 31.81Q108.10 32.98 110.23 32.91L110.21 32.88L110.10 32.77Q112.57 32.77 113.53 31.82L113.41 31.71L113.39 31.69Q114.55 30.37 114.44 28.55L114.38 28.49L114.39 28.50Q114.33 26.69 113.24 25.49L113.23 25.47L113.24 25.48Q112.04 24.17 110.21 24.17ZM110.16 14.72L110.20 14.76L110.23 14.78Q108.74 14.59 107.41 15.08L107.53 15.21L107.46 15.14Q106.12 15.89 106.35 17.75L106.40 17.81L106.42 17.83Q106.81 21.45 110.16 21.45L110.15 21.44L110.13 21.42Q111.86 21.78 112.85 20.64L112.73 20.52L112.70 20.49Q113.75 19.41 113.79 17.85L113.86 17.92L113.73 17.78Q113.92 16.15 113.20 15.55L113.06 15.41L113.08 15.42Q111.52 14.70 110.23 14.78ZM109.95 35.33L109.99 35.37L106.85 35.27L106.88 35.31Q105.33 35.28 104.00 34.40L103.95 34.35L103.97 34.37Q102.56 33.20 102.72 30.34L102.78 30.40L102.74 30.36Q103.20 23.51 106.81 22.52L106.89 22.60L106.87 22.58Q104.54 21.62 103.21 16.26L103.24 16.28L103.24 16.29Q102.94 14.92 103.02 14.12L103.02 14.12L103.09 14.20Q103.28 11.95 106.97 11.91L106.91 11.84L106.95 11.88Q111.29 11.93 112.74 12.12L112.75 12.12L112.65 12.03Q116.55 12.62 117.01 14.63L117.00 14.62L117.05 14.68Q117.02 15.14 117.02 15.52L117.06 15.56L116.99 15.49Q117.12 16.31 116.93 16.92L116.90 16.89L116.96 16.95Q116.23 21.05 113.30 22.57L113.26 22.54L113.41 22.68Q116.80 23.37 117.30 28.66L117.38 28.75L117.34 28.71Q117.41 28.93 117.45 30.22L117.38 30.16L117.47 30.25Q117.51 32.96 115.92 34.02L115.94 34.05L115.92 34.02Q114.47 34.83 109.91 35.28ZM112.29 37.70L112.31 37.72L115.57 37.71L115.60 37.74Q117.37 37.88 118.89 37.15L118.84 37.10L118.80 37.06Q119.98 36.38 120.06 34.51L120.04 34.49L119.97 34.43Q120.14 33.45 119.76 31.51L119.64 31.39L119.66 31.41Q118.82 26.84 116.73 24.98L116.73 24.98L116.48 24.53L116.33 24.31L116.04 23.91L116.06 23.92Q117.87 22.72 118.78 18.57L118.63 18.43L118.63 18.42Q118.62 18.03 118.69 17.19L118.69 17.19L118.75 17.25Q118.89 16.63 118.81 16.02L118.68 15.88L118.67 15.88Q118.63 14.54 117.45 14.05L117.36 13.96L117.37 13.93L117.29 13.93L117.21 13.85Q116.97 13.14 115.78 12.34L115.76 12.32L115.79 12.31L115.87 12.39Q113.92 11.74 109.85 11.55L109.77 11.47L109.81 11.51Q108.26 11.40 106.88 11.52L106.95 11.58L106.81 11.44Q106.11 11.58 104.82 11.73L104.73 11.64L104.74 11.66Q102.83 12.07 102.60 13.71L102.58 13.68L102.61 13.71Q102.65 14.28 102.68 15.08L102.58 14.98L102.68 15.08Q102.81 15.63 103.38 17.99L103.33 17.93L103.34 17.95Q104.13 21.17 105.88 22.50L105.80 22.42L105.86 22.49L105.96 22.58Q103.12 23.81 102.58 28.99L102.59 28.99L102.60 29.00Q102.48 31.28 102.48 32.20L102.33 32.05L102.51 32.23Q102.51 33.94 103.69 34.85L103.62 34.78L103.59 34.75Q103.72 34.85 103.99 35.04L103.98 35.03L104.14 35.19Q105.06 37.37 112.18 37.60ZM111.80 26.48L111.97 26.65L111.86 26.54Q112.83 26.52 113.71 26.98L113.67 26.94L113.63 26.90Q114.10 27.98 114.06 28.51L113.95 28.40L113.90 28.35Q113.96 28.68 113.96 28.99L114.05 29.07L114.09 29.12Q114.05 31.44 111.77 32.28L111.78 32.29L111.83 32.34Q110.96 32.56 110.16 32.45L110.23 32.53L110.17 32.47Q109.03 32.54 107.89 32.09L107.89 32.09L107.98 32.17Q107.67 31.49 107.75 30.50L107.75 30.50L107.63 30.38Q107.90 28.90 109.09 27.68L109.10 27.68L109.01 27.59Q110.22 26.38 111.82 26.50ZM112.14 17.11L112.11 17.08L112.03 17.00Q112.80 16.86 113.33 17.01L113.44 17.12L113.42 17.90L113.43 17.90Q113.40 19.29 112.49 20.30L112.45 20.26L112.49 20.30Q111.57 21.30 110.20 21.11L110.17 21.08L110.30 21.21Q109.19 21.09 108.77 20.86L108.73 20.82L108.75 20.84Q108.69 20.55 108.57 19.87L108.64 19.93L108.60 19.89Q108.50 18.65 109.72 17.81L109.58 17.67L109.52 17.62Q110.76 17.11 112.17 17.15Z"/><path fill="#444" d="M77.15 14.14L77.17 14.16L77.17 14.16Q78.29 18.63 78.44 21.83L78.40 21.78L78.57 21.95Q78.90 21.83 83.28 21.94L83.31 21.98L83.38 22.05Q85.83 21.98 86.21 18.52L86.32 18.63L86.24 18.55Q86.51 16.88 85.60 15.96L85.48 15.84L85.59 15.96Q84.29 15.04 82.31 14.89L82.23 14.80L82.27 14.84Q79.03 14.62 77.17 14.16ZM78.55 23.76L78.63 23.84L78.53 23.74Q78.81 29.85 77.02 35.79L77.01 35.77L77.09 35.85Q75.64 35.97 73.05 37.00L73.16 37.11L73.12 37.06Q76.02 30.64 75.68 23.17L75.61 23.11L75.59 23.08Q75.26 15.72 71.95 9.21L72.03 9.29L71.91 9.17Q76.94 12.14 83.91 12.14L83.83 12.07L83.91 12.15Q89.56 12.16 89.83 15.70L89.68 15.56L89.84 15.71Q89.73 16.14 89.66 16.75L89.68 16.77L89.63 17.94L89.69 17.99Q88.85 21.92 86.72 23.63L86.71 23.63L86.73 23.65Q85.82 24.21 84.79 24.21L84.84 24.27L82.28 24.30L82.38 24.40Q87.91 31.57 92.45 36.13L92.34 36.03L92.47 36.16Q90.29 35.43 87.36 35.08L87.19 34.92L87.30 35.02Q83.55 31.08 78.64 23.85ZM87.15 35.37L87.10 35.32L87.51 35.42L88.72 36.64L88.78 36.70Q89.19 37.07 89.84 37.68L89.87 37.71L89.98 37.82Q93.57 38.48 97.15 40.35L97.15 40.35L97.02 40.21Q90.10 33.48 84.69 26.55L84.70 26.56L86.51 26.62L86.46 26.57Q89.60 26.63 90.93 22.10L90.90 22.07L90.84 22.00Q91.67 19.94 91.67 17.24L91.65 17.22L91.54 17.11Q91.59 14.88 89.88 14.23L89.82 14.17L89.85 14.20Q89.74 13.82 89.16 13.13L89.16 13.13L89.15 13.12Q87.45 11.65 83.80 11.57L83.78 11.55L83.81 11.59Q75.90 11.41 71.22 8.40L71.25 8.43L71.31 8.49Q74.95 15.21 75.29 22.90L75.28 22.89L75.45 23.06Q75.79 31.01 72.67 37.86L72.57 37.77L72.54 37.74Q73.78 37.15 74.58 36.84L74.55 36.82L73.56 39.10L73.58 39.12Q76.43 38.21 79.10 37.71L79.15 37.76L79.04 37.65Q80.38 32.60 80.57 27.38L80.54 27.36L80.59 27.40Q84.00 32.25 87.16 35.38ZM85.97 17.52L85.99 17.53L85.88 17.43Q85.88 17.66 85.88 18.00L85.90 18.02L85.85 18.54L85.89 18.57Q85.89 19.68 85.21 20.63L85.24 20.66L85.34 20.76Q84.57 21.37 83.65 21.56L83.75 21.65L83.83 21.73Q83.50 21.67 81.90 21.71L81.97 21.77L82.00 21.81Q81.24 21.66 80.40 21.54L80.59 21.73L80.41 21.54Q80.42 20.15 80.08 17.11L80.08 17.11L79.99 17.02Q81.40 17.21 82.08 17.21L82.07 17.19L82.16 17.29Q83.97 17.26 85.91 17.45Z"/><path fill="#333" d="M53.39 35.22L53.31 35.14L53.43 35.27Q50.02 35.44 48.39 34.91L48.21 34.73L48.26 34.78Q46.36 34.21 46.05 30.82L46.05 30.82L47.50 29.75L47.42 29.67Q48.24 29.24 49.00 28.74L49.03 28.77L49.04 28.78Q48.74 30.65 50.34 31.87L50.19 31.72L50.24 31.77Q51.59 32.86 53.72 32.67L53.76 32.70L53.79 32.73Q58.02 32.17 57.83 28.63L57.83 28.63L57.88 28.67Q57.67 26.37 55.04 25.15L55.08 25.19L55.11 25.22Q52.27 24.17 49.91 22.95L49.91 22.95L49.83 22.87Q47.31 21.57 46.32 16.88L46.37 16.93L46.43 17.00Q46.18 16.40 46.06 15.64L46.15 15.73L46.06 15.64Q45.96 14.86 46.04 14.28L46.11 14.35L46.04 14.28Q46.26 12.75 47.51 12.29L47.54 12.32L47.60 12.38Q49.97 11.47 53.96 11.66L53.96 11.66L54.01 11.71Q55.75 11.74 56.55 11.82L56.52 11.78L56.46 11.72Q58.06 12.03 59.12 12.48L59.09 12.45L59.20 12.56Q61.29 13.01 61.52 15.48L61.42 15.39L61.34 15.31Q60.32 16.03 58.11 17.37L58.24 17.50L58.13 17.39Q57.77 14.45 53.40 14.45L53.46 14.51L53.38 14.43Q51.43 14.38 50.44 15.07L50.43 15.06L50.59 15.22Q49.22 15.53 49.45 17.32L49.63 17.50L49.46 17.32Q49.76 19.56 52.72 21.08L52.70 21.06L52.76 21.12Q53.29 21.34 57.78 22.98L57.73 22.93L57.87 23.07Q60.49 24.54 60.90 28.92L60.86 28.87L60.94 28.96Q60.90 29.07 60.98 30.33L61.02 30.37L60.84 30.19Q60.99 33.04 59.43 34.14L59.46 34.18L59.43 34.15Q57.65 35.18 53.46 35.30ZM55.75 37.66L55.66 37.57L55.68 37.59Q57.23 37.77 59.21 37.77L59.05 37.61L59.16 37.72Q61.19 37.66 62.45 37.24L62.57 37.37L62.58 37.38Q63.63 36.37 63.56 34.58L63.71 34.73L63.70 34.73Q63.52 33.59 63.14 31.54L63.20 31.60L63.15 31.55Q62.24 26.87 60.14 25.00L60.28 25.14L60.17 25.03Q59.46 23.52 58.13 22.80L58.05 22.71L52.71 20.61L52.71 20.61Q52.52 20.58 52.06 20.35L52.09 20.37L51.95 19.97L51.95 19.62L51.84 19.51Q51.68 18.10 52.82 17.49L52.94 17.61L52.83 17.50Q53.72 17.05 55.43 16.86L55.26 16.69L55.33 16.76Q56.52 16.70 57.66 17.15L57.59 17.08L57.56 17.04Q57.60 17.12 57.79 17.96L57.88 18.06L57.93 18.10Q58.05 17.88 58.55 17.66L58.59 17.70L58.62 17.73Q59.22 18.52 59.33 19.66L59.49 19.82L59.37 19.69Q59.46 19.68 63.12 17.09L63.07 17.04L63.04 17.01Q62.89 14.50 61.44 13.81L61.34 13.71L61.36 13.73Q60.91 12.59 59.46 12.06L59.33 11.93L59.31 11.91Q57.10 11.19 53.91 11.19L54.01 11.29L53.98 11.26Q49.01 11.20 47.14 11.88L47.20 11.94L47.17 11.91Q45.83 12.36 45.71 14.03L45.76 14.08L45.70 14.02Q45.71 14.60 46.13 16.81L46.14 16.82L46.09 16.77Q46.80 20.56 48.97 22.81L48.91 22.75L49.01 22.85Q49.71 24.47 51.22 25.15L51.20 25.14L51.22 25.15Q52.66 25.78 56.58 27.34L56.66 27.41L56.60 27.39L57.33 27.82L57.30 27.83L57.40 27.93Q57.44 28.23 57.47 28.57L57.49 28.59L57.53 28.63Q57.56 32.05 53.64 32.20L53.60 32.16L53.64 32.20Q52.62 32.36 51.32 31.98L51.31 31.96L51.13 31.79Q50.88 31.04 50.88 30.32L50.85 30.28L50.98 30.41Q50.96 30.13 51.00 29.86L50.93 29.79L50.87 29.74Q50.62 30.13 49.82 30.63L49.79 30.60L49.68 30.48Q49.18 29.37 49.33 28.00L49.33 28.01L49.33 28.00Q47.24 29.19 45.65 30.60L45.61 30.57L45.62 30.57Q45.73 31.45 45.80 32.47L45.91 32.58L45.77 32.44Q46.18 34.25 47.47 35.02L47.37 34.92L47.48 35.02Q48.70 36.86 51.26 37.24L51.23 37.21L51.15 37.14Q52.82 37.48 55.76 37.67Z"/><path fill="#444" d="M22.53 14.27L22.69 14.43L22.56 14.29Q23.51 18.64 23.67 22.21L23.53 22.08L23.72 22.27Q24.68 22.20 25.74 22.20L25.87 22.33L27.93 22.18L28.01 22.25Q29.07 22.25 29.95 20.84L29.94 20.83L29.99 20.89Q30.71 19.70 30.82 18.52L30.76 18.45L30.78 18.48Q31.16 15.47 26.94 14.98L26.88 14.92L26.87 14.92Q25.30 14.98 22.68 14.41ZM23.61 24.90L23.59 24.88L23.64 24.93Q23.58 31.15 22.43 35.56L22.52 35.65L22.39 35.52Q20.91 35.91 18.59 36.97L18.61 36.99L18.59 36.97Q21.05 30.41 20.78 23.14L20.86 23.21L20.76 23.11Q20.50 15.78 17.73 9.34L17.67 9.29L17.65 9.27Q21.83 12.08 28.07 12.08L28.05 12.06L28.14 12.14Q34.07 12.02 34.22 15.48L34.18 15.45L34.19 15.46Q34.27 17.89 33.28 20.56L33.39 20.66L33.41 20.69Q32.98 21.79 32.03 23.00L32.09 23.06L31.97 22.94Q30.68 24.58 28.13 24.85L28.06 24.78L28.21 24.93Q25.91 24.91 23.66 24.95ZM29.74 27.15L29.78 27.18L29.86 27.27Q33.91 27.40 35.17 22.60L35.11 22.54L35.24 22.67Q36.17 18.99 36.01 16.97L35.91 16.87L36.02 16.98Q35.82 15.37 35.06 14.38L35.21 14.53L35.06 14.39Q34.86 14.19 34.37 13.96L34.32 13.91L34.24 13.83Q34.31 13.75 33.70 12.99L33.69 12.97L33.76 13.05Q32.12 11.63 28.16 11.63L28.13 11.60L28.25 11.72Q21.29 11.66 17.07 8.50L16.98 8.41L17.01 8.44Q20.29 15.63 20.55 23.10L20.42 22.97L20.39 22.93Q20.74 30.67 18.08 37.75L18.05 37.73L18.13 37.81Q19.21 37.17 20.20 36.79L20.23 36.83L19.77 37.88L19.77 37.88Q19.54 38.41 19.27 38.99L19.40 39.12L19.28 39.00Q21.68 37.93 24.57 37.39L24.61 37.44L24.74 37.57Q25.55 32.02 25.63 27.29L25.53 27.20L25.56 27.23Q26.64 27.13 27.63 27.13L27.71 27.21L27.59 27.09Q29.05 27.21 29.85 27.25ZM28.86 17.28L28.93 17.35L28.84 17.26Q29.25 17.17 30.24 17.40L30.41 17.57L30.31 17.48Q30.38 17.66 30.42 17.97L30.44 17.98L30.47 18.02Q30.44 18.22 30.37 18.48L30.34 18.46L30.34 18.46Q30.26 19.71 29.54 20.59L29.61 20.66L29.57 20.62Q29.09 21.78 28.06 21.97L27.99 21.90L27.98 21.88Q27.23 21.86 25.59 21.86L25.61 21.88L25.63 21.89Q25.50 19.52 25.27 17.16L25.42 17.30L27.04 17.25L27.10 17.32Q27.95 17.32 28.82 17.25Z"/><path d="M18 8 C98 24,80 12,193 27" stroke="#444" fill="none"/><path d="M14 24 C86 38,84 14,197 27" stroke="#888" fill="none"/><path fill="#333" d="M147.23 35.47L147.07 35.31L147.14 35.38Q144.16 31.49 141.54 22.85L141.48 22.79L141.63 22.95Q140.81 20.64 140.01 18.50L140.12 18.62L137.12 27.26L137.25 27.40Q135.47 32.36 133.07 35.59L132.95 35.47L133.01 35.53Q132.08 35.51 130.45 35.67L130.58 35.80L130.54 35.76Q130.57 34.50 130.57 33.24L130.54 33.21L130.59 33.26Q130.68 27.34 127.94 21.21L127.82 21.09L127.91 21.18Q124.67 14.17 118.81 9.18L118.94 9.31L118.91 9.28Q120.97 9.90 123.33 10.43L123.31 10.41L123.42 10.52Q132.08 18.95 133.37 29.91L133.45 29.99L133.37 29.91Q134.92 26.51 136.37 21.14L136.41 21.19L136.37 21.15Q138.47 13.77 138.97 12.36L138.82 12.21L141.13 12.28L141.25 12.39Q141.83 14.31 142.48 16.63L142.56 16.72L143.81 21.17L143.70 21.05Q145.26 26.49 146.67 29.73L146.70 29.76L146.82 29.88Q148.41 18.19 156.33 10.84L156.35 10.86L156.34 10.85Q157.81 10.46 160.78 9.81L160.84 9.87L160.76 9.79Q155.41 14.07 152.36 20.20L152.39 20.23L152.53 20.36Q149.42 26.59 149.42 33.36L149.30 33.24L149.42 33.36Q149.25 34.30 149.33 35.44L149.38 35.49L148.36 35.50L148.23 35.36Q147.79 35.46 147.22 35.46ZM153.32 38.21L153.42 38.31L153.38 38.27Q152.11 34.68 152.22 30.79L152.17 30.74L152.17 30.74Q152.55 19.25 161.92 10.99L161.93 11.00L161.94 11.01Q161.09 11.34 159.15 11.87L159.04 11.77L159.10 11.82Q160.09 11.02 161.99 9.23L161.96 9.20L161.95 9.19Q159.22 9.89 156.29 10.38L156.30 10.39L156.36 10.46Q148.73 17.44 146.83 26.92L146.99 27.09L146.94 27.04Q146.32 25.35 143.47 13.89L143.43 13.86L143.53 13.96Q143.00 13.92 142.05 13.92L142.03 13.90L141.85 12.96L141.83 12.94Q141.61 12.30 141.38 11.81L141.48 11.90L138.53 11.85L138.49 11.81Q137.71 14.30 136.43 19.42L136.51 19.49L136.55 19.53Q135.26 24.64 134.27 27.11L134.17 27.02L134.29 27.14Q132.56 19.09 127.00 12.77L127.02 12.78L127.02 12.78Q126.58 12.76 125.62 12.57L125.54 12.49L125.61 12.56Q124.89 11.72 123.33 10.08L123.44 10.19L123.35 10.11Q119.88 9.22 117.71 8.42L117.77 8.49L117.84 8.56Q123.37 13.09 126.64 19.30L126.65 19.31L126.67 19.32Q130.10 25.92 130.10 32.92L130.27 33.09L130.17 32.99Q130.14 34.52 129.95 36.12L130.01 36.18L130.03 36.20Q130.15 36.09 130.60 35.99L130.74 36.13L130.66 36.06Q131.09 35.93 131.32 35.93L131.43 36.04L131.34 36.98L131.45 37.09Q131.39 37.49 131.47 38.02L131.53 38.09L131.54 38.09Q132.54 37.88 134.83 37.72L134.97 37.87L134.78 37.68Q138.57 32.45 141.31 23.04L141.18 22.91L141.18 22.91Q143.97 31.72 146.94 35.68L146.91 35.65L147.03 35.76Q147.52 35.80 148.35 35.91L148.33 35.89L148.39 35.94Q149.07 36.82 150.14 37.89L150.27 38.01L150.22 37.97Q150.90 37.93 153.30 38.19Z"/></svg>