<svg xmlns="http://www.w3.org/2000/svg" width="200" height="40" viewBox="0,0,200,40"><path fill="#333" d="M22.73 14.47L22.57 14.30L22.67 14.40Q23.42 18.54 23.57 22.12L23.61 22.16L23.56 22.11Q24.76 22.28 25.82 22.28L25.87 22.32L28.08 22.32L28.04 22.28Q28.94 22.12 29.82 20.71L29.90 20.80L29.95 20.84Q30.59 19.58 30.70 18.40L30.67 18.37L30.74 18.44Q31.03 15.34 26.81 14.85L26.88 14.92L26.94 14.98Q25.36 15.03 22.73 14.46ZM23.63 24.92L23.74 25.03L23.68 24.97Q23.52 31.09 22.38 35.51L22.40 35.53L22.53 35.66Q21.05 36.04 18.73 37.11L18.65 37.03L18.61 36.99Q20.95 30.31 20.68 23.04L20.75 23.11L20.79 23.15Q20.42 15.69 17.64 9.26L17.72 9.33L17.73 9.35Q21.86 12.11 28.11 12.11L28.17 12.18L28.07 12.07Q34.03 11.99 34.19 15.45L34.37 15.64L34.37 15.63Q34.38 18.00 33.39 20.67L33.33 20.61L33.38 20.66Q33.01 21.81 32.06 23.03L32.08 23.05L31.99 22.96Q30.78 24.69 28.23 24.95L28.10 24.82L28.15 24.87Q25.92 24.93 23.68 24.96ZM29.81 27.21L29.76 27.17L29.70 27.11Q33.95 27.43 35.21 22.64L35.15 22.58L35.29 22.72Q36.24 19.07 36.09 17.05L36.05 17.01L35.97 16.93Q35.89 15.44 35.13 14.45L35.05 14.37L35.09 14.41Q34.76 14.09 34.27 13.86L34.22 13.81L34.32 13.91Q34.30 13.74 33.69 12.98L33.72 13.00L33.58 12.87Q32.04 11.56 28.09 11.56L28.19 11.67L28.16 11.63Q21.28 11.64 17.05 8.48L17.13 8.56L16.99 8.42Q20.19 15.54 20.46 23.00L20.51 23.06L20.43 22.97Q20.74 30.67 18.08 37.75L18.16 37.83L18.19 37.87Q19.07 37.04 20.06 36.66L20.17 36.77L19.82 37.94L19.87 37.99Q19.56 38.44 19.30 39.01L19.32 39.03L19.35 39.07Q21.70 37.95 24.59 37.42L24.67 37.50L24.65 37.48Q25.43 31.90 25.51 27.17L25.51 27.18L25.66 27.33Q26.63 27.12 27.62 27.12L27.62 27.12L27.76 27.26Q28.96 27.12 29.75 27.16ZM28.80 17.22L28.88 17.30L28.84 17.26Q29.38 17.31 30.37 17.53L30.24 17.41L30.24 17.41Q30.50 17.78 30.54 18.09L30.51 18.05L30.42 17.97Q30.46 18.24 30.39 18.50L30.43 18.55L30.53 18.65Q30.36 19.81 29.64 20.69L29.50 20.55L29.65 20.70Q28.99 21.67 27.96 21.86L28.05 21.95L27.95 21.85Q27.31 21.94 25.67 21.94L25.63 21.90L25.54 21.80Q25.66 19.68 25.43 17.32L25.40 17.29L27.09 17.30L26.99 17.20Q27.91 17.29 28.79 17.21Z"/><path fill="#333" d="M56.57 34.82L56.61 34.87L56.63 34.88Q54.63 34.79 52.61 34.98L52.54 34.91L52.66 35.03Q53.21 29.67 53.21 24.84L53.31 24.94L53.37 25.00Q53.39 20.11 52.74 14.90L52.69 14.84L52.74 14.89Q48.02 14.36 44.82 12.69L44.84 12.70L44.10 10.94L44.06 10.90Q43.93 10.47 43.33 9.25L43.34 9.26L43.32 9.24Q48.32 11.84 54.34 12.03L54.52 12.21L54.43 12.12Q60.25 12.24 65.70 10.19L65.72 10.21L65.74 10.23Q65.08 11.70 64.43 13.52L64.31 13.41L64.36 13.46Q60.87 14.88 56.61 15.07L56.55 15.02L56.50 14.96Q56.30 19.98 56.30 24.93L56.27 24.90L56.23 24.85Q56.38 29.95 56.68 34.94ZM66.45 9.56L66.40 9.52L66.37 9.49Q60.50 11.73 54.29 11.54L54.47 11.71L54.30 11.54Q47.74 11.46 42.64 8.49L42.70 8.55L42.58 8.42Q43.39 9.77 44.69 13.05L44.74 13.10L44.65 13.01Q45.29 13.31 46.55 13.88L46.66 13.99L46.48 13.81Q46.83 14.62 47.17 16.14L47.25 16.21L47.15 16.12Q49.56 17.08 52.61 17.31L52.59 17.29L52.57 17.27Q52.99 21.01 52.99 24.78L52.89 24.67L52.86 24.65Q52.86 30.01 52.06 35.38L52.13 35.45L52.18 35.50Q53.86 35.39 54.40 35.39L54.40 35.40L54.33 35.33Q54.23 35.53 54.17 36.20L54.17 36.20L54.25 36.28Q54.15 36.90 54.15 37.24L54.28 37.37L54.28 37.37Q55.44 37.28 56.97 37.36L56.83 37.22L56.98 37.37Q57.81 37.32 59.64 37.48L59.71 37.55L59.62 37.45Q58.47 32.62 58.36 27.44L58.26 27.35L58.28 27.36Q58.08 21.99 58.62 17.08L58.75 17.21L58.66 17.12Q62.55 16.52 65.71 15.30L65.83 15.42L65.88 15.47Q66.53 13.04 67.56 10.98L67.50 10.92L67.60 11.02Q66.08 11.53 65.29 11.83L65.33 11.88L65.48 12.02Q65.89 10.72 66.46 9.58Z"/><path d="M6 20 C109 31,114 21,193 14" stroke="#444" fill="none"/><path d="M12 38 C103 2,95 7,181 7" stroke="#222" fill="none"/><path fill="#111" d="M158.72 9.33L158.63 9.24L158.63 9.24Q162.43 11.78 167.19 12.01L167.26 12.08L167.34 12.16Q171.95 12.32 176.21 10.57L176.06 10.42L176.15 10.50Q175.97 11.12 175.21 13.90L175.06 13.75L175.14 13.83Q172.34 14.80 169.37 14.96L169.41 14.99L169.36 14.94Q166.37 15.08 163.48 14.36L163.47 14.35L163.59 14.46Q164.32 18.13 164.51 21.78L164.52 21.79L164.41 21.68Q166.51 21.99 168.11 21.95L168.12 21.97L168.04 21.89Q169.19 21.82 171.59 21.70L171.62 21.73L171.74 21.85Q171.73 22.53 171.73 23.21L171.69 23.18L171.57 24.39L171.58 24.40Q169.19 24.40 164.39 24.48L164.42 24.51L164.38 24.46Q164.37 28.57 163.80 32.57L163.93 32.70L163.85 32.62Q166.50 32.00 169.24 32.11L169.23 32.10L169.24 32.10Q171.98 32.23 174.57 33.06L174.59 33.08L174.63 33.12Q174.71 33.92 174.97 34.68L174.96 34.66L175.41 36.19L175.27 36.04Q172.23 34.90 168.80 34.90L168.68 34.79L168.67 34.77Q163.87 34.84 159.60 37.09L159.64 37.12L159.60 37.08Q161.91 30.26 161.65 23.14L161.66 23.16L161.60 23.09Q161.45 16.05 158.78 9.39ZM159.15 37.85L159.15 37.86L159.07 37.78Q160.36 37.08 161.12 36.74L161.17 36.79L161.06 36.68Q160.81 37.39 160.24 38.91L160.41 39.07L160.29 38.96Q164.90 37.05 169.96 37.32L169.89 37.25L169.93 37.29Q175.18 37.67 179.18 40.37L179.12 40.32L179.14 40.33Q177.97 37.80 177.29 35.85L177.31 35.88L177.19 35.76Q176.25 35.19 175.26 34.85L175.34 34.94L175.23 34.82Q174.87 33.48 174.72 32.68L174.66 32.61L174.67 32.62Q171.58 31.63 168.42 31.63L168.49 31.70L168.43 31.64Q167.40 31.76 166.26 31.87L166.26 31.87L166.25 31.86Q166.37 30.61 166.41 29.39L166.42 29.41L166.35 26.74L166.41 26.81Q168.17 26.66 169.96 26.70L170.00 26.74L170.09 26.82Q171.84 26.79 173.63 26.95L173.65 26.96L173.59 26.91Q173.63 26.07 173.63 25.12L173.65 25.13L173.53 23.11L172.79 23.25L172.84 23.30Q172.29 23.24 171.83 23.24L171.89 23.30L171.95 23.36Q172.00 22.72 172.15 21.43L172.12 21.39L172.04 21.31Q170.43 21.54 169.25 21.57L169.34 21.66L169.20 21.52Q168.37 21.64 166.54 21.57L166.53 21.56L166.51 21.53Q166.46 20.15 166.27 17.33L166.26 17.32L166.26 17.33Q167.31 17.46 168.30 17.46L168.29 17.45L168.31 17.47Q173.05 17.50 176.75 15.59L176.65 15.49L176.58 15.43Q177.28 13.19 178.15 10.98L178.15 10.98L178.10 10.93Q176.68 11.69 175.85 12.03L175.85 12.04L175.87 12.05Q176.28 11.40 176.74 9.84L176.65 9.75L176.77 9.87Q172.09 11.96 167.22 11.66L167.12 11.56L167.23 11.67Q161.93 11.36 158.08 8.50L158.02 8.44L158.04 8.45Q161.01 15.50 161.31 23.12L161.21 23.01L161.22 23.03Q161.49 30.91 158.98 37.68Z"/><path fill="#222" d="M79.22 35.30L79.26 35.35L79.28 35.36Q75.23 35.61 74.24 33.29L74.17 33.22L74.14 33.19Q74.96 32.30 76.52 30.51L76.56 30.55L76.60 30.59Q77.15 32.66 80.15 32.77L80.07 32.69L80.07 32.69Q83.45 32.76 85.09 31.43L85.16 31.50L85.15 31.49Q86.40 29.72 86.32 27.02L86.46 27.16L86.37 27.07Q86.25 22.04 81.45 22.27L81.42 22.23L81.50 22.31Q78.57 22.36 76.82 23.61L76.90 23.69L76.64 23.59L76.41 23.43L76.34 23.36Q76.75 20.27 76.64 17.53L76.69 17.58L76.69 17.58Q76.45 14.82 76.10 11.51L76.10 11.51L76.13 11.54Q79.77 12.47 83.57 12.36L83.70 12.49L83.56 12.34Q87.47 12.37 91.05 11.12L90.94 11.01L90.51 12.67L90.46 12.62Q90.02 13.24 89.83 14.08L89.98 14.23L89.97 14.23Q86.89 15.29 83.01 15.29L82.88 15.17L82.85 15.14Q81.42 15.15 79.93 15.00L79.96 15.02L79.96 15.02Q79.91 15.73 79.56 20.19L79.61 20.24L79.61 20.23Q80.45 19.78 82.50 19.62L82.55 19.67L82.48 19.60Q86.22 19.84 87.66 21.51L87.62 21.47L87.57 21.41Q88.99 22.99 89.25 26.83L89.23 26.81L89.36 26.94Q89.49 30.99 88.27 33.01L88.36 33.10L88.28 33.01Q86.22 34.88 82.91 35.10L83.02 35.22L82.92 35.11Q81.89 35.15 79.22 35.30ZM85.37 37.68L85.41 37.72L85.38 37.69Q88.77 37.73 90.68 36.63L90.65 36.61L90.61 36.57Q91.66 35.11 91.66 33.01L91.61 32.96L91.75 33.10Q91.73 29.99 90.77 25.88L90.64 25.74L90.70 25.80Q90.30 24.03 89.08 22.62L89.04 22.58L89.23 22.82L88.90 22.41L88.53 22.19L88.49 22.15Q88.37 21.61 87.73 20.93L87.73 20.93L87.66 20.90L87.64 20.88Q86.16 19.25 82.47 19.25L82.32 19.10L82.20 19.25L82.06 19.11Q82.23 18.63 82.42 17.53L82.47 17.57L82.50 17.61Q87.45 17.68 91.48 16.04L91.54 16.10L91.41 15.97Q91.81 14.54 92.76 11.73L92.79 11.75L90.65 12.66L90.62 12.63Q91.03 11.51 91.52 10.37L91.67 10.52L91.66 10.50Q87.66 11.81 83.55 11.88L83.70 12.02L83.54 11.87Q79.53 12.08 75.57 10.98L75.62 11.03L75.64 11.05Q76.22 15.36 76.22 19.78L76.17 19.73L76.21 19.77Q76.20 21.66 76.09 23.56L76.06 23.54L76.16 23.64Q76.45 23.85 77.02 24.15L77.00 24.14L76.99 24.13Q77.31 23.87 77.95 23.53L78.03 23.61L78.01 23.59Q77.85 24.22 77.62 25.74L77.75 25.87L77.73 25.85Q78.10 25.99 78.51 26.22L78.56 26.26L78.50 26.20Q81.37 24.55 83.24 24.55L83.17 24.48L83.28 24.59Q84.54 24.52 85.72 25.16L85.70 25.14L85.77 25.22Q86.13 26.26 86.17 27.21L86.10 27.14L86.02 27.06Q86.14 29.70 85.11 30.80L85.03 30.72L85.03 30.72Q83.69 31.96 81.44 32.19L81.53 32.28L81.43 32.18Q80.62 32.40 79.94 32.33L79.82 32.21L79.86 32.25Q79.00 32.11 78.24 31.77L78.18 31.72L78.19 31.53L78.05 31.62L78.09 31.66Q77.30 31.17 76.77 29.84L76.69 29.76L76.73 29.81Q75.54 31.36 73.87 33.49L73.87 33.49L73.72 33.34Q74.02 33.99 74.86 34.94L74.88 34.96L75.02 35.09Q75.95 36.79 78.77 37.29L78.87 37.38L78.77 37.28Q79.98 37.55 85.35 37.66Z"/><path fill="#222" d="M138.66 14.72L138.64 14.70L136.95 14.68L137.08 14.81Q134.68 14.78 134.46 16.80L134.61 16.95L134.58 16.92Q134.56 17.70 134.59 18.68L134.59 18.68L134.54 18.63Q134.61 20.61 135.87 21.94L135.84 21.91L135.80 21.87Q137.02 23.16 138.92 23.01L139.04 23.14L138.87 22.96Q140.95 22.84 141.71 21.92L141.77 21.98L141.84 22.04Q142.81 21.04 143.08 18.79L143.19 18.91L143.06 18.78Q143.30 16.51 142.05 15.67L142.18 15.80L142.19 15.81Q141.15 14.85 138.48 14.54ZM144.55 23.81L144.64 23.90L143.38 26.21L143.25 26.08Q140.55 30.89 136.78 34.96L136.91 35.09L136.90 35.08Q135.20 35.17 132.50 35.96L132.44 35.90L132.50 35.97Q137.83 29.69 140.99 24.89L141.01 24.91L141.11 25.01Q140.00 25.57 138.36 25.65L138.36 25.65L138.43 25.72Q135.29 25.74 133.77 23.76L133.91 23.90L133.84 23.84Q132.60 22.22 131.50 17.65L131.41 17.56L131.41 17.56Q131.51 17.20 131.36 16.27L131.32 16.23L131.26 16.17Q131.26 15.39 131.26 14.93L131.15 14.82L131.24 14.91Q131.27 13.15 132.34 12.54L132.32 12.52L132.22 12.43Q133.55 11.78 135.42 11.78L135.41 11.77L135.26 11.63Q138.48 11.64 138.48 11.64L138.48 11.65L138.45 11.61Q140.65 11.69 141.91 11.88L141.91 11.88L141.91 11.88Q144.15 12.25 145.06 12.75L144.92 12.61L145.01 12.70Q146.31 13.38 146.50 15.13L146.47 15.11L146.59 15.23Q146.60 15.46 146.41 18.12L146.37 18.09L146.38 18.10Q146.05 20.29 145.83 21.12L145.79 21.08L145.74 21.03Q145.40 22.49 144.64 23.90ZM146.56 26.32L146.57 26.32L146.51 26.26Q147.59 24.14 148.12 19.84L147.97 19.69L148.10 19.82Q148.31 17.55 148.27 16.68L148.30 16.71L148.27 16.67Q148.34 14.92 147.16 14.01L147.00 13.85L146.76 13.80L146.84 13.87Q146.54 13.08 145.62 12.43L145.61 12.41L145.52 12.33Q143.21 11.31 138.41 11.16L138.40 11.15L138.50 11.24Q137.53 11.23 135.10 11.23L135.13 11.27L135.01 11.15Q133.33 11.22 131.85 11.90L131.92 11.97L131.78 11.84Q130.63 12.63 130.71 14.46L130.88 14.63L130.75 14.50Q131.09 15.56 131.28 17.58L131.09 17.39L131.09 17.39Q131.83 20.15 132.10 20.99L131.99 20.88L132.01 20.90Q132.58 22.76 133.53 24.06L133.55 24.08L133.60 24.12Q133.80 24.40 134.18 24.78L134.18 24.78L134.27 24.87Q134.49 25.29 135.14 26.20L135.21 26.27L135.09 26.14Q136.70 27.64 138.64 27.83L138.60 27.80L138.63 27.82Q136.59 30.35 135.03 32.25L135.04 32.27L131.47 36.69L131.57 36.79Q133.76 35.97 135.39 35.63L135.33 35.56L135.43 35.66Q134.54 36.41 132.98 38.12L133.11 38.25L133.06 38.20Q136.16 37.31 139.28 37.27L139.20 37.19L139.20 37.18Q141.60 34.67 145.94 27.44L145.87 27.37L145.93 27.51L145.97 27.55Q146.28 26.87 146.63 26.38ZM140.59 17.10L140.47 16.98L140.47 16.98Q141.17 16.97 141.63 17.08L141.60 17.05L141.61 17.06Q142.31 17.23 142.69 17.34L142.67 17.32L142.54 17.19Q142.65 17.57 142.73 17.99L142.75 18.01L142.72 17.98Q142.97 18.57 142.86 18.96L142.72 18.82L142.84 18.94Q142.65 20.50 141.47 21.60L141.45 21.58L141.58 21.71Q140.58 22.69 138.94 22.65L138.95 22.66L138.88 22.59Q138.63 22.76 137.11 22.45L136.91 22.26L136.96 22.31Q136.86 21.56 136.86 20.84L136.82 20.80L136.74 20.72Q136.65 20.43 136.65 20.20L136.62 20.18L136.80 20.36Q136.66 18.01 138.94 17.21L139.00 17.27L139.01 17.28Q139.64 16.99 140.48 16.99Z"/><path fill="#333" d="M107.40 25.60L107.48 25.68L107.42 25.62Q107.37 25.57 110.75 25.53L110.81 25.59L110.87 25.64Q113.01 25.50 114.07 25.53L114.13 25.59L114.18 25.64Q113.10 22.74 110.66 17.10L110.66 17.10L110.61 17.05Q110.13 18.55 109.09 21.41L108.98 21.30L109.12 21.44Q108.10 24.32 107.53 25.73ZM115.18 28.01L115.30 28.14L115.27 28.10Q112.96 28.04 110.75 28.08L110.77 28.09L110.70 28.03Q108.53 28.14 106.24 28.33L106.31 28.39L106.16 28.24Q104.81 31.84 101.57 36.03L101.50 35.95L101.52 35.98Q98.95 36.61 97.58 37.10L97.49 37.01L97.49 37.01Q102.64 31.38 107.32 18.02L107.43 18.13L107.42 18.12Q108.54 14.56 109.91 11.32L109.89 11.30L109.91 11.33Q110.28 11.39 110.63 11.39L110.71 11.48L111.34 11.38L111.36 11.40Q112.01 12.66 116.84 24.31L117.00 24.47L116.97 24.43Q120.17 32.20 124.16 36.35L124.15 36.34L124.27 36.46Q123.65 36.21 119.76 35.34L119.85 35.42L119.72 35.29Q117.26 32.26 115.28 28.11ZM119.69 35.69L119.74 35.73L120.25 35.75L120.24 35.74Q120.47 35.74 120.78 35.86L120.95 36.03L120.78 35.86Q121.22 36.34 123.04 38.35L122.96 38.27L123.01 38.32Q126.67 39.24 129.07 40.27L129.09 40.29L129.06 40.26Q123.62 35.77 119.63 27.78L119.67 27.82L119.57 27.72Q117.92 24.40 116.48 20.44L116.58 20.55L113.78 12.99L113.73 12.93Q113.54 13.08 113.31 13.08L113.25 13.03L112.75 13.06L112.66 12.97Q112.33 12.34 111.61 10.96L111.56 10.91L111.55 10.91Q111.15 11.04 110.69 11.00L110.71 11.02L110.73 11.04Q110.14 10.87 109.61 10.87L109.67 10.93L109.69 10.96Q108.23 14.82 104.35 24.98L104.32 24.96L104.33 24.97Q101.33 33.04 96.68 37.84L96.62 37.78L96.64 37.80Q97.69 37.40 99.71 36.80L99.68 36.76L99.60 36.68Q98.85 37.57 97.29 39.36L97.36 39.44L97.27 39.35Q99.08 38.79 103.00 38.03L102.96 37.99L102.90 37.92Q106.32 33.59 107.88 30.35L108.04 30.51L107.91 30.38Q109.80 30.40 112.12 30.44L112.07 30.39L112.09 30.40Q114.81 30.42 116.18 30.49L116.03 30.34L116.04 30.36Q117.40 32.82 119.76 35.75ZM111.93 20.96L112.10 21.12L111.92 20.94Q112.97 23.21 113.73 25.30L113.64 25.22L110.26 25.15L110.31 25.20Q111.02 23.90 112.09 21.12Z"/></svg>