<svg xmlns="http://www.w3.org/2000/svg" width="200" height="40" viewBox="0,0,200,40"><path d="M3 21 C102 12,92 28,183 4" stroke="#888" fill="none"/><path fill="#333" d="M110.52 14.75L110.45 14.68L110.36 14.59Q108.51 14.83 107.56 14.99L107.59 15.02L107.59 15.01Q105.85 15.14 104.63 15.68L104.58 15.63L104.61 15.65Q101.14 17.13 101.02 21.81L101.01 21.81L101.00 21.79Q100.90 24.43 101.55 27.37L101.60 27.42L101.51 27.33Q102.45 31.42 106.06 32.60L106.19 32.73L106.16 32.70Q107.99 33.20 109.44 33.04L109.45 33.05L109.85 33.00L109.77 32.92Q110.15 33.11 110.34 33.14L110.17 32.98L110.19 33.00Q110.30 32.96 110.45 32.92L110.47 32.93L110.61 33.08Q113.21 32.78 114.58 32.21L114.55 32.18L111.06 28.72L111.02 28.69Q111.28 28.31 111.89 27.70L111.84 27.65L112.90 26.87L112.87 26.84Q114.59 28.80 116.57 30.85L116.74 31.02L116.60 30.88Q119.01 29.14 119.27 23.77L119.17 23.67L119.29 23.79Q119.35 22.86 119.35 21.94L119.32 21.91L119.33 21.92Q119.38 16.30 114.31 15.19L114.21 15.09L114.15 15.03Q112.88 14.75 110.37 14.60ZM123.13 36.65L123.25 36.77L123.12 36.64Q122.60 37.15 121.42 38.02L121.35 37.95L117.09 34.42L117.06 34.39Q114.65 35.67 110.39 35.71L110.19 35.52L110.29 35.61Q103.67 35.65 100.85 33.40L101.01 33.56L101.02 33.57Q99.12 31.68 98.66 28.71L98.73 28.78L98.69 28.73Q98.54 26.98 98.16 23.40L98.09 23.34L98.18 23.42Q98.09 22.61 97.98 20.86L97.93 20.81L98.08 20.96Q97.92 19.40 97.96 18.52L97.96 18.53L97.85 18.42Q97.95 15.35 99.70 13.79L99.65 13.74L99.81 13.90Q101.21 12.44 104.41 11.95L104.50 12.04L104.42 11.96Q106.88 11.57 109.77 11.64L109.81 11.68L109.79 11.66Q117.42 11.90 120.54 14.26L120.38 14.10L120.45 14.17Q122.68 16.36 122.41 21.27L122.35 21.21L122.35 21.21Q122.23 24.94 122.04 26.27L121.90 26.13L121.96 26.19Q121.31 30.68 118.99 33.00L118.98 33.00L119.02 33.04Q120.52 34.31 123.27 36.79ZM118.46 12.56L118.41 12.51L118.27 12.37Q116.36 11.76 109.85 11.26L109.87 11.28L109.91 11.32Q108.51 11.33 105.73 11.45L105.66 11.37L105.60 11.32Q101.43 11.59 99.18 13.57L99.18 13.58L99.23 13.63Q97.50 15.02 97.50 18.18L97.44 18.12L97.62 18.30Q97.57 19.08 97.72 20.80L97.67 20.75L97.68 20.75Q97.78 22.41 97.78 23.29L97.84 23.36L97.75 23.26Q97.95 25.06 98.33 28.64L98.28 28.59L98.43 28.74Q98.65 31.47 100.25 33.53L100.23 33.50L100.29 33.57Q100.68 34.46 101.90 35.60L101.92 35.62L101.81 35.51Q104.67 37.65 109.85 37.91L109.79 37.86L109.87 37.93Q110.20 37.92 112.59 38.03L112.49 37.92L112.53 37.97Q117.31 38.10 119.59 37.03L119.60 37.04L119.54 36.98Q120.48 37.73 125.20 41.31L125.14 41.25L125.19 41.29Q125.72 40.69 127.01 39.70L127.02 39.70L127.10 39.78Q126.16 39.03 125.36 38.34L125.42 38.41L123.85 37.02L123.96 36.98L123.83 36.85Q123.37 36.51 122.15 35.48L122.09 35.42L122.11 35.44Q123.92 32.83 123.92 28.30L123.94 28.32L124.09 28.47Q124.05 28.01 124.08 27.17L124.03 27.12L124.01 27.10Q124.16 26.37 124.16 25.95L123.98 25.77L124.09 25.88Q124.09 20.36 123.36 18.00L123.30 17.93L123.40 18.04Q122.91 16.63 122.03 15.57L122.10 15.63L122.17 15.70Q121.38 13.58 118.45 12.55ZM112.43 17.11L112.31 16.99L112.28 16.96Q116.32 16.86 118.15 18.46L118.23 18.54L118.26 18.57Q118.78 19.74 118.90 21.07L118.88 21.05L118.84 21.02Q119.01 22.36 118.93 23.73L118.94 23.74L118.98 23.78Q118.58 28.67 116.64 30.38L116.61 30.36L116.62 30.36Q115.36 29.10 112.84 26.36L112.77 26.29L112.85 26.37Q112.00 27.04 110.44 28.60L110.55 28.72L110.55 28.72Q111.03 29.23 112.17 30.41L112.10 30.34L112.12 30.48L112.07 30.43Q112.62 30.94 113.65 32.01L113.79 32.14L113.63 31.98Q112.68 32.29 110.36 32.59L110.35 32.59L109.81 32.58L109.52 32.71L109.35 32.58L109.40 32.62Q105.95 32.64 103.97 31.01L104.09 31.13L104.04 31.08Q103.04 29.01 103.08 25.89L102.93 25.74L103.07 25.87Q103.15 17.09 112.33 17.02Z"/><path fill="#333" d="M167.69 25.40L167.79 25.49L167.78 25.49Q164.26 31.80 160.84 35.76L160.78 35.69L160.76 35.67Q158.87 36.07 156.44 36.95L156.51 37.03L156.41 36.92Q161.46 31.46 166.22 23.05L166.27 23.10L166.18 23.02Q161.49 15.96 155.51 9.56L155.50 9.56L155.52 9.58Q158.50 10.84 160.78 11.33L160.87 11.43L160.90 11.45Q165.54 16.67 167.98 20.63L167.89 20.53L167.87 20.52Q170.43 16.15 174.35 11.73L174.39 11.77L174.39 11.77Q175.93 11.40 179.12 10.64L179.20 10.71L179.08 10.60Q173.12 17.16 169.66 23.10L169.51 22.96L169.65 23.09Q174.75 31.70 179.13 36.26L179.16 36.30L179.04 36.17Q176.60 35.53 174.51 35.30L174.38 35.17L174.49 35.28Q171.60 32.20 167.67 25.38ZM174.46 35.67L174.33 35.54L174.40 35.61Q174.58 35.52 175.04 35.64L175.05 35.66L175.17 35.77Q175.96 36.52 177.48 38.12L177.34 37.99L177.36 38.00Q180.77 38.86 183.81 40.23L183.77 40.18L183.87 40.28Q176.74 33.68 171.64 24.93L171.60 24.89L171.55 24.84Q175.30 18.20 181.20 11.35L181.24 11.39L181.16 11.30Q179.85 12.09 177.68 12.62L177.72 12.66L177.72 12.66Q178.47 11.62 180.22 9.83L180.25 9.87L180.31 9.92Q177.77 10.65 174.07 11.22L174.12 11.27L174.10 11.26Q170.65 15.04 168.06 19.34L168.23 19.51L168.08 19.35Q167.28 17.87 166.10 16.38L166.01 16.30L163.81 13.45L163.41 13.43L163.42 13.44Q163.23 13.40 163.00 13.33L162.96 13.29L163.02 13.34Q162.34 12.51 160.85 10.95L160.85 10.94L160.91 11.00Q157.09 10.12 154.50 8.75L154.40 8.64L154.51 8.76Q161.17 15.95 165.74 22.99L165.83 23.08L165.72 22.97Q161.21 31.14 155.46 37.72L155.53 37.79L155.45 37.72Q156.94 37.22 159.07 36.65L158.88 36.46L157.70 38.02L157.64 37.97Q157.63 37.96 156.30 39.29L156.42 39.40L156.42 39.40Q159.31 38.22 162.47 37.73L162.46 37.71L162.43 37.68Q166.43 33.16 169.02 28.40L169.13 28.51L169.01 28.40Q171.60 32.66 174.31 35.52Z"/><path fill="#444" d="M25.52 14.61L25.49 14.58L25.66 14.75Q23.69 14.88 22.74 15.03L22.65 14.93L22.65 14.93Q21.11 15.26 19.89 15.79L19.72 15.62L19.80 15.71Q16.34 17.19 16.23 21.87L16.25 21.90L16.09 21.74Q16.02 24.41 16.67 27.34L16.83 27.50L16.77 27.44Q17.70 31.54 21.32 32.72L21.18 32.58L21.26 32.66Q23.23 33.29 24.67 33.14L24.53 33.00L25.10 33.11L24.92 32.92Q25.21 33.03 25.40 33.07L25.34 33.00L25.47 33.13Q25.63 33.15 25.78 33.11L25.76 33.09L25.75 33.08Q28.32 32.75 29.70 32.18L29.70 32.18L26.02 28.55L26.14 28.66Q26.37 28.25 26.98 27.64L27.04 27.70L27.94 26.78L27.94 26.77Q29.82 28.88 31.80 30.94L31.70 30.84L31.73 30.86Q34.16 29.15 34.43 23.78L34.42 23.77L34.40 23.76Q34.40 22.76 34.40 21.85L34.37 21.82L34.41 21.86Q34.51 16.29 29.45 15.18L29.49 15.23L29.30 15.04Q28.08 14.81 25.57 14.65ZM38.35 36.73L38.24 36.62L38.43 36.81Q37.86 37.26 36.68 38.14L36.49 37.95L32.15 34.34L32.18 34.36Q29.62 35.50 25.36 35.54L25.45 35.63L25.37 35.55Q18.91 35.75 16.10 33.51L16.14 33.55L15.97 33.38Q14.31 31.72 13.85 28.75L13.91 28.81L13.87 28.77Q13.60 26.90 13.22 23.32L13.18 23.29L13.18 23.29Q13.22 22.60 13.11 20.85L13.14 20.88L13.14 20.88Q12.91 19.24 12.94 18.36L13.06 18.48L12.99 18.40Q13.11 15.37 14.86 13.81L14.84 13.79L14.98 13.92Q16.32 12.41 19.52 11.92L19.66 12.06L19.59 11.99Q22.10 11.65 24.99 11.72L25.05 11.77L24.88 11.61Q32.56 11.91 35.69 14.27L35.53 14.11L35.61 14.19Q37.80 16.34 37.53 21.25L37.43 21.15L37.51 21.23Q37.30 24.86 37.11 26.19L37.17 26.26L37.05 26.14Q36.49 30.72 34.17 33.04L34.14 33.01L34.15 33.02Q35.68 34.32 38.42 36.79ZM33.52 12.48L33.52 12.48L33.59 12.55Q31.39 11.65 24.88 11.15L24.92 11.19L25.05 11.32Q23.56 11.24 20.78 11.35L20.86 11.43L20.81 11.38Q16.54 11.57 14.30 13.55L14.35 13.60L14.32 13.57Q12.60 14.97 12.60 18.13L12.61 18.14L12.76 18.30Q12.68 19.05 12.83 20.76L12.74 20.67L12.92 20.85Q12.90 22.39 12.90 23.26L13.02 23.39L12.95 23.32Q13.08 25.05 13.46 28.62L13.47 28.64L13.54 28.71Q13.87 31.54 15.47 33.60L15.41 33.54L15.49 33.62Q15.79 34.42 17.01 35.56L16.98 35.54L16.95 35.51Q19.78 37.61 24.96 37.88L25.02 37.94L24.91 37.83Q25.23 37.80 27.62 37.92L27.60 37.89L27.60 37.89Q32.51 38.15 34.79 37.09L34.67 36.97L34.84 37.13Q35.73 37.84 40.45 41.42L40.43 41.40L40.28 41.24Q40.99 40.81 42.28 39.82L42.28 39.81L42.30 39.84Q41.31 39.04 40.51 38.35L40.48 38.33L38.91 36.94L38.99 36.87L38.93 36.81Q38.37 36.37 37.16 35.34L37.23 35.41L37.32 35.51Q39.20 32.97 39.20 28.44L39.18 28.42L39.18 28.42Q39.04 27.86 39.08 27.03L39.09 27.04L39.22 27.17Q39.31 26.38 39.31 25.96L39.27 25.92L39.29 25.94Q39.20 20.34 38.48 17.98L38.39 17.89L38.43 17.93Q38.20 16.78 37.33 15.72L37.31 15.70L37.23 15.62Q36.46 13.52 33.53 12.49ZM27.49 17.03L27.59 17.13L27.45 16.99Q31.55 16.95 33.38 18.55L33.29 18.46L33.49 18.65Q34.02 19.83 34.14 21.17L34.08 21.12L33.99 21.02Q34.14 22.35 34.06 23.72L34.00 23.66L33.98 23.64Q33.80 28.75 31.85 30.46L31.73 30.33L31.72 30.32Q30.56 29.17 28.05 26.43L27.96 26.34L27.99 26.37Q27.09 26.99 25.53 28.55L25.65 28.67L25.67 28.69Q26.25 29.31 27.39 30.49L27.40 30.50L27.18 30.39L27.31 30.52Q27.74 30.91 28.77 31.98L28.85 32.06L28.88 32.09Q27.78 32.25 25.46 32.55L25.61 32.70L25.02 32.65L24.62 32.66L24.69 32.77L24.62 32.70Q21.08 32.63 19.10 30.99L19.07 30.96L19.19 31.08Q18.09 28.92 18.13 25.80L18.15 25.82L18.16 25.82Q18.22 17.01 27.39 16.93Z"/><path fill="#444" d="M84.12 15.07L84.24 15.20L84.21 15.17Q79.78 15.04 76.09 14.05L76.20 14.16L76.13 14.09Q77.62 18.63 77.81 23.46L77.87 23.52L77.88 23.53Q78.03 28.28 76.81 32.89L76.73 32.81L76.85 32.93Q79.65 32.30 83.15 32.15L83.10 32.10L83.09 32.09Q87.12 32.01 88.91 29.58L88.89 29.56L88.95 29.61Q90.30 27.39 90.49 23.28L90.59 23.37L90.50 23.28Q90.63 21.59 90.18 19.88L90.25 19.95L90.21 19.91Q88.90 15.14 84.18 15.14ZM72.34 37.22L72.35 37.22L72.17 37.05Q75.07 31.38 75.07 24.68L75.17 24.78L75.17 24.78Q75.22 16.30 70.92 9.29L70.76 9.14L70.79 9.17Q76.18 11.97 84.44 12.16L84.37 12.09L84.31 12.03Q93.31 12.35 93.65 19.51L93.52 19.37L93.57 19.43Q93.62 22.07 93.59 23.51L93.57 23.50L93.57 23.50Q93.63 28.31 92.79 30.48L92.76 30.45L92.83 30.52Q92.38 31.59 91.62 32.43L91.51 32.32L91.65 32.46Q90.12 33.83 87.50 34.33L87.48 34.31L87.59 34.42Q85.93 34.63 82.92 34.86L83.01 34.94L82.95 34.88Q76.90 35.42 72.29 37.17ZM90.17 37.00L90.29 37.12L90.18 37.01Q92.94 36.68 94.57 35.20L94.59 35.22L94.53 35.16Q95.79 33.45 95.76 30.71L95.75 30.70L95.68 30.63Q95.76 29.34 95.61 25.84L95.56 25.80L95.14 21.19L95.26 21.31Q95.12 19.07 94.17 16.98L93.97 16.78L94.14 16.95Q93.66 16.05 92.97 15.40L92.92 15.34L92.80 15.08L92.78 15.05Q91.15 12.17 86.73 11.79L86.73 11.78L86.72 11.78Q84.05 11.65 77.04 10.93L76.99 10.88L77.13 11.02Q73.84 10.54 70.15 8.53L70.17 8.55L70.00 8.38Q74.83 15.76 74.83 24.52L74.97 24.66L74.91 24.59Q74.91 31.60 71.56 37.77L71.58 37.78L71.47 37.68Q72.25 37.51 73.59 37.01L73.52 36.95L73.54 36.97Q73.30 37.91 72.42 39.39L72.46 39.43L72.44 39.41Q75.46 38.32 78.81 37.82L78.82 37.83L78.75 37.76Q80.79 37.41 84.45 37.29L84.44 37.29L84.47 37.32Q88.32 37.16 90.14 36.97ZM90.19 23.35L90.19 23.35L90.25 23.41Q89.77 31.31 83.07 31.69L83.19 31.80L83.20 31.82Q81.28 31.95 79.22 32.22L79.06 32.06L79.18 32.17Q79.78 28.21 79.78 24.55L79.83 24.61L79.80 24.57Q79.89 20.97 79.17 17.13L79.01 16.97L79.06 17.02Q81.35 17.40 86.03 17.40L86.03 17.41L86.08 17.45Q87.40 17.25 89.04 18.20L89.04 18.21L89.17 18.34Q90.32 20.47 90.16 23.33Z"/><path fill="#222" d="M133.69 14.10L133.85 14.27L133.77 14.19Q134.89 18.66 135.04 21.85L135.00 21.81L135.05 21.86Q135.50 21.86 139.88 21.97L139.93 22.02L139.87 21.97Q142.48 22.07 142.87 18.60L142.81 18.55L142.84 18.58Q143.07 16.87 142.16 15.95L142.18 15.98L142.05 15.84Q140.75 14.93 138.77 14.78L138.93 14.93L138.86 14.86Q135.63 14.64 133.77 14.19ZM135.21 23.86L135.23 23.87L135.24 23.88Q135.36 29.82 133.57 35.76L133.58 35.77L133.58 35.77Q132.24 35.99 129.65 37.02L129.68 37.05L129.66 37.03Q132.53 30.57 132.19 23.11L132.28 23.20L132.14 23.06Q131.98 15.86 128.67 9.35L128.58 9.27L128.55 9.24Q133.39 12.02 140.36 12.02L140.36 12.02L140.42 12.08Q145.97 12.00 146.24 15.54L146.24 15.54L146.35 15.65Q146.45 16.28 146.37 16.89L146.38 16.90L146.31 18.05L146.21 17.94Q145.32 21.81 143.19 23.53L143.20 23.54L143.35 23.69Q142.49 24.31 141.46 24.31L141.41 24.27L138.94 24.38L138.92 24.36Q144.51 31.59 149.04 36.16L148.98 36.09L149.01 36.13Q146.69 35.26 143.76 34.91L143.79 34.94L143.83 34.98Q140.10 31.06 135.18 23.83ZM143.82 35.47L143.69 35.33L144.12 35.46L145.30 36.65L145.39 36.74Q145.77 37.08 146.42 37.68L146.60 37.86L146.59 37.85Q150.10 38.44 153.68 40.30L153.57 40.19L153.69 40.32Q146.75 33.56 141.34 26.63L141.25 26.54L143.13 26.67L143.01 26.55Q146.08 26.54 147.41 22.01L147.47 22.07L147.47 22.06Q148.16 19.86 148.16 17.15L148.13 17.13L148.06 17.06Q148.22 14.94 146.51 14.29L146.42 14.19L146.52 14.30Q146.36 13.87 145.78 13.18L145.77 13.17L145.76 13.15Q144.03 11.66 140.38 11.58L140.44 11.64L140.49 11.70Q132.52 11.45 127.84 8.45L127.82 8.43L127.81 8.41Q131.63 15.32 131.97 23.01L131.84 22.88L131.92 22.96Q132.26 30.91 129.13 37.76L129.15 37.78L129.09 37.72Q130.48 37.28 131.28 36.98L131.22 36.91L130.14 39.11L130.12 39.09Q133.03 38.23 135.69 37.73L135.66 37.71L135.55 37.59Q136.97 32.61 137.16 27.40L137.12 27.36L137.10 27.34Q140.53 32.22 143.69 35.34ZM142.47 17.45L142.39 17.36L142.48 17.46Q142.44 17.65 142.44 17.99L142.52 18.07L142.42 18.54L142.49 18.61Q142.51 19.73 141.82 20.68L141.73 20.59L141.90 20.76Q141.20 21.43 140.29 21.62L140.29 21.62L140.37 21.70Q140.10 21.70 138.50 21.74L138.46 21.69L138.53 21.76Q137.81 21.66 136.97 21.54L137.08 21.65L137.12 21.68Q137.02 20.18 136.67 17.13L136.69 17.15L136.69 17.15Q138.10 17.34 138.79 17.34L138.70 17.25L138.66 17.22Q140.63 17.35 142.57 17.54Z"/><path fill="#111" d="M57.46 22.15L57.45 22.14L57.55 22.23Q58.35 22.23 59.76 22.08L59.79 22.11L59.61 21.94Q59.63 22.64 59.63 23.29L59.68 23.34L59.57 24.48L59.58 24.49Q58.80 24.55 57.96 24.62L58.04 24.71L57.89 24.56Q57.15 24.69 56.31 24.65L56.40 24.74L56.28 24.62Q53.51 30.87 50.09 35.48L49.98 35.37L49.95 35.35Q47.50 36.06 46.21 36.67L46.16 36.62L46.22 36.68Q50.37 31.01 53.42 24.72L53.37 24.68L50.65 24.59L50.75 24.68Q50.67 23.27 50.55 21.94L50.73 22.11L50.59 21.97Q52.45 22.08 54.50 22.08L54.50 22.07L56.43 18.41L56.51 18.49Q57.56 16.65 58.78 15.05L58.70 14.97L58.65 14.93Q57.05 15.04 55.45 15.04L55.58 15.16L55.50 15.09Q49.49 15.16 45.72 12.95L45.66 12.89L44.96 11.13L44.97 11.14Q44.64 10.32 44.26 9.44L44.39 9.57L44.24 9.42Q48.61 12.08 54.32 12.31L54.33 12.32L54.32 12.31Q59.48 12.55 64.62 10.57L64.70 10.66L64.67 10.62Q64.42 10.98 63.92 11.86L63.96 11.90L63.87 11.81Q60.26 16.57 57.40 22.09ZM65.48 13.18L65.56 13.27L66.51 11.21L66.53 11.23Q65.56 11.71 63.89 12.43L63.93 12.48L64.10 12.15L64.11 12.16Q64.22 12.01 64.34 11.89L64.31 11.87L64.39 11.94Q64.74 11.23 65.46 9.89L65.48 9.91L65.48 9.91Q60.14 12.19 54.39 11.96L54.40 11.97L54.31 11.87Q48.36 11.68 43.60 8.71L43.52 8.63L43.64 8.75Q44.65 10.59 45.49 13.25L45.42 13.19L45.45 13.22Q46.51 13.82 47.31 14.12L47.44 14.25L47.39 14.21Q47.51 14.52 47.97 16.38L47.97 16.39L48.01 16.43Q51.11 17.62 56.63 17.47L56.71 17.55L56.59 17.43Q56.26 17.97 54.28 21.74L54.46 21.92L54.27 21.73Q52.21 21.73 50.23 21.54L50.26 21.57L50.38 21.68Q50.38 22.45 50.38 23.32L50.42 23.37L50.39 25.05L52.04 25.02L52.11 26.50L52.17 26.56Q48.16 33.86 45.38 37.44L45.38 37.43L45.28 37.34Q46.91 36.61 48.55 36.11L48.69 36.26L48.69 36.26Q47.85 37.01 46.48 38.73L46.49 38.74L46.52 38.77Q49.62 37.61 52.06 37.38L52.06 37.38L52.07 37.39Q55.11 33.73 58.24 26.96L58.17 26.89L61.64 27.12L61.71 27.19Q61.55 26.20 61.55 25.29L61.57 25.31L61.61 23.56L61.54 23.49Q61.39 23.60 60.84 23.64L60.67 23.47L60.74 23.54Q60.25 23.64 59.98 23.64L60.02 23.68L59.94 23.60Q59.86 23.40 59.90 23.25L60.05 23.40L59.95 23.04L59.99 23.08Q62.54 17.97 65.62 13.32Z"/><path d="M6 17 C98 21,81 22,182 21" stroke="#777" fill="none"/></svg>