<svg xmlns="http://www.w3.org/2000/svg" width="200" height="40" viewBox="0,0,200,40"><path fill="#333" d="M169.67 34.78L169.76 34.87L169.77 34.89Q167.85 34.87 165.83 35.06L165.70 34.93L165.84 35.06Q166.35 29.68 166.35 24.84L166.42 24.91L166.42 24.91Q166.43 20.01 165.79 14.80L165.89 14.90L165.71 14.72Q161.20 14.40 158.00 12.72L157.98 12.70L157.21 10.90L157.37 11.07Q157.09 10.47 156.48 9.26L156.53 9.31L156.44 9.22Q161.57 11.95 167.59 12.14L167.56 12.12L167.63 12.19Q173.44 12.28 178.88 10.23L178.79 10.13L178.95 10.30Q178.21 11.68 177.56 13.51L177.60 13.55L177.53 13.48Q173.87 14.73 169.60 14.92L169.75 15.07L169.58 14.89Q169.34 19.88 169.34 24.83L169.41 24.89L169.44 24.92Q169.42 29.86 169.73 34.84ZM179.52 9.50L179.46 9.44L179.62 9.60Q173.68 11.77 167.48 11.58L167.61 11.71L167.50 11.60Q160.80 11.37 155.70 8.40L155.73 8.43L155.80 8.51Q156.51 9.74 157.80 13.02L157.77 12.99L157.92 13.13Q158.45 13.32 159.71 13.90L159.62 13.81L159.74 13.93Q159.92 14.56 160.26 16.08L160.24 16.07L160.36 16.18Q162.56 16.94 165.60 17.16L165.66 17.22L165.71 17.27Q166.12 20.99 166.12 24.76L165.95 24.59L166.10 24.74Q166.02 30.03 165.22 35.39L165.34 35.51L165.15 35.33Q166.99 35.38 167.53 35.38L167.39 35.25L167.44 35.29Q167.53 35.69 167.47 36.35L167.40 36.28L167.31 36.20Q167.42 37.03 167.42 37.37L167.29 37.23L167.25 37.20Q168.61 37.30 170.13 37.38L170.12 37.36L169.94 37.19Q170.86 37.23 172.69 37.38L172.80 37.49L172.74 37.43Q171.56 32.56 171.44 27.38L171.41 27.35L171.52 27.46Q171.26 22.02 171.79 17.11L171.76 17.08L171.76 17.08Q175.78 16.61 178.94 15.39L178.99 15.43L178.96 15.41Q179.68 13.04 180.70 10.98L180.63 10.91L180.67 10.95Q179.37 11.67 178.57 11.97L178.57 11.97L178.61 12.01Q179.08 10.77 179.65 9.63Z"/><path fill="#333" d="M108.19 21.86L108.08 21.76L108.20 21.87Q109.95 21.99 111.78 21.99L111.69 21.89L111.71 21.92Q113.60 22.01 115.42 21.86L115.35 21.79L115.31 21.75Q115.20 22.40 115.20 23.13L115.32 23.24L115.29 24.54L115.30 24.55Q112.85 24.47 108.10 24.58L108.16 24.65L108.15 24.64Q108.19 30.62 107.05 35.61L107.10 35.65L106.94 35.50Q104.80 36.25 103.32 37.05L103.37 37.11L103.37 37.10Q105.55 30.15 105.28 23.03L105.36 23.11L105.43 23.18Q105.11 15.97 102.45 9.31L102.42 9.28L102.48 9.34Q106.17 11.88 110.92 12.11L110.91 12.10L110.87 12.06Q115.59 12.28 119.74 10.53L119.66 10.45L119.67 10.47Q119.41 11.31 119.18 12.11L119.20 12.12L118.65 13.67L118.63 13.65Q116.08 14.90 113.11 15.06L113.00 14.95L113.03 14.98Q110.17 15.20 107.31 14.47L107.30 14.46L107.15 14.31Q108.01 17.87 108.20 21.87ZM120.30 9.76L120.24 9.70L120.25 9.71Q115.69 11.89 110.82 11.58L110.91 11.67L110.88 11.65Q105.53 11.32 101.80 8.47L101.78 8.44L101.78 8.45Q104.62 15.36 104.92 22.97L105.04 23.09L104.96 23.01Q105.32 30.98 102.80 37.76L102.76 37.72L102.78 37.73Q103.51 37.39 104.88 36.75L104.91 36.78L104.78 36.65Q104.73 37.55 104.16 39.07L104.03 38.95L104.00 38.91Q106.45 37.98 109.35 37.48L109.25 37.39L109.33 37.47Q109.92 32.58 110.11 26.87L110.03 26.78L110.16 26.91Q111.80 26.72 113.62 26.72L113.76 26.86L113.66 26.76Q115.42 26.73 117.24 26.92L117.36 27.04L117.43 27.10Q117.17 26.00 117.17 25.09L117.12 25.04L117.22 23.24L117.13 23.15Q116.52 23.41 115.68 23.41L115.52 23.25L115.69 23.42Q115.71 22.57 115.79 21.54L115.68 21.43L115.78 21.53Q114.30 21.61 112.89 21.61L112.94 21.67L112.98 21.70Q111.51 21.65 110.14 21.61L110.18 21.64L110.07 19.41L110.02 19.35Q109.97 18.23 109.85 17.17L109.91 17.23L109.95 17.26Q110.83 17.23 111.82 17.23L111.89 17.30L111.94 17.35Q116.67 17.32 120.28 15.41L120.17 15.30L120.23 15.36Q120.79 13.60 121.70 10.97L121.59 10.86L121.77 11.04Q120.41 11.81 119.61 12.15L119.62 12.16L119.60 12.15Q119.88 11.40 120.38 9.84Z"/><path fill="#333" d="M140.80 15.18L140.77 15.15L140.77 15.16Q136.47 15.16 132.78 14.17L132.65 14.04L132.80 14.19Q134.25 18.69 134.44 23.52L134.43 23.51L134.44 23.51Q134.56 28.25 133.34 32.85L133.39 32.90L133.32 32.83Q136.21 32.30 139.71 32.14L139.73 32.15L139.65 32.08Q143.69 32.00 145.48 29.57L145.40 29.50L145.40 29.49Q146.88 27.39 147.07 23.28L147.17 23.38L147.15 23.37Q147.14 21.52 146.68 19.81L146.81 19.93L146.70 19.83Q145.37 15.03 140.65 15.03ZM128.91 37.21L128.87 37.18L128.86 37.16Q131.76 31.50 131.76 24.80L131.70 24.74L131.71 24.75Q131.64 16.15 127.34 9.15L127.49 9.30L127.36 9.17Q132.73 11.95 140.99 12.14L140.98 12.12L141.00 12.15Q149.79 12.26 150.13 19.42L150.19 19.47L150.13 19.41Q150.24 22.11 150.21 23.56L150.29 23.65L150.23 23.58Q150.11 28.23 149.27 30.40L149.31 30.43L149.24 30.36Q148.86 31.51 148.10 32.35L148.11 32.35L148.20 32.45Q146.76 33.90 144.13 34.39L144.15 34.41L144.10 34.36Q142.53 34.65 139.52 34.88L139.54 34.90L139.49 34.85Q133.49 35.44 128.88 37.19ZM146.71 36.97L146.74 37.00L146.76 37.02Q149.51 36.69 151.15 35.20L151.06 35.12L151.10 35.15Q152.27 33.35 152.23 30.61L152.32 30.70L152.31 30.69Q152.27 29.29 152.12 25.78L152.22 25.88L151.85 21.32L151.80 21.28Q151.54 18.92 150.59 16.82L150.58 16.82L150.66 16.90Q150.15 15.97 149.47 15.32L149.45 15.31L149.40 15.11L149.48 15.19Q147.83 12.27 143.41 11.89L143.42 11.90L143.39 11.88Q140.58 11.62 133.58 10.89L133.53 10.85L133.60 10.92Q130.29 10.42 126.60 8.40L126.75 8.56L126.60 8.41Q131.51 15.87 131.51 24.63L131.51 24.62L131.40 24.51Q131.42 31.54 128.07 37.70L128.13 37.77L128.21 37.85Q128.91 37.59 130.24 37.10L130.13 36.99L130.14 37.00Q129.82 37.86 128.95 39.34L129.02 39.42L129.00 39.39Q131.96 38.25 135.31 37.75L135.40 37.84L135.41 37.85Q137.32 37.36 140.97 37.25L140.96 37.24L141.01 37.29Q144.95 37.23 146.78 37.04ZM146.87 23.46L146.86 23.45L146.83 23.42Q146.47 31.43 139.77 31.81L139.62 31.67L139.67 31.72Q137.79 31.90 135.74 32.16L135.70 32.12L135.74 32.17Q136.42 28.28 136.42 24.63L136.48 24.68L136.46 24.66Q136.37 20.88 135.64 17.03L135.70 17.08L135.68 17.07Q138.06 17.55 142.74 17.55L142.66 17.46L142.62 17.42Q144.07 17.35 145.70 18.30L145.60 18.19L145.59 18.19Q147.02 20.60 146.87 23.46Z"/><path fill="#333" d="M25.52 14.61L25.58 14.67L25.49 14.58Q23.65 14.83 22.69 14.98L22.69 14.97L22.59 14.88Q20.95 15.10 19.73 15.64L19.89 15.79L19.76 15.66Q16.21 17.06 16.09 21.74L16.13 21.78L16.12 21.77Q16.09 24.48 16.73 27.41L16.71 27.39L16.77 27.44Q17.66 31.50 21.28 32.68L21.26 32.66L21.18 32.57Q23.18 33.24 24.62 33.09L24.59 33.05L25.03 33.03L25.10 33.11Q25.13 32.95 25.32 32.99L25.43 33.09L25.45 33.11Q25.46 32.97 25.61 32.94L25.72 33.05L25.72 33.05Q28.23 32.66 29.60 32.09L29.79 32.28L26.12 28.65L26.07 28.60Q26.51 28.39 27.12 27.78L27.08 27.74L27.90 26.74L28.07 26.91Q29.74 28.80 31.72 30.86L31.87 31.01L31.80 30.94Q34.20 29.19 34.47 23.82L34.31 23.66L34.31 23.67Q34.48 22.84 34.48 21.93L34.49 21.94L34.47 21.92Q34.41 16.19 29.35 15.09L29.34 15.08L29.34 15.07Q28.03 14.76 25.52 14.61ZM38.35 36.73L38.28 36.66L38.26 36.64Q37.79 37.19 36.61 38.07L36.51 37.97L32.14 34.32L32.18 34.37Q29.69 35.57 25.43 35.61L25.36 35.53L25.45 35.62Q18.92 35.76 16.10 33.51L16.07 33.48L16.13 33.54Q14.23 31.64 13.78 28.67L13.90 28.80L13.75 28.65Q13.70 27.00 13.32 23.42L13.20 23.30L13.18 23.28Q13.31 22.69 13.20 20.94L13.19 20.93L13.15 20.89Q12.96 19.29 13.00 18.41L12.96 18.38L12.99 18.41Q13.16 15.42 14.92 13.86L14.98 13.93L14.80 13.74Q16.51 12.60 19.71 12.11L19.59 11.99L19.67 12.07Q22.15 11.70 25.04 11.77L24.99 11.71L24.96 11.68Q32.53 11.87 35.65 14.23L35.51 14.09L35.61 14.19Q37.67 16.22 37.41 21.13L37.49 21.21L37.41 21.13Q37.37 24.94 37.18 26.27L37.18 26.26L37.03 26.12Q36.55 30.78 34.23 33.10L34.18 33.05L34.12 32.99Q35.68 34.32 38.42 36.79ZM33.40 12.36L33.59 12.55L33.42 12.38Q31.42 11.67 24.91 11.18L24.89 11.16L25.03 11.30Q23.64 11.32 20.86 11.43L20.77 11.35L20.86 11.44Q16.53 11.56 14.28 13.54L14.28 13.54L14.38 13.63Q12.64 15.01 12.64 18.17L12.75 18.28L12.72 18.25Q12.76 19.13 12.92 20.85L12.76 20.70L12.91 20.84Q13.08 22.57 13.08 23.45L12.97 23.34L13.01 23.38Q13.19 25.16 13.57 28.74L13.52 28.69L13.60 28.76Q13.89 31.56 15.48 33.62L15.51 33.65L15.50 33.63Q15.88 34.51 17.10 35.65L17.01 35.56L16.99 35.54Q19.67 37.50 24.85 37.77L24.88 37.80L24.84 37.76Q25.18 37.76 27.58 37.87L27.70 37.99L27.66 37.95Q32.52 38.17 34.81 37.10L34.73 37.02L34.71 37.01Q35.71 37.82 40.43 41.40L40.41 41.38L40.29 41.25Q40.91 40.73 42.21 39.75L42.24 39.78L42.25 39.79Q41.31 39.04 40.52 38.36L40.68 38.52L39.00 37.03L38.98 36.86L38.95 36.83Q38.54 36.54 37.32 35.51L37.14 35.32L37.15 35.33Q39.23 33.00 39.23 28.47L39.18 28.42L39.07 28.31Q39.15 27.97 39.19 27.13L39.13 27.07L39.08 27.03Q39.20 26.27 39.20 25.85L39.14 25.79L39.31 25.96Q39.23 20.36 38.51 18.00L38.47 17.96L38.39 17.89Q38.10 16.68 37.22 15.61L37.19 15.58L37.30 15.69Q36.52 13.57 33.58 12.54ZM27.45 16.99L27.48 17.03L27.53 17.07Q31.51 16.90 33.34 18.50L33.37 18.53L33.45 18.62Q33.94 19.75 34.05 21.08L34.13 21.16L34.09 21.13Q34.17 22.38 34.10 23.75L34.03 23.69L34.06 23.72Q33.80 28.75 31.86 30.46L31.69 30.29L31.78 30.38Q30.42 29.03 27.91 26.28L27.91 26.28L27.94 26.31Q27.13 27.03 25.57 28.59L25.57 28.59L25.53 28.55Q26.20 29.26 27.35 30.44L27.35 30.45L27.36 30.57L27.16 30.37Q27.79 30.96 28.82 32.03L28.76 31.97L28.79 32.00Q27.85 32.31 25.52 32.62L25.56 32.65L25.03 32.66L24.57 32.62L24.65 32.74L24.63 32.71Q21.20 32.75 19.22 31.11L19.16 31.06L19.20 31.09Q18.13 28.95 18.17 25.83L18.12 25.79L18.15 25.82Q18.22 17.01 27.39 16.94Z"/><path d="M12 25 C91 4,103 28,182 14" stroke="#333" fill="none"/><path fill="#333" d="M51.02 24.57L51.11 24.66L51.14 24.69Q51.17 28.99 50.45 33.14L50.31 33.01L50.40 33.09Q52.63 32.51 55.72 32.39L55.65 32.32L55.62 32.30Q57.03 32.57 58.10 31.56L58.09 31.54L58.19 31.65Q59.25 30.64 59.25 29.30L59.09 29.14L59.08 29.13Q59.18 28.93 59.14 28.66L59.05 28.57L59.11 28.63Q58.94 25.68 56.69 24.84L56.79 24.94L56.71 24.86Q56.05 24.65 55.36 24.73L55.24 24.61L55.24 24.61Q54.31 24.67 53.28 24.70L53.14 24.57L53.09 24.51Q52.07 24.60 51.04 24.60ZM49.91 14.26L49.94 14.28L49.94 14.28Q50.83 17.60 51.09 21.98L50.95 21.84L51.02 21.91Q52.42 21.97 55.08 22.01L55.12 22.05L55.15 22.08Q57.98 22.02 58.33 18.48L58.43 18.58L58.31 18.47Q58.62 16.64 57.21 15.80L57.11 15.70L57.26 15.86Q56.21 15.19 51.80 14.54L51.81 14.55L51.86 14.60Q50.88 14.54 49.97 14.31ZM46.30 37.17L46.30 37.17L46.14 37.02Q48.73 30.47 48.46 23.08L48.33 22.95L48.38 23.00Q48.15 15.76 45.21 9.29L45.22 9.30L45.29 9.36Q48.93 11.75 55.16 12.00L55.27 12.11L55.19 12.03Q61.52 12.39 61.86 15.28L61.83 15.25L61.74 15.16Q62.19 18.04 60.78 20.71L60.80 20.73L60.68 20.61Q60.04 22.21 58.44 22.90L58.46 22.91L58.37 22.83Q62.07 23.56 62.30 28.92L62.16 28.78L62.18 28.81Q62.29 29.95 62.22 31.36L62.16 31.30L62.19 31.33Q62.12 32.62 61.18 33.56L61.22 33.59L61.35 33.72Q60.37 34.61 59.04 34.76L58.98 34.71L59.07 34.79Q57.52 34.80 56.45 34.80L56.50 34.85L56.55 34.90Q50.74 34.81 46.21 37.09ZM59.05 37.44L58.95 37.34L59.01 37.40Q60.01 37.52 61.88 37.64L61.90 37.67L61.80 37.56Q63.22 37.61 64.32 36.73L64.41 36.82L64.36 36.77Q65.05 35.75 64.94 34.19L65.01 34.26L65.09 34.34Q64.88 33.25 64.15 29.79L64.14 29.78L64.28 29.91Q63.50 26.59 61.64 25.11L61.68 25.14L61.23 24.27L61.24 24.29Q62.85 22.81 63.42 19.04L63.54 19.17L63.44 19.07Q63.60 17.93 63.52 16.52L63.48 16.48L63.63 16.63Q63.60 15.34 62.50 14.51L62.49 14.49L62.35 14.36Q62.09 14.21 61.98 14.17L61.91 14.11L61.89 14.09Q61.70 13.63 60.86 12.83L61.01 12.98L60.94 12.91Q59.47 11.89 55.24 11.70L55.22 11.68L55.15 11.61Q48.44 11.26 44.44 8.37L44.60 8.52L44.62 8.54Q47.91 15.57 48.22 23.11L48.02 22.91L48.22 23.11Q48.43 30.82 45.61 37.74L45.69 37.82L47.65 36.77L47.69 36.82Q47.22 37.87 46.73 39.01L46.76 39.05L46.88 39.16Q51.04 37.15 56.06 37.15L56.15 37.25L56.13 37.22Q57.55 37.23 59.00 37.39ZM56.96 26.94L56.85 26.83L56.78 26.76Q57.69 26.86 58.60 27.32L58.41 27.14L58.58 27.30Q58.70 27.65 58.85 28.71L58.70 28.57L58.80 28.67Q58.88 29.93 57.95 30.97L58.05 31.07L58.05 31.07Q57.05 32.05 55.64 31.94L55.66 31.96L54.13 32.02L54.17 32.06Q53.35 32.05 52.63 32.16L52.72 32.25L52.67 32.20Q52.95 30.35 53.02 26.88L53.12 26.97L53.16 27.02Q53.78 26.92 55.04 26.88L55.11 26.95L54.97 26.81Q56.25 26.80 56.86 26.84ZM55.87 17.28L55.90 17.31L56.19 17.22L56.32 17.35Q56.41 17.21 56.60 17.25L56.67 17.32L56.97 17.23L57.32 17.40L58.04 17.59L57.89 17.43Q57.98 17.67 57.98 17.98L58.02 18.03L58.13 18.66L58.01 18.55Q58.12 19.91 57.24 20.84L57.19 20.79L57.22 20.82Q56.26 21.67 55.04 21.67L55.04 21.66L55.08 21.70Q54.14 21.79 54.14 21.79L54.15 21.80L53.97 21.63Q52.79 21.73 53.13 21.73L53.10 21.70L53.01 21.62Q52.94 20.06 52.63 17.01L52.65 17.03L52.67 17.05Q54.28 17.22 55.81 17.22Z"/><path fill="#333" d="M78.08 28.01L78.04 27.98L78.04 27.98Q81.06 27.53 84.26 27.64L84.38 27.77L84.33 27.72Q84.27 25.14 84.27 22.75L84.17 22.64L84.28 22.75Q84.19 20.18 84.38 17.63L84.47 17.73L84.53 17.79Q83.30 19.49 78.09 28.02ZM87.86 35.24L87.92 35.31L87.91 35.29Q86.20 34.95 84.41 34.87L84.40 34.87L84.53 34.99Q84.26 32.55 84.14 30.08L84.23 30.17L84.18 30.12Q78.90 29.98 74.18 31.39L74.07 31.27L74.03 31.23Q74.24 30.83 74.43 29.84L74.45 29.87L74.32 29.73Q76.26 26.73 79.84 20.45L79.72 20.32L79.76 20.37Q82.61 15.45 86.04 11.57L86.19 11.72L86.19 11.72Q86.98 11.45 88.66 11.18L88.69 11.21L88.55 11.07Q86.65 17.51 86.65 24.55L86.75 24.65L86.74 24.65Q86.81 26.19 86.88 27.68L86.91 27.71L88.09 27.70L88.02 27.63Q88.65 27.69 89.26 27.81L89.41 27.96L89.26 27.81Q89.44 28.86 89.71 30.81L89.68 30.78L89.72 30.82Q88.46 30.51 86.97 30.32L87.03 30.38L86.98 30.32Q87.24 32.37 87.92 35.30ZM89.67 27.57L89.65 27.55L89.56 27.46Q89.48 27.50 89.29 27.50L89.29 27.50L88.86 27.45L88.91 27.49Q88.72 25.94 88.72 24.53L88.70 24.51L88.81 24.62Q88.82 18.23 90.87 12.22L90.70 12.04L90.74 12.08Q89.95 12.32 88.50 12.70L88.65 12.85L88.58 12.78Q88.79 12.00 89.25 10.59L89.35 10.69L89.25 10.60Q87.93 10.95 85.88 11.18L85.92 11.22L85.95 11.25Q82.05 15.61 76.83 24.97L76.80 24.94L78.84 21.24L78.79 21.19Q78.51 22.35 78.24 22.92L78.11 22.79L73.68 31.83L73.62 31.78Q74.39 31.75 75.53 31.37L75.57 31.40L75.32 31.53L75.43 31.64Q75.15 32.17 74.85 33.42L74.86 33.43L74.95 33.52Q79.11 32.24 83.94 32.43L83.85 32.33L83.94 32.43Q83.94 33.34 84.13 35.32L84.16 35.35L84.08 35.27Q85.28 35.40 86.35 35.52L86.26 35.43L86.23 35.40Q86.47 36.17 86.73 37.54L86.69 37.49L86.71 37.52Q88.55 37.68 91.55 38.59L91.51 38.54L91.48 38.52Q90.57 36.47 89.66 33.19L89.66 33.20L91.13 33.68L91.06 33.61Q91.72 33.81 92.41 34.15L92.51 34.26L92.46 34.21Q91.63 31.66 91.48 29.99L91.60 30.11L91.52 30.03Q90.90 29.83 89.76 29.60L89.77 29.61L89.75 29.60Q89.55 28.33 89.55 27.46ZM81.60 27.35L81.69 27.44L81.53 27.28Q82.42 26.11 83.99 23.56L83.87 23.44L83.98 23.56Q83.93 24.46 83.90 25.42L83.86 25.38L83.98 25.50Q83.97 26.48 84.01 27.43L83.95 27.37L83.90 27.33Q83.35 27.31 82.78 27.31L82.74 27.27L82.74 27.27Q82.13 27.26 81.52 27.26Z"/><path d="M7 27 C87 36,113 37,183 29" stroke="#777" fill="none"/></svg>