<svg xmlns="http://www.w3.org/2000/svg" width="200" height="40" viewBox="0,0,200,40"><path fill="#333" d="M88.54 23.66L88.48 23.60L82.60 23.70L82.59 23.69Q79.75 23.82 76.81 23.74L76.73 23.66L76.86 23.78Q76.98 30.49 74.93 36.01L74.85 35.94L74.94 36.02Q73.03 36.44 71.28 37.12L71.28 37.13L71.33 37.17Q73.98 31.33 73.98 24.67L74.11 24.80L74.06 24.75Q74.07 16.27 69.96 9.23L69.99 9.26L69.95 9.22Q71.39 9.94 73.86 10.74L74.00 10.88L74.02 10.90Q76.01 15.82 76.55 20.69L76.69 20.83L76.61 20.75Q79.90 21.27 82.76 21.23L82.61 21.09L82.70 21.17Q85.35 21.16 88.66 20.89L88.58 20.81L88.70 20.93Q89.07 16.42 90.82 11.32L90.75 11.26L90.82 11.32Q92.83 10.98 95.08 10.14L95.09 10.15L95.04 10.10Q91.41 16.83 91.41 24.79L91.44 24.81L91.50 24.87Q91.39 30.97 93.75 36.30L93.70 36.25L93.86 36.41Q92.23 35.77 90.17 35.46L90.14 35.43L90.17 35.46Q88.43 30.37 88.55 23.67ZM89.92 35.82L89.95 35.84L89.77 35.66Q90.88 35.90 91.98 36.17L91.93 36.11L91.90 36.08Q92.35 36.91 92.99 38.40L92.91 38.32L93.01 38.41Q96.39 39.39 98.18 40.31L98.22 40.35L98.09 40.22Q93.63 34.04 93.32 25.78L93.42 25.88L93.35 25.81Q93.03 17.76 96.68 10.95L96.67 10.93L95.62 11.40L95.58 11.36Q95.19 11.70 94.58 11.85L94.54 11.81L94.62 11.89Q94.97 11.02 95.81 9.46L95.87 9.52L95.86 9.51Q93.14 10.48 90.51 10.98L90.43 10.90L90.53 11.00Q88.92 15.90 88.46 20.58L88.32 20.44L88.41 20.53Q85.88 20.70 83.45 20.70L83.48 20.73L83.42 20.67Q81.10 20.76 78.59 20.61L78.46 20.47L78.61 20.62Q78.34 17.31 77.24 13.24L77.15 13.15L77.32 13.32Q76.48 13.05 75.04 12.67L75.06 12.70L75.11 12.75Q74.79 11.59 74.34 10.56L74.28 10.51L74.27 10.49Q71.42 9.63 69.14 8.37L69.24 8.47L69.20 8.44Q73.71 15.81 73.71 24.60L73.79 24.67L73.84 24.73Q73.87 31.72 70.74 37.85L70.75 37.86L70.72 37.82Q71.44 37.55 72.77 36.98L72.66 36.87L72.67 36.88Q72.45 37.84 71.65 39.36L71.53 39.24L71.56 39.27Q74.39 38.29 76.64 37.88L76.71 37.95L76.71 37.95Q78.52 32.34 78.71 26.17L78.63 26.09L78.72 26.18Q80.24 26.02 83.43 25.98L83.46 26.01L83.54 26.08Q86.46 26.11 88.36 26.19L88.26 26.09L88.29 26.12Q88.60 31.91 89.94 35.83Z"/><path d="M18 28 C86 38,79 23,196 25" stroke="#999" fill="none"/><path fill="#222" d="M50.77 25.55L50.80 25.58L50.80 25.58Q50.92 25.70 54.31 25.66L54.26 25.61L54.15 25.50Q56.49 25.55 57.56 25.59L57.60 25.63L57.63 25.67Q56.63 22.84 54.19 17.20L54.05 17.06L54.06 17.07Q53.53 18.52 52.48 21.38L52.54 21.43L52.39 21.29Q51.46 24.26 50.89 25.67ZM58.79 28.20L58.78 28.18L58.73 28.14Q56.42 28.07 54.21 28.11L54.13 28.02L54.28 28.17Q52.01 28.19 49.73 28.38L49.67 28.33L49.75 28.41Q48.16 31.77 44.93 35.96L44.85 35.88L44.91 35.93Q42.24 36.47 40.87 36.96L40.87 36.97L40.93 37.02Q46.15 31.47 50.83 18.11L50.69 17.96L50.77 18.05Q51.91 14.50 53.28 11.26L53.35 11.34L53.30 11.28Q53.73 11.41 54.07 11.41L54.00 11.34L54.79 11.40L54.87 11.49Q55.41 12.63 60.24 24.28L60.36 24.39L60.40 24.44Q63.55 32.15 67.54 36.30L67.52 36.28L67.59 36.35Q67.16 36.29 63.27 35.42L63.29 35.43L63.18 35.33Q60.77 32.34 58.79 28.19ZM63.07 35.63L63.07 35.64L63.72 35.79L63.76 35.83Q63.98 35.82 64.29 35.94L64.21 35.86L64.20 35.86Q64.56 36.25 66.39 38.27L66.45 38.33L66.48 38.36Q69.99 39.13 72.39 40.16L72.54 40.31L72.51 40.28Q67.00 35.72 63.01 27.73L62.93 27.65L62.91 27.63Q61.40 24.45 59.95 20.49L59.98 20.51L57.17 12.95L57.13 12.91Q56.97 13.09 56.75 13.09L56.71 13.06L56.25 13.13L56.10 12.98Q55.83 12.40 55.10 11.03L55.15 11.08L54.96 10.89Q54.55 11.01 54.09 10.97L54.20 11.08L54.03 10.91Q53.73 11.03 53.20 11.03L53.03 10.86L53.11 10.94Q51.77 14.93 47.89 25.09L47.91 25.12L47.88 25.09Q44.62 32.91 39.98 37.71L40.08 37.81L40.07 37.79Q41.15 37.43 43.17 36.82L43.14 36.80L43.06 36.71Q42.27 37.56 40.70 39.35L40.84 39.48L40.82 39.47Q42.39 38.67 46.31 37.91L46.33 37.93L46.48 38.07Q49.84 33.67 51.40 30.44L51.46 30.50L51.32 30.36Q53.15 30.32 55.47 30.36L55.37 30.26L55.50 30.39Q58.15 30.33 59.52 30.41L59.45 30.34L59.60 30.49Q60.71 32.71 63.07 35.64ZM55.51 21.11L55.46 21.06L55.48 21.08Q56.28 23.10 57.05 25.19L56.97 25.12L53.82 25.28L53.78 25.24Q54.28 23.73 55.35 20.95Z"/><path fill="#333" d="M108.24 21.91L108.24 21.91L108.21 21.88Q110.01 22.04 111.84 22.04L111.71 21.92L111.78 21.99Q113.48 21.89 115.30 21.74L115.38 21.82L115.34 21.78Q115.32 22.52 115.32 23.25L115.21 23.14L115.34 24.59L115.30 24.56Q112.91 24.52 108.15 24.64L108.08 24.57L108.13 24.62Q108.24 30.67 107.10 35.65L106.94 35.49L107.05 35.61Q104.81 36.26 103.32 37.05L103.42 37.15L103.29 37.02Q105.63 30.23 105.36 23.11L105.30 23.04L105.42 23.16Q105.12 15.97 102.45 9.31L102.41 9.27L102.36 9.22Q106.20 11.91 110.95 12.14L110.97 12.16L110.93 12.12Q115.60 12.29 119.75 10.54L119.70 10.49L119.66 10.46Q119.35 11.25 119.12 12.05L119.11 12.04L118.67 13.69L118.79 13.80Q116.01 14.83 113.04 14.99L113.12 15.07L113.07 15.01Q110.10 15.13 107.24 14.41L107.22 14.39L107.27 14.43Q108.04 17.91 108.23 21.91ZM120.40 9.86L120.28 9.74L120.25 9.71Q115.64 11.83 110.76 11.53L110.93 11.69L110.88 11.65Q105.57 11.36 101.84 8.50L101.88 8.55L101.78 8.44Q104.79 15.53 105.09 23.14L104.97 23.02L104.91 22.96Q105.38 31.04 102.86 37.82L102.89 37.84L102.86 37.82Q103.45 37.33 104.82 36.69L104.94 36.81L104.79 36.66Q104.72 37.54 104.15 39.06L104.05 38.97L104.05 38.97Q106.46 37.98 109.35 37.49L109.37 37.50L109.29 37.42Q109.91 32.57 110.10 26.86L110.05 26.80L110.02 26.78Q111.98 26.91 113.81 26.91L113.62 26.72L113.62 26.72Q115.41 26.73 117.24 26.92L117.25 26.92L117.41 27.09Q117.27 26.11 117.27 25.20L117.19 25.12L117.12 23.14L117.12 23.14Q116.38 23.28 115.55 23.28L115.61 23.34L115.52 23.26Q115.68 22.53 115.75 21.51L115.77 21.53L115.62 21.38Q114.23 21.55 112.82 21.55L112.92 21.64L112.93 21.65Q111.50 21.63 110.13 21.59L110.20 21.67L109.98 19.31L110.04 19.37Q110.07 18.34 109.96 17.27L109.93 17.24L110.00 17.32Q110.90 17.30 111.89 17.30L111.91 17.32L111.89 17.30Q116.64 17.29 120.26 15.39L120.31 15.44L120.16 15.30Q120.74 13.55 121.66 10.93L121.59 10.86L121.64 10.91Q120.46 11.87 119.66 12.21L119.49 12.03L119.58 12.12Q119.87 11.39 120.37 9.83Z"/><path d="M9 25 C105 19,104 30,180 15" stroke="#111" fill="none"/><path fill="#444" d="M20.67 14.23L20.66 14.22L20.64 14.20Q21.75 18.66 21.90 21.85L21.83 21.78L21.94 21.90Q22.34 21.84 26.71 21.95L26.69 21.92L26.77 22.00Q29.27 21.99 29.65 18.53L29.76 18.64L29.73 18.61Q29.86 16.80 28.95 15.88L29.05 15.99L28.94 15.88Q27.68 15.00 25.70 14.84L25.74 14.88L25.70 14.84Q22.48 14.63 20.62 14.18ZM22.00 23.78L22.11 23.89L22.01 23.80Q22.27 29.88 20.48 35.82L20.35 35.69L20.44 35.77Q19.26 36.16 16.67 37.19L16.56 37.07L16.62 37.14Q19.49 30.68 19.15 23.22L19.13 23.20L19.09 23.16Q18.70 15.73 15.39 9.22L15.44 9.26L15.37 9.20Q20.40 12.18 27.37 12.18L27.20 12.01L27.19 12.00Q32.88 12.05 33.15 15.59L33.21 15.66L33.12 15.57Q33.26 16.23 33.18 16.84L33.14 16.80L33.10 17.98L33.20 18.08Q32.21 21.85 30.08 23.56L30.11 23.60L30.15 23.64Q29.24 24.21 28.22 24.21L28.27 24.27L25.81 24.40L25.68 24.26Q31.34 31.56 35.87 36.13L35.83 36.10L35.91 36.17Q33.69 35.40 30.76 35.06L30.78 35.08L30.71 35.00Q27.03 31.13 22.12 23.90ZM30.68 35.48L30.60 35.39L30.80 35.28L32.17 36.66L32.16 36.65Q32.75 37.20 33.40 37.81L33.38 37.79L33.32 37.74Q37.00 38.48 40.58 40.35L40.42 40.18L40.46 40.23Q33.52 33.47 28.11 26.55L28.08 26.51L29.86 26.54L29.85 26.53Q32.99 26.58 34.32 22.05L34.40 22.14L34.37 22.10Q35.07 19.92 35.07 17.21L34.95 17.09L34.98 17.12Q35.03 14.88 33.32 14.24L33.23 14.15L33.33 14.25Q33.27 13.93 32.70 13.24L32.53 13.07L32.56 13.10Q30.91 11.67 27.25 11.60L27.36 11.70L27.36 11.71Q19.41 11.49 14.73 8.48L14.69 8.44L14.75 8.50Q18.38 15.21 18.72 22.90L18.83 23.01L18.88 23.07Q19.13 30.93 16.01 37.78L16.11 37.88L15.95 37.72Q17.34 37.29 18.14 36.98L18.08 36.92L17.11 39.22L16.99 39.11Q19.84 38.18 22.50 37.69L22.39 37.58L22.55 37.73Q23.65 32.44 23.84 27.22L23.94 27.32L23.92 27.31Q27.45 32.28 30.61 35.40ZM29.42 17.54L29.38 17.50L29.37 17.49Q29.31 17.66 29.31 18.00L29.31 17.99L29.36 18.62L29.30 18.56Q29.38 19.74 28.69 20.69L28.65 20.65L28.72 20.72Q28.11 21.48 27.19 21.67L27.09 21.57L27.08 21.56Q26.91 21.65 25.31 21.69L25.26 21.63L25.33 21.71Q24.72 21.71 23.88 21.59L23.96 21.67L23.84 21.55Q23.83 20.13 23.49 17.09L23.42 17.02L23.47 17.07Q24.93 17.31 25.61 17.31L25.60 17.29L25.49 17.19Q27.35 17.22 29.29 17.41Z"/><path fill="#222" d="M135.90 24.60L135.95 24.65L136.03 24.72Q136.00 28.97 135.28 33.12L135.19 33.03L135.28 33.11Q137.56 32.58 140.65 32.47L140.49 32.31L140.46 32.28Q141.90 32.58 142.96 31.57L142.91 31.52L142.99 31.59Q144.10 30.63 144.10 29.30L144.10 29.30L144.11 29.30Q144.01 28.90 143.97 28.64L144.03 28.69L144.05 28.71Q143.91 25.79 141.66 24.95L141.64 24.93L141.52 24.81Q140.73 24.48 140.04 24.55L140.16 24.67L140.19 24.70Q139.06 24.56 138.03 24.60L138.01 24.58L138.11 24.68Q137.06 24.73 136.03 24.73ZM134.69 14.18L134.81 14.29L134.74 14.22Q135.64 17.56 135.91 21.94L135.81 21.85L135.95 21.99Q137.37 22.07 140.04 22.11L140.07 22.15L139.89 21.96Q142.96 22.14 143.31 18.60L143.21 18.50L143.32 18.61Q143.44 16.61 142.03 15.77L141.99 15.72L142.11 15.84Q141.15 15.26 136.73 14.62L136.70 14.59L136.62 14.50Q135.59 14.39 134.68 14.16ZM131.04 37.06L131.00 37.02L131.09 37.11Q133.62 30.51 133.36 23.12L133.22 22.98L133.34 23.10Q133.04 15.80 130.11 9.33L130.05 9.27L130.14 9.36Q133.93 11.89 140.16 12.14L140.12 12.11L140.17 12.16Q146.33 12.34 146.68 15.23L146.68 15.24L146.67 15.23Q147.04 18.04 145.63 20.70L145.54 20.60L145.50 20.57Q144.75 22.06 143.15 22.75L143.14 22.74L143.14 22.74Q146.83 23.46 147.06 28.83L147.15 28.92L147.06 28.83Q147.10 29.90 147.02 31.30L147.16 31.44L147.18 31.46Q147.04 32.69 146.11 33.62L146.14 33.66L146.20 33.72Q145.10 34.48 143.77 34.64L143.89 34.76L143.84 34.71Q142.48 34.91 141.41 34.91L141.35 34.85L141.40 34.90Q135.61 34.81 131.08 37.10ZM143.92 37.46L143.82 37.36L143.94 37.47Q144.74 37.40 146.61 37.51L146.62 37.52L146.68 37.58Q148.10 37.64 149.21 36.76L149.21 36.76L149.22 36.77Q150.04 35.89 149.93 34.32L149.83 34.23L149.87 34.26Q149.86 33.38 149.14 29.92L149.02 29.80L149.16 29.94Q148.49 26.72 146.63 25.23L146.50 25.10L146.04 24.23L146.17 24.36Q147.85 22.96 148.42 19.19L148.27 19.04L148.31 19.08Q148.50 17.97 148.42 16.56L148.43 16.57L148.48 16.62Q148.35 15.24 147.25 14.40L147.23 14.38L147.30 14.45Q146.94 14.21 146.83 14.17L146.81 14.15L146.87 14.22Q146.59 13.66 145.75 12.86L145.76 12.87L145.84 12.96Q144.22 11.79 139.99 11.60L139.94 11.55L140.02 11.63Q133.38 11.35 129.39 8.45L129.38 8.45L129.31 8.38Q132.63 15.43 132.93 22.96L132.95 22.98L132.96 23.00Q133.22 30.75 130.40 37.68L130.42 37.70L132.54 36.81L132.48 36.75Q132.22 38.01 131.72 39.15L131.64 39.07L131.77 39.19Q136.02 37.28 141.05 37.28L141.00 37.24L141.10 37.34Q142.41 37.23 143.85 37.39ZM141.71 26.83L141.72 26.84L141.82 26.94Q142.50 26.82 143.41 27.27L143.33 27.19L143.33 27.19Q143.55 27.64 143.70 28.70L143.60 28.60L143.63 28.63Q143.92 30.10 142.99 31.15L142.92 31.09L142.98 31.15Q142.01 32.15 140.60 32.04L140.64 32.08L139.05 32.09L139.13 32.17Q138.28 32.12 137.56 32.23L137.59 32.27L137.64 32.31Q137.93 30.47 138.00 27.01L137.92 26.92L138.01 27.01Q138.67 26.95 139.93 26.91L139.90 26.89L139.91 26.89Q141.06 26.75 141.67 26.79ZM140.62 17.18L140.67 17.23L141.10 17.27L141.05 17.22Q141.39 17.34 141.58 17.38L141.49 17.28L141.87 17.28L142.23 17.45L142.84 17.53L142.75 17.44Q142.82 17.66 142.82 17.96L142.88 18.03L142.83 18.51L142.99 18.67Q142.85 19.78 141.97 20.72L142.12 20.86L142.01 20.75Q141.16 21.71 139.94 21.71L139.91 21.68L139.91 21.68Q139.01 21.81 139.01 21.81L139.01 21.81L139.00 21.80Q137.58 21.67 137.92 21.67L137.91 21.66L137.84 21.59Q137.81 20.08 137.51 17.03L137.52 17.04L137.51 17.04Q139.18 17.26 140.70 17.26Z"/><path fill="#444" d="M169.21 27.13L159.99 17.15L160.06 17.21Q160.89 20.90 160.89 24.63L160.91 24.65L160.86 24.60Q160.86 30.58 158.80 36.14L158.83 36.16L158.73 36.06Q157.64 36.30 155.39 37.07L155.55 37.22L155.53 37.20Q158.35 31.42 158.35 24.72L158.32 24.69L158.24 24.61Q158.28 16.01 153.79 8.59L153.79 8.59L153.83 8.62Q154.14 8.67 154.82 9.09L154.93 9.20L154.87 9.13Q166.92 20.31 174.76 29.56L174.92 29.71L174.87 29.66Q174.56 27.23 174.56 24.79L174.54 24.77L174.55 24.78Q174.60 17.59 177.11 11.39L176.96 11.23L177.02 11.30Q179.43 10.86 181.03 10.17L180.99 10.12L180.93 10.07Q177.74 16.36 177.43 23.51L177.35 23.43L177.42 23.50Q177.07 30.81 180.04 36.97L179.99 36.92L179.99 36.92Q179.44 36.86 179.02 36.67L179.08 36.73L179.09 36.74Q174.40 32.66 169.19 27.10L169.22 27.14ZM182.70 40.20L182.60 40.10L182.64 40.14Q183.06 40.26 183.48 40.45L183.57 40.54L184.31 40.78L184.38 40.86Q179.30 33.98 179.30 24.61L179.14 24.46L179.20 24.52Q179.27 17.35 182.58 11.11L182.52 11.05L182.56 11.09Q181.96 11.36 180.55 11.97L180.52 11.94L180.44 11.86Q180.83 11.03 181.67 9.47L181.71 9.51L181.61 9.41Q179.31 10.46 176.87 11.03L176.74 10.90L176.82 10.99Q174.13 17.40 174.13 24.82L174.07 24.75L174.07 24.76Q174.13 26.68 174.32 28.66L174.29 28.63L174.42 28.76Q169.75 23.07 165.00 18.46L164.84 18.30L154.89 8.73L154.78 8.62Q154.22 8.33 153.00 7.76L153.03 7.79L153.08 7.84Q157.88 15.49 157.88 24.59L158.02 24.74L158.01 24.72Q157.96 31.79 154.87 37.80L154.95 37.88L154.75 37.68Q155.22 37.73 156.85 37.12L156.80 37.07L156.79 37.05Q156.47 37.84 155.64 39.33L155.59 39.28L155.71 39.40Q157.06 38.89 160.52 38.09L160.53 38.09L160.52 38.08Q162.68 31.79 162.68 24.60L162.73 24.64L162.80 24.72Q162.73 22.55 162.50 20.42L162.49 20.41L162.44 20.36Q174.02 33.27 182.63 40.13Z"/></svg>