<svg xmlns="http://www.w3.org/2000/svg" width="200" height="40" viewBox="0,0,200,40"><path fill="#111" d="M60.32 23.73L60.24 23.65L54.28 23.67L54.28 23.67Q51.37 23.72 48.44 23.65L48.59 23.80L48.48 23.69Q48.54 30.33 46.48 35.85L46.50 35.87L46.66 36.03Q44.70 36.40 42.95 37.08L42.91 37.04L43.09 37.23Q45.76 31.40 45.76 24.74L45.71 24.69L45.87 24.85Q45.73 16.22 41.62 9.18L41.67 9.23L41.60 9.16Q43.24 10.08 45.72 10.88L45.65 10.81L45.57 10.73Q47.73 15.82 48.26 20.69L48.28 20.71L48.34 20.77Q51.48 21.13 54.33 21.09L54.33 21.09L54.38 21.14Q57.07 21.16 60.38 20.90L60.38 20.90L60.29 20.81Q60.76 16.40 62.51 11.30L62.56 11.35L62.56 11.35Q64.57 11.00 66.82 10.16L66.72 10.06L66.84 10.18Q63.22 16.92 63.22 24.88L63.08 24.74L63.12 24.78Q63.22 31.09 65.58 36.42L65.45 36.28L65.56 36.40Q63.93 35.75 61.88 35.45L61.75 35.32L61.78 35.36Q60.11 30.33 60.22 23.63ZM61.55 35.74L61.53 35.71L61.50 35.69Q62.62 35.92 63.72 36.19L63.63 36.10L63.65 36.12Q64.02 36.87 64.66 38.35L64.70 38.39L64.71 38.40Q68.11 39.40 69.90 40.32L69.89 40.31L69.88 40.29Q65.48 34.18 65.18 25.92L65.16 25.91L65.00 25.74Q64.82 17.83 68.47 11.02L68.37 10.92L67.33 11.40L67.37 11.44Q66.84 11.64 66.23 11.79L66.28 11.83L66.26 11.81Q66.75 11.08 67.58 9.52L67.56 9.50L67.44 9.38Q64.86 10.49 62.23 10.98L62.28 11.03L62.15 10.90Q60.58 15.85 60.13 20.53L60.06 20.47L60.11 20.51Q57.53 20.64 55.09 20.64L55.23 20.77L55.15 20.70Q52.70 20.64 50.19 20.49L50.19 20.49L50.26 20.56Q50.02 17.28 48.92 13.20L48.84 13.13L48.87 13.15Q48.32 13.18 46.87 12.80L46.79 12.71L46.74 12.67Q46.51 11.59 46.05 10.56L45.92 10.44L46.07 10.58Q43.32 9.82 41.04 8.56L40.93 8.45L41.01 8.53Q45.57 15.94 45.57 24.74L45.44 24.61L45.55 24.72Q45.54 31.68 42.42 37.81L42.35 37.74L42.36 37.75Q43.06 37.46 44.39 36.89L44.41 36.90L44.53 37.02Q44.12 37.80 43.32 39.32L43.22 39.22L43.39 39.38Q46.20 38.39 48.44 37.97L48.33 37.85L48.37 37.89Q50.22 32.32 50.41 26.15L50.35 26.09L50.45 26.19Q52.08 26.15 55.28 26.11L55.16 25.99L55.18 26.01Q58.01 25.95 59.92 26.03L59.95 26.06L59.90 26.01Q60.23 31.82 61.56 35.74Z"/><path fill="#111" d="M20.61 14.17L20.68 14.24L20.57 14.14Q21.78 18.70 21.94 21.89L21.96 21.91L21.96 21.92Q22.32 21.82 26.70 21.94L26.81 22.05L26.71 21.94Q29.33 22.05 29.71 18.59L29.74 18.62L29.75 18.63Q29.86 16.79 28.94 15.88L28.97 15.90L28.90 15.84Q27.79 15.11 25.81 14.96L25.70 14.85L25.70 14.85Q22.48 14.63 20.61 14.17ZM22.09 23.88L22.00 23.78L21.93 23.72Q22.15 29.76 20.36 35.70L20.36 35.70L20.40 35.74Q19.24 36.14 16.65 37.17L16.52 37.03L16.60 37.11Q19.48 30.67 19.14 23.21L19.03 23.09L19.03 23.09Q18.81 15.84 15.50 9.33L15.44 9.27L15.48 9.31Q20.26 12.04 27.23 12.04L27.29 12.09L27.33 12.13Q32.85 12.02 33.12 15.56L33.18 15.62L33.23 15.68Q33.28 16.25 33.20 16.86L33.24 16.90L33.11 17.99L33.19 18.07Q32.36 21.99 30.22 23.71L30.03 23.52L30.08 23.57Q29.26 24.23 28.23 24.23L28.37 24.36L25.63 24.21L25.68 24.26Q31.30 31.52 35.83 36.09L35.84 36.10L35.87 36.13Q33.71 35.42 30.78 35.08L30.75 35.05L30.72 35.02Q26.92 31.03 22.01 23.79ZM30.66 35.45L30.57 35.37L30.96 35.44L32.16 36.64L32.13 36.61Q32.76 37.21 33.41 37.82L33.35 37.76L33.28 37.69Q36.92 38.40 40.50 40.27L40.39 40.16L40.55 40.31Q33.47 33.43 28.07 26.50L28.08 26.52L29.98 26.66L29.98 26.66Q32.95 26.55 34.28 22.02L34.39 22.13L34.38 22.12Q35.08 19.92 35.08 17.22L34.93 17.07L35.01 17.15Q35.03 14.88 33.31 14.23L33.33 14.25L33.26 14.18Q33.24 13.89 32.66 13.21L32.68 13.22L32.51 13.05Q30.84 11.61 27.19 11.54L27.37 11.72L27.21 11.56Q19.43 11.51 14.75 8.50L14.79 8.54L14.78 8.54Q18.34 15.18 18.69 22.87L18.88 23.06L18.85 23.03Q19.08 30.88 15.96 37.73L16.07 37.84L15.94 37.71Q17.28 37.23 18.08 36.92L18.03 36.87L17.01 39.13L17.10 39.21Q19.86 38.20 22.52 37.70L22.40 37.59L22.47 37.65Q23.70 32.49 23.89 27.27L23.83 27.21L23.97 27.35Q27.37 32.20 30.53 35.32ZM29.36 17.48L29.35 17.47L29.31 17.43Q29.34 17.69 29.34 18.03L29.41 18.10L29.32 18.58L29.29 18.55Q29.37 19.73 28.68 20.68L28.68 20.68L28.69 20.69Q27.99 21.36 27.08 21.55L27.10 21.57L27.25 21.73Q26.97 21.71 25.37 21.75L25.34 21.72L25.28 21.65Q24.80 21.79 23.96 21.67L23.94 21.65L24.00 21.71Q23.83 20.13 23.48 17.08L23.50 17.10L23.40 16.99Q24.85 17.23 25.53 17.23L25.51 17.21L25.47 17.16Q27.30 17.17 29.24 17.36Z"/><path d="M11 22 C86 22,95 25,192 4" stroke="#777" fill="none"/><path fill="#111" d="M79.08 25.57L79.10 25.58L79.06 25.55Q79.12 25.61 82.51 25.57L82.54 25.60L82.51 25.57Q84.77 25.55 85.83 25.58L85.91 25.66L85.92 25.67Q84.87 22.79 82.44 17.16L82.34 17.06L82.42 17.14Q81.81 18.52 80.77 21.37L80.83 21.44L80.84 21.44Q79.81 24.31 79.24 25.72ZM87.07 28.19L86.98 28.10L86.98 28.10Q84.74 28.10 82.53 28.14L82.50 28.11L82.57 28.18Q80.28 28.17 77.99 28.36L77.91 28.28L77.95 28.32Q76.40 31.72 73.17 35.91L73.24 35.99L73.17 35.91Q70.72 36.66 69.35 37.15L69.32 37.13L69.32 37.12Q74.48 31.52 79.17 18.15L79.07 18.06L79.17 18.15Q80.22 14.52 81.59 11.29L81.71 11.41L81.64 11.34Q81.99 11.38 82.33 11.38L82.36 11.41L82.98 11.31L83.10 11.43Q83.88 12.82 88.72 24.47L88.56 24.31L88.59 24.34Q91.95 32.27 95.94 36.41L95.96 36.43L95.90 36.37Q95.31 36.17 91.43 35.29L91.44 35.30L91.42 35.28Q88.94 32.23 86.96 28.08ZM91.35 35.63L91.49 35.77L92.11 35.90L91.98 35.76Q92.22 35.77 92.52 35.89L92.65 36.01L92.68 36.04Q92.88 36.28 94.70 38.30L94.76 38.36L94.81 38.40Q98.28 39.14 100.68 40.16L100.79 40.27L100.81 40.29Q95.34 35.77 91.34 27.78L91.31 27.75L91.30 27.73Q89.59 24.35 88.14 20.39L88.23 20.48L85.53 13.02L85.40 12.89Q85.19 13.02 84.96 13.02L85.07 13.13L84.42 13.01L84.47 13.06Q84.10 12.39 83.38 11.02L83.30 10.95L83.32 10.96Q82.74 10.92 82.29 10.88L82.45 11.05L82.39 10.99Q81.88 10.89 81.35 10.89L81.43 10.98L81.37 10.92Q79.92 14.79 76.03 24.96L76.07 25.00L76.20 25.12Q72.98 32.99 68.34 37.78L68.30 37.74L68.35 37.79Q69.43 37.43 71.45 36.82L71.45 36.82L71.47 36.84Q70.54 37.55 68.98 39.34L68.99 39.35L69.05 39.41Q70.72 38.71 74.64 37.95L74.65 37.97L74.70 38.01Q78.17 33.72 79.73 30.48L79.72 30.47L79.70 30.45Q81.33 30.22 83.65 30.26L83.74 30.34L83.70 30.30Q86.43 30.33 87.80 30.41L87.77 30.37L87.75 30.35Q89.03 32.74 91.39 35.67ZM83.62 20.93L83.80 21.11L83.79 21.10Q84.51 23.04 85.27 25.13L85.44 25.30L82.05 25.22L82.00 25.18Q82.56 23.72 83.63 20.94Z"/><path fill="#222" d="M169.26 27.18L159.97 17.13L159.99 17.15Q160.92 20.93 160.92 24.66L160.89 24.63L160.80 24.54Q160.87 30.59 158.81 36.15L158.78 36.11L158.80 36.14Q157.80 36.46 155.55 37.22L155.44 37.11L155.52 37.20Q158.26 31.33 158.26 24.63L158.23 24.60L158.23 24.60Q158.32 16.04 153.82 8.62L153.71 8.51L153.86 8.66Q154.18 8.71 154.87 9.13L154.86 9.12L154.84 9.11Q167.07 20.45 174.91 29.70L174.87 29.67L174.88 29.68Q174.59 27.26 174.59 24.82L174.45 24.68L174.48 24.71Q174.60 17.59 177.11 11.39L176.98 11.26L177.02 11.29Q179.40 10.83 181.00 10.14L180.88 10.02L181.06 10.19Q177.69 16.31 177.39 23.47L177.40 23.48L177.34 23.42Q177.09 30.82 180.06 36.99L179.99 36.92L180.00 36.93Q179.53 36.96 179.11 36.77L179.10 36.75L179.04 36.69Q174.46 32.72 169.24 27.16L169.29 27.21ZM182.54 40.04L182.59 40.09L182.72 40.22Q183.07 40.27 183.49 40.46L183.57 40.54L184.30 40.77L184.32 40.80Q179.25 33.93 179.25 24.57L179.13 24.45L179.16 24.48Q179.12 17.21 182.43 10.96L182.61 11.14L182.57 11.10Q181.95 11.35 180.54 11.96L180.40 11.82L180.48 11.91Q180.76 10.96 181.60 9.40L181.69 9.50L181.71 9.51Q179.19 10.34 176.75 10.91L176.86 11.02L176.79 10.96Q174.08 17.34 174.08 24.76L174.19 24.88L174.21 24.89Q174.14 26.69 174.33 28.67L174.43 28.77L174.27 28.61Q169.73 23.04 164.97 18.43L164.85 18.31L154.75 8.59L154.89 8.74Q154.36 8.47 153.14 7.90L153.15 7.90L153.06 7.82Q157.89 15.50 157.89 24.60L157.97 24.68L157.84 24.56Q157.93 31.76 154.85 37.78L154.85 37.78L154.93 37.86Q155.16 37.67 156.79 37.06L156.73 37.00L156.79 37.06Q156.45 37.82 155.62 39.31L155.70 39.39L155.75 39.44Q157.03 38.85 160.49 38.05L160.46 38.03L160.41 37.97Q162.68 31.80 162.68 24.60L162.83 24.74L162.86 24.78Q162.84 22.67 162.61 20.53L162.58 20.50L162.64 20.56Q174.07 33.32 182.67 40.17Z"/><path fill="#444" d="M111.91 35.17L111.85 35.12L109.79 35.34L109.66 35.21Q109.25 35.26 108.28 35.32L108.39 35.43L108.30 35.34Q107.40 35.46 106.91 35.46L106.90 35.46L106.89 35.45Q105.25 35.44 104.22 34.60L104.15 34.53L104.22 34.60Q105.01 33.49 106.65 31.36L106.66 31.37L106.63 31.34Q107.97 32.99 110.18 32.76L110.16 32.74L110.05 32.63Q111.08 32.63 111.72 31.98L111.57 31.83L111.74 32.00Q112.24 31.21 112.13 30.33L112.25 30.45L112.10 30.30Q112.08 25.79 112.16 21.22L112.23 21.30L112.15 21.21Q112.21 16.63 112.74 12.02L112.77 12.06L112.64 11.92Q114.74 11.89 116.88 10.87L116.82 10.81L116.89 10.88Q115.03 17.62 115.03 24.86L114.88 24.71L114.92 24.75Q114.94 28.30 115.39 31.80L115.35 31.76L115.30 31.71Q115.44 32.12 115.44 32.46L115.43 32.46L115.41 32.43Q115.40 32.99 115.17 33.52L115.28 33.63L115.18 33.54Q114.70 34.88 111.88 35.15ZM116.70 37.87L116.73 37.90L117.08 37.91L117.47 37.88L117.76 37.79L117.61 37.64Q118.00 37.45 118.07 37.34L118.08 37.35L118.07 37.34Q118.16 36.06 117.90 35.07L118.07 35.25L117.89 35.07Q116.63 29.35 116.89 22.99L117.00 23.10L116.92 23.02Q117.08 16.81 118.86 10.91L119.01 11.06L118.96 11.01Q117.96 11.53 116.71 12.26L116.75 12.30L116.72 12.27Q116.95 11.55 117.37 10.03L117.45 10.10L117.50 10.16Q114.97 11.47 112.30 11.78L112.18 11.65L112.26 11.73Q111.92 16.15 111.84 21.10L111.73 20.98L111.80 21.05Q111.77 27.01 111.85 30.43L111.90 30.48L111.90 30.48Q111.84 32.14 110.09 32.29L110.03 32.23L110.11 32.31Q108.37 32.39 106.69 30.75L106.78 30.84L106.75 30.81Q104.57 33.21 103.62 34.77L103.65 34.80L103.64 34.78Q104.43 35.58 105.46 35.80L105.43 35.77L105.28 35.63Q105.36 35.93 105.09 36.16L105.04 36.11L104.95 36.02Q106.55 37.12 108.53 37.39L108.46 37.32L108.54 37.40Q108.94 37.46 112.23 37.76L112.17 37.70L112.07 37.60Q115.46 38.01 116.84 38.01Z"/><path d="M21 33 C82 28,109 6,197 7" stroke="#333" fill="none"/><path fill="#333" d="M147.37 18.27L147.40 18.30L147.29 18.19Q145.67 14.21 139.47 14.40L139.56 14.49L139.49 14.43Q135.07 14.54 133.09 15.98L133.01 15.90L133.10 16.00Q130.60 17.64 130.60 21.75L130.72 21.88L130.66 23.67L130.73 23.74Q130.68 32.53 139.71 32.53L139.79 32.62L139.79 32.62Q141.68 32.46 143.17 31.66L143.32 31.81L143.21 31.70Q145.03 30.67 144.88 28.80L145.00 28.92L145.01 28.93Q144.75 26.76 141.05 25.85L140.95 25.75L139.16 25.90L139.00 25.74Q138.13 25.82 137.18 25.86L137.12 25.79L137.14 25.82Q137.09 24.82 137.06 22.92L137.21 23.07L137.20 23.06Q144.77 22.98 148.96 22.64L148.98 22.66L149.04 22.72Q148.93 23.49 148.93 24.29L148.86 24.21L148.91 24.26Q148.88 25.03 148.92 25.83L149.01 25.92L149.08 26.00Q147.80 25.82 147.80 25.82L147.87 25.89L147.92 25.94Q146.46 25.85 146.84 25.85L146.85 25.86L146.91 25.92Q148.06 27.60 148.44 29.58L148.43 29.57L148.42 29.56Q148.36 30.11 148.36 30.57L148.46 30.67L148.46 30.67Q148.51 35.37 139.72 35.37L139.69 35.34L139.56 35.21Q132.44 35.21 129.85 33.11L129.99 33.25L129.87 33.13Q127.94 30.81 127.94 25.75L127.90 25.71L128.02 25.84Q127.90 24.65 127.75 21.95L127.80 22.00L127.74 21.93Q127.72 19.71 127.75 18.34L127.68 18.27L127.68 18.27Q127.90 15.51 129.27 13.91L129.28 13.92L129.26 13.91Q131.73 11.77 136.61 11.58L136.67 11.65L139.32 11.55L139.29 11.52Q142.36 11.40 145.79 11.82L145.74 11.77L145.72 11.74Q149.63 12.38 150.58 15.62L150.44 15.48L150.58 15.62Q149.51 16.49 147.41 18.32ZM148.69 20.39L148.82 20.41L148.90 20.49Q150.06 19.37 151.93 17.39L151.96 17.41L151.88 17.33Q151.74 16.55 150.75 14.84L150.66 14.74L150.58 14.66Q149.51 12.11 145.70 11.46L145.73 11.49L145.74 11.50Q143.67 11.45 139.37 11.14L139.30 11.07L136.53 11.12L136.48 11.08Q131.45 11.41 128.86 13.39L128.85 13.37L128.80 13.33Q127.43 14.97 127.32 18.05L127.28 18.01L127.23 17.97Q127.39 17.66 127.62 23.15L127.50 23.03L127.65 23.18Q127.60 24.47 127.68 27.21L127.73 27.25L127.75 27.28Q127.79 31.58 129.54 33.52L129.51 33.49L129.67 33.66Q130.06 34.50 130.93 35.37L130.95 35.39L130.77 35.21Q133.77 37.18 139.29 37.52L139.21 37.45L142.23 37.76L142.07 37.60Q143.80 37.84 145.81 37.73L145.70 37.61L145.79 37.70Q147.26 37.65 149.35 37.12L149.35 37.12L149.26 37.02Q151.21 36.54 151.17 34.22L151.19 34.23L151.17 34.22Q151.17 32.96 150.11 30.18L150.14 30.21L150.16 30.24Q149.87 29.34 149.34 28.54L149.40 28.60L149.33 28.53Q149.91 28.54 151.09 28.73L151.15 28.79L151.02 28.66Q150.87 25.20 150.91 24.51L150.85 24.45L150.89 24.49Q150.54 24.52 150.12 24.48L150.14 24.50L150.13 24.50Q149.73 24.44 149.35 24.52L149.31 24.48L149.37 24.54Q149.26 23.32 149.34 22.25L149.31 22.23L149.41 22.33Q143.03 22.73 136.75 22.61L136.88 22.74L136.83 22.69Q136.90 23.64 136.90 24.55L136.82 24.47L136.92 26.33L136.90 26.30Q137.25 26.28 137.67 26.24L137.61 26.17L137.75 26.31Q138.16 26.30 138.61 26.30L138.47 26.16L138.59 26.28Q138.52 26.66 138.56 27.16L138.52 27.12L138.56 27.16Q138.63 27.69 138.59 28.19L138.51 28.10L138.51 28.10Q139.60 28.13 140.63 28.09L140.71 28.17L140.62 28.08Q141.56 28.00 142.59 28.04L142.57 28.02L142.64 28.08Q143.61 28.26 144.49 28.64L144.51 28.66L144.67 28.85L144.62 28.80Q144.77 30.33 143.09 31.24L143.05 31.20L143.06 31.21Q141.31 32.04 139.60 32.04L139.75 32.20L139.63 32.08Q135.95 32.24 133.51 30.49L133.42 30.40L133.38 30.36Q132.55 28.46 132.70 25.91L132.52 25.73L132.55 25.76Q132.90 21.01 134.75 19.01L134.86 19.13L134.77 19.03Q136.59 17.01 141.28 16.71L141.25 16.68L141.36 16.79Q144.95 16.49 146.89 18.28L146.97 18.36L146.93 18.33Q146.96 18.40 147.08 18.59L147.07 18.58L147.12 18.51L147.28 18.68Q147.86 19.37 148.43 20.48L148.43 20.47L148.69 20.39Z"/></svg>