<svg xmlns="http://www.w3.org/2000/svg" width="200" height="40" viewBox="0,0,200,40"><path fill="#222" d="M47.00 10.85L46.95 10.79L47.07 10.91Q48.91 15.73 49.48 20.90L49.55 20.98L49.41 20.84Q53.11 16.69 59.01 11.86L59.08 11.93L59.05 11.89Q62.30 11.64 64.93 10.84L64.86 10.77L58.41 16.51L58.42 16.52Q54.84 19.29 51.98 22.15L52.06 22.23L51.99 22.16Q60.13 31.47 65.19 36.19L65.01 36.01L65.10 36.10Q62.07 35.25 59.75 35.10L59.79 35.13L59.64 34.98Q53.96 29.68 49.66 23.86L49.55 23.76L49.69 23.89Q49.72 30.43 47.85 35.76L47.95 35.86L47.82 35.73Q47.53 35.70 47.03 35.89L47.04 35.90L47.14 36.19L47.12 36.17Q46.96 36.23 44.40 37.15L44.43 37.17L44.38 37.12Q47.24 30.46 46.90 23.00L46.89 22.99L46.92 23.02Q46.57 15.67 43.03 9.16L43.13 9.26L43.60 9.46L43.95 9.71L44.00 9.71L43.99 9.70Q44.72 10.09 46.92 10.77ZM47.28 10.56L47.33 10.61L47.36 10.64Q45.06 10.05 42.44 8.53L42.41 8.50L42.40 8.49Q46.59 15.69 46.59 24.64L46.67 24.71L46.76 24.81Q46.77 31.82 43.80 37.87L43.77 37.84L45.74 36.92L45.69 36.87Q45.31 37.90 44.63 39.20L44.70 39.27L44.64 39.21Q46.80 38.33 48.75 37.91L48.82 37.98L49.00 37.93L49.02 37.95Q49.16 37.79 49.73 37.64L49.81 37.72L49.66 37.57Q51.49 31.82 51.61 27.03L51.58 27.00L51.43 26.85Q53.61 29.45 55.44 31.31L55.41 31.29L55.38 31.25Q56.60 32.40 59.61 35.37L59.68 35.44L59.73 35.49L59.57 35.33Q60.70 36.28 62.57 37.88L62.51 37.81L62.57 37.88Q66.34 38.49 69.81 40.20L69.84 40.23L69.87 40.27Q60.61 31.73 54.37 24.31L54.29 24.22L54.40 24.34Q58.77 20.02 67.52 11.42L67.55 11.45L67.59 11.49Q65.03 12.62 63.01 13.00L62.93 12.92L62.90 12.89Q64.08 11.86 66.40 9.84L66.40 9.84L66.54 9.98Q62.28 11.25 58.93 11.44L59.09 11.59L59.00 11.51Q56.12 13.76 51.25 18.45L51.28 18.48L51.14 18.34Q50.73 15.72 50.16 13.17L50.28 13.29L50.28 13.29Q48.98 13.01 47.99 12.67L48.02 12.70L48.02 12.70Q47.84 12.00 47.27 10.55Z"/><path fill="#222" d="M136.47 21.85L136.53 21.92L136.47 21.85Q138.30 22.05 140.12 22.05L140.04 21.96L139.98 21.90Q141.86 21.99 143.69 21.84L143.65 21.80L143.61 21.77Q143.50 22.41 143.50 23.14L143.56 23.20L143.51 24.48L143.51 24.48Q141.30 24.63 136.54 24.74L136.36 24.56L136.36 24.57Q136.52 30.66 135.38 35.65L135.27 35.55L135.38 35.65Q133.11 36.28 131.63 37.08L131.57 37.02L131.54 36.98Q133.84 30.15 133.57 23.03L133.67 23.13L133.62 23.08Q133.30 15.87 130.63 9.21L130.80 9.37L130.75 9.32Q134.46 11.89 139.22 12.12L139.24 12.14L139.12 12.02Q143.76 12.17 147.91 10.42L147.99 10.49L147.88 10.39Q147.66 11.27 147.43 12.07L147.54 12.17L147.03 13.76L146.93 13.67Q144.31 14.85 141.34 15.00L141.35 15.01L141.34 15.00Q138.46 15.21 135.61 14.48L135.61 14.48L135.47 14.34Q136.33 17.91 136.52 21.90ZM148.58 9.75L148.68 9.85L148.59 9.76Q144.08 11.99 139.21 11.69L139.10 11.58L139.19 11.67Q133.88 11.39 130.15 8.53L130.11 8.49L130.16 8.54Q132.90 15.35 133.20 22.97L133.23 22.99L133.23 22.99Q133.65 31.03 131.14 37.80L131.09 37.76L131.17 37.84Q131.66 37.26 133.03 36.62L133.21 36.80L133.13 36.71Q132.91 37.44 132.34 38.97L132.36 38.99L132.29 38.92Q134.74 37.98 137.63 37.49L137.59 37.44L137.63 37.48Q138.27 32.64 138.46 26.93L138.33 26.80L138.45 26.92Q140.23 26.88 142.06 26.88L141.93 26.74L141.92 26.74Q143.74 26.76 145.56 26.95L145.52 26.91L145.57 26.96Q145.42 25.97 145.42 25.06L145.47 25.11L145.49 23.23L145.59 23.32Q144.76 23.37 143.92 23.37L143.90 23.34L143.88 23.32Q143.92 22.49 143.99 21.46L143.95 21.41L143.90 21.37Q142.68 21.71 141.28 21.71L141.17 21.60L141.12 21.56Q139.79 21.64 138.42 21.60L138.38 21.56L138.38 19.42L138.28 19.33Q138.37 18.35 138.25 17.28L138.14 17.17L138.10 17.12Q139.28 17.39 140.26 17.39L140.09 17.21L140.21 17.33Q144.96 17.33 148.58 15.43L148.60 15.44L148.54 15.38Q149.02 13.54 149.93 10.92L149.91 10.89L149.94 10.92Q148.74 11.86 147.95 12.20L147.86 12.11L147.79 12.04Q148.21 11.44 148.70 9.88Z"/><path fill="#222" d="M166.58 35.27L166.63 35.32L166.60 35.30Q163.02 35.30 161.39 34.76L161.43 34.81L161.53 34.90Q159.45 34.16 159.15 30.77L159.16 30.78L160.61 29.72L160.69 29.80Q161.35 29.20 162.11 28.71L162.17 28.77L162.09 28.69Q161.80 30.57 163.40 31.79L163.50 31.89L163.42 31.80Q164.71 32.83 166.84 32.64L166.75 32.55L166.83 32.63Q171.26 32.26 171.07 28.72L171.12 28.78L171.06 28.71Q170.95 26.51 168.32 25.29L168.34 25.31L168.18 25.14Q165.31 24.07 162.95 22.85L162.97 22.87L163.12 23.02Q160.40 21.52 159.41 16.84L159.59 17.01L159.45 16.88Q159.29 16.37 159.18 15.61L159.28 15.72L159.28 15.71Q159.12 14.87 159.19 14.29L159.31 14.41L159.34 14.44Q159.39 12.74 160.65 12.29L160.74 12.38L160.59 12.23Q162.97 11.34 166.97 11.53L167.11 11.67L167.01 11.56Q168.83 11.67 169.63 11.75L169.75 11.87L169.65 11.77Q171.19 12.01 172.25 12.47L172.34 12.56L172.24 12.45Q174.32 12.90 174.55 15.37L174.54 15.37L174.66 15.48Q173.57 16.15 171.36 17.48L171.31 17.42L171.41 17.53Q170.87 14.40 166.50 14.40L166.63 14.53L166.63 14.54Q164.67 14.48 163.68 15.17L163.70 15.19L163.61 15.10Q162.53 15.69 162.76 17.48L162.68 17.40L162.65 17.37Q162.98 19.65 165.95 21.17L165.95 21.17L165.90 21.12Q166.40 21.31 170.89 22.95L171.02 23.08L170.87 22.92Q173.61 24.53 174.03 28.91L173.93 28.80L173.99 28.87Q173.99 29.02 174.07 30.27L174.03 30.24L174.01 30.22Q174.23 33.14 172.67 34.24L172.56 34.14L172.49 34.06Q170.77 35.16 166.58 35.28ZM168.95 37.72L168.88 37.65L168.78 37.55Q170.27 37.67 172.25 37.67L172.31 37.73L172.28 37.69Q174.33 37.66 175.59 37.24L175.69 37.34L175.61 37.26Q176.83 36.42 176.75 34.63L176.80 34.68L176.79 34.67Q176.81 33.74 176.43 31.69L176.37 31.62L176.35 31.60Q175.46 26.95 173.37 25.08L173.33 25.05L173.29 25.01Q172.57 23.48 171.24 22.76L171.19 22.71L165.83 20.59L165.86 20.62Q165.60 20.52 165.15 20.29L165.26 20.40L165.03 19.91L164.91 19.44L164.97 19.50Q164.81 18.09 165.95 17.48L165.97 17.50L166.06 17.59Q166.67 16.86 168.39 16.67L168.42 16.70L168.48 16.77Q169.54 16.58 170.69 17.03L170.86 17.20L170.78 17.13Q170.81 17.19 171.00 18.03L171.11 18.14L171.11 18.14Q171.17 17.85 171.66 17.63L171.69 17.65L171.68 17.64Q172.39 18.54 172.50 19.68L172.61 19.80L172.50 19.68Q172.58 19.65 176.24 17.06L176.29 17.12L176.24 17.07Q176.11 14.57 174.66 13.89L174.56 13.79L174.60 13.83Q174.04 12.58 172.60 12.05L172.56 12.02L172.63 12.09Q170.26 11.20 167.06 11.20L166.97 11.11L167.03 11.16Q162.09 11.14 160.22 11.82L160.36 11.96L160.23 11.83Q159.02 12.41 158.91 14.09L158.79 13.97L158.84 14.02Q158.73 14.48 159.15 16.69L159.25 16.79L159.14 16.68Q159.85 20.47 162.02 22.71L162.11 22.81L162.11 22.81Q162.92 24.53 164.42 25.22L164.36 25.15L164.47 25.26Q165.88 25.86 169.80 27.42L169.85 27.46L169.86 27.51L170.38 27.73L170.59 27.98L170.54 27.93Q170.55 28.20 170.59 28.54L170.78 28.73L170.67 28.63Q170.85 32.20 166.93 32.35L166.94 32.36L166.93 32.35Q165.75 32.35 164.46 31.97L164.45 31.97L164.38 31.89Q164.15 31.17 164.15 30.44L163.96 30.26L164.00 30.29Q164.02 30.04 164.05 29.78L164.05 29.77L164.06 29.78Q163.77 30.14 162.97 30.63L162.88 30.54L162.81 30.47Q162.47 29.53 162.62 28.16L162.47 28.00L162.46 27.99Q160.36 29.17 158.76 30.58L158.87 30.68L158.77 30.59Q158.90 31.48 158.98 32.51L158.87 32.39L159.01 32.54Q159.33 34.26 160.62 35.02L160.64 35.05L160.69 35.09Q161.78 36.79 164.33 37.17L164.33 37.17L164.43 37.27Q165.92 37.43 168.85 37.62Z"/><path d="M12 10 C114 24,86 3,192 11" stroke="#888" fill="none"/><path fill="#333" d="M118.78 35.30L118.79 35.32L118.76 35.28Q115.87 31.48 113.24 22.84L113.20 22.80L113.16 22.76Q112.51 20.62 111.71 18.49L111.74 18.52L108.97 27.40L108.87 27.30Q107.14 32.31 104.74 35.55L104.69 35.50L104.78 35.58Q103.83 35.54 102.19 35.69L102.31 35.82L102.29 35.80Q102.34 34.55 102.34 33.29L102.28 33.24L102.29 33.24Q102.38 27.32 99.64 21.20L99.59 21.15L99.56 21.11Q96.53 14.31 90.67 9.33L90.51 9.17L90.63 9.29Q92.71 9.92 95.07 10.46L95.19 10.58L95.17 10.56Q103.85 19.01 105.14 29.97L105.13 29.95L105.14 29.97Q106.77 26.64 108.21 21.28L108.25 21.32L108.16 21.22Q110.21 13.79 110.70 12.38L110.64 12.32L112.94 12.37L112.97 12.41Q113.65 14.41 114.29 16.73L114.33 16.77L115.47 21.10L115.53 21.17Q117.09 26.61 118.49 29.84L118.40 29.75L118.35 29.70Q120.14 18.20 128.06 10.86L127.93 10.73L127.93 10.73Q129.59 10.52 132.56 9.88L132.61 9.92L132.57 9.89Q127.18 14.13 124.13 20.26L124.10 20.22L124.12 20.24Q121.06 26.51 121.06 33.29L121.05 33.28L121.07 33.30Q121.07 34.40 121.14 35.54L121.20 35.59L120.03 35.46L120.06 35.49Q119.50 35.45 118.93 35.45ZM125.02 38.20L125.15 38.33L125.15 38.33Q123.81 34.66 123.92 30.78L123.92 30.78L123.86 30.72Q124.35 19.33 133.72 11.07L133.57 10.92L133.60 10.96Q132.68 11.22 130.74 11.75L130.73 11.74L130.75 11.75Q131.70 10.92 133.60 9.13L133.58 9.10L133.57 9.09Q130.97 9.93 128.04 10.42L128.02 10.40L128.02 10.40Q120.63 17.62 118.72 27.10L118.59 26.97L118.61 26.99Q118.00 25.31 115.15 13.86L115.18 13.89L115.13 13.84Q114.78 13.98 113.83 13.98L113.81 13.96L113.48 12.87L113.52 12.91Q113.49 12.47 113.27 11.98L113.11 11.82L110.29 11.89L110.35 11.96Q109.38 14.26 108.11 19.38L108.09 19.36L108.23 19.50Q106.81 24.48 105.82 26.95L105.98 27.12L105.89 27.02Q104.35 19.16 98.79 12.84L98.81 12.86L98.81 12.87Q98.39 12.86 97.43 12.67L97.25 12.48L97.38 12.61Q96.60 11.72 95.04 10.09L95.05 10.09L94.99 10.03Q91.69 9.32 89.52 8.52L89.57 8.57L89.46 8.46Q95.17 13.18 98.44 19.38L98.43 19.37L98.53 19.47Q101.91 26.02 101.91 33.02L101.87 32.98L101.87 32.97Q101.95 34.62 101.76 36.22L101.81 36.27L101.77 36.22Q101.94 36.17 102.40 36.08L102.36 36.03L102.44 36.12Q102.79 35.91 103.02 35.91L103.16 36.05L103.00 36.93L103.15 37.08Q103.08 37.46 103.16 38.00L103.17 38.00L103.22 38.06Q104.40 38.02 106.68 37.87L106.51 37.69L106.57 37.75Q110.17 32.33 112.91 22.93L113.02 23.03L113.05 23.07Q115.81 31.84 118.78 35.80L118.75 35.77L118.65 35.68Q119.12 35.68 119.95 35.80L120.02 35.86L119.96 35.80Q120.93 36.97 122.00 38.03L121.88 37.91L121.91 37.95Q122.78 38.09 125.18 38.36Z"/><path d="M18 33 C94 39,79 15,198 31" stroke="#333" fill="none"/><path fill="#333" d="M88.49 23.61L88.49 23.61L82.73 23.83L82.71 23.81Q79.81 23.88 76.88 23.81L76.76 23.69L76.73 23.66Q77.02 30.53 74.96 36.05L74.86 35.95L74.88 35.97Q73.13 36.54 71.38 37.22L71.35 37.20L71.36 37.20Q74.14 31.49 74.14 24.83L74.01 24.70L74.04 24.74Q74.07 16.27 69.96 9.23L69.94 9.21L69.88 9.15Q71.39 9.94 73.86 10.74L74.02 10.90L73.95 10.82Q76.03 15.84 76.57 20.71L76.53 20.67L76.67 20.81Q79.71 21.08 82.57 21.04L82.72 21.19L82.70 21.18Q85.43 21.23 88.74 20.97L88.69 20.92L88.57 20.80Q89.06 16.42 90.81 11.31L90.93 11.44L90.87 11.37Q92.73 10.88 94.98 10.04L95.00 10.06L95.08 10.15Q91.43 16.85 91.43 24.81L91.36 24.74L91.38 24.75Q91.37 30.95 93.73 36.28L93.78 36.33L93.85 36.40Q92.23 35.77 90.18 35.47L90.15 35.44L90.05 35.34Q88.43 30.37 88.54 23.67ZM89.76 35.66L89.82 35.72L89.85 35.75Q90.98 36.00 92.08 36.27L91.95 36.13L91.93 36.11Q92.42 36.99 93.07 38.47L92.97 38.37L93.05 38.46Q96.34 39.35 98.13 40.26L98.14 40.27L98.12 40.25Q93.71 34.13 93.41 25.87L93.44 25.90L93.31 25.77Q93.13 17.86 96.78 11.04L96.76 11.02L95.64 11.42L95.68 11.46Q95.09 11.60 94.48 11.75L94.58 11.85L94.47 11.74Q94.99 11.04 95.83 9.48L95.77 9.42L95.88 9.53Q93.12 10.47 90.49 10.96L90.51 10.98L90.55 11.01Q88.80 15.78 88.35 20.46L88.44 20.55L88.42 20.54Q85.88 20.70 83.44 20.70L83.55 20.80L83.38 20.64Q81.08 20.74 78.57 20.58L78.63 20.64L78.50 20.51Q78.38 17.35 77.27 13.27L77.17 13.17L77.28 13.28Q76.50 13.07 75.06 12.69L75.10 12.74L75.13 12.77Q74.63 11.43 74.17 10.40L74.30 10.53L74.34 10.57Q71.48 9.69 69.20 8.43L69.33 8.56L69.15 8.39Q73.77 15.86 73.77 24.66L73.83 24.71L73.87 24.76Q73.75 31.60 70.63 37.73L70.63 37.74L70.63 37.74Q71.48 37.59 72.81 37.02L72.64 36.85L72.63 36.84Q72.44 37.83 71.64 39.35L71.62 39.34L71.51 39.22Q74.50 38.41 76.75 37.99L76.63 37.87L76.65 37.89Q78.61 32.43 78.80 26.26L78.72 26.18L78.76 26.22Q80.34 26.13 83.54 26.09L83.55 26.10L83.49 26.04Q86.44 26.09 88.34 26.17L88.19 26.02L88.25 26.08Q88.58 31.89 89.91 35.81Z"/><path fill="#111" d="M20.58 14.14L20.61 14.17L20.65 14.21Q21.75 18.66 21.90 21.85L22.00 21.96L22.00 21.95Q22.50 22.00 26.88 22.12L26.83 22.07L26.73 21.96Q29.34 22.06 29.72 18.59L29.78 18.66L29.71 18.58Q29.86 16.79 28.94 15.88L28.92 15.86L29.02 15.96Q27.73 15.05 25.75 14.90L25.74 14.88L25.76 14.90Q22.55 14.70 20.68 14.25ZM21.95 23.73L22.05 23.83L21.98 23.77Q22.23 29.84 20.44 35.78L20.33 35.67L20.39 35.72Q19.20 36.09 16.61 37.12L16.68 37.19L16.66 37.17Q19.30 30.49 18.96 23.03L19.01 23.08L19.13 23.20Q18.84 15.86 15.53 9.35L15.37 9.19L15.50 9.33Q20.28 12.05 27.24 12.05L27.36 12.16L27.29 12.10Q32.97 12.14 33.24 15.68L33.14 15.59L33.23 15.67Q33.28 16.26 33.20 16.87L33.11 16.78L33.14 18.02L33.02 17.90Q32.32 21.96 30.18 23.67L30.17 23.66L30.06 23.54Q29.34 24.31 28.32 24.31L28.38 24.38L25.75 24.34L25.80 24.39Q31.32 31.55 35.85 36.11L35.81 36.07L35.94 36.20Q33.59 35.29 30.66 34.95L30.71 35.01L30.65 34.94Q27.01 31.12 22.10 23.89ZM30.54 35.33L30.57 35.36L30.88 35.37L32.06 36.55L32.09 36.58Q32.77 37.22 33.42 37.83L33.40 37.81L33.34 37.75Q36.83 38.31 40.41 40.17L40.39 40.16L40.50 40.26Q33.64 33.60 28.24 26.67L28.24 26.67L29.87 26.55L29.88 26.56Q33.06 26.66 34.39 22.13L34.40 22.13L34.28 22.02Q34.95 19.79 34.95 17.09L35.09 17.23L34.99 17.13Q34.96 14.81 33.25 14.17L33.38 14.31L33.21 14.13Q33.10 13.76 32.53 13.07L32.58 13.12L32.69 13.23Q30.95 11.72 27.29 11.64L27.25 11.60L27.38 11.72Q19.47 11.54 14.79 8.54L14.78 8.53L14.73 8.48Q18.45 15.29 18.80 22.98L18.79 22.98L18.79 22.97Q19.18 30.97 16.06 37.83L16.00 37.77L15.93 37.70Q17.32 37.26 18.12 36.96L18.10 36.94L17.16 39.27L17.11 39.22Q19.90 38.24 22.56 37.75L22.54 37.72L22.39 37.58Q23.82 32.61 24.01 27.39L23.87 27.25L24.00 27.39Q27.46 32.29 30.62 35.42ZM29.31 17.43L29.24 17.36L29.42 17.53Q29.36 17.71 29.36 18.05L29.28 17.97L29.33 18.59L29.44 18.69Q29.38 19.75 28.70 20.70L28.64 20.64L28.64 20.64Q28.15 21.52 27.23 21.71L27.14 21.62L27.10 21.58Q26.89 21.63 25.30 21.67L25.35 21.73L25.33 21.71Q24.81 21.80 23.97 21.68L23.86 21.57L23.96 21.67Q23.87 20.17 23.52 17.12L23.55 17.15L23.42 17.02Q24.92 17.30 25.60 17.30L25.54 17.23L25.50 17.19Q27.38 17.25 29.32 17.44Z"/></svg>