<svg xmlns="http://www.w3.org/2000/svg" width="200" height="40" viewBox="0,0,200,40"><path fill="#111" d="M50.43 35.41L50.28 35.26L50.37 35.35Q48.88 35.34 47.31 34.92L47.33 34.93L47.41 35.01Q46.18 34.08 46.02 32.45L46.11 32.53L46.05 32.47Q45.93 32.20 46.12 29.57L46.23 29.68L46.18 29.63Q47.18 29.42 49.20 29.04L49.14 28.98L49.02 29.81L49.09 29.88Q48.67 31.48 50.08 32.05L50.26 32.23L50.17 32.14Q50.98 32.50 53.08 32.50L53.05 32.47L53.03 32.45Q54.62 32.28 54.81 32.21L54.90 32.30L54.90 32.30Q55.81 32.15 56.54 31.65L56.49 31.60L56.56 31.68Q57.89 30.64 57.70 28.55L57.69 28.54L57.67 28.52Q57.51 26.12 55.78 24.56L55.81 24.59L55.76 24.54Q54.07 23.02 51.60 23.02L51.67 23.09L51.63 22.82L51.48 22.68Q51.93 22.71 52.81 22.63L52.87 22.69L52.89 22.71Q54.68 22.49 56.05 21.25L56.16 21.36L56.20 21.40Q57.57 20.16 57.73 18.30L57.70 18.27L57.62 18.19Q57.66 17.81 57.66 17.47L57.67 17.48L57.61 17.43Q57.72 16.01 56.35 15.10L56.32 15.07L56.40 15.15Q55.14 14.30 53.54 14.42L53.56 14.43L53.53 14.40Q52.28 14.30 51.06 14.71L51.10 14.76L51.10 14.76Q49.66 15.30 49.36 16.44L49.17 16.25L49.32 16.41Q49.11 17.15 49.19 17.91L49.10 17.82L49.06 17.78Q48.19 17.71 46.13 16.99L45.99 16.84L46.04 16.89Q45.80 15.20 45.83 14.36L45.93 14.46L45.84 14.37Q45.99 12.89 47.06 12.20L47.13 12.28L47.08 12.23Q48.45 11.57 50.05 11.57L50.09 11.61L50.06 11.59Q53.13 11.45 56.29 11.72L56.48 11.91L56.34 11.78Q61.50 12.29 61.20 16.06L61.17 16.04L61.06 15.92Q61.09 17.52 60.60 19.08L60.54 19.02L60.52 19.00Q59.62 22.10 57.26 23.01L57.34 23.09L57.22 22.97Q59.99 23.65 60.60 27.00L60.62 27.01L60.61 27.01Q60.71 28.02 60.78 30.04L60.92 30.17L60.74 29.99Q61.01 34.56 56.40 35.02L56.42 35.04L56.40 35.01Q55.57 34.99 50.28 35.25ZM55.65 37.66L55.57 37.58L55.66 37.67Q56.21 37.64 59.06 37.72L59.10 37.76L59.10 37.76Q60.88 37.87 62.52 37.22L62.49 37.18L62.39 37.09Q63.66 36.23 63.47 34.48L63.42 34.43L63.37 34.37Q63.28 33.07 62.98 31.32L63.02 31.36L62.91 31.24Q62.37 26.94 60.42 25.30L60.31 25.19L60.24 24.93L60.17 24.82L60.07 24.72Q61.83 23.28 62.59 18.90L62.71 19.02L62.64 18.95Q62.59 18.40 62.70 17.45L62.68 17.43L62.68 17.43Q62.92 16.83 62.84 16.15L62.86 16.16L62.85 16.15Q62.58 14.35 61.28 13.67L61.42 13.81L61.32 13.78L61.22 13.69Q61.02 12.80 59.87 12.26L59.78 12.17L59.81 12.20Q58.29 11.52 53.15 11.21L53.18 11.24L53.24 11.30Q51.51 11.17 49.91 11.17L49.91 11.17L49.90 11.16Q48.35 11.21 46.83 11.86L46.80 11.83L46.84 11.86Q45.50 12.51 45.50 14.26L45.46 14.22L45.47 14.23Q45.44 13.78 45.71 17.13L45.74 17.17L45.84 17.26Q46.13 17.32 47.76 17.93L47.68 17.85L47.72 17.89Q47.79 18.49 47.76 18.99L47.76 18.99L47.76 18.99Q47.75 19.48 47.79 20.01L47.80 20.02L47.70 19.92Q49.43 20.24 51.45 20.36L51.58 20.49L51.60 20.51Q51.49 18.46 52.60 17.62L52.56 17.58L52.59 17.62Q53.51 17.05 55.53 16.82L55.48 16.78L55.36 16.65Q56.53 16.68 57.10 16.87L57.12 16.89L57.12 16.89Q57.25 17.10 57.29 17.21L57.15 17.08L57.16 17.27L57.35 17.92L57.42 18.00Q57.42 18.18 57.38 18.33L57.32 18.27L57.22 18.17Q57.19 19.94 55.67 21.12L55.66 21.11L55.70 21.14Q54.86 22.13 52.84 22.32L52.67 22.15L52.80 22.28Q52.04 22.40 51.17 22.40L51.10 22.34L51.21 22.44Q51.25 22.79 51.40 23.48L51.38 23.46L51.39 23.46Q53.12 23.43 54.56 24.16L54.47 24.07L54.52 24.23L52.86 24.32L52.97 24.43Q53.01 24.78 53.12 25.38L52.99 25.25L52.96 25.22Q55.11 25.16 56.82 26.50L56.78 26.45L56.93 26.60Q57.08 26.90 57.38 28.54L57.35 28.51L57.43 28.59Q57.66 31.56 54.73 31.98L54.69 31.94L54.58 31.83Q52.67 32.27 52.09 32.24L51.97 32.11L51.91 32.05Q51.57 32.05 51.03 31.97L50.93 31.87L51.00 31.48L51.03 30.94L51.23 30.72L51.20 30.35L51.13 30.28Q50.24 30.42 49.44 30.61L49.55 30.71L49.52 30.69Q49.39 30.37 49.39 30.18L49.33 30.12L49.43 30.22Q49.55 30.11 49.55 29.88L49.47 29.80L49.49 29.82Q49.58 29.45 49.73 28.73L49.68 28.67L49.66 28.66Q47.85 28.94 45.98 29.29L45.92 29.22L45.95 29.25Q45.99 29.78 45.87 30.90L45.72 30.75L45.77 30.81Q45.73 32.00 45.73 32.61L45.74 32.62L45.59 32.47Q45.69 34.55 47.06 35.31L47.12 35.37L47.18 35.43Q48.61 37.65 53.33 37.46L53.35 37.49L53.42 37.56Q54.05 37.42 55.57 37.57Z"/><path d="M20 9 C89 8,84 8,192 32" stroke="#333" fill="none"/><path d="M9 38 C91 33,102 38,191 27" stroke="#111" fill="none"/><path fill="#333" d="M141.67 34.84L141.63 34.80L139.67 34.79L139.72 34.84Q138.85 34.92 137.90 35.03L137.78 34.91L137.93 35.06Q138.36 28.72 138.36 24.72L138.32 24.68L138.46 24.82Q134.50 18.16 126.85 9.48L126.77 9.39L126.83 9.45Q128.67 10.50 132.02 11.30L131.84 11.12L131.87 11.15Q136.98 16.78 139.98 22.00L139.90 21.92L139.95 21.97Q142.93 16.38 147.31 11.36L147.31 11.36L147.39 11.44Q149.84 11.07 152.35 10.27L152.30 10.22L152.40 10.32Q146.34 16.41 141.47 24.82L141.46 24.81L141.33 24.68Q141.40 31.80 141.71 34.88ZM150.84 12.33L153.45 9.39L153.57 9.51Q150.36 10.56 147.24 11.02L147.26 11.04L147.35 11.13Q142.96 15.69 140.14 20.79L140.26 20.91L140.25 20.90Q138.13 17.25 134.93 13.37L134.94 13.38L134.93 13.36Q134.64 13.34 134.15 13.27L134.10 13.23L134.19 13.31Q133.47 12.47 131.94 10.80L131.84 10.69L132.02 10.88Q128.58 10.06 125.61 8.50L125.59 8.48L125.62 8.51Q133.38 17.04 138.14 24.96L138.06 24.87L138.07 24.88Q137.99 31.23 137.38 35.38L137.39 35.40L137.27 35.27Q138.09 35.34 139.54 35.22L139.53 35.22L139.47 36.18L139.64 36.35Q139.55 36.72 139.47 37.25L139.43 37.21L139.51 37.29Q142.96 37.20 144.71 37.39L144.73 37.41L144.72 37.39Q143.49 32.74 143.38 26.77L143.49 26.87L143.33 26.72Q147.68 18.24 154.23 10.89L154.30 10.96L150.86 12.36Z"/><path fill="#333" d="M79.34 24.61L79.42 24.69L79.30 24.57Q79.46 28.99 78.74 33.14L78.65 33.06L78.60 33.01Q80.84 32.43 83.93 32.32L83.89 32.28L84.07 32.46Q85.41 32.66 86.47 31.65L86.46 31.63L86.42 31.60Q87.50 30.60 87.50 29.27L87.54 29.31L87.53 29.30Q87.50 28.96 87.46 28.70L87.39 28.62L87.33 28.57Q87.34 25.79 85.09 24.95L85.05 24.92L85.03 24.89Q84.20 24.52 83.52 24.60L83.62 24.70L83.56 24.64Q82.54 24.61 81.51 24.65L81.49 24.63L81.43 24.57Q80.39 24.63 79.36 24.63ZM78.26 14.31L78.19 14.24L78.19 14.25Q79.01 17.50 79.27 21.88L79.33 21.93L79.29 21.89Q80.67 21.94 83.34 21.98L83.45 22.09L83.48 22.13Q86.26 22.01 86.60 18.47L86.63 18.50L86.63 18.50Q86.89 16.62 85.48 15.79L85.50 15.81L85.51 15.81Q84.60 15.29 80.19 14.64L80.09 14.55L80.19 14.65Q79.08 14.46 78.17 14.23ZM74.60 37.19L74.50 37.09L74.56 37.15Q76.94 30.39 76.67 23.00L76.78 23.11L76.67 23.01Q76.39 15.72 73.45 9.24L73.54 9.33L73.43 9.22Q77.26 11.79 83.48 12.04L83.48 12.04L83.53 12.09Q89.79 12.37 90.13 15.26L90.12 15.25L90.15 15.28Q90.35 17.91 88.94 20.58L88.97 20.61L89.02 20.66Q88.28 22.17 86.68 22.85L86.72 22.89L86.65 22.82Q90.30 23.50 90.53 28.87L90.47 28.81L90.62 28.96Q90.65 30.01 90.57 31.42L90.62 31.48L90.45 31.30Q90.47 32.69 89.54 33.62L89.57 33.66L89.49 33.58Q88.70 34.66 87.37 34.81L87.26 34.70L87.26 34.70Q85.91 34.91 84.85 34.91L84.88 34.94L84.85 34.92Q78.99 34.76 74.46 37.05ZM87.37 37.47L87.37 37.47L87.25 37.36Q88.23 37.46 90.10 37.57L90.05 37.52L90.04 37.52Q91.44 37.55 92.55 36.67L92.64 36.76L92.58 36.71Q93.46 35.87 93.34 34.31L93.41 34.38L93.37 34.33Q93.23 33.32 92.51 29.86L92.50 29.86L92.60 29.95Q91.83 26.63 89.96 25.14L89.93 25.11L89.51 24.27L89.63 24.39Q91.21 22.89 91.78 19.12L91.74 19.08L91.72 19.06Q92.00 18.05 91.93 16.64L91.89 16.61L91.84 16.55Q91.73 15.19 90.63 14.35L90.72 14.44L90.62 14.35Q90.47 14.30 90.35 14.26L90.21 14.12L90.32 14.24Q89.94 13.59 89.10 12.79L89.20 12.88L89.12 12.81Q87.74 11.89 83.52 11.70L83.36 11.53L83.41 11.59Q76.85 11.38 72.85 8.49L72.86 8.50L72.89 8.53Q76.07 15.43 76.37 22.97L76.37 22.98L76.38 22.98Q76.81 30.91 73.99 37.84L74.01 37.85L76.03 36.87L75.93 36.77Q75.54 37.90 75.04 39.04L75.09 39.09L75.06 39.06Q79.48 37.31 84.51 37.31L84.36 37.17L84.41 37.22Q85.94 37.34 87.39 37.49ZM85.19 26.88L85.06 26.75L85.20 26.89Q85.95 26.84 86.87 27.30L86.71 27.15L86.72 27.16Q86.85 27.52 87.00 28.58L87.08 28.66L87.07 28.65Q87.26 30.02 86.33 31.06L86.33 31.07L86.41 31.15Q85.42 32.13 84.01 32.02L83.90 31.91L82.42 32.03L82.51 32.12Q81.83 32.24 81.10 32.35L80.93 32.17L80.92 32.17Q81.25 30.36 81.32 26.90L81.39 26.96L81.42 27.00Q82.03 26.88 83.29 26.84L83.20 26.76L83.36 26.92Q84.58 26.85 85.19 26.88ZM84.23 17.36L84.07 17.20L84.50 17.25L84.58 17.33Q84.75 17.26 84.94 17.30L84.94 17.30L85.36 17.34L85.68 17.47L86.22 17.48L86.21 17.47Q86.35 17.76 86.35 18.06L86.24 17.96L86.30 18.55L86.35 18.60Q86.37 19.87 85.49 20.80L85.54 20.86L85.45 20.77Q84.51 21.63 83.29 21.63L83.44 21.78L83.40 21.74Q82.41 21.78 82.41 21.78L82.42 21.79L82.37 21.74Q81.08 21.74 81.42 21.74L81.41 21.73L81.38 21.70Q81.36 20.20 81.06 17.15L80.96 17.05L80.98 17.08Q82.53 17.18 84.06 17.18Z"/><path fill="#444" d="M163.98 25.61L163.93 25.56L163.98 25.61Q163.91 25.54 167.30 25.51L167.35 25.56L167.41 25.62Q169.62 25.54 170.69 25.58L170.63 25.52L170.79 25.68Q169.77 22.84 167.33 17.20L167.31 17.18L167.34 17.20Q166.58 18.43 165.53 21.28L165.63 21.38L165.58 21.33Q164.61 24.26 164.04 25.67ZM171.90 28.16L171.93 28.19L171.82 28.09Q169.60 28.11 167.39 28.15L167.27 28.02L167.38 28.14Q165.09 28.13 162.81 28.32L162.91 28.42L162.76 28.28Q161.38 31.84 158.14 36.03L158.02 35.91L158.02 35.90Q155.42 36.50 154.05 37.00L154.15 37.10L154.06 37.01Q159.34 31.52 164.03 18.16L163.84 17.97L163.94 18.07Q165.22 14.67 166.59 11.43L166.50 11.34L166.43 11.27Q166.79 11.33 167.13 11.33L167.19 11.38L167.86 11.33L167.92 11.39Q168.67 12.75 173.50 24.40L173.48 24.38L173.48 24.37Q176.85 32.31 180.85 36.46L180.81 36.43L180.78 36.40Q180.20 36.19 176.31 35.32L176.35 35.35L176.46 35.47Q173.89 32.32 171.91 28.17ZM176.31 35.73L176.26 35.69L176.77 35.70L176.82 35.74Q177.12 35.82 177.43 35.93L177.36 35.87L177.37 35.88Q177.83 36.38 179.66 38.39L179.62 38.36L179.65 38.39Q183.24 39.23 185.64 40.26L185.70 40.32L185.55 40.17Q180.17 35.75 176.18 27.76L176.14 27.72L176.18 27.76Q174.49 24.39 173.04 20.43L173.06 20.45L170.38 13.02L170.24 12.88Q169.99 12.97 169.77 12.97L169.83 13.03L169.25 12.98L169.35 13.09Q168.98 12.41 168.25 11.04L168.14 10.93L168.18 10.97Q167.69 11.01 167.24 10.97L167.22 10.96L167.18 10.92Q166.72 10.87 166.19 10.87L166.23 10.92L166.16 10.85Q164.79 14.81 160.91 24.98L160.87 24.94L160.97 25.04Q157.90 33.04 153.25 37.84L153.20 37.79L153.11 37.69Q154.31 37.45 156.32 36.84L156.21 36.73L156.29 36.80Q155.43 37.58 153.87 39.37L153.92 39.42L154.01 39.51Q155.69 38.83 159.61 38.06L159.61 38.06L159.51 37.96Q162.89 33.58 164.45 30.34L164.51 30.41L164.51 30.40Q166.23 30.25 168.55 30.29L168.53 30.28L168.60 30.34Q171.41 30.45 172.78 30.52L172.64 30.39L172.77 30.51Q174.02 32.88 176.38 35.81ZM168.66 21.12L168.53 20.99L168.54 20.99Q169.35 23.02 170.11 25.12L170.13 25.13L166.85 25.17L167.00 25.31Q167.49 23.79 168.56 21.01Z"/><path fill="#222" d="M119.19 18.37L119.12 18.31L119.19 18.38Q117.37 14.19 111.16 14.38L111.15 14.38L111.09 14.31Q106.70 14.45 104.72 15.90L104.73 15.91L104.76 15.94Q102.40 17.73 102.40 21.84L102.42 21.86L102.29 23.60L102.38 23.68Q102.30 32.44 111.32 32.44L111.38 32.49L111.35 32.47Q113.38 32.44 114.87 31.64L114.87 31.64L114.95 31.72Q116.75 30.67 116.60 28.80L116.72 28.93L116.55 28.75Q116.43 26.73 112.74 25.82L112.74 25.82L110.80 25.83L110.80 25.82Q109.79 25.76 108.84 25.80L108.98 25.94L108.96 25.93Q108.94 24.95 108.90 23.05L108.92 23.06L108.84 22.99Q116.46 22.96 120.65 22.61L120.68 22.65L120.64 22.60Q120.70 23.55 120.70 24.34L120.68 24.32L120.65 24.29Q120.56 25.00 120.60 25.80L120.63 25.83L120.79 25.99Q119.63 25.93 119.63 25.93L119.53 25.84L119.52 25.83Q118.28 25.95 118.66 25.95L118.64 25.93L118.67 25.96Q119.74 27.57 120.12 29.55L120.14 29.57L120.14 29.57Q120.07 30.11 120.07 30.56L120.19 30.69L120.18 30.67Q120.25 35.39 111.46 35.39L111.40 35.33L111.45 35.38Q104.16 35.21 101.57 33.12L101.59 33.14L101.61 33.15Q99.73 30.89 99.73 25.83L99.71 25.82L99.72 25.82Q99.68 24.72 99.53 22.02L99.49 21.98L99.62 22.10Q99.40 19.67 99.43 18.30L99.45 18.31L99.47 18.34Q99.57 15.46 100.94 13.86L100.94 13.86L100.81 13.74Q103.52 11.85 108.40 11.66L108.28 11.54L111.01 11.53L111.07 11.59Q114.00 11.32 117.42 11.74L117.58 11.90L117.51 11.83Q121.32 12.36 122.27 15.59L122.19 15.52L122.28 15.60Q121.17 16.43 119.08 18.26ZM120.55 20.53L120.57 20.44L120.59 20.46Q121.80 19.39 123.67 17.41L123.65 17.39L123.57 17.31Q123.39 16.49 122.40 14.77L122.30 14.67L122.32 14.69Q121.29 12.18 117.49 11.53L117.34 11.38L117.38 11.42Q115.28 11.34 110.97 11.04L111.01 11.08L108.22 11.10L108.30 11.18Q103.08 11.33 100.50 13.31L100.43 13.24L100.49 13.30Q99.10 14.93 98.99 18.01L99.11 18.13L99.10 18.12Q99.07 17.63 99.29 23.11L99.29 23.11L99.34 23.15Q99.22 24.37 99.30 27.11L99.46 27.28L99.37 27.18Q99.60 31.68 101.35 33.62L101.34 33.61L101.42 33.69Q101.72 34.45 102.60 35.32L102.59 35.31L102.57 35.29Q105.47 37.16 110.99 37.51L111.06 37.58L113.88 37.69L113.94 37.75Q115.41 37.74 117.42 37.63L117.47 37.67L117.44 37.64Q118.96 37.63 121.05 37.10L121.00 37.05L121.11 37.16Q122.95 36.57 122.91 34.24L123.01 34.34L122.91 34.24Q122.91 32.98 121.84 30.20L121.82 30.18L121.91 30.27Q121.48 29.23 120.95 28.43L121.05 28.53L120.96 28.45Q121.61 28.52 122.79 28.71L122.89 28.81L122.82 28.74Q122.44 25.05 122.48 24.37L122.61 24.50L122.59 24.48Q122.20 24.47 121.78 24.43L121.76 24.41L121.74 24.39Q121.40 24.40 121.02 24.47L121.09 24.54L121.04 24.49Q121.06 23.40 121.13 22.34L121.14 22.35L121.02 22.23Q114.88 22.86 108.60 22.75L108.48 22.63L108.51 22.66Q108.46 23.49 108.46 24.40L108.54 24.47L108.55 26.24L108.53 26.22Q108.91 26.21 109.33 26.18L109.39 26.24L109.48 26.33Q109.79 26.22 110.25 26.22L110.30 26.27L110.23 26.21Q110.16 26.59 110.20 27.09L110.32 27.21L110.34 27.23Q110.23 27.58 110.19 28.07L110.23 28.10L110.28 28.15Q111.31 28.12 112.34 28.08L112.31 28.05L112.30 28.05Q113.29 28.00 114.31 28.04L114.46 28.19L114.46 28.19Q115.37 28.30 116.25 28.68L116.28 28.71L116.31 28.78L116.35 28.82Q116.50 30.34 114.82 31.25L114.76 31.19L114.81 31.24Q113.07 32.09 111.36 32.09L111.47 32.21L111.51 32.24Q107.64 32.22 105.21 30.47L105.13 30.39L105.17 30.43Q104.14 28.33 104.29 25.78L104.32 25.81L104.39 25.88Q104.68 21.08 106.53 19.08L106.41 18.95L106.54 19.09Q108.26 16.97 112.95 16.66L113.05 16.76L112.93 16.65Q116.76 16.59 118.70 18.38L118.69 18.37L118.52 18.20Q118.76 18.48 118.87 18.67L118.70 18.49L118.92 18.60L118.93 18.61Q119.66 19.45 120.23 20.56L120.10 20.43L120.48 20.46Z"/><path fill="#222" d="M25.18 35.30L25.01 35.13L25.19 35.31Q21.59 35.29 19.95 34.75L20.01 34.81L19.96 34.77Q17.95 34.09 17.65 30.70L17.71 30.77L19.19 29.73L19.11 29.65Q19.93 29.21 20.69 28.72L20.63 28.66L20.64 28.67Q20.45 30.65 22.05 31.87L21.95 31.76L22.06 31.87Q23.31 32.86 25.45 32.67L25.44 32.67L25.46 32.69Q29.81 32.24 29.62 28.70L29.53 28.61L29.55 28.63Q29.38 26.36 26.75 25.14L26.84 25.24L26.75 25.14Q23.98 24.16 21.62 22.94L21.61 22.93L21.55 22.88Q19.13 21.68 18.14 16.99L18.04 16.89L18.10 16.95Q17.95 16.46 17.83 15.70L17.85 15.71L17.88 15.74Q17.75 14.93 17.83 14.36L17.88 14.41L17.88 14.41Q18.08 12.86 19.33 12.40L19.24 12.30L19.34 12.40Q21.65 11.44 25.65 11.63L25.65 11.64L25.67 11.65Q27.41 11.68 28.21 11.75L28.27 11.81L28.34 11.89Q29.78 12.03 30.84 12.49L30.76 12.40L30.79 12.43Q33.01 13.01 33.23 15.49L33.18 15.44L33.18 15.44Q32.10 16.10 29.89 17.44L29.81 17.35L29.97 17.52Q29.52 14.48 25.14 14.48L25.17 14.50L25.18 14.52Q23.27 14.51 22.28 15.20L22.29 15.20L22.15 15.06Q21.13 15.72 21.36 17.51L21.30 17.45L21.25 17.40Q21.45 19.55 24.42 21.07L24.42 21.06L24.50 21.15Q25.11 21.45 29.60 23.08L29.54 23.03L29.54 23.03Q32.23 24.57 32.65 28.95L32.51 28.81L32.65 28.95Q32.59 29.05 32.67 30.30L32.62 30.25L32.69 30.32Q32.81 33.15 31.25 34.25L31.10 34.10L31.25 34.26Q29.29 35.11 25.10 35.22ZM27.33 37.53L27.46 37.65L27.53 37.72Q28.78 37.60 30.76 37.60L30.76 37.60L30.94 37.79Q32.86 37.61 34.11 37.19L34.26 37.34L34.19 37.27Q35.48 36.50 35.40 34.71L35.28 34.59L35.38 34.69Q35.35 33.70 34.97 31.65L35.00 31.68L34.86 31.55Q34.07 26.98 31.98 25.12L31.88 25.02L32.01 25.15Q31.15 23.49 29.82 22.77L29.83 22.78L24.47 20.66L24.50 20.69Q24.13 20.47 23.68 20.25L23.73 20.30L23.71 20.01L23.54 19.49L23.56 19.51Q23.39 18.09 24.53 17.48L24.59 17.54L24.48 17.43Q25.28 16.89 26.99 16.70L27.04 16.75L27.06 16.78Q28.28 16.74 29.42 17.19L29.42 17.19L29.27 17.04Q29.31 17.12 29.50 17.96L29.59 18.05L29.60 18.06Q29.73 17.85 30.23 17.62L30.32 17.71L30.26 17.65Q31.09 18.67 31.20 19.81L31.16 19.77L31.05 19.66Q31.11 19.60 34.76 17.02L34.95 17.20L34.76 17.02Q34.64 14.53 33.19 13.85L33.13 13.78L33.13 13.79Q32.66 12.63 31.21 12.10L31.21 12.10L31.12 12.00Q28.80 11.17 25.60 11.17L25.74 11.30L25.73 11.30Q20.68 11.16 18.82 11.84L18.81 11.84L18.88 11.91Q17.48 12.30 17.37 13.97L17.43 14.04L17.47 14.07Q17.34 14.52 17.76 16.73L17.72 16.68L17.81 16.77Q18.46 20.51 20.63 22.76L20.58 22.71L20.58 22.71Q21.40 24.44 22.90 25.12L22.91 25.13L22.88 25.10Q24.50 25.91 28.42 27.47L28.36 27.40L28.24 27.32L28.94 27.71L29.03 27.85L29.04 27.86Q29.14 28.22 29.18 28.56L29.32 28.70L29.34 28.73Q29.39 32.17 25.47 32.32L25.34 32.19L25.51 32.35Q24.32 32.34 23.02 31.96L23.01 31.95L22.89 31.83Q22.73 31.18 22.73 30.45L22.56 30.29L22.57 30.29Q22.65 30.11 22.69 29.84L22.70 29.86L22.65 29.80Q22.21 30.01 21.41 30.50L21.47 30.56L21.41 30.50Q21.03 29.52 21.19 28.15L21.18 28.14L21.12 28.08Q19.10 29.33 17.50 30.74L17.41 30.65L17.37 30.61Q17.52 31.52 17.60 32.55L17.48 32.43L17.50 32.46Q17.94 34.31 19.24 35.07L19.10 34.94L19.22 35.05Q20.34 36.78 22.89 37.16L23.02 37.29L22.95 37.22Q24.41 37.35 27.34 37.54Z"/></svg>