<svg xmlns="http://www.w3.org/2000/svg" width="200" height="40" viewBox="0,0,200,40"><path fill="#444" d="M79.39 24.66L79.34 24.61L79.33 24.60Q79.28 28.81 78.56 32.96L78.61 33.02L78.57 32.97Q80.92 32.51 84.00 32.40L83.99 32.39L84.07 32.46Q85.36 32.61 86.42 31.60L86.29 31.46L86.42 31.59Q87.51 30.61 87.51 29.27L87.41 29.17L87.45 29.22Q87.40 28.87 87.37 28.60L87.46 28.69L87.35 28.59Q87.25 25.71 85.01 24.87L84.91 24.78L84.93 24.79Q84.33 24.65 83.64 24.72L83.52 24.60L83.60 24.68Q82.40 24.48 81.38 24.51L81.47 24.61L81.54 24.68Q80.37 24.61 79.34 24.61ZM78.06 14.12L78.12 14.18L78.20 14.26Q78.96 17.45 79.23 21.83L79.26 21.87L79.32 21.93Q80.71 21.98 83.37 22.02L83.48 22.13L83.45 22.10Q86.38 22.13 86.72 18.59L86.63 18.50L86.74 18.61Q86.91 16.65 85.50 15.81L85.52 15.83L85.55 15.86Q84.57 15.26 80.16 14.61L80.08 14.53L80.13 14.58Q79.13 14.50 78.21 14.27ZM74.48 37.07L74.54 37.13L74.55 37.14Q76.99 30.45 76.73 23.06L76.66 22.99L76.79 23.12Q76.44 15.77 73.51 9.30L73.48 9.27L73.39 9.18Q77.26 11.80 83.49 12.04L83.52 12.07L83.46 12.02Q89.71 12.29 90.05 15.18L90.06 15.19L90.08 15.21Q90.49 18.06 89.08 20.72L89.04 20.68L89.03 20.67Q88.29 22.18 86.69 22.86L86.65 22.82L86.60 22.77Q90.23 23.43 90.45 28.79L90.54 28.88L90.44 28.78Q90.60 29.97 90.53 31.38L90.52 31.37L90.58 31.43Q90.53 32.75 89.60 33.69L89.51 33.60L89.49 33.58Q88.53 34.48 87.20 34.64L87.33 34.77L87.39 34.83Q85.91 34.91 84.84 34.91L84.77 34.84L84.82 34.89Q79.02 34.79 74.49 37.08ZM87.28 37.39L87.24 37.34L87.34 37.44Q88.16 37.39 90.03 37.51L90.15 37.63L90.04 37.52Q91.50 37.60 92.60 36.73L92.63 36.75L92.58 36.71Q93.34 35.75 93.22 34.19L93.24 34.21L93.22 34.18Q93.32 33.41 92.59 29.95L92.51 29.87L92.51 29.86Q91.79 26.59 89.92 25.10L90.04 25.22L89.57 24.33L89.45 24.21Q91.28 22.96 91.85 19.19L91.80 19.14L91.85 19.19Q91.86 17.90 91.78 16.49L91.91 16.62L91.87 16.59Q91.91 15.37 90.81 14.53L90.76 14.49L90.62 14.35Q90.45 14.28 90.33 14.25L90.31 14.22L90.26 14.18Q89.95 13.60 89.11 12.80L89.18 12.87L89.26 12.94Q87.76 11.90 83.54 11.71L83.37 11.55L83.47 11.65Q76.76 11.29 72.76 8.40L72.88 8.52L72.93 8.56Q76.06 15.42 76.36 22.96L76.35 22.95L76.47 23.07Q76.69 30.79 73.87 37.72L73.94 37.78L75.91 36.75L75.90 36.74Q75.68 38.05 75.19 39.19L75.11 39.11L75.05 39.04Q79.50 37.33 84.52 37.33L84.38 37.19L84.48 37.29Q85.85 37.25 87.30 37.40ZM85.25 26.94L85.13 26.82L85.11 26.80Q85.92 26.81 86.83 27.27L86.83 27.27L86.71 27.15Q86.95 27.61 87.10 28.68L87.05 28.63L87.12 28.70Q87.22 29.98 86.29 31.02L86.39 31.13L86.30 31.03Q85.34 32.06 83.94 31.95L84.02 32.03L82.44 32.05L82.50 32.11Q81.64 32.05 80.92 32.16L80.96 32.20L81.08 32.32Q81.33 30.44 81.40 26.98L81.42 27.00L81.39 26.97Q82.10 26.95 83.36 26.92L83.37 26.92L83.25 26.80Q84.63 26.89 85.24 26.93ZM84.13 17.26L84.22 17.34L84.57 17.31L84.48 17.22Q84.67 17.18 84.86 17.22L84.97 17.33L85.38 17.36L85.57 17.36L86.35 17.61L86.30 17.56Q86.28 17.69 86.28 18.00L86.42 18.13L86.31 18.56L86.39 18.64Q86.37 19.88 85.50 20.81L85.53 20.84L85.37 20.69Q84.69 21.81 83.47 21.81L83.41 21.76L83.28 21.62Q82.30 21.67 82.30 21.67L82.28 21.65L82.26 21.63Q81.00 21.66 81.34 21.66L81.39 21.71L81.36 21.68Q81.36 20.19 81.05 17.15L81.09 17.19L81.05 17.15Q82.65 17.30 84.17 17.30Z"/><path fill="#444" d="M25.02 35.14L25.20 35.32L25.05 35.17Q21.59 35.29 19.95 34.75L20.08 34.89L19.91 34.71Q17.95 34.09 17.65 30.70L17.72 30.77L19.19 29.73L19.26 29.80Q19.87 29.16 20.63 28.66L20.75 28.78L20.74 28.77Q20.34 30.54 21.94 31.75L21.98 31.79L22.00 31.82Q23.23 32.78 25.37 32.59L25.45 32.67L25.32 32.55Q29.75 32.18 29.56 28.64L29.50 28.58L29.56 28.64Q29.36 26.35 26.74 25.13L26.89 25.29L26.81 25.21Q23.99 24.17 21.63 22.95L21.60 22.93L21.67 23.00Q19.01 21.56 18.02 16.88L17.99 16.84L17.97 16.82Q17.96 16.47 17.85 15.71L17.84 15.70L17.90 15.76Q17.77 14.95 17.85 14.38L17.86 14.39L17.81 14.34Q18.09 12.87 19.34 12.41L19.28 12.34L19.34 12.40Q21.70 11.49 25.69 11.68L25.62 11.61L25.70 11.68Q27.37 11.64 28.17 11.72L28.18 11.73L28.32 11.87Q29.80 12.05 30.87 12.51L30.80 12.45L30.72 12.37Q32.96 12.96 33.18 15.44L33.20 15.45L33.14 15.40Q32.03 16.04 29.82 17.37L29.97 17.52L29.92 17.47Q29.53 14.49 25.16 14.49L25.06 14.40L25.06 14.39Q23.12 14.35 22.13 15.04L22.17 15.08L22.28 15.19Q21.00 15.59 21.23 17.38L21.23 17.38L21.29 17.44Q21.43 19.52 24.40 21.04L24.43 21.08L24.50 21.15Q25.08 21.42 29.58 23.06L29.57 23.05L29.57 23.05Q32.15 24.49 32.57 28.87L32.62 28.93L32.49 28.79Q32.65 29.11 32.73 30.36L32.61 30.24L32.56 30.19Q32.67 33.01 31.11 34.11L31.25 34.26L31.18 34.18Q29.29 35.11 25.10 35.22ZM27.33 37.53L27.52 37.72L27.48 37.68Q28.87 37.70 30.85 37.70L30.87 37.72L30.92 37.77Q32.86 37.62 34.12 37.20L34.29 37.37L34.12 37.20Q35.41 36.43 35.33 34.64L35.31 34.62L35.28 34.59Q35.39 33.75 35.01 31.69L34.85 31.54L34.99 31.67Q34.04 26.95 31.95 25.09L31.98 25.13L31.89 25.03Q31.08 23.42 29.75 22.70L29.84 22.79L24.45 20.64L24.60 20.78Q24.23 20.56 23.77 20.34L23.80 20.37L23.70 20.00L23.50 19.46L23.59 19.55Q23.39 18.09 24.53 17.48L24.62 17.57L24.49 17.44Q25.42 17.04 27.14 16.85L27.05 16.77L27.10 16.81Q28.15 16.61 29.30 17.07L29.36 17.14L29.28 17.06Q29.34 17.15 29.53 17.99L29.54 18.00L29.59 18.05Q29.77 17.88 30.26 17.65L30.31 17.71L30.20 17.60Q30.96 18.54 31.07 19.68L31.21 19.82L31.11 19.72Q31.18 19.67 34.83 17.08L34.88 17.14L34.85 17.11Q34.60 14.49 33.15 13.81L33.08 13.74L33.10 13.75Q32.59 12.56 31.14 12.02L31.07 11.96L31.22 12.10Q28.76 11.12 25.56 11.12L25.61 11.17L25.62 11.19Q20.66 11.14 18.80 11.83L18.91 11.93L18.90 11.93Q17.54 12.36 17.43 14.04L17.44 14.05L17.49 14.09Q17.40 14.58 17.82 16.79L17.84 16.80L17.82 16.78Q18.52 20.57 20.69 22.82L20.73 22.85L20.58 22.71Q21.55 24.59 23.05 25.27L22.87 25.09L22.93 25.15Q24.38 25.78 28.30 27.34L28.39 27.43L28.41 27.50L29.09 27.86L29.08 27.89L29.10 27.92Q29.16 28.24 29.20 28.58L29.16 28.55L29.35 28.73Q29.28 32.05 25.36 32.20L25.51 32.36L25.31 32.16Q24.25 32.28 22.96 31.90L22.89 31.83L22.90 31.84Q22.68 31.12 22.68 30.40L22.60 30.32L22.59 30.31Q22.59 30.05 22.63 29.78L22.68 29.83L22.68 29.83Q22.29 30.09 21.49 30.58L21.36 30.46L21.52 30.61Q20.94 29.42 21.09 28.05L21.08 28.04L21.18 28.14Q19.03 29.27 17.44 30.68L17.38 30.63L17.43 30.67Q17.40 31.41 17.48 32.43L17.61 32.56L17.54 32.50Q17.94 34.30 19.23 35.06L19.08 34.91L19.10 34.93Q20.47 36.91 23.02 37.29L23.03 37.30L22.85 37.12Q24.54 37.48 27.47 37.67Z"/><path fill="#333" d="M167.66 25.37L167.72 25.43L167.76 25.47Q164.33 31.86 160.90 35.82L160.87 35.78L160.84 35.75Q158.92 36.12 156.48 37.00L156.51 37.02L156.56 37.07Q161.40 31.41 166.16 23.00L166.18 23.02L166.13 22.96Q161.62 16.09 155.64 9.70L155.51 9.57L155.59 9.65Q158.58 10.92 160.86 11.42L160.78 11.33L160.90 11.45Q165.43 16.55 167.87 20.51L167.92 20.56L167.98 20.62Q170.38 16.10 174.31 11.69L174.28 11.66L174.30 11.68Q175.88 11.36 179.08 10.60L179.12 10.64L179.13 10.65Q173.00 17.04 169.54 22.98L169.58 23.02L169.65 23.10Q174.81 31.76 179.19 36.33L179.20 36.34L179.03 36.17Q176.59 35.52 174.50 35.29L174.39 35.19L174.50 35.30Q171.72 32.33 167.80 25.51ZM174.30 35.51L174.28 35.49L174.27 35.48Q174.59 35.54 175.05 35.65L175.12 35.72L175.15 35.76Q175.93 36.50 177.46 38.10L177.37 38.01L177.43 38.07Q180.88 38.97 183.93 40.34L183.88 40.29L183.81 40.22Q176.59 33.54 171.49 24.78L171.58 24.88L171.66 24.95Q175.28 18.18 181.18 11.33L181.16 11.31L181.26 11.41Q179.86 12.11 177.69 12.64L177.54 12.48L177.69 12.63Q178.50 11.65 180.25 9.86L180.31 9.92L180.25 9.86Q177.80 10.69 174.11 11.26L174.21 11.37L174.08 11.24Q170.74 15.13 168.16 19.43L168.22 19.49L168.11 19.39Q167.17 17.76 165.99 16.28L165.97 16.25L163.72 13.36L163.45 13.47L163.46 13.48Q163.19 13.37 162.97 13.29L163.07 13.39L162.99 13.31Q162.28 12.45 160.80 10.89L160.84 10.94L160.76 10.86Q157.07 10.10 154.48 8.73L154.55 8.79L154.45 8.69Q161.24 16.02 165.81 23.06L165.72 22.98L165.71 22.96Q161.25 31.18 155.50 37.76L155.61 37.87L155.49 37.75Q156.83 37.12 158.96 36.55L159.05 36.63L157.71 38.04L157.63 37.95Q157.75 38.07 156.42 39.41L156.26 39.25L156.40 39.38Q159.38 38.29 162.54 37.80L162.49 37.75L162.62 37.88Q166.53 33.26 169.11 28.50L169.05 28.43L169.01 28.39Q171.70 32.76 174.40 35.61Z"/><path d="M12 19 C85 18,119 19,196 37" stroke="#111" fill="none"/><path fill="#111" d="M53.87 35.27L53.85 35.24L51.36 28.31L51.36 28.30Q47.07 15.79 41.13 9.39L41.12 9.39L41.11 9.37Q43.17 10.48 45.75 11.09L45.70 11.03L45.59 10.92Q50.83 17.30 55.17 30.05L55.12 30.00L55.19 30.07Q58.27 22.00 58.95 20.40L58.92 20.37L58.99 20.44Q61.20 14.65 64.01 11.34L64.21 11.53L64.09 11.42Q66.18 11.06 68.80 10.19L68.70 10.09L68.74 10.13Q64.24 14.80 61.20 22.04L61.22 22.06L61.27 22.11Q59.79 25.70 56.10 35.22L56.04 35.15L56.03 35.14Q55.42 35.11 54.85 35.07L55.01 35.23L54.88 35.10Q54.27 35.06 53.70 35.10ZM58.72 37.53L58.89 37.70L58.89 37.70Q61.50 27.51 63.06 23.48L63.11 23.53L63.23 23.65Q66.24 15.96 70.66 11.09L70.51 10.95L70.51 10.94Q69.54 11.38 67.44 12.10L67.48 12.14L68.59 10.77L68.55 10.73Q69.20 10.13 69.81 9.48L69.80 9.47L69.73 9.41Q67.00 10.48 63.99 11.05L63.89 10.95L63.89 10.95Q59.66 16.42 55.77 27.88L55.77 27.88L55.73 27.84Q52.08 17.72 48.89 13.34L48.94 13.40L48.81 13.27Q48.47 13.23 47.59 13.08L47.49 12.97L47.54 13.02Q47.32 12.65 45.72 10.59L45.86 10.73L45.85 10.73Q42.79 9.91 40.09 8.50L40.08 8.49L40.03 8.44Q46.65 15.52 51.03 28.31L51.16 28.45L51.11 28.39Q52.32 32.04 53.50 35.62L53.45 35.57L53.40 35.52Q53.86 35.68 54.70 35.56L54.73 35.59L54.74 35.61Q54.96 36.17 55.64 37.50L55.67 37.53L55.68 37.54Q56.67 37.61 57.39 37.69L57.39 37.68L57.24 37.53Q57.97 37.54 58.74 37.54Z"/><path fill="#333" d="M110.42 14.65L110.45 14.68L110.50 14.73Q108.37 14.69 107.42 14.84L107.53 14.96L107.57 14.99Q105.84 15.13 104.62 15.66L104.65 15.69L104.69 15.74Q101.08 17.07 100.96 21.76L101.00 21.80L100.95 21.74Q101.05 24.58 101.69 27.51L101.60 27.42L101.65 27.46Q102.45 31.42 106.06 32.60L106.15 32.69L106.07 32.60Q107.92 33.12 109.36 32.97L109.50 33.11L109.96 33.11L109.93 33.08Q110.07 33.03 110.26 33.07L110.22 33.03L110.16 32.97Q110.46 33.12 110.61 33.08L110.46 32.93L110.64 33.11Q113.13 32.70 114.50 32.13L114.52 32.15L111.02 28.69L111.02 28.69Q111.29 28.31 111.90 27.70L111.89 27.70L112.82 26.80L112.80 26.77Q114.76 28.96 116.74 31.02L116.58 30.86L116.63 30.91Q118.95 29.08 119.21 23.71L119.22 23.72L119.22 23.71Q119.25 22.76 119.25 21.84L119.32 21.92L119.23 21.82Q119.24 16.16 114.18 15.06L114.22 15.10L114.27 15.15Q112.97 14.84 110.46 14.69ZM123.12 36.64L123.27 36.78L123.14 36.66Q122.70 37.24 121.52 38.12L121.40 38.00L117.11 34.44L117.03 34.36Q114.55 35.56 110.28 35.60L110.21 35.53L110.24 35.56Q103.65 35.63 100.83 33.39L101.00 33.55L100.98 33.53Q99.21 31.77 98.76 28.80L98.61 28.65L98.69 28.73Q98.52 26.96 98.14 23.38L98.11 23.36L98.09 23.33Q98.14 22.66 98.03 20.91L97.90 20.78L98.00 20.88Q97.81 19.29 97.85 18.41L97.85 18.41L97.93 18.49Q98.08 15.48 99.83 13.92L99.69 13.78L99.66 13.75Q101.18 12.41 104.38 11.92L104.48 12.03L104.52 12.06Q106.98 11.66 109.87 11.74L109.76 11.63L109.82 11.69Q117.35 11.84 120.48 14.20L120.42 14.14L120.37 14.09Q122.53 16.21 122.26 21.13L122.38 21.24L122.42 21.28Q122.13 24.84 121.94 26.17L121.97 26.20L122.05 26.28Q121.30 30.67 118.98 32.99L118.94 32.96L118.93 32.94Q120.49 34.28 123.23 36.75ZM118.28 12.38L118.28 12.39L118.33 12.43Q116.31 11.71 109.80 11.21L109.77 11.19L109.87 11.29Q108.42 11.24 105.64 11.36L105.68 11.39L105.66 11.38Q101.40 11.57 99.16 13.55L99.20 13.60L99.28 13.67Q97.61 15.12 97.61 18.28L97.59 18.27L97.48 18.15Q97.58 19.10 97.74 20.81L97.64 20.71L97.73 20.80Q97.78 22.42 97.78 23.29L97.86 23.37L97.87 23.38Q97.99 25.10 98.37 28.68L98.29 28.60L98.33 28.64Q98.78 31.60 100.38 33.65L100.35 33.63L100.28 33.56Q100.75 34.52 101.97 35.66L101.91 35.61L101.86 35.55Q104.61 37.58 109.78 37.85L109.71 37.77L109.77 37.84Q110.14 37.86 112.54 37.97L112.52 37.95L112.61 38.04Q117.41 38.20 119.69 37.13L119.64 37.08L119.61 37.05Q120.42 37.67 125.15 41.25L125.11 41.22L125.23 41.33Q125.85 40.82 127.15 39.83L127.03 39.71L127.10 39.78Q126.20 39.07 125.40 38.38L125.45 38.44L123.80 36.98L123.92 36.95L123.96 36.98Q123.26 36.40 122.04 35.37L122.10 35.43L122.01 35.34Q124.07 32.98 124.07 28.45L124.00 28.38L123.90 28.28Q123.97 27.93 124.01 27.09L124.08 27.17L124.06 27.15Q124.03 26.24 124.03 25.82L124.14 25.94L124.02 25.81Q123.99 20.27 123.27 17.91L123.35 17.99L123.27 17.91Q122.91 16.63 122.03 15.56L122.08 15.61L122.17 15.71Q121.34 13.54 118.41 12.51ZM112.38 17.07L112.26 16.95L112.37 17.06Q116.35 16.89 118.17 18.48L118.21 18.51L118.18 18.49Q118.88 19.84 118.99 21.17L118.95 21.12L118.98 21.15Q119.10 22.45 119.02 23.82L118.85 23.65L118.94 23.74Q118.65 28.74 116.71 30.45L116.63 30.38L116.68 30.43Q115.36 29.10 112.84 26.36L112.81 26.33L112.80 26.32Q112.00 27.05 110.44 28.61L110.46 28.62L110.55 28.71Q111.12 29.33 112.27 30.51L112.10 30.34L112.12 30.48L112.17 30.52Q112.72 31.04 113.75 32.10L113.75 32.11L113.77 32.12Q112.63 32.24 110.30 32.54L110.45 32.69L109.86 32.63L109.57 32.76L109.44 32.67L109.39 32.61Q105.94 32.63 103.96 31.00L103.92 30.96L103.93 30.96Q102.89 28.86 102.93 25.74L103.03 25.84L103.05 25.86Q103.21 17.14 112.38 17.07Z"/><path d="M2 15 C111 15,83 14,188 13" stroke="#333" fill="none"/><path fill="#333" d="M138.74 14.68L138.67 14.61L138.79 14.73Q136.84 14.88 135.89 15.04L135.89 15.04L135.85 14.99Q134.08 15.09 132.86 15.62L132.85 15.61L132.85 15.61Q129.43 17.14 129.32 21.82L129.38 21.89L129.29 21.80Q129.33 24.58 129.98 27.51L129.89 27.42L129.91 27.44Q130.83 31.52 134.45 32.70L134.30 32.56L134.39 32.65Q136.38 33.31 137.83 33.15L137.76 33.08L138.13 32.99L138.09 32.95Q138.34 33.01 138.53 33.05L138.61 33.13L138.45 32.97Q138.76 33.14 138.92 33.10L138.82 33.00L138.89 33.07Q141.44 32.72 142.81 32.15L142.84 32.18L139.33 28.71L139.16 28.54Q139.60 28.34 140.21 27.73L140.16 27.68L141.05 26.74L141.14 26.83Q142.89 28.81 144.87 30.86L145.01 31.00L144.84 30.84Q147.19 29.04 147.46 23.67L147.43 23.65L147.48 23.69Q147.62 22.84 147.62 21.92L147.54 21.85L147.52 21.82Q147.59 16.22 142.53 15.12L142.49 15.08L142.46 15.05Q141.14 14.73 138.63 14.58ZM151.43 36.66L151.46 36.70L151.47 36.70Q150.88 37.15 149.70 38.02L149.66 37.98L145.27 34.31L145.29 34.33Q142.83 35.57 138.57 35.60L138.55 35.58L138.62 35.66Q131.96 35.66 129.15 33.41L129.24 33.51L129.22 33.49Q127.45 31.71 126.99 28.74L126.93 28.69L127.04 28.80Q126.74 26.89 126.36 23.32L126.43 23.39L126.31 23.27Q126.42 22.66 126.31 20.91L126.28 20.87L126.37 20.97Q126.16 19.35 126.19 18.47L126.18 18.46L126.24 18.52Q126.22 15.34 127.97 13.78L128.05 13.86L128.09 13.90Q129.59 12.54 132.79 12.04L132.74 11.99L132.82 12.08Q135.26 11.67 138.16 11.74L138.07 11.66L138.02 11.61Q145.53 11.73 148.65 14.09L148.75 14.19L148.82 14.26Q150.86 16.26 150.60 21.17L150.64 21.22L150.56 21.14Q150.50 24.92 150.31 26.25L150.36 26.30L150.22 26.16Q149.59 30.67 147.27 33.00L147.21 32.94L147.38 33.11Q148.78 34.28 151.52 36.76ZM146.65 12.47L146.59 12.41L146.64 12.46Q144.68 11.79 138.17 11.30L138.15 11.28L138.05 11.18Q136.80 11.33 134.02 11.45L133.91 11.34L133.88 11.31Q129.73 11.61 127.48 13.59L127.54 13.65L127.53 13.64Q125.79 15.02 125.79 18.18L125.87 18.26L125.76 18.15Q125.86 19.09 126.01 20.80L125.92 20.71L125.88 20.67Q126.08 22.43 126.08 23.31L126.16 23.39L126.09 23.31Q126.25 25.07 126.63 28.65L126.65 28.67L126.62 28.64Q126.91 31.45 128.51 33.50L128.68 33.67L128.66 33.65Q128.86 34.35 130.08 35.49L130.12 35.53L130.21 35.62Q132.88 37.57 138.06 37.84L137.99 37.77L138.03 37.80Q138.34 37.78 140.74 37.89L140.75 37.90L140.84 37.99Q145.64 38.14 147.92 37.08L147.91 37.07L147.96 37.11Q148.74 37.70 153.46 41.28L153.40 41.22L153.47 41.29Q154.09 40.77 155.39 39.78L155.39 39.79L155.35 39.75Q154.47 39.05 153.67 38.37L153.68 38.38L152.08 36.98L152.11 36.85L152.18 36.92Q151.52 36.37 150.30 35.34L150.38 35.43L150.41 35.46Q152.29 32.92 152.29 28.39L152.24 28.34L152.21 28.30Q152.37 28.05 152.41 27.21L152.38 27.18L152.41 27.21Q152.42 26.34 152.42 25.93L152.29 25.80L152.44 25.95Q152.26 20.25 151.54 17.89L151.58 17.94L151.64 17.99Q151.22 16.66 150.34 15.59L150.41 15.66L150.29 15.54Q149.66 13.57 146.73 12.54ZM140.63 17.03L140.57 16.97L140.59 16.99Q144.70 16.95 146.53 18.55L146.49 18.52L146.46 18.49Q147.05 19.72 147.17 21.05L147.27 21.16L147.20 21.09Q147.21 22.28 147.14 23.65L147.22 23.74L147.19 23.70Q146.94 28.75 145.00 30.46L145.00 30.46L145.00 30.46Q143.60 29.06 141.09 26.32L141.04 26.27L141.05 26.28Q140.40 27.15 138.84 28.71L138.83 28.71L138.77 28.65Q139.32 29.24 140.46 30.42L140.52 30.47L140.40 30.47L140.32 30.39Q141.00 31.03 142.03 32.10L142.02 32.09L142.07 32.14Q141.07 32.40 138.75 32.70L138.59 32.54L138.11 32.60L137.86 32.76L137.68 32.63L137.74 32.68Q134.27 32.68 132.29 31.04L132.25 31.00L132.33 31.08Q131.23 28.91 131.27 25.79L131.28 25.80L131.25 25.77Q131.48 17.13 140.66 17.06Z"/></svg>