<svg xmlns="http://www.w3.org/2000/svg" width="200" height="40" viewBox="0,0,200,40"><path d="M7 34 C81 15,112 22,193 19" stroke="#666" fill="none"/><path fill="#333" d="M167.83 25.54L167.79 25.50L167.77 25.48Q164.15 31.68 160.73 35.64L160.86 35.78L160.83 35.74Q158.88 36.08 156.44 36.96L156.53 37.04L156.56 37.07Q161.33 31.34 166.09 22.93L166.26 23.09L166.22 23.06Q161.52 15.99 155.54 9.59L155.60 9.65L155.55 9.60Q158.45 10.79 160.73 11.28L160.81 11.36L160.85 11.40Q165.55 16.67 167.98 20.63L167.96 20.61L167.81 20.46Q170.47 16.19 174.39 11.77L174.39 11.77L174.28 11.66Q175.84 11.32 179.04 10.56L179.03 10.55L179.10 10.62Q172.98 17.03 169.52 22.97L169.57 23.02L169.64 23.09Q174.75 31.70 179.13 36.27L179.09 36.23L179.08 36.22Q176.57 35.50 174.48 35.27L174.34 35.13L174.34 35.13Q171.65 32.25 167.73 25.44ZM174.46 35.67L174.31 35.52L174.46 35.67Q174.60 35.54 175.05 35.66L175.21 35.82L175.02 35.62Q175.83 36.40 177.35 37.99L177.49 38.13L177.37 38.01Q180.77 38.86 183.82 40.23L183.93 40.34L183.74 40.15Q176.72 33.66 171.62 24.91L171.65 24.94L171.67 24.96Q175.28 18.18 181.18 11.33L181.24 11.39L181.29 11.43Q179.71 11.95 177.54 12.49L177.61 12.56L177.60 12.55Q178.50 11.66 180.25 9.87L180.23 9.84L180.25 9.86Q177.90 10.79 174.21 11.36L174.26 11.42L174.24 11.39Q170.79 15.18 168.21 19.48L168.08 19.35L168.23 19.50Q167.29 17.88 166.11 16.40L165.99 16.28L163.86 13.50L163.41 13.43L163.33 13.35Q163.29 13.46 163.06 13.39L162.96 13.28L162.93 13.25Q162.30 12.47 160.82 10.91L160.88 10.98L160.75 10.85Q156.95 9.98 154.36 8.61L154.40 8.65L154.41 8.66Q161.20 15.98 165.77 23.02L165.82 23.07L165.73 22.98Q161.22 31.15 155.47 37.74L155.53 37.80L155.60 37.87Q156.86 37.14 158.99 36.57L159.00 36.59L157.59 37.91L157.62 37.94Q157.76 38.08 156.43 39.41L156.42 39.40L156.42 39.41Q159.37 38.29 162.53 37.79L162.48 37.74L162.58 37.84Q166.60 33.34 169.19 28.58L169.08 28.46L169.01 28.39Q171.63 32.69 174.33 35.54Z"/><path fill="#333" d="M25.10 35.22L25.18 35.30L25.03 35.15Q21.56 35.26 19.92 34.73L20.02 34.83L20.08 34.88Q18.06 34.20 17.76 30.81L17.79 30.85L19.10 29.64L19.13 29.67Q19.90 29.18 20.66 28.69L20.72 28.75L20.75 28.78Q20.46 30.66 22.06 31.87L22.02 31.84L21.96 31.78Q23.25 32.80 25.38 32.61L25.44 32.66L25.46 32.69Q29.76 32.19 29.57 28.65L29.62 28.70L29.54 28.62Q29.37 26.36 26.74 25.14L26.88 25.28L26.81 25.21Q23.97 24.16 21.61 22.94L21.60 22.93L21.60 22.92Q19.04 21.59 18.05 16.90L18.02 16.88L18.01 16.86Q17.93 16.43 17.81 15.67L17.77 15.63L17.75 15.61Q17.75 14.93 17.83 14.36L17.91 14.44L17.78 14.31Q18.03 12.81 19.29 12.36L19.31 12.37L19.20 12.27Q21.69 11.48 25.68 11.67L25.57 11.56L25.66 11.65Q27.46 11.73 28.26 11.81L28.34 11.89L28.34 11.89Q29.72 11.98 30.79 12.43L30.77 12.41L30.72 12.36Q32.96 12.97 33.19 15.44L33.16 15.41L33.14 15.40Q32.18 16.19 29.97 17.52L29.86 17.41L29.94 17.49Q29.43 14.38 25.05 14.38L25.11 14.44L25.20 14.53Q23.16 14.40 22.17 15.09L22.22 15.13L22.13 15.04Q21.04 15.63 21.27 17.42L21.24 17.39L21.28 17.43Q21.44 19.53 24.41 21.05L24.58 21.22L24.59 21.23Q25.09 21.43 29.58 23.07L29.49 22.98L29.62 23.11Q32.07 24.41 32.49 28.79L32.48 28.78L32.63 28.93Q32.56 29.01 32.63 30.27L32.57 30.20L32.68 30.31Q32.78 33.12 31.22 34.22L31.16 34.16L31.16 34.16Q29.20 35.02 25.01 35.13ZM27.37 37.57L27.44 37.64L27.38 37.58Q28.87 37.70 30.85 37.70L30.85 37.69L30.86 37.71Q32.92 37.67 34.17 37.25L34.19 37.27L34.22 37.30Q35.38 36.40 35.30 34.61L35.40 34.71L35.31 34.62Q35.25 33.60 34.87 31.55L35.02 31.71L34.98 31.67Q34.03 26.94 31.93 25.08L32.01 25.15L31.84 24.99Q31.07 23.41 29.73 22.68L29.89 22.84L24.58 20.77L24.55 20.73Q24.12 20.46 23.66 20.23L23.68 20.25L23.69 19.99L23.65 19.61L23.54 19.50Q23.39 18.09 24.53 17.48L24.63 17.58L24.48 17.43Q25.34 16.96 27.05 16.77L27.07 16.79L27.08 16.80Q28.23 16.69 29.38 17.15L29.36 17.14L29.28 17.06Q29.37 17.18 29.56 18.02L29.55 18.01L29.63 18.09Q29.69 17.81 30.19 17.58L30.21 17.60L30.30 17.70Q31.09 18.67 31.20 19.81L31.21 19.82L31.16 19.78Q31.10 19.60 34.75 17.01L34.79 17.05L34.88 17.14Q34.67 14.56 33.22 13.88L33.07 13.72L33.06 13.72Q32.58 12.55 31.14 12.02L31.12 12.01L31.11 12.00Q28.86 11.23 25.66 11.23L25.54 11.11L25.58 11.14Q20.80 11.27 18.93 11.96L18.85 11.88L18.83 11.86Q17.50 12.32 17.39 14.00L17.35 13.95L17.39 14.00Q17.36 14.54 17.78 16.75L17.84 16.81L17.78 16.74Q18.44 20.49 20.61 22.73L20.57 22.70L20.67 22.80Q21.38 24.42 22.89 25.11L22.95 25.17L22.86 25.08Q24.48 25.88 28.40 27.44L28.45 27.50L28.40 27.48L29.07 27.85L28.98 27.79L29.03 27.84Q29.13 28.21 29.17 28.56L29.27 28.65L29.30 28.68Q29.40 32.17 25.48 32.32L25.44 32.29L25.42 32.27Q24.28 32.30 22.98 31.92L22.98 31.92L23.03 31.97Q22.71 31.16 22.71 30.43L22.71 30.43L22.66 30.39Q22.67 30.13 22.71 29.86L22.63 29.78L22.71 29.86Q22.28 30.08 21.48 30.58L21.42 30.52L21.36 30.46Q20.92 29.41 21.08 28.04L21.12 28.08L21.16 28.12Q18.92 29.16 17.33 30.57L17.34 30.58L17.41 30.65Q17.42 31.43 17.50 32.45L17.52 32.48L17.55 32.51Q17.84 34.20 19.13 34.96L19.16 35.00L19.16 34.99Q20.31 36.75 22.87 37.14L23.01 37.28L22.88 37.15Q24.56 37.50 27.49 37.69Z"/><path d="M11 24 C115 29,97 23,193 6" stroke="#666" fill="none"/><path fill="#222" d="M136.36 21.74L136.37 21.76L136.51 21.90Q138.16 21.91 139.99 21.91L140.14 22.06L140.02 21.94Q141.86 22.00 143.69 21.84L143.63 21.78L143.72 21.88Q143.55 22.47 143.55 23.19L143.47 23.10L143.51 24.48L143.63 24.60Q141.12 24.45 136.36 24.57L136.34 24.55L136.52 24.72Q136.54 30.68 135.40 35.67L135.33 35.60L135.26 35.53Q133.00 36.16 131.52 36.96L131.70 37.15L131.65 37.10Q134.03 30.34 133.76 23.22L133.70 23.16L133.74 23.20Q133.41 15.98 130.74 9.32L130.74 9.31L130.79 9.36Q134.39 11.82 139.15 12.05L139.12 12.02L139.08 11.98Q143.89 12.30 148.04 10.54L148.05 10.55L147.97 10.48Q147.72 11.33 147.49 12.13L147.44 12.08L147.00 13.73L146.99 13.72Q144.22 14.76 141.25 14.91L141.32 14.98L141.41 15.07Q138.31 15.05 135.45 14.33L135.46 14.34L135.45 14.32Q136.19 17.77 136.39 21.77ZM148.53 9.71L148.60 9.77L148.54 9.72Q144.11 12.03 139.24 11.72L139.22 11.70L139.23 11.71Q133.84 11.34 130.11 8.49L130.05 8.43L130.12 8.50Q132.91 15.36 133.21 22.97L133.22 22.98L133.20 22.97Q133.62 31.00 131.11 37.78L131.13 37.80L131.12 37.79Q131.77 37.38 133.15 36.73L133.06 36.64L133.16 36.74Q132.95 37.49 132.38 39.01L132.44 39.07L132.43 39.06Q134.68 37.92 137.57 37.43L137.60 37.45L137.50 37.36Q138.28 32.65 138.47 26.94L138.40 26.87L138.43 26.90Q140.22 26.87 142.05 26.87L142.00 26.82L142.05 26.87Q143.70 26.72 145.52 26.91L145.54 26.93L145.70 27.09Q145.44 25.99 145.44 25.08L145.50 25.14L145.53 23.27L145.41 23.14Q144.73 23.34 143.89 23.34L143.87 23.32L143.81 23.26Q144.00 22.57 144.08 21.54L144.03 21.50L143.97 21.44Q142.51 21.54 141.10 21.54L141.16 21.60L141.27 21.71Q139.88 21.72 138.51 21.69L138.35 21.53L138.31 19.36L138.26 19.30Q138.39 18.37 138.28 17.31L138.20 17.23L138.24 17.27Q139.20 17.32 140.19 17.32L140.12 17.25L140.13 17.26Q144.96 17.33 148.58 15.42L148.48 15.32L148.58 15.42Q149.12 13.64 150.03 11.01L150.04 11.03L150.03 11.02Q148.75 11.87 147.95 12.21L147.80 12.06L147.91 12.16Q148.12 11.35 148.62 9.79Z"/><path fill="#111" d="M54.60 25.45L54.55 25.40L54.52 25.37Q51.11 31.78 47.68 35.74L47.72 35.78L47.65 35.71Q45.72 36.06 43.28 36.94L43.40 37.06L43.42 37.08Q48.22 31.36 52.97 22.95L53.02 23.00L52.94 22.92Q48.35 15.96 42.37 9.57L42.50 9.70L42.43 9.62Q45.47 10.95 47.75 11.45L47.62 11.31L47.66 11.36Q52.26 16.53 54.70 20.49L54.65 20.44L54.66 20.44Q57.17 16.04 61.10 11.62L61.27 11.80L61.23 11.75Q62.76 11.37 65.95 10.61L65.90 10.56L65.98 10.64Q59.95 17.13 56.48 23.07L56.48 23.07L56.39 22.98Q61.57 31.66 65.95 36.23L65.90 36.18L66.01 36.29Q63.40 35.47 61.30 35.24L61.34 35.28L61.36 35.30Q58.42 32.16 54.50 25.35ZM61.27 35.63L61.17 35.53L61.13 35.49Q61.57 35.66 62.03 35.77L62.05 35.79L61.98 35.73Q62.74 36.45 64.27 38.05L64.25 38.03L64.21 38.00Q67.55 38.79 70.60 40.16L70.77 40.33L70.78 40.34Q63.58 33.67 58.48 24.92L58.35 24.79L58.36 24.80Q62.29 18.33 68.19 11.48L68.09 11.38L68.20 11.49Q66.66 12.04 64.49 12.58L64.49 12.57L64.43 12.52Q65.27 11.57 67.02 9.78L67.18 9.94L67.15 9.91Q64.70 10.73 61.00 11.30L61.10 11.40L61.02 11.31Q57.68 15.21 55.09 19.51L54.91 19.33L54.98 19.40Q54.12 17.85 52.94 16.36L52.87 16.30L50.58 13.36L50.23 13.39L50.21 13.38Q50.04 13.36 49.81 13.28L49.96 13.43L49.93 13.40Q49.13 12.44 47.64 10.88L47.71 10.94L47.80 11.04Q43.99 10.16 41.40 8.79L41.25 8.64L41.28 8.67Q47.97 15.89 52.53 22.93L52.55 22.94L52.63 23.02Q48.18 31.26 42.43 37.84L42.46 37.87L42.31 37.72Q43.65 37.08 45.78 36.51L45.75 36.47L44.55 38.01L44.64 38.11Q44.46 37.92 43.12 39.25L43.12 39.25L43.21 39.34Q46.21 38.27 49.37 37.77L49.31 37.71L49.46 37.86Q53.31 33.19 55.90 28.43L55.90 28.43L55.87 28.40Q58.52 32.72 61.22 35.58Z"/><path fill="#222" d="M81.85 24.09L81.97 24.22L82.03 24.28Q80.12 24.23 78.91 25.56L78.81 25.47L78.78 25.44Q77.68 26.89 77.53 28.79L77.49 28.76L77.46 28.73Q77.39 30.98 78.61 31.99L78.56 31.94L78.43 31.81Q79.69 32.85 81.82 32.78L81.87 32.83L81.89 32.85Q84.14 32.62 85.09 31.67L85.08 31.66L85.14 31.72Q86.18 30.29 86.07 28.46L86.08 28.48L86.06 28.46Q85.95 26.59 84.87 25.39L84.76 25.29L84.82 25.34Q83.84 24.25 82.01 24.25ZM81.82 14.66L82.01 14.84L81.86 14.70Q80.47 14.60 79.13 15.10L79.19 15.15L79.20 15.16Q77.81 15.86 78.04 17.73L78.16 17.85L78.10 17.79Q78.63 21.55 81.98 21.55L81.88 21.46L82.00 21.57Q83.47 21.68 84.46 20.54L84.53 20.61L84.43 20.51Q85.57 19.51 85.61 17.95L85.45 17.79L85.49 17.83Q85.68 16.20 84.96 15.59L84.86 15.49L84.80 15.44Q83.26 14.73 81.97 14.80ZM81.65 35.32L81.69 35.35L78.57 35.28L78.62 35.33Q77.01 35.24 75.68 34.37L75.73 34.42L75.71 34.40Q74.43 33.35 74.58 30.49L74.44 30.35L74.54 30.45Q74.97 23.57 78.58 22.58L78.52 22.51L78.61 22.60Q76.38 21.74 75.05 16.38L75.03 16.36L75.07 16.40Q74.60 14.86 74.67 14.06L74.70 14.09L74.74 14.12Q74.98 11.93 78.68 11.90L78.71 11.93L78.68 11.90Q82.90 11.82 84.35 12.01L84.32 11.99L84.41 12.08Q88.25 12.60 88.70 14.62L88.70 14.61L88.74 14.66Q88.76 15.16 88.76 15.55L88.81 15.60L88.82 15.61Q88.76 16.23 88.57 16.84L88.65 16.93L88.68 16.95Q88.00 21.10 85.07 22.63L84.97 22.53L85.14 22.70Q88.61 23.47 89.11 28.76L89.16 28.81L88.98 28.64Q89.02 28.82 89.05 30.12L89.10 30.16L89.17 30.24Q89.11 32.84 87.52 33.91L87.56 33.96L87.53 33.93Q86.16 34.80 81.60 35.26ZM83.98 37.68L84.00 37.71L87.24 37.67L87.36 37.79Q89.04 37.83 90.56 37.11L90.47 37.01L90.55 37.09Q91.59 36.27 91.66 34.40L91.74 34.47L91.79 34.53Q91.85 33.45 91.47 31.51L91.29 31.33L91.41 31.44Q90.51 26.81 88.41 24.95L88.38 24.91L88.26 24.60L87.91 24.18L87.79 23.94L87.79 23.94Q89.50 22.64 90.41 18.49L90.46 18.54L90.32 18.40Q90.43 18.13 90.50 17.29L90.57 17.35L90.45 17.24Q90.50 16.52 90.42 15.91L90.50 15.99L90.49 15.98Q90.35 14.55 89.17 14.06L89.10 13.98L89.14 13.99L89.04 13.96L89.02 13.94Q88.71 13.17 87.53 12.37L87.60 12.44L87.61 12.41L87.67 12.48Q85.63 11.73 81.55 11.54L81.43 11.42L81.43 11.41Q79.87 11.30 78.50 11.41L78.51 11.42L78.67 11.59Q77.83 11.58 76.53 11.73L76.52 11.72L76.57 11.77Q74.63 12.15 74.40 13.78L74.34 13.73L74.34 13.73Q74.36 14.28 74.40 15.08L74.36 15.04L74.42 15.10Q74.44 15.54 75.01 17.90L74.93 17.82L75.05 17.94Q75.83 21.16 77.58 22.49L77.62 22.52L77.69 22.60L77.69 22.60Q74.89 23.87 74.35 29.05L74.35 29.04L74.35 29.05Q74.06 31.15 74.06 32.07L74.13 32.13L74.08 32.08Q74.18 33.90 75.36 34.81L75.47 34.92L75.42 34.87Q75.51 34.93 75.78 35.12L75.68 35.02L75.81 35.15Q76.74 37.33 83.86 37.56ZM83.57 26.54L83.61 26.58L83.50 26.47Q84.54 26.51 85.41 26.97L85.35 26.91L85.36 26.92Q85.84 28.00 85.80 28.54L85.64 28.38L85.76 28.50Q85.75 28.75 85.75 29.06L85.69 29.00L85.74 29.05Q85.77 31.44 83.49 32.28L83.45 32.24L83.53 32.32Q82.68 32.58 81.89 32.47L81.92 32.50L81.94 32.52Q80.86 32.66 79.72 32.20L79.69 32.17L79.62 32.11Q79.44 31.54 79.51 30.55L79.40 30.44L79.41 30.45Q79.53 28.82 80.73 27.60L80.74 27.61L80.78 27.65Q82.02 26.47 83.62 26.59ZM83.83 17.08L83.87 17.13L83.87 17.13Q84.56 16.90 85.09 17.05L85.17 17.13L85.16 17.93L85.23 17.99Q85.13 19.31 84.22 20.31L84.22 20.32L84.23 20.32Q83.31 21.32 81.94 21.13L81.85 21.05L82.00 21.20Q81.04 21.23 80.62 21.00L80.44 20.82L80.64 21.01Q80.51 20.66 80.40 19.98L80.33 19.91L80.47 20.05Q80.06 18.50 81.28 17.66L81.24 17.62L81.41 17.79Q82.41 17.04 83.82 17.08Z"/><path fill="#222" d="M106.39 28.04L106.24 27.89L106.36 28.00Q109.46 27.65 112.66 27.76L112.56 27.65L112.60 27.70Q112.46 25.04 112.46 22.65L112.59 22.78L112.45 22.64Q112.64 20.35 112.83 17.80L112.80 17.77L112.78 17.75Q111.56 19.46 106.34 27.99ZM116.15 35.24L116.25 35.35L116.30 35.40Q114.47 34.94 112.68 34.86L112.71 34.89L112.71 34.89Q112.49 32.50 112.38 30.03L112.54 30.19L112.41 30.06Q107.05 29.84 102.33 31.25L102.29 31.21L102.45 31.37Q102.41 30.72 102.61 29.73L102.66 29.78L102.71 29.84Q104.57 26.75 108.15 20.47L108.03 20.35L108.05 20.37Q111.05 15.60 114.47 11.72L114.31 11.56L114.41 11.66Q115.26 11.44 116.93 11.17L116.98 11.22L116.88 11.12Q114.98 17.56 114.98 24.60L115.02 24.64L115.11 24.72Q114.97 26.07 115.05 27.56L115.03 27.54L116.49 27.82L116.37 27.70Q116.93 27.69 117.54 27.80L117.62 27.88L117.60 27.86Q117.75 28.89 118.01 30.83L117.98 30.80L118.02 30.83Q116.68 30.45 115.20 30.26L115.25 30.31L115.22 30.28Q115.54 32.39 116.23 35.32ZM117.78 27.40L117.95 27.57L117.87 27.49Q117.72 27.45 117.53 27.45L117.41 27.33L117.16 27.46L117.22 27.52Q117.00 25.93 117.00 24.53L116.99 24.51L116.91 24.44Q116.94 18.07 118.99 12.05L119.03 12.08L118.99 12.04Q118.23 12.31 116.78 12.69L116.84 12.75L116.94 12.85Q117.14 12.06 117.60 10.66L117.49 10.54L117.57 10.63Q116.24 10.97 114.18 11.20L114.15 11.16L114.12 11.13Q110.18 15.46 104.96 24.82L105.14 25.00L107.24 21.35L107.07 21.17Q106.63 22.19 106.37 22.76L106.44 22.83L101.96 31.83L101.92 31.79Q102.72 31.80 103.87 31.41L103.73 31.28L103.58 31.50L103.67 31.60Q103.57 32.30 103.27 33.55L103.24 33.53L103.20 33.49Q107.36 32.20 112.19 32.39L112.19 32.39L112.19 32.39Q112.13 33.24 112.32 35.22L112.48 35.38L112.49 35.39Q113.51 35.35 114.58 35.46L114.57 35.46L114.52 35.41Q114.70 36.12 114.97 37.49L115.00 37.52L114.90 37.42Q116.88 37.72 119.88 38.64L119.85 38.60L119.84 38.59Q118.80 36.41 117.89 33.14L117.88 33.13L119.45 33.71L119.46 33.72Q120.05 33.86 120.74 34.20L120.74 34.21L120.74 34.20Q120.00 31.75 119.85 30.08L119.81 30.04L119.73 29.96Q119.23 29.87 118.09 29.64L118.17 29.73L118.17 29.73Q117.85 28.34 117.85 27.47ZM109.83 27.29L109.96 27.42L109.86 27.32Q110.64 26.04 112.20 23.49L112.24 23.53L112.12 23.41Q112.13 24.38 112.10 25.33L112.22 25.45L112.17 25.40Q112.14 26.36 112.17 27.31L112.24 27.38L112.23 27.37Q111.69 27.36 111.12 27.36L111.13 27.37L110.99 27.23Q110.48 27.33 109.87 27.33Z"/></svg>