<svg xmlns="http://www.w3.org/2000/svg" width="200" height="40" viewBox="0,0,200,40"><path fill="#111" d="M111.80 35.06L111.75 35.01L109.76 35.31L109.73 35.28Q109.25 35.25 108.28 35.31L108.28 35.31L108.34 35.37Q107.26 35.32 106.76 35.32L106.94 35.50L106.94 35.49Q105.22 35.41 104.19 34.57L104.20 34.59L104.18 34.56Q104.97 33.45 106.60 31.32L106.56 31.27L106.58 31.30Q107.85 32.87 110.06 32.64L110.14 32.72L110.03 32.61Q110.99 32.54 111.63 31.89L111.71 31.96L111.62 31.88Q112.22 31.18 112.10 30.30L112.29 30.49L112.27 30.47Q112.15 25.86 112.23 21.29L112.11 21.17L112.18 21.25Q112.22 16.64 112.75 12.03L112.63 11.91L112.74 12.02Q114.61 11.76 116.74 10.73L116.72 10.71L116.88 10.87Q115.02 17.61 115.02 24.85L115.01 24.84L115.01 24.83Q114.86 28.22 115.31 31.73L115.38 31.79L115.42 31.83Q115.49 32.17 115.49 32.51L115.48 32.50L115.40 32.42Q115.41 33.00 115.18 33.54L115.23 33.58L115.31 33.66Q114.58 34.76 111.76 35.03ZM116.70 37.87L116.87 38.04L117.05 37.88L117.40 37.81L117.59 37.61L117.57 37.60Q117.97 37.43 118.04 37.31L118.01 37.27L118.05 37.31Q118.30 36.19 118.03 35.20L117.91 35.08L118.02 35.19Q116.58 29.30 116.85 22.94L117.01 23.10L116.86 22.96Q117.07 16.81 118.86 10.91L118.93 10.97L118.91 10.96Q118.03 11.60 116.77 12.32L116.77 12.32L116.80 12.35Q116.97 11.56 117.38 10.04L117.49 10.15L117.49 10.15Q114.98 11.48 112.32 11.79L112.20 11.67L112.14 11.61Q111.84 16.08 111.77 21.02L111.78 21.04L111.82 21.08Q111.78 27.01 111.86 30.44L111.87 30.45L111.82 30.40Q111.82 32.12 110.07 32.27L110.19 32.39L110.02 32.22Q108.45 32.48 106.78 30.84L106.78 30.85L106.63 30.69Q104.63 33.26 103.67 34.82L103.79 34.93L103.73 34.87Q104.30 35.44 105.33 35.67L105.37 35.72L105.33 35.67Q105.34 35.92 105.08 36.15L105.02 36.09L105.08 36.15Q106.45 37.03 108.43 37.29L108.53 37.39L108.38 37.24Q108.89 37.41 112.18 37.71L112.20 37.73L112.12 37.65Q115.41 37.96 116.78 37.96Z"/><path fill="#444" d="M54.67 25.52L54.60 25.45L54.60 25.46Q51.07 31.75 47.65 35.70L47.76 35.81L47.71 35.77Q45.86 36.20 43.42 37.08L43.39 37.05L43.29 36.95Q48.34 31.49 53.10 23.08L52.94 22.92L53.09 23.07Q48.35 15.97 42.38 9.57L42.52 9.71L42.36 9.55Q45.45 10.94 47.74 11.43L47.65 11.34L47.68 11.37Q52.22 16.49 54.66 20.44L54.69 20.48L54.67 20.46Q57.34 16.20 61.26 11.78L61.11 11.63L61.11 11.64Q62.84 11.46 66.04 10.70L65.92 10.58L66.05 10.71Q59.79 16.98 56.33 22.92L56.51 23.10L56.40 22.99Q61.68 31.77 66.06 36.34L65.89 36.17L66.04 36.32Q63.32 35.39 61.22 35.16L61.37 35.31L61.20 35.14Q58.57 32.32 54.65 25.50ZM61.27 35.62L61.30 35.66L61.26 35.61Q61.51 35.60 61.97 35.72L61.93 35.67L61.88 35.63Q62.85 36.56 64.37 38.16L64.27 38.06L64.20 37.98Q67.69 38.92 70.73 40.29L70.70 40.26L70.74 40.30Q63.55 33.65 58.45 24.89L58.41 24.85L58.34 24.78Q62.28 18.32 68.18 11.47L68.03 11.32L68.08 11.37Q66.64 12.02 64.47 12.56L64.57 12.66L64.52 12.60Q65.33 11.62 67.08 9.84L67.07 9.83L67.21 9.97Q64.70 10.73 61.01 11.30L60.93 11.22L61.06 11.36Q57.65 15.17 55.06 19.48L54.98 19.40L55.05 19.47Q54.05 17.79 52.87 16.30L52.82 16.25L50.54 13.33L50.33 13.49L50.21 13.37Q50.01 13.33 49.79 13.25L49.81 13.27L49.82 13.29Q49.10 12.41 47.61 10.85L47.61 10.84L47.80 11.04Q43.95 10.12 41.36 8.75L41.33 8.72L41.23 8.62Q48.05 15.97 52.62 23.02L52.64 23.04L52.55 22.95Q48.03 31.10 42.28 37.69L42.27 37.68L42.45 37.85Q43.77 37.20 45.90 36.62L45.93 36.66L44.47 37.93L44.55 38.02Q44.56 38.02 43.22 39.35L43.22 39.35L43.31 39.44Q46.27 38.33 49.43 37.83L49.43 37.83L49.31 37.72Q53.28 33.16 55.87 28.40L55.89 28.42L55.90 28.43Q58.52 32.72 61.22 35.58Z"/><path fill="#333" d="M169.33 27.25L159.97 17.13L159.93 17.08Q160.81 20.82 160.81 24.55L160.79 24.53L160.89 24.63Q160.75 30.47 158.70 36.03L158.74 36.08L158.81 36.14Q157.61 36.27 155.36 37.03L155.50 37.18L155.55 37.22Q158.35 31.42 158.35 24.72L158.36 24.73L158.22 24.59Q158.26 15.99 153.77 8.56L153.76 8.56L153.82 8.62Q154.15 8.68 154.84 9.10L154.81 9.07L154.81 9.08Q167.03 20.42 174.87 29.67L174.86 29.66L174.82 29.62Q174.43 27.10 174.43 24.66L174.45 24.68L174.63 24.86Q174.59 17.59 177.10 11.38L177.01 11.29L177.03 11.31Q179.39 10.81 180.99 10.13L180.89 10.03L181.00 10.14Q177.64 16.26 177.34 23.42L177.44 23.52L177.43 23.51Q177.08 30.81 180.05 36.98L179.94 36.87L179.98 36.90Q179.38 36.81 178.96 36.62L178.96 36.61L178.97 36.62Q174.43 32.69 169.22 27.14L169.19 27.11ZM182.71 40.21L182.60 40.10L182.55 40.05Q183.10 40.29 183.52 40.49L183.54 40.51L184.38 40.85L184.40 40.88Q179.27 33.96 179.27 24.59L179.11 24.43L179.18 24.50Q179.23 17.32 182.54 11.07L182.56 11.09L182.48 11.01Q181.93 11.34 180.52 11.95L180.43 11.85L180.38 11.80Q180.90 11.10 181.73 9.54L181.59 9.40L181.75 9.56Q179.25 10.40 176.81 10.97L176.69 10.85L176.73 10.89Q174.15 17.41 174.15 24.83L174.21 24.90L174.17 24.85Q174.23 26.78 174.42 28.76L174.36 28.70L174.30 28.64Q169.68 22.99 164.92 18.38L164.95 18.41L154.81 8.66L154.81 8.66Q154.36 8.47 153.14 7.90L153.04 7.80L153.08 7.84Q158.01 15.62 158.01 24.72L157.86 24.57L157.99 24.70Q157.93 31.76 154.85 37.78L154.89 37.82L154.83 37.76Q155.07 37.59 156.71 36.98L156.73 36.99L156.84 37.11Q156.55 37.92 155.72 39.41L155.64 39.33L155.70 39.40Q157.06 38.88 160.52 38.09L160.36 37.92L160.40 37.96Q162.69 31.80 162.69 24.60L162.85 24.76L162.71 24.62Q162.80 22.62 162.57 20.49L162.59 20.51L162.55 20.47Q174.04 33.29 182.64 40.14Z"/><path fill="#444" d="M131.82 10.81L131.84 10.83L131.87 10.86Q133.79 15.75 134.36 20.93L134.27 20.83L134.39 20.95Q138.11 16.83 144.01 12.00L144.01 12.00L143.85 11.84Q147.06 11.55 149.69 10.75L149.69 10.75L143.27 16.51L143.30 16.54Q139.75 19.35 136.89 22.20L136.93 22.24L136.94 22.25Q144.95 31.44 150.02 36.16L149.97 36.12L149.98 36.13Q146.89 35.21 144.57 35.06L144.53 35.02L144.48 34.96Q138.82 29.69 134.52 23.87L134.44 23.78L134.44 23.79Q134.62 30.47 132.75 35.80L132.62 35.67L132.66 35.71Q132.51 35.82 132.01 36.01L131.97 35.97L131.92 36.11L131.86 36.06Q131.71 36.13 129.16 37.04L129.28 37.16L129.25 37.13Q132.04 30.41 131.70 22.95L131.77 23.02L131.72 22.97Q131.52 15.76 127.98 9.25L128.01 9.29L128.48 9.49L128.88 9.78L128.87 9.73L128.94 9.80Q129.68 10.19 131.89 10.88ZM132.19 10.61L132.10 10.52L132.21 10.63Q129.80 9.93 127.17 8.41L127.30 8.54L127.14 8.38Q131.60 15.84 131.60 24.79L131.49 24.68L131.46 24.65Q131.46 31.65 128.49 37.71L128.64 37.86L130.53 36.86L130.59 36.92Q130.27 38.00 129.58 39.30L129.47 39.18L129.57 39.29Q131.77 38.44 133.72 38.02L133.66 37.97L133.78 37.86L133.83 37.91Q134.03 37.80 134.60 37.65L134.66 37.71L134.66 37.71Q136.22 31.70 136.34 26.90L136.34 26.90L136.31 26.88Q138.37 29.35 140.20 31.22L140.31 31.33L140.27 31.29Q141.46 32.41 144.47 35.38L144.43 35.34L144.43 35.34L144.43 35.34Q145.45 36.17 147.32 37.77L147.31 37.76L147.42 37.86Q151.21 38.49 154.67 40.21L154.79 40.33L154.63 40.17Q145.35 31.62 139.11 24.19L139.27 24.35L139.24 24.32Q143.70 20.10 152.45 11.50L152.36 11.40L152.33 11.38Q149.79 12.53 147.78 12.91L147.82 12.96L147.77 12.91Q149.03 11.95 151.35 9.93L151.35 9.93L151.30 9.89Q147.13 11.23 143.78 11.42L143.96 11.61L143.90 11.55Q140.86 13.64 135.99 18.33L136.13 18.47L136.06 18.40Q135.72 15.85 135.15 13.30L135.06 13.22L135.18 13.34Q133.96 13.14 132.97 12.80L132.96 12.79L133.00 12.83Q132.65 11.94 132.08 10.50Z"/><path fill="#333" d="M25.08 35.20L25.17 35.29L25.03 35.15Q21.68 35.38 20.04 34.85L19.95 34.75L19.94 34.75Q17.99 34.13 17.69 30.74L17.63 30.68L19.17 29.71L19.15 29.69Q19.83 29.11 20.59 28.62L20.59 28.62L20.66 28.69Q20.44 30.63 22.03 31.85L21.96 31.78L22.00 31.81Q23.26 32.81 25.39 32.62L25.43 32.66L25.40 32.63Q29.76 32.19 29.57 28.65L29.54 28.62L29.59 28.67Q29.40 26.38 26.77 25.17L26.81 25.21L26.86 25.26Q24.01 24.20 21.65 22.98L21.61 22.94L21.62 22.95Q19.15 21.70 18.16 17.02L18.13 16.98L17.97 16.82Q17.89 16.40 17.78 15.64L17.77 15.63L17.92 15.78Q17.85 15.03 17.93 14.46L17.83 14.36L17.89 14.42Q17.95 12.73 19.21 12.27L19.21 12.27L19.22 12.28Q21.72 11.51 25.71 11.70L25.55 11.53L25.63 11.61Q27.50 11.77 28.30 11.85L28.29 11.84L28.22 11.77Q29.66 11.91 30.72 12.37L30.82 12.46L30.84 12.48Q32.99 13.00 33.22 15.47L33.07 15.33L33.10 15.35Q32.03 16.04 29.82 17.37L29.90 17.45L30.00 17.55Q29.51 14.47 25.13 14.47L25.10 14.43L25.15 14.48Q23.28 14.52 22.29 15.21L22.20 15.11L22.19 15.11Q21.11 15.69 21.33 17.48L21.34 17.49L21.20 17.35Q21.52 19.62 24.49 21.14L24.49 21.13L24.48 21.12Q25.12 21.46 29.61 23.09L29.58 23.06L29.53 23.01Q32.08 24.42 32.50 28.80L32.59 28.89L32.60 28.90Q32.66 29.11 32.74 30.37L32.68 30.31L32.63 30.26Q32.66 33.00 31.10 34.10L31.12 34.12L31.14 34.15Q29.33 35.15 25.14 35.27ZM27.51 37.71L27.40 37.60L27.36 37.56Q28.87 37.69 30.85 37.69L30.93 37.78L30.79 37.63Q32.86 37.61 34.12 37.19L34.18 37.26L34.17 37.24Q35.48 36.50 35.41 34.72L35.37 34.68L35.44 34.75Q35.39 33.75 35.01 31.69L34.97 31.65L34.85 31.53Q34.02 26.93 31.93 25.07L31.98 25.13L31.92 25.06Q31.07 23.41 29.74 22.69L29.92 22.87L24.58 20.77L24.53 20.72Q24.14 20.47 23.68 20.25L23.66 20.23L23.54 19.84L23.49 19.45L23.49 19.45Q23.43 18.13 24.57 17.52L24.59 17.55L24.50 17.45Q25.36 16.98 27.08 16.79L27.08 16.80L27.01 16.73Q28.16 16.62 29.30 17.08L29.32 17.10L29.38 17.16Q29.40 17.22 29.60 18.05L29.70 18.16L29.63 18.09Q29.89 18.01 30.38 17.78L30.24 17.64L30.33 17.72Q30.92 18.51 31.04 19.65L31.13 19.74L31.20 19.81Q31.12 19.62 34.78 17.03L34.77 17.03L34.91 17.17Q34.68 14.57 33.23 13.89L33.15 13.81L33.18 13.83Q32.52 12.49 31.08 11.96L31.14 12.02L31.17 12.05Q28.91 11.28 25.72 11.28L25.66 11.23L25.61 11.18Q20.67 11.15 18.81 11.84L18.85 11.87L18.95 11.98Q17.60 12.41 17.48 14.09L17.50 14.11L17.34 13.94Q17.42 14.60 17.84 16.81L17.80 16.77L17.79 16.76Q18.51 20.56 20.68 22.80L20.55 22.68L20.56 22.68Q21.37 24.41 22.87 25.09L22.91 25.13L23.04 25.26Q24.40 25.80 28.32 27.36L28.34 27.38L28.43 27.51L28.97 27.74L29.07 27.88L28.99 27.81Q29.28 28.36 29.32 28.71L29.29 28.67L29.22 28.61Q29.26 32.03 25.34 32.19L25.43 32.27L25.32 32.16Q24.27 32.30 22.97 31.91L22.88 31.82L22.91 31.85Q22.63 31.07 22.63 30.35L22.69 30.41L22.54 30.26Q22.62 30.07 22.65 29.81L22.58 29.73L22.61 29.77Q22.17 29.97 21.37 30.47L21.40 30.49L21.35 30.45Q20.86 29.35 21.02 27.98L21.17 28.13L21.14 28.10Q18.97 29.20 17.37 30.61L17.49 30.73L17.50 30.74Q17.54 31.54 17.61 32.57L17.62 32.58L17.62 32.58Q17.94 34.31 19.24 35.07L19.09 34.92L19.11 34.94Q20.46 36.90 23.01 37.28L23.03 37.30L23.03 37.30Q24.53 37.47 27.46 37.66Z"/><path fill="#333" d="M82.82 25.39L82.84 25.40L82.84 25.41Q79.47 31.86 76.05 35.82L75.94 35.72L75.98 35.75Q74.15 36.21 71.72 37.09L71.68 37.05L71.69 37.06Q76.53 31.39 81.29 22.98L81.27 22.96L81.34 23.03Q76.74 16.07 70.76 9.67L70.65 9.56L70.76 9.68Q73.61 10.80 75.89 11.30L75.93 11.34L75.87 11.28Q80.52 16.50 82.96 20.46L83.06 20.56L83.08 20.59Q85.63 16.21 89.55 11.79L89.45 11.69L89.55 11.79Q91.05 11.38 94.25 10.62L94.28 10.65L94.29 10.66Q88.10 17.00 84.64 22.94L84.67 22.97L84.62 22.92Q89.81 31.62 94.19 36.19L94.29 36.28L94.20 36.20Q91.64 35.42 89.54 35.19L89.67 35.32L89.57 35.22Q86.86 32.32 82.94 25.50ZM89.41 35.48L89.47 35.54L89.48 35.55Q89.90 35.71 90.36 35.82L90.32 35.78L90.19 35.65Q91.06 36.48 92.58 38.08L92.52 38.02L92.58 38.08Q95.86 38.80 98.90 40.17L99.02 40.29L99.03 40.30Q91.87 33.67 86.77 24.92L86.62 24.77L86.80 24.95Q90.50 18.26 96.40 11.41L96.32 11.32L96.36 11.37Q94.93 12.03 92.76 12.56L92.87 12.67L92.82 12.62Q93.66 11.67 95.41 9.88L95.31 9.78L95.41 9.88Q92.95 10.70 89.26 11.27L89.30 11.31L89.27 11.28Q85.89 15.13 83.30 19.44L83.28 19.41L83.35 19.48Q82.43 17.88 81.25 16.39L81.24 16.38L78.87 13.37L78.52 13.39L78.47 13.35Q78.47 13.49 78.24 13.42L78.07 13.25L78.08 13.26Q77.42 12.45 75.94 10.89L76.08 11.03L75.93 10.89Q72.16 10.05 69.57 8.68L69.63 8.73L69.57 8.67Q76.38 16.02 80.95 23.06L80.95 23.06L80.84 22.95Q76.50 31.29 70.75 37.87L70.62 37.74L70.56 37.68Q72.04 37.18 74.17 36.61L74.03 36.47L72.74 37.92L72.82 38.00Q72.77 37.95 71.44 39.28L71.54 39.39L71.49 39.33Q74.46 38.23 77.62 37.74L77.63 37.75L77.62 37.74Q81.59 33.18 84.18 28.42L84.34 28.58L84.33 28.57Q86.82 32.73 89.52 35.59Z"/><path d="M11 31 C101 13,119 10,192 28" stroke="#666" fill="none"/><path d="M21 8 C116 35,121 36,187 13" stroke="#777" fill="none"/></svg>