<svg xmlns="http://www.w3.org/2000/svg" width="200" height="40" viewBox="0,0,200,40"><path d="M12 27 C83 4,100 29,195 15" stroke="#222" fill="none"/><path fill="#333" d="M53.60 24.13L53.71 24.23L53.64 24.16Q51.73 24.12 50.51 25.45L50.53 25.47L50.62 25.56Q49.41 26.91 49.26 28.81L49.14 28.69L49.23 28.78Q49.11 30.99 50.33 32.00L50.25 31.91L50.25 31.91Q51.46 32.92 53.59 32.84L53.61 32.86L53.50 32.75Q55.91 32.68 56.86 31.73L56.79 31.66L56.87 31.73Q57.84 30.23 57.72 28.40L57.77 28.45L57.83 28.52Q57.60 26.53 56.51 25.33L56.48 25.30L56.64 25.46Q55.47 24.18 53.65 24.18ZM53.63 14.76L53.70 14.82L53.68 14.80Q52.18 14.60 50.85 15.10L50.82 15.06L50.86 15.11Q49.52 15.86 49.75 17.73L49.77 17.75L49.82 17.80Q50.22 21.44 53.57 21.44L53.64 21.50L53.66 21.53Q55.16 21.65 56.15 20.51L56.13 20.49L56.12 20.48Q57.11 19.34 57.14 17.77L57.16 17.79L57.29 17.92Q57.39 16.19 56.66 15.58L56.63 15.55L56.55 15.47Q54.88 14.63 53.58 14.71ZM53.33 35.28L53.36 35.31L50.21 35.20L50.37 35.36Q48.86 35.38 47.53 34.50L47.47 34.44L47.40 34.37Q46.02 33.22 46.17 30.37L46.23 30.43L46.21 30.41Q46.63 23.52 50.25 22.53L50.28 22.56L50.28 22.56Q48.12 21.77 46.79 16.40L46.79 16.40L46.60 16.21Q46.43 14.98 46.51 14.18L46.35 14.02L46.43 14.11Q46.65 11.88 50.34 11.84L50.47 11.98L50.44 11.95Q54.72 11.92 56.16 12.11L56.03 11.97L56.17 12.12Q59.88 12.52 60.34 14.53L60.45 14.65L60.35 14.55Q60.58 15.27 60.58 15.65L60.61 15.68L60.51 15.59Q60.57 16.33 60.38 16.94L60.30 16.85L60.33 16.89Q59.76 21.15 56.83 22.67L56.80 22.64L56.76 22.61Q60.22 23.37 60.72 28.66L60.70 28.64L60.85 28.79Q60.77 28.86 60.81 30.15L60.87 30.21L60.83 30.18Q60.87 32.89 59.27 33.95L59.23 33.91L59.38 34.06Q58.02 34.94 53.45 35.40ZM55.61 37.60L55.59 37.57L58.89 37.60L59.00 37.72Q60.75 37.83 62.27 37.10L62.27 37.10L62.16 36.99Q63.30 36.27 63.38 34.40L63.51 34.53L63.41 34.44Q63.45 33.33 63.07 31.39L63.14 31.46L63.09 31.42Q62.22 26.81 60.13 24.95L60.17 24.98L59.82 24.45L59.76 24.31L59.61 24.05L59.66 24.09Q61.20 22.63 62.11 18.48L62.12 18.49L62.20 18.57Q62.09 18.07 62.16 17.23L62.28 17.35L62.21 17.28Q62.29 16.60 62.21 15.99L62.20 15.98L62.10 15.88Q62.13 14.61 60.95 14.12L60.95 14.12L60.83 13.96L60.69 13.90L60.67 13.88Q60.49 13.24 59.31 12.44L59.26 12.40L59.30 12.39L59.24 12.34Q57.31 11.70 53.24 11.51L53.16 11.43L53.17 11.44Q51.70 11.42 50.33 11.53L50.32 11.52L50.31 11.51Q49.42 11.46 48.12 11.61L48.15 11.63L48.30 11.79Q46.26 12.06 46.03 13.70L46.11 13.78L46.06 13.73Q45.96 14.16 46.00 14.96L46.09 15.06L46.11 15.08Q46.12 15.50 46.69 17.86L46.65 17.82L46.72 17.90Q47.59 21.20 49.34 22.53L49.20 22.39L49.43 22.63L49.44 22.63Q46.48 23.75 45.95 28.93L45.96 28.94L45.97 28.95Q45.77 31.14 45.77 32.06L45.86 32.15L45.95 32.23Q46.01 34.01 47.19 34.92L47.17 34.91L47.04 34.77Q47.29 34.99 47.56 35.18L47.45 35.07L47.51 35.13Q48.57 37.45 55.69 37.68ZM55.39 26.64L55.21 26.46L55.20 26.45Q56.29 26.55 57.16 27.00L57.02 26.86L57.09 26.93Q57.53 27.98 57.49 28.51L57.52 28.55L57.37 28.39Q57.52 28.81 57.52 29.11L57.49 29.09L57.37 28.97Q57.41 31.37 55.13 32.20L55.08 32.16L55.19 32.27Q54.35 32.53 53.55 32.41L53.64 32.50L53.53 32.40Q52.46 32.54 51.32 32.09L51.30 32.07L51.34 32.11Q51.00 31.39 51.08 30.40L51.19 30.52L51.10 30.42Q51.34 28.91 52.54 27.70L52.57 27.72L52.51 27.67Q53.65 26.39 55.25 26.50ZM55.61 17.15L55.45 16.99L55.54 17.09Q56.37 17.00 56.90 17.15L56.86 17.11L56.85 17.90L56.87 17.92Q56.90 19.35 55.98 20.36L56.00 20.38L55.93 20.31Q55.12 21.42 53.75 21.23L53.74 21.22L53.62 21.10Q52.57 21.05 52.15 20.82L52.32 20.98L52.22 20.89Q52.22 20.65 52.11 19.97L52.18 20.04L52.00 19.86Q51.89 18.61 53.11 17.77L53.01 17.67L53.01 17.67Q54.14 17.05 55.55 17.09Z"/><path fill="#444" d="M134.69 28.05L134.60 27.97L134.54 27.90Q137.61 27.50 140.81 27.62L140.94 27.76L140.97 27.78Q140.75 25.05 140.75 22.65L140.91 22.81L140.75 22.65Q140.83 20.26 141.02 17.71L141.07 17.75L140.98 17.67Q139.78 19.40 134.57 27.93ZM144.48 35.29L144.43 35.24L144.56 35.37Q142.83 35.01 141.04 34.94L140.96 34.85L141.05 34.95Q140.84 32.56 140.72 30.09L140.72 30.08L140.79 30.16Q135.33 29.83 130.61 31.24L130.59 31.22L130.70 31.33Q130.74 30.76 130.93 29.77L130.91 29.75L130.89 29.73Q132.86 26.76 136.44 20.47L136.25 20.28L136.33 20.36Q139.24 15.51 142.66 11.62L142.61 11.57L142.57 11.53Q143.54 11.43 145.21 11.16L145.31 11.26L145.30 11.25Q143.30 17.59 143.30 24.63L143.23 24.56L143.37 24.71Q143.26 26.08 143.34 27.56L143.31 27.53L144.59 27.64L144.63 27.67Q145.33 27.81 145.94 27.92L145.86 27.84L145.94 27.92Q146.10 28.96 146.37 30.90L146.35 30.88L146.31 30.84Q144.97 30.45 143.49 30.26L143.62 30.39L143.56 30.33Q143.73 32.29 144.41 35.23ZM146.19 27.52L146.14 27.47L146.11 27.44Q145.93 27.38 145.74 27.38L145.77 27.41L145.36 27.38L145.42 27.44Q145.38 26.02 145.38 24.62L145.29 24.53L145.35 24.59Q145.32 18.16 147.37 12.14L147.32 12.09L147.36 12.14Q146.68 12.48 145.24 12.86L145.16 12.78L145.09 12.72Q145.40 12.04 145.86 10.63L145.88 10.65L145.85 10.63Q144.58 11.03 142.53 11.26L142.53 11.26L142.53 11.26Q138.62 15.61 133.41 24.98L133.41 24.98L135.38 21.20L135.39 21.22Q135.11 22.38 134.85 22.95L134.83 22.94L130.34 31.92L130.24 31.82Q130.97 31.76 132.11 31.38L132.11 31.38L131.99 31.64L131.97 31.62Q131.77 32.21 131.47 33.47L131.42 33.42L131.60 33.60Q135.72 32.27 140.55 32.47L140.50 32.42L140.42 32.33Q140.55 33.37 140.74 35.35L140.69 35.31L140.75 35.37Q141.77 35.32 142.84 35.44L142.76 35.36L142.72 35.32Q142.87 36.01 143.14 37.38L143.28 37.52L143.25 37.49Q145.06 37.62 148.06 38.53L148.23 38.70L148.24 38.71Q147.16 36.49 146.25 33.22L146.23 33.20L147.75 33.73L147.76 33.73Q148.30 33.82 148.99 34.16L149.07 34.24L149.08 34.25Q148.19 31.65 148.03 29.97L148.02 29.96L148.01 29.95Q147.61 29.97 146.47 29.74L146.31 29.58L146.41 29.68Q146.24 28.45 146.24 27.57ZM138.23 27.40L138.12 27.30L138.17 27.35Q138.86 25.98 140.42 23.43L140.51 23.52L140.51 23.52Q140.59 24.54 140.55 25.50L140.52 25.47L140.54 25.49Q140.52 26.46 140.56 27.41L140.52 27.38L140.43 27.28Q139.88 27.27 139.31 27.27L139.28 27.23L139.26 27.21Q138.84 27.40 138.23 27.40Z"/><path d="M15 29 C100 10,109 10,198 13" stroke="#777" fill="none"/><path fill="#222" d="M28.26 34.80L28.24 34.79L28.33 34.88Q26.36 34.81 24.34 35.00L24.44 35.09L24.32 34.98Q25.09 29.84 25.09 25.00L24.94 24.86L24.94 24.86Q24.99 20.00 24.35 14.79L24.47 14.91L24.42 14.86Q19.73 14.36 16.54 12.69L16.59 12.74L15.90 11.02L15.83 10.95Q15.74 10.56 15.13 9.34L15.00 9.20L15.00 9.21Q20.13 11.94 26.15 12.13L26.05 12.03L26.04 12.03Q31.98 12.26 37.43 10.20L37.50 10.27L37.42 10.19Q36.78 11.69 36.13 13.52L36.19 13.57L36.11 13.49Q32.58 14.87 28.32 15.06L28.21 14.96L28.21 14.96Q27.99 19.95 27.99 24.90L27.95 24.86L28.05 24.97Q28.01 29.87 28.31 34.86ZM38.17 9.57L38.07 9.48L38.20 9.60Q32.30 11.82 26.10 11.62L26.13 11.66L26.20 11.72Q19.38 11.38 14.27 8.41L14.40 8.53L14.27 8.40Q15.04 9.71 16.34 12.98L16.32 12.97L16.46 13.10Q16.96 13.26 18.22 13.83L18.23 13.85L18.33 13.94Q18.47 14.54 18.81 16.06L18.95 16.21L18.82 16.08Q21.09 16.90 24.14 17.13L24.24 17.23L24.32 17.31Q24.64 20.94 24.64 24.71L24.71 24.78L24.67 24.74Q24.57 30.01 23.78 35.38L23.91 35.52L23.77 35.38Q25.42 35.24 25.96 35.24L26.01 35.30L26.01 35.29Q26.11 35.70 26.05 36.36L26.00 36.31L25.95 36.26Q25.85 36.88 25.85 37.22L25.88 37.25L25.90 37.28Q27.06 37.18 28.58 37.26L28.65 37.33L28.55 37.22Q29.55 37.35 31.38 37.50L31.38 37.50L31.25 37.38Q30.12 32.55 30.00 27.37L30.05 27.42L29.94 27.31Q29.81 22.00 30.34 17.09L30.39 17.13L30.37 17.11Q34.37 16.62 37.53 15.40L37.43 15.31L37.45 15.33Q38.11 12.90 39.14 10.85L39.16 10.87L39.32 11.02Q37.95 11.68 37.15 11.98L37.19 12.02L37.04 11.87Q37.48 10.60 38.05 9.46Z"/><path fill="#333" d="M78.75 35.44L78.70 35.39L78.63 35.32Q77.27 35.45 75.71 35.03L75.59 34.90L75.76 35.07Q74.39 34.02 74.24 32.38L74.36 32.49L74.22 32.36Q74.21 32.20 74.40 29.57L74.43 29.59L74.37 29.53Q75.43 29.38 77.45 29.00L77.59 29.14L77.24 29.74L77.28 29.78Q77.01 31.53 78.42 32.10L78.43 32.11L78.45 32.13Q79.18 32.41 81.28 32.41L81.36 32.50L81.38 32.51Q83.01 32.39 83.20 32.31L83.18 32.29L83.07 32.19Q84.01 32.05 84.73 31.56L84.69 31.52L84.69 31.52Q86.25 30.72 86.06 28.62L86.00 28.57L85.92 28.49Q85.77 26.09 84.03 24.53L84.03 24.52L84.08 24.57Q82.40 23.06 79.93 23.06L79.83 22.96L79.89 22.80L79.96 22.87Q80.21 22.70 81.09 22.63L81.20 22.74L81.04 22.58Q83.08 22.61 84.46 21.37L84.48 21.39L84.47 21.38Q85.86 20.17 86.01 18.30L85.83 18.12L85.84 18.13Q86.06 17.93 86.06 17.59L85.98 17.51L85.97 17.49Q85.99 16.00 84.62 15.08L84.66 15.12L84.68 15.14Q83.49 14.37 81.89 14.48L81.78 14.37L81.73 14.32Q80.54 14.27 79.32 14.69L79.29 14.66L79.38 14.75Q77.80 15.15 77.49 16.29L77.65 16.44L77.53 16.32Q77.27 17.02 77.34 17.78L77.34 17.78L77.45 17.89Q76.31 17.54 74.25 16.82L74.40 16.96L74.38 16.94Q74.11 15.23 74.15 14.39L74.20 14.44L74.22 14.47Q74.35 12.95 75.41 12.27L75.36 12.22L75.41 12.27Q76.79 11.63 78.39 11.63L78.34 11.58L78.41 11.65Q81.60 11.64 84.76 11.91L84.73 11.88L84.57 11.72Q89.77 12.28 89.47 16.04L89.49 16.07L89.34 15.91Q89.41 17.55 88.92 19.11L88.88 19.07L88.82 19.01Q87.86 22.05 85.50 22.96L85.67 23.14L85.64 23.10Q88.16 23.53 88.77 26.88L88.83 26.95L88.81 26.92Q88.97 28.00 89.05 30.02L89.17 30.14L89.07 30.03Q89.26 34.53 84.65 34.99L84.64 34.97L84.73 35.06Q83.89 35.02 78.59 35.28ZM83.84 37.56L83.95 37.67L83.94 37.66Q84.56 37.71 87.41 37.78L87.31 37.68L87.30 37.67Q89.12 37.81 90.75 37.17L90.71 37.12L90.77 37.19Q91.98 36.26 91.79 34.51L91.77 34.49L91.69 34.41Q91.62 33.12 91.31 31.37L91.32 31.37L91.38 31.43Q90.51 26.79 88.57 25.16L88.69 25.28L88.37 24.77L88.39 24.75L88.33 24.69Q90.21 23.38 90.98 19.00L90.95 18.97L90.87 18.89Q91.02 18.54 91.13 17.59L91.06 17.53L91.04 17.51Q91.14 16.76 91.06 16.08L90.99 16.01L90.97 15.98Q90.82 14.31 89.52 13.63L89.69 13.79L89.58 13.76L89.45 13.62Q89.15 12.65 88.01 12.11L88.01 12.11L88.04 12.14Q86.54 11.48 81.40 11.17L81.40 11.18L81.34 11.11Q79.83 11.21 78.24 11.21L78.20 11.17L78.17 11.15Q76.58 11.15 75.05 11.79L75.10 11.84L75.06 11.80Q73.79 12.51 73.79 14.26L73.84 14.31L73.86 14.34Q73.87 13.92 74.14 17.27L74.16 17.30L74.13 17.27Q74.40 17.31 76.04 17.92L76.01 17.89L76.11 17.99Q75.95 18.36 75.91 18.86L75.96 18.91L75.90 18.85Q76.00 19.44 76.04 19.97L75.99 19.93L75.93 19.87Q77.88 20.41 79.90 20.52L79.83 20.46L79.87 20.49Q79.66 18.34 80.76 17.51L80.96 17.70L80.88 17.62Q81.68 16.94 83.70 16.71L83.69 16.70L83.78 16.79Q84.84 16.71 85.41 16.90L85.34 16.83L85.40 16.89Q85.38 16.95 85.42 17.06L85.43 17.07L85.59 17.42L85.63 17.92L85.55 17.83Q85.69 18.16 85.65 18.32L85.65 18.32L85.65 18.32Q85.50 19.96 83.98 21.14L83.90 21.06L84.05 21.21Q83.04 22.03 81.02 22.22L81.02 22.21L81.02 22.21Q80.23 22.31 79.36 22.31L79.43 22.37L79.46 22.41Q79.42 22.67 79.58 23.36L79.62 23.41L79.59 23.37Q81.42 23.46 82.87 24.18L82.75 24.06L82.76 24.19L81.16 24.34L81.21 24.39Q81.19 24.67 81.30 25.28L81.25 25.22L81.29 25.26Q83.50 25.26 85.21 26.59L85.22 26.61L85.17 26.56Q85.31 26.85 85.62 28.49L85.73 28.60L85.74 28.61Q85.86 31.47 82.93 31.89L82.91 31.87L82.88 31.84Q80.93 32.25 80.36 32.21L80.33 32.18L80.26 32.12Q79.80 31.99 79.26 31.92L79.28 31.94L79.36 31.56L79.47 31.10L79.40 30.61L79.59 30.45L79.57 30.43Q78.56 30.45 77.76 30.65L77.78 30.66L77.75 30.63Q77.73 30.42 77.73 30.23L77.78 30.29L77.70 30.20Q77.64 29.92 77.64 29.69L77.67 29.71L77.83 29.87Q77.83 29.42 77.98 28.70L77.96 28.68L77.95 28.66Q76.13 28.94 74.26 29.28L74.28 29.30L74.24 29.26Q74.14 29.65 74.03 30.78L74.00 30.74L74.02 30.76Q74.02 32.01 74.02 32.62L74.03 32.62L74.01 32.60Q74.09 34.66 75.46 35.42L75.47 35.43L75.44 35.40Q76.92 37.68 81.64 37.49L81.60 37.45L81.63 37.48Q82.34 37.43 83.87 37.59Z"/><path fill="#222" d="M111.83 35.10L111.86 35.13L109.72 35.27L109.77 35.32Q109.25 35.25 108.28 35.31L108.38 35.41L108.37 35.40Q107.35 35.41 106.85 35.41L106.87 35.42L106.90 35.46Q105.31 35.51 104.29 34.67L104.28 34.67L104.13 34.52Q105.07 33.55 106.70 31.42L106.71 31.42L106.60 31.31Q107.97 32.99 110.18 32.76L110.18 32.76L110.09 32.67Q110.91 32.46 111.56 31.82L111.56 31.82L111.62 31.88Q112.33 31.29 112.21 30.41L112.14 30.35L112.28 30.48Q112.08 25.79 112.15 21.22L112.13 21.19L112.09 21.15Q112.20 16.62 112.74 12.02L112.74 12.02L112.63 11.91Q114.70 11.85 116.83 10.82L116.82 10.81L116.82 10.81Q114.92 17.51 114.92 24.74L114.87 24.69L115.03 24.86Q115.02 28.39 115.48 31.89L115.31 31.72L115.39 31.81Q115.41 32.09 115.41 32.44L115.43 32.45L115.40 32.42Q115.40 33.00 115.17 33.53L115.26 33.61L115.22 33.57Q114.70 34.89 111.89 35.15ZM116.75 37.92L116.87 38.04L117.22 38.05L117.36 37.77L117.63 37.66L117.59 37.62Q117.99 37.45 118.07 37.34L118.09 37.36L118.11 37.38Q118.29 36.18 118.02 35.19L117.89 35.07L117.94 35.12Q116.67 29.39 116.94 23.03L116.86 22.96L116.90 23.00Q117.19 16.93 118.98 11.03L118.90 10.95L119.02 11.07Q118.13 11.70 116.87 12.42L116.84 12.39L116.77 12.32Q116.93 11.53 117.35 10.01L117.44 10.09L117.50 10.16Q114.93 11.43 112.27 11.74L112.15 11.62L112.26 11.73Q111.97 16.20 111.89 21.15L111.75 21.01L111.75 21.01Q111.67 26.91 111.75 30.33L111.84 30.42L111.74 30.32Q111.77 32.06 110.02 32.22L110.14 32.34L110.09 32.29Q108.44 32.46 106.76 30.83L106.69 30.76L106.69 30.75Q104.74 33.37 103.79 34.93L103.67 34.81L103.63 34.78Q104.31 35.45 105.33 35.68L105.38 35.72L105.33 35.67Q105.31 35.88 105.04 36.11L105.00 36.06L105.00 36.07Q106.46 37.03 108.44 37.30L108.36 37.22L108.42 37.28Q108.82 37.34 112.11 37.64L112.08 37.61L112.22 37.75Q115.50 38.04 116.87 38.04Z"/><path fill="#333" d="M166.52 35.21L166.47 35.16L166.55 35.25Q163.16 35.43 161.52 34.89L161.36 34.73L161.45 34.83Q159.51 34.22 159.21 30.83L159.09 30.71L160.68 29.79L160.62 29.73Q161.36 29.22 162.13 28.72L162.11 28.70L162.12 28.72Q161.81 30.58 163.41 31.80L163.50 31.89L163.35 31.74Q164.65 32.77 166.78 32.58L166.85 32.65L166.81 32.61Q171.22 32.23 171.03 28.69L171.01 28.66L170.97 28.63Q170.81 26.37 168.18 25.15L168.17 25.13L168.21 25.18Q165.39 24.14 163.03 22.92L163.12 23.01L162.96 22.86Q160.53 21.65 159.54 16.97L159.53 16.95L159.53 16.96Q159.44 16.52 159.32 15.76L159.18 15.61L159.26 15.70Q159.21 14.96 159.28 14.38L159.33 14.43L159.33 14.43Q159.37 12.72 160.62 12.26L160.71 12.35L160.64 12.27Q163.01 11.38 167.01 11.57L167.07 11.62L167.15 11.71Q168.94 11.78 169.74 11.86L169.77 11.89L169.64 11.76Q171.20 12.02 172.27 12.48L172.17 12.38L172.19 12.40Q174.38 12.96 174.61 15.44L174.62 15.45L174.59 15.42Q173.48 16.05 171.27 17.39L171.43 17.54L171.35 17.46Q170.91 14.44 166.54 14.44L166.51 14.42L166.50 14.41Q164.59 14.40 163.60 15.08L163.57 15.06L163.71 15.20Q162.51 15.67 162.74 17.46L162.63 17.35L162.72 17.45Q163.03 19.69 166.00 21.21L165.99 21.21L165.89 21.11Q166.38 21.29 170.87 22.93L170.90 22.96L171.04 23.10Q173.58 24.50 174.00 28.87L173.99 28.86L174.02 28.90Q174.03 29.05 174.10 30.31L173.98 30.18L174.06 30.27Q174.17 33.08 172.61 34.19L172.62 34.19L172.49 34.06Q170.74 35.13 166.55 35.25ZM168.81 37.57L168.90 37.67L168.84 37.61Q170.27 37.66 172.24 37.66L172.33 37.75L172.29 37.70Q174.47 37.79 175.72 37.37L175.68 37.33L175.59 37.24Q176.78 36.37 176.71 34.59L176.80 34.68L176.75 34.63Q176.67 33.60 176.29 31.55L176.45 31.71L176.43 31.68Q175.45 26.94 173.36 25.07L173.43 25.14L173.39 25.10Q172.56 23.47 171.23 22.75L171.33 22.85L165.94 20.70L165.95 20.71Q165.58 20.49 165.12 20.26L165.16 20.30L165.15 20.02L164.94 19.47L165.04 19.57Q164.94 18.21 166.08 17.60L166.05 17.58L166.08 17.60Q166.81 17.00 168.52 16.81L168.39 16.68L168.49 16.77Q169.55 16.58 170.69 17.04L170.74 17.08L170.77 17.11Q170.93 17.31 171.12 18.15L170.98 18.01L170.98 18.01Q171.25 17.94 171.75 17.71L171.78 17.74L171.75 17.72Q172.46 18.62 172.57 19.76L172.64 19.83L172.52 19.70Q172.71 19.78 176.36 17.19L176.26 17.08L176.34 17.16Q176.06 14.53 174.61 13.84L174.53 13.76L174.55 13.78Q174.08 12.62 172.64 12.09L172.53 11.99L172.54 12.00Q170.25 11.19 167.05 11.19L167.02 11.16L167.10 11.24Q162.25 11.29 160.38 11.98L160.28 11.88L160.20 11.80Q158.93 12.31 158.81 13.99L158.83 14.01L158.92 14.09Q158.82 14.57 159.24 16.78L159.18 16.72L159.15 16.69Q159.85 20.47 162.02 22.72L162.16 22.86L162.10 22.80Q162.92 24.53 164.42 25.22L164.46 25.25L164.41 25.21Q165.88 25.85 169.80 27.41L169.78 27.40L169.73 27.39L170.49 27.84L170.56 27.94L170.54 27.93Q170.55 28.20 170.59 28.54L170.62 28.57L170.68 28.64Q170.82 32.17 166.90 32.32L166.89 32.31L166.90 32.32Q165.65 32.25 164.35 31.87L164.33 31.84L164.39 31.90Q164.10 31.12 164.10 30.40L164.10 30.40L164.02 30.32Q164.09 30.12 164.13 29.85L164.15 29.88L164.05 29.78Q163.59 29.96 162.79 30.46L162.82 30.48L162.82 30.49Q162.46 29.52 162.61 28.15L162.63 28.16L162.59 28.13Q160.35 29.15 158.75 30.56L158.82 30.64L158.85 30.67Q158.93 31.51 159.01 32.54L158.96 32.49L158.98 32.51Q159.39 34.33 160.69 35.09L160.52 34.92L160.53 34.93Q161.88 36.90 164.44 37.28L164.43 37.27L164.38 37.22Q165.86 37.37 168.79 37.56Z"/></svg>