<svg xmlns="http://www.w3.org/2000/svg" width="200" height="40" viewBox="0,0,200,40"><path fill="#111" d="M168.43 35.12L168.45 35.14L166.23 35.21L166.33 35.31Q165.95 35.38 164.98 35.44L164.89 35.35L164.87 35.33Q163.83 35.32 163.34 35.32L163.49 35.48L163.46 35.45Q161.73 35.35 160.70 34.51L160.69 34.51L160.87 34.68Q161.63 33.54 163.27 31.41L163.29 31.43L163.20 31.34Q164.39 32.83 166.59 32.60L166.64 32.65L166.66 32.67Q167.53 32.51 168.17 31.86L168.18 31.87L168.14 31.83Q168.93 31.32 168.82 30.45L168.74 30.37L168.81 30.44Q168.65 25.79 168.73 21.22L168.75 21.25L168.69 21.19Q168.67 16.52 169.20 11.91L169.38 12.09L169.33 12.04Q171.26 11.84 173.39 10.81L173.38 10.80L173.43 10.85Q171.55 17.58 171.55 24.81L171.59 24.85L171.55 24.80Q171.41 28.20 171.86 31.70L171.95 31.79L171.95 31.79Q172.10 32.21 172.10 32.55L172.09 32.54L172.02 32.47Q172.05 33.07 171.82 33.60L171.89 33.67L171.79 33.57Q171.29 34.90 168.47 35.16ZM173.32 37.92L173.38 37.98L173.78 38.03L173.90 37.74L174.24 37.69L174.33 37.79Q174.55 37.43 174.62 37.32L174.71 37.41L174.62 37.32Q174.85 36.17 174.58 35.18L174.63 35.23L174.53 35.13Q173.31 29.46 173.57 23.10L173.49 23.01L173.46 22.99Q173.65 16.82 175.44 10.92L175.43 10.90L175.45 10.93Q174.59 11.59 173.33 12.31L173.29 12.27L173.34 12.32Q173.63 11.66 174.05 10.14L174.07 10.16L173.99 10.08Q171.37 11.30 168.71 11.61L168.85 11.75L168.81 11.71Q168.49 16.15 168.41 21.10L168.39 21.07L168.39 21.08Q168.29 26.95 168.37 30.38L168.34 30.35L168.44 30.45Q168.43 32.16 166.68 32.31L166.62 32.25L166.65 32.27Q165.01 32.47 163.34 30.83L163.30 30.79L163.38 30.87Q161.18 33.24 160.23 34.80L160.24 34.81L160.34 34.92Q160.85 35.43 161.88 35.66L162.00 35.77L161.98 35.75Q161.78 35.78 161.51 36.01L161.56 36.06L161.63 36.12Q163.08 37.08 165.06 37.35L164.93 37.22L165.03 37.32Q165.43 37.38 168.73 37.68L168.65 37.60L168.75 37.70Q171.92 37.89 173.29 37.89Z"/><path fill="#222" d="M84.95 34.92L84.84 34.81L84.78 34.75Q82.93 34.80 80.91 34.99L81.00 35.08L80.94 35.02Q81.57 29.75 81.57 24.91L81.47 24.81L81.51 24.86Q81.50 19.94 80.86 14.72L80.88 14.75L80.96 14.82Q76.40 14.45 73.20 12.78L73.25 12.83L72.34 10.89L72.47 11.02Q72.16 10.40 71.55 9.19L71.69 9.33L71.67 9.31Q76.64 11.88 82.65 12.07L82.66 12.07L82.80 12.21Q88.55 12.25 93.99 10.20L93.98 10.18L94.03 10.23Q93.32 11.66 92.67 13.48L92.77 13.58L92.77 13.58Q88.99 14.71 84.72 14.90L84.90 15.07L84.80 14.98Q84.64 20.03 84.64 24.98L84.58 24.92L84.64 24.98Q84.63 29.92 84.94 34.91ZM94.67 9.50L94.62 9.45L94.61 9.44Q88.90 11.84 82.69 11.65L82.72 11.68L82.59 11.55Q75.96 11.39 70.86 8.42L70.81 8.37L70.81 8.37Q71.73 9.82 73.03 13.10L73.00 13.08L72.99 13.06Q73.60 13.33 74.86 13.90L74.93 13.97L74.79 13.83Q75.11 14.61 75.45 16.13L75.45 16.13L75.51 16.19Q77.85 17.09 80.90 17.32L80.81 17.23L80.83 17.25Q81.08 20.81 81.08 24.58L81.09 24.59L81.26 24.75Q81.26 30.13 80.47 35.50L80.31 35.35L80.31 35.34Q82.06 35.30 82.59 35.30L82.64 35.35L82.61 35.32Q82.54 35.56 82.48 36.22L82.60 36.34L82.46 36.20Q82.43 36.89 82.43 37.24L82.55 37.36L82.50 37.31Q83.69 37.24 85.22 37.32L85.21 37.31L85.09 37.20Q86.13 37.35 87.95 37.50L87.85 37.40L87.86 37.41Q86.71 32.57 86.60 27.39L86.54 27.34L86.65 27.45Q86.48 22.10 87.02 17.19L86.88 17.05L86.99 17.17Q90.85 16.53 94.01 15.31L94.13 15.44L94.14 15.44Q94.82 13.04 95.84 10.98L95.78 10.92L95.82 10.96Q94.49 11.64 93.69 11.95L93.71 11.97L93.63 11.88Q94.11 10.66 94.68 9.52Z"/><path d="M18 6 C111 28,91 36,195 15" stroke="#777" fill="none"/><path fill="#111" d="M53.73 24.26L53.59 24.12L53.72 24.25Q51.84 24.24 50.62 25.57L50.49 25.43L50.53 25.48Q49.40 26.90 49.25 28.80L49.27 28.82L49.18 28.73Q48.99 30.86 50.20 31.87L50.32 31.98L50.15 31.82Q51.41 32.87 53.54 32.79L53.50 32.74L53.65 32.89Q55.95 32.73 56.91 31.77L56.90 31.77L56.90 31.77Q57.96 30.36 57.85 28.53L57.85 28.53L57.78 28.46Q57.74 26.67 56.65 25.47L56.51 25.33L56.48 25.29Q55.49 24.19 53.66 24.19ZM53.57 14.69L53.57 14.70L53.64 14.77Q52.30 14.72 50.96 15.21L50.91 15.16L50.97 15.21Q49.59 15.93 49.82 17.80L49.91 17.89L49.75 17.72Q50.26 21.47 53.61 21.47L53.61 21.47L53.70 21.57Q55.24 21.73 56.23 20.59L56.22 20.58L56.31 20.67Q57.28 19.51 57.32 17.95L57.21 17.84L57.21 17.84Q57.28 16.09 56.56 15.48L56.59 15.51L56.55 15.47Q54.89 14.64 53.59 14.72ZM53.35 35.30L53.30 35.25L50.34 35.33L50.28 35.27Q48.80 35.32 47.47 34.44L47.38 34.36L47.45 34.43Q46.17 33.38 46.32 30.52L46.26 30.45L46.18 30.37Q46.78 23.67 50.40 22.68L50.35 22.63L50.34 22.62Q47.93 21.58 46.59 16.21L46.78 16.39L46.64 16.26Q46.37 14.91 46.44 14.12L46.34 14.02L46.40 14.08Q46.65 11.89 50.34 11.85L50.46 11.97L50.35 11.85Q54.61 11.82 56.06 12.01L56.18 12.12L56.10 12.05Q60.04 12.67 60.49 14.69L60.47 14.67L60.41 14.60Q60.54 15.23 60.54 15.61L60.57 15.64L60.53 15.60Q60.43 16.19 60.24 16.80L60.37 16.93L60.33 16.88Q59.65 21.04 56.72 22.57L56.78 22.63L56.80 22.64Q60.23 23.37 60.72 28.66L60.83 28.77L60.68 28.62Q60.75 28.84 60.79 30.14L60.74 30.09L60.74 30.09Q60.90 32.91 59.30 33.98L59.39 34.07L59.22 33.89Q57.85 34.78 53.28 35.23ZM55.55 37.54L55.70 37.69L59.03 37.74L58.98 37.69Q60.72 37.80 62.25 37.08L62.24 37.07L62.26 37.09Q63.39 36.35 63.47 34.49L63.35 34.38L63.35 34.37Q63.41 33.29 63.03 31.35L63.20 31.52L63.11 31.43Q62.25 26.84 60.16 24.97L60.15 24.97L59.82 24.45L59.74 24.29L59.48 23.92L59.60 24.04Q61.14 22.57 62.05 18.42L62.21 18.58L62.14 18.50Q62.11 18.10 62.19 17.26L62.25 17.33L62.17 17.24Q62.24 16.55 62.16 15.94L62.09 15.87L62.09 15.87Q62.09 14.57 60.91 14.07L60.86 14.03L60.83 13.96L60.79 14.00L60.61 13.82Q60.45 13.20 59.27 12.40L59.21 12.34L59.30 12.39L59.38 12.47Q57.39 11.78 53.32 11.59L53.21 11.48L53.19 11.46Q51.76 11.47 50.39 11.59L50.25 11.45L50.31 11.51Q49.57 11.61 48.27 11.76L48.13 11.62L48.18 11.67Q46.36 12.17 46.13 13.80L46.12 13.79L45.99 13.66Q45.91 14.12 45.95 14.92L46.01 14.98L46.01 14.97Q46.09 15.48 46.66 17.84L46.68 17.85L46.80 17.98Q47.51 21.12 49.26 22.45L49.29 22.48L49.43 22.63L49.27 22.46Q46.62 23.89 46.09 29.07L46.14 29.12L46.01 28.99Q45.79 31.16 45.79 32.08L45.78 32.07L45.90 32.19Q45.92 33.93 47.10 34.84L47.08 34.81L47.14 34.87Q47.29 34.99 47.56 35.18L47.43 35.05L47.44 35.06Q48.44 37.32 55.56 37.55ZM55.20 26.45L55.27 26.52L55.39 26.64Q56.11 26.37 56.99 26.83L57.07 26.91L57.17 27.02Q57.51 27.96 57.47 28.50L57.34 28.36L57.51 28.53Q57.38 28.67 57.38 28.97L57.56 29.16L57.46 29.05Q57.39 31.34 55.10 32.18L55.17 32.25L55.15 32.23Q54.36 32.55 53.57 32.43L53.55 32.41L53.49 32.35Q52.40 32.49 51.26 32.03L51.35 32.11L51.38 32.15Q51.08 31.47 51.15 30.48L51.06 30.38L51.24 30.56Q51.20 28.77 52.40 27.55L52.55 27.71L52.42 27.58Q53.67 26.40 55.27 26.52ZM55.51 17.05L55.44 16.98L55.52 17.06Q56.22 16.86 56.76 17.01L56.94 17.19L56.82 17.87L56.93 17.98Q56.80 19.26 55.89 20.27L56.01 20.39L55.94 20.32Q55.12 21.42 53.75 21.23L53.75 21.24L53.65 21.13Q52.58 21.05 52.16 20.82L52.26 20.93L52.16 20.82Q52.14 20.58 52.03 19.89L52.04 19.90L52.10 19.96Q51.82 18.54 53.03 17.70L53.11 17.77L53.04 17.71Q54.07 16.98 55.48 17.02Z"/><path fill="#111" d="M110.30 14.65L110.19 14.54L108.73 14.75L108.78 14.80Q106.51 14.89 106.28 16.91L106.27 16.90L106.33 16.96Q106.14 17.57 106.18 18.56L106.21 18.59L106.26 18.64Q106.28 20.57 107.54 21.90L107.51 21.87L107.60 21.96Q108.73 23.17 110.64 23.02L110.58 22.95L110.63 23.01Q112.78 22.95 113.55 22.04L113.41 21.91L113.49 21.99Q114.51 21.02 114.78 18.78L114.76 18.76L114.74 18.74Q115.02 16.51 113.76 15.67L113.90 15.81L113.75 15.66Q112.99 14.98 110.33 14.67ZM116.31 23.85L116.26 23.81L115.14 26.26L115.13 26.25Q112.40 31.02 108.64 35.10L108.58 35.04L108.49 34.95Q106.90 35.15 104.19 35.95L104.29 36.04L104.21 35.97Q109.50 29.65 112.66 24.85L112.77 24.96L112.68 24.87Q111.70 25.57 110.07 25.64L110.06 25.63L110.12 25.70Q107.10 25.84 105.58 23.86L105.61 23.88L105.58 23.86Q104.27 22.16 103.16 17.59L103.24 17.67L103.14 17.57Q103.25 17.23 103.10 16.29L103.09 16.28L103.00 16.20Q102.82 15.24 102.82 14.78L102.93 14.89L102.84 14.80Q102.87 13.04 103.94 12.43L103.91 12.40L103.97 12.46Q105.16 11.67 107.02 11.67L106.97 11.61L106.99 11.64Q110.33 11.78 110.33 11.78L110.18 11.64L110.21 11.66Q112.39 11.71 113.65 11.90L113.74 11.99L113.60 11.85Q115.82 12.21 116.74 12.70L116.73 12.70L116.79 12.76Q118.19 13.55 118.38 15.30L118.24 15.16L118.26 15.18Q118.34 15.49 118.15 18.16L118.18 18.18L118.00 18.00Q117.73 20.25 117.50 21.09L117.45 21.03L117.57 21.16Q117.20 22.57 116.44 23.98ZM118.23 26.26L118.33 26.36L118.25 26.29Q119.20 24.04 119.73 19.73L119.70 19.71L119.72 19.73Q120.02 17.55 119.98 16.67L119.98 16.67L119.96 16.65Q119.93 14.80 118.75 13.88L118.78 13.91L118.48 13.80L118.51 13.83Q118.18 13.01 117.27 12.36L117.34 12.43L117.33 12.43Q114.96 11.35 110.17 11.20L110.21 11.25L110.22 11.25Q109.19 11.17 106.75 11.17L106.82 11.24L106.76 11.18Q105.16 11.33 103.67 12.01L103.53 11.87L103.65 12.00Q102.35 12.63 102.43 14.46L102.44 14.48L102.43 14.47Q102.79 15.55 102.98 17.56L102.90 17.49L102.81 17.39Q103.61 20.21 103.87 21.05L103.79 20.97L103.75 20.92Q104.37 22.84 105.32 24.13L105.27 24.08L105.34 24.15Q105.48 24.37 105.86 24.75L105.89 24.78L105.96 24.85Q106.19 25.27 106.84 26.18L106.83 26.17L106.88 26.22Q108.41 27.64 110.35 27.83L110.32 27.80L110.23 27.71Q108.35 30.40 106.79 32.30L106.91 32.42L103.18 36.69L103.27 36.78Q105.38 35.88 107.02 35.53L107.13 35.65L107.03 35.55Q106.33 36.49 104.77 38.20L104.79 38.22L104.76 38.19Q107.80 37.23 110.92 37.19L110.88 37.15L111.05 37.33Q113.33 34.69 117.67 27.46L117.54 27.33L117.59 27.46L117.66 27.52Q117.87 26.74 118.21 26.25ZM112.22 17.02L112.17 16.97L112.29 17.09Q112.78 16.86 113.24 16.97L113.29 17.02L113.32 17.06Q113.85 17.06 114.23 17.17L114.26 17.20L114.38 17.32Q114.43 17.63 114.51 18.05L114.49 18.04L114.46 18.01Q114.51 18.40 114.40 18.78L114.55 18.93L114.43 18.81Q114.50 20.63 113.32 21.74L113.28 21.70L113.22 21.64Q112.29 22.69 110.65 22.65L110.65 22.64L110.67 22.67Q110.25 22.67 108.73 22.36L108.74 22.37L108.77 22.40Q108.42 21.41 108.42 20.68L108.43 20.69L108.54 20.80Q108.45 20.52 108.45 20.30L108.50 20.34L108.36 20.20Q108.44 18.07 110.72 17.28L110.66 17.21L110.65 17.20Q111.45 17.09 112.29 17.09Z"/><path d="M20 33 C83 37,91 1,183 3" stroke="#777" fill="none"/><path fill="#111" d="M25.41 35.09L25.51 35.19L23.07 28.30L23.03 28.26Q18.76 15.77 12.82 9.37L12.69 9.24L12.85 9.39Q14.79 10.39 17.38 11.00L17.42 11.04L17.39 11.01Q22.57 17.33 26.91 30.08L26.81 29.98L26.82 29.99Q29.92 21.94 30.61 20.34L30.70 20.44L30.51 20.24Q32.93 14.67 35.75 11.36L35.89 11.50L35.79 11.40Q37.82 11.00 40.45 10.12L40.46 10.13L40.45 10.13Q35.95 14.79 32.90 22.03L32.83 21.96L32.86 21.98Q31.57 25.76 27.88 35.28L27.84 35.24L27.75 35.15Q27.23 35.20 26.66 35.16L26.69 35.19L26.60 35.10Q26.00 35.07 25.42 35.11ZM30.53 37.62L30.44 37.54L30.59 37.69Q33.31 27.61 34.87 23.57L34.86 23.56L34.80 23.50Q37.93 15.94 42.35 11.07L42.24 10.96L42.37 11.09Q41.17 11.30 39.08 12.03L39.12 12.07L40.26 10.74L40.34 10.81Q40.95 10.17 41.56 9.52L41.50 9.46L41.56 9.52Q38.64 10.41 35.64 10.98L35.59 10.94L35.74 11.09Q31.29 16.34 27.40 27.80L27.46 27.85L27.50 27.89Q23.81 17.73 20.61 13.35L20.60 13.34L20.60 13.34Q20.13 13.18 19.26 13.03L19.39 13.16L19.26 13.03Q19.08 12.70 17.48 10.64L17.49 10.66L17.45 10.61Q14.51 9.92 11.81 8.51L11.79 8.49L11.77 8.47Q18.40 15.56 22.78 28.35L22.88 28.45L22.73 28.30Q23.96 31.97 25.14 35.55L25.22 35.62L25.27 35.68Q25.49 35.59 26.33 35.48L26.41 35.56L26.44 35.59Q26.78 36.27 27.46 37.60L27.52 37.66L27.45 37.59Q28.32 37.55 29.05 37.63L28.92 37.49L29.05 37.63Q29.86 37.72 30.62 37.72Z"/><path fill="#111" d="M137.55 35.02L137.50 34.97L137.38 34.85Q133.31 34.40 131.48 32.95L131.37 32.84L131.38 32.85Q129.52 31.38 129.11 28.37L129.10 28.36L129.15 28.41Q129.23 28.15 128.89 23.39L128.90 23.40L128.77 23.27Q128.84 22.12 128.76 20.87L128.85 20.95L128.86 20.96Q128.53 15.76 130.73 14.01L130.84 14.11L130.76 14.04Q133.52 12.03 141.29 11.35L141.28 11.34L141.16 11.22Q142.56 11.14 144.20 11.17L144.15 11.13L144.29 11.27Q144.13 11.11 147.10 11.11L147.28 11.29L147.27 11.28Q147.93 11.11 149.65 11.26L149.69 11.30L149.76 11.37Q149.29 12.35 148.27 15.44L148.19 15.36L148.14 15.31Q146.06 14.10 143.05 14.10L143.08 14.13L143.03 14.09Q142.39 14.20 141.59 14.28L141.62 14.31L141.64 14.33Q136.47 14.72 133.96 16.70L133.96 16.70L133.96 16.70Q131.84 18.20 131.69 21.55L131.82 21.68L131.83 21.69Q131.81 22.32 131.85 23.57L131.69 23.42L131.75 23.47Q131.80 28.24 134.19 30.33L134.32 30.46L134.35 30.49Q136.38 32.29 141.36 32.59L141.52 32.75L141.37 32.60Q144.60 32.86 147.61 31.07L147.60 31.06L147.54 31.00Q148.21 33.81 148.82 35.18L148.72 35.08L148.86 35.22Q146.68 35.40 145.05 35.36L145.09 35.41L144.98 35.30Q140.54 35.27 137.42 34.89ZM152.66 38.75L152.47 38.56L152.54 38.63Q150.85 35.73 150.17 33.14L150.09 33.06L150.15 33.12Q149.59 33.25 148.60 33.63L148.62 33.64L148.77 33.80Q148.25 32.81 148.06 31.98L148.05 31.97L147.77 30.36L147.80 30.39Q144.40 32.32 141.28 32.20L141.44 32.36L141.46 32.39Q137.14 32.13 134.81 30.38L134.79 30.36L134.78 30.35Q133.69 28.57 133.77 25.64L133.65 25.53L133.63 25.50Q133.97 21.20 136.44 19.07L136.25 18.88L136.28 18.90Q138.51 17.10 143.19 16.49L143.06 16.36L143.10 16.40Q144.00 16.38 144.72 16.38L144.73 16.39L144.77 16.43Q147.56 16.44 149.65 17.96L149.51 17.82L149.63 17.94Q150.04 15.73 151.26 12.49L151.37 12.60L151.19 12.42Q151.04 12.54 150.49 12.48L150.53 12.52L150.51 12.50Q149.91 12.40 149.65 12.40L149.66 12.41L149.56 12.32Q149.73 11.76 150.18 10.77L150.21 10.79L150.22 10.80Q150.02 10.83 147.53 10.76L147.65 10.88L147.55 10.78Q145.14 10.79 144.50 10.83L144.44 10.77L144.41 10.74Q134.00 11.18 130.53 13.77L130.53 13.77L130.45 13.69Q128.35 15.43 128.35 19.35L128.46 19.46L128.52 19.52Q128.44 20.55 128.56 23.25L128.46 23.16L128.62 23.31Q128.62 26.74 128.84 28.45L128.89 28.49L128.92 28.52Q129.17 31.52 130.77 33.04L130.86 33.13L130.78 33.05Q131.31 33.77 132.57 34.92L132.69 35.04L132.59 34.93Q135.99 36.85 141.24 37.61L141.15 37.51L141.23 37.59Q147.60 38.49 152.59 38.68Z"/></svg>