<svg xmlns="http://www.w3.org/2000/svg" width="200" height="40" viewBox="0,0,200,40"><path d="M19 36 C81 24,120 1,187 14" stroke="#999" fill="none"/><path fill="#111" d="M61.49 32.82L61.62 32.95L61.66 32.99Q61.90 33.91 62.43 35.93L62.51 36.01L62.38 35.88Q58.17 34.56 53.56 34.83L53.62 34.88L53.63 34.90Q49.08 35.18 45.08 37.16L45.01 37.08L44.95 37.02Q45.15 36.32 45.19 36.39L45.32 36.52L45.25 36.45Q48.93 32.44 52.86 28.03L53.02 28.19L52.94 28.11Q57.43 23.20 58.61 18.52L58.47 18.38L58.49 18.39Q59.03 16.73 57.76 15.55L57.65 15.45L57.75 15.55Q56.47 14.36 54.68 14.51L54.72 14.55L54.62 14.45Q54.30 14.44 53.96 14.44L53.98 14.46L53.99 14.47Q52.37 14.37 51.11 15.29L51.18 15.36L51.10 15.28Q49.84 16.67 50.07 19.34L50.06 19.34L50.07 19.34Q48.27 18.98 47.05 18.53L47.08 18.56L47.10 18.58Q46.97 17.23 46.90 15.79L46.86 15.75L46.93 15.82Q46.71 14.05 47.32 12.90L47.32 12.90L47.44 13.02Q49.12 11.54 52.47 11.54L52.52 11.58L54.19 11.51L54.34 11.66Q56.54 11.62 57.50 11.73L57.55 11.79L57.42 11.66Q61.75 12.06 62.02 14.50L62.03 14.51L62.08 14.57Q62.14 15.12 62.07 15.92L62.19 16.04L62.21 16.06Q62.11 16.65 61.96 17.33L61.97 17.34L61.89 17.26Q60.21 25.33 52.63 32.19L52.69 32.24L52.74 32.29Q54.18 32.17 55.55 32.17L55.53 32.14L55.49 32.11Q58.68 32.06 61.53 32.86ZM60.99 12.06L60.94 12.02L60.94 12.01Q59.45 11.48 57.74 11.40L57.77 11.44L54.30 11.20L54.33 11.23Q49.75 10.84 47.54 11.94L47.66 12.06L47.65 12.05Q46.57 13.41 46.57 15.46L46.61 15.50L46.62 15.51Q46.55 16.13 46.86 18.94L46.88 18.97L46.98 19.07Q47.42 19.21 48.60 19.51L48.58 19.49L48.67 20.60L48.56 20.50Q48.53 20.96 48.61 21.50L48.57 21.46L48.66 21.55Q49.91 21.65 52.38 21.88L52.28 21.78L52.42 21.92Q52.36 21.52 52.36 21.17L52.39 21.20L52.42 21.24Q52.31 19.30 53.53 17.95L53.45 17.87L53.58 18.00Q54.83 16.68 56.62 16.79L56.58 16.75L56.58 16.75Q57.37 16.82 58.13 16.97L58.12 16.97L58.06 16.90Q58.23 17.33 58.30 17.75L58.30 17.75L58.25 17.70Q58.37 18.20 58.29 18.54L58.20 18.45L58.24 18.49Q56.96 23.22 52.54 28.06L52.53 28.05L52.62 28.14Q50.50 30.39 45.06 36.45L45.07 36.46L44.88 36.28Q44.89 37.30 44.54 37.88L44.41 37.74L44.45 37.78Q46.07 36.93 47.59 36.39L47.48 36.29L47.59 36.39Q46.79 36.88 45.83 38.37L45.92 38.45L45.82 38.36Q45.81 38.80 45.69 39.14L45.71 39.16L45.58 39.03Q50.47 36.99 55.95 37.18L56.04 37.27L55.96 37.19Q61.65 37.35 66.22 39.71L66.22 39.72L65.25 37.60L65.31 37.66Q64.53 36.20 64.27 35.40L64.37 35.51L64.31 35.45Q63.68 35.13 62.47 34.71L62.49 34.74L62.32 34.56Q62.24 33.91 61.86 32.54L61.84 32.52L61.80 32.48Q59.71 32.02 57.42 31.83L57.31 31.73L57.39 31.81Q62.00 27.16 63.52 18.90L63.68 19.06L63.81 16.11L63.80 16.09Q63.61 14.19 62.39 13.51L62.53 13.64L62.45 13.60L62.52 13.67Q62.36 13.47 62.28 13.47L62.32 13.51L62.34 13.52Q62.04 12.62 60.93 12.01Z"/><path fill="#222" d="M113.18 34.86L113.18 34.87L113.06 34.75Q111.26 34.85 109.24 35.04L109.26 35.05L109.19 34.98Q109.89 29.79 109.89 24.95L109.77 24.83L109.83 24.89Q109.96 20.11 109.32 14.90L109.26 14.84L109.25 14.83Q104.71 14.48 101.51 12.80L101.37 12.66L100.79 11.05L100.76 11.02Q100.46 10.42 99.85 9.20L99.83 9.19L99.98 9.33Q105.01 11.96 111.02 12.15L110.93 12.05L111.00 12.13Q116.93 12.35 122.37 10.29L122.27 10.19L122.20 10.12Q121.68 11.73 121.03 13.56L120.96 13.48L120.87 13.39Q117.27 14.71 113.01 14.90L113.06 14.95L113.10 14.99Q112.87 19.98 112.87 24.93L112.95 25.00L112.87 24.93Q112.92 29.93 113.23 34.91ZM123.07 9.62L123.04 9.59L122.90 9.45Q117.06 11.72 110.85 11.52L111.01 11.68L110.91 11.58Q104.25 11.39 99.15 8.42L99.13 8.40L99.26 8.53Q99.93 9.74 101.23 13.01L101.31 13.10L101.34 13.13Q101.84 13.28 103.09 13.85L103.22 13.97L103.13 13.89Q103.45 14.67 103.79 16.19L103.78 16.18L103.76 16.15Q106.03 16.98 109.08 17.21L109.12 17.25L109.01 17.14Q109.53 20.97 109.53 24.74L109.56 24.77L109.48 24.69Q109.46 30.04 108.66 35.41L108.60 35.35L108.74 35.49Q110.33 35.29 110.86 35.29L110.84 35.26L110.85 35.28Q110.86 35.59 110.80 36.26L110.72 36.18L110.80 36.26Q110.76 36.94 110.76 37.28L110.73 37.25L110.82 37.34Q111.90 37.17 113.43 37.24L113.40 37.22L113.45 37.27Q114.29 37.23 116.11 37.38L116.17 37.44L116.26 37.53Q115.04 32.61 114.92 27.44L114.93 27.44L114.88 27.39Q114.68 22.02 115.22 17.10L115.28 17.17L115.25 17.14Q119.15 16.55 122.31 15.33L122.43 15.45L122.37 15.39Q123.05 12.99 124.08 10.93L124.11 10.96L124.16 11.01Q122.82 11.68 122.02 11.99L121.88 11.85L122.00 11.97Q122.41 10.67 122.98 9.53Z"/><path fill="#444" d="M175.69 18.31L175.73 18.35L175.69 18.31Q173.95 14.20 167.74 14.40L167.78 14.43L167.71 14.36Q163.43 14.61 161.45 16.06L161.44 16.04L161.30 15.91Q159.04 17.80 159.04 21.91L158.92 21.78L158.92 23.65L158.96 23.69Q159.05 32.62 168.08 32.62L167.90 32.44L167.92 32.47Q170.13 32.62 171.62 31.82L171.44 31.65L171.54 31.74Q173.42 30.76 173.26 28.90L173.19 28.83L173.23 28.87Q173.07 26.81 169.38 25.89L169.23 25.74L167.41 25.86L167.30 25.75Q166.45 25.85 165.49 25.89L165.44 25.84L165.42 25.81Q165.40 24.84 165.37 22.94L165.43 23.00L165.50 23.08Q173.08 23.00 177.27 22.66L177.24 22.63L177.28 22.68Q177.22 23.49 177.22 24.28L177.31 24.37L177.23 24.30Q177.18 25.05 177.22 25.85L177.32 25.95L177.29 25.92Q176.19 25.92 176.19 25.92L176.25 25.98L176.14 25.87Q174.80 25.91 175.18 25.91L175.09 25.81L175.06 25.78Q176.29 27.55 176.67 29.53L176.59 29.45L176.68 29.54Q176.74 30.20 176.74 30.66L176.82 30.75L176.64 30.56Q176.79 35.36 168.00 35.36L167.90 35.26L167.91 35.27Q160.83 35.31 158.24 33.21L158.28 33.25L158.30 33.28Q156.17 30.76 156.17 25.70L156.25 25.78L156.17 25.70Q156.28 24.74 156.12 22.04L156.19 22.10L156.11 22.02Q155.97 19.68 156.01 18.31L155.99 18.28L156.04 18.33Q156.06 15.39 157.43 13.79L157.38 13.74L157.39 13.75Q160.05 11.80 164.92 11.61L164.94 11.62L167.65 11.60L167.60 11.55Q170.55 11.30 173.97 11.72L174.07 11.82L174.14 11.88Q177.83 12.29 178.78 15.53L178.87 15.62L178.75 15.50Q177.86 16.55 175.76 18.38ZM176.95 20.36L177.11 20.41L177.25 20.55Q178.45 19.47 180.32 17.49L180.19 17.36L180.28 17.45Q179.85 16.38 178.86 14.66L178.91 14.71L178.96 14.77Q177.77 12.08 173.96 11.44L173.93 11.41L173.99 11.47Q171.95 11.45 167.65 11.14L167.64 11.13L164.82 11.13L164.95 11.26Q159.58 11.26 157.00 13.24L157.13 13.37L157.04 13.28Q155.77 15.02 155.65 18.10L155.69 18.14L155.65 18.10Q155.61 17.60 155.83 23.08L155.92 23.16L155.79 23.04Q155.79 24.37 155.87 27.11L155.89 27.13L156.02 27.27Q156.05 31.56 157.80 33.50L157.94 33.64L157.87 33.57Q158.23 34.38 159.10 35.25L159.18 35.33L159.24 35.39Q162.01 37.14 167.53 37.48L167.59 37.54L170.54 37.79L170.40 37.64Q171.98 37.74 173.99 37.62L174.13 37.76L174.14 37.76Q175.55 37.65 177.64 37.12L177.68 37.16L177.56 37.04Q179.58 36.63 179.55 34.30L179.45 34.21L179.59 34.35Q179.49 32.99 178.43 30.22L178.51 30.30L178.42 30.21Q178.13 29.31 177.60 28.51L177.64 28.55L177.69 28.60Q178.18 28.52 179.36 28.71L179.33 28.68L179.37 28.72Q179.12 25.16 179.16 24.48L179.21 24.53L179.10 24.42Q178.69 24.39 178.27 24.35L178.39 24.47L178.37 24.45Q177.95 24.37 177.57 24.45L177.65 24.53L177.55 24.43Q177.67 23.44 177.74 22.38L177.75 22.38L177.65 22.28Q171.39 22.80 165.11 22.68L165.06 22.63L165.07 22.65Q165.22 23.67 165.22 24.59L165.15 24.51L165.15 26.27L165.03 26.15Q165.62 26.35 166.04 26.32L166.00 26.28L165.91 26.19Q166.42 26.28 166.88 26.28L166.87 26.27L166.86 26.26Q166.85 26.71 166.89 27.21L166.87 27.19L166.85 27.17Q166.81 27.59 166.78 28.08L166.81 28.11L166.76 28.06Q167.80 28.04 168.83 28.00L169.00 28.17L168.97 28.15Q169.90 28.05 170.93 28.09L171.02 28.18L171.03 28.19Q171.97 28.33 172.85 28.71L172.82 28.69L172.86 28.76L172.84 28.74Q173.09 30.36 171.41 31.27L171.41 31.27L171.36 31.22Q169.70 32.15 167.99 32.15L167.90 32.07L167.98 32.14Q164.16 32.16 161.72 30.41L161.67 30.36L161.70 30.39Q160.78 28.40 160.93 25.85L160.99 25.91L160.97 25.90Q161.21 21.03 163.05 19.03L162.99 18.96L163.05 19.03Q164.85 16.99 169.54 16.68L169.53 16.68L169.53 16.68Q173.15 16.41 175.09 18.20L175.27 18.38L175.24 18.35Q175.21 18.35 175.32 18.54L175.37 18.59L175.57 18.68L175.39 18.50Q176.06 19.29 176.63 20.39L176.66 20.41L176.95 20.37Z"/><path fill="#333" d="M73.91 9.38L73.74 9.21L73.81 9.27Q77.58 11.79 82.34 12.02L82.43 12.11L82.50 12.18Q87.10 12.33 91.37 10.58L91.21 10.42L91.27 10.48Q90.95 10.97 90.19 13.74L90.24 13.79L90.20 13.75Q87.53 14.85 84.56 15.01L84.57 15.01L84.58 15.02Q81.51 15.07 78.62 14.35L78.79 14.52L78.68 14.41Q79.36 18.03 79.55 21.68L79.51 21.64L79.66 21.79Q81.62 21.96 83.22 21.92L83.24 21.94L83.10 21.80Q84.37 21.86 86.77 21.74L86.76 21.73L86.73 21.70Q86.85 22.51 86.85 23.19L86.79 23.13L86.76 24.43L86.83 24.51Q84.32 24.39 79.52 24.47L79.63 24.57L79.64 24.59Q79.53 28.59 78.96 32.59L79.04 32.66L79.08 32.71Q81.72 32.08 84.47 32.19L84.40 32.13L84.45 32.17Q87.03 32.13 89.62 32.97L89.71 33.06L89.71 33.06Q89.73 33.80 90.00 34.56L89.92 34.48L90.40 36.03L90.56 36.19Q87.32 34.86 83.90 34.86L83.90 34.86L83.79 34.75Q78.89 34.72 74.62 36.96L74.65 37.00L74.79 37.13Q77.08 30.29 76.81 23.17L76.67 23.03L76.78 23.13Q76.42 15.88 73.75 9.22ZM74.13 37.70L74.25 37.81L74.28 37.84Q75.44 37.03 76.21 36.68L76.25 36.73L76.26 36.74Q76.09 37.52 75.52 39.04L75.41 38.94L75.56 39.08Q80.00 37.02 85.07 37.28L85.12 37.34L85.03 37.24Q90.15 37.50 94.15 40.20L94.19 40.24L94.21 40.26Q93.05 37.72 92.36 35.78L92.29 35.71L92.32 35.75Q91.31 35.11 90.32 34.77L90.31 34.76L90.41 34.86Q89.97 33.44 89.82 32.64L89.81 32.63L89.93 32.74Q86.71 31.61 83.55 31.61L83.58 31.65L83.53 31.60Q82.43 31.64 81.29 31.76L81.32 31.78L81.27 31.74Q81.36 30.46 81.40 29.24L81.44 29.28L81.57 26.82L81.62 26.87Q83.46 26.81 85.25 26.84L85.24 26.84L85.22 26.81Q87.11 26.91 88.90 27.06L88.73 26.90L88.87 27.04Q88.78 26.07 88.78 25.12L88.70 25.05L88.77 23.21L87.99 23.31L87.84 23.15Q87.58 23.39 87.13 23.39L86.98 23.24L86.98 23.24Q86.97 22.55 87.12 21.26L87.12 21.26L87.10 21.23Q85.62 21.58 84.44 21.62L84.51 21.69L84.33 21.51Q83.47 21.60 81.65 21.53L81.56 21.45L81.60 21.48Q81.64 20.19 81.44 17.37L81.32 17.25L81.46 17.39Q82.40 17.41 83.39 17.41L83.45 17.47L83.33 17.35Q88.03 17.33 91.72 15.43L91.88 15.58L91.90 15.60Q92.47 13.24 93.35 11.03L93.17 10.86L93.33 11.02Q91.98 11.84 91.14 12.18L91.14 12.17L91.01 12.04Q91.45 11.42 91.90 9.86L91.93 9.89L91.86 9.82Q87.27 12.00 82.40 11.70L82.42 11.72L82.40 11.70Q76.95 11.24 73.11 8.38L73.23 8.50L73.19 8.47Q76.09 15.44 76.40 23.06L76.36 23.02L76.42 23.08Q76.67 30.94 74.16 37.72Z"/><path d="M7 34 C108 5,82 7,191 12" stroke="#333" fill="none"/><path fill="#222" d="M18.74 10.87L18.70 10.83L18.70 10.83Q20.60 15.70 21.17 20.88L21.12 20.83L21.18 20.89Q24.84 16.71 30.74 11.87L30.72 11.85L30.88 12.01Q34.02 11.65 36.64 10.85L36.66 10.86L29.98 16.36L29.99 16.38Q26.68 19.42 23.82 22.28L23.71 22.16L23.75 22.20Q31.80 31.43 36.86 36.15L36.75 36.04L36.84 36.13Q33.68 35.14 31.36 34.99L31.36 34.99L31.36 34.99Q25.65 29.66 21.34 23.83L21.23 23.72L21.27 23.76Q21.53 30.52 19.66 35.85L19.62 35.81L19.51 35.70Q19.37 35.83 18.88 36.02L18.78 35.92L18.89 36.22L18.79 36.12Q18.66 36.22 16.11 37.14L16.10 37.12L16.12 37.15Q19.08 30.59 18.73 23.13L18.60 23.00L18.75 23.14Q18.42 15.81 14.88 9.30L14.78 9.20L15.33 9.48L15.83 9.87L15.77 9.76L15.79 9.79Q16.58 10.24 18.79 10.92ZM19.04 10.60L18.93 10.49L19.05 10.61Q16.63 9.91 14.00 8.38L14.13 8.51L14.00 8.38Q18.47 15.85 18.47 24.80L18.35 24.68L18.30 24.63Q18.36 31.70 15.39 37.75L15.50 37.86L17.44 36.90L17.40 36.87Q17.13 38.01 16.45 39.30L16.38 39.24L16.45 39.31Q18.61 38.42 20.55 38.00L20.66 38.11L20.65 37.87L20.55 37.77Q21.00 37.92 21.57 37.76L21.54 37.73L21.48 37.67Q23.09 31.70 23.20 26.91L23.30 27.00L23.31 27.01Q25.29 29.41 27.11 31.28L27.11 31.28L27.11 31.27Q28.42 32.51 31.43 35.48L31.28 35.33L31.46 35.51L31.30 35.35Q32.27 36.13 34.13 37.72L34.25 37.84L34.29 37.89Q38.13 38.56 41.59 40.27L41.54 40.22L41.51 40.19Q32.21 31.62 25.97 24.19L26.11 24.33L26.09 24.32Q30.50 20.04 39.25 11.44L39.18 11.36L39.14 11.33Q36.73 12.61 34.72 12.99L34.73 13.01L34.54 12.82Q35.92 11.99 38.25 9.97L38.16 9.89L38.23 9.96Q34.14 11.39 30.79 11.58L30.73 11.51L30.74 11.52Q27.79 13.72 22.92 18.40L22.99 18.47L22.87 18.35Q22.54 15.81 21.97 13.26L21.90 13.20L21.89 13.18Q20.71 13.03 19.72 12.69L19.78 12.75L19.71 12.68Q19.57 12.01 19.00 10.56Z"/><path fill="#444" d="M134.54 27.91L134.63 27.99L134.67 28.03Q137.59 27.49 140.79 27.60L140.90 27.71L140.94 27.75Q140.79 25.09 140.79 22.70L140.88 22.79L140.85 22.75Q140.91 20.34 141.10 17.79L141.09 17.78L141.08 17.77Q139.81 19.43 134.59 27.96ZM144.56 35.38L144.49 35.30L144.40 35.21Q142.79 34.97 141.00 34.90L141.07 34.96L141.08 34.97Q140.80 32.52 140.69 30.05L140.69 30.05L140.72 30.08Q135.38 29.88 130.66 31.29L130.63 31.26L130.68 31.31Q130.77 30.79 130.96 29.80L130.88 29.73L130.92 29.76Q132.69 26.59 136.27 20.31L136.31 20.34L136.43 20.46Q139.21 15.48 142.64 11.60L142.76 11.72L142.59 11.55Q143.52 11.41 145.19 11.14L145.27 11.22L145.20 11.15Q143.38 17.67 143.38 24.72L143.34 24.67L143.37 24.70Q143.25 26.06 143.32 27.55L143.38 27.61L144.71 27.75L144.75 27.80Q145.37 27.84 145.98 27.96L145.89 27.87L145.95 27.93Q145.92 28.78 146.19 30.72L146.29 30.82L146.37 30.90Q145.10 30.58 143.61 30.39L143.56 30.33L143.62 30.39Q143.88 32.45 144.57 35.38ZM146.11 27.44L146.10 27.43L146.24 27.58Q146.03 27.48 145.84 27.48L145.87 27.51L145.50 27.51L145.38 27.40Q145.33 25.97 145.33 24.56L145.31 24.54L145.20 24.43Q145.33 18.17 147.39 12.16L147.35 12.12L147.25 12.03Q146.68 12.48 145.24 12.86L145.12 12.75L145.11 12.74Q145.34 11.98 145.80 10.57L145.76 10.53L145.74 10.51Q144.60 11.04 142.54 11.27L142.51 11.24L142.45 11.18Q138.54 15.53 133.33 24.90L133.36 24.93L135.41 21.23L135.43 21.25Q135.08 22.35 134.81 22.92L134.83 22.94L130.23 31.81L130.23 31.81Q130.94 31.72 132.08 31.34L132.02 31.28L131.88 31.52L131.95 31.60Q131.84 32.28 131.53 33.53L131.59 33.60L131.58 33.59Q135.59 32.15 140.42 32.34L140.50 32.41L140.55 32.47Q140.47 33.30 140.66 35.28L140.75 35.37L140.60 35.22Q141.83 35.38 142.90 35.50L142.77 35.37L142.85 35.45Q142.91 36.05 143.18 37.42L143.17 37.40L143.27 37.51Q145.23 37.79 148.24 38.71L148.22 38.69L148.21 38.68Q147.14 36.47 146.23 33.19L146.30 33.26L147.79 33.77L147.63 33.60Q148.29 33.81 148.97 34.15L149.03 34.21L149.10 34.28Q148.36 31.82 148.21 30.15L148.15 30.09L148.04 29.98Q147.48 29.84 146.34 29.61L146.47 29.74L146.38 29.65Q146.15 28.36 146.15 27.48ZM138.17 27.34L138.11 27.29L138.10 27.28Q138.95 26.07 140.51 23.52L140.59 23.60L140.42 23.43Q140.54 24.50 140.50 25.45L140.48 25.43L140.50 25.44Q140.53 26.47 140.57 27.42L140.41 27.26L140.57 27.42Q140.02 27.40 139.45 27.40L139.27 27.23L139.30 27.25Q138.87 27.43 138.26 27.43Z"/></svg>