<svg xmlns="http://www.w3.org/2000/svg" width="200" height="40" viewBox="0,0,200,40"><path fill="#222" d="M113.98 22.09L114.05 22.16L114.04 22.15Q114.77 22.08 116.18 21.93L116.25 22.00L116.20 21.95Q116.19 22.63 116.19 23.28L116.15 23.23L116.28 24.63L116.28 24.62Q115.34 24.52 114.51 24.60L114.58 24.68L114.49 24.58Q113.62 24.59 112.79 24.55L112.84 24.60L112.88 24.65Q110.00 30.79 106.57 35.39L106.56 35.38L106.67 35.50Q104.07 36.05 102.77 36.66L102.86 36.75L102.75 36.63Q106.89 30.95 109.93 24.67L109.99 24.73L107.27 24.64L107.27 24.63Q107.30 23.33 107.19 22.00L107.19 22.00L107.12 21.93Q109.13 22.19 111.18 22.19L111.11 22.12L113.10 18.51L113.12 18.53Q114.09 16.61 115.31 15.01L115.33 15.03L115.33 15.03Q113.75 15.16 112.15 15.16L112.10 15.11L112.03 15.04Q105.96 15.06 102.19 12.85L102.23 12.90L101.66 11.25L101.55 11.14Q101.18 10.28 100.80 9.40L100.83 9.44L100.92 9.53Q105.22 12.12 110.93 12.34L110.91 12.32L110.85 12.26Q115.99 12.50 121.13 10.52L121.20 10.58L121.24 10.62Q121.08 11.07 120.59 11.95L120.54 11.90L120.53 11.89Q116.98 16.72 114.13 22.24ZM122.16 13.29L122.15 13.28L123.21 11.34L123.15 11.28Q122.10 11.68 120.43 12.40L120.52 12.49L120.78 12.26L120.73 12.21Q120.82 12.03 120.93 11.92L120.96 11.95L120.84 11.82Q121.30 11.21 122.02 9.88L122.00 9.86L122.01 9.87Q116.77 12.25 111.03 12.02L110.91 11.90L110.98 11.97Q104.90 11.65 100.15 8.68L100.24 8.77L100.18 8.71Q101.10 10.47 101.94 13.13L102.06 13.25L101.97 13.17Q103.15 13.89 103.95 14.19L103.89 14.13L103.92 14.17Q104.02 14.45 104.47 16.32L104.60 16.44L104.57 16.42Q107.76 17.70 113.28 17.55L113.29 17.56L113.22 17.49Q112.92 18.06 110.94 21.83L110.84 21.73L110.94 21.83Q108.89 21.84 106.91 21.65L106.98 21.71L106.83 21.57Q107.03 22.52 107.03 23.40L107.02 23.40L107.01 25.10L108.64 25.05L108.65 26.47L108.63 26.45Q104.75 33.88 101.98 37.46L101.85 37.34L102.03 37.52Q103.46 36.59 105.10 36.09L105.28 36.28L105.20 36.20Q104.43 37.03 103.06 38.74L103.14 38.81L103.17 38.84Q106.39 37.80 108.82 37.57L108.66 37.41L108.77 37.52Q111.70 33.75 114.82 26.97L114.71 26.86L118.13 27.04L118.15 27.06Q118.12 26.19 118.12 25.28L118.11 25.27L118.03 23.41L118.03 23.41Q117.78 23.42 117.23 23.46L117.34 23.57L117.23 23.46Q116.84 23.66 116.57 23.66L116.58 23.67L116.47 23.55Q116.55 23.52 116.59 23.37L116.43 23.21L116.58 23.09L116.55 23.07Q119.02 17.88 122.10 13.24Z"/><path fill="#333" d="M55.33 35.16L55.22 35.06L53.17 35.29L53.22 35.34Q52.74 35.32 51.77 35.38L51.80 35.40L51.81 35.41Q50.83 35.46 50.33 35.46L50.30 35.43L50.32 35.44Q48.62 35.39 47.59 34.55L47.63 34.58L47.57 34.52Q48.45 33.50 50.08 31.37L50.13 31.41L50.03 31.31Q51.22 32.81 53.43 32.58L53.57 32.72L53.56 32.71Q54.48 32.60 55.13 31.96L55.10 31.93L55.15 31.98Q55.81 31.34 55.70 30.47L55.58 30.36L55.61 30.39Q55.42 25.70 55.50 21.13L55.62 21.26L55.67 21.31Q55.57 16.56 56.10 11.95L56.11 11.97L56.25 12.11Q58.16 11.88 60.29 10.85L60.18 10.74L60.32 10.88Q58.28 17.44 58.28 24.68L58.44 24.84L58.31 24.71Q58.31 28.25 58.77 31.75L58.83 31.81L58.74 31.73Q58.91 32.16 58.91 32.51L58.90 32.49L58.93 32.52Q58.90 33.07 58.67 33.60L58.59 33.51L58.73 33.65Q58.18 34.94 55.37 35.20ZM60.24 37.98L60.20 37.94L60.63 38.03L60.82 37.80L61.02 37.62L61.14 37.74Q61.36 37.39 61.43 37.27L61.41 37.25L61.46 37.30Q61.60 36.07 61.33 35.08L61.37 35.12L61.47 35.22Q60.06 29.35 60.33 23.00L60.38 23.05L60.31 22.98Q60.63 16.94 62.42 11.04L62.45 11.07L62.42 11.04Q61.54 11.69 60.29 12.41L60.17 12.30L60.20 12.32Q60.49 11.66 60.91 10.14L60.76 9.99L60.77 10.00Q58.33 11.41 55.67 11.71L55.63 11.68L55.71 11.75Q55.39 16.19 55.31 21.14L55.27 21.10L55.20 21.02Q55.19 27.00 55.27 30.42L55.26 30.42L55.17 30.32Q55.27 32.14 53.52 32.29L53.51 32.28L53.53 32.30Q51.87 32.47 50.20 30.83L50.05 30.68L50.10 30.74Q48.00 33.21 47.05 34.77L47.16 34.88L47.08 34.80Q47.70 35.42 48.73 35.65L48.80 35.72L48.83 35.74Q48.64 35.79 48.37 36.02L48.46 36.10L48.47 36.11Q49.98 37.13 51.96 37.39L51.93 37.36L51.91 37.34Q52.37 37.46 55.66 37.76L55.55 37.65L55.51 37.61Q58.81 37.92 60.18 37.92Z"/><path fill="#333" d="M26.37 25.50L26.23 25.37L26.24 25.38Q22.74 31.70 19.32 35.66L19.46 35.81L19.35 35.70Q17.61 36.24 15.17 37.11L15.12 37.07L15.14 37.08Q20.03 31.46 24.78 23.05L24.67 22.93L24.67 22.93Q20.13 16.03 14.15 9.64L14.21 9.69L14.16 9.64Q17.04 10.81 19.33 11.31L19.32 11.30L19.45 11.43Q24.01 16.56 26.45 20.52L26.37 20.44L26.44 20.52Q28.93 16.07 32.85 11.66L32.95 11.76L32.95 11.76Q34.43 11.33 37.62 10.57L37.61 10.55L37.73 10.68Q31.67 17.14 28.20 23.08L28.11 22.98L28.15 23.02Q33.29 31.67 37.67 36.24L37.74 36.31L37.71 36.27Q35.09 35.45 33.00 35.22L32.99 35.21L33.02 35.24Q30.30 32.33 26.38 25.52ZM32.86 35.50L32.85 35.49L33.03 35.67Q33.23 35.60 33.69 35.72L33.68 35.72L33.74 35.77Q34.54 36.53 36.06 38.13L36.08 38.15L35.98 38.05Q39.34 38.86 42.39 40.23L42.43 40.27L42.42 40.26Q35.23 33.60 30.13 24.85L30.08 24.80L30.15 24.88Q33.87 18.20 39.77 11.35L39.88 11.46L39.91 11.48Q38.42 12.09 36.25 12.63L36.18 12.55L36.27 12.64Q37.14 11.73 38.89 9.94L38.91 9.95L38.78 9.82Q36.38 10.70 32.69 11.27L32.73 11.31L32.65 11.23Q29.36 15.17 26.77 19.48L26.65 19.35L26.66 19.36Q25.88 17.90 24.70 16.42L24.73 16.44L22.39 13.46L21.93 13.37L22.06 13.51Q21.91 13.51 21.68 13.43L21.62 13.37L21.55 13.30Q20.84 12.44 19.36 10.88L19.45 10.98L19.45 10.97Q15.59 10.04 13.00 8.67L12.93 8.61L12.97 8.64Q19.72 15.93 24.29 22.97L24.33 23.01L24.25 22.93Q19.93 31.29 14.18 37.87L14.16 37.85L14.06 37.75Q15.43 37.14 17.56 36.57L17.56 36.57L16.19 37.94L16.35 38.10Q16.16 37.91 14.83 39.25L14.87 39.29L14.90 39.31Q17.86 38.20 21.02 37.71L21.01 37.70L21.10 37.79Q24.99 33.15 27.58 28.39L27.63 28.44L27.67 28.48Q30.13 32.62 32.83 35.47Z"/><path fill="#333" d="M167.69 25.39L167.65 25.36L167.72 25.42Q164.24 31.77 160.82 35.73L160.76 35.68L160.80 35.72Q158.99 36.19 156.56 37.07L156.50 37.02L156.48 36.99Q161.44 31.45 166.20 23.03L166.21 23.05L166.26 23.09Q161.64 16.11 155.66 9.72L155.69 9.74L155.62 9.67Q158.48 10.82 160.76 11.32L160.76 11.31L160.79 11.34Q165.45 16.57 167.88 20.53L167.90 20.55L167.84 20.48Q170.44 16.15 174.36 11.74L174.29 11.67L174.23 11.61Q176.00 11.48 179.20 10.72L179.18 10.69L179.02 10.54Q173.03 17.08 169.57 23.01L169.58 23.03L169.64 23.09Q174.74 31.68 179.11 36.25L179.11 36.25L179.11 36.25Q176.63 35.55 174.53 35.33L174.37 35.17L174.41 35.21Q171.73 32.33 167.81 25.52ZM174.34 35.55L174.44 35.65L174.40 35.61Q174.63 35.58 175.09 35.69L175.21 35.81L175.02 35.62Q175.96 36.53 177.48 38.12L177.51 38.15L177.44 38.08Q180.84 38.93 183.88 40.30L183.83 40.25L183.79 40.20Q176.69 33.63 171.59 24.88L171.61 24.91L171.57 24.86Q175.25 18.15 181.15 11.30L181.25 11.40L181.35 11.50Q179.72 11.96 177.55 12.49L177.72 12.67L177.64 12.58Q178.52 11.67 180.27 9.88L180.20 9.81L180.27 9.88Q177.94 10.83 174.25 11.40L174.23 11.38L174.15 11.31Q170.64 15.03 168.06 19.33L168.19 19.46L168.15 19.43Q167.25 17.84 166.07 16.36L166.01 16.30L163.83 13.47L163.48 13.49L163.38 13.40Q163.19 13.36 162.96 13.28L163.05 13.37L163.08 13.41Q162.43 12.60 160.94 11.04L160.90 11.00L160.82 10.92Q157.10 10.13 154.51 8.76L154.54 8.79L154.53 8.78Q161.26 16.04 165.83 23.08L165.67 22.92L165.78 23.03Q161.25 31.18 155.50 37.76L155.46 37.72L155.51 37.77Q156.79 37.07 158.92 36.50L158.89 36.47L157.69 38.01L157.61 37.93Q157.66 37.98 156.32 39.31L156.29 39.27L156.30 39.29Q159.46 38.37 162.62 37.88L162.60 37.86L162.46 37.72Q166.49 33.22 169.08 28.46L169.08 28.47L169.08 28.47Q171.56 32.62 174.26 35.48Z"/><path d="M6 9 C80 19,81 8,190 1" stroke="#444" fill="none"/><path fill="#222" d="M135.79 35.30L135.88 35.39L135.85 35.36Q131.74 35.55 130.75 33.23L130.73 33.21L130.75 33.23Q131.60 32.37 133.16 30.58L133.09 30.51L133.22 30.63Q133.69 32.63 136.70 32.75L136.59 32.63L136.70 32.74Q139.94 32.67 141.57 31.34L141.56 31.32L141.59 31.35Q143.15 29.91 143.08 27.21L143.06 27.19L142.97 27.10Q142.83 22.05 138.03 22.28L137.95 22.20L138.07 22.31Q135.15 22.36 133.39 23.61L133.38 23.60L133.14 23.52L133.02 23.47L132.94 23.38Q133.27 20.21 133.15 17.47L133.18 17.50L133.22 17.54Q133.11 14.92 132.77 11.60L132.71 11.54L132.66 11.50Q136.36 12.50 140.17 12.38L140.19 12.41L140.27 12.48Q143.98 12.32 147.56 11.06L147.54 11.04L146.91 12.50L147.00 12.59Q146.74 13.39 146.55 14.23L146.47 14.15L146.59 14.27Q143.38 15.21 139.50 15.21L139.39 15.11L139.47 15.19Q138.06 15.22 136.57 15.07L136.46 14.95L136.52 15.01Q136.46 15.71 136.11 20.17L136.11 20.16L136.21 20.26Q137.04 19.80 139.09 19.64L139.09 19.64L139.09 19.64Q142.77 19.82 144.22 21.49L144.20 21.48L144.30 21.58Q145.62 23.05 145.89 26.90L145.86 26.87L145.87 26.88Q146.19 31.12 144.97 33.14L144.90 33.07L144.89 33.05Q142.80 34.89 139.49 35.12L139.62 35.24L139.56 35.19Q138.59 35.28 135.92 35.43ZM142.02 37.76L141.92 37.66L141.96 37.70Q145.32 37.71 147.22 36.61L147.20 36.59L147.30 36.69Q148.18 35.05 148.18 32.96L148.31 33.09L148.14 32.92Q148.30 29.99 147.35 25.88L147.27 25.81L147.24 25.77Q146.94 24.11 145.72 22.70L145.78 22.76L145.79 22.81L145.47 22.41L145.11 22.20L145.17 22.26Q144.92 21.59 144.28 20.91L144.22 20.85L144.31 20.98L144.30 20.96Q142.78 19.29 139.08 19.29L139.05 19.25L138.79 19.26L138.78 19.26Q138.82 18.65 139.01 17.55L139.06 17.60L139.03 17.56Q143.97 17.63 148.01 16.00L147.92 15.91L148.04 16.03Q148.40 14.57 149.36 11.75L149.30 11.69L147.33 12.77L147.39 12.83Q147.69 11.60 148.18 10.46L148.13 10.41L148.09 10.37Q144.35 11.92 140.24 12.00L140.21 11.97L140.20 11.96Q136.04 12.02 132.08 10.92L132.05 10.89L132.23 11.07Q132.87 15.44 132.87 19.86L132.73 19.71L132.82 19.80Q132.86 21.75 132.74 23.65L132.70 23.61L132.77 23.68Q133.01 23.84 133.59 24.15L133.61 24.18L133.63 24.20Q133.90 23.89 134.54 23.55L134.61 23.61L134.49 23.49Q134.57 24.37 134.34 25.89L134.31 25.86L134.36 25.92Q134.75 26.07 135.17 26.30L135.21 26.34L135.15 26.28Q137.93 24.53 139.80 24.53L139.77 24.51L139.68 24.42Q140.99 24.39 142.17 25.04L142.18 25.06L142.37 25.24Q142.64 26.20 142.68 27.15L142.65 27.12L142.71 27.18Q142.62 29.61 141.60 30.71L141.71 30.83L141.68 30.80Q140.39 32.10 138.15 32.33L138.06 32.24L138.11 32.29Q137.22 32.43 136.54 32.35L136.50 32.32L136.39 32.21Q135.65 32.19 134.89 31.85L134.86 31.82L134.90 31.67L134.61 31.60L134.78 31.78Q133.84 31.14 133.30 29.80L133.36 29.86L133.39 29.89Q132.12 31.36 130.44 33.49L130.45 33.50L130.43 33.48Q130.61 34.00 131.45 34.95L131.57 35.08L131.41 34.92Q132.59 36.86 135.41 37.35L135.38 37.33L135.35 37.29Q136.59 37.59 141.96 37.70Z"/><path fill="#444" d="M85.06 34.80L85.20 34.94L83.20 34.88L83.14 34.83Q82.16 34.79 81.21 34.91L81.35 35.05L81.24 34.95Q81.77 28.70 81.77 24.70L81.83 24.76L81.78 24.71Q77.78 18.00 70.13 9.32L70.28 9.47L70.25 9.45Q71.96 10.36 75.31 11.16L75.40 11.24L75.36 11.21Q80.46 16.84 83.47 22.06L83.39 21.98L83.37 21.95Q86.50 16.52 90.87 11.49L90.78 11.40L90.78 11.40Q93.25 11.06 95.77 10.26L95.82 10.31L95.75 10.24Q89.76 16.39 84.89 24.81L84.81 24.73L84.72 24.64Q84.87 31.83 85.18 34.92ZM94.16 12.23L96.94 9.45L96.97 9.49Q93.90 10.67 90.78 11.13L90.70 11.05L90.66 11.02Q86.57 15.87 83.75 20.97L83.68 20.90L83.75 20.96Q81.45 17.14 78.25 13.26L78.40 13.41L78.26 13.27Q78.12 13.40 77.62 13.32L77.64 13.33L77.50 13.19Q76.81 12.39 75.29 10.72L75.39 10.81L75.29 10.72Q71.90 9.95 68.93 8.39L68.95 8.42L68.94 8.40Q76.81 17.04 81.57 24.96L81.39 24.78L81.52 24.90Q81.34 31.16 80.73 35.31L80.78 35.36L80.81 35.38Q81.53 35.35 82.98 35.24L82.88 35.14L82.97 36.25L83.02 36.31Q82.94 36.68 82.86 37.21L82.97 37.32L82.86 37.21Q86.35 37.16 88.10 37.35L88.25 37.50L88.18 37.42Q87.00 32.82 86.89 26.85L86.74 26.70L86.74 26.70Q91.25 18.38 97.80 11.04L97.78 11.02L94.20 12.27Z"/><path d="M3 5 C118 8,120 14,185 7" stroke="#888" fill="none"/></svg>