<svg xmlns="http://www.w3.org/2000/svg" width="200" height="40" viewBox="0,0,200,40"><path d="M15 2 C86 37,100 26,186 38" stroke="#111" fill="none"/><path fill="#222" d="M138.26 35.24L138.31 35.28L138.27 35.25Q134.81 35.36 133.17 34.83L133.25 34.91L133.11 34.77Q131.14 34.14 130.84 30.75L130.93 30.84L132.30 29.70L132.41 29.80Q132.96 29.10 133.72 28.60L133.75 28.63L133.87 28.75Q133.57 30.62 135.16 31.84L135.07 31.75L135.06 31.73Q136.42 32.82 138.55 32.63L138.54 32.63L138.48 32.56Q142.94 32.22 142.75 28.68L142.66 28.60L142.75 28.69Q142.64 26.49 140.02 25.27L139.87 25.12L140.05 25.30Q137.12 24.16 134.76 22.94L134.79 22.97L134.84 23.02Q132.20 21.60 131.21 16.92L131.15 16.86L131.20 16.91Q131.08 16.44 130.96 15.68L130.97 15.69L130.95 15.67Q130.90 14.93 130.97 14.36L131.01 14.39L131.00 14.39Q131.04 12.68 132.30 12.22L132.45 12.38L132.44 12.36Q134.81 11.46 138.81 11.65L138.76 11.60L138.74 11.58Q140.53 11.66 141.33 11.73L141.40 11.81L141.38 11.79Q142.84 11.96 143.91 12.41L144.02 12.52L144.02 12.53Q146.14 13.00 146.37 15.48L146.30 15.41L146.31 15.42Q145.21 16.08 143.01 17.41L143.12 17.52L143.11 17.51Q142.72 14.53 138.34 14.53L138.16 14.36L138.30 14.49Q136.31 14.41 135.32 15.09L135.37 15.14L135.31 15.08Q134.17 15.61 134.40 17.40L134.48 17.48L134.49 17.50Q134.66 19.61 137.63 21.13L137.57 21.07L137.65 21.15Q138.15 21.34 142.64 22.98L142.62 22.96L142.58 22.92Q145.20 24.40 145.62 28.77L145.65 28.81L145.79 28.95Q145.74 29.05 145.82 30.31L145.86 30.35L145.76 30.25Q145.93 33.12 144.37 34.23L144.38 34.24L144.29 34.15Q142.38 35.06 138.19 35.17ZM140.65 37.70L140.64 37.70L140.50 37.55Q142.06 37.74 144.03 37.74L144.01 37.72L144.05 37.76Q146.08 37.69 147.34 37.27L147.30 37.24L147.38 37.31Q148.54 36.42 148.47 34.63L148.51 34.68L148.55 34.72Q148.43 33.64 148.05 31.59L148.08 31.62L148.01 31.55Q147.25 27.02 145.15 25.15L145.03 25.03L145.02 25.02Q144.24 23.43 142.90 22.71L143.01 22.82L137.72 20.77L137.58 20.62Q137.26 20.46 136.80 20.23L136.85 20.28L136.79 19.95L136.73 19.55L136.74 19.56Q136.65 18.21 137.79 17.60L137.79 17.60L137.70 17.51Q138.43 16.90 140.14 16.71L140.21 16.78L140.10 16.68Q141.38 16.69 142.52 17.15L142.43 17.06L142.45 17.08Q142.65 17.32 142.84 18.16L142.83 18.15L142.70 18.02Q142.95 17.92 143.44 17.69L143.33 17.58L143.46 17.71Q144.09 18.53 144.20 19.67L144.28 19.74L144.23 19.70Q144.33 19.69 147.99 17.10L148.03 17.14L148.00 17.12Q147.71 14.46 146.26 13.78L146.28 13.79L146.21 13.72Q145.80 12.63 144.35 12.09L144.31 12.05L144.22 11.96Q141.92 11.15 138.73 11.15L138.88 11.30L138.88 11.30Q133.92 11.25 132.05 11.94L131.98 11.86L132.04 11.93Q130.68 12.35 130.56 14.03L130.58 14.04L130.56 14.02Q130.55 14.59 130.97 16.79L131.02 16.84L130.99 16.81Q131.62 20.52 133.79 22.77L133.85 22.83L133.81 22.79Q134.56 24.45 136.06 25.14L136.06 25.14L136.16 25.24Q137.56 25.82 141.48 27.38L141.49 27.39L141.42 27.36L142.19 27.82L142.21 27.88L142.20 27.87Q142.43 28.37 142.47 28.71L142.47 28.72L142.41 28.65Q142.53 32.16 138.60 32.31L138.60 32.31L138.47 32.17Q137.37 32.26 136.08 31.88L136.17 31.97L136.13 31.93Q135.80 31.11 135.80 30.38L135.85 30.43L135.75 30.33Q135.78 30.09 135.82 29.83L135.90 29.91L135.76 29.77Q135.45 30.11 134.66 30.61L134.65 30.60L134.64 30.59Q134.06 29.40 134.22 28.03L134.30 28.12L134.16 27.98Q132.10 29.19 130.50 30.60L130.47 30.57L130.60 30.70Q130.53 31.39 130.61 32.42L130.59 32.41L130.60 32.41Q130.92 34.14 132.22 34.91L132.22 34.91L132.41 35.09Q133.53 36.83 136.08 37.21L136.08 37.20L136.08 37.21Q137.69 37.49 140.62 37.68Z"/><path d="M13 1 C82 23,79 29,193 4" stroke="#888" fill="none"/><path fill="#444" d="M158.63 9.24L158.67 9.28L158.70 9.31Q162.47 11.83 167.23 12.05L167.30 12.12L167.30 12.13Q171.81 12.18 176.07 10.43L176.13 10.48L176.16 10.52Q175.87 11.02 175.10 13.80L175.10 13.79L175.07 13.76Q172.48 14.94 169.51 15.09L169.42 15.00L169.39 14.98Q166.37 15.08 163.48 14.35L163.54 14.42L163.48 14.36Q164.21 18.02 164.40 21.67L164.39 21.66L164.47 21.74Q166.56 22.04 168.16 22.00L168.13 21.98L168.00 21.85Q169.23 21.86 171.63 21.75L171.58 21.70L171.64 21.76Q171.71 22.51 171.71 23.20L171.62 23.10L171.71 24.53L171.61 24.43Q169.17 24.38 164.37 24.46L164.44 24.53L164.38 24.47Q164.43 28.63 163.85 32.62L163.94 32.71L163.79 32.55Q166.40 31.89 169.14 32.01L169.26 32.13L169.18 32.05Q172.02 32.26 174.61 33.10L174.61 33.10L174.56 33.05Q174.62 33.83 174.88 34.59L174.95 34.66L175.42 36.19L175.25 36.02Q172.20 34.88 168.78 34.88L168.70 34.81L168.77 34.87Q163.92 34.90 159.66 37.15L159.61 37.09L159.62 37.10Q161.92 30.27 161.65 23.15L161.59 23.09L161.63 23.13Q161.28 15.89 158.62 9.23ZM159.16 37.87L159.04 37.74L159.05 37.76Q160.39 37.12 161.15 36.77L161.16 36.78L161.17 36.79Q160.92 37.49 160.35 39.02L160.33 38.99L160.29 38.96Q164.78 36.93 169.84 37.20L169.92 37.28L169.93 37.29Q175.07 37.55 179.06 40.26L179.11 40.30L179.15 40.34Q177.89 37.72 177.21 35.77L177.31 35.88L177.29 35.85Q176.14 35.09 175.15 34.75L175.29 34.89L175.33 34.92Q174.86 33.47 174.71 32.67L174.74 32.70L174.63 32.59Q171.69 31.74 168.53 31.74L168.47 31.68L168.39 31.60Q167.25 31.60 166.11 31.72L166.17 31.77L166.12 31.73Q166.38 30.62 166.42 29.40L166.37 29.35L166.36 26.75L166.49 26.88Q168.17 26.66 169.96 26.69L170.11 26.85L170.02 26.76Q171.78 26.73 173.57 26.88L173.66 26.97L173.60 26.91Q173.52 25.95 173.52 25.00L173.59 25.08L173.54 23.12L172.77 23.23L172.70 23.15Q172.31 23.26 171.85 23.26L171.99 23.40L171.97 23.38Q171.95 22.67 172.10 21.38L172.10 21.38L172.02 21.30Q170.44 21.55 169.26 21.58L169.18 21.51L169.36 21.68Q168.35 21.62 166.52 21.55L166.47 21.50L166.57 21.60Q166.34 20.04 166.15 17.22L166.32 17.39L166.14 17.21Q167.28 17.44 168.27 17.44L168.35 17.51L168.22 17.38Q172.92 17.37 176.62 15.46L176.62 15.46L176.61 15.45Q177.15 13.06 178.02 10.85L178.05 10.88L178.16 10.99Q176.86 11.86 176.02 12.20L175.98 12.16L175.89 12.07Q176.19 11.31 176.65 9.75L176.80 9.90L176.77 9.87Q172.16 12.03 167.28 11.72L167.25 11.69L167.27 11.71Q161.87 11.30 158.02 8.44L158.14 8.56L158.13 8.55Q160.90 15.39 161.20 23.01L161.32 23.12L161.30 23.10Q161.66 31.08 159.15 37.86Z"/><path fill="#444" d="M110.32 35.15L110.37 35.19L108.00 28.38L108.04 28.41Q103.68 15.82 97.74 9.43L97.55 9.24L97.65 9.34Q99.63 10.37 102.22 10.98L102.35 11.11L102.31 11.07Q107.45 17.35 111.79 30.10L111.64 29.96L111.82 30.14Q114.84 22.00 115.53 20.40L115.49 20.37L115.49 20.37Q117.92 14.80 120.73 11.49L120.61 11.36L120.76 11.52Q122.80 11.12 125.43 10.24L125.43 10.24L125.33 10.14Q120.73 14.72 117.69 21.96L117.72 21.99L117.79 22.06Q116.26 25.59 112.56 35.10L112.74 35.28L112.70 35.24Q112.04 35.15 111.47 35.12L111.54 35.18L111.51 35.15Q110.95 35.17 110.38 35.20ZM115.37 37.61L115.35 37.58L115.39 37.63Q118.19 27.64 119.76 23.60L119.73 23.58L119.74 23.59Q122.69 15.84 127.10 10.97L127.19 11.05L127.09 10.95Q126.12 11.40 124.03 12.12L123.96 12.05L125.22 10.83L125.19 10.81Q125.67 10.02 126.27 9.38L126.36 9.46L126.31 9.41Q123.53 10.44 120.52 11.01L120.46 10.94L120.47 10.96Q116.05 16.25 112.17 27.71L112.18 27.72L112.17 27.71Q108.54 17.61 105.34 13.23L105.47 13.36L105.33 13.21Q105.09 13.28 104.22 13.13L104.20 13.11L104.08 12.99Q103.85 12.61 102.26 10.56L102.35 10.65L102.29 10.59Q99.46 10.01 96.76 8.60L96.71 8.55L96.73 8.57Q103.25 15.55 107.63 28.34L107.76 28.47L107.71 28.42Q108.84 31.99 110.02 35.57L109.98 35.53L110.11 35.66Q110.46 35.70 111.30 35.59L111.18 35.47L111.21 35.50Q111.54 36.18 112.23 37.51L112.27 37.55L112.27 37.55Q113.11 37.48 113.84 37.56L113.89 37.61L113.81 37.54Q114.68 37.68 115.44 37.68Z"/><path fill="#222" d="M50.90 14.35L50.94 14.39L50.85 14.30Q51.81 18.65 51.96 22.23L51.92 22.18L51.97 22.24Q52.97 22.20 54.03 22.20L54.14 22.31L56.21 22.17L56.26 22.22Q57.28 22.17 58.15 20.76L58.18 20.79L58.10 20.71Q58.82 19.52 58.93 18.34L58.96 18.38L58.99 18.40Q59.37 15.40 55.15 14.90L55.14 14.89L55.18 14.93Q53.47 14.86 50.85 14.29ZM51.94 24.94L52.00 25.00L51.85 24.85Q51.91 31.19 50.76 35.61L50.77 35.61L50.65 35.49Q49.22 35.93 46.90 36.99L46.94 37.04L46.91 37.00Q49.41 30.49 49.15 23.21L49.12 23.19L49.13 23.20Q48.73 15.72 45.95 9.29L46.01 9.35L46.07 9.40Q50.10 12.06 56.34 12.06L56.36 12.08L56.43 12.15Q62.39 12.06 62.55 15.52L62.55 15.53L62.61 15.59Q62.64 17.98 61.65 20.64L61.65 20.65L61.66 20.66Q61.26 21.78 60.31 23.00L60.27 22.96L60.27 22.95Q58.99 24.60 56.44 24.87L56.53 24.96L56.44 24.87Q54.11 24.83 51.86 24.86ZM58.17 27.29L58.03 27.15L58.11 27.23Q62.19 27.39 63.45 22.59L63.49 22.63L63.55 22.70Q64.43 18.97 64.28 16.96L64.37 17.05L64.37 17.04Q64.09 15.35 63.33 14.36L63.45 14.49L63.42 14.46Q63.09 14.12 62.59 13.90L62.59 13.90L62.53 13.84Q62.52 13.68 61.92 12.91L62.00 12.99L61.99 12.99Q60.46 11.68 56.50 11.68L56.47 11.66L56.50 11.69Q49.52 11.60 45.30 8.44L45.39 8.53L45.25 8.39Q48.50 15.56 48.76 23.02L48.65 22.91L48.79 23.05Q49.06 30.71 46.40 37.79L46.48 37.87L46.39 37.78Q47.43 37.11 48.42 36.73L48.43 36.74L48.11 37.94L47.97 37.80Q47.94 38.53 47.67 39.10L47.62 39.05L47.60 39.03Q50.01 37.97 52.90 37.44L52.87 37.41L52.93 37.47Q53.80 31.98 53.87 27.26L53.80 27.19L53.88 27.26Q54.95 27.15 55.94 27.15L55.90 27.11L56.00 27.22Q57.22 27.10 58.02 27.14ZM57.08 17.22L57.10 17.23L57.04 17.18Q57.70 17.34 58.69 17.57L58.66 17.54L58.71 17.58Q58.77 17.77 58.81 18.07L58.82 18.08L58.84 18.10Q58.73 18.22 58.65 18.48L58.64 18.47L58.69 18.52Q58.52 19.68 57.79 20.56L57.89 20.66L57.83 20.59Q57.30 21.70 56.28 21.89L56.31 21.93L56.32 21.94Q55.53 21.87 53.90 21.87L53.97 21.95L53.83 21.81Q53.77 19.50 53.54 17.14L53.62 17.22L55.41 17.33L55.46 17.39Q56.15 17.24 57.02 17.16Z"/><path fill="#222" d="M26.38 25.52L26.30 25.44L26.31 25.45Q22.81 31.77 19.39 35.73L19.47 35.82L19.29 35.63Q17.53 36.16 15.10 37.04L15.13 37.07L15.02 36.96Q20.00 31.44 24.76 23.03L24.80 23.07L24.74 23.00Q20.15 16.05 14.18 9.66L14.09 9.57L14.24 9.72Q17.04 10.81 19.33 11.31L19.43 11.41L19.43 11.41Q24.09 16.64 26.53 20.60L26.48 20.55L26.42 20.49Q28.97 16.11 32.89 11.70L32.85 11.66L32.88 11.69Q34.39 11.30 37.59 10.54L37.67 10.62L37.66 10.61Q31.57 17.04 28.11 22.98L28.09 22.96L28.09 22.96Q33.33 31.71 37.71 36.27L37.77 36.34L37.67 36.24Q35.04 35.40 32.95 35.17L32.98 35.21L32.91 35.13Q30.32 32.35 26.40 25.54ZM32.86 35.50L33.03 35.67L32.92 35.56Q33.26 35.64 33.72 35.75L33.75 35.79L33.63 35.66Q34.51 36.50 36.03 38.10L35.93 38.00L36.00 38.07Q39.35 38.87 42.40 40.24L42.45 40.29L42.44 40.28Q35.28 33.66 30.18 24.90L30.24 24.96L30.12 24.85Q33.96 18.29 39.86 11.44L39.77 11.35L39.90 11.48Q38.43 12.10 36.26 12.63L36.23 12.60L36.22 12.59Q37.07 11.65 38.82 9.86L38.75 9.79L38.90 9.94Q36.34 10.66 32.65 11.23L32.69 11.27L32.66 11.24Q29.37 15.18 26.78 19.49L26.70 19.40L26.67 19.37Q25.87 17.89 24.69 16.40L24.69 16.41L22.44 13.51L22.01 13.46L22.04 13.49Q21.91 13.51 21.68 13.44L21.52 13.27L21.67 13.42Q20.87 12.47 19.39 10.91L19.41 10.93L19.35 10.88Q15.64 10.09 13.05 8.72L12.99 8.66L13.07 8.74Q19.80 16.01 24.37 23.05L24.27 22.95L24.32 23.00Q19.82 31.18 14.07 37.77L14.11 37.80L14.09 37.78Q15.42 37.13 17.55 36.56L17.57 36.58L16.35 38.10L16.33 38.08Q16.21 37.96 14.88 39.29L14.95 39.36L14.83 39.25Q17.93 38.27 21.09 37.78L21.00 37.68L21.17 37.86Q25.17 33.33 27.76 28.58L27.75 28.57L27.67 28.48Q30.17 32.66 32.88 35.52Z"/><path fill="#333" d="M78.70 35.39L78.56 35.25L78.56 35.25Q77.22 35.40 75.66 34.98L75.63 34.94L75.61 34.93Q74.45 34.07 74.30 32.43L74.37 32.51L74.30 32.43Q74.24 32.22 74.43 29.59L74.37 29.54L74.54 29.70Q75.40 29.35 77.42 28.97L77.53 29.08L77.24 29.74L77.39 29.89Q76.98 31.50 78.39 32.07L78.53 32.21L78.55 32.23Q79.17 32.40 81.27 32.40L81.31 32.44L81.27 32.40Q82.90 32.28 83.09 32.20L83.12 32.23L83.11 32.22Q84.02 32.07 84.74 31.57L84.73 31.56L84.75 31.59Q86.12 30.59 85.93 28.49L86.09 28.65L86.01 28.58Q85.86 26.18 84.13 24.62L84.10 24.59L83.98 24.47Q82.36 23.03 79.89 23.03L79.94 23.08L79.81 22.71L79.85 22.75Q80.28 22.77 81.15 22.69L81.08 22.62L81.18 22.72Q83.04 22.56 84.41 21.32L84.33 21.24L84.38 21.30Q85.76 20.07 85.92 18.20L85.85 18.14L86.01 18.30Q85.93 17.80 85.93 17.45L86.06 17.59L85.97 17.50Q86.05 16.06 84.68 15.14L84.56 15.02L84.65 15.11Q83.38 14.26 81.78 14.37L81.81 14.40L81.78 14.37Q80.57 14.30 79.35 14.72L79.30 14.67L79.24 14.61Q77.88 15.23 77.57 16.37L77.49 16.29L77.53 16.33Q77.31 17.06 77.39 17.82L77.44 17.88L77.36 17.80Q76.49 17.73 74.44 17.00L74.29 16.85L74.41 16.98Q74.09 15.21 74.12 14.37L74.25 14.49L74.25 14.49Q74.27 12.88 75.34 12.19L75.25 12.10L75.28 12.14Q76.72 11.56 78.32 11.56L78.26 11.50L78.26 11.50Q81.41 11.45 84.57 11.72L84.63 11.78L84.69 11.84Q89.74 12.24 89.44 16.01L89.48 16.06L89.35 15.93Q89.26 17.40 88.77 18.96L88.93 19.12L88.94 19.14Q87.90 22.09 85.54 23.01L85.60 23.06L85.55 23.02Q88.18 23.56 88.79 26.91L88.80 26.91L88.86 26.97Q88.98 28.00 89.05 30.02L89.03 30.00L89.10 30.06Q89.22 34.49 84.61 34.94L84.63 34.96L84.64 34.97Q83.95 35.08 78.66 35.35ZM83.79 37.51L83.92 37.64L83.90 37.62Q84.44 37.59 87.29 37.66L87.30 37.67L87.43 37.80Q88.99 37.69 90.63 37.04L90.64 37.06L90.67 37.08Q91.97 36.25 91.78 34.49L91.71 34.43L91.64 34.35Q91.54 33.04 91.24 31.29L91.34 31.39L91.28 31.33Q90.63 26.91 88.68 25.27L88.73 25.32L88.45 24.85L88.46 24.82L88.50 24.86Q90.22 23.38 90.98 19.01L90.97 19.00L91.00 19.03Q90.92 18.45 91.03 17.50L91.08 17.54L91.04 17.51Q91.08 16.71 91.01 16.02L91.16 16.18L91.04 16.05Q90.97 14.47 89.68 13.78L89.64 13.75L89.51 13.69L89.58 13.76Q89.28 12.77 88.14 12.24L88.10 12.20L88.00 12.10Q86.52 11.46 81.38 11.15L81.52 11.29L81.50 11.28Q79.78 11.15 78.18 11.15L78.12 11.09L78.09 11.06Q76.48 11.05 74.96 11.70L75.00 11.74L75.08 11.82Q73.85 12.58 73.85 14.33L73.88 14.35L73.76 14.23Q73.81 13.87 74.08 17.22L74.13 17.26L74.01 17.14Q74.29 17.20 75.93 17.81L75.97 17.85L76.07 17.95Q75.98 18.39 75.94 18.89L75.93 18.87L75.89 18.84Q76.00 19.44 76.04 19.97L76.01 19.95L75.98 19.91Q77.78 20.30 79.79 20.42L79.92 20.54L79.86 20.48Q79.82 18.50 80.92 17.66L80.78 17.52L80.86 17.60Q81.79 17.05 83.81 16.82L83.79 16.81L83.73 16.74Q84.94 16.81 85.51 17.00L85.38 16.87L85.50 16.99Q85.45 17.01 85.48 17.12L85.51 17.15L85.50 17.33L85.53 17.81L85.54 17.83Q85.53 18.01 85.50 18.17L85.50 18.17L85.56 18.23Q85.54 20.00 84.02 21.18L84.06 21.22L83.94 21.10Q82.98 21.96 80.96 22.16L81.14 22.33L80.96 22.16Q80.27 22.34 79.40 22.34L79.43 22.38L79.46 22.41Q79.42 22.68 79.58 23.36L79.71 23.49L79.68 23.46Q81.43 23.46 82.87 24.19L82.91 24.22L82.77 24.20L81.22 24.39L81.21 24.39Q81.13 24.61 81.25 25.22L81.22 25.19L81.28 25.26Q83.48 25.25 85.19 26.58L85.12 26.50L85.12 26.51Q85.31 26.85 85.61 28.48L85.60 28.47L85.76 28.63Q85.81 31.42 82.88 31.84L82.90 31.87L83.02 31.99Q80.76 32.09 80.19 32.05L80.26 32.11L80.28 32.13Q79.86 32.06 79.33 31.98L79.38 32.04L79.33 31.53L79.40 31.02L79.52 30.73L79.41 30.27L79.43 30.29Q78.63 30.52 77.83 30.71L77.72 30.61L77.74 30.62Q77.71 30.41 77.71 30.22L77.68 30.18L77.61 30.11Q77.81 30.08 77.81 29.85L77.79 29.83L77.74 29.79Q77.77 29.36 77.92 28.63L77.88 28.59L77.96 28.67Q75.97 28.78 74.11 29.12L74.16 29.18L74.27 29.28Q74.26 29.77 74.15 30.89L74.10 30.84L74.01 30.75Q74.05 32.03 74.05 32.64L73.93 32.53L73.89 32.49Q74.09 34.67 75.46 35.43L75.41 35.37L75.32 35.29Q76.92 37.68 81.64 37.49L81.56 37.41L81.68 37.53Q82.37 37.47 83.90 37.62Z"/></svg>