<svg xmlns="http://www.w3.org/2000/svg" width="200" height="40" viewBox="0,0,200,40"><path fill="#444" d="M73.82 9.29L73.74 9.21L73.91 9.37Q77.61 11.82 82.37 12.05L82.34 12.02L82.34 12.02Q87.06 12.28 91.32 10.53L91.37 10.58L91.36 10.57Q90.98 10.99 90.22 13.77L90.19 13.74L90.31 13.86Q87.58 14.90 84.61 15.06L84.60 15.04L84.62 15.06Q81.63 15.20 78.74 14.47L78.62 14.35L78.74 14.47Q79.31 17.98 79.50 21.63L79.55 21.67L79.66 21.78Q81.59 21.93 83.19 21.89L83.17 21.87L83.21 21.91Q84.40 21.89 86.80 21.77L86.88 21.85L86.83 21.81Q86.84 22.50 86.84 23.18L86.79 23.13L86.86 24.54L86.88 24.55Q84.45 24.52 79.65 24.60L79.64 24.59L79.51 24.46Q79.68 28.74 79.11 32.73L79.07 32.70L78.97 32.60Q81.71 32.06 84.45 32.17L84.45 32.18L84.44 32.16Q87.18 32.28 89.77 33.12L89.74 33.09L89.72 33.07Q89.66 33.73 89.92 34.49L89.99 34.56L90.49 36.12L90.38 36.01Q87.32 34.85 83.89 34.85L83.86 34.82L83.76 34.72Q78.91 34.74 74.65 36.99L74.76 37.11L74.67 37.02Q76.96 30.17 76.69 23.05L76.77 23.13L76.67 23.03Q76.52 15.98 73.85 9.32ZM74.21 37.77L74.20 37.77L74.13 37.70Q75.47 37.05 76.23 36.71L76.14 36.62L76.21 36.68Q76.02 37.45 75.45 38.97L75.44 38.96L75.44 38.97Q79.97 36.99 85.03 37.25L85.13 37.35L85.00 37.22Q90.25 37.59 94.25 40.30L94.25 40.30L94.21 40.26Q93.05 37.73 92.37 35.79L92.29 35.71L92.31 35.73Q91.42 35.23 90.43 34.89L90.39 34.84L90.36 34.81Q89.98 33.44 89.83 32.64L89.81 32.62L89.96 32.78Q86.81 31.72 83.65 31.72L83.52 31.59L83.71 31.78Q82.57 31.78 81.43 31.90L81.26 31.73L81.43 31.90Q81.38 30.47 81.42 29.26L81.46 29.30L81.62 26.87L81.60 26.85Q83.47 26.82 85.26 26.86L85.08 26.68L85.14 26.73Q87.02 26.83 88.81 26.98L88.89 27.06L88.85 27.02Q88.76 26.05 88.76 25.10L88.74 25.08L88.78 23.22L87.82 23.14L87.96 23.27Q87.57 23.38 87.11 23.38L87.13 23.40L87.08 23.35Q87.06 22.64 87.21 21.35L87.14 21.27L87.11 21.25Q85.62 21.58 84.44 21.62L84.49 21.67L84.33 21.51Q83.44 21.57 81.61 21.50L81.71 21.60L81.60 21.48Q81.48 20.03 81.29 17.21L81.41 17.34L81.35 17.28Q82.47 17.48 83.46 17.48L83.44 17.46L83.33 17.35Q88.17 17.47 91.86 15.57L91.84 15.55L91.89 15.59Q92.38 13.15 93.25 10.94L93.21 10.90L93.32 11.01Q91.91 11.77 91.07 12.11L91.17 12.20L91.12 12.15Q91.48 11.46 91.94 9.89L91.93 9.89L91.85 9.80Q87.27 12.00 82.39 11.69L82.39 11.68L82.38 11.67Q77.11 11.39 73.26 8.54L73.21 8.49L73.14 8.41Q76.02 15.37 76.32 22.98L76.30 22.96L76.37 23.03Q76.66 30.93 74.14 37.71Z"/><path fill="#222" d="M53.70 24.23L53.62 24.15L53.66 24.19Q51.76 24.16 50.55 25.49L50.55 25.49L50.55 25.49Q49.31 26.81 49.16 28.71L49.17 28.72L49.26 28.81Q48.99 30.86 50.21 31.87L50.30 31.97L50.24 31.90Q51.47 32.93 53.61 32.85L53.62 32.87L53.58 32.82Q55.85 32.63 56.81 31.67L56.95 31.82L56.86 31.73Q57.96 30.36 57.85 28.53L57.76 28.44L57.68 28.36Q57.62 26.55 56.54 25.35L56.50 25.31L56.60 25.41Q55.52 24.22 53.69 24.22ZM53.58 14.71L53.58 14.70L53.62 14.74Q52.22 14.64 50.88 15.13L50.92 15.17L50.78 15.03Q49.50 15.84 49.73 17.70L49.80 17.78L49.75 17.73Q50.27 21.48 53.62 21.48L53.58 21.45L53.75 21.61Q55.17 21.67 56.16 20.52L56.16 20.52L56.22 20.58Q57.19 19.42 57.23 17.86L57.32 17.95L57.18 17.81Q57.26 16.06 56.54 15.45L56.52 15.43L56.50 15.42Q54.86 14.62 53.57 14.69ZM53.35 35.30L53.27 35.22L50.34 35.34L50.26 35.26Q48.86 35.38 47.53 34.50L47.52 34.50L47.47 34.44Q46.13 33.33 46.28 30.47L46.18 30.38L46.28 30.47Q46.73 23.61 50.34 22.62L50.40 22.68L50.28 22.56Q48.01 21.66 46.68 16.29L46.79 16.40L46.79 16.40Q46.27 14.82 46.35 14.02L46.49 14.16L46.41 14.08Q46.81 12.05 50.51 12.01L50.39 11.89L50.40 11.91Q54.71 11.92 56.16 12.11L56.02 11.97L56.09 12.04Q59.89 12.52 60.34 14.54L60.39 14.58L60.42 14.61Q60.44 15.13 60.44 15.52L60.52 15.59L60.49 15.56Q60.59 16.35 60.40 16.96L60.23 16.78L60.38 16.94Q59.75 21.15 56.82 22.67L56.78 22.62L56.71 22.56Q60.20 23.34 60.69 28.63L60.78 28.72L60.81 28.75Q60.72 28.81 60.76 30.11L60.75 30.10L60.90 30.25Q60.82 32.83 59.22 33.90L59.27 33.95L59.24 33.92Q57.87 34.80 53.31 35.26ZM55.60 37.58L55.59 37.58L58.90 37.61L59.02 37.73Q60.63 37.70 62.15 36.98L62.22 37.05L62.27 37.10Q63.40 36.37 63.48 34.50L63.39 34.41L63.44 34.46Q63.56 33.44 63.18 31.50L63.14 31.46L63.05 31.37Q62.26 26.85 60.16 24.98L60.01 24.83L59.98 24.61L59.73 24.29L59.65 24.09L59.47 23.91Q61.22 22.65 62.13 18.50L62.06 18.42L62.13 18.50Q62.06 18.05 62.14 17.21L62.13 17.20L62.11 17.18Q62.23 16.54 62.15 15.93L62.16 15.94L62.26 16.03Q62.07 14.55 60.89 14.06L60.86 14.03L60.79 13.92L60.69 13.89L60.73 13.93Q60.36 13.11 59.18 12.32L59.32 12.45L59.36 12.45L59.23 12.33Q57.22 11.61 53.15 11.42L53.34 11.61L53.21 11.48Q51.59 11.31 50.22 11.42L50.30 11.50L50.24 11.44Q49.58 11.62 48.29 11.77L48.16 11.64L48.29 11.78Q46.35 12.15 46.12 13.79L46.11 13.78L45.99 13.66Q45.95 14.16 45.99 14.96L46.08 15.05L46.11 15.07Q46.16 15.54 46.73 17.90L46.72 17.90L46.64 17.82Q47.51 21.12 49.26 22.46L49.24 22.43L49.26 22.46L49.29 22.49Q46.57 23.83 46.03 29.01L45.98 28.96L46.07 29.05Q45.88 31.25 45.88 32.17L45.94 32.23L45.92 32.21Q45.94 33.95 47.12 34.86L47.11 34.84L47.06 34.80Q47.14 34.84 47.41 35.03L47.41 35.03L47.54 35.16Q48.53 37.40 55.64 37.63ZM55.36 26.61L55.30 26.56L55.22 26.47Q56.13 26.39 57.01 26.85L57.17 27.01L57.14 26.98Q57.53 27.99 57.50 28.52L57.50 28.53L57.50 28.52Q57.41 28.70 57.41 29.01L57.40 29.00L57.49 29.08Q57.54 31.49 55.26 32.33L55.25 32.33L55.25 32.33Q54.31 32.49 53.51 32.37L53.57 32.44L53.54 32.40Q52.50 32.58 51.36 32.13L51.31 32.08L51.34 32.11Q51.08 31.47 51.16 30.48L51.20 30.52L51.20 30.53Q51.28 28.86 52.48 27.64L52.48 27.63L52.57 27.72Q53.73 26.47 55.33 26.58ZM55.58 17.13L55.54 17.09L55.50 17.05Q56.30 16.94 56.84 17.09L56.83 17.08L56.85 17.90L56.76 17.81Q56.77 19.22 55.85 20.23L56.04 20.42L55.96 20.34Q54.94 21.24 53.57 21.05L53.58 21.06L53.72 21.21Q52.75 21.22 52.33 21.00L52.20 20.86L52.33 20.99Q52.22 20.65 52.10 19.96L52.04 19.90L52.14 20.00Q51.89 18.62 53.11 17.78L53.05 17.72L52.98 17.64Q54.03 16.94 55.44 16.98Z"/><path fill="#333" d="M28.47 34.78L28.49 34.80L26.62 34.88L26.56 34.81Q25.70 34.91 24.75 35.02L24.77 35.05L24.62 34.89Q25.35 28.85 25.35 24.85L25.32 24.82L25.22 24.72Q21.28 18.08 13.63 9.40L13.71 9.48L13.68 9.45Q15.38 10.35 18.73 11.15L18.88 11.30L18.83 11.25Q23.76 16.71 26.77 21.92L26.88 22.04L26.87 22.03Q29.83 16.42 34.20 11.40L34.33 11.52L34.16 11.36Q36.65 11.03 39.17 10.23L39.11 10.17L39.10 10.17Q33.13 16.34 28.26 24.75L28.15 24.64L28.24 24.73Q28.31 31.84 28.61 34.92ZM37.67 12.31L40.26 9.34L40.40 9.48Q37.22 10.56 34.10 11.02L34.07 11.00L34.20 11.13Q29.94 15.81 27.12 20.91L27.09 20.88L27.16 20.95Q24.91 17.18 21.71 13.30L21.74 13.32L21.77 13.35Q21.49 13.34 20.99 13.26L20.95 13.22L20.95 13.22Q20.35 12.50 18.83 10.83L18.79 10.79L18.75 10.75Q15.40 10.02 12.43 8.46L12.39 8.43L12.46 8.49Q20.06 16.86 24.82 24.78L24.89 24.84L24.89 24.84Q24.87 31.26 24.26 35.41L24.19 35.34L24.12 35.27Q25.04 35.43 26.49 35.32L26.37 35.20L26.47 36.33L26.39 36.24Q26.33 36.64 26.26 37.18L26.42 37.34L26.38 37.30Q29.86 37.24 31.61 37.43L31.70 37.52L31.52 37.34Q30.43 32.83 30.32 26.85L30.24 26.77L30.27 26.80Q34.62 18.32 41.17 10.98L41.24 11.05L37.65 12.29Z"/><path fill="#222" d="M158.73 9.34L158.59 9.20L158.66 9.27Q162.59 11.94 167.35 12.17L167.22 12.04L167.18 12.00Q171.90 12.27 176.17 10.52L176.04 10.40L176.04 10.40Q175.91 11.06 175.15 13.84L175.16 13.85L175.18 13.88Q172.44 14.90 169.47 15.06L169.47 15.05L169.35 14.93Q166.51 15.21 163.61 14.49L163.58 14.45L163.65 14.53Q164.27 18.08 164.46 21.73L164.50 21.77L164.50 21.77Q166.49 21.97 168.08 21.93L168.15 21.99L168.06 21.90Q169.34 21.97 171.74 21.86L171.74 21.85L171.67 21.78Q171.65 22.45 171.65 23.14L171.64 23.13L171.58 24.39L171.66 24.48Q169.19 24.41 164.39 24.48L164.42 24.51L164.46 24.55Q164.46 28.66 163.89 32.66L163.90 32.66L163.79 32.56Q166.48 31.97 169.22 32.09L169.34 32.21L169.31 32.18Q171.94 32.18 174.52 33.01L174.46 32.95L174.47 32.96Q174.64 33.85 174.90 34.61L174.89 34.60L175.35 36.12L175.24 36.01Q172.12 34.80 168.69 34.80L168.71 34.82L168.70 34.80Q163.84 34.82 159.58 37.07L159.67 37.15L159.53 37.01Q161.81 30.16 161.54 23.04L161.54 23.04L161.69 23.18Q161.43 16.04 158.77 9.37ZM159.03 37.73L159.06 37.76L159.03 37.74Q160.38 37.11 161.14 36.77L161.12 36.74L161.01 36.64Q160.83 37.41 160.26 38.93L160.34 39.00L160.23 38.90Q164.80 36.96 169.86 37.22L169.85 37.21L169.92 37.28Q175.09 37.58 179.09 40.28L179.02 40.21L179.08 40.27Q177.82 37.65 177.14 35.70L177.21 35.78L177.18 35.75Q176.24 35.19 175.25 34.85L175.20 34.79L175.20 34.80Q174.91 33.51 174.75 32.71L174.72 32.68L174.67 32.63Q171.57 31.62 168.41 31.62L168.40 31.61L168.47 31.68Q167.27 31.62 166.13 31.74L166.12 31.73L166.23 31.84Q166.39 30.63 166.43 29.41L166.25 29.23L166.44 26.83L166.34 26.73Q168.20 26.69 169.99 26.73L170.06 26.80L170.10 26.84Q171.84 26.79 173.63 26.94L173.68 26.99L173.62 26.94Q173.62 26.06 173.62 25.10L173.64 25.12L173.56 23.15L172.73 23.18L172.83 23.28Q172.38 23.33 171.92 23.33L171.85 23.26L171.96 23.37Q171.98 22.70 172.13 21.41L172.15 21.43L172.13 21.41Q170.55 21.66 169.37 21.70L169.29 21.61L169.18 21.50Q168.38 21.65 166.55 21.58L166.48 21.50L166.56 21.59Q166.42 20.11 166.23 17.29L166.20 17.27L166.20 17.26Q167.21 17.36 168.20 17.36L168.21 17.38L168.17 17.33Q172.91 17.35 176.60 15.44L176.75 15.59L176.59 15.44Q177.25 13.16 178.12 10.95L178.11 10.95L178.13 10.96Q176.85 11.85 176.01 12.19L175.89 12.07L176.01 12.19Q176.20 11.31 176.65 9.75L176.69 9.79L176.66 9.76Q172.01 11.89 167.14 11.58L167.27 11.72L167.18 11.62Q161.82 11.25 157.98 8.40L157.98 8.40L158.12 8.54Q160.92 15.41 161.22 23.03L161.30 23.11L161.21 23.01Q161.60 31.02 159.09 37.80Z"/><path d="M16 38 C95 26,84 1,194 30" stroke="#888" fill="none"/><path fill="#222" d="M138.78 14.72L138.82 14.76L138.74 14.68Q136.79 14.83 135.84 14.98L135.80 14.94L135.82 14.96Q134.24 15.24 133.02 15.78L132.88 15.64L132.84 15.60Q129.43 17.14 129.32 21.83L129.28 21.79L129.38 21.89Q129.28 24.53 129.93 27.46L129.97 27.50L129.95 27.48Q130.70 31.39 134.32 32.57L134.41 32.66L134.40 32.65Q136.26 33.18 137.70 33.03L137.79 33.11L138.12 32.99L138.18 33.04Q138.31 32.99 138.50 33.03L138.59 33.11L138.45 32.97Q138.78 33.15 138.93 33.11L138.80 32.98L138.92 33.10Q141.51 32.79 142.88 32.22L142.79 32.13L139.20 28.58L139.17 28.55Q139.67 28.41 140.28 27.80L140.17 27.69L141.15 26.84L141.17 26.86Q143.00 28.92 144.98 30.98L144.93 30.92L144.95 30.95Q147.18 29.02 147.45 23.66L147.56 23.78L147.49 23.70Q147.55 22.77 147.55 21.85L147.51 21.82L147.64 21.94Q147.64 16.27 142.57 15.17L142.46 15.06L142.43 15.03Q141.27 14.86 138.76 14.70ZM151.57 36.80L151.50 36.74L151.58 36.81Q150.97 37.23 149.79 38.11L149.78 38.10L145.34 34.38L145.38 34.42Q142.80 35.53 138.53 35.57L138.49 35.53L138.59 35.63Q132.09 35.78 129.27 33.54L129.26 33.53L129.20 33.46Q127.51 31.78 127.05 28.81L127.03 28.78L126.96 28.72Q126.78 26.94 126.40 23.36L126.43 23.39L126.35 23.31Q126.35 22.59 126.24 20.83L126.29 20.89L126.28 20.88Q126.18 19.37 126.22 18.50L126.15 18.42L126.17 18.45Q126.22 15.34 127.97 13.78L128.02 13.83L128.09 13.90Q129.61 12.56 132.80 12.06L132.74 12.00L132.70 11.96Q135.13 11.53 138.02 11.60L138.06 11.65L138.16 11.74Q145.70 11.90 148.82 14.26L148.69 14.13L148.69 14.13Q150.99 16.38 150.72 21.30L150.66 21.24L150.71 21.28Q150.41 24.83 150.22 26.17L150.19 26.13L150.19 26.14Q149.59 30.68 147.27 33.00L147.38 33.11L147.26 32.99Q148.76 34.26 151.50 36.73ZM146.69 12.51L146.56 12.38L146.64 12.46Q144.67 11.78 138.16 11.29L138.15 11.27L138.13 11.25Q136.67 11.21 133.89 11.32L134.03 11.46L133.92 11.35Q129.78 11.66 127.53 13.64L127.52 13.62L127.54 13.65Q125.88 15.11 125.88 18.27L125.88 18.27L125.75 18.14Q125.85 19.08 126.01 20.80L125.91 20.70L126.06 20.85Q126.04 22.39 126.04 23.27L126.20 23.42L126.15 23.37Q126.19 25.01 126.57 28.59L126.61 28.63L126.72 28.74Q126.93 31.47 128.53 33.52L128.62 33.61L128.55 33.54Q129.04 34.53 130.26 35.67L130.11 35.52L130.20 35.61Q132.94 37.63 138.12 37.90L138.02 37.80L138.16 37.94Q138.40 37.84 140.80 37.95L140.77 37.92L140.84 37.99Q145.54 38.04 147.82 36.97L147.89 37.05L147.92 37.07Q148.74 37.70 153.46 41.28L153.43 41.25L153.59 41.42Q154.07 40.75 155.36 39.76L155.43 39.82L155.39 39.79Q154.50 39.08 153.70 38.40L153.80 38.50L151.99 36.88L152.14 36.88L152.23 36.97Q151.61 36.47 150.40 35.44L150.33 35.37L150.40 35.44Q152.27 32.89 152.27 28.36L152.33 28.42L152.34 28.44Q152.20 27.87 152.23 27.04L152.24 27.04L152.29 27.10Q152.36 26.29 152.36 25.87L152.33 25.84L152.35 25.86Q152.39 20.38 151.67 18.02L151.59 17.94L151.67 18.02Q151.22 16.66 150.34 15.59L150.47 15.72L150.32 15.57Q149.50 13.41 146.57 12.39ZM140.58 16.99L140.65 17.05L140.54 16.94Q144.66 16.91 146.49 18.51L146.47 18.50L146.61 18.63Q147.18 19.85 147.30 21.19L147.22 21.11L147.23 21.12Q147.33 22.40 147.26 23.77L147.22 23.74L147.14 23.66Q146.96 28.77 145.02 30.48L145.00 30.46L145.02 30.49Q143.73 29.19 141.21 26.45L141.20 26.43L141.08 26.31Q140.31 27.07 138.75 28.63L138.86 28.74L138.78 28.65Q139.41 29.32 140.55 30.50L140.42 30.38L140.49 30.55L140.37 30.44Q141.05 31.08 142.08 32.15L142.05 32.11L141.94 32.01Q141.06 32.39 138.74 32.69L138.62 32.57L138.17 32.66L137.84 32.74L137.69 32.63L137.77 32.71Q134.24 32.64 132.26 31.01L132.38 31.12L132.23 30.98Q131.17 28.86 131.21 25.74L131.25 25.77L131.27 25.79Q131.47 17.12 140.64 17.04Z"/><path d="M7 15 C99 19,93 21,191 21" stroke="#777" fill="none"/><path fill="#333" d="M103.54 10.81L103.54 10.82L103.64 10.92Q105.59 15.83 106.16 21.01L106.08 20.93L106.12 20.97Q109.71 16.72 115.62 11.89L115.59 11.87L115.75 12.03Q118.94 11.71 121.57 10.92L121.58 10.93L114.96 16.49L114.95 16.48Q111.42 19.30 108.56 22.16L108.59 22.18L108.64 22.23Q116.67 31.45 121.73 36.17L121.73 36.17L121.75 36.18Q118.66 35.26 116.34 35.11L116.26 35.03L116.31 35.08Q110.43 29.59 106.13 23.76L106.18 23.82L106.19 23.82Q106.22 30.36 104.36 35.69L104.35 35.69L104.52 35.86Q104.24 35.84 103.75 36.03L103.61 35.90L103.72 36.20L103.58 36.06Q103.49 36.19 100.93 37.11L100.91 37.08L100.84 37.01Q103.82 30.47 103.47 23.01L103.61 23.14L103.53 23.06Q103.30 15.83 99.76 9.32L99.71 9.27L100.26 9.55L100.63 9.81L100.59 9.73L100.65 9.79Q101.31 10.11 103.52 10.80ZM103.93 10.64L103.82 10.52L103.87 10.57Q101.49 9.91 98.86 8.38L99.03 8.55L98.93 8.45Q103.29 15.82 103.29 24.77L103.32 24.80L103.29 24.76Q103.28 31.76 100.31 37.81L100.29 37.79L102.23 36.84L102.34 36.95Q101.88 37.90 101.20 39.20L101.31 39.31L101.14 39.14Q103.40 38.35 105.34 37.93L105.51 38.11L105.56 37.92L105.48 37.85Q105.75 37.81 106.32 37.66L106.34 37.68L106.33 37.67Q108.04 31.80 108.15 27.00L108.04 26.89L108.02 26.87Q110.27 29.54 112.10 31.40L112.08 31.39L111.97 31.28Q113.10 32.33 116.11 35.30L116.12 35.32L116.14 35.33L116.25 35.45Q117.30 36.31 119.17 37.90L119.16 37.89L119.11 37.85Q122.92 38.49 126.38 40.21L126.39 40.22L126.40 40.22Q117.24 31.79 111.00 24.36L110.86 24.23L110.99 24.35Q115.28 19.97 124.04 11.37L124.09 11.42L124.07 11.40Q121.48 12.50 119.46 12.88L119.43 12.85L119.52 12.94Q120.64 11.85 122.96 9.83L123.03 9.91L122.95 9.82Q118.91 11.30 115.56 11.49L115.49 11.42L115.52 11.45Q112.69 13.76 107.82 18.45L107.70 18.33L107.87 18.50Q107.49 15.91 106.92 13.36L106.81 13.25L106.86 13.30Q105.68 13.15 104.69 12.81L104.57 12.69L104.58 12.69Q104.36 11.94 103.79 10.50Z"/></svg>