<svg xmlns="http://www.w3.org/2000/svg" width="200" height="40" viewBox="0,0,200,40"><path d="M5 29 C115 27,108 35,196 4" stroke="#444" fill="none"/><path fill="#333" d="M50.93 25.70L50.93 25.71L50.94 25.72Q50.78 25.55 54.17 25.52L54.33 25.68L54.22 25.57Q56.55 25.62 57.62 25.65L57.64 25.67L57.65 25.68Q56.62 22.83 54.18 17.19L54.16 17.17L54.18 17.19Q53.58 18.57 52.54 21.43L52.47 21.36L52.58 21.47Q51.36 24.16 50.79 25.57ZM58.76 28.16L58.70 28.10L58.61 28.02Q56.41 28.06 54.20 28.10L54.27 28.17L54.17 28.06Q51.93 28.11 49.64 28.30L49.67 28.33L49.77 28.42Q48.07 31.67 44.83 35.86L44.92 35.95L44.93 35.96Q42.26 36.49 40.89 36.98L40.93 37.02L40.98 37.07Q46.13 31.45 50.82 18.09L50.87 18.14L50.88 18.16Q52.04 14.63 53.41 11.39L53.40 11.38L53.41 11.39Q53.72 11.40 54.06 11.40L53.96 11.30L54.73 11.35L54.74 11.36Q55.52 12.74 60.35 24.39L60.34 24.38L60.43 24.47Q63.57 32.17 67.57 36.32L67.70 36.46L67.68 36.44Q67.15 36.29 63.27 35.41L63.19 35.34L63.14 35.29Q60.67 32.25 58.69 28.10ZM63.11 35.68L63.16 35.73L63.74 35.81L63.70 35.77Q64.09 35.93 64.39 36.04L64.38 36.03L64.22 35.87Q64.61 36.30 66.44 38.32L66.46 38.34L66.38 38.26Q70.15 39.29 72.55 40.32L72.48 40.25L72.39 40.16Q67.07 35.79 63.07 27.79L63.02 27.74L62.92 27.64Q61.39 24.44 59.94 20.48L60.02 20.55L57.22 12.99L57.11 12.88Q56.96 13.08 56.73 13.08L56.61 12.96L56.25 13.13L56.07 12.95Q55.79 12.37 55.07 11.00L55.12 11.04L55.04 10.97Q54.63 11.09 54.18 11.06L54.12 11.00L54.04 10.92Q53.54 10.84 53.01 10.84L53.07 10.91L53.12 10.95Q51.75 14.91 47.86 25.07L47.82 25.03L47.86 25.07Q44.70 32.99 40.06 37.79L40.15 37.88L40.00 37.73Q41.12 37.40 43.13 36.79L43.10 36.75L43.17 36.82Q42.30 37.59 40.74 39.38L40.77 39.41L40.84 39.48Q42.54 38.82 46.46 38.06L46.45 38.04L46.46 38.06Q49.84 33.67 51.40 30.44L51.45 30.49L51.43 30.47Q53.10 30.27 55.42 30.31L55.49 30.37L55.41 30.30Q58.21 30.40 59.59 30.48L59.63 30.52L59.57 30.46Q60.76 32.75 63.12 35.68ZM55.45 21.05L55.43 21.03L55.51 21.11Q56.30 23.12 57.06 25.21L57.02 25.17L53.77 25.23L53.85 25.31Q54.45 23.90 55.52 21.12Z"/><path fill="#222" d="M141.74 34.91L141.72 34.89L139.81 34.92L139.76 34.88Q138.87 34.93 137.92 35.05L137.75 34.88L137.77 34.90Q138.37 28.72 138.37 24.72L138.43 24.79L138.32 24.67Q134.46 18.11 126.80 9.43L126.71 9.33L126.84 9.47Q128.49 10.31 131.84 11.11L131.97 11.24L132.00 11.28Q137.04 16.85 140.05 22.07L139.97 21.99L140.04 22.05Q142.96 16.41 147.33 11.38L147.37 11.42L147.33 11.37Q149.85 11.09 152.37 10.29L152.24 10.16L152.27 10.19Q146.28 16.34 141.41 24.76L141.46 24.81L141.29 24.63Q141.35 31.74 141.65 34.82ZM150.69 12.19L153.47 9.41L153.38 9.32Q150.38 10.58 147.26 11.04L147.29 11.07L147.22 11.00Q143.06 15.79 140.24 20.89L140.29 20.94L140.19 20.84Q138.03 17.16 134.83 13.27L134.84 13.28L134.90 13.34Q134.72 13.43 134.23 13.35L134.22 13.34L134.21 13.34Q133.35 12.36 131.83 10.69L131.88 10.74L131.99 10.85Q128.57 10.05 125.60 8.49L125.50 8.39L125.63 8.53Q133.37 17.02 138.13 24.94L138.07 24.89L138.07 24.88Q138.02 31.27 137.41 35.41L137.25 35.26L137.25 35.25Q138.07 35.31 139.51 35.20L139.54 35.22L139.61 36.32L139.64 36.35Q139.49 36.66 139.42 37.20L139.49 37.27L139.57 37.34Q143.01 37.25 144.76 37.44L144.68 37.36L144.77 37.45Q143.52 32.77 143.40 26.79L143.33 26.71L143.33 26.72Q147.75 18.31 154.30 10.96L154.32 10.98L150.77 12.27Z"/><path fill="#333" d="M28.50 34.81L28.55 34.86L26.65 34.90L26.54 34.79Q25.60 34.81 24.65 34.92L24.70 34.97L24.60 34.88Q25.23 28.72 25.23 24.73L25.35 24.85L25.34 24.84Q21.21 18.00 13.55 9.32L13.63 9.40L13.70 9.47Q15.40 10.37 18.75 11.17L18.86 11.28L18.77 11.19Q23.92 16.88 26.93 22.09L26.88 22.03L26.92 22.08Q29.84 16.43 34.22 11.41L34.34 11.53L34.17 11.36Q36.67 11.04 39.18 10.24L39.17 10.23L39.23 10.29Q33.08 16.28 28.20 24.70L28.17 24.67L28.16 24.66Q28.27 31.81 28.58 34.89ZM37.62 12.26L40.40 9.48L40.35 9.43Q37.19 10.53 34.07 10.99L34.21 11.14L34.21 11.13Q29.87 15.74 27.06 20.84L27.12 20.91L27.14 20.92Q25.00 17.27 21.81 13.39L21.67 13.25L21.85 13.43Q21.50 13.35 21.01 13.27L20.97 13.24L21.07 13.34Q20.30 12.45 18.77 10.77L18.75 10.75L18.72 10.72Q15.43 10.06 12.46 8.49L12.41 8.44L12.46 8.49Q20.08 16.88 24.84 24.80L24.97 24.93L24.89 24.85Q24.74 31.13 24.13 35.28L24.16 35.31L24.17 35.32Q25.04 35.42 26.48 35.31L26.31 35.13L26.34 36.19L26.43 36.29Q26.31 36.62 26.23 37.15L26.26 37.18L26.32 37.24Q29.80 37.18 31.55 37.37L31.54 37.36L31.55 37.37Q30.26 32.66 30.15 26.68L30.15 26.68L30.34 26.87Q34.56 18.26 41.11 10.91L41.21 11.01L37.55 12.19Z"/><path fill="#111" d="M73.86 9.33L73.76 9.23L73.78 9.24Q77.65 11.86 82.41 12.09L82.40 12.08L82.40 12.08Q86.98 12.20 91.24 10.45L91.21 10.43L91.29 10.50Q90.98 10.99 90.22 13.77L90.19 13.74L90.31 13.87Q87.62 14.94 84.65 15.10L84.52 14.96L84.61 15.05Q81.56 15.12 78.66 14.40L78.68 14.41L78.81 14.54Q79.30 17.96 79.49 21.61L79.63 21.76L79.65 21.78Q81.62 21.96 83.22 21.92L83.20 21.90L83.14 21.85Q84.49 21.97 86.89 21.86L86.87 21.85L86.77 21.74Q86.74 22.39 86.74 23.08L86.74 23.08L86.78 24.46L86.74 24.42Q84.46 24.53 79.66 24.61L79.68 24.63L79.60 24.54Q79.50 28.56 78.93 32.55L79.03 32.65L78.93 32.56Q81.62 31.97 84.36 32.08L84.29 32.02L84.32 32.05Q87.04 32.14 89.63 32.98L89.65 33.00L89.75 33.10Q89.83 33.90 90.10 34.67L89.95 34.51L90.42 36.05L90.46 36.09Q87.32 34.85 83.89 34.85L83.83 34.79L83.81 34.77Q78.88 34.71 74.61 36.96L74.73 37.08L74.67 37.01Q76.98 30.19 76.71 23.07L76.70 23.06L76.87 23.22Q76.55 16.01 73.88 9.35ZM74.30 37.86L74.25 37.81L74.17 37.73Q75.39 36.97 76.15 36.63L76.27 36.74L76.33 36.81Q75.98 37.41 75.41 38.93L75.53 39.05L75.47 38.99Q80.00 37.01 85.06 37.28L85.16 37.38L85.03 37.24Q90.30 37.65 94.30 40.35L94.20 40.25L94.18 40.23Q93.10 37.78 92.42 35.84L92.37 35.80L92.35 35.77Q91.48 35.28 90.49 34.94L90.36 34.81L90.46 34.91Q89.96 33.42 89.80 32.62L89.92 32.73L89.87 32.68Q86.79 31.70 83.63 31.70L83.71 31.77L83.72 31.78Q82.44 31.65 81.29 31.76L81.25 31.71L81.27 31.74Q81.35 30.45 81.39 29.23L81.44 29.28L81.66 26.91L81.58 26.83Q83.49 26.84 85.28 26.88L85.20 26.79L85.08 26.68Q87.07 26.88 88.86 27.03L88.74 26.91L88.78 26.95Q88.75 26.04 88.75 25.09L88.71 25.05L88.71 23.15L87.88 23.19L87.96 23.27Q87.59 23.39 87.13 23.39L87.07 23.34L87.12 23.38Q87.14 22.72 87.29 21.42L87.20 21.33L87.18 21.32Q85.51 21.47 84.33 21.51L84.35 21.53L84.49 21.67Q83.38 21.52 81.56 21.44L81.56 21.44L81.62 21.50Q81.49 20.04 81.30 17.22L81.32 17.24L81.29 17.21Q82.43 17.44 83.42 17.44L83.48 17.50L83.34 17.36Q88.02 17.32 91.72 15.42L91.89 15.60L91.76 15.46Q92.28 13.05 93.15 10.84L93.24 10.93L93.25 10.94Q91.91 11.77 91.07 12.11L90.99 12.03L91.06 12.10Q91.39 11.36 91.85 9.80L91.82 9.77L91.81 9.77Q87.23 11.96 82.36 11.65L82.41 11.71L82.43 11.72Q76.99 11.28 73.14 8.42L73.15 8.43L73.28 8.56Q76.04 15.39 76.34 23.00L76.34 23.00L76.36 23.02Q76.76 31.04 74.25 37.81Z"/><path fill="#111" d="M164.10 35.32L164.22 35.44L164.19 35.42Q160.16 35.68 159.17 33.36L159.16 33.35L159.06 33.25Q159.89 32.37 161.45 30.58L161.47 30.60L161.36 30.49Q161.98 32.63 164.99 32.75L165.00 32.76L164.98 32.74Q168.37 32.82 170.01 31.49L169.90 31.38L169.85 31.33Q171.32 29.79 171.25 27.09L171.22 27.06L171.18 27.02Q171.17 22.11 166.38 22.33L166.37 22.33L166.29 22.25Q163.59 22.52 161.84 23.78L161.78 23.71L161.48 23.57L161.23 23.39L161.22 23.38Q161.47 20.13 161.35 17.39L161.46 17.49L161.51 17.55Q161.32 14.84 160.98 11.53L161.02 11.57L160.94 11.50Q164.67 12.52 168.48 12.41L168.50 12.43L168.41 12.34Q172.30 12.35 175.88 11.09L175.92 11.13L175.35 12.65L175.37 12.68Q174.88 13.25 174.69 14.09L174.71 14.10L174.86 14.26Q171.60 15.14 167.71 15.14L167.69 15.12L167.69 15.12Q166.24 15.12 164.76 14.96L164.90 15.11L164.81 15.02Q164.71 15.68 164.37 20.14L164.45 20.22L164.37 20.13Q165.25 19.72 167.30 19.57L167.39 19.66L167.36 19.62Q171.10 19.86 172.54 21.53L172.41 21.40L172.45 21.44Q173.95 23.09 174.21 26.93L174.07 26.80L174.16 26.89Q174.38 31.02 173.16 33.04L173.23 33.11L173.24 33.12Q171.07 34.87 167.75 35.10L167.80 35.14L167.95 35.29Q166.76 35.16 164.09 35.31ZM170.28 37.73L170.19 37.64L170.12 37.58Q173.71 37.81 175.61 36.71L175.64 36.74L175.63 36.73Q176.53 35.12 176.53 33.02L176.44 32.93L176.57 33.06Q176.43 29.84 175.48 25.73L175.64 25.89L175.53 25.78Q175.21 24.09 173.99 22.68L173.89 22.58L174.07 22.79L173.83 22.48L173.53 22.33L173.42 22.22Q173.16 21.54 172.51 20.86L172.52 20.87L172.52 20.90L172.43 20.81Q170.93 19.16 167.24 19.16L167.31 19.23L166.98 19.17L167.01 19.20Q167.00 18.54 167.19 17.43L167.22 17.47L167.27 17.52Q172.21 17.59 176.25 15.95L176.37 16.07L176.36 16.06Q176.80 14.67 177.75 11.86L177.61 11.72L175.48 12.63L175.63 12.78Q175.92 11.55 176.42 10.41L176.43 10.42L176.37 10.36Q172.56 11.84 168.45 11.92L168.55 12.02L168.56 12.03Q164.30 12.00 160.34 10.89L160.41 10.96L160.45 11.00Q161.21 15.49 161.21 19.91L161.14 19.84L161.19 19.89Q161.14 21.75 161.03 23.65L161.01 23.63L160.94 23.56Q161.31 23.86 161.88 24.16L161.90 24.17L161.83 24.11Q162.21 23.92 162.86 23.57L162.85 23.57L162.83 23.55Q162.85 24.36 162.62 25.89L162.50 25.77L162.53 25.80Q163.00 26.04 163.42 26.27L163.49 26.34L163.48 26.33Q166.12 24.43 167.98 24.43L168.12 24.57L168.04 24.49Q169.31 24.43 170.49 25.08L170.64 25.22L170.58 25.17Q170.92 26.20 170.96 27.15L170.89 27.07L170.88 27.07Q171.02 29.72 170.00 30.83L169.89 30.72L170.04 30.87Q168.68 32.10 166.43 32.33L166.42 32.32L166.46 32.36Q165.43 32.35 164.75 32.28L164.82 32.35L164.72 32.25Q163.85 32.10 163.09 31.76L163.07 31.74L163.15 31.63L162.94 31.65L162.92 31.64Q162.14 31.15 161.60 29.82L161.57 29.78L161.69 29.91Q160.32 31.28 158.65 33.41L158.71 33.47L158.68 33.44Q158.98 34.09 159.82 35.04L159.70 34.92L159.83 35.05Q160.81 36.80 163.63 37.29L163.74 37.40L163.70 37.36Q164.92 37.63 170.29 37.74Z"/><path d="M3 16 C94 24,97 39,192 10" stroke="#555" fill="none"/><path fill="#333" d="M107.75 24.73L107.66 24.65L107.76 24.74Q107.75 29.00 107.02 33.14L106.89 33.01L106.86 32.98Q109.14 32.44 112.22 32.33L112.26 32.37L112.21 32.32Q113.64 32.60 114.70 31.59L114.58 31.47L114.64 31.53Q115.74 30.56 115.74 29.22L115.82 29.30L115.73 29.21Q115.72 28.90 115.69 28.63L115.77 28.72L115.64 28.59Q115.63 25.80 113.38 24.96L113.26 24.84L113.28 24.85Q112.53 24.56 111.84 24.64L111.78 24.58L111.92 24.72Q110.79 24.58 109.76 24.62L109.68 24.53L109.71 24.56Q108.78 24.74 107.75 24.74ZM106.36 14.13L106.43 14.20L106.46 14.23Q107.28 17.49 107.55 21.86L107.57 21.89L107.61 21.92Q109.10 22.08 111.76 22.12L111.77 22.13L111.75 22.11Q114.55 22.02 114.89 18.48L115.03 18.61L115.04 18.62Q115.16 16.61 113.75 15.77L113.75 15.78L113.72 15.74Q112.74 15.14 108.33 14.50L108.51 14.69L108.42 14.59Q107.36 14.45 106.45 14.22ZM102.74 37.04L102.88 37.18L102.70 37.01Q105.20 30.36 104.93 22.98L105.06 23.10L105.01 23.06Q104.60 15.64 101.66 9.17L101.80 9.31L101.82 9.33Q105.53 11.78 111.76 12.03L111.86 12.13L111.74 12.01Q118.10 12.40 118.44 15.29L118.33 15.17L118.33 15.18Q118.69 17.97 117.28 20.64L117.21 20.57L117.31 20.66Q116.46 22.06 114.86 22.74L114.89 22.77L115.02 22.90Q118.50 23.41 118.72 28.78L118.79 28.84L118.85 28.91Q118.83 29.92 118.76 31.32L118.78 31.34L118.76 31.32Q118.86 32.80 117.93 33.73L117.92 33.72L117.78 33.59Q116.91 34.58 115.58 34.73L115.62 34.78L115.63 34.78Q114.12 34.83 113.05 34.83L113.13 34.91L113.08 34.86Q107.27 34.76 102.74 37.05ZM115.51 37.33L115.48 37.30L115.67 37.49Q116.44 37.38 118.31 37.50L118.36 37.55L118.40 37.59Q119.74 37.56 120.84 36.68L120.99 36.83L120.95 36.79Q121.69 35.81 121.57 34.25L121.50 34.19L121.51 34.20Q121.43 33.24 120.71 29.77L120.80 29.86L120.83 29.89Q120.04 26.56 118.18 25.07L118.28 25.17L117.81 24.28L117.74 24.22Q119.58 22.97 120.15 19.20L120.12 19.17L120.08 19.13Q120.24 18.00 120.16 16.59L120.20 16.62L120.09 16.51Q120.11 15.28 119.01 14.44L119.07 14.51L118.97 14.41Q118.62 14.17 118.51 14.13L118.50 14.12L118.59 14.22Q118.22 13.58 117.39 12.78L117.51 12.91L117.39 12.79Q115.93 11.79 111.70 11.60L111.74 11.63L111.81 11.70Q105.04 11.29 101.04 8.39L101.04 8.39L101.13 8.49Q104.35 15.44 104.66 22.98L104.76 23.08L104.76 23.08Q105.13 30.95 102.32 37.88L102.30 37.86L104.18 36.73L104.24 36.80Q103.90 37.97 103.40 39.11L103.44 39.15L103.31 39.02Q107.72 37.26 112.74 37.26L112.65 37.17L112.72 37.24Q114.12 37.23 115.57 37.39ZM113.52 26.93L113.48 26.88L113.38 26.78Q114.18 26.78 115.09 27.24L115.08 27.22L115.15 27.30Q115.13 27.51 115.28 28.57L115.32 28.61L115.42 28.71Q115.59 30.06 114.66 31.11L114.70 31.15L114.59 31.04Q113.70 32.13 112.29 32.01L112.32 32.05L110.87 32.19L110.88 32.21Q110.06 32.18 109.33 32.29L109.21 32.17L109.36 32.32Q109.62 30.45 109.70 26.99L109.77 27.06L109.75 27.04Q110.27 26.84 111.53 26.80L111.56 26.83L111.61 26.88Q112.80 26.78 113.41 26.81ZM112.35 17.19L112.45 17.29L112.73 17.19L112.74 17.20Q113.01 17.24 113.20 17.28L113.29 17.37L113.57 17.26L113.90 17.40L114.63 17.60L114.49 17.46Q114.68 17.80 114.68 18.11L114.68 18.11L114.60 18.56L114.68 18.65Q114.58 19.80 113.71 20.73L113.79 20.82L113.73 20.76Q112.85 21.69 111.63 21.69L111.58 21.63L111.75 21.80Q110.67 21.75 110.67 21.75L110.67 21.75L110.71 21.79Q109.32 21.70 109.66 21.70L109.62 21.66L109.68 21.71Q109.63 20.18 109.33 17.14L109.32 17.13L109.29 17.10Q110.96 17.32 112.48 17.32Z"/></svg>