<svg xmlns="http://www.w3.org/2000/svg" width="200" height="40" viewBox="0,0,200,40"><path fill="#222" d="M64.27 18.03L64.21 17.97L64.34 18.10Q62.45 20.74 59.79 26.38L59.89 26.48L57.92 30.76L57.85 30.68Q56.87 32.48 55.54 34.73L55.56 34.75L55.66 34.85Q56.03 34.76 54.35 34.80L54.45 34.89L54.39 34.84Q54.32 34.77 53.07 34.77L53.07 34.77L53.07 34.77Q52.40 33.34 49.46 26.18L49.44 26.16L49.47 26.19Q47.26 20.77 45.16 17.77L45.15 17.75L45.32 17.92Q45.93 20.85 45.93 24.01L46.06 24.15L46.05 24.13Q46.03 30.63 43.06 36.19L43.11 36.23L42.96 36.08Q41.64 36.44 39.28 37.16L39.24 37.12L39.38 37.26Q43.11 31.63 43.11 24.39L43.02 24.31L42.99 24.27Q43.06 15.39 37.65 8.43L37.56 8.34L37.63 8.41Q39.17 9.03 41.53 9.72L41.59 9.77L41.52 9.71Q48.63 16.51 54.72 29.83L54.72 29.84L54.72 29.84Q58.26 22.87 60.47 19.37L60.47 19.37L60.50 19.40Q64.09 13.62 68.05 10.16L67.90 10.01L68.07 10.18Q69.26 9.89 71.62 9.13L71.70 9.20L71.66 9.16Q66.67 15.78 66.67 24.38L66.58 24.30L66.66 24.38Q66.58 30.96 70.00 36.48L70.01 36.49L70.12 36.60Q68.75 36.25 66.01 35.64L66.00 35.63L65.89 35.52Q63.61 30.80 63.61 24.83L63.55 24.77L63.65 24.88Q63.63 21.42 64.31 18.07ZM65.79 35.99L65.81 36.02L65.69 35.90Q66.44 36.07 67.88 36.34L67.90 36.35L67.83 36.29Q68.42 37.18 69.37 38.67L69.34 38.63L69.38 38.67Q71.50 39.07 74.96 40.29L74.97 40.30L75.01 40.35Q68.60 33.86 68.60 24.04L68.69 24.12L68.70 24.13Q68.64 16.35 73.02 10.22L73.01 10.21L70.82 10.91L70.90 10.99Q71.76 9.30 72.40 8.42L72.57 8.59L72.47 8.49Q70.71 9.24 68.08 9.77L68.02 9.71L67.95 9.64Q61.29 15.85 55.24 28.45L55.10 28.31L55.25 28.46Q49.91 17.34 44.97 12.09L44.96 12.08L44.97 12.09Q44.56 11.99 43.99 11.87L44.09 11.97L42.77 10.57L42.77 10.58Q42.38 10.11 41.70 9.50L41.53 9.34L41.53 9.34Q38.49 8.35 36.70 7.63L36.83 7.75L36.86 7.79Q42.83 14.98 42.83 24.38L42.69 24.24L42.82 24.37Q42.67 31.83 38.52 37.69L38.61 37.78L38.65 37.82Q39.39 37.65 40.68 37.23L40.59 37.14L40.60 37.15Q40.53 37.46 39.12 39.55L39.03 39.46L39.01 39.44Q40.84 38.99 44.34 38.23L44.40 38.28L44.31 38.19Q48.10 31.21 47.91 23.45L47.93 23.46L47.92 23.46Q49.38 27.39 52.84 35.27L52.85 35.28L52.81 35.24Q53.08 35.20 53.31 35.20L53.28 35.17L53.79 35.14L53.83 35.19Q54.38 35.97 55.18 37.26L55.14 37.22L55.11 37.20Q56.67 37.12 56.67 37.12L56.69 37.13L56.78 37.23Q57.67 37.09 58.32 37.17L58.44 37.29L58.36 37.20Q59.90 33.15 63.25 25.15L63.32 25.23L63.40 25.31Q63.12 30.58 65.70 35.91Z"/><path d="M3 29 C83 34,117 23,184 36" stroke="#333" fill="none"/><path d="M7 28 C81 6,99 36,179 19" stroke="#777" fill="none"/><path fill="#333" d="M107.61 24.60L107.72 24.70L107.68 24.66Q107.74 28.99 107.02 33.14L107.01 33.13L106.89 33.01Q109.22 32.53 112.31 32.41L112.33 32.43L112.29 32.39Q113.51 32.47 114.57 31.46L114.70 31.59L114.75 31.64Q115.73 30.54 115.73 29.21L115.82 29.30L115.74 29.22Q115.73 28.91 115.69 28.64L115.79 28.74L115.74 28.69Q115.52 25.69 113.27 24.85L113.36 24.94L113.26 24.84Q112.47 24.50 111.78 24.58L111.88 24.68L111.95 24.74Q110.80 24.58 109.77 24.62L109.70 24.56L109.83 24.69Q108.59 24.55 107.56 24.55ZM106.36 14.13L106.43 14.20L106.54 14.31Q107.31 17.51 107.57 21.89L107.57 21.89L107.62 21.94Q109.01 22.00 111.68 22.03L111.69 22.05L111.75 22.11Q114.70 22.17 115.05 18.63L115.06 18.64L114.94 18.52Q115.06 16.51 113.66 15.68L113.72 15.74L113.67 15.70Q112.78 15.19 108.37 14.54L108.41 14.58L108.45 14.62Q107.37 14.45 106.45 14.22ZM102.81 37.12L102.78 37.08L102.89 37.19Q105.32 30.49 105.05 23.10L105.00 23.05L105.02 23.07Q104.59 15.64 101.66 9.17L101.72 9.22L101.77 9.28Q105.56 11.81 111.78 12.06L111.70 11.97L111.85 12.12Q118.08 12.38 118.43 15.27L118.44 15.28L118.42 15.27Q118.74 18.02 117.33 20.69L117.21 20.56L117.36 20.72Q116.47 22.07 114.87 22.75L114.90 22.79L114.98 22.87Q118.57 23.49 118.80 28.86L118.88 28.94L118.87 28.92Q118.96 30.04 118.88 31.45L118.77 31.34L118.77 31.33Q118.77 32.71 117.84 33.64L117.76 33.56L117.78 33.58Q116.84 34.51 115.51 34.67L115.55 34.71L115.54 34.69Q114.04 34.76 112.98 34.76L113.07 34.85L113.04 34.82Q107.24 34.73 102.71 37.02ZM115.64 37.46L115.55 37.36L115.53 37.35Q116.58 37.52 118.45 37.64L118.39 37.58L118.35 37.54Q119.88 37.70 120.98 36.82L120.87 36.71L120.85 36.69Q121.71 35.84 121.59 34.27L121.66 34.34L121.68 34.36Q121.44 33.25 120.72 29.78L120.79 29.85L120.80 29.87Q120.09 26.60 118.22 25.12L118.31 25.20L117.92 24.40L117.91 24.39Q119.49 22.88 120.06 19.11L120.05 19.10L120.04 19.09Q120.20 17.96 120.12 16.55L120.08 16.50L120.22 16.65Q120.17 15.34 119.06 14.50L119.10 14.53L118.91 14.34Q118.62 14.17 118.51 14.13L118.48 14.10L118.61 14.24Q118.40 13.76 117.56 12.96L117.39 12.79L117.47 12.87Q115.89 11.75 111.66 11.55L111.71 11.60L111.73 11.62Q105.03 11.28 101.03 8.39L101.16 8.51L101.21 8.56Q104.35 15.44 104.66 22.97L104.63 22.95L104.77 23.09Q104.95 30.77 102.13 37.70L102.23 37.79L104.29 36.85L104.31 36.87Q103.86 37.94 103.37 39.08L103.38 39.09L103.42 39.14Q107.75 37.29 112.77 37.29L112.81 37.33L112.64 37.16Q114.10 37.21 115.55 37.37ZM113.40 26.80L113.48 26.88L113.39 26.79Q114.13 26.73 115.04 27.19L115.15 27.30L115.13 27.28Q115.23 27.61 115.38 28.67L115.41 28.70L115.40 28.69Q115.64 30.11 114.71 31.16L114.56 31.01L114.59 31.04Q113.73 32.16 112.32 32.05L112.30 32.03L110.75 32.07L110.78 32.10Q109.94 32.06 109.22 32.18L109.32 32.28L109.30 32.26Q109.70 30.52 109.77 27.06L109.68 26.97L109.73 27.02Q110.36 26.92 111.61 26.88L111.64 26.91L111.49 26.76Q112.77 26.74 113.38 26.78ZM112.50 17.34L112.49 17.33L112.89 17.35L112.72 17.18Q112.97 17.20 113.16 17.23L113.25 17.32L113.52 17.22L114.01 17.52L114.54 17.52L114.60 17.57Q114.59 17.71 114.59 18.02L114.64 18.07L114.66 18.62L114.58 18.55Q114.56 19.78 113.68 20.71L113.83 20.85L113.71 20.74Q112.84 21.67 111.62 21.67L111.69 21.75L111.71 21.76Q110.56 21.65 110.56 21.65L110.67 21.76L110.60 21.69Q109.34 21.72 109.69 21.72L109.70 21.74L109.66 21.69Q109.62 20.17 109.31 17.12L109.21 17.02L109.25 17.06Q110.93 17.29 112.45 17.29Z"/><path fill="#444" d="M80.94 34.98L80.83 34.87L80.80 34.84Q76.63 34.29 74.80 32.84L74.89 32.93L74.84 32.89Q72.99 31.41 72.57 28.40L72.55 28.38L72.64 28.47Q72.66 28.15 72.31 23.39L72.29 23.36L72.18 23.25Q72.34 22.19 72.26 20.94L72.26 20.93L72.15 20.82Q72.04 15.85 74.25 14.09L74.23 14.07L74.19 14.04Q76.90 11.99 84.67 11.31L84.64 11.28L84.76 11.40Q85.96 11.11 87.60 11.15L87.63 11.18L87.71 11.26Q87.66 11.21 90.63 11.21L90.54 11.12L90.54 11.12Q91.53 11.27 93.24 11.43L93.19 11.38L93.09 11.27Q92.74 12.37 91.71 15.45L91.64 15.38L91.60 15.34Q89.52 14.13 86.51 14.13L86.48 14.10L86.50 14.13Q85.88 14.27 85.08 14.35L84.94 14.20L85.01 14.27Q79.96 14.78 77.44 16.76L77.29 16.60L77.43 16.74Q75.42 18.35 75.27 21.70L75.28 21.71L75.25 21.69Q75.07 22.15 75.11 23.40L75.13 23.42L75.27 23.56Q75.37 28.39 77.77 30.49L77.81 30.52L77.80 30.51Q79.98 32.46 84.96 32.76L84.80 32.60L84.91 32.71Q87.96 32.79 90.97 31.00L90.93 30.97L91.07 31.10Q91.52 33.69 92.13 35.06L92.22 35.14L92.22 35.15Q90.23 35.51 88.59 35.48L88.54 35.43L88.49 35.38Q84.08 35.39 80.96 35.01ZM96.01 38.67L95.97 38.63L95.98 38.64Q94.15 35.59 93.46 33.00L93.44 32.98L93.59 33.13Q93.09 33.31 92.10 33.69L92.15 33.75L92.16 33.76Q91.83 32.97 91.64 32.13L91.56 32.05L91.14 30.30L91.11 30.27Q87.92 32.41 84.80 32.30L84.83 32.33L84.75 32.25Q80.50 32.07 78.18 30.32L78.30 30.44L78.15 30.29Q77.14 28.60 77.22 25.67L77.12 25.57L77.24 25.68Q77.33 21.14 79.81 19.00L79.71 18.90L79.85 19.05Q81.87 17.03 86.55 16.42L86.60 16.47L86.65 16.52Q87.38 16.33 88.10 16.33L88.01 16.25L88.06 16.29Q90.81 16.27 92.91 17.79L92.94 17.82L92.94 17.82Q93.50 15.76 94.72 12.52L94.67 12.47L94.64 12.44Q94.51 12.58 93.96 12.52L93.96 12.52L93.90 12.46Q93.35 12.41 93.08 12.41L93.01 12.33L93.16 12.48Q93.34 11.94 93.79 10.95L93.74 10.90L93.61 10.77Q93.42 10.81 90.93 10.73L91.05 10.85L91.00 10.80Q88.57 10.79 87.93 10.83L87.80 10.70L87.86 10.76Q77.29 11.04 73.82 13.63L73.87 13.68L73.78 13.59Q71.93 15.58 71.93 19.50L71.79 19.36L71.92 19.49Q71.81 20.49 71.92 23.19L72.06 23.33L72.01 23.27Q72.09 26.78 72.32 28.50L72.35 28.53L72.37 28.55Q72.67 31.59 74.27 33.11L74.32 33.16L74.27 33.11Q74.73 33.76 75.99 34.91L75.96 34.88L76.08 35.00Q79.34 36.77 84.59 37.53L84.64 37.58L84.49 37.43Q91.04 38.50 96.03 38.69Z"/><path fill="#333" d="M28.51 34.82L28.46 34.78L26.53 34.78L26.65 34.91Q25.70 34.90 24.74 35.02L24.78 35.06L24.76 35.03Q25.28 28.78 25.28 24.78L25.31 24.81L25.28 24.78Q21.38 18.18 13.73 9.50L13.70 9.47L13.60 9.37Q15.42 10.39 18.77 11.19L18.69 11.11L18.74 11.16Q23.76 16.71 26.77 21.92L26.83 21.99L26.89 22.05Q29.89 16.49 34.27 11.46L34.20 11.39L34.28 11.47Q36.69 11.06 39.20 10.26L39.22 10.29L39.20 10.26Q33.13 16.34 28.26 24.75L28.15 24.65L28.14 24.63Q28.31 31.85 28.62 34.93ZM37.68 12.32L40.25 9.33L40.27 9.35Q37.23 10.57 34.11 11.03L34.10 11.02L34.05 10.97Q29.91 15.78 27.09 20.88L27.12 20.91L27.07 20.86Q24.94 17.21 21.75 13.33L21.72 13.30L21.81 13.39Q21.42 13.27 20.93 13.19L20.90 13.17L20.99 13.25Q20.31 12.47 18.79 10.79L18.80 10.80L18.83 10.83Q15.46 10.09 12.49 8.53L12.43 8.47L12.46 8.49Q20.06 16.86 24.82 24.78L24.94 24.89L24.89 24.85Q24.71 31.10 24.10 35.25L24.11 35.25L24.26 35.41Q24.96 35.35 26.41 35.23L26.37 35.20L26.41 36.27L26.42 36.28Q26.39 36.70 26.31 37.23L26.32 37.24L26.40 37.32Q29.94 37.32 31.69 37.51L31.69 37.51L31.52 37.34Q30.28 32.67 30.16 26.69L30.26 26.79L30.22 26.75Q34.70 18.40 41.25 11.05L41.26 11.06L37.72 12.36Z"/><path fill="#111" d="M166.49 35.18L166.51 35.20L166.51 35.20Q163.09 35.36 161.45 34.82L161.45 34.83L161.39 34.77Q159.38 34.09 159.07 30.70L159.14 30.76L160.59 29.70L160.52 29.63Q161.27 29.12 162.03 28.63L162.06 28.66L162.05 28.65Q161.77 30.54 163.37 31.75L163.48 31.86L163.37 31.75Q164.70 32.82 166.83 32.63L166.84 32.64L166.78 32.58Q171.15 32.15 170.96 28.61L170.97 28.62L171.10 28.76Q170.83 26.39 168.20 25.17L168.34 25.31L168.32 25.29Q165.33 24.09 162.97 22.87L163.03 22.93L163.08 22.97Q160.54 21.65 159.55 16.97L159.54 16.96L159.50 16.92Q159.46 16.54 159.35 15.78L159.35 15.79L159.34 15.78Q159.12 14.87 159.20 14.30L159.25 14.35L159.32 14.42Q159.41 12.76 160.67 12.31L160.70 12.33L160.68 12.32Q162.97 11.34 166.97 11.53L167.17 11.72L167.00 11.56Q168.90 11.74 169.70 11.82L169.71 11.83L169.79 11.91Q171.21 12.04 172.28 12.50L172.26 12.48L172.32 12.54Q174.44 13.01 174.66 15.49L174.65 15.47L174.67 15.49Q173.55 16.12 171.34 17.46L171.42 17.53L171.25 17.36Q170.83 14.36 166.45 14.36L166.51 14.42L166.51 14.42Q164.61 14.42 163.62 15.11L163.57 15.06L163.74 15.23Q162.43 15.59 162.66 17.38L162.70 17.42L162.69 17.41Q162.99 19.65 165.96 21.17L166.01 21.23L165.91 21.13Q166.37 21.29 170.87 22.92L170.91 22.97L170.86 22.91Q173.54 24.46 173.96 28.83L173.99 28.86L174.03 28.90Q174.01 29.04 174.09 30.29L174.16 30.36L174.14 30.35Q174.11 33.02 172.55 34.12L172.66 34.23L172.54 34.11Q170.76 35.15 166.57 35.27ZM168.80 37.57L168.82 37.59L168.86 37.62Q170.30 37.70 172.28 37.70L172.28 37.70L172.29 37.71Q174.41 37.73 175.67 37.32L175.62 37.27L175.55 37.20Q176.87 36.47 176.80 34.68L176.83 34.71L176.73 34.61Q176.72 33.65 176.34 31.59L176.27 31.52L176.33 31.58Q175.41 26.89 173.32 25.03L173.31 25.03L173.29 25.00Q172.64 23.55 171.30 22.83L171.30 22.83L165.89 20.65L165.84 20.60Q165.55 20.46 165.10 20.23L165.07 20.21L165.15 20.02L165.01 19.54L164.96 19.49Q164.84 18.11 165.98 17.50L165.99 17.52L165.97 17.50Q166.82 17.02 168.54 16.83L168.48 16.77L168.49 16.77Q169.56 16.59 170.70 17.05L170.76 17.11L170.81 17.15Q170.79 17.17 170.98 18.01L171.03 18.06L170.96 17.99Q171.29 17.98 171.79 17.75L171.74 17.71L171.68 17.65Q172.48 18.64 172.60 19.78L172.47 19.66L172.53 19.71Q172.56 19.62 176.21 17.04L176.33 17.16L176.35 17.18Q175.92 14.39 174.47 13.70L174.63 13.85L174.55 13.78Q173.97 12.52 172.53 11.98L172.56 12.01L172.46 11.91Q170.17 11.11 166.97 11.11L167.08 11.22L166.99 11.13Q162.09 11.14 160.22 11.82L160.26 11.86L160.30 11.90Q159.01 12.40 158.89 14.07L158.93 14.10L158.94 14.12Q158.87 14.62 159.29 16.83L159.23 16.77L159.21 16.75Q159.82 20.44 161.99 22.69L162.10 22.80L162.03 22.73Q162.87 24.49 164.38 25.17L164.32 25.11L164.30 25.09Q165.88 25.86 169.80 27.42L169.87 27.48L169.86 27.52L170.40 27.75L170.55 27.93L170.52 27.91Q170.63 28.28 170.67 28.63L170.65 28.61L170.66 28.61Q170.81 32.16 166.89 32.31L166.88 32.30L166.84 32.26Q165.69 32.29 164.39 31.91L164.38 31.89L164.38 31.89Q164.03 31.05 164.03 30.33L164.12 30.41L164.15 30.45Q164.01 30.04 164.05 29.77L164.03 29.75L164.08 29.80Q163.78 30.15 162.98 30.64L162.89 30.55L162.89 30.56Q162.36 29.42 162.52 28.05L162.46 27.99L162.46 27.99Q160.38 29.18 158.78 30.59L158.91 30.73L158.81 30.62Q158.82 31.39 158.90 32.42L159.00 32.52L158.97 32.50Q159.40 34.34 160.70 35.10L160.69 35.09L160.63 35.03Q161.90 36.92 164.45 37.30L164.36 37.20L164.35 37.19Q165.90 37.41 168.83 37.60Z"/><path fill="#222" d="M137.48 34.95L137.38 34.86L137.39 34.86Q133.35 34.44 131.52 32.99L131.52 32.99L131.45 32.92Q129.51 31.37 129.10 28.36L129.28 28.54L129.23 28.49Q129.16 28.08 128.82 23.32L128.80 23.30L128.77 23.27Q128.89 22.17 128.81 20.92L128.77 20.88L128.75 20.86Q128.56 15.79 130.77 14.04L130.81 14.08L130.77 14.04Q133.53 12.04 141.29 11.36L141.32 11.38L141.31 11.38Q142.55 11.13 144.18 11.16L144.16 11.14L144.18 11.16Q144.16 11.14 147.13 11.14L147.26 11.27L147.27 11.28Q148.05 11.22 149.76 11.37L149.74 11.35L149.80 11.41Q149.27 12.32 148.24 15.41L148.21 15.38L148.24 15.41Q146.18 14.22 143.17 14.22L143.16 14.21L143.11 14.16Q142.43 14.24 141.63 14.32L141.63 14.32L141.65 14.34Q136.38 14.63 133.87 16.61L133.94 16.68L133.89 16.63Q131.89 18.24 131.73 21.59L131.69 21.55L131.78 21.64Q131.75 22.25 131.78 23.51L131.68 23.40L131.68 23.40Q131.84 28.28 134.24 30.38L134.33 30.47L134.36 30.50Q136.49 32.40 141.47 32.70L141.46 32.69L141.46 32.68Q144.65 32.91 147.65 31.12L147.49 30.95L147.58 31.04Q148.27 33.86 148.88 35.23L148.87 35.22L148.86 35.22Q146.65 35.37 145.01 35.33L145.03 35.34L145.11 35.43Q140.63 35.36 137.51 34.98ZM152.62 38.71L152.60 38.69L152.56 38.65Q150.85 35.72 150.17 33.13L150.15 33.12L150.13 33.09Q149.63 33.29 148.64 33.67L148.70 33.73L148.73 33.76Q148.42 32.98 148.23 32.15L148.13 32.05L147.68 30.26L147.80 30.39Q144.58 32.50 141.46 32.38L141.28 32.20L141.31 32.23Q137.03 32.03 134.71 30.28L134.77 30.34L134.82 30.39Q133.68 28.57 133.76 25.63L133.78 25.66L133.75 25.62Q133.87 21.10 136.34 18.97L136.40 19.02L136.38 19.01Q138.41 17.00 143.09 16.39L143.16 16.46L143.20 16.50Q143.94 16.33 144.66 16.33L144.71 16.37L144.62 16.28Q147.47 16.35 149.56 17.88L149.46 17.77L149.47 17.78Q149.95 15.64 151.17 12.40L151.37 12.60L151.30 12.53Q150.92 12.42 150.37 12.36L150.41 12.40L150.49 12.48Q149.83 12.31 149.56 12.31L149.58 12.33L149.57 12.32Q149.87 11.90 150.33 10.91L150.33 10.91L150.34 10.92Q150.09 10.90 147.60 10.83L147.47 10.70L147.54 10.77Q145.13 10.78 144.49 10.82L144.45 10.78L144.44 10.77Q134.00 11.18 130.54 13.77L130.39 13.62L130.51 13.74Q128.36 15.44 128.36 19.36L128.39 19.39L128.42 19.42Q128.43 20.54 128.55 23.24L128.57 23.26L128.48 23.17Q128.64 26.76 128.86 28.47L128.89 28.50L128.98 28.58Q129.29 31.64 130.89 33.16L130.89 33.16L130.81 33.07Q131.39 33.85 132.65 34.99L132.59 34.94L132.60 34.95Q135.84 36.70 141.09 37.46L141.23 37.59L141.06 37.43Q147.60 38.49 152.59 38.68Z"/></svg>