<svg xmlns="http://www.w3.org/2000/svg" width="200" height="40" viewBox="0,0,200,40"><path d="M5 14 C88 33,109 26,189 32" stroke="#222" fill="none"/><path fill="#111" d="M64.25 18.01L64.33 18.09L64.30 18.06Q62.52 20.81 59.86 26.45L59.89 26.48L57.90 30.73L57.89 30.72Q56.91 32.52 55.57 34.76L55.60 34.79L55.64 34.83Q56.09 34.82 54.41 34.86L54.40 34.85L54.49 34.94Q54.41 34.86 53.16 34.86L53.12 34.82L53.21 34.92Q52.34 33.28 49.40 26.12L49.44 26.16L49.58 26.30Q47.23 20.75 45.14 17.74L45.30 17.90L45.21 17.81Q45.89 20.82 45.89 23.97L46.07 24.15L46.05 24.14Q46.09 30.68 43.12 36.24L42.93 36.06L43.11 36.24Q41.61 36.41 39.25 37.14L39.34 37.22L39.30 37.18Q43.03 31.55 43.03 24.32L42.93 24.21L43.01 24.30Q43.10 15.43 37.69 8.47L37.60 8.37L37.60 8.38Q39.18 9.04 41.54 9.73L41.53 9.72L41.54 9.73Q48.60 16.48 54.69 29.80L54.78 29.89L54.75 29.87Q58.15 22.76 60.36 19.26L60.37 19.27L60.54 19.44Q63.97 13.50 67.93 10.04L68.09 10.20L67.93 10.04Q69.23 9.85 71.59 9.09L71.52 9.03L71.65 9.15Q66.52 15.64 66.52 24.24L66.71 24.43L66.59 24.30Q66.63 31.01 70.06 36.54L70.10 36.57L70.14 36.61Q68.71 36.22 65.97 35.61L65.91 35.55L65.90 35.54Q63.61 30.81 63.61 24.83L63.69 24.91L63.53 24.75Q63.60 21.40 64.29 18.05ZM65.81 36.02L65.70 35.91L65.72 35.93Q66.46 36.10 67.91 36.36L67.98 36.43L67.95 36.41Q68.34 37.10 69.30 38.59L69.35 38.64L69.29 38.58Q71.41 38.99 74.88 40.21L74.93 40.27L75.01 40.34Q68.64 33.89 68.64 24.07L68.64 24.07L68.73 24.16Q68.65 16.36 73.03 10.23L73.07 10.27L70.79 10.89L70.80 10.89Q71.77 9.31 72.41 8.43L72.53 8.55L72.44 8.46Q70.65 9.18 68.02 9.71L68.08 9.77L67.96 9.65Q61.23 15.79 55.18 28.39L55.10 28.31L55.20 28.41Q49.99 17.41 45.04 12.16L45.05 12.17L45.13 12.25Q44.69 12.12 44.12 12.00L44.18 12.06L42.94 10.74L42.96 10.76Q42.32 10.05 41.63 9.44L41.62 9.42L41.64 9.45Q38.57 8.43 36.78 7.71L36.69 7.62L36.80 7.73Q42.80 14.95 42.80 24.35L42.74 24.29L42.66 24.21Q42.80 31.96 38.65 37.83L38.67 37.85L38.70 37.88Q39.19 37.45 40.49 37.04L40.64 37.19L40.57 37.12Q40.44 37.37 39.03 39.46L39.05 39.49L39.03 39.46Q40.89 39.04 44.40 38.28L44.30 38.19L44.28 38.16Q48.13 31.24 47.94 23.47L47.90 23.43L47.92 23.45Q49.36 27.37 52.83 35.25L52.97 35.39L52.85 35.28Q53.03 35.15 53.26 35.15L53.24 35.13L53.85 35.21L53.90 35.26Q54.30 35.89 55.10 37.18L55.14 37.22L55.03 37.11Q56.70 37.14 56.70 37.14L56.68 37.13L56.74 37.19Q57.68 37.09 58.32 37.17L58.46 37.30L58.33 37.18Q60.04 33.29 63.39 25.29L63.34 25.25L63.22 25.13Q63.23 30.70 65.82 36.03Z"/><path fill="#333" d="M166.94 14.72L166.83 14.60L165.37 14.82L165.40 14.84Q163.10 14.91 162.87 16.92L162.85 16.91L162.75 16.80Q162.65 17.50 162.69 18.49L162.71 18.52L162.76 18.56Q162.90 20.61 164.15 21.94L164.16 21.94L163.98 21.77Q165.35 23.21 167.26 23.06L167.20 23.00L167.18 22.99Q169.24 22.84 170.00 21.93L170.07 21.99L170.06 21.98Q171.13 21.07 171.39 18.82L171.44 18.88L171.33 18.76Q171.74 16.66 170.48 15.82L170.43 15.76L170.44 15.78Q169.55 14.96 166.89 14.66ZM172.87 23.85L172.95 23.92L171.71 26.26L171.70 26.25Q168.93 30.98 165.16 35.05L165.21 35.10L165.20 35.09Q163.51 35.20 160.81 35.99L160.87 36.05L160.85 36.04Q166.17 29.74 169.33 24.95L169.26 24.88L169.38 25.00Q168.30 25.59 166.66 25.67L166.54 25.55L166.61 25.62Q163.53 25.70 162.01 23.72L162.18 23.88L162.18 23.89Q160.80 22.13 159.70 17.56L159.85 17.71L159.74 17.60Q159.83 17.23 159.67 16.30L159.68 16.30L159.53 16.16Q159.46 15.31 159.46 14.85L159.57 14.96L159.38 14.77Q159.44 13.04 160.50 12.43L160.54 12.47L160.56 12.49Q161.68 11.63 163.55 11.63L163.71 11.79L163.62 11.70Q166.91 11.79 166.91 11.79L166.75 11.63L166.83 11.71Q169.02 11.77 170.28 11.96L170.24 11.93L170.29 11.97Q172.34 12.16 173.26 12.66L173.28 12.68L173.38 12.77Q174.68 13.47 174.87 15.22L174.77 15.12L174.79 15.14Q174.90 15.48 174.71 18.14L174.65 18.09L174.72 18.15Q174.33 20.27 174.10 21.11L174.05 21.06L173.97 20.98Q173.77 22.57 173.01 23.98ZM174.76 26.22L174.84 26.30L174.82 26.28Q175.81 24.08 176.34 19.78L176.31 19.74L176.28 19.71Q176.61 17.57 176.58 16.70L176.52 16.64L176.64 16.76Q176.56 14.86 175.38 13.94L175.39 13.95L174.97 13.72L175.13 13.88Q174.76 13.01 173.84 12.37L173.85 12.38L173.79 12.31Q171.60 11.42 166.81 11.27L166.81 11.27L166.74 11.20Q165.82 11.23 163.39 11.23L163.44 11.29L163.33 11.18Q161.60 11.20 160.12 11.89L160.11 11.88L160.17 11.94Q158.92 12.64 159.00 14.46L159.06 14.52L159.15 14.62Q159.30 15.49 159.49 17.51L159.44 17.46L159.48 17.49Q160.17 20.20 160.43 21.04L160.40 21.00L160.45 21.05Q160.89 22.79 161.84 24.08L161.88 24.12L161.86 24.10Q162.12 24.44 162.50 24.82L162.43 24.75L162.50 24.82Q162.69 25.20 163.34 26.11L163.53 26.30L163.38 26.15Q164.97 27.63 166.91 27.82L166.90 27.81L166.84 27.75Q164.97 30.44 163.41 32.35L163.42 32.36L159.70 36.63L159.76 36.70Q161.96 35.89 163.60 35.54L163.59 35.54L163.63 35.57Q162.80 36.39 161.24 38.10L161.33 38.19L161.25 38.11Q164.44 37.30 167.57 37.27L167.58 37.28L167.47 37.17Q169.87 34.66 174.21 27.43L174.17 27.39L174.18 27.47L174.12 27.42Q174.46 26.76 174.80 26.27ZM168.88 17.11L168.71 16.94L168.88 17.11Q169.42 16.93 169.88 17.04L169.95 17.12L169.94 17.11Q170.48 17.11 170.86 17.23L170.87 17.23L170.80 17.17Q171.09 17.72 171.17 18.14L171.18 18.16L170.99 17.97Q171.11 18.43 171.00 18.81L171.03 18.84L171.12 18.93Q170.99 20.56 169.81 21.66L169.77 21.61L169.84 21.69Q168.92 22.74 167.28 22.71L167.16 22.59L167.32 22.74Q166.85 22.70 165.33 22.39L165.25 22.31L165.40 22.46Q165.08 21.49 165.08 20.77L165.05 20.74L165.15 20.84Q164.96 20.46 164.96 20.23L165.02 20.29L164.97 20.24Q164.92 17.99 167.21 17.19L167.21 17.19L167.22 17.20Q167.87 16.94 168.71 16.94Z"/><path fill="#333" d="M140.79 15.18L140.73 15.12L140.72 15.10Q136.45 15.14 132.76 14.15L132.62 14.01L132.74 14.13Q134.27 18.71 134.46 23.54L134.33 23.41L134.52 23.60Q134.55 28.23 133.33 32.84L133.49 33.00L133.40 32.91Q136.18 32.27 139.69 32.11L139.73 32.16L139.62 32.04Q143.70 32.02 145.49 29.58L145.45 29.54L145.46 29.55Q146.86 27.37 147.05 23.26L147.19 23.41L147.11 23.32Q147.22 21.61 146.77 19.89L146.78 19.91L146.67 19.80Q145.38 15.04 140.66 15.04ZM128.73 37.03L128.74 37.04L128.75 37.05Q131.77 31.51 131.77 24.81L131.62 24.66L131.77 24.81Q131.70 16.21 127.40 9.21L127.45 9.26L127.36 9.16Q132.76 11.98 141.02 12.17L140.84 11.99L140.93 12.08Q149.78 12.24 150.12 19.40L150.13 19.42L150.14 19.42Q150.30 22.17 150.26 23.62L150.31 23.67L150.22 23.58Q150.11 28.23 149.27 30.40L149.26 30.38L149.21 30.33Q148.85 31.49 148.09 32.33L148.07 32.31L148.05 32.29Q146.82 33.96 144.20 34.46L144.12 34.38L144.05 34.30Q142.60 34.72 139.59 34.95L139.55 34.91L139.56 34.92Q133.48 35.42 128.87 37.17ZM146.69 36.95L146.76 37.02L146.73 36.99Q149.54 36.72 151.18 35.23L151.19 35.24L151.07 35.13Q152.29 33.37 152.25 30.63L152.28 30.66L152.18 30.57Q152.25 29.26 152.10 25.76L152.18 25.84L151.78 21.25L151.80 21.27Q151.59 18.97 150.64 16.88L150.69 16.93L150.60 16.84Q150.21 16.03 149.53 15.38L149.46 15.31L149.42 15.12L149.42 15.13Q147.68 12.12 143.26 11.74L143.35 11.83L143.36 11.85Q140.66 11.69 133.65 10.97L133.62 10.94L133.55 10.87Q130.31 10.45 126.62 8.43L126.59 8.40L126.65 8.46Q131.57 15.93 131.57 24.68L131.47 24.58L131.41 24.52Q131.57 31.69 128.22 37.86L128.13 37.76L128.11 37.75Q128.93 37.61 130.26 37.12L130.19 37.04L130.12 36.98Q129.78 37.81 128.90 39.30L129.01 39.41L128.99 39.39Q132.03 38.31 135.38 37.82L135.27 37.71L135.32 37.76Q137.37 37.41 141.02 37.30L141.04 37.32L141.13 37.41Q144.84 37.11 146.66 36.92ZM146.84 23.43L146.87 23.46L146.70 23.29Q146.41 31.37 139.71 31.75L139.64 31.69L139.71 31.76Q137.84 31.95 135.79 32.21L135.62 32.05L135.68 32.11Q136.48 28.34 136.48 24.68L136.43 24.63L136.35 24.56Q136.32 20.83 135.60 16.99L135.63 17.02L135.61 17.00Q137.97 17.46 142.66 17.46L142.66 17.46L142.66 17.46Q144.10 17.38 145.74 18.34L145.58 18.18L145.62 18.21Q146.91 20.49 146.76 23.35Z"/><path d="M2 36 C108 15,86 36,182 29" stroke="#555" fill="none"/><path fill="#222" d="M28.59 34.90L28.59 34.90L26.66 34.92L26.63 34.88Q25.63 34.83 24.67 34.95L24.67 34.94L24.77 35.04Q25.29 28.78 25.29 24.79L25.24 24.74L25.30 24.80Q21.26 18.05 13.60 9.37L13.58 9.35L13.60 9.37Q15.49 10.46 18.84 11.26L18.70 11.12L18.72 11.14Q23.82 16.77 26.82 21.98L26.94 22.10L26.79 21.95Q29.94 16.53 34.32 11.51L34.34 11.53L34.23 11.42Q36.59 10.96 39.10 10.16L39.09 10.15L39.16 10.22Q33.02 16.22 28.15 24.64L28.26 24.75L28.23 24.72Q28.32 31.85 28.62 34.93ZM37.56 12.20L40.43 9.51L40.35 9.43Q37.32 10.66 34.19 11.12L34.06 10.98L34.12 11.04Q29.86 15.73 27.04 20.83L27.04 20.83L27.15 20.94Q24.87 17.14 21.67 13.25L21.84 13.42L21.70 13.28Q21.41 13.25 20.91 13.18L20.97 13.24L20.90 13.17Q20.34 12.49 18.81 10.81L18.72 10.72L18.79 10.79Q15.31 9.93 12.34 8.37L12.39 8.42L12.35 8.38Q20.17 16.97 24.93 24.89L25.01 24.96L24.96 24.92Q24.89 31.28 24.28 35.43L24.17 35.32L24.29 35.44Q25.03 35.42 26.48 35.30L26.43 35.25L26.48 36.34L26.49 36.34Q26.36 36.67 26.29 37.21L26.37 37.29L26.34 37.26Q29.94 37.32 31.70 37.51L31.57 37.38L31.64 37.46Q30.36 32.75 30.24 26.77L30.19 26.72L30.25 26.78Q34.57 18.27 41.12 10.92L41.16 10.97L37.54 12.18Z"/><path fill="#333" d="M84.14 15.10L84.23 15.18L84.19 15.14Q79.82 15.08 76.13 14.09L76.19 14.15L76.06 14.02Q77.69 18.69 77.88 23.53L77.84 23.49L77.77 23.42Q78.04 28.30 76.82 32.90L76.92 33.00L76.79 32.87Q79.66 32.31 83.16 32.16L83.22 32.22L83.08 32.08Q86.97 31.86 88.76 29.42L88.81 29.48L88.82 29.48Q90.41 27.50 90.60 23.38L90.48 23.26L90.48 23.26Q90.58 21.53 90.12 19.82L90.17 19.87L90.29 19.98Q88.82 15.06 84.10 15.06ZM72.30 37.18L72.26 37.13L72.34 37.21Q75.24 31.55 75.24 24.85L75.23 24.84L75.20 24.81Q75.19 16.28 70.89 9.27L70.95 9.32L70.93 9.31Q76.20 11.99 84.46 12.18L84.36 12.08L84.42 12.14Q93.15 12.19 93.49 19.35L93.48 19.33L93.59 19.45Q93.75 22.20 93.72 23.64L93.56 23.49L93.73 23.66Q93.49 28.17 92.65 30.34L92.82 30.52L92.76 30.45Q92.33 31.55 91.57 32.39L91.58 32.40L91.50 32.32Q90.09 33.80 87.47 34.30L87.51 34.34L87.52 34.35Q85.93 34.62 82.92 34.85L83.03 34.96L82.98 34.91Q76.85 35.37 72.25 37.12ZM90.24 37.07L90.22 37.05L90.22 37.05Q92.88 36.63 94.52 35.14L94.51 35.14L94.54 35.16Q95.65 33.30 95.61 30.56L95.80 30.75L95.67 30.62Q95.76 29.34 95.61 25.84L95.50 25.73L95.19 21.24L95.22 21.27Q94.96 18.91 94.01 16.81L93.97 16.78L93.98 16.79Q93.48 15.87 92.80 15.22L92.82 15.25L92.81 15.08L92.82 15.10Q91.11 12.13 86.69 11.75L86.73 11.78L86.84 11.90Q84.12 11.72 77.11 11.00L77.10 10.98L77.14 11.03Q73.87 10.57 70.17 8.55L70.00 8.38L70.16 8.53Q75.01 15.94 75.01 24.70L74.90 24.59L74.89 24.58Q74.85 31.54 71.50 37.71L71.61 37.82L71.52 37.73Q72.29 37.55 73.62 37.05L73.56 36.99L73.64 37.06Q73.29 37.89 72.41 39.38L72.43 39.40L72.34 39.31Q75.48 38.34 78.83 37.84L78.74 37.75L78.83 37.84Q80.86 37.47 84.51 37.36L84.53 37.38L84.40 37.24Q88.27 37.12 90.10 36.93ZM90.15 23.32L90.17 23.34L90.16 23.32Q89.83 31.37 83.13 31.75L83.08 31.70L83.19 31.81Q81.24 31.91 79.18 32.18L79.18 32.18L79.11 32.11Q79.80 28.23 79.80 24.57L79.91 24.69L79.95 24.73Q79.77 20.85 79.05 17.01L79.06 17.02L79.17 17.13Q81.41 17.46 86.09 17.46L85.98 17.35L86.02 17.40Q87.53 17.38 89.17 18.33L88.99 18.16L89.18 18.35Q90.42 20.57 90.27 23.43Z"/><path fill="#111" d="M110.46 35.29L110.29 35.12L108.00 28.37L107.88 28.25Q103.55 15.70 97.61 9.30L97.67 9.36L97.72 9.42Q99.62 10.36 102.21 10.97L102.24 11.00L102.33 11.09Q107.33 17.23 111.67 29.98L111.73 30.05L111.81 30.12Q114.72 21.88 115.41 20.28L115.42 20.30L115.47 20.35Q117.79 14.67 120.61 11.36L120.75 11.51L120.76 11.51Q122.67 10.98 125.29 10.11L125.36 10.17L125.43 10.24Q120.80 14.79 117.75 22.02L117.72 21.99L117.79 22.06Q116.42 25.76 112.73 35.27L112.62 35.16L112.55 35.10Q112.12 35.23 111.55 35.19L111.52 35.16L111.45 35.10Q110.94 35.16 110.37 35.20ZM115.39 37.63L115.36 37.59L115.33 37.57Q118.19 27.64 119.75 23.60L119.78 23.63L119.72 23.57Q122.67 15.82 127.08 10.95L127.18 11.05L127.09 10.95Q126.07 11.34 123.97 12.06L124.05 12.13L125.19 10.80L125.16 10.77Q125.81 10.17 126.42 9.52L126.39 9.49L126.35 9.45Q123.44 10.35 120.43 10.92L120.57 11.05L120.47 10.95Q116.08 16.28 112.20 27.73L112.27 27.81L112.18 27.72Q108.55 17.62 105.35 13.24L105.49 13.37L105.38 13.26Q105.02 13.21 104.15 13.06L104.18 13.10L104.23 13.14Q104.00 12.76 102.40 10.71L102.40 10.71L102.40 10.70Q99.39 9.94 96.69 8.53L96.66 8.50L96.63 8.47Q103.28 15.58 107.66 28.38L107.72 28.44L107.68 28.40Q108.93 32.08 110.11 35.66L110.11 35.66L110.04 35.59Q110.41 35.65 111.24 35.54L111.25 35.54L111.29 35.58Q111.70 36.34 112.39 37.67L112.25 37.54L112.33 37.61Q113.09 37.46 113.82 37.54L113.86 37.58L113.80 37.53Q114.53 37.53 115.29 37.53Z"/></svg>