<svg xmlns="http://www.w3.org/2000/svg" width="200" height="40" viewBox="0,0,200,40"><path fill="#333" d="M137.39 34.87L137.52 35.00L137.54 35.01Q133.34 34.43 131.51 32.98L131.53 33.00L131.37 32.84Q129.59 31.44 129.17 28.43L129.18 28.44L129.26 28.53Q129.18 28.10 128.84 23.34L128.89 23.39L128.76 23.26Q128.89 22.18 128.82 20.92L128.82 20.92L128.83 20.93Q128.63 15.86 130.84 14.11L130.83 14.10L130.87 14.14Q133.56 12.08 141.33 11.39L141.29 11.36L141.29 11.36Q142.68 11.26 144.32 11.30L144.29 11.27L144.24 11.22Q144.13 11.11 147.10 11.11L147.29 11.30L147.20 11.21Q147.95 11.12 149.66 11.27L149.79 11.40L149.65 11.27Q149.26 12.31 148.23 15.40L148.24 15.41L148.32 15.49Q146.18 14.23 143.17 14.23L143.11 14.16L143.11 14.16Q142.27 14.08 141.47 14.16L141.52 14.21L141.54 14.23Q136.43 14.67 133.91 16.65L133.87 16.61L133.91 16.65Q131.87 18.22 131.72 21.57L131.73 21.59L131.87 21.73Q131.81 22.32 131.85 23.58L131.82 23.54L131.75 23.47Q131.80 28.25 134.20 30.34L134.19 30.33L134.25 30.39Q136.47 32.38 141.46 32.69L141.45 32.68L141.37 32.60Q144.65 32.91 147.66 31.13L147.58 31.04L147.66 31.12Q148.09 33.68 148.70 35.05L148.70 35.05L148.75 35.11Q146.64 35.36 145.00 35.32L145.12 35.44L145.06 35.37Q140.62 35.35 137.50 34.97ZM152.62 38.71L152.58 38.67L152.53 38.63Q150.77 35.65 150.09 33.06L150.14 33.11L150.10 33.07Q149.64 33.30 148.65 33.68L148.78 33.80L148.75 33.78Q148.27 32.84 148.08 32.00L148.15 32.07L147.84 30.43L147.79 30.38Q144.56 32.48 141.44 32.37L141.42 32.34L141.31 32.23Q137.05 32.05 134.73 30.30L134.72 30.29L134.73 30.30Q133.72 28.60 133.80 25.67L133.72 25.59L133.77 25.65Q133.77 21.01 136.25 18.87L136.42 19.05L136.25 18.88Q138.57 17.17 143.26 16.56L143.08 16.38L143.15 16.45Q144.06 16.44 144.78 16.44L144.65 16.31L144.72 16.39Q147.42 16.30 149.51 17.83L149.53 17.84L149.48 17.79Q150.07 15.75 151.28 12.51L151.28 12.51L151.17 12.40Q151.05 12.55 150.50 12.49L150.51 12.51L150.46 12.45Q149.89 12.38 149.63 12.38L149.67 12.43L149.62 12.38Q149.91 11.95 150.37 10.96L150.33 10.91L150.23 10.82Q150.08 10.89 147.58 10.81L147.61 10.84L147.52 10.75Q145.06 10.71 144.41 10.75L144.41 10.74L144.42 10.75Q133.82 11.01 130.36 13.59L130.46 13.69L130.52 13.76Q128.33 15.41 128.33 19.33L128.43 19.43L128.35 19.35Q128.38 20.48 128.49 23.18L128.50 23.20L128.61 23.30Q128.61 26.73 128.84 28.45L128.96 28.57L128.83 28.43Q129.26 31.60 130.86 33.12L130.86 33.13L130.96 33.23Q131.44 33.90 132.69 35.04L132.61 34.96L132.65 35.00Q135.94 36.81 141.20 37.57L141.07 37.44L141.17 37.54Q147.56 38.45 152.55 38.64Z"/><path d="M20 32 C119 13,116 38,186 25" stroke="#555" fill="none"/><path fill="#111" d="M56.16 27.22L46.83 17.13L46.83 17.13Q47.73 20.88 47.73 24.61L47.76 24.65L47.65 24.53Q47.67 30.54 45.62 36.09L45.54 36.01L45.68 36.16Q44.65 36.46 42.41 37.22L42.34 37.15L42.38 37.20Q45.22 31.43 45.22 24.73L45.09 24.61L45.22 24.73Q45.16 16.04 40.67 8.61L40.60 8.54L40.63 8.57Q41.15 8.82 41.83 9.24L41.65 9.05L41.75 9.16Q53.77 20.30 61.61 29.55L61.70 29.64L61.62 29.56Q61.45 27.26 61.45 24.82L61.32 24.69L61.48 24.85Q61.42 17.56 63.94 11.36L63.82 11.24L63.94 11.36Q66.26 10.82 67.86 10.14L67.73 10.01L67.91 10.19Q64.58 16.34 64.27 23.49L64.18 23.40L64.22 23.44Q63.91 30.78 66.88 36.95L66.89 36.97L66.84 36.91Q66.23 36.79 65.81 36.60L65.92 36.71L65.92 36.72Q61.39 32.79 56.17 27.23L56.01 27.07ZM69.57 40.22L69.43 40.07L69.44 40.08Q69.97 40.31 70.39 40.50L70.46 40.57L71.33 40.95L71.31 40.93Q66.07 33.89 66.07 24.53L66.06 24.52L66.04 24.50Q66.13 17.35 69.44 11.11L69.37 11.04L69.45 11.12Q68.75 11.30 67.34 11.90L67.24 11.81L67.26 11.83Q67.66 11.01 68.50 9.45L68.62 9.57L68.63 9.58Q66.01 10.31 63.57 10.88L63.62 10.93L63.67 10.98Q61.09 17.50 61.09 24.92L61.08 24.91L61.10 24.93Q60.92 26.62 61.11 28.60L61.25 28.73L61.23 28.72Q56.57 23.03 51.81 18.42L51.88 18.48L41.66 8.64L41.71 8.70Q41.21 8.46 39.99 7.89L39.95 7.85L39.94 7.85Q44.73 15.49 44.73 24.59L44.78 24.64L44.86 24.72Q44.73 31.70 41.65 37.72L41.65 37.72L41.69 37.76Q42.04 37.69 43.68 37.08L43.73 37.13L43.68 37.09Q43.43 37.94 42.59 39.43L42.57 39.40L42.50 39.33Q43.93 38.89 47.39 38.10L47.37 38.07L47.26 37.97Q49.72 31.98 49.72 24.78L49.55 24.60L49.61 24.67Q49.60 22.57 49.37 20.43L49.41 20.47L49.48 20.54Q60.81 33.20 69.41 40.06Z"/><path fill="#111" d="M112.62 27.11L103.44 17.17L103.42 17.15Q104.21 20.80 104.21 24.53L104.21 24.52L104.27 24.58Q104.35 30.64 102.30 36.20L102.18 36.08L102.10 36.01Q101.05 36.29 98.80 37.05L98.98 37.22L98.87 37.11Q101.70 31.34 101.70 24.64L101.73 24.67L101.75 24.69Q101.64 15.94 97.15 8.51L97.12 8.49L97.12 8.49Q97.63 8.73 98.32 9.15L98.29 9.12L98.41 9.24Q110.50 20.46 118.35 29.71L118.31 29.68L118.36 29.73Q118.00 27.24 118.00 24.80L118.00 24.80L117.93 24.73Q117.89 17.46 120.41 11.26L120.55 11.40L120.43 11.28Q122.72 10.72 124.32 10.03L124.49 10.20L124.33 10.04Q121.08 16.27 120.78 23.43L120.70 23.35L120.80 23.45Q120.43 30.73 123.40 36.90L123.41 36.91L123.54 37.04Q122.94 36.94 122.52 36.75L122.42 36.64L122.47 36.69Q117.91 32.74 112.70 27.19L112.62 27.11ZM126.04 40.11L126.15 40.22L126.11 40.18Q126.57 40.33 126.98 40.52L126.88 40.42L127.80 40.84L127.73 40.78Q122.57 33.83 122.57 24.46L122.73 24.62L122.62 24.51Q122.64 17.29 125.95 11.05L126.01 11.11L125.97 11.07Q125.30 11.28 123.89 11.89L123.97 11.97L123.89 11.88Q124.28 11.05 125.11 9.49L125.06 9.44L125.08 9.46Q122.58 10.30 120.14 10.88L120.25 10.99L120.26 10.99Q117.65 17.48 117.65 24.91L117.59 24.85L117.55 24.81Q117.67 26.79 117.86 28.77L117.75 28.66L117.86 28.78Q113.13 23.01 108.37 18.41L108.29 18.32L98.37 8.79L98.36 8.77Q97.61 8.29 96.39 7.72L96.54 7.87L96.56 7.89Q101.35 15.54 101.35 24.63L101.30 24.58L101.44 24.72Q101.43 31.83 98.35 37.85L98.20 37.70L98.23 37.73Q98.58 37.66 100.21 37.05L100.14 36.98L100.29 37.13Q99.94 37.88 99.10 39.37L99.07 39.34L99.15 39.41Q100.32 38.72 103.79 37.92L103.78 37.92L103.91 38.05Q106.28 31.96 106.28 24.77L106.18 24.67L106.26 24.75Q106.28 22.67 106.05 20.54L105.99 20.48L105.94 20.43Q117.53 33.36 126.14 40.21Z"/><path d="M10 17 C88 3,88 15,194 35" stroke="#222" fill="none"/><path fill="#222" d="M79.37 24.64L79.36 24.63L79.43 24.70Q79.36 28.89 78.63 33.04L78.72 33.13L78.68 33.09Q80.98 32.56 84.06 32.45L84.03 32.42L83.98 32.37Q85.25 32.50 86.31 31.49L86.36 31.54L86.47 31.64Q87.47 30.57 87.47 29.24L87.53 29.30L87.49 29.25Q87.43 28.90 87.40 28.63L87.40 28.64L87.47 28.71Q87.24 25.69 84.99 24.85L84.96 24.82L84.91 24.77Q84.35 24.67 83.66 24.74L83.53 24.61L83.52 24.60Q82.45 24.52 81.42 24.56L81.37 24.51L81.44 24.58Q80.43 24.67 79.40 24.67ZM78.25 14.31L78.11 14.16L78.14 14.19Q79.08 17.58 79.35 21.96L79.28 21.88L79.38 21.98Q80.79 22.07 83.46 22.10L83.32 21.96L83.31 21.96Q86.30 22.05 86.64 18.51L86.62 18.48L86.77 18.64Q86.86 16.60 85.46 15.76L85.44 15.75L85.54 15.85Q84.57 15.26 80.15 14.61L80.23 14.69L80.09 14.55Q79.15 14.52 78.23 14.29ZM74.45 37.04L74.50 37.09L74.51 37.10Q77.07 30.52 76.80 23.14L76.74 23.07L76.71 23.05Q76.49 15.82 73.55 9.34L73.47 9.26L73.53 9.32Q77.24 11.78 83.47 12.02L83.51 12.07L83.47 12.02Q89.82 12.40 90.16 15.29L90.00 15.13L90.03 15.16Q90.43 17.99 89.02 20.66L88.95 20.59L88.98 20.62Q88.24 22.13 86.65 22.82L86.63 22.80L86.66 22.83Q90.27 23.47 90.49 28.83L90.45 28.79L90.54 28.88Q90.60 29.97 90.53 31.38L90.58 31.43L90.44 31.29Q90.50 32.72 89.56 33.65L89.65 33.74L89.54 33.63Q88.71 34.67 87.38 34.82L87.23 34.67L87.21 34.65Q85.82 34.82 84.75 34.82L84.77 34.83L84.76 34.83Q79.00 34.78 74.47 37.06ZM87.38 37.48L87.29 37.39L87.23 37.33Q88.30 37.52 90.16 37.64L90.18 37.66L90.07 37.55Q91.54 37.65 92.64 36.77L92.67 36.80L92.71 36.84Q93.41 35.82 93.29 34.26L93.30 34.26L93.32 34.29Q93.20 33.29 92.48 29.83L92.57 29.92L92.55 29.90Q91.83 26.63 89.96 25.14L89.90 25.08L89.63 24.39L89.45 24.21Q91.14 22.82 91.71 19.05L91.72 19.06L91.80 19.13Q92.02 18.06 91.94 16.65L91.79 16.50L91.80 16.51Q91.74 15.19 90.63 14.35L90.78 14.50L90.66 14.38Q90.31 14.14 90.19 14.10L90.29 14.20L90.36 14.27Q89.95 13.60 89.11 12.80L89.12 12.80L89.19 12.87Q87.66 11.80 83.43 11.61L83.46 11.64L83.53 11.70Q76.73 11.26 72.73 8.37L72.83 8.47L72.81 8.45Q76.04 15.41 76.35 22.95L76.48 23.08L76.48 23.08Q76.81 30.91 73.99 37.84L73.88 37.73L76.00 36.84L75.98 36.82Q75.67 38.04 75.18 39.18L75.21 39.21L75.09 39.09Q79.44 37.27 84.46 37.27L84.53 37.34L84.44 37.24Q85.88 37.28 87.33 37.43ZM85.08 26.77L85.07 26.76L85.21 26.90Q85.88 26.77 86.79 27.22L86.75 27.18L86.89 27.33Q86.92 27.58 87.07 28.65L87.02 28.60L87.12 28.70Q87.29 30.05 86.36 31.09L86.31 31.04L86.38 31.12Q85.41 32.12 84.00 32.01L83.97 31.98L82.53 32.14L82.46 32.07Q81.76 32.17 81.03 32.28L81.06 32.31L81.09 32.33Q81.35 30.46 81.42 27.00L81.43 27.00L81.38 26.96Q82.12 26.97 83.37 26.93L83.25 26.80L83.25 26.80Q84.63 26.89 85.24 26.93ZM84.22 17.34L84.09 17.22L84.59 17.34L84.42 17.16Q84.67 17.19 84.86 17.23L84.87 17.23L85.33 17.31L85.63 17.42L86.30 17.56L86.25 17.51Q86.39 17.80 86.39 18.11L86.32 18.04L86.31 18.56L86.43 18.68Q86.35 19.85 85.47 20.79L85.51 20.82L85.40 20.72Q84.58 21.70 83.36 21.70L83.44 21.78L83.46 21.80Q82.39 21.76 82.39 21.76L82.25 21.62L82.26 21.63Q81.09 21.76 81.43 21.76L81.26 21.58L81.38 21.70Q81.34 20.17 81.03 17.13L80.96 17.06L80.98 17.07Q82.61 17.26 84.14 17.26Z"/><path fill="#222" d="M28.57 34.88L28.58 34.89L26.64 34.90L26.58 34.83Q25.65 34.86 24.70 34.97L24.77 35.04L24.61 34.89Q25.30 28.80 25.30 24.80L25.17 24.66L25.23 24.73Q21.21 18.01 13.56 9.33L13.65 9.42L13.66 9.43Q15.34 10.31 18.69 11.11L18.85 11.27L18.71 11.13Q23.84 16.80 26.85 22.01L26.88 22.04L26.90 22.06Q29.85 16.44 34.23 11.42L34.31 11.50L34.16 11.35Q36.73 11.10 39.24 10.30L39.08 10.14L39.23 10.29Q33.13 16.33 28.25 24.75L28.26 24.75L28.15 24.64Q28.25 31.79 28.56 34.87ZM37.65 12.29L40.35 9.43L40.37 9.45Q37.15 10.50 34.03 10.96L34.13 11.05L34.17 11.10Q29.86 15.73 27.05 20.83L27.07 20.85L27.08 20.87Q24.86 17.12 21.66 13.24L21.82 13.40L21.74 13.32Q21.40 13.25 20.90 13.17L20.90 13.17L21.01 13.28Q20.39 12.55 18.87 10.87L18.72 10.72L18.81 10.81Q15.39 10.01 12.42 8.45L12.42 8.46L12.37 8.40Q20.15 16.95 24.91 24.87L24.85 24.80L24.89 24.84Q24.84 31.23 24.24 35.38L24.23 35.38L24.13 35.28Q25.05 35.44 26.50 35.33L26.44 35.26L26.37 36.23L26.35 36.21Q26.46 36.77 26.38 37.30L26.37 37.29L26.40 37.32Q29.92 37.30 31.67 37.49L31.63 37.45L31.60 37.41Q30.29 32.69 30.18 26.71L30.26 26.79L30.28 26.81Q34.64 18.34 41.19 10.99L41.18 10.98L37.69 12.33Z"/><path fill="#444" d="M164.04 25.67L164.10 25.73L164.05 25.68Q163.92 25.55 167.31 25.51L167.32 25.53L167.41 25.61Q169.72 25.64 170.79 25.68L170.68 25.57L170.64 25.53Q169.65 22.71 167.21 17.08L167.16 17.02L167.30 17.16Q166.70 18.54 165.65 21.40L165.70 21.45L165.58 21.32Q164.52 24.18 163.95 25.58ZM171.92 28.19L171.90 28.17L171.80 28.06Q169.60 28.11 167.39 28.14L167.44 28.19L167.26 28.01Q165.17 28.21 162.89 28.40L162.74 28.25L162.72 28.24Q161.40 31.86 158.16 36.05L158.12 36.01L157.98 35.86Q155.38 36.46 154.01 36.96L154.05 37.00L154.09 37.04Q159.24 31.41 163.92 18.05L163.92 18.05L163.89 18.02Q165.14 14.59 166.51 11.35L166.55 11.39L166.60 11.44Q166.77 11.31 167.11 11.31L167.12 11.31L167.97 11.44L167.93 11.40Q168.56 12.65 173.40 24.29L173.58 24.47L173.40 24.30Q176.68 32.14 180.67 36.29L180.75 36.36L180.85 36.46Q180.22 36.22 176.34 35.34L176.29 35.29L176.41 35.42Q173.86 32.30 171.88 28.15ZM176.27 35.70L176.39 35.81L176.83 35.76L176.89 35.82Q177.23 35.93 177.53 36.04L177.50 36.01L177.43 35.93Q177.78 36.33 179.61 38.35L179.63 38.37L179.68 38.41Q183.30 39.29 185.69 40.32L185.53 40.16L185.58 40.20Q180.16 35.74 176.16 27.74L176.17 27.75L176.16 27.74Q174.54 24.44 173.09 20.48L173.03 20.42L170.31 12.95L170.36 12.99Q169.99 12.97 169.76 12.97L169.92 13.13L169.23 12.97L169.24 12.97Q168.97 12.40 168.25 11.03L168.12 10.91L168.24 11.02Q167.74 11.06 167.28 11.02L167.31 11.05L167.26 11.00Q166.70 10.86 166.17 10.86L166.35 11.04L166.29 10.98Q164.84 14.86 160.96 25.03L160.95 25.02L160.97 25.04Q157.87 33.02 153.23 37.81L153.20 37.79L153.12 37.71Q154.12 37.26 156.14 36.65L156.33 36.85L156.16 36.67Q155.57 37.72 154.01 39.51L153.85 39.35L153.99 39.49Q155.56 38.70 159.48 37.94L159.60 38.06L159.60 38.06Q162.92 33.61 164.48 30.38L164.45 30.35L164.57 30.46Q166.31 30.34 168.63 30.38L168.69 30.44L168.55 30.30Q171.36 30.40 172.73 30.47L172.78 30.53L172.71 30.46Q174.03 32.88 176.39 35.81ZM168.49 20.94L168.65 21.11L168.55 21.01Q169.35 23.03 170.11 25.12L170.22 25.23L166.93 25.24L166.81 25.13Q167.45 23.75 168.51 20.97Z"/></svg>