<svg xmlns="http://www.w3.org/2000/svg" width="200" height="40" viewBox="0,0,200,40"><path fill="#222" d="M141.01 27.22L131.64 17.08L131.61 17.05Q132.55 20.85 132.55 24.58L132.47 24.50L132.57 24.60Q132.60 30.60 130.54 36.16L130.42 36.04L130.44 36.06Q129.33 36.28 127.08 37.04L127.15 37.11L127.15 37.11Q129.93 31.29 129.93 24.59L129.97 24.62L130.01 24.66Q129.89 15.91 125.40 8.48L125.40 8.48L125.57 8.65Q125.86 8.68 126.55 9.10L126.69 9.24L126.61 9.16Q138.72 20.40 146.57 29.65L146.56 29.65L146.56 29.64Q146.16 27.11 146.16 24.67L146.20 24.71L146.16 24.67Q146.21 17.50 148.73 11.29L148.66 11.22L148.68 11.24Q150.99 10.70 152.59 10.02L152.67 10.10L152.71 10.13Q149.33 16.24 149.03 23.39L148.97 23.33L149.10 23.46Q148.81 30.82 151.78 36.99L151.65 36.86L151.63 36.85Q151.23 36.94 150.81 36.75L150.70 36.64L150.84 36.77Q146.25 32.80 141.04 27.24L141.02 27.22ZM154.29 40.07L154.37 40.15L154.36 40.15Q154.90 40.38 155.32 40.57L155.29 40.54L156.07 40.83L156.10 40.86Q150.83 33.80 150.83 24.44L151.03 24.63L150.96 24.57Q150.83 17.20 154.14 10.96L154.14 10.96L154.26 11.07Q153.58 11.27 152.18 11.88L152.22 11.93L152.13 11.83Q152.54 11.03 153.38 9.47L153.33 9.42L153.30 9.39Q150.95 10.39 148.51 10.96L148.47 10.92L148.41 10.86Q145.94 17.49 145.94 24.91L145.84 24.81L145.90 24.87Q145.84 26.67 146.03 28.65L146.14 28.76L145.98 28.61Q141.33 22.93 136.57 18.32L136.61 18.36L126.48 8.61L126.58 8.71Q126.04 8.44 124.82 7.86L124.73 7.78L124.70 7.74Q129.71 15.61 129.71 24.71L129.62 24.62L129.69 24.69Q129.61 31.73 126.53 37.75L126.50 37.71L126.52 37.73Q126.83 37.63 128.47 37.02L128.59 37.14L128.57 37.12Q128.24 37.90 127.41 39.38L127.42 39.40L127.39 39.37Q128.71 38.83 132.18 38.03L132.07 37.92L132.12 37.96Q134.38 31.78 134.38 24.59L134.40 24.60L134.52 24.72Q134.51 22.62 134.28 20.48L134.30 20.50L134.32 20.52Q145.82 33.36 154.43 40.21Z"/><path fill="#111" d="M85.04 34.78L85.14 34.88L83.17 34.86L83.08 34.76Q82.27 34.91 81.32 35.02L81.27 34.97L81.20 34.90Q81.77 28.69 81.77 24.69L81.88 24.81L81.84 24.77Q77.97 18.19 70.31 9.51L70.30 9.50L70.16 9.36Q71.97 10.37 75.32 11.17L75.34 11.19L75.32 11.17Q80.35 16.73 83.36 21.94L83.44 22.03L83.40 21.99Q86.38 16.40 90.75 11.37L90.76 11.37L90.75 11.37Q93.28 11.08 95.79 10.28L95.70 10.19L95.64 10.13Q89.73 16.36 84.85 24.77L84.80 24.72L84.80 24.72Q84.74 31.70 85.05 34.79ZM94.16 12.23L96.87 9.38L96.81 9.32Q93.79 10.57 90.67 11.02L90.73 11.08L90.61 10.96Q86.54 15.84 83.72 20.94L83.63 20.84L83.67 20.89Q81.44 17.14 78.25 13.26L78.24 13.25L78.38 13.39Q78.07 13.34 77.57 13.27L77.55 13.25L77.60 13.30Q76.81 12.39 75.28 10.71L75.41 10.84L75.42 10.85Q71.91 9.96 68.94 8.40L68.99 8.46L68.94 8.40Q76.67 16.89 81.42 24.81L81.41 24.80L81.47 24.86Q81.44 31.26 80.83 35.41L80.69 35.27L80.67 35.25Q81.55 35.36 82.99 35.25L83.05 35.30L82.96 36.25L82.96 36.25Q82.92 36.66 82.85 37.20L82.83 37.18L82.84 37.19Q86.34 37.15 88.10 37.34L88.14 37.39L88.16 37.41Q86.95 32.77 86.83 26.79L86.76 26.71L86.78 26.74Q91.17 18.30 97.72 10.96L97.74 10.97L94.22 12.29Z"/><path d="M9 7 C84 13,99 21,198 34" stroke="#555" fill="none"/><path d="M4 28 C83 35,93 11,194 35" stroke="#666" fill="none"/><path fill="#222" d="M107.46 25.66L107.45 25.65L107.46 25.66Q107.34 25.54 110.73 25.50L110.91 25.69L110.72 25.50Q112.99 25.48 114.05 25.52L114.23 25.69L114.15 25.62Q113.08 22.72 110.65 17.08L110.68 17.12L110.59 17.02Q110.08 18.50 109.03 21.35L109.08 21.40L108.96 21.28Q107.97 24.19 107.40 25.60ZM115.35 28.19L115.34 28.17L115.21 28.04Q112.97 28.05 110.76 28.09L110.74 28.06L110.85 28.18Q108.57 28.18 106.28 28.37L106.24 28.33L106.34 28.43Q104.75 31.78 101.51 35.97L101.56 36.02L101.54 35.99Q98.88 36.54 97.51 37.03L97.54 37.06L97.62 37.14Q102.60 31.35 107.28 17.98L107.32 18.02L107.33 18.03Q108.67 14.69 110.04 11.46L110.03 11.44L110.02 11.43Q110.33 11.44 110.67 11.44L110.59 11.35L111.34 11.39L111.27 11.31Q111.99 12.64 116.82 24.29L116.90 24.36L116.82 24.29Q120.17 32.20 124.17 36.35L124.15 36.33L124.08 36.27Q123.66 36.22 119.77 35.35L119.88 35.46L119.80 35.38Q117.22 32.23 115.24 28.08ZM119.66 35.66L119.79 35.79L120.22 35.71L120.21 35.71Q120.65 35.92 120.95 36.03L120.94 36.02L120.90 35.98Q121.16 36.27 122.98 38.29L123.08 38.39L122.98 38.29Q126.63 39.19 129.02 40.22L129.13 40.33L129.08 40.28Q123.61 35.76 119.61 27.76L119.59 27.74L119.54 27.69Q118.00 24.48 116.56 20.52L116.55 20.51L113.68 12.88L113.76 12.96Q113.55 13.10 113.32 13.10L113.31 13.09L112.79 13.10L112.65 12.96Q112.43 12.43 111.70 11.06L111.57 10.92L111.53 10.89Q111.13 11.02 110.68 10.99L110.63 10.93L110.68 10.99Q110.24 10.97 109.71 10.97L109.64 10.90L109.72 10.98Q108.24 14.83 104.36 25.00L104.45 25.09L104.31 24.95Q101.27 32.98 96.62 37.78L96.62 37.78L96.57 37.73Q97.58 37.29 99.60 36.68L99.75 36.83L99.59 36.68Q98.97 37.69 97.41 39.48L97.42 39.49L97.25 39.32Q99.15 38.86 103.07 38.10L103.02 38.05L103.01 38.04Q106.39 33.65 107.95 30.42L107.95 30.42L107.88 30.34Q109.82 30.42 112.14 30.45L111.98 30.29L111.99 30.31Q114.77 30.39 116.14 30.46L116.06 30.38L116.13 30.45Q117.32 32.74 119.68 35.67ZM112.02 21.05L111.95 20.98L112.08 21.11Q112.86 23.10 113.62 25.20L113.73 25.31L110.37 25.26L110.24 25.13Q110.86 23.73 111.93 20.96Z"/><path fill="#111" d="M169.26 27.18L160.02 17.18L159.94 17.10Q160.86 20.87 160.86 24.60L160.83 24.57L160.82 24.56Q160.91 30.63 158.85 36.18L158.79 36.12L158.77 36.10Q157.76 36.43 155.52 37.19L155.36 37.04L155.39 37.07Q158.35 31.42 158.35 24.72L158.26 24.63L158.34 24.71Q158.26 15.99 153.76 8.56L153.72 8.51L153.78 8.58Q154.12 8.65 154.81 9.07L154.85 9.11L154.87 9.14Q166.94 20.33 174.78 29.58L174.88 29.68L174.90 29.69Q174.59 27.25 174.59 24.82L174.56 24.79L174.62 24.85Q174.45 17.44 176.96 11.24L177.07 11.34L177.08 11.36Q179.45 10.87 181.04 10.18L181.05 10.18L181.05 10.19Q177.66 16.28 177.36 23.44L177.28 23.36L177.32 23.40Q177.14 30.87 180.11 37.04L179.92 36.84L180.04 36.97Q179.50 36.92 179.08 36.73L179.03 36.68L179.12 36.77Q174.48 32.74 169.26 27.18L169.22 27.14ZM182.65 40.15L182.58 40.08L182.63 40.13Q183.02 40.21 183.43 40.40L183.55 40.51L184.43 40.90L184.42 40.89Q179.26 33.95 179.26 24.58L179.29 24.60L179.23 24.55Q179.17 17.25 182.48 11.01L182.47 11.00L182.49 11.02Q181.91 11.31 180.50 11.92L180.41 11.83L180.40 11.82Q180.92 11.12 181.75 9.56L181.69 9.50L181.64 9.44Q179.20 10.36 176.77 10.93L176.71 10.87L176.77 10.93Q174.09 17.35 174.09 24.77L174.20 24.88L174.18 24.87Q174.06 26.61 174.25 28.59L174.30 28.64L174.29 28.63Q169.60 22.91 164.84 18.30L164.88 18.35L154.80 8.64L154.93 8.78Q154.26 8.37 153.04 7.80L152.98 7.74L153.06 7.82Q157.84 15.45 157.84 24.55L157.94 24.66L158.02 24.73Q157.84 31.67 154.75 37.68L154.75 37.68L154.94 37.87Q155.16 37.68 156.80 37.07L156.75 37.02L156.83 37.10Q156.40 37.77 155.56 39.25L155.69 39.38L155.74 39.43Q157.06 38.89 160.53 38.09L160.47 38.04L160.36 37.93Q162.74 31.85 162.74 24.65L162.75 24.67L162.73 24.65Q162.80 22.63 162.58 20.49L162.47 20.39L162.45 20.37Q173.97 33.23 182.58 40.08Z"/><path fill="#222" d="M28.57 34.88L28.58 34.90L26.56 34.81L26.57 34.82Q25.57 34.78 24.62 34.89L24.59 34.86L24.70 34.98Q25.22 28.72 25.22 24.72L25.21 24.71L25.23 24.73Q21.23 18.03 13.58 9.35L13.61 9.38L13.60 9.37Q15.51 10.48 18.86 11.28L18.82 11.24L18.87 11.29Q23.94 16.89 26.94 22.10L26.84 22.00L26.81 21.97Q29.79 16.38 34.16 11.36L34.21 11.40L34.25 11.44Q36.64 11.01 39.15 10.21L39.10 10.17L39.18 10.25Q33.05 16.25 28.18 24.67L28.21 24.71L28.23 24.72Q28.18 31.71 28.48 34.80ZM37.71 12.35L40.40 9.48L40.40 9.48Q37.23 10.57 34.11 11.03L34.17 11.09L34.04 10.97Q29.86 15.73 27.04 20.83L27.11 20.90L27.08 20.87Q24.89 17.16 21.69 13.27L21.68 13.26L21.67 13.26Q21.53 13.38 21.04 13.30L20.91 13.18L20.97 13.23Q20.32 12.48 18.80 10.80L18.87 10.87L18.83 10.83Q15.36 9.99 12.39 8.43L12.50 8.53L12.47 8.50Q20.24 17.04 25.00 24.96L24.86 24.81L24.89 24.84Q24.89 31.28 24.28 35.42L24.24 35.39L24.24 35.38Q24.99 35.38 26.44 35.26L26.31 35.14L26.47 36.33L26.43 36.29Q26.44 36.75 26.36 37.28L26.31 37.23L26.30 37.22Q29.94 37.32 31.69 37.51L31.70 37.52L31.63 37.45Q30.31 32.70 30.19 26.72L30.26 26.79L30.16 26.70Q34.54 18.25 41.09 10.90L41.18 10.99L37.65 12.29Z"/><path fill="#222" d="M53.88 14.68L53.92 14.73L53.90 14.70Q51.97 14.86 51.01 15.01L50.97 14.97L50.98 14.98Q49.30 15.17 48.08 15.70L48.08 15.70L48.17 15.78Q44.59 17.15 44.47 21.83L44.54 21.90L44.38 21.74Q44.48 24.58 45.12 27.51L44.98 27.37L45.09 27.48Q45.85 31.40 49.47 32.58L49.57 32.68L49.47 32.58Q51.47 33.25 52.91 33.09L52.86 33.03L53.37 33.09L53.32 33.04Q53.52 33.05 53.71 33.09L53.73 33.11L53.60 32.98Q53.88 33.11 54.03 33.07L54.02 33.05L54.04 33.07Q56.51 32.66 57.88 32.08L58.00 32.21L54.41 28.65L54.44 28.68Q54.71 28.30 55.32 27.69L55.30 27.67L56.35 26.90L56.28 26.83Q58.17 28.95 60.15 31.00L60.10 30.95L60.06 30.92Q62.49 29.20 62.76 23.83L62.75 23.82L62.57 23.64Q62.72 22.80 62.72 21.88L62.67 21.83L62.68 21.84Q62.69 16.18 57.63 15.08L57.62 15.07L57.69 15.14Q56.43 14.87 53.92 14.72ZM66.57 36.66L66.65 36.74L66.66 36.75Q66.12 37.23 64.94 38.11L64.87 38.04L60.50 34.40L60.35 34.25Q57.89 35.48 53.62 35.51L53.68 35.57L53.69 35.58Q47.25 35.80 44.43 33.56L44.40 33.52L44.27 33.39Q42.51 31.64 42.05 28.67L42.01 28.62L42.17 28.79Q41.83 26.85 41.45 23.27L41.47 23.28L41.44 23.26Q41.59 22.69 41.48 20.93L41.52 20.97L41.40 20.86Q41.31 19.35 41.34 18.48L41.28 18.41L41.26 18.40Q41.50 15.48 43.25 13.91L43.23 13.90L43.18 13.84Q44.78 12.58 47.97 12.09L47.94 12.06L47.86 11.97Q50.30 11.56 53.20 11.64L53.28 11.72L53.29 11.73Q60.78 11.84 63.90 14.20L63.87 14.16L63.95 14.25Q65.96 16.21 65.69 21.12L65.69 21.12L65.77 21.20Q65.62 24.90 65.43 26.23L65.50 26.30L65.39 26.19Q64.76 30.70 62.44 33.02L62.51 33.09L62.38 32.96Q63.87 34.23 66.61 36.71ZM61.72 12.39L61.69 12.37L61.77 12.44Q59.86 11.83 53.35 11.33L53.30 11.28L53.36 11.34Q51.93 11.33 49.16 11.44L49.01 11.30L49.12 11.41Q44.82 11.56 42.57 13.54L42.65 13.62L42.59 13.55Q40.93 15.02 40.93 18.18L40.99 18.24L40.96 18.21Q40.98 19.07 41.13 20.78L41.21 20.86L41.19 20.83Q41.30 22.50 41.30 23.38L41.28 23.37L41.29 23.38Q41.47 25.15 41.85 28.73L41.75 28.62L41.87 28.75Q42.20 31.59 43.80 33.65L43.76 33.61L43.80 33.65Q44.04 34.38 45.26 35.52L45.24 35.51L45.31 35.57Q48.03 37.57 53.20 37.84L53.15 37.78L53.25 37.88Q53.58 37.87 55.98 37.98L55.91 37.92L55.97 37.97Q60.80 38.16 63.08 37.09L63.09 37.10L62.98 36.99Q63.94 37.76 68.66 41.34L68.61 41.29L68.59 41.27Q69.17 40.71 70.47 39.72L70.59 39.84L70.52 39.78Q69.72 39.16 68.92 38.48L68.83 38.39L67.13 36.88L67.27 36.86L67.29 36.88Q66.78 36.49 65.56 35.46L65.57 35.47L65.43 35.33Q67.43 32.92 67.43 28.39L67.40 28.35L67.37 28.32Q67.46 28.00 67.50 27.16L67.37 27.03L67.48 27.14Q67.45 26.23 67.45 25.82L67.42 25.79L67.48 25.85Q67.58 20.43 66.86 18.07L66.84 18.05L66.72 17.92Q66.36 16.66 65.49 15.59L65.52 15.62L65.49 15.60Q64.67 13.44 61.73 12.41ZM55.71 16.97L55.82 17.08L55.80 17.06Q59.91 17.02 61.74 18.62L61.71 18.59L61.77 18.65Q62.29 19.82 62.41 21.15L62.34 21.09L62.45 21.19Q62.51 22.44 62.44 23.81L62.31 23.68L62.32 23.69Q61.97 28.63 60.03 30.35L60.17 30.49L60.17 30.49Q58.68 29.00 56.17 26.26L56.30 26.39L56.21 26.30Q55.39 27.01 53.83 28.57L53.95 28.69L53.94 28.68Q54.43 29.20 55.57 30.38L55.55 30.36L55.54 30.47L55.63 30.56Q56.19 31.08 57.22 32.15L57.08 32.01L57.06 31.99Q56.10 32.28 53.78 32.59L53.90 32.71L53.32 32.66L52.90 32.66L52.80 32.60L52.78 32.58Q49.32 32.58 47.34 30.94L47.38 30.99L47.34 30.95Q46.49 29.03 46.53 25.91L46.41 25.79L46.38 25.76Q46.69 17.20 55.87 17.12Z"/></svg>