<svg xmlns="http://www.w3.org/2000/svg" width="200" height="40" viewBox="0,0,200,40"><path d="M9 34 C95 28,106 25,190 19" stroke="#444" fill="none"/><path fill="#333" d="M145.21 23.76L145.18 23.73L139.31 23.83L139.18 23.71Q136.32 23.82 133.39 23.74L133.44 23.79L133.44 23.79Q133.54 30.48 131.48 36.00L131.34 35.86L131.52 36.03Q129.68 36.52 127.93 37.21L127.81 37.09L127.92 37.19Q130.55 31.33 130.55 24.67L130.63 24.75L130.59 24.72Q130.66 16.29 126.55 9.25L126.56 9.26L126.57 9.28Q128.13 10.10 130.60 10.90L130.61 10.92L130.51 10.81Q132.66 15.90 133.19 20.77L133.22 20.79L133.18 20.75Q136.48 21.28 139.34 21.24L139.34 21.24L139.18 21.08Q141.99 21.23 145.30 20.96L145.14 20.80L145.31 20.97Q145.74 16.53 147.49 11.43L147.49 11.42L147.33 11.26Q149.45 11.02 151.69 10.18L151.66 10.15L151.66 10.15Q147.91 16.75 147.91 24.71L148.04 24.84L148.01 24.81Q148.04 31.04 150.40 36.37L150.29 36.27L150.30 36.28Q148.73 35.69 146.67 35.39L146.78 35.50L146.74 35.45Q145.07 30.43 145.18 23.73ZM146.47 35.80L146.44 35.77L146.53 35.86Q147.46 35.91 148.57 36.18L148.57 36.18L148.62 36.23Q148.87 36.86 149.52 38.35L149.63 38.46L149.48 38.31Q152.82 39.25 154.61 40.16L154.62 40.18L154.68 40.24Q150.25 34.09 149.94 25.83L149.85 25.74L149.93 25.82Q149.72 17.88 153.38 11.07L153.34 11.03L152.14 11.35L152.30 11.51Q151.70 11.63 151.09 11.79L151.08 11.78L151.08 11.77Q151.45 10.93 152.28 9.37L152.42 9.51L152.47 9.55Q149.62 10.40 147.00 10.89L147.04 10.94L147.14 11.04Q145.46 15.86 145.00 20.54L145.01 20.55L144.89 20.44Q142.41 20.66 139.97 20.66L140.12 20.80L140.05 20.73Q137.56 20.65 135.05 20.49L135.05 20.49L135.22 20.66Q134.81 17.20 133.70 13.13L133.72 13.15L133.80 13.23Q133.19 13.19 131.74 12.80L131.61 12.68L131.70 12.76Q131.32 11.55 130.87 10.52L130.73 10.39L130.81 10.47Q128.03 9.67 125.75 8.41L125.77 8.43L125.74 8.40Q130.40 15.92 130.40 24.72L130.28 24.60L130.36 24.67Q130.34 31.62 127.21 37.75L127.35 37.88L127.17 37.70Q127.98 37.52 129.31 36.94L129.38 37.02L129.27 36.90Q129.02 37.84 128.22 39.36L128.15 39.29L128.08 39.22Q130.94 38.28 133.19 37.86L133.26 37.93L133.23 37.90Q135.04 32.29 135.24 26.12L135.27 26.16L135.21 26.10Q136.88 26.10 140.08 26.06L140.14 26.12L140.02 26.00Q142.84 25.92 144.74 26.00L144.74 25.99L144.87 26.12Q145.01 31.75 146.34 35.67Z"/><path fill="#111" d="M118.89 35.41L118.80 35.32L118.91 35.44Q115.96 31.58 113.34 22.94L113.32 22.92L113.22 22.82Q112.49 20.61 111.69 18.47L111.83 18.61L108.84 27.27L108.88 27.31Q107.18 32.35 104.79 35.59L104.62 35.42L104.75 35.56Q103.76 35.47 102.12 35.62L102.22 35.72L102.30 35.81Q102.31 34.52 102.31 33.27L102.25 33.21L102.42 33.37Q102.33 27.27 99.58 21.14L99.55 21.10L99.66 21.21Q96.40 14.19 90.54 9.20L90.62 9.28L90.59 9.25Q92.80 10.01 95.16 10.54L95.10 10.49L95.12 10.50Q103.69 18.85 104.99 29.81L105.15 29.97L105.15 29.98Q106.81 26.68 108.25 21.32L108.13 21.20L108.16 21.23Q110.12 13.70 110.61 12.29L110.70 12.38L112.92 12.35L112.97 12.40Q113.56 14.33 114.21 16.65L114.19 16.63L115.47 21.11L115.48 21.12Q117.08 26.60 118.49 29.84L118.41 29.76L118.38 29.73Q120.11 18.17 128.02 10.82L127.97 10.77L127.99 10.78Q129.55 10.48 132.52 9.84L132.51 9.83L132.42 9.74Q127.14 14.09 124.10 20.22L124.05 20.17L124.09 20.21Q120.97 26.42 120.97 33.20L120.98 33.21L121.14 33.37Q121.12 34.45 121.20 35.59L121.06 35.45L119.91 35.33L119.99 35.41Q119.50 35.46 118.93 35.46ZM125.05 38.23L125.11 38.29L125.12 38.30Q123.84 34.69 123.95 30.81L123.94 30.80L123.87 30.73Q124.30 19.28 133.66 11.02L133.62 10.98L133.56 10.92Q132.75 11.28 130.81 11.81L130.86 11.87L130.86 11.86Q131.67 10.89 133.57 9.10L133.64 9.16L133.62 9.15Q130.89 9.84 127.96 10.34L128.05 10.42L128.06 10.44Q120.59 17.59 118.69 27.07L118.71 27.09L118.54 26.92Q117.96 25.27 115.10 13.81L115.14 13.85L115.10 13.81Q114.87 14.07 113.92 14.07L113.87 14.03L113.60 12.99L113.45 12.85Q113.51 12.48 113.28 11.99L113.10 11.81L110.21 11.81L110.23 11.83Q109.51 14.39 108.24 19.51L108.08 19.35L108.12 19.39Q106.82 24.49 105.83 26.96L106.00 27.14L105.81 26.94Q104.29 19.10 98.73 12.78L98.83 12.88L98.87 12.92Q98.27 12.74 97.32 12.55L97.38 12.61L97.34 12.58Q96.72 11.84 95.16 10.20L95.14 10.18L95.01 10.06Q91.59 9.22 89.42 8.43L89.40 8.40L89.54 8.54Q95.25 13.26 98.53 19.47L98.40 19.34L98.37 19.31Q101.89 25.99 101.89 32.99L101.95 33.05L101.88 32.98Q101.87 34.53 101.68 36.13L101.75 36.20L101.79 36.25Q101.93 36.16 102.38 36.06L102.49 36.17L102.45 36.13Q102.77 35.89 103.00 35.89L103.00 35.89L103.18 37.10L103.10 37.03Q103.12 37.50 103.19 38.03L103.16 37.99L103.14 37.97Q104.29 37.91 106.57 37.76L106.67 37.85L106.69 37.87Q110.16 32.33 112.91 22.92L113.03 23.05L112.99 23.01Q115.81 31.84 118.78 35.80L118.70 35.72L118.77 35.79Q119.13 35.70 119.97 35.81L120.09 35.93L120.03 35.87Q120.89 36.93 121.96 37.99L121.98 38.01L121.93 37.96Q122.68 37.99 125.08 38.25Z"/><path fill="#333" d="M163.51 35.34L163.46 35.30L163.56 35.39Q162.12 35.44 160.56 35.02L160.55 35.01L160.47 34.93Q159.42 34.18 159.26 32.54L159.17 32.45L159.25 32.53Q159.23 32.35 159.42 29.73L159.32 29.64L159.41 29.72Q160.37 29.46 162.39 29.08L162.32 29.02L162.10 29.75L162.10 29.75Q161.89 31.56 163.30 32.13L163.38 32.21L163.38 32.20Q164.12 32.49 166.22 32.49L166.31 32.59L166.24 32.52Q167.73 32.26 167.92 32.18L167.99 32.24L167.91 32.17Q168.97 32.16 169.69 31.66L169.65 31.62L169.61 31.58Q171.04 30.65 170.85 28.56L170.84 28.54L170.86 28.57Q170.67 26.13 168.93 24.57L168.95 24.58L168.87 24.50Q167.19 23.00 164.72 23.00L164.74 23.02L164.72 22.77L164.70 22.75Q165.12 22.75 165.99 22.67L166.06 22.74L165.96 22.64Q167.88 22.54 169.25 21.30L169.23 21.29L169.32 21.38Q170.67 20.12 170.83 18.26L170.76 18.20L170.85 18.28Q170.85 17.86 170.85 17.52L170.83 17.50L170.86 17.53Q170.84 15.99 169.47 15.08L169.50 15.10L169.41 15.02Q168.34 14.37 166.75 14.48L166.57 14.31L166.72 14.45Q165.46 14.34 164.24 14.76L164.23 14.74L164.15 14.66Q162.67 15.16 162.36 16.30L162.49 16.43L162.32 16.26Q162.25 17.15 162.33 17.91L162.35 17.93L162.19 17.77Q161.31 17.68 159.25 16.96L159.29 17.00L159.30 17.01Q158.89 15.15 158.93 14.31L158.96 14.35L159.06 14.44Q159.05 12.80 160.12 12.12L160.15 12.15L160.19 12.19Q161.54 11.52 163.14 11.52L163.18 11.57L163.11 11.49Q166.27 11.45 169.43 11.72L169.55 11.84L169.54 11.83Q174.60 12.25 174.30 16.02L174.34 16.06L174.25 15.97Q174.26 17.54 173.76 19.10L173.63 18.96L173.80 19.13Q172.79 22.13 170.43 23.04L170.43 23.04L170.53 23.14Q173.11 23.62 173.72 26.97L173.71 26.96L173.61 26.86Q173.82 27.99 173.89 30.00L173.88 29.99L173.94 30.05Q174.20 34.62 169.60 35.07L169.50 34.98L169.45 34.93Q168.76 35.04 163.47 35.30ZM168.70 37.57L168.67 37.53L168.80 37.66Q169.41 37.71 172.27 37.78L172.20 37.71L172.24 37.76Q174.04 37.87 175.67 37.23L175.59 37.14L175.50 37.06Q176.75 36.17 176.56 34.42L176.56 34.43L176.57 34.43Q176.45 33.10 176.15 31.34L176.07 31.27L176.07 31.27Q175.43 26.86 173.49 25.22L173.43 25.16L173.34 24.89L173.31 24.82L173.32 24.82Q174.92 23.22 175.68 18.84L175.80 18.97L175.80 18.97Q175.87 18.55 175.99 17.59L175.98 17.59L175.92 17.52Q176.06 16.83 175.98 16.14L176.00 16.16L175.95 16.11Q175.82 14.46 174.53 13.77L174.40 13.64L174.43 13.76L174.33 13.65Q174.15 12.79 173.01 12.26L172.92 12.16L172.93 12.18Q171.48 11.56 166.34 11.26L166.26 11.18L166.31 11.22Q164.71 11.23 163.11 11.23L162.98 11.09L162.95 11.07Q161.38 11.09 159.85 11.74L159.92 11.80L159.81 11.70Q158.66 12.52 158.66 14.27L158.66 14.28L158.59 14.20Q158.61 13.80 158.87 17.15L158.86 17.14L158.93 17.21Q159.33 17.38 160.97 17.99L160.79 17.82L160.85 17.88Q160.90 18.45 160.86 18.95L160.83 18.92L160.76 18.85Q160.90 19.48 160.94 20.02L160.90 19.98L160.89 19.97Q162.69 20.36 164.71 20.47L164.67 20.44L164.61 20.38Q164.71 18.54 165.82 17.70L165.76 17.64L165.77 17.65Q166.60 17.00 168.62 16.77L168.53 16.68L168.62 16.78Q169.70 16.71 170.27 16.90L170.32 16.95L170.21 16.84Q170.35 17.06 170.39 17.17L170.38 17.16L170.45 17.42L170.55 17.99L170.45 17.88Q170.41 18.03 170.37 18.19L170.35 18.16L170.41 18.22Q170.43 20.03 168.91 21.21L168.80 21.11L168.86 21.17Q167.85 21.98 165.83 22.17L166.01 22.34L165.97 22.31Q165.12 22.33 164.24 22.33L164.28 22.37L164.31 22.40Q164.28 22.67 164.43 23.36L164.44 23.37L164.51 23.44Q166.21 23.39 167.66 24.11L167.64 24.10L167.63 24.19L166.10 24.41L165.93 24.24Q166.03 24.65 166.14 25.26L166.11 25.23L166.10 25.22Q168.28 25.19 170.00 26.53L170.06 26.59L169.96 26.48Q170.26 26.94 170.56 28.58L170.51 28.53L170.60 28.62Q170.84 31.59 167.91 32.01L167.74 31.84L167.81 31.92Q165.75 32.22 165.18 32.18L165.09 32.09L165.16 32.16Q164.77 32.11 164.24 32.03L164.22 32.02L164.14 31.48L164.30 31.07L164.36 30.71L164.39 30.40L164.31 30.32Q163.42 30.46 162.62 30.65L162.64 30.67L162.64 30.66Q162.66 30.49 162.66 30.30L162.50 30.15L162.47 30.11Q162.61 30.03 162.61 29.80L162.58 29.77L162.58 29.77Q162.73 29.46 162.88 28.74L162.71 28.56L162.75 28.60Q160.98 28.93 159.12 29.27L158.99 29.14L159.15 29.31Q159.01 29.66 158.90 30.79L158.94 30.83L158.97 30.86Q158.87 31.99 158.87 32.60L158.91 32.65L158.79 32.52Q158.99 34.71 160.36 35.47L160.21 35.32L160.29 35.40Q161.71 37.62 166.43 37.43L166.38 37.38L166.45 37.44Q167.10 37.34 168.63 37.49Z"/><path d="M10 16 C113 28,117 14,188 9" stroke="#666" fill="none"/><path fill="#111" d="M81.99 35.10L82.15 35.27L79.64 28.29L79.74 28.40Q75.33 15.77 69.39 9.37L69.42 9.40L69.26 9.24Q71.41 10.43 74.00 11.04L74.06 11.11L73.98 11.03Q79.12 17.31 83.46 30.06L83.46 30.06L83.43 30.03Q86.48 21.93 87.17 20.33L87.21 20.37L87.25 20.42Q89.59 14.76 92.41 11.45L92.38 11.42L92.41 11.45Q94.49 11.10 97.12 10.22L97.10 10.20L97.16 10.27Q92.50 14.77 89.45 22.01L89.53 22.08L89.50 22.06Q88.06 25.68 84.37 35.20L84.42 35.25L84.31 35.14Q83.78 35.18 83.21 35.14L83.23 35.16L83.20 35.13Q82.62 35.12 82.05 35.16ZM87.01 37.53L87.13 37.65L87.10 37.62Q89.97 27.70 91.53 23.67L91.45 23.59L91.36 23.50Q94.47 15.90 98.88 11.03L98.89 11.04L98.81 10.96Q97.81 11.37 95.71 12.09L95.69 12.06L96.82 10.72L96.91 10.81Q97.46 10.10 98.07 9.46L98.16 9.55L98.13 9.51Q95.22 10.42 92.22 10.99L92.33 11.10L92.34 11.12Q87.80 16.28 83.91 27.74L83.89 27.71L83.97 27.79Q80.29 17.64 77.09 13.26L77.04 13.21L77.16 13.33Q76.69 13.16 75.81 13.01L75.82 13.02L75.93 13.13Q75.66 12.70 74.06 10.65L74.12 10.71L73.98 10.57Q71.02 9.86 68.32 8.45L68.39 8.52L68.29 8.42Q74.90 15.49 79.28 28.28L79.39 28.39L79.40 28.40Q80.66 32.09 81.84 35.67L81.83 35.66L81.78 35.62Q82.13 35.66 82.97 35.55L82.99 35.57L82.91 35.49Q83.43 36.35 84.12 37.69L84.00 37.57L84.08 37.65Q84.85 37.50 85.57 37.58L85.53 37.54L85.55 37.56Q86.28 37.57 87.05 37.57Z"/><path fill="#222" d="M55.87 15.11L55.93 15.17L55.80 15.04Q51.59 15.13 47.90 14.14L47.78 14.02L47.82 14.06Q49.37 18.67 49.57 23.50L49.53 23.47L49.52 23.46Q49.79 28.33 48.57 32.93L48.63 32.99L48.48 32.85Q51.26 32.20 54.76 32.05L54.89 32.17L54.78 32.06Q58.88 32.05 60.67 29.62L60.65 29.59L60.66 29.61Q62.11 27.48 62.30 23.37L62.24 23.31L62.19 23.26Q62.29 21.53 61.83 19.82L61.86 19.84L61.88 19.86Q60.58 15.10 55.86 15.10ZM44.05 37.21L44.05 37.21L44.01 37.17Q46.91 31.51 46.91 24.81L46.84 24.73L46.77 24.67Q46.82 16.19 42.52 9.19L42.52 9.19L42.52 9.19Q47.89 11.96 56.15 12.16L56.01 12.02L56.13 12.14Q64.87 12.19 65.21 19.35L65.21 19.35L65.27 19.41Q65.45 22.18 65.42 23.63L65.41 23.63L65.33 23.54Q65.31 28.28 64.47 30.45L64.37 30.35L64.47 30.45Q64.03 31.53 63.27 32.37L63.36 32.46L63.31 32.41Q61.94 33.93 59.31 34.43L59.22 34.34L59.30 34.41Q57.67 34.65 54.67 34.88L54.65 34.87L54.75 34.97Q48.49 35.30 43.89 37.05ZM61.97 37.09L61.90 37.01L61.82 36.94Q64.66 36.69 66.30 35.21L66.34 35.25L66.36 35.27Q67.52 33.46 67.48 30.72L67.42 30.66L67.41 30.64Q67.40 29.27 67.25 25.77L67.30 25.82L67.01 21.34L66.85 21.18Q66.80 19.04 65.85 16.94L65.77 16.86L65.77 16.87Q65.20 15.88 64.52 15.23L64.68 15.39L64.59 15.15L64.66 15.22Q62.96 12.26 58.54 11.88L58.53 11.87L58.40 11.74Q55.84 11.73 48.83 11.01L48.71 10.88L48.71 10.88Q45.56 10.55 41.87 8.54L41.82 8.48L41.74 8.41Q46.54 15.75 46.54 24.51L46.65 24.62L46.62 24.59Q46.55 31.53 43.20 37.70L43.38 37.88L43.24 37.74Q43.91 37.45 45.24 36.95L45.23 36.95L45.21 36.93Q44.94 37.84 44.07 39.32L44.06 39.32L44.10 39.35Q47.19 38.34 50.54 37.84L50.46 37.76L50.52 37.82Q52.52 37.42 56.18 37.31L56.15 37.28L56.13 37.26Q60.16 37.29 61.99 37.10ZM61.99 23.43L61.91 23.36L61.95 23.39Q61.63 31.45 54.93 31.84L54.96 31.86L54.88 31.79Q52.83 31.79 50.77 32.06L50.94 32.22L50.92 32.21Q51.64 28.36 51.64 24.70L51.62 24.68L51.56 24.62Q51.63 21.00 50.91 17.15L50.75 16.99L50.91 17.16Q53.09 17.43 57.77 17.43L57.71 17.37L57.84 17.50Q59.14 17.28 60.78 18.23L60.79 18.24L60.83 18.28Q62.17 20.61 62.02 23.47Z"/><path fill="#222" d="M17.22 33.99L17.25 34.02L17.30 34.06Q19.05 31.55 23.80 24.27L23.86 24.34L23.74 24.21Q27.80 18.03 30.66 14.76L30.72 14.82L30.63 14.73Q28.57 15.07 26.48 15.07L26.55 15.14L26.47 15.07Q21.26 15.10 17.26 13.31L17.33 13.38L17.35 13.40Q16.65 11.45 15.97 9.89L15.84 9.77L15.96 9.89Q20.52 12.05 26.20 12.16L26.07 12.03L26.20 12.17Q31.36 12.27 36.54 10.36L36.41 10.23L36.54 10.36Q36.04 11.08 35.74 11.88L35.76 11.91L35.22 13.53L35.29 13.60Q32.22 17.23 28.22 23.06L28.21 23.05L24.89 27.88L24.86 27.84Q23.05 30.14 21.22 32.43L21.37 32.57L21.28 32.48Q24.59 31.87 27.90 31.95L27.88 31.93L27.98 32.03Q31.36 32.18 34.52 33.09L34.49 33.06L34.93 34.60L34.88 34.55Q35.24 35.48 35.58 36.32L35.54 36.27L35.53 36.26Q30.88 34.70 25.74 34.89L25.63 34.78L25.73 34.88Q20.62 35.10 16.13 37.12L16.15 37.14L16.03 37.01Q16.56 36.11 17.29 34.05ZM15.46 37.75L15.50 37.78L15.40 37.68Q16.79 37.25 17.59 36.98L17.44 36.83L17.47 36.86Q17.17 37.59 16.49 39.12L16.49 39.11L16.66 39.28Q22.26 37.04 28.24 37.27L28.28 37.32L28.31 37.35Q34.52 37.46 39.54 40.24L39.62 40.32L39.61 40.30Q38.25 37.96 37.45 35.79L37.48 35.82L37.29 35.63Q36.83 35.43 35.30 34.86L35.41 34.97L35.36 34.92Q35.08 34.07 34.67 32.59L34.76 32.68L34.81 32.73Q30.61 31.50 25.51 31.69L25.48 31.67L25.58 31.76Q27.68 28.99 31.22 23.43L31.27 23.48L31.14 23.35Q34.90 17.75 36.81 15.20L36.83 15.22L36.76 15.15Q37.16 13.65 38.19 10.95L38.31 11.07L38.36 11.12Q37.67 11.45 36.22 12.06L36.14 11.98L36.14 11.98Q36.42 11.11 37.14 9.59L37.22 9.67L37.16 9.61Q31.96 11.88 26.25 11.80L26.13 11.67L26.07 11.62Q20.08 11.49 15.13 8.97L15.16 9.01L15.28 9.13Q16.38 11.44 17.10 13.69L17.02 13.61L17.04 13.63Q18.23 14.25 19.03 14.48L19.07 14.51L18.91 14.36Q19.24 15.11 19.51 16.56L19.61 16.65L19.58 16.62Q23.35 17.73 28.23 17.54L28.07 17.38L28.15 17.46Q25.69 20.60 22.38 25.59L22.44 25.65L16.88 33.94L16.98 34.05Q16.49 35.19 15.46 37.74Z"/></svg>