<svg xmlns="http://www.w3.org/2000/svg" width="200" height="40" viewBox="0,0,200,40"><path fill="#111" d="M47.02 10.87L46.95 10.79L46.96 10.81Q48.96 15.78 49.53 20.95L49.49 20.91L49.53 20.95Q53.24 16.82 59.14 11.98L59.17 12.02L59.17 12.01Q62.23 11.57 64.85 10.77L64.96 10.88L58.36 16.46L58.41 16.51Q55.02 19.47 52.16 22.33L52.10 22.27L52.03 22.20Q60.03 31.38 65.10 36.10L65.04 36.04L65.01 36.01Q62.05 35.22 59.73 35.07L59.77 35.11L59.72 35.06Q53.98 29.71 49.68 23.88L49.68 23.89L49.56 23.76Q49.64 30.36 47.78 35.69L47.95 35.86L47.80 35.71Q47.58 35.75 47.09 35.94L47.05 35.91L47.17 36.22L47.19 36.24Q46.98 36.25 44.43 37.17L44.39 37.13L44.30 37.05Q47.30 30.52 46.95 23.06L47.02 23.13L47.00 23.11Q46.59 15.69 43.05 9.18L43.06 9.19L43.54 9.41L43.97 9.72L44.18 9.90L44.18 9.89Q44.79 10.16 47.00 10.85ZM47.28 10.55L47.29 10.57L47.38 10.66Q45.09 10.08 42.46 8.56L42.45 8.54L42.36 8.45Q46.58 15.68 46.58 24.63L46.66 24.71L46.69 24.74Q46.69 31.74 43.72 37.79L43.71 37.78L45.79 36.97L45.63 36.81Q45.30 37.89 44.62 39.19L44.75 39.32L44.63 39.20Q46.98 38.51 48.92 38.09L48.82 37.98L48.93 37.86L49.02 37.95Q49.14 37.77 49.71 37.62L49.71 37.62L49.70 37.61Q51.39 31.72 51.50 26.92L51.45 26.87L51.52 26.94Q53.69 29.53 55.51 31.39L55.51 31.38L55.47 31.35Q56.62 32.42 59.63 35.39L59.58 35.34L59.59 35.35L59.66 35.43Q60.72 36.29 62.58 37.89L62.61 37.92L62.50 37.81Q66.38 38.53 69.85 40.24L69.76 40.16L69.86 40.26Q60.56 31.68 54.32 24.26L54.32 24.26L54.23 24.17Q58.69 19.95 67.44 11.34L67.53 11.43L67.48 11.38Q64.96 12.55 62.94 12.93L62.92 12.91L62.99 12.98Q64.13 11.91 66.45 9.89L66.54 9.98L66.40 9.84Q62.36 11.32 59.01 11.51L59.03 11.53L58.93 11.43Q56.10 13.74 51.22 18.42L51.20 18.39L51.21 18.40Q50.78 15.77 50.21 13.22L50.28 13.29L50.28 13.29Q49.11 13.14 48.12 12.80L48.12 12.81L48.04 12.72Q47.80 11.95 47.23 10.51Z"/><path fill="#111" d="M110.49 14.72L110.48 14.71L110.46 14.69Q108.48 14.80 107.53 14.96L107.51 14.94L107.58 15.01Q105.85 15.14 104.63 15.67L104.64 15.69L104.60 15.64Q101.14 17.13 101.02 21.81L100.98 21.77L101.06 21.85Q101.03 24.56 101.68 27.50L101.69 27.51L101.64 27.45Q102.55 31.52 106.16 32.70L106.06 32.60L106.08 32.62Q107.97 33.17 109.41 33.02L109.37 32.98L109.83 32.98L109.80 32.95Q110.13 33.09 110.32 33.13L110.18 32.99L110.22 33.02Q110.33 32.98 110.48 32.94L110.65 33.11L110.48 32.94Q113.27 32.84 114.64 32.27L114.64 32.27L111.05 28.72L110.88 28.55Q111.22 28.25 111.83 27.64L111.90 27.71L112.90 26.88L112.92 26.89Q114.65 28.86 116.63 30.92L116.56 30.84L116.62 30.90Q118.88 29.01 119.15 23.64L119.14 23.64L119.22 23.72Q119.34 22.85 119.34 21.93L119.26 21.85L119.23 21.82Q119.25 16.17 114.18 15.06L114.33 15.21L114.24 15.12Q112.98 14.85 110.47 14.70ZM123.28 36.80L123.14 36.66L123.16 36.68Q122.55 37.10 121.37 37.98L121.45 38.06L117.00 34.33L116.97 34.30Q114.63 35.65 110.37 35.69L110.32 35.64L110.31 35.63Q103.68 35.66 100.86 33.42L100.82 33.38L101.01 33.56Q99.09 31.64 98.63 28.67L98.73 28.77L98.70 28.74Q98.45 26.89 98.07 23.31L98.20 23.44L98.12 23.36Q98.19 22.72 98.08 20.96L98.04 20.92L97.99 20.88Q97.83 19.30 97.87 18.43L97.82 18.38L97.95 18.51Q98.06 15.46 99.81 13.90L99.69 13.78L99.67 13.76Q101.36 12.60 104.56 12.10L104.54 12.08L104.40 11.94Q106.94 11.63 109.84 11.71L109.93 11.80L109.79 11.66Q117.35 11.84 120.48 14.20L120.37 14.09L120.40 14.12Q122.55 16.24 122.28 21.15L122.31 21.17L122.31 21.17Q122.27 24.97 122.07 26.31L121.90 26.13L121.97 26.20Q121.39 30.76 119.07 33.08L118.96 32.98L118.94 32.95Q120.52 34.31 123.27 36.78ZM118.26 12.36L118.37 12.47L118.28 12.38Q116.39 11.79 109.88 11.29L109.91 11.32L109.80 11.21Q108.53 11.35 105.75 11.47L105.69 11.41L105.78 11.49Q101.44 11.61 99.20 13.59L99.20 13.60L99.18 13.58Q97.45 14.96 97.45 18.12L97.57 18.25L97.59 18.27Q97.49 19.00 97.64 20.72L97.71 20.78L97.64 20.71Q97.79 22.43 97.79 23.30L97.79 23.30L97.84 23.36Q97.95 25.06 98.33 28.64L98.36 28.67L98.28 28.58Q98.64 31.46 100.24 33.52L100.36 33.63L100.28 33.56Q100.68 34.45 101.90 35.59L101.79 35.48L101.79 35.49Q104.60 37.57 109.78 37.84L109.84 37.90L109.86 37.92Q110.15 37.87 112.55 37.98L112.50 37.93L112.54 37.98Q117.35 38.14 119.63 37.07L119.55 36.99L119.58 37.02Q120.49 37.74 125.21 41.32L125.17 41.28L125.25 41.36Q125.81 40.78 127.11 39.79L127.07 39.75L127.09 39.77Q126.18 39.06 125.38 38.37L125.36 38.35L123.77 36.95L123.94 36.96L123.94 36.96Q123.41 36.54 122.19 35.52L122.15 35.48L122.08 35.41Q124.03 32.94 124.03 28.41L123.93 28.32L124.04 28.42Q123.98 27.95 124.02 27.11L123.96 27.04L124.00 27.09Q124.00 26.21 124.00 25.79L124.12 25.91L124.07 25.86Q123.99 20.26 123.27 17.90L123.32 17.96L123.30 17.94Q122.88 16.61 122.01 15.54L122.06 15.60L122.02 15.55Q121.36 13.56 118.43 12.53ZM112.41 17.09L112.31 16.99L112.35 17.04Q116.43 16.97 118.26 18.57L118.15 18.46L118.19 18.50Q118.83 19.79 118.94 21.12L118.98 21.15L118.95 21.13Q118.92 22.28 118.85 23.65L118.89 23.69L118.86 23.66Q118.66 28.75 116.72 30.47L116.61 30.35L116.63 30.37Q115.31 29.06 112.80 26.32L112.82 26.34L112.91 26.43Q112.07 27.11 110.51 28.67L110.49 28.65L110.40 28.56Q111.07 29.28 112.22 30.46L112.14 30.38L112.14 30.49L112.12 30.47Q112.77 31.09 113.80 32.16L113.71 32.07L113.70 32.05Q112.75 32.36 110.43 32.67L110.42 32.66L109.85 32.62L109.44 32.63L109.51 32.74L109.46 32.68Q105.97 32.66 103.99 31.02L103.97 31.00L104.06 31.10Q102.89 28.86 102.93 25.74L102.98 25.79L102.95 25.76Q103.15 17.09 112.33 17.01Z"/><path fill="#222" d="M163.58 35.41L163.57 35.40L163.45 35.28Q162.00 35.32 160.44 34.90L160.57 35.02L160.45 34.91Q159.32 34.09 159.17 32.45L159.22 32.50L159.18 32.46Q159.09 32.21 159.28 29.59L159.33 29.64L159.33 29.64Q160.25 29.34 162.27 28.96L162.35 29.04L162.22 29.87L162.12 29.76Q161.95 31.61 163.35 32.18L163.22 32.05L163.33 32.16Q164.10 32.47 166.19 32.47L166.12 32.39L166.18 32.45Q167.74 32.26 167.93 32.19L168.00 32.26L167.91 32.17Q168.85 32.04 169.57 31.55L169.54 31.51L169.63 31.60Q171.02 30.64 170.83 28.54L170.79 28.50L170.92 28.63Q170.66 26.12 168.93 24.56L168.98 24.61L168.98 24.62Q167.24 23.05 164.77 23.05L164.66 22.94L164.64 22.69L164.77 22.83Q165.09 22.72 165.96 22.64L166.02 22.70L166.07 22.75Q167.87 22.53 169.24 21.30L169.16 21.22L169.25 21.30Q170.68 20.13 170.83 18.26L170.85 18.28L170.77 18.20Q170.86 17.87 170.86 17.53L170.81 17.48L170.86 17.53Q170.77 15.92 169.40 15.01L169.53 15.13L169.50 15.10Q168.27 14.29 166.67 14.41L166.75 14.49L166.74 14.48Q165.38 14.26 164.16 14.68L164.10 14.62L164.15 14.67Q162.66 15.16 162.36 16.30L162.36 16.30L162.46 16.40Q162.20 17.09 162.28 17.85L162.21 17.79L162.33 17.91Q161.20 17.58 159.15 16.86L159.29 17.00L159.30 17.00Q159.04 15.30 159.08 14.47L159.01 14.39L158.94 14.33Q159.18 12.93 160.25 12.25L160.13 12.13L160.12 12.12Q161.58 11.56 163.18 11.56L163.20 11.58L163.21 11.59Q166.37 11.56 169.53 11.82L169.53 11.82L169.56 11.85Q174.67 12.31 174.36 16.08L174.37 16.09L174.33 16.05Q174.17 17.46 173.68 19.02L173.69 19.02L173.81 19.14Q172.90 22.23 170.54 23.14L170.53 23.14L170.45 23.06Q173.05 23.56 173.66 26.91L173.70 26.96L173.65 26.90Q173.94 28.11 174.01 30.12L173.94 30.05L173.93 30.04Q174.17 34.58 169.56 35.03L169.51 34.98L169.46 34.94Q168.71 34.98 163.41 35.25ZM168.73 37.59L168.68 37.54L168.69 37.55Q169.33 37.62 172.19 37.70L172.22 37.73L172.28 37.79Q173.94 37.78 175.58 37.13L175.54 37.09L175.60 37.16Q176.70 36.13 176.51 34.38L176.61 34.47L176.51 34.37Q176.37 33.02 176.07 31.27L176.22 31.42L176.24 31.44Q175.35 26.78 173.41 25.14L173.39 25.12L173.26 24.80L173.31 24.81L173.25 24.75Q174.91 23.22 175.67 18.84L175.76 18.92L175.71 18.88Q175.79 18.46 175.90 17.51L175.87 17.47L175.98 17.59Q176.04 16.81 175.97 16.13L175.87 16.03L175.94 16.10Q175.81 14.45 174.52 13.76L174.38 13.63L174.42 13.74L174.37 13.69Q174.09 12.73 172.95 12.20L173.00 12.24L173.00 12.24Q171.51 11.59 166.37 11.29L166.30 11.22L166.28 11.20Q164.56 11.07 162.96 11.07L163.04 11.16L162.96 11.07Q161.33 11.04 159.81 11.69L159.87 11.75L159.81 11.70Q158.59 12.45 158.59 14.20L158.74 14.36L158.63 14.25Q158.63 13.83 158.90 17.18L158.98 17.26L158.85 17.13Q159.24 17.29 160.88 17.90L160.88 17.90L160.83 17.86Q160.82 18.38 160.78 18.87L160.80 18.89L160.91 19.00Q160.76 19.34 160.80 19.88L160.84 19.92L160.85 19.93Q162.58 20.25 164.60 20.37L164.72 20.49L164.72 20.49Q164.66 18.48 165.76 17.65L165.69 17.58L165.72 17.60Q166.49 16.89 168.50 16.66L168.64 16.79L168.64 16.79Q169.72 16.73 170.29 16.92L170.27 16.90L170.34 16.97Q170.36 17.07 170.40 17.18L170.45 17.23L170.32 17.29L170.55 17.98L170.44 17.87Q170.56 18.18 170.52 18.33L170.52 18.33L170.39 18.20Q170.46 20.06 168.93 21.24L168.80 21.10L168.85 21.15Q167.97 22.10 165.95 22.29L166.00 22.34L165.96 22.30Q165.20 22.42 164.33 22.42L164.29 22.38L164.28 22.37Q164.34 22.73 164.49 23.42L164.53 23.46L164.42 23.35Q166.33 23.51 167.78 24.23L167.62 24.07L167.55 24.12L165.98 24.30L165.97 24.29Q166.06 24.68 166.17 25.29L166.24 25.35L166.14 25.26Q168.26 25.17 169.97 26.50L170.04 26.56L169.99 26.52Q170.20 26.88 170.50 28.51L170.62 28.64L170.63 28.64Q170.68 31.43 167.75 31.85L167.81 31.91L167.81 31.91Q165.76 32.22 165.19 32.18L165.07 32.07L165.12 32.12Q164.67 32.02 164.14 31.94L164.23 32.03L164.16 31.50L164.35 31.12L164.37 30.72L164.37 30.38L164.30 30.31Q163.43 30.47 162.63 30.66L162.69 30.72L162.51 30.54Q162.63 30.46 162.63 30.27L162.61 30.26L162.59 30.24Q162.52 29.94 162.52 29.71L162.60 29.79L162.54 29.73Q162.62 29.35 162.77 28.63L162.77 28.62L162.77 28.63Q160.98 28.93 159.12 29.27L159.05 29.21L158.98 29.14Q159.00 29.65 158.88 30.77L158.95 30.84L158.92 30.81Q158.87 32.00 158.87 32.61L158.91 32.64L158.78 32.52Q158.99 34.70 160.36 35.47L160.37 35.47L160.24 35.34Q161.85 37.76 166.57 37.57L166.40 37.39L166.56 37.55Q167.27 37.50 168.79 37.66Z"/><path fill="#444" d="M17.12 33.89L17.17 33.93L17.30 34.07Q19.02 31.52 23.78 24.25L23.87 24.34L23.88 24.35Q27.92 18.15 30.78 14.88L30.81 14.91L30.70 14.80Q28.66 15.15 26.56 15.15L26.46 15.05L26.46 15.06Q21.35 15.20 17.36 13.41L17.28 13.34L17.21 13.26Q16.70 11.49 16.01 9.93L15.94 9.86L15.96 9.88Q20.49 12.01 26.16 12.13L26.22 12.18L26.24 12.20Q31.34 12.24 36.52 10.34L36.47 10.29L36.38 10.20Q36.13 11.17 35.83 11.97L35.82 11.97L35.12 13.44L35.24 13.55Q32.14 17.15 28.14 22.98L28.05 22.88L24.73 27.72L24.85 27.83Q23.11 30.20 21.28 32.48L21.36 32.56L21.28 32.48Q24.69 31.97 28.00 32.05L27.99 32.03L27.88 31.93Q31.32 32.13 34.48 33.05L34.43 33.00L34.95 34.62L34.94 34.61Q35.26 35.50 35.60 36.34L35.44 36.18L35.49 36.22Q30.84 34.66 25.70 34.85L25.77 34.92L25.72 34.87Q20.52 35.00 16.03 37.01L16.11 37.10L16.19 37.18Q16.56 36.10 17.28 34.05ZM15.44 37.73L15.50 37.79L15.47 37.76Q16.72 37.18 17.52 36.91L17.61 37.00L17.61 37.00Q17.15 37.57 16.46 39.09L16.64 39.27L16.60 39.22Q22.28 37.07 28.26 37.29L28.26 37.29L28.22 37.26Q34.53 37.47 39.55 40.25L39.55 40.25L39.64 40.34Q38.11 37.82 37.31 35.65L37.38 35.71L37.34 35.68Q36.85 35.45 35.33 34.88L35.43 34.98L35.40 34.96Q35.22 34.20 34.80 32.72L34.81 32.73L34.68 32.60Q30.60 31.49 25.50 31.68L25.59 31.77L25.50 31.68Q27.60 28.90 31.14 23.35L31.14 23.35L31.25 23.46Q34.93 17.78 36.84 15.23L36.79 15.18L36.75 15.14Q37.32 13.81 38.35 11.10L38.33 11.08L38.22 10.97Q37.54 11.33 36.10 11.93L36.08 11.92L36.21 12.05Q36.55 11.25 37.27 9.73L37.19 9.64L37.14 9.59Q31.93 11.85 26.22 11.77L26.08 11.63L26.15 11.70Q20.18 11.59 15.23 9.08L15.32 9.17L15.19 9.03Q16.35 11.41 17.07 13.66L17.16 13.75L17.02 13.60Q18.17 14.18 18.97 14.41L18.91 14.35L18.95 14.40Q19.30 15.16 19.57 16.61L19.55 16.60L19.50 16.55Q23.29 17.67 28.16 17.48L28.14 17.46L28.19 17.50Q25.78 20.69 22.47 25.68L22.37 25.58L16.91 33.98L16.91 33.98Q16.51 35.22 15.49 37.77Z"/><path d="M5 4 C108 30,104 26,181 15" stroke="#444" fill="none"/><path d="M16 33 C88 16,113 10,183 37" stroke="#333" fill="none"/><path fill="#333" d="M92.57 18.05L92.59 18.06L92.61 18.09Q90.86 20.86 88.19 26.49L88.01 26.31L86.15 30.69L86.06 30.61Q85.20 32.53 83.87 34.77L83.90 34.80L83.92 34.82Q84.26 34.71 82.59 34.75L82.64 34.80L82.73 34.89Q82.70 34.86 81.45 34.86L81.50 34.91L81.40 34.82Q80.62 33.27 77.69 26.12L77.82 26.25L77.74 26.17Q75.66 20.89 73.57 17.89L73.56 17.87L73.51 17.83Q74.28 20.92 74.28 24.08L74.18 23.98L74.31 24.11Q74.28 30.58 71.31 36.14L71.22 36.05L71.30 36.14Q69.93 36.44 67.57 37.17L67.54 37.13L67.64 37.23Q71.26 31.50 71.26 24.26L71.32 24.32L71.23 24.22Q71.28 15.33 65.87 8.36L65.96 8.45L65.93 8.42Q67.55 9.12 69.91 9.81L69.94 9.84L69.97 9.88Q77.04 16.63 83.13 29.96L83.11 29.94L82.93 29.76Q86.61 22.94 88.82 19.43L88.75 19.36L88.73 19.34Q92.31 13.56 96.27 10.10L96.31 10.13L96.32 10.15Q97.46 9.80 99.82 9.04L99.89 9.11L99.86 9.08Q94.94 15.77 94.94 24.37L94.93 24.36L94.81 24.25Q94.92 31.02 98.35 36.54L98.34 36.53L98.33 36.52Q96.96 36.18 94.22 35.57L94.25 35.60L94.33 35.68Q91.88 30.79 91.88 24.82L91.83 24.77L91.91 24.85Q91.85 21.36 92.53 18.01ZM94.01 35.93L94.01 35.93L94.15 36.06Q94.84 36.19 96.29 36.46L96.29 36.46L96.17 36.34Q96.57 37.04 97.52 38.53L97.64 38.64L97.69 38.69Q99.75 39.04 103.21 40.26L103.30 40.35L103.28 40.32Q96.85 33.82 96.85 24.00L96.97 24.12L96.98 24.13Q96.85 16.27 101.23 10.15L101.32 10.23L99.20 11.01L99.19 11.00Q100.22 9.47 100.86 8.60L100.85 8.58L100.80 8.53Q98.94 9.19 96.31 9.72L96.18 9.59L96.19 9.60Q89.54 15.81 83.48 28.41L83.51 28.43L83.50 28.42Q78.31 17.45 73.36 12.20L73.30 12.14L73.42 12.25Q72.86 12.00 72.29 11.88L72.45 12.04L71.16 10.68L71.16 10.68Q70.66 10.10 69.97 9.49L69.87 9.39L69.93 9.45Q66.83 8.40 65.04 7.68L65.04 7.68L65.02 7.67Q71.04 14.90 71.04 24.30L70.98 24.24L71.01 24.27Q71.11 31.98 66.96 37.85L66.86 37.75L66.95 37.84Q67.53 37.51 68.82 37.09L68.94 37.21L68.86 37.13Q68.83 37.48 67.42 39.57L67.35 39.49L67.40 39.55Q69.16 39.03 72.67 38.26L72.57 38.17L72.56 38.15Q76.31 31.14 76.12 23.37L76.18 23.43L76.13 23.38Q77.76 27.48 81.22 35.36L81.23 35.37L81.22 35.36Q81.48 35.32 81.71 35.32L81.59 35.19L82.22 35.30L82.14 35.22Q82.54 35.84 83.34 37.13L83.36 37.15L83.31 37.11Q85.14 37.30 85.14 37.30L85.11 37.27L84.95 37.11Q86.13 37.26 86.77 37.34L86.75 37.31L86.71 37.27Q88.29 33.25 91.64 25.26L91.59 25.21L91.55 25.17Q91.50 30.67 94.09 36.00Z"/><path fill="#444" d="M140.95 27.16L131.65 17.09L131.73 17.17Q132.49 20.79 132.49 24.52L132.49 24.52L132.57 24.60Q132.61 30.62 130.55 36.17L130.40 36.02L130.53 36.15Q129.41 36.36 127.17 37.13L127.24 37.20L127.17 37.13Q129.97 31.33 129.97 24.63L130.05 24.70L130.05 24.71Q129.94 15.95 125.45 8.53L125.44 8.53L125.52 8.60Q125.86 8.68 126.55 9.10L126.52 9.07L126.53 9.08Q138.73 20.40 146.57 29.65L146.55 29.64L146.61 29.70Q146.15 27.10 146.15 24.66L146.28 24.80L146.16 24.67Q146.23 17.51 148.74 11.30L148.69 11.26L148.80 11.36Q151.15 10.86 152.75 10.18L152.58 10.01L152.58 10.01Q149.36 16.26 149.06 23.42L149.10 23.47L149.06 23.42Q148.84 30.85 151.81 37.02L151.70 36.91L151.78 36.99Q151.18 36.89 150.76 36.70L150.75 36.69L150.77 36.71Q146.08 32.63 140.87 27.07L140.97 27.17ZM154.32 40.10L154.32 40.10L154.33 40.12Q154.90 40.38 155.32 40.57L155.16 40.41L156.12 40.88L156.20 40.95Q151.01 33.98 151.01 24.61L150.83 24.43L150.84 24.44Q150.88 17.25 154.19 11.01L154.23 11.05L154.32 11.14Q153.59 11.28 152.18 11.89L152.19 11.89L152.22 11.92Q152.63 11.12 153.47 9.56L153.39 9.48L153.37 9.47Q150.86 10.30 148.42 10.87L148.45 10.90L148.41 10.86Q145.83 17.38 145.83 24.81L145.94 24.91L145.96 24.93Q145.86 26.70 146.05 28.68L146.09 28.71L146.05 28.68Q141.42 23.02 136.66 18.41L136.58 18.33L126.53 8.66L126.58 8.71Q126.05 8.45 124.84 7.88L124.82 7.86L124.86 7.90Q129.72 15.62 129.72 24.72L129.66 24.65L129.64 24.64Q129.59 31.70 126.50 37.72L126.59 37.81L126.49 37.70Q126.77 37.57 128.41 36.96L128.55 37.10L128.49 37.04Q128.24 37.90 127.41 39.38L127.30 39.28L127.29 39.27Q128.71 38.82 132.17 38.02L132.20 38.04L132.15 38.00Q134.44 31.83 134.44 24.64L134.41 24.61L134.51 24.71Q134.39 22.50 134.16 20.37L134.31 20.52L134.16 20.37Q145.81 33.35 154.41 40.20Z"/></svg>